<svg xmlns="http://www.w3.org/2000/svg" width="64" height="64" fill="none" viewBox="0 0 64 64"><g fill="#fff" clip-path="url(#a)"><path d="M24.968 22.025h5.14v24.05h3.75v-27.8h-8.89zm26.416 7.622a6.92 6.92 0 0 0 1.91-4.777 6.953 6.953 0 0 0-6.945-6.945 6.953 6.953 0 0 0-6.945 6.945c0 1.85.728 3.531 1.911 4.777a8.82 8.82 0 0 0-3.795 7.248c0 4.869 3.96 8.83 8.83 8.83 4.868 0 8.829-3.961 8.829-8.83a8.82 8.82 0 0 0-3.795-7.248m-8.23-4.777a3.2 3.2 0 0 1 3.195-3.195 3.2 3.2 0 0 1 3.196 3.195 3.2 3.2 0 0 1-3.196 3.195 3.2 3.2 0 0 1-3.195-3.195m3.195 17.104c-2.8 0-5.08-2.278-5.08-5.08 0-2.8 2.28-5.079 5.08-5.079s5.08 2.279 5.08 5.08c0 2.8-2.279 5.08-5.08 5.08m-28.801-16.31h-3.75v5.79H8.007v3.75h5.79v5.791h3.75v-5.79h5.791v-3.75h-5.79z"/><path d="M54.628 9.373C48.582 3.329 40.548 0 32 0S15.417 3.329 9.373 9.373 0 23.453 0 32c0 8.548 3.329 16.583 9.373 22.627S23.453 64 32 64c8.548 0 16.583-3.329 22.627-9.373S64 40.548 64 32s-3.329-16.583-9.373-22.627M32 60.25C16.423 60.25 3.75 47.577 3.75 32S16.423 3.75 32 3.75 60.25 16.423 60.25 32 47.577 60.25 32 60.25"/></g><defs><clipPath id="a"><path fill="#fff" d="M0 0h64v64H0z"/></clipPath></defs></svg>