<svg xmlns="http://www.w3.org/2000/svg" width="112" height="112" fill="none" viewBox="0 0 112 112"><path fill="#fff" d="M72.775 22.448v11.2h11.2l-.047.094c3.08 0 5.6 2.52 5.6 5.6v11.153c0 3.08-1.26 5.88-3.266 7.886L72.775 71.87v6.533c0 6.16-5.04 11.153-11.2 11.153H33.622c-6.16 0-11.154-5.04-11.154-11.2V22.448zM28.069 39.202v39.153c0 3.08 2.52 5.6 5.6 5.6h28c3.08 0 5.599-2.52 5.6-5.6V39.202h-5.6v39.106h-5.6V39.202h-5.6v39.106h-5.6V39.202h-5.6v39.106h-5.6V39.202zm44.753 0v24.686l9.52-9.52a5.54 5.54 0 0 0 1.633-3.966l.047-.047V39.202zM28.069 28.048v5.6h39.153v-5.6z"/></svg>