<svg xmlns="http://www.w3.org/2000/svg" width="74" height="74" fill="none" viewBox="0 0 74 74"><path fill="#149A76" d="m59.431 17.205.031.03-4.779 4.78c6.722 8.078 6.321 20.103-1.264 27.688a28.5 28.5 0 0 1-3.484-4.224c-.586 3.854-2.652 7.585-6.229 10.545a19.2 19.2 0 0 1-3.33-3.607c-2.004 3.175-5.211 5.703-9.497 7.029a19.3 19.3 0 0 1-1.91-5.457c-3.27 3.793-8.388 5.92-14.339 5.365-.555-5.981 1.573-11.07 5.365-14.338a19.3 19.3 0 0 1-5.456-1.912c1.325-4.254 3.853-7.46 7.029-9.496a19 19 0 0 1-3.576-3.33c2.96-3.607 6.721-5.673 10.606-6.228a26.6 26.6 0 0 1-4.286-3.454c7.585-7.584 19.61-8.017 27.688-1.264l4.78-4.78zM24.189 46.65c-1.018.617-1.974 1.326-2.776 2.19-1.664 1.819-2.682 4.162-3.021 6.783 2.99-.401 5.612-1.696 7.523-3.792V51.8c.555-.586 1.018-1.295 1.42-2.004-.987 0-2.006-.03-3.023-.123-.123-1.018-.123-2.036-.123-3.023m13.69.648a24.3 24.3 0 0 1-5.272 1.88c-.247 1.727-.186 3.547.307 5.335 2.436-1.418 4.287-3.423 5.304-5.89h-.031c.061-.03.062-.091.062-.122-.154-.401-.246-.803-.37-1.203m7.122-9.497c-.986.401-1.973.74-3.021 1.048-.586 1.388-.925 2.868-.925 4.38 0 2.65.925 5.21 2.651 7.46l.032.032c1.726-2.22 2.651-4.81 2.651-7.462 0-1.912-.494-3.762-1.388-5.458m-10.73-1.572c-1.202.309-2.466.432-3.7.432-1.572 2.743-2.497 5.918-2.62 9.371 3.441-.158 6.606-1.051 9.342-2.62 0-1.263.154-2.496.432-3.73-1.233.154-2.467.278-3.732.278 0-1.264.125-2.498.279-3.73m4.563-17.915c-3.083 0-6.043.834-8.633 2.375a26 26 0 0 0 7.493 3.638l4.132 1.233-1.788 3.916a26 26 0 0 0-1.974 6.445 26 26 0 0 0 6.444-1.974l3.916-1.788 1.234 4.132a26 26 0 0 0 3.637 7.492c3.854-6.475 2.992-14.985-2.558-20.535a16.72 16.72 0 0 0-11.903-4.934m-13.32 17.42c-2.498.987-4.595 2.837-6.044 5.365l.031-.03c1.141.308 2.313.462 3.453.462.617 0 1.234-.062 1.851-.154.4-1.881 1.049-3.638 1.88-5.303-.4-.093-.801-.186-1.171-.34m5.241-8.108c-2.651 0-5.242.925-7.462 2.651 2.22 1.727 4.81 2.651 7.462 2.651a11.5 11.5 0 0 0 4.41-.893 35 35 0 0 1 1.048-3.023c-1.726-.894-3.577-1.386-5.458-1.386"/></svg>