<svg xmlns="http://www.w3.org/2000/svg" width="74" height="74" fill="none" viewBox="0 0 74 74"><path fill="#DB1C41" d="M56.84 23.11c0 7.216-3.854 13.506-9.62 16.99l2.436 8.88h-.03c2.928.37 5.21 2.867 5.21 5.888a5.955 5.955 0 0 1-5.95 5.952c-2.59 0-4.75-1.666-5.582-3.978h-16.99l-1.078 3.978h-4.1l5.642-20.72c-5.766-3.484-9.62-9.774-9.62-16.99zm-7.925 29.786c-1.11 0-2.003.894-2.003 1.972 0 1.08.894 1.974 2.004 1.974a1.987 1.987 0 0 0 1.973-1.974 1.967 1.967 0 0 0-1.974-1.972m-5.364-11.1c-2.065.708-4.255 1.14-6.567 1.14a19.4 19.4 0 0 1-6.568-1.14l-3.022 11.069h15.91a5.8 5.8 0 0 1 2.436-3.053zm-21.923-14.74c1.789 6.846 8.017 11.903 15.386 11.903 7.37 0 13.598-5.057 15.356-11.902zm9.65-7.923h-4.192l1.973-5.951h4.193zm7.926 0H35.01l2.004-5.951h4.162zm7.923 0h-4.162l1.973-5.951h4.193z"/></svg>