<svg xmlns="http://www.w3.org/2000/svg" width="248" height="158" fill="none" viewBox="0 0 248 158"><g fill="#fff" clip-path="url(#a)"><path fill-rule="evenodd" d="M33.27 96.213H15.773V74.244h6.811l10.699 21.969zm14.648-48.718v44.462L34.62 68.49l13.298-21.008zm-32.145-2.846H33.67L22.584 63.485h-6.811zM0 44.649h.962V96.2H0zm62.153 9.724h5.612c1.725 0 4.636.15 6.511 1.647 2.1 1.648 2.325 4.332 2.325 5.83 0 1.497-.225 4.181-2.325 5.829-1.874 1.498-4.786 1.647-6.511 1.647h-5.612zm51.792 0h1.65l5.387 19.497h-12.411zm13.548 41.84H102.06l3.362-11.434h18.697zm-1.4-51.564h30.996c-2.712.836-5.349 2.035-7.787 3.745-5.761 4.031-10.473 10.834-10.473 21.669 0 12.47 6.137 18.898 10.473 21.894 3.1 2.134 6.699 3.457 10.399 4.256h-16.498l-17.11-51.552z" clip-rule="evenodd"/><path fill-rule="evenodd" d="M154.077 69.913c0-2.759.3-8.213 2.687-12.108 1.275-2.022 4.262-5.604 10.248-5.904v36.011c-5.236-.224-8.449-2.983-10.248-5.904-2.4-3.882-2.687-9.262-2.687-12.108M76.988 44.649h26.471L86.349 96.2H62.153V80.06h5.162c5.836 0 12.273-.375 17.197-3.657 5.837-3.882 6.962-9.487 6.962-14.417s-1.125-10.535-6.962-14.417c-2.262-1.51-4.837-2.397-7.524-2.934m116.883 25.278c0 2.833-.3 8.213-2.687 12.108-1.8 2.908-5.012 5.68-10.249 5.904V51.914c5.237.224 8.449 2.983 10.249 5.904 2.399 3.882 2.687 9.261 2.687 12.107m39.906 26.288h14.211V54.76h-14.211zm-28.87-41.466c2.562 3.857 4.224 8.875 4.224 15.316 0 12.332-6.137 18.673-10.474 21.669-3.337 2.297-7.273 3.67-11.273 4.481h31.583V54.76h-14.073zm-.15-10.098h-13.886c2.712.836 5.349 2.035 7.786 3.745a23.8 23.8 0 0 1 6.1 6.14z" clip-rule="evenodd"/><path d="M53.63 127.181c0 2.222-.076 4.369-1.188 6.379-1.25 2.222-3.337 3.195-5.35 3.195-2.011 0-4.099-.973-5.348-3.195-1.113-2.01-1.188-4.169-1.188-6.379s.075-4.368 1.188-6.378c1.25-2.222 3.337-3.195 5.349-3.195s4.1.973 5.35 3.195c1.111 2.01 1.186 4.169 1.186 6.378m9.448-31.63H50.23c-6.112 0-12.223.138-17.16 4.931-5.837 5.555-5.974 14.367-5.974 18.811v3.195c0 4.019.487 11.446 4.724 16.651 4.8 5.83 11.81 6.379 15.773 6.379 4.237 0 10.073-.762 14.523-4.856 2.224-2.084 5.424-6.241 5.561-13.468.138-6.453-2.3-10.76-5.286-13.468-2.013-1.81-5.762-4.307-11.949-4.307-4.374 0-7.161 1.174-9.723 3.533v-2.01c0-2.846 1.325-4.306 2.012-4.93 1.812-1.523 4.787-1.598 7.087-1.598H63.09v-8.888zm36.108 31.006c0 1.66-.138 4.169-1.387 6.104-1.25 1.947-3.062 2.846-5.424 2.846s-4.175-.899-5.487-2.921c-1.25-1.947-1.388-4.231-1.388-6.041s.138-4.019 1.388-5.967c1.325-2.009 3.2-2.921 5.487-2.921s4.174.899 5.424 2.846c1.112 1.735 1.387 3.882 1.387 6.042m13.123-17.126H99.31l-.487 4.369c-2.225-3.607-6.05-5.48-10.836-5.48-5.137 0-9.099 2.01-11.886 5.13-2.5 2.772-4.65 7.153-4.65 13.319s2.15 10.547 4.65 13.319c2.775 3.12 6.736 5.13 11.886 5.13 7.299 0 9.998-4.094 10.836-5.617l.487 4.506h12.998v-34.701zm22.772 13.606v7.152h1.524c.9 0 3.125.063 4.175 1.173.625.699.975 1.81.9 2.921-.075 1.174-.488 2.147-1.663 2.846-1.037.624-2.087.624-3.262.624-1.325 0-2.574-.075-3.749-1.036-1.525-1.248-1.6-2.983-1.6-4.094v-.836h-13.898c0 5.48 3.125 9.711 8.061 11.933 3.825 1.735 7.574 1.947 11.324 1.947s8.411-.137 12.373-2.01c4.024-1.872 6.324-4.855 6.324-9.436 0-1.947-.487-3.82-1.8-5.343a7.55 7.55 0 0 0-4.099-2.496c1.112-.349 2.637-1.036 3.887-2.846 1.037-1.523 1.325-3.12 1.325-4.793-.063-4.444-2.363-7.078-5.975-8.813-2.637-1.248-6.249-2.009-11.673-2.009-6.324 0-9.723 1.173-11.536 2.009-3.886 1.81-7.361 5.755-7.498 11.584h13.61v-1.323c0-1.81.762-2.983 1.525-3.608 1.037-.898 2.287-1.11 3.474-1.11.7 0 2.15 0 3.2.836s1.25 2.084 1.25 2.908c0 .762-.138 1.873-.975 2.709-1.038 1.036-2.437 1.111-3.687 1.111zm52.017 3.532c0 1.66-.138 4.169-1.388 6.104-1.249 1.947-3.062 2.846-5.424 2.846s-4.162-.899-5.486-2.921c-1.25-1.947-1.388-4.231-1.388-6.041s.138-4.019 1.388-5.967c1.324-2.009 3.199-2.921 5.486-2.921s4.175.899 5.424 2.846c1.113 1.735 1.388 3.882 1.388 6.042m13.123-17.126h-12.986l-.487 4.369c-2.225-3.607-6.049-5.48-10.836-5.48-5.137 0-9.099 2.01-11.886 5.13-2.499 2.772-4.662 7.153-4.662 13.319s2.15 10.547 4.662 13.319c2.775 3.12 6.737 5.13 11.886 5.13 7.299 0 10.011-4.094 10.836-5.617l.487 4.506h12.986v-34.701zm6.574 0v48.569h13.485v-18.387c2.225 3.608 6.049 5.48 10.836 5.48 5.837 0 9.724-2.634 11.886-4.993 2.499-2.709 4.662-7.215 4.662-13.319 0-6.103-2.15-10.622-4.662-13.318-2.712-2.983-6.812-4.993-11.886-4.993-3.549 0-8.274 1.111-10.836 5.342l-.487-4.368h-12.998zm13.135 17.138c0-1.81.213-4.156 1.325-5.966 1.037-1.735 2.775-2.909 5.487-2.909 2.287 0 4.174.899 5.486 2.909 1.25 1.947 1.388 4.231 1.388 5.966s-.138 4.094-1.388 6.042c-1.324 2.009-3.199 2.908-5.486 2.908-2.712 0-4.45-1.173-5.487-2.908-1.112-1.81-1.325-4.157-1.325-6.042M109.708 15.041c2.425-1.41 4.537-3.133 6.262-4.78 1.725 1.647 3.837 3.37 6.262 4.78h-12.536zm18.773 18.037h-5.2c-3.737-4.144-5.811-9.424-5.811-15.041h9.036c0 5.13.675 10.173 1.975 15.04m-19.822 0h-5.212a58 58 0 0 0 1.975-15.041h9.036c0 5.604-2.062 10.897-5.799 15.04M132.53 15.04c-5.874 0-11.198-3.67-15.06-7.514V4.519h4.512L120.469.012h-6.024v7.515c-3.849 3.844-9.173 7.514-15.06 7.514v3.008h3.012a55.2 55.2 0 0 1-3.012 18.05h10.586a25.6 25.6 0 0 0 5.987-9.487c1.287 3.595 3.324 6.84 5.986 9.487h10.586c-1.925-5.555-3.012-11.659-3.012-18.05h3.012zM87.537 27.024a15 15 0 0 1-2.1-4.331l-.712-2.397-2.275 1.036c-1.2.55-2.45.924-3.724 1.136a14.6 14.6 0 0 1 1.137-3.707l1.037-2.272-2.4-.699a14.7 14.7 0 0 1-4.336-2.11 9.7 9.7 0 0 1 5-1.373 9.7 9.7 0 0 1 6.886 2.846c3.212 3.208 3.699 8.126 1.474 11.859m-5.536 4.006c-1-1.298-1.538-2.783-1.538-4.318 0-.874.188-1.723.525-2.534a16 16 0 0 0 1.75-.612c.513.986.8 2.047.8 3.146 0 1.535-.538 3.02-1.537 4.318m-3.175-1.186c-.587 1.424-1.65 2.584-3.074 3.396a7.1 7.1 0 0 1-.163-3.07c1.088-.238 2.1-.625 3.05-1.1.062.225.125.462.212.687 0 .025-.012.05-.025.075zm-5.924-1.485c.075-1.985.6-3.82 1.512-5.405.713 0 1.438-.087 2.15-.25-.1.712-.163 1.436-.163 2.16.738 0 1.45-.062 2.15-.15a9.6 9.6 0 0 0-.25 2.147c-1.587.912-3.424 1.423-5.411 1.51zm-2.687-9.112c1.3-.998 2.775-1.535 4.324-1.535 1.1 0 2.163.287 3.15.799-.238.574-.438 1.16-.613 1.747a6.7 6.7 0 0 1-2.55.524c-1.537 0-3.024-.536-4.324-1.535zm1.512 12.445c-1.1 1.21-2.612 1.96-4.35 2.184.188-1.51.788-2.858 1.75-3.92a7.1 7.1 0 0 1 1.6-1.26c0 .574.013 1.161.075 1.748.6.062 1.175.075 1.75.062a6.3 6.3 0 0 1-.825 1.16zm-3.737-6.191c.838-1.46 2.063-2.522 3.5-3.083.225.075.45.137.675.2-.475.948-.85 1.971-1.1 3.07-.35.05-.713.087-1.075.087a7.4 7.4 0 0 1-2-.274m23.11-13.793-1.526-1.523-2.75 2.746c-4.673-3.894-11.635-3.657-16.022.724.775.761 1.613 1.41 2.475 1.997-2.237.325-4.412 1.523-6.137 3.595a11 11 0 0 0 2.075 1.922c-1.837 1.174-3.3 3.021-4.062 5.493 1.05.549 2.1.91 3.15 1.098-2.2 1.885-3.425 4.83-3.1 8.276 3.45.324 6.387-.912 8.287-3.108.187 1.048.55 2.097 1.1 3.145 2.474-.761 4.324-2.222 5.499-4.057A11 11 0 0 0 82 34.077c2.062-1.71 3.262-3.87 3.6-6.104.6.873 1.262 1.685 2.012 2.434 4.387-4.382 4.624-11.334.725-16.003l2.762-2.746zM54.33 18.773c0 .662-.263 1.286-.726 1.748L49.38 24.74V13.818h4.95zm-9.912 14.842H32.045a2.48 2.48 0 0 1-2.474-2.472V13.83h2.474v17.313h2.475V13.83h2.474v17.313h2.475V13.83h2.475v17.313h2.474V13.83h2.475v17.313a2.48 2.48 0 0 1-2.475 2.472m2.475-24.728v2.472H29.558V8.887zm7.436 2.472H49.38V6.416H27.096v24.727a4.94 4.94 0 0 0 4.95 4.943h12.372c2.737 0 4.95-2.21 4.95-4.943v-2.896l5.974-5.966a4.92 4.92 0 0 0 1.45-3.495v-4.943a2.48 2.48 0 0 0-2.475-2.472zm108.246 22.019a1.365 1.365 0 0 1-1.362-1.361c0-.749.613-1.36 1.362-1.36s1.363.611 1.363 1.36-.613 1.36-1.363 1.36m-3.824-2.71h-10.886l2.062-7.563a13.5 13.5 0 0 0 4.5.773 13.8 13.8 0 0 0 4.499-.773l1.5 5.467a4.06 4.06 0 0 0-1.675 2.084zm-14.835-17.624h21.034c-1.212 4.668-5.462 8.138-10.511 8.138s-9.311-3.457-10.523-8.138m19.172 14.966-1.662-6.079c3.937-2.371 6.586-6.678 6.586-11.608h-27.146c0 4.93 2.637 9.237 6.587 11.608l-3.862 14.155h2.812l.737-2.709h11.624a4.06 4.06 0 0 0 3.824 2.71 4.07 4.07 0 0 0 4.074-4.07c0-2.072-1.562-3.77-3.562-4.02zM150.502 7.614h-2.862l1.362-4.057h2.863zm5.437 0h-2.862l1.35-4.057h2.874zm5.424 0h-2.862l1.362-4.057h2.862z"/></g><defs><clipPath id="a"><path fill="#fff" d="M0 0h248v158H0z"/></clipPath></defs></svg>