<svg xmlns="http://www.w3.org/2000/svg" width="74" height="74" fill="none" viewBox="0 0 74 74"><path fill="#EC691F" d="m42.657 14.369 1.88 5.643h-5.642v3.76c4.81 4.841 11.47 9.436 18.839 9.436V37h-3.762c0 8.016 1.357 15.663 3.762 22.632H44.506c-3.33-3.33-5.889-7.4-7.492-11.902a31.76 31.76 0 0 1-7.492 11.902H16.263c2.405-6.969 3.762-14.616 3.762-22.632h-3.762v-3.762c7.37 0 13.998-4.594 18.84-9.434v-9.435zm-18.84 22.63c0 6.445-.832 12.736-2.466 18.84h6.506c4.687-5.18 7.276-11.81 7.276-18.84zm15.078 0c0 7.03 2.59 13.66 7.276 18.84h6.506A72.4 72.4 0 0 1 50.21 37zm-1.88-9.804c-2.128 2.097-4.78 4.255-7.833 6.013h15.664c-3.021-1.789-5.673-3.947-7.832-6.013"/></svg>