<svg xmlns="http://www.w3.org/2000/svg" width="188" height="120" fill="none" viewBox="0 0 188 120"><g clip-path="url(#a)"><path fill="#DB1C41" fill-rule="evenodd" d="M25.22 73.073H11.958V56.388h5.163l8.11 16.685zm11.105-37.001V69.84L26.244 52.018l10.08-15.955zm-24.368-2.161h13.567L17.12 48.216h-5.163zM0 33.91h.73v39.153H0zm47.116 7.386h4.254c1.308 0 3.515.113 4.936 1.251 1.592 1.251 1.763 3.29 1.763 4.427 0 1.138-.171 3.176-1.763 4.428-1.42 1.137-3.628 1.25-4.936 1.25h-4.254z" clip-rule="evenodd"/><path fill="#EC691F" fill-rule="evenodd" d="M86.378 41.296h1.25l4.084 14.808h-9.408zm10.27 31.777h-19.28l2.548-8.684H94.09zM95.587 33.91h23.496c-2.056.636-4.055 1.546-5.902 2.845-4.368 3.062-7.94 8.228-7.94 16.457 0 9.47 4.652 14.353 7.94 16.628 2.349 1.621 5.078 2.626 7.883 3.233h-12.507L95.587 33.92z" clip-rule="evenodd"/><path fill="#149A76" fill-rule="evenodd" d="M116.8 53.098c0-2.095.228-6.237 2.037-9.195.967-1.536 3.231-4.257 7.769-4.484v27.35c-3.969-.17-6.404-2.266-7.769-4.484-1.819-2.949-2.037-7.035-2.037-9.196" clip-rule="evenodd"/><path fill="#EC691F" fill-rule="evenodd" d="M58.362 33.91H78.43L65.46 73.064H47.116V60.806h3.913c4.425 0 9.304-.285 13.037-2.778 4.424-2.948 5.277-7.205 5.277-10.95s-.853-8-5.277-10.95c-1.715-1.146-3.667-1.82-5.704-2.227" clip-rule="evenodd"/><path fill="#149A76" fill-rule="evenodd" d="M146.967 53.098c0 2.152-.228 6.238-2.037 9.196-1.365 2.21-3.8 4.314-7.769 4.484v-27.35c3.969.17 6.404 2.266 7.769 4.484 1.819 2.949 2.037 7.034 2.037 9.196m30.251 19.965h10.773V41.59h-10.773zM155.332 41.58c1.943 2.93 3.203 6.74 3.203 11.632 0 9.367-4.652 14.182-7.94 16.458-2.529 1.744-5.514 2.787-8.546 3.403h23.942V41.59h-10.668zm-.113-7.67h-10.526c2.056.636 4.055 1.546 5.902 2.845a18 18 0 0 1 4.624 4.664z" clip-rule="evenodd"/><path fill="#EC691F" d="M40.655 96.594c0 1.687-.057 3.318-.9 4.844-.948 1.687-2.53 2.427-4.056 2.427-1.525 0-3.107-.74-4.054-2.427-.844-1.526-.9-3.167-.9-4.844s.056-3.319.9-4.845c.947-1.687 2.53-2.427 4.055-2.427s3.107.74 4.055 2.427c.843 1.526.9 3.166.9 4.845m7.162-24.023h-9.74c-4.632 0-9.265.104-13.008 3.744-4.424 4.219-4.528 10.912-4.528 14.287v2.427c0 3.053.369 8.693 3.58 12.646 3.639 4.428 8.954 4.845 11.958 4.845 3.211 0 7.636-.578 11.009-3.688 1.686-1.583 4.112-4.74 4.216-10.23.104-4.9-1.744-8.171-4.008-10.228-1.525-1.375-4.367-3.27-9.057-3.27-3.316 0-5.43.89-7.371 2.682V84.26c0-2.162 1.004-3.27 1.525-3.745 1.374-1.156 3.629-1.213 5.372-1.213h10.062v-6.75zM75.189 96.12c0 1.26-.104 3.166-1.052 4.635-.947 1.479-2.321 2.162-4.112 2.162s-3.164-.683-4.16-2.219c-.947-1.478-1.05-3.213-1.05-4.588s.103-3.053 1.05-4.532c1.005-1.526 2.426-2.218 4.16-2.218s3.165.683 4.112 2.162c.843 1.317 1.052 2.948 1.052 4.588m9.948-13.007h-9.854l-.37 3.318c-1.685-2.74-4.585-4.162-8.213-4.162-3.894 0-6.898 1.527-9.01 3.897-1.895 2.104-3.525 5.432-3.525 10.115s1.63 8.011 3.525 10.115c2.103 2.371 5.106 3.897 9.01 3.897 5.533 0 7.58-3.11 8.214-4.266l.37 3.422h9.853V83.084z"/><path fill="#DB1C41" d="M102.399 93.437v5.432h1.156c.682 0 2.369.047 3.164.89.474.532.739 1.375.683 2.219-.057.891-.37 1.631-1.261 2.162-.786.474-1.582.474-2.472.474-1.005 0-1.952-.057-2.843-.787-1.155-.948-1.212-2.266-1.212-3.11v-.635H89.078c0 4.162 2.369 7.376 6.111 9.063 2.9 1.318 5.742 1.479 8.584 1.479s6.376-.104 9.38-1.526c3.05-1.422 4.794-3.688 4.794-7.167 0-1.479-.37-2.901-1.365-4.058a5.7 5.7 0 0 0-3.107-1.896c.843-.265 1.999-.787 2.946-2.161.787-1.157 1.004-2.37 1.004-3.64-.047-3.376-1.79-5.376-4.528-6.694-1.999-.948-4.737-1.526-8.849-1.526-4.794 0-7.371.891-8.745 1.526-2.947 1.375-5.58 4.37-5.685 8.798h10.318v-1.005c0-1.375.578-2.266 1.156-2.74.786-.682 1.733-.843 2.634-.843.53 0 1.629 0 2.425.635s.947 1.583.947 2.209c0 .578-.104 1.422-.739 2.057-.786.787-1.847.844-2.795.844zm39.432 2.683c0 1.26-.104 3.166-1.051 4.635-.948 1.479-2.322 2.162-4.112 2.162s-3.155-.683-4.16-2.219c-.947-1.478-1.051-3.213-1.051-4.588s.104-3.053 1.051-4.532c1.005-1.526 2.426-2.218 4.16-2.218s3.164.683 4.112 2.162c.843 1.317 1.051 2.948 1.051 4.588m9.948-13.007h-9.844l-.369 3.318c-1.686-2.74-4.586-4.162-8.214-4.162-3.894 0-6.898 1.527-9.01 3.897-1.895 2.104-3.534 5.432-3.534 10.115s1.629 8.011 3.534 10.115c2.103 2.371 5.106 3.897 9.01 3.897 5.533 0 7.589-3.11 8.214-4.266l.369 3.422h9.844V83.084z"/><path fill="#149A76" d="M156.763 83.103v36.888h10.223v-13.965c1.686 2.74 4.586 4.162 8.214 4.162 4.425 0 7.371-2 9.01-3.792 1.895-2.057 3.534-5.48 3.534-10.115 0-4.636-1.629-8.068-3.534-10.116-2.056-2.266-5.163-3.792-9.01-3.792-2.69 0-6.272.844-8.214 4.058l-.369-3.318h-9.854zm9.958 13.016c0-1.374.161-3.156 1.004-4.531.786-1.318 2.103-2.209 4.159-2.209 1.734 0 3.165.683 4.16 2.209.947 1.479 1.051 3.214 1.051 4.531 0 1.318-.104 3.11-1.051 4.589-1.005 1.526-2.426 2.209-4.16 2.209-2.056 0-3.373-.891-4.159-2.209-.843-1.375-1.004-3.157-1.004-4.589"/><path fill="#EC691F" d="M83.166 11.424c1.838-1.072 3.44-2.38 4.747-3.631 1.307 1.251 2.909 2.56 4.746 3.63h-9.502zm14.23 13.699h-3.94c-2.834-3.148-4.406-7.158-4.406-11.424h6.85c0 3.896.511 7.726 1.497 11.423m-15.026 0h-3.95a44.2 44.2 0 0 0 1.496-11.424h6.85c0 4.256-1.563 8.276-4.396 11.423m18.096-13.7c-4.453 0-8.489-2.787-11.416-5.706V3.432h3.42L91.324.009h-4.567v5.708c-2.918 2.92-6.954 5.707-11.417 5.707v2.284h2.284c0 4.854-.825 9.48-2.284 13.709h8.025a19.45 19.45 0 0 0 4.538-7.205c.976 2.73 2.52 5.195 4.539 7.205h8.024a42 42 0 0 1-2.283-13.709h2.283z"/><path fill="#149A76" d="M66.358 20.525a11.4 11.4 0 0 1-1.591-3.29l-.54-1.82-1.725.787c-.91.417-1.857.701-2.823.862.161-.967.445-1.905.862-2.815l.787-1.726-1.82-.53a11.2 11.2 0 0 1-3.287-1.603 7.33 7.33 0 0 1 3.79-1.043c1.97 0 3.818.768 5.22 2.162 2.435 2.436 2.804 6.171 1.118 9.006m-4.197 3.043c-.758-.986-1.166-2.114-1.166-3.28 0-.663.143-1.308.398-1.924.455-.133.9-.285 1.327-.465.388.749.606 1.555.606 2.39 0 1.165-.407 2.293-1.165 3.28m-2.407-.9c-.445 1.08-1.25 1.962-2.33 2.578a5.4 5.4 0 0 1-.124-2.332 10 10 0 0 0 2.312-.834c.047.17.095.35.161.521 0 .02-.01.038-.019.057zm-4.49-1.129c.056-1.507.454-2.9 1.146-4.104.54 0 1.09-.067 1.63-.19a12 12 0 0 0-.124 1.64c.56 0 1.1-.047 1.63-.114a7.3 7.3 0 0 0-.19 1.63c-1.203.693-2.596 1.082-4.102 1.148zm-2.038-6.92c.986-.758 2.104-1.166 3.279-1.166.833 0 1.639.218 2.387.607q-.268.656-.464 1.327a5 5 0 0 1-1.933.398c-1.165 0-2.293-.408-3.278-1.166zm1.147 9.452c-.834.92-1.98 1.488-3.297 1.659.142-1.147.597-2.171 1.326-2.977.35-.38.767-.692 1.213-.958 0 .436.01.882.057 1.328.455.047.89.056 1.326.047-.18.313-.379.616-.625.882zm-2.833-4.703c.635-1.109 1.563-1.915 2.653-2.341.17.057.34.104.511.152a10.3 10.3 0 0 0-.833 2.332 6 6 0 0 1-.815.066 5.6 5.6 0 0 1-1.516-.209M69.049 8.884l-1.156-1.157-2.084 2.086c-3.544-2.958-8.82-2.778-12.146.55a13.4 13.4 0 0 0 1.876 1.517c-1.696.246-3.345 1.156-4.652 2.73a8.4 8.4 0 0 0 1.572 1.46c-1.392.891-2.5 2.294-3.079 4.171a8.3 8.3 0 0 0 2.388.834c-1.668 1.432-2.596 3.67-2.35 6.286 2.615.246 4.842-.692 6.282-2.36.142.796.416 1.592.833 2.388 1.876-.578 3.279-1.687 4.17-3.08.397.558.88 1.09 1.458 1.573 1.563-1.299 2.473-2.939 2.729-4.636.455.664.957 1.28 1.525 1.849 3.326-3.328 3.506-8.608.55-12.154l2.093-2.086z"/><path fill="#DB1C41" d="M41.185 14.258c0 .503-.199.977-.55 1.327l-3.202 3.205v-8.295h3.752zM33.672 25.53h-9.38a1.88 1.88 0 0 1-1.876-1.877V10.504h1.876v13.149h1.876V10.504h1.876v13.149h1.876V10.504h1.876v13.149h1.876V10.504h1.876v13.149a1.88 1.88 0 0 1-1.876 1.877m1.876-18.78v1.877H22.407V6.75zm5.637 1.877h-3.752V4.873H20.541v18.78a3.75 3.75 0 0 0 3.751 3.754h9.38a3.75 3.75 0 0 0 3.752-3.754v-2.2l4.529-4.53a3.74 3.74 0 0 0 1.099-2.655v-3.754a1.88 1.88 0 0 0-1.876-1.878zm82.058 16.723a1.035 1.035 0 0 1-1.033-1.033c0-.57.464-1.034 1.033-1.034.568 0 1.032.465 1.032 1.034 0 .568-.464 1.033-1.032 1.033m-2.9-2.057h-8.252l1.564-5.745c1.07.379 2.217.588 3.41.588s2.341-.218 3.411-.588l1.137 4.152a3.1 3.1 0 0 0-1.27 1.583zM109.097 9.907h15.946c-.919 3.545-4.141 6.18-7.968 6.18s-7.059-2.625-7.978-6.18m14.534 11.366-1.26-4.616c2.984-1.802 4.993-5.072 4.993-8.817h-20.578a10.27 10.27 0 0 0 4.993 8.817l-2.928 10.75h2.132l.559-2.057h8.811a3.08 3.08 0 0 0 2.899 2.057 3.083 3.083 0 0 0 .389-6.143zm-9.54-15.49h-2.17l1.033-3.081h2.169zm4.121 0h-2.17l1.023-3.081h2.179zm4.111 0h-2.169l1.033-3.081h2.169z"/></g><defs><clipPath id="a"><path fill="#fff" d="M0 0h188v120H0z"/></clipPath></defs></svg>