<svg width="267" height="91" viewBox="0 0 267 91" fill="none" xmlns="http://www.w3.org/2000/svg">
<path d="M201.373 3.90714C201.254 3.80257 200.996 3.5867 201.042 3.44503L201.269 2.76704L201.546 0.992815L202.208 2.13965C202.27 2.24422 202.628 2.24422 202.712 2.14977C203.409 1.37734 201.997 0.655509 202.562 0.254115C202.958 -0.0292214 204.344 -0.0966827 204.774 0.15967C205.513 0.60154 204.978 2.12616 204.37 2.29482L205.232 4.35575L206.302 5.34069L206.544 5.5397L207.091 5.96133L207.295 6.11649L208.183 6.28177C208.395 6.32225 208.26 7.01035 208.064 7.0913L207.341 7.405L207.083 6.33911L206.864 6.20756L206.352 5.67462L206.186 5.51946C206.106 5.61728 205.69 5.95121 205.579 5.89387L203.624 4.89544L203.089 4.62223C202.962 4.55476 203.439 3.84642 203.289 3.82956L201.646 3.64067L201.789 3.90039L203.078 6.36272L201.473 6.76074C201.35 6.7911 201.873 7.45559 201.989 7.39825L203.143 6.81809C203.424 6.67642 204.174 7.37464 204.067 7.64448L203.628 8.77109C203.586 8.87902 203.732 8.96672 203.828 8.91613C203.936 8.86216 204.278 8.57882 204.305 8.47426L204.821 6.59884C205.171 6.84507 205.948 7.54329 205.883 7.8435L205.409 10.0056L206.806 9.65483C207.191 9.55701 207.86 9.132 208.176 8.86891L206.614 8.90938C206.448 8.91276 206.167 8.67664 206.152 8.53497C206.133 8.32247 206.36 7.9177 206.594 7.91433L208.583 7.87385L208.814 9.92467C208.864 10.3733 210.176 10.7747 210.534 10.8354L211.015 9.91793L212.346 10.8894C214.232 12.2656 214.332 14.141 214.751 13.21L215.528 11.4898L216.921 11.3987C217.086 11.3886 217.159 11.9687 217.021 12.0497L216.413 12.4072C216.301 12.4747 215.859 12.7378 215.867 12.7277C215.767 12.8255 216.817 13.5102 216.813 13.4866C216.84 13.6654 217.032 12.586 217.606 12.3128C217.844 12.1981 218.394 12.613 218.525 12.8322L218.86 13.3888C219.041 13.6924 220.576 13.1223 220.495 12.6366L220.199 10.9265C220.187 10.8556 220.865 10.8253 220.876 10.9029L221.342 14.4108C221.38 14.7077 220.822 15.5577 220.664 15.8545C220.603 15.9692 221.211 16.0738 221.353 16.1007L222.784 16.3672C223.185 16.4414 222.973 17.821 222.584 17.7164L221.58 17.4398L221.376 17.6018C221.438 17.6861 222.053 18.2156 222.311 18.2662L225.501 18.9038L227.332 18.8734L229.175 19.919L228.448 18.9274C228.375 18.8295 228.552 18.4349 228.683 18.4653L229.541 18.6575C229.706 18.6946 230.133 19.042 230.114 19.204L230.022 19.9123C229.995 20.1046 230.83 20.4115 230.81 20.2327L230.741 19.5176L231.468 18.9274L231.237 16.7484C231.214 16.5325 232.288 16.2896 232.184 16.4009L232.465 18.7789L233.488 17.3758C233.573 17.2611 233.796 16.9035 233.807 16.9508C233.75 16.6269 232.488 16.0839 232.938 15.1192C233.234 14.4783 234.877 14.2658 236.351 14.7347C236.72 14.8527 236.962 15.7061 236.951 16.1277C236.928 17.1262 236.124 17.9593 235.354 18.2089C235.966 18.4754 236.67 18.9307 236.708 19.2984L236.909 21.3189C237.166 21.2548 237.805 21.0119 237.855 20.8399L238.463 18.7857C238.64 18.1819 239.267 17.1767 239.798 16.8732C239.986 16.7652 240.875 16.7248 240.945 16.9103L241.352 17.9863L241.572 18.5664C241.618 18.6912 242.126 18.7688 242.145 18.6407L242.33 17.342C242.368 17.0789 243.049 16.8631 243.395 16.8597C243.861 16.8529 244.65 17.8716 244.396 18.2089L243.365 19.5952C243.049 20.0202 242.668 21.0996 242.526 21.6157C242.399 22.0711 243.341 22.9717 243.634 23.1875C243.738 22.8401 244.088 21.8889 244.396 22.0339L245.261 22.4387C245.458 22.5298 245.25 23.2617 245.031 23.3123L243.861 23.5788L244.742 25.1473L245.623 24.1084C245.812 23.8858 246.677 24.0713 247.047 24.1657L247.131 21.4302L248.105 22.7322L249.043 23.8756L249.597 22.7254L249.617 25.5655C249.617 25.9062 250.525 26.564 250.663 26.736C250.729 26.4965 250.902 25.5318 251.194 25.5892L252.845 25.9197C253.16 25.9838 252.976 27.215 252.633 27.1543L250.767 26.8237C250.906 27.4477 251.363 28.3686 251.887 28.6148L253.406 29.34L253.43 25.94L253.864 27.1003C253.96 27.3566 254.622 25.9265 253.468 24.2602L254.257 23.68C254.438 23.5451 255.149 24.051 255.072 24.2467C254.969 24.5131 254.465 25.2316 254.488 25.5183L254.795 29.4075C255.261 29.2523 255.561 28.9993 255.576 28.8003L255.961 24.6751L256.831 25.9298C256.642 26.2165 256.765 26.0276 256.95 25.7477L257.896 23.6362C258 23.4 258.574 24.2737 258.562 24.5131L258.443 27.0294C258.82 27.188 258.981 27.188 259.028 27.333L259.405 28.5001C259.235 28.7362 259.312 28.6283 259.539 28.3112L260.143 27.8896L260.051 29.5525C259.982 30.7769 261.829 31.5493 260.774 35.8466C260.74 36.3931 260.89 36.4808 261.167 35.904L262.517 32.0452C262.89 30.9827 263.806 33.2123 263.487 35.0202L263.002 37.7794C262.944 38.1099 262.294 39.0004 262.563 39.2365L263.556 40.1034C264.626 41.0378 261.817 43.0076 263.291 44.3602L265.091 46.0096C264.283 45.9962 263.664 45.9017 263.468 46.0366C262.79 46.492 262.81 48.219 263.237 48.8666L264.353 50.5565C264.091 50.8297 264.653 50.3407 264.656 50.226L264.733 48.5192L263.722 48.2021C263.479 48.1245 264.383 47.6287 264.576 47.7771L265.291 48.3371L265.968 46.6674C266.388 47.2847 267.019 47.966 267 48.3708L266.876 50.8399C266.861 51.1198 266.438 51.8012 266.299 51.8788L265.795 48.698C265.772 48.5394 265.422 49.1432 265.43 49.3051L265.526 51.5651L264.868 55.1911L264.78 56.3245C264.772 56.4425 263.933 56.0614 263.964 55.9467L264.283 54.7863C264.333 54.6076 263.479 54.3917 263.387 54.5536L262.325 56.4661L262.086 55.154C262.063 55.0292 261.409 55.0899 261.452 55.2113C261.494 55.3328 261.609 55.66 261.59 55.7881L261.328 57.5219C261.301 57.6939 260.64 58.0009 260.459 57.9233L259.409 57.4713C259.043 57.3128 258.535 58.1122 258.358 58.7699L259.016 58.5608C259.566 58.264 259.697 58.4596 259.243 58.834L258.981 59.3366L260.528 59.0094C260.944 59.0937 261.244 59.1545 260.736 59.0499L261.009 58.0919C261.063 57.9064 261.913 58.0245 261.871 58.2134C261.552 59.6908 260.147 60.7094 259.447 60.4328L258.347 59.9943C258.112 59.8999 257.55 60.3316 257.381 60.5307C256.023 62.1329 254.103 61.5055 254.38 61.9912C254.995 63.0672 255.857 63.1987 255.842 63.4281L255.742 64.8381C255.734 64.9291 255.049 64.9089 255.038 64.8279C254.972 64.4873 254.83 63.7081 254.834 63.7452L252.468 63.2561C251.814 63.1212 251.363 64.7773 251.413 65.3643C251.479 66.1738 250.933 64.9696 249.397 64.6593L248.632 64.5041C248.493 64.4771 248.782 64.1769 248.997 63.9408C249.447 63.4517 249.151 63.3674 248.701 63.6541L247.905 63.9712C247.751 64.0319 248.566 65.3643 248.066 65.6577L246.989 66.2885L246.2 65.4047C246.608 67.1048 244.769 67.7524 245.642 67.9008C245.862 67.9379 246.396 68.0559 246.246 68.1234L244.207 69.0206C243.869 69.1691 243.28 68.9363 242.676 68.6698C242.426 70.4812 244.319 71.2233 242.649 71.1963L240.44 68.9667C240.91 68.346 240.729 68.5855 240.487 68.906L239.048 70.1641C238.982 70.2215 239.055 70.7544 239.075 70.8151L240.718 70.1034C240.871 70.0359 241.337 70.8826 241.16 70.8893C240.983 70.8961 240.556 70.9365 240.44 71.0377L239.202 72.161L237.867 70.498C237.724 70.3193 237.178 70.8691 237.12 71.0816L236.943 71.7225C236.874 71.9788 237.455 72.5455 237.728 72.6737C237.747 72.6838 238.078 72.4848 238.205 72.4207L238.821 72.0969C238.948 72.0294 239.217 72.4477 239.255 72.5725C239.309 72.7378 239.286 73.3382 239.105 73.2842L238.294 73.0447C237.705 72.8693 237.905 73.4866 236.678 73.3011C236.254 73.237 235.643 73.1155 235.381 73.1897C234.508 73.4326 235.035 74.7312 234.916 74.8088L234.285 75.2271C232.599 76.3469 232.973 78.9442 233.307 81.0321L234.635 89.34C234.689 89.684 234.142 90.4295 234.004 90.4531C232.726 88.2707 232.365 86.1288 232.415 83.7002L231.776 78.5698C229.933 76.3941 230.029 73.807 231.407 71.456L231.006 70.38C230.922 70.1506 229.922 70.3597 229.987 70.5925L230.464 72.3128C230.583 72.7445 229.402 73.6282 229.017 73.3247L228.209 72.6872C228.229 72.4308 228.236 72.3802 228.198 72.8322L226.32 74.2691C226.093 74.4411 225.893 74.5862 225.982 74.684L226.724 75.5239C226.859 75.6757 226.116 76.0265 225.993 75.868C224.554 74.0027 222.684 74.5862 221.526 72.4072C220.58 72.6197 219.637 73.2774 218.964 74.2084C218.637 74.3062 217.648 74.4243 217.417 74.1612C216.744 73.3854 216.74 71.5977 216.552 72.4612L216.028 73.2167L215.547 73.8711C215.174 74.3771 214.724 73.1122 213.978 73.0784C212.108 72.9907 210.684 74.0532 210.449 73.5102C210.357 73.2977 210.257 72.8794 210.234 72.6163L210.165 71.7562L208.591 72.7647C208.356 72.9165 208.168 73.6856 208.022 73.9082L207.687 74.4108C207.622 74.5086 207.125 74.0836 207.118 73.9858L206.956 72.0227C206.933 71.7326 207.429 71.0647 207.691 70.633C208.314 70.3631 208.218 70.2417 207.66 70.3429L206.186 70.2451L204.155 70.1304C204.04 70.8354 204.024 70.9332 204.063 70.7139L206.271 71.2435C206.567 71.3143 206.194 72.3735 205.906 72.306L203.089 71.655C202.462 71.51 202.908 69.982 203.32 69.5199C203.532 69.2804 202.662 68.6563 202.351 68.5484C202.285 68.5248 202.108 68.906 202.054 68.9667L201.493 69.6042C201.362 69.7526 200.777 69.0679 200.965 68.9802L201.773 68.6125L201.823 68.2516L199.384 67.9885C198.976 67.9446 199.149 68.626 199.611 68.5518C200.4 68.8216 200.962 69.8133 200.773 70.4542C200.704 70.6971 200.419 71.0816 200.254 71.2334C199.173 72.2487 199.076 69.4355 197.784 68.7002C197.403 68.4843 196.329 69.2433 196.137 69.6008C195.51 70.7881 195.691 69.874 193.855 69.8268C193.64 69.8201 192.993 69.5435 193.182 69.4524L194.025 69.0544C195.371 68.4169 195.229 67.5163 195.556 67.6579L196.352 67.9986L196.933 68.2482L197.591 67.0913L198.203 66.7506C197.707 66.4538 197.487 66.2986 197.399 66.3829L196.718 67.0036C196.46 67.2397 195.591 67.3847 195.298 67.179C194.405 66.5516 195.818 64.7976 195.156 64.7605L191.093 64.5378C190.012 64.4771 190.354 64.1837 188.911 63.988L187.499 63.7992L187.099 63.7452L186.326 63.7789C185.756 63.8025 186.684 62.6152 186.626 61.7112L186.564 60.6892C186.545 60.3991 187.684 60.4834 187.622 60.76L187.488 61.3705L187.38 61.8428C187.368 61.9001 187.503 62.2442 187.542 62.3487C187.569 62.4128 188.13 62.2273 188.134 62.1464L188.25 60.0382C188.257 59.9033 187.934 59.5828 187.799 59.5221C187.592 59.431 186.788 59.6604 186.695 59.8493L185.241 62.8817L183.494 67.0946L183.152 66.3357C182.982 65.9613 182.644 66.5212 181.54 66.0692C181.339 65.9883 181.309 65.3373 181.52 65.2867L182.544 65.0404C183.806 64.7369 182.821 64.2613 184.675 62.5073C185.041 62.1598 185.249 61.1344 185.279 60.7196C184.987 60.7398 183.675 60.5678 183.452 60.8646L180.505 64.8043C180.27 65.1146 180.728 65.8196 180.312 66.0591L179.381 66.5954C178.881 65.8399 177.661 65.4722 176.838 65.6139C175.918 65.7724 176.153 65.3643 175.718 64.3186L174.81 68.2853L164.638 68.174L163.341 68.1808L160.048 68.0053L154.161 67.7625C154.103 67.7625 153.688 68.0458 153.638 68.0829C153.399 68.4135 153.084 68.852 153.349 68.4843L152.93 67.8502C152.849 67.7288 152.172 67.5534 152.153 67.6917L151.999 68.6597L151.572 71.3784C151.552 71.5066 150.848 71.7663 150.798 71.736L146.393 67.4522L140.322 66.3357L139.471 66.1704C139.225 66.1232 138.771 66.7236 138.771 66.9395L138.783 68.6698L138.456 68.2448L137.759 67.351C137.267 66.7202 135.104 68.7744 134.447 68.4202C133.789 68.0661 133.285 66.6055 133.085 65.9006L132.931 65.3643L132.819 64.9527L132.727 64.349C132.669 63.9745 131.58 64.548 131.376 64.4535L129.699 63.6777C129.553 63.6103 128.864 64.0993 128.825 64.44L128.698 65.5633C128.687 65.6746 128.437 66.0254 128.318 66.103L127.833 66.4234L127.81 65.651L127.733 63.2628C127.729 63.0874 126.813 63.4281 126.752 63.5934L125.69 66.447C125.794 66.7135 125.963 67.152 125.855 66.8788C126.74 66.6764 127.048 66.5988 127.152 66.754C127.256 66.9091 127.394 67.297 127.283 67.3544L126.409 67.7996C125.759 68.1302 124.335 67.2026 124.02 66.6292L121.915 62.7535C121.584 62.1464 119.457 62.0519 118.749 62.3251C118.449 62.4398 118.002 63.0132 117.829 63.2561L118.079 63.4281L118.833 63.7654C119.034 63.8531 118.764 64.2242 118.568 64.3152C118.372 64.4063 117.806 64.4265 117.818 64.2343L117.856 63.6035L117.664 63.4753L115.436 65.4621C115.317 65.5666 114.794 64.8347 114.786 64.6964L114.678 62.7299L114.401 62.9053L113.574 64.8954L113.328 65.4891C113.274 65.6206 112.524 65.2428 112.443 65.1146L110.565 62.1295C110.477 61.9878 110.019 61.5223 109.954 61.664L109.565 62.4769L108.757 67.9075L106.025 69.729L104.002 70.4711C103.694 69.7459 103.067 68.5585 102.97 67.8637L102.532 64.6863L102.466 62.4533C102.463 62.2745 101.139 62.4466 101.151 62.6186L101.516 67.4049L98.8574 68.7137C98.2226 69.0274 97.4069 69.2197 96.5105 69.3647L96.5451 66.0389L95.2793 66.447C94.9907 66.5414 94.5714 65.8938 94.4367 65.651L94.0366 64.9426L93.7942 68.255C93.7826 68.3933 93.3902 68.9127 93.3479 68.9431L93.1247 65.651L93.0901 64.4299C93.1285 64.3861 92.6399 64.7976 92.5899 64.892L91.2087 67.3678L90.8047 65.2529C90.7162 64.7807 89.9467 65.6645 87.9999 65.9579C86.9341 66.1198 86.3839 66.6055 86.1339 67.668L85.1989 66.6696C82.4095 67.3442 79.7432 67.7456 76.9307 67.0575C76.2382 66.8889 74.88 66.7708 74.2452 66.8079C74.0451 66.818 74.0874 66.1772 73.9335 66.0625L72.737 65.1922L70.3092 65.6375L69.6975 65.516C69.4974 65.4756 69.2589 64.892 69.4474 64.8853L70.5554 64.8414C70.8632 64.8279 71.3172 64.0589 71.0556 63.924L68.6163 62.6422L67.6891 64.5581C67.5467 64.8515 67.8622 65.6678 67.9853 66.0422C68.0238 66.1637 67.4967 66.3391 67.4544 66.221L67.1581 65.3575L66.7003 64.0319L65.9308 66.1873L65.2113 68.7508L62.7374 65.7623C62.5758 65.5666 62.1256 65.2968 61.6178 64.9797L61.7255 66.8653C61.7486 67.2464 60.8752 67.3206 60.8944 66.8956C60.6867 66.4268 60.5636 66.1367 60.4097 66.1839L59.4016 66.4875C59.1669 66.5583 59.594 67.179 59.7518 67.3544L60.1403 67.7861C60.2173 67.8704 60.0211 68.1706 59.898 68.1808C59.7094 68.1909 59.1823 68.0526 59.0592 67.9278L57.374 66.2514L57.4971 65.6139L56.0774 66.9192C55.9081 67.0744 55.8004 67.6309 55.7773 67.948L57.2663 67.0845C57.4779 66.9631 58.0896 67.6208 57.9588 67.8198C57.1162 69.1016 55.7196 69.0173 55.6465 68.9161L54.7924 67.7153C54.4384 67.2161 52.8686 67.3341 52.2992 67.5972V68.8689C52.38 68.8621 52.9263 68.7845 52.9879 68.6496L53.2495 68.0931C53.3072 67.9716 53.7997 67.9244 53.842 68.0492L54.4115 69.8808L55.2579 69.1623C55.408 69.0341 55.8812 69.3714 55.9851 69.5266C56.1236 69.7357 56.0005 70.4205 55.7427 70.3463L54.8116 70.0798L54.0729 70.4846L53.0187 70.1776C51.1719 69.6379 51.4412 68.4371 49.8407 68.2685L49.7406 69.6447C49.7329 69.7661 49.0288 69.7391 48.9788 69.6581L47.8669 67.8434C47.6976 67.5669 47.5937 67.4016 47.5784 67.3847C47.563 67.3678 46.8127 67.5871 46.8089 67.6883C46.7896 68.1706 46.982 68.8655 47.2783 69.7121L45.9894 70.4137C45.7162 70.5621 44.9274 69.503 45.0775 69.6784L42.6959 71.6752C43.2923 72.2082 43.3192 72.4814 43.4308 72.9233C43.4654 73.0582 42.9191 73.1392 42.8229 73.0312L42.3766 72.5219C42.1342 72.2453 41.4532 71.8068 41.0646 71.5977L38.7407 70.3496L37.5172 69.6312L36.6054 70.4407L38.406 71.3885C38.8985 71.6483 39.6026 72.451 39.6603 72.9334C39.6718 73.038 39.1524 73.4393 39.0677 73.3618L38.4829 72.812L37.2056 71.6955L36.4284 71.0546C36.6746 70.8994 36.6438 70.9197 36.2014 71.1996C35.9359 71.4054 34.1738 71.5403 33.9968 71.0512L33.3504 69.2669L32.9849 69.928C33.0118 70.0832 32.2654 70.8657 31.9884 70.6971C29.3567 69.0949 27.0752 72.107 26.7482 69.6615L26.5673 69.0375C25.5554 69.6716 25.0283 70.1169 24.8706 70.6195L24.6359 71.3683C24.5859 71.5336 23.8895 71.284 23.8741 71.1187L23.6894 69.2635C23.6663 69.0341 23.9203 68.4236 24.0126 68.1976C24.2665 67.577 25.5285 67.4353 24.6282 67.378L22.2312 67.2262C21.9003 67.2059 21.0731 67.3139 20.7923 67.3611C20.6768 67.8907 20.6499 68.0188 20.7038 67.7726L23.0123 68.3325C23.3162 68.4067 22.9622 69.4591 22.6506 69.3883L20.1921 68.8318C19.9074 68.7677 19.2918 68.3258 19.3802 68.0829L19.8843 66.6528C20.2921 66.2008 20.1344 66.3559 19.6957 66.8045C19.2879 66.8653 19.0109 66.9057 19.2648 66.8686L18.9339 64.946L18.6608 65.9613C18.6108 66.1468 18.2106 67.1284 18.1529 66.9462L17.6335 65.2091C17.999 64.5817 17.9144 64.7166 17.5296 65.3609L17.4142 67.496C17.4026 67.7119 17.168 68.1504 17.0102 68.3123C16.8525 68.4742 16.1022 68.2482 16.0022 68.0526L14.9249 65.8803C14.7902 65.6105 12.9396 65.9579 12.7895 66.6089L12.6279 67.3038C12.5972 67.4421 11.7892 67.2936 11.7392 67.1587C11.5468 66.6426 11.6199 65.4553 11.9431 64.9426C12.1008 64.693 13.1204 65.0371 13.3936 65.2023C14.1131 65.6375 13.7514 64.3793 14.2939 64.2275L15.3212 63.9374C15.5828 63.8632 15.0518 63.0874 14.7825 63.1414C13.4205 63.4214 13.7052 64.4434 12.6087 64.3355L10.9504 64.1736L10.3695 64.1162C9.61152 64.0386 11.6084 63.445 12.1432 62.2813C12.324 61.8833 12.5164 61.3571 12.7741 61.3604L13.8668 61.3672L13.7976 60.5947L11.8084 61.0096C11.543 61.0636 11.089 61.6977 10.9889 61.8259L8.01097 61.5696L6.16419 61.1378L3.60947 60.9894C3.44018 60.9793 2.91692 60.8342 2.94386 60.6959L3.07467 60.0112L3.41325 58.2235L3.60947 57.4612C3.66718 57.2386 4.38281 57.7074 4.34049 57.9401L4.10194 59.1882C4.07886 59.3096 4.81757 59.5862 4.89837 59.485L5.87563 58.291L7.20685 57.2655L8.04945 55.7443L9.51149 54.2601L8.67274 53.9093C8.5727 53.8655 8.22258 54.0105 8.21874 54.105L8.1918 55.0157C8.43419 55.1203 7.91094 54.8943 7.63007 54.7728C7.56467 54.7459 7.36075 54.7256 7.2915 54.7492L5.26003 55.4104L5.21771 54.7728C5.20617 54.6076 5.25619 54.2568 5.12537 54.1961L4.50593 53.9026C4.38666 53.8486 4.40205 53.4169 4.53286 53.3966C4.72908 53.3629 5.12537 53.3595 5.32929 53.3966L7.59929 53.8486C7.74165 53.8756 8.31492 53.3629 8.20719 53.2685C8.09947 53.174 7.83399 52.9413 7.69548 52.8873L6.32578 52.3476C6.04876 52.2397 6.39504 51.5347 6.6105 50.995L4.80603 51.4571C4.65598 51.4942 3.83647 51.3155 3.93266 51.2008L5.20617 49.6863C5.31775 49.5514 5.86793 49.4704 6.29885 49.3726C6.41427 49.4738 5.97566 49.0319 5.85639 48.9543L4.25969 47.9492C4.09425 47.8446 3.20164 48.3033 4.27123 48.2966L4.69446 49.9224L3.88649 49.4637L2.65914 48.1617C2.60143 48.1009 2.51679 48.0976 2.34365 48.0571L1.26636 47.794C1.08553 47.7501 1.26636 47.2138 1.43565 47.143C1.60494 47.0722 2.14358 47.0182 2.20899 47.1767L2.46292 47.7839L2.69762 47.993L3.7172 47.2408C4.10194 46.9575 4.30971 45.9894 4.03269 45.6116L3.37092 44.7076L2.25131 46.1412L1.64341 46.917C1.50106 47.0958 0.777731 46.6134 0.846985 46.411L1.33946 44.964H2.81304L2.40521 42.6771L3.34784 40.886C3.68257 40.2518 1.02782 40.9298 0.943172 40.832L0.412221 40.2215L0.00823689 39.7594C-0.0764074 39.6615 0.516102 39.6042 0.650764 39.6379L1.54338 39.8741C1.72806 39.9246 1.95121 39.331 2.13204 39.2804L3.66333 38.8385L2.99387 36.9193C2.95155 36.7978 2.5014 36.7708 2.36673 36.7304C2.23207 36.6899 2.10126 36.2278 2.25516 36.2143L3.77876 36.0726C4.15966 36.0389 5.03688 36.2075 5.32159 36.275L5.76405 35.4182C5.86793 35.2192 6.63358 35.2462 6.88751 35.2732L7.72241 35.3575C7.36845 35.1619 6.749 34.8482 6.66051 34.6627L5.62554 32.5005C5.57168 32.3859 5.5332 31.8934 5.66402 31.8664L6.43736 31.718C8.1995 31.3773 8.66889 29.8257 9.76927 30.5138C10.785 31.1513 10.4233 31.8226 10.8042 32.2914C11.2198 29.3231 15.6405 30.2001 13.3628 27.6265L12.5317 29.1039C12.2971 29.5221 10.7273 29.5862 10.2656 29.3096C9.28448 28.716 8.85357 27.1812 9.93471 26.1558L7.56082 24.7762L8.29184 27.5556C8.40726 27.9975 8.96899 28.9319 9.21908 29.34C9.34989 29.5491 8.83818 30.2473 8.62657 30.1124C8.48806 30.0213 8.1918 29.7616 8.13409 29.6267L7.84169 28.942C7.78397 28.8104 7.38768 29.0938 7.43001 29.2354L7.68394 30.1091C7.7378 30.2878 7.18377 30.4801 6.97985 30.443L5.18308 30.0922C4.90222 30.0382 5.04457 30.9456 5.14461 31.5359C4.46745 32.0418 4.67137 30.6825 2.97848 31.2188L3.52482 30.1866C3.54791 30.1462 3.44018 30.0517 3.31321 29.9235L3.58638 29.7448L3.86725 29.8965L4.50593 29.0229C4.6252 28.8576 4.77525 28.4529 4.96763 28.4731L5.64093 28.5406C5.98336 28.5743 6.65282 28.6384 6.4566 28.6182C4.72139 27.984 5.25234 27.0497 4.2443 25.5588C3.95189 25.1237 3.88649 23.7744 4.42513 23.707L6.4566 23.4574L6.24499 21.3931C6.20266 20.9613 5.89871 20.2968 6.05261 19.9325C6.20651 19.5682 7.45309 19.494 7.75704 19.7774C8.06099 20.0607 8.05714 20.9445 7.73011 21.2076C7.52619 21.3695 6.93368 21.8417 7.1376 21.6764C7.63777 22.2195 7.87631 22.7254 7.85323 23.2955C7.80321 24.4895 11.0043 22.7187 11.0659 23.6193L11.1659 25.0225C11.2121 25.6971 13.2243 25.8084 13.7014 25.3261C13.8091 25.2147 13.7745 24.7122 13.7476 24.6987C13.2551 24.5266 12.5317 23.8723 12.6818 23.5653C12.9434 23.0391 14.4901 23.056 14.5209 23.5113L14.6556 25.3598L15.4905 24.9989L15.5212 23.4473L16.3677 19.8853L16.6524 17.3555C16.6909 17.025 16.964 16.3942 17.2834 16.2964C17.6027 16.1986 18.2529 16.3402 18.4722 16.5662C19.2302 17.3488 17.8682 17.9559 18.0182 19.2883L18.3645 22.3881L19.4033 22.5298L19.6496 23.2719L19.9958 24.3141L20.5268 22.9514C22.0812 23.7407 19.7419 24.0477 20.6268 25.5318L21.1039 24.1792L22.8776 24.8943L21.8118 22.3713C22.4505 22.1183 23.0931 21.4403 23.1854 20.9074L22.9007 20.7185L22.1543 20.371L21.4733 21.3458L20.4075 20.3204L22.0504 19.2276L23.0777 20.425L23.2777 20.6915L23.6317 19.8954C23.7279 19.6829 24.7051 19.9528 24.6397 20.1754L24.3627 21.1367C24.2781 21.4268 24.4858 22.3814 24.6975 22.1453C24.8898 21.9294 25.4054 21.0659 25.6939 21.1603C26.8713 21.5449 26.8328 22.4893 28.6065 22.8941L27.9024 21.8147C27.7562 21.5921 28.4526 21.1907 28.6219 21.1266L27.4369 20.5498C27.1829 20.425 26.9982 19.4704 27.2906 19.4873C27.8216 19.5143 29.0874 19.7807 29.3529 20.1788L30.1647 21.3964C30.5379 21.9564 31.9307 20.8939 33.9699 21.9901L34.9433 22.5129C35.101 22.5972 35.5781 22.0744 35.4781 22.1318C35.0125 21.6056 34.5778 21.1468 34.4508 20.7825C34.3469 20.479 34.7393 19.8179 34.9933 19.3895C35.1703 19.0926 36.3553 19.0454 36.4476 19.376C36.7901 20.57 35.3011 20.6746 36.4053 20.7994L38.5483 21.0423L37.1094 21.953C36.9286 22.0677 37.5018 22.7693 37.5172 22.7929L39.4717 21.7776L40.549 21.248C40.7953 21.1266 41.3455 21.6089 41.6994 21.9091C41.7918 21.9361 42.3419 20.9411 42.0226 20.7893L40.9799 20.3002L40.6645 20.5194L39.4448 21.1637C39.2909 21.2447 38.81 21.329 38.6368 21.3492C38.3791 21.3829 38.4714 20.6746 38.5868 20.4689C38.6484 20.3609 38.7792 19.8617 38.6753 19.8684C38.4137 19.8921 37.5749 20.0742 37.5172 19.8819L37.1479 18.6305L35.1857 18.0875C34.6701 17.9458 34.1161 16.6573 34.2584 16.1952C34.42 15.6859 35.6897 15.0045 36.2783 14.8156C36.4861 14.7481 37.3133 15.2271 37.1286 15.3351L36.2745 15.8343C35.959 16.0198 35.4319 16.6742 35.3857 17.0688C35.3665 17.251 36.0629 17.9593 35.9552 17.7637L36.8747 16.4043C37.1094 16.0535 38.3175 16.1446 38.8908 16.1412L41.4994 16.1345C41.888 16.1345 41.988 16.9035 42.0418 17.3656C42.088 17.7502 43.25 17.7569 43.9002 17.6389C45.4661 17.3555 44.4504 16.0839 45.8008 15.4835L46.5318 15.1563C45.8585 15.0281 45.1583 15.0011 45.0121 15.2608L44.2157 16.6877C44.0464 16.9879 42.7844 16.492 43.0614 16.2829L44.3926 15.2912L42.6767 15.0686C42.3766 15.0281 42.5266 14.1073 42.6421 13.861C42.7844 13.5507 43.6309 13.0448 43.9156 13.2741L44.9582 14.1106L45.6777 13.7801L44.5773 11.0546C44.4696 10.7882 46.0086 10.4576 46.124 10.4812L46.0047 8.18755C45.9893 7.86711 47.3167 8.05937 47.2706 8.35957C47.1667 9.03419 47.1013 10.1372 47.1782 10.6533C47.209 10.8455 48.1901 10.7308 48.3825 10.6364L48.9404 10.3632C49.0558 10.3058 49.329 10.66 49.3443 10.7747L49.4982 11.9114L51.0334 11.5201L50.4024 10.8894C50.26 10.7477 50.691 10.1271 50.8679 10.235L51.9452 10.8961C52.4031 9.74927 54.0152 10.262 55.5696 8.98359C55.8581 8.74748 56.1044 7.72544 56.4314 7.85024L57.5241 8.25838C57.7588 8.34608 58.232 7.67147 58.4859 7.66472L59.6787 7.62762L60.4866 5.8028C60.5559 5.64426 61.1445 5.75895 61.3292 5.7893L63.0298 6.04903L62.8066 6.90916L64.7227 6.34586L65.2036 5.18215L66.8311 4.8381L65.7423 5.84327C65.6345 5.94446 65.773 6.51451 65.8885 6.41669C66.1501 6.18732 66.8888 5.6139 67.2081 5.62402L69.559 5.7151L70.8363 6.41669L74.9146 6.86531C75.1878 6.89567 76.1497 6.6292 75.9034 6.56173C75.3609 6.41332 74.4299 6.34923 73.7335 6.32899L74.1682 3.92063C74.2067 3.69801 74.6376 4.47381 74.7761 4.86509C74.7684 4.95953 75.6187 4.55476 75.5187 4.31528C75.3956 4.00833 74.9839 3.14145 75.1686 2.91546C75.4571 2.56466 76.8422 2.56466 77.3078 2.73331C77.6348 2.85137 77.9695 3.76547 77.7502 4.0117L76.8076 5.06747C78.1619 5.67125 77.3308 6.72027 77.831 7.15877C80.0395 9.09153 82.321 8.43378 82.3441 8.50462C82.448 8.81156 82.8327 9.82685 83.0674 9.57725L83.5753 9.03081C83.6753 8.9195 84.1909 9.05442 84.3717 9.11514C84.9719 9.31752 83.3791 9.76614 83.9254 10.0832L85.4336 10.9568L86.207 10.2181C86.3147 10.1136 86.8379 10.7612 86.6879 10.8253L85.7953 11.23L86.8764 11.5674C87.2842 11.6955 88.25 11.8709 88.7386 11.9013L93.8673 12.2184L94.0404 10.4677C94.0673 10.181 95.2177 10.4981 95.3139 10.7544L95.9218 12.3634C96.0295 12.6501 97.2954 12.5658 97.5685 12.532L97.5262 10.6566C97.5224 10.4677 98.4034 10.0562 98.5189 10.2316C99.296 11.3886 98.4611 12.0295 98.8305 12.1981C99.2922 12.4106 100.381 12.7749 100.981 12.8356L105.594 13.291C106.922 13.4225 107.091 9.82011 109.192 9.10165C109.303 9.06454 109.515 9.36137 109.557 9.46594L110.535 11.8271L111.377 13.861L114.282 14.1916L115.101 12.2318C115.155 12.1037 115.625 11.8642 115.779 11.8305C115.933 11.7967 116.375 12.1374 116.371 12.2791L116.313 13.888C116.31 14.0364 116.44 14.4513 116.483 14.5964C116.525 14.7414 116.917 14.3299 116.975 14.1882L117.356 13.3011L117.687 14.6402L118.372 14.2962C118.345 13.6991 118.337 13.5777 118.372 14.3839L119.568 14.9505C119.865 15.0922 121.003 15.1057 121.169 14.8493L123.104 11.8979C123.185 11.7765 123.724 11.5404 123.874 11.4931C124.024 11.4459 124.258 11.7765 124.251 11.9148L124.093 14.846C124.135 14.8122 124.443 14.34 124.482 14.2051L125.17 11.6618C125.52 10.3665 126.521 9.53677 127.917 8.74073V9.38161C127.513 10.3126 128.721 10.2991 128.937 11.5572L129.541 15.0821C129.445 15.3823 130.491 15.4531 130.468 15.1664L130.284 12.8727C130.237 12.3195 129.914 11.2334 130.045 10.7275L130.703 8.16731L130.857 7.10142L131.576 12.1307C131.696 12.9739 131.938 13.7194 131.807 14.4783L131.392 16.8765L133.123 17.1329L133.423 15.018L133.619 17.0857C133.639 17.2881 134.6 17.5039 134.589 17.2982L134.385 13.6384C134.377 13.5136 135.07 13.0346 135.17 13.1223L137.178 14.8932C137.54 15.2136 138.54 16.266 138.937 15.9726L140.449 14.8561C140.626 16.1142 140.645 18.1043 141.661 19.0184C142.799 20.0438 144.819 20.3171 146.505 20.7016C145.981 19.1466 146.158 18.0436 147.759 17.1498L147.905 17.767L147.074 20.5599C147.035 20.6881 147.628 21.1232 147.732 21.022L148.494 20.28C148.474 20.0472 148.494 20.2698 148.532 20.7387L149.194 21.2649C149.625 21.6089 149.621 20.5532 150.321 20.3744L150.667 21.221C150.729 21.3762 151.164 21.5955 151.202 21.447L151.425 20.6105L152.533 16.6573C152.822 16.5831 153.103 16.5123 153.003 16.5359L153.053 18.0537C153.061 18.2359 153.18 18.8363 153.191 18.8532L153.707 17.5545C153.765 17.4095 154.488 17.4972 154.5 17.6557C154.53 18.1212 154.476 19.1365 154.349 19.5143L153.68 21.4673L157.124 21.4066C157.631 21.3964 158.324 20.7117 158.624 20.3339L159.848 18.7857C159.928 18.6811 159.786 18.1617 159.659 18.0908L158.689 17.541C158.405 17.3791 159.205 16.6505 159.501 16.7888C159.721 16.89 160.198 17.1228 160.252 17.0216L160.632 16.3301L160.921 15.8039C160.979 15.6993 161.39 16.121 161.394 16.2323L161.498 18.6373C161.502 18.752 162.06 19.042 162.129 18.9577L162.745 18.1954L163.176 17.6591C163.26 17.5545 163.472 17.9121 163.526 18.0571L164.264 20.0371C164.311 20.1619 165.207 19.9427 165.126 19.8313L164.672 19.1871L165.234 19.0657C165.33 19.0454 165.78 20.3542 165.83 19.9798L165.93 19.2343C165.946 19.1331 166.307 18.9409 166.423 18.9847L167.108 19.2478L167.781 19.4097C167.877 19.4333 167.908 19.0623 167.958 18.7047C168.712 18.6845 169.459 19.2006 169.466 18.6103L169.505 16.4752L168.2 16.519C168.15 16.4549 168.247 16.5797 168.424 16.8023L168.816 17.2914C168.928 17.4297 168.404 18.1651 167.369 18.1954L165.615 18.246C165.599 18.3573 165.623 18.1819 165.684 17.7637C166.246 16.2863 167.208 17.089 168.512 15.9253C168.997 15.4936 169.459 15.1091 169.805 15.0112L171.055 14.6604C171.182 14.6233 171.882 14.9202 171.771 14.9876L170.063 16.0198C169.62 16.2863 170.047 17.5815 170.455 17.6726L171.082 15.8815L171.732 15.5172L172.69 16.4279L173.221 15.9186C172.898 15.6083 172.356 15.217 172.263 15.0079L171.409 13.1021C171.382 13.0414 171.348 13.0211 171.251 12.9199C171.201 12.9469 170.532 13.092 170.378 13.011C169.959 12.7985 170.039 11.7056 170.309 11.3245L170.855 10.5554C170.982 10.3767 171.875 10.6195 171.813 10.8219L171.552 11.6787C171.521 11.7866 171.071 12.0564 171.113 12.1576L171.359 12.7311L171.517 12.7479C171.813 12.1509 172.54 11.4257 173.079 11.0648L172.24 9.50979C172.082 9.21633 171.752 8.33259 172.079 8.18417C172.406 8.03576 173.037 7.92445 173.529 7.85024L173.329 5.60379C173.31 5.37779 174.291 5.08096 174.387 5.29684L174.676 5.92085L174.237 6.59546L174.633 8.0931L176.257 7.80302C176.438 7.76929 176.773 8.07286 176.761 8.23477L176.715 8.81494C176.696 9.0443 177.238 9.42883 177.48 9.33439L178.473 8.95998C178.665 8.88577 177.9 8.38656 177.873 8.20441L177.796 7.71869C177.773 7.5804 178.796 7.56016 178.835 7.69171L179.223 8.96672L181.47 9.01057L181.832 7.18912C181.897 6.85182 182.809 8.10997 182.559 8.36969L181.159 9.8336C180.862 10.1405 181.974 10.9771 182.274 10.9737L182.059 9.81673C182.001 9.49967 182.921 8.77109 184.341 8.38993C184.748 8.28199 183.321 6.63257 184.341 7.0913L185.148 7.45222L185.345 7.24646L186.276 6.47066C186.822 6.0153 188.065 8.0054 188.492 7.45897L189.131 6.64269L188.815 6.42344L188.146 7.03733C187.942 7.22285 188.084 6.43018 188.053 6.20756C188.015 5.95121 187.199 6.06252 186.834 6.10637C186.653 6.12661 186.157 5.65438 186.334 5.60716L187.172 5.38116C187.503 5.29346 188.392 5.16866 188.565 5.42501L189.127 6.24804L189.219 6.4909L190.377 6.55836L192.139 6.89567C192.443 6.95301 193.001 7.09805 192.897 7.07444L192.316 5.98494C192.062 5.50934 193.486 4.55814 193.505 4.96965L193.544 5.94109C193.29 5.84327 193.686 5.99506 194.236 6.20419L195.19 5.72522C194.671 5.29346 193.809 4.44683 193.482 3.86329C193.301 3.54285 194.486 2.91208 194.898 2.92558L197.037 3.00316L197.822 4.05892L200.573 3.76884L200.815 5.08433C200.838 5.19902 201.446 4.98314 201.45 4.86509L201.458 4.02182L201.304 3.8869L201.373 3.90714ZM196.525 5.45537L196.025 4.22083C195.975 4.09266 195.644 4.79088 195.702 4.72342L196.525 5.45537ZM200.104 4.27817L199.53 4.35575L199.45 5.25973L200.104 4.27817ZM198.699 5.73533C198.638 5.15517 198.48 5.22938 198.357 5.56331C197.768 6.27165 198.291 6.25141 198.699 5.73533ZM196.495 6.46391C196.668 6.39308 197.245 7.25658 197.395 7.47583C197.595 7.05757 197.53 6.47403 197.256 5.94784C197.199 5.83315 196.741 5.94446 196.568 5.99169L194.271 6.61233L194.317 7.36452L196.499 6.46729L196.495 6.46391ZM60.7752 7.10817L60.5905 7.27008L60.7752 7.43198L60.9599 7.27008L60.7752 7.10817ZM185.391 7.62425L185.949 8.80144L186.991 7.11829L185.687 7.55341L185.391 7.62087V7.62425ZM200.665 7.42861L200.481 7.59052L200.665 7.75242L200.85 7.59052L200.665 7.42861ZM200.4 8.79132L199.565 7.7052L198.934 9.37486L200.4 8.79132ZM202.501 7.68834L202.316 7.91096L202.501 8.07286L202.685 7.91096L202.501 7.68834ZM201.4 8.3933L201.216 8.55521L201.4 8.71712L201.585 8.55521L201.4 8.3933ZM196.995 8.71712L196.81 8.87902L196.995 9.04093L197.18 8.87902L196.995 8.71712ZM176.349 13.7362C177.365 11.682 179.789 12.2352 178.315 10.7612C177.95 11.4122 177.465 11.9418 176.853 11.9789C176.415 12.0058 175.58 11.3043 175.622 10.9029L175.78 9.40185L174.368 8.94311L175.607 12.2082L173.052 12.4612C172.79 12.4882 172.883 13.3146 173.137 13.264L174.179 13.0515L176.145 12.4578L176.345 13.7329L176.349 13.7362ZM201.789 9.59074C202.728 9.22982 201.947 9.53003 201.593 9.66495C201.065 9.99213 201.308 9.85721 201.789 9.59074ZM180.697 9.64808L179.704 9.96178C179.562 10.0056 179.612 10.3531 179.658 10.7241L180.697 9.64808ZM183.775 9.68181L183.59 9.84372L183.775 10.0056L183.96 9.84372L183.775 9.68181ZM196.995 9.68181L196.81 9.84372L196.995 10.0056L197.18 9.84372L196.995 9.68181ZM174.599 11.6112L174.414 11.7731L174.599 12.0497L174.783 11.7731L174.599 11.6112ZM48.3979 12.613C48.4748 12.3904 48.1593 11.8305 47.9169 11.8507C47.7553 11.8642 47.3206 11.9687 47.3244 12.1104C47.3283 12.2521 47.3898 12.7074 47.4475 12.8356L47.94 13.9454L48.4017 12.6096L48.3979 12.613ZM181.205 12.5793L181.02 12.7412L181.205 12.9031L181.39 12.7412L181.205 12.5793ZM218.379 13.6688C218.487 13.6148 218.244 13.7329 218.129 13.7902L218.379 13.6688ZM172.917 14.1983C173.375 13.9555 173.452 13.9116 172.956 14.1747C172.571 14.4345 172.429 14.5289 172.917 14.1983ZM221.419 17.1767L219.999 16.5325L220.184 15.6656L217.363 14.0061L217.687 15.6791L219.064 15.4497L219.922 17.6254L221.203 17.5174L221.422 17.1801L221.419 17.1767ZM218.798 13.7969L218.583 14.1039L219.299 14.539L218.802 13.7969H218.798ZM47.1898 14.1882L47.0051 14.3501L47.1898 14.512L47.3744 14.3501L47.1898 14.1882ZM175.391 14.6638L175.153 14.6706L175.391 14.6773H175.638L175.876 14.6706L175.638 14.6638H175.391ZM39.8488 17.4061L39.6641 17.568L39.8488 17.7299L40.0335 17.568L39.8488 17.4061ZM40.4375 18.7047L39.6603 18.0706C39.6026 18.4956 39.9373 19.268 40.3105 19.2478C40.4567 19.2411 40.5913 18.3674 40.4375 18.7081V18.7047ZM232.242 19.9831L232.234 20.1923V20.4081L232.242 20.6173L232.249 20.4081V20.1923L232.242 19.9831ZM39.4794 20.3002L39.2948 20.4621L39.4794 20.7421L39.6641 20.4621L39.4794 20.3002ZM233.711 20.624L233.527 20.7859L233.711 20.9478L233.896 20.7859L233.711 20.624ZM239.571 20.8736C239.475 20.8635 238.917 21.3627 238.963 21.5415L239.244 22.6344L239.567 20.8736H239.571ZM240.321 21.2716L240.314 21.4808V21.6966L240.321 21.9058L240.329 21.6966V21.4808L240.321 21.2716ZM26.4365 22.6512C26.5481 22.5264 25.6747 22.3004 25.5554 22.405C25.1361 22.7726 24.8167 23.653 25.0476 24.186L26.4327 22.6512H26.4365ZM240.498 23.4473L240.883 22.749C240.971 22.5871 240.417 22.3409 240.148 22.2161L240.206 23.9397L240.498 23.4506V23.4473ZM18.553 23.201L18.5453 23.4102V23.626L18.553 23.8352L18.5607 23.626V23.4102L18.553 23.201ZM248.766 24.1657L248.759 24.3749V24.5907L248.766 24.7999L248.774 24.5907V24.3749L248.766 24.1657ZM19.0032 26.9687L19.7611 24.8201L18.4953 25.1136L18.5915 27.0902C18.5992 27.2453 19.2456 27.0429 19.0032 26.9687ZM21.4887 26.0951L21.304 26.257L21.4887 26.4189L21.6733 26.257L21.4887 26.0951ZM16.0329 27.7513L15.8406 26.5302L15.402 26.6112C15.2096 27.0564 15.0288 27.3364 15.2057 27.4106L16.0329 27.7513ZM250.967 28.9926L250.782 29.1545L250.967 29.3164L251.152 29.1545L250.967 28.9926ZM255.449 33.2865L255.515 30.5172C254.507 31.0501 254.48 32.5478 255.449 33.2865ZM257.87 37.6445L258.389 39.6649C258.443 39.8741 259.128 40.2248 259.074 40.4374L258.862 41.2368C258.816 41.4088 259.035 42.0294 259.089 41.8642C259.174 41.6011 259.432 40.7308 259.72 40.7443L261.394 40.8286L261.752 37.1351C261.767 36.9935 261.232 36.5212 261.209 36.6595L261.109 37.3409L260.951 39.6413L258.843 39.6008L260.047 37.5703C259.909 37.55 259.174 37.4826 259.074 37.3611C258.651 36.8282 258.681 35.5329 258.697 34.7335L258.758 30.5712C258.143 31.438 258.189 32.8513 258.258 33.816C258.293 34.2916 257.689 35.2968 257.519 35.7893C257.427 36.0591 258.15 36.5786 258.354 36.7944C258.47 36.9159 258.07 37.2431 257.958 37.3645C257.916 37.4083 257.862 37.5939 257.873 37.6411L257.87 37.6445ZM8.13025 35.1147L8.84972 34.0117C8.96515 33.8363 9.48455 33.8025 9.95395 33.7216L9.38067 33.1752C9.24216 33.0436 8.37648 33.3168 8.32262 33.4889C8.20335 33.8936 8.13025 34.7335 8.13025 35.1113V35.1147ZM14.8826 34.1399L14.6979 34.3018L14.8826 34.4637L15.0672 34.3018L14.8826 34.1399ZM10.1078 35.1045L9.92317 35.2665L10.1078 35.4284L10.2925 35.2665L10.1078 35.1045ZM14.8826 36.3931L14.6979 36.555L14.8826 36.7169L15.0672 36.555L14.8826 36.3931ZM5.77559 37.7288C5.64863 37.5703 5.31005 37.1183 5.35237 37.1318C5.39854 37.1452 4.8599 37.2296 4.70215 37.2599C4.5444 37.2903 3.96728 37.8367 4.10964 37.8907L5.28696 38.3326C5.47934 38.4034 5.88717 37.8738 5.77175 37.7288H5.77559ZM263.025 40.4036L262.329 40.3868L261.809 41.6651C261.713 41.9013 262.186 42.306 262.456 42.559L263.021 40.4036H263.025ZM262.921 45.9759L262.833 44.6975L261.74 45.6116L262.925 45.9793L262.921 45.9759ZM263.714 52.2734L263.556 50.9073C263.421 50.9545 262.66 51.167 262.656 51.3492L262.629 52.8064L263.452 52.5095L263.714 52.2768V52.2734ZM264.676 51.6798C264.814 51.5921 264.314 51.528 264.145 51.5347C263.975 51.5415 263.983 51.9631 263.991 52.1183C263.999 52.2329 264.564 51.7472 264.676 51.6798ZM8.02636 51.8889C7.98404 51.9327 7.80321 52.1182 7.81475 52.1048L8.02636 51.8889ZM8.24567 52.1992L8.38033 52.4421C8.39957 52.4792 8.29184 52.2633 8.24567 52.1992ZM9.06518 52.6411L8.82664 52.6478L9.06518 52.6546H9.31142L9.54996 52.6478L9.31142 52.6411H9.06518ZM263.829 52.4927L263.698 52.6714L262.864 53.8284C262.483 53.6935 263.418 54.024 263.648 54.1084C263.833 54.1724 264.699 53.6226 264.591 53.481L263.829 52.4927ZM262.321 52.9649L261.702 53.7171C261.605 53.8318 262.471 54.2534 262.452 54.1084L262.321 52.9649ZM259.997 56.6719C261.232 56.0209 260.94 54.8336 260.001 54.3917V56.6719H259.997ZM11.3352 55.7612C11.7776 55.461 11.8931 55.3834 11.4352 55.6937C11.0736 55.9399 10.9312 56.0377 11.3352 55.7612ZM10.5426 56.7022L9.4884 56.8068L10.4657 57.0227L10.5426 56.7022ZM10.8696 60.2338L9.3345 59.1916C9.01516 58.9757 8.0533 59.0566 7.63392 59.0566L7.3569 59.7751L8.59579 59.6233C9.15367 59.5558 9.62306 60.9253 10.1155 60.6521L10.8696 60.2338ZM184.875 59.9404C185.964 59.8291 185.164 58.8273 184.591 59.4378C184.494 59.539 184.71 59.9572 184.875 59.9404ZM6.43736 59.8864L6.25268 60.0483L6.43736 60.2102L6.62204 60.0483L6.43736 59.8864ZM114.647 62.5983L114.386 61.8225C114.332 61.6573 113.713 62.197 113.836 62.3184L114.37 62.8378L114.647 62.5983ZM251.698 62.2914L251.152 62.2543L250.302 63.0436C250.725 63.2898 251.11 63.5091 251.186 63.3438L251.694 62.288L251.698 62.2914ZM189.65 62.7839L189.465 62.9458L189.65 63.1077L189.835 62.9458L189.65 62.7839ZM171.294 63.1077L171.286 63.3168V63.5327L171.294 63.7418L171.301 63.5327V63.3168L171.294 63.1077ZM178.027 63.4855C178.469 63.1853 178.585 63.1077 178.127 63.418C177.765 63.6642 177.623 63.762 178.027 63.4855ZM192.955 63.1077L192.947 63.3168V63.5327L192.955 63.7418L192.963 63.5327V63.3168L192.955 63.1077ZM173.987 67.9784L174.399 67.3813L173.868 64.0285L172.644 65.9276L173.987 67.9784ZM21.1232 65.3575L20.9385 65.5194L21.1232 65.6813L21.3078 65.5194L21.1232 65.3575ZM54.5346 66.3222L54.3499 66.4841L54.5346 66.646L54.7193 66.4841L54.5346 66.3222ZM28.0986 67.9345L28.0909 68.1436V68.3595L28.0986 68.5687L28.1063 68.3595V68.1436L28.0986 67.9345ZM31.2189 69.0443C31.3459 69.1421 30.7418 68.6766 30.5687 68.5417L28.5449 69.4085L31.2189 69.0443ZM227.836 69.5401L227.651 69.702L227.836 69.8639L228.021 69.702L227.836 69.5401ZM211.315 71.1524L211.13 71.3143L211.315 71.4762L211.5 71.3143L211.315 71.1524ZM214.466 71.9889L213.774 71.4121L211.684 72.3701L214.466 71.9856V71.9889Z" fill="#149A76"/>
</svg>
