<svg xmlns="http://www.w3.org/2000/svg" width="267" height="91" fill="none" viewBox="0 0 267 91"><path fill="#149A76" d="M201.373 3.907c-.119-.104-.377-.32-.331-.462l.227-.678.277-1.774.662 1.147c.062.104.42.104.504.01.697-.773-.715-1.494-.15-1.896.396-.283 1.782-.35 2.212-.094.739.442.204 1.966-.404 2.135l.862 2.06 1.07.986.242.199.547.421.204.155.888.166c.212.04.077.728-.119.81l-.723.313-.258-1.066-.219-.131-.512-.533-.166-.156c-.08.098-.496.432-.607.375l-1.955-.999-.535-.273c-.127-.067.35-.776.2-.792l-1.643-.19.143.26 1.289 2.463-1.605.398c-.123.03.4.695.516.637l1.154-.58c.281-.142 1.031.557.924.826l-.439 1.127c-.042.108.104.196.2.145.108-.054.45-.337.477-.442l.516-1.875c.35.246 1.127.944 1.062 1.244l-.474 2.163 1.397-.351c.385-.098 1.054-.523 1.37-.786l-1.562.04c-.166.004-.447-.232-.462-.374-.019-.213.208-.617.442-.62l1.989-.041.231 2.05c.05.45 1.362.85 1.72.911l.481-.917 1.331.971c1.886 1.377 1.986 3.252 2.405 2.321l.777-1.72 1.393-.091c.165-.01.238.57.1.65l-.608.358c-.112.068-.554.33-.546.32-.1.098.95.783.946.76.027.178.219-.901.793-1.174.238-.115.788.3.919.52l.335.556c.181.303 1.716-.267 1.635-.752l-.296-1.71c-.012-.071.666-.102.677-.024l.466 3.508c.038.297-.52 1.147-.678 1.444-.061.114.547.219.689.246l1.431.266c.401.074.189 1.454-.2 1.35l-1.004-.277-.204.162c.062.084.677.614.935.664l3.19.638 1.831-.03 1.843 1.045-.727-.992c-.073-.098.104-.492.235-.462l.858.192c.165.038.592.385.573.547l-.092.708c-.027.193.808.5.788.32l-.069-.714.727-.59-.231-2.18c-.023-.216 1.051-.458.947-.347l.281 2.378 1.023-1.403c.085-.115.308-.473.319-.425-.057-.324-1.319-.867-.869-1.832.296-.64 1.939-.853 3.413-.384.369.118.611.971.6 1.393-.023.998-.827 1.831-1.597 2.08.612.267 1.316.723 1.354 1.09l.201 2.02c.257-.063.896-.306.946-.478l.608-2.054c.177-.604.804-1.61 1.335-1.913.188-.108 1.077-.148 1.147.037l.407 1.076.22.58c.046.125.554.203.573.075l.185-1.299c.038-.263.719-.479 1.065-.482.466-.007 1.255 1.012 1.001 1.349l-1.031 1.386c-.316.425-.697 1.505-.839 2.02-.127.456.815 1.357 1.108 1.573.104-.348.454-1.3.762-1.154l.865.405c.197.09-.011.823-.23.873l-1.17.267.881 1.568.881-1.039c.189-.222 1.054-.037 1.424.058l.084-2.736.974 1.302.938 1.144.554-1.15.02 2.84c0 .34.908.998 1.046 1.17.066-.24.239-1.204.531-1.147l1.651.33c.315.065.131 1.296-.212 1.235l-1.866-.33c.139.624.596 1.545 1.12 1.79l1.519.726.024-3.4.434 1.16c.096.257.758-1.174-.396-2.84l.789-.58c.181-.135.892.371.815.567-.103.266-.607.985-.584 1.271l.307 3.89c.466-.156.766-.409.781-.608l.385-4.125.87 1.255.119-.182.946-2.112c.104-.236.678.638.666.877l-.119 2.516c.377.159.538.159.585.304l.377 1.167.134-.189.604-.421-.092 1.662c-.069 1.225 1.778 1.997.723 6.295-.034.546.116.634.393.057l1.35-3.859c.373-1.062 1.289 1.167.97 2.975l-.485 2.76c-.058.33-.708 1.22-.439 1.456l.993.867c1.07.935-1.739 2.905-.265 4.257l1.8 1.65c-.808-.014-1.427-.108-1.623.027-.678.455-.658 2.182-.231 2.83l1.116 1.69c-.262.273.3-.216.303-.331l.077-1.707-1.011-.317c-.243-.078.661-.573.854-.425l.715.56.677-1.67c.42.618 1.051 1.299 1.032 1.704l-.124 2.469c-.015.28-.438.961-.577 1.039l-.504-3.181c-.023-.159-.373.445-.365.607l.096 2.26-.658 3.626-.088 1.133c-.008.119-.847-.263-.816-.377l.319-1.16c.05-.18-.804-.395-.896-.233l-1.062 1.912-.239-1.312c-.023-.125-.677-.064-.634.057.042.122.157.449.138.577l-.262 1.734c-.027.172-.688.479-.869.401l-1.05-.452c-.366-.158-.874.641-1.051 1.299l.658-.21c.55-.296.681-.1.227.274l-.262.503 1.547-.328c.416.085.716.145.208.04l.273-.957c.054-.186.904-.067.862.121-.319 1.478-1.724 2.496-2.424 2.22l-1.1-.439c-.235-.094-.797.338-.966.537-1.358 1.602-3.278.974-3.001 1.46.615 1.076 1.477 1.208 1.462 1.437l-.1 1.41c-.008.091-.693.07-.704-.01-.066-.34-.208-1.12-.204-1.083l-2.366-.489c-.654-.135-1.105 1.521-1.055 2.108.066.81-.48-.394-2.016-.705l-.765-.155c-.139-.027.15-.327.365-.563.45-.49.154-.574-.296-.287l-.796.317c-.154.06.661 1.393.161 1.687l-1.077.63-.789-.883c.408 1.7-1.431 2.347-.558 2.496.22.037.754.155.604.222l-2.039.898c-.338.148-.927-.085-1.531-.351-.25 1.811 1.643 2.553-.027 2.526l-2.209-2.23c.47-.62.289-.38.047-.06l-1.439 1.258c-.066.058.007.59.027.651l1.643-.712c.153-.067.619.78.442.786s-.604.047-.72.149l-1.238 1.123-1.335-1.663c-.143-.179-.689.371-.747.584l-.177.64c-.069.257.512.824.785.952.019.01.35-.19.477-.253l.616-.324c.127-.068.396.35.434.476.054.165.031.765-.15.711l-.811-.24c-.589-.175-.389.443-1.616.257-.424-.064-1.035-.186-1.297-.111-.873.243-.346 1.541-.465 1.619l-.631.418c-1.686 1.12-1.312 3.717-.978 5.805l1.328 8.308c.054.344-.493 1.09-.631 1.113-1.278-2.182-1.639-4.324-1.589-6.753l-.639-5.13c-1.843-2.176-1.747-4.763-.369-7.114l-.401-1.076c-.084-.23-1.084-.02-1.019.213l.477 1.72c.119.431-1.062 1.315-1.447 1.012l-.808-.638c.02-.256.027-.307-.011.145l-1.878 1.437c-.227.172-.427.317-.338.415l.742.84c.135.152-.608.502-.731.344-1.439-1.865-3.309-1.282-4.467-3.46-.946.212-1.889.87-2.562 1.8-.327.098-1.316.216-1.547-.047-.673-.776-.677-2.563-.865-1.7l-.524.756-.481.654c-.373.506-.823-.759-1.569-.793-1.87-.087-3.294.975-3.529.432a3.6 3.6 0 0 1-.215-.894l-.069-.86-1.574 1.009c-.235.151-.423.92-.569 1.143l-.335.503c-.065.098-.562-.327-.569-.425l-.162-1.963c-.023-.29.473-.958.735-1.39.623-.27.527-.391-.031-.29l-1.474-.098-2.031-.115c-.115.705-.131.803-.092.584l2.208.53c.296.07-.077 1.13-.365 1.062l-2.817-.651c-.627-.145-.181-1.673.231-2.135.212-.24-.658-.864-.969-.972-.066-.023-.243.358-.297.419l-.561.637c-.131.149-.716-.536-.528-.624l.808-.368.05-.36-2.439-.263c-.408-.044-.235.637.227.563.789.27 1.351 1.261 1.162 1.902-.069.243-.354.628-.519.78-1.081 1.015-1.178-1.798-2.47-2.534-.381-.216-1.455.543-1.647.9-.627 1.188-.446.274-2.282.227-.215-.007-.862-.284-.673-.375l.843-.398c1.346-.637 1.204-1.538 1.531-1.396l.796.34.581.25.658-1.157.612-.34c-.496-.297-.716-.452-.804-.368l-.681.62c-.258.237-1.127.382-1.42.176-.893-.627.52-2.381-.142-2.419l-4.063-.222c-1.081-.06-.739-.354-2.182-.55l-1.412-.189-.4-.054-.773.034c-.57.023.358-1.164.3-2.068l-.062-1.022c-.019-.29 1.12-.206 1.058.071l-.134.61-.108.473c-.012.057.123.401.162.506.027.064.588-.122.592-.203l.116-2.108c.007-.135-.316-.455-.451-.516-.207-.091-1.011.138-1.104.327l-1.454 3.033-1.747 4.213-.342-.76c-.17-.374-.508.186-1.612-.266-.201-.08-.231-.732-.02-.782l1.024-.247c1.262-.303.277-.779 2.131-2.533.366-.347.574-1.373.604-1.787-.292.02-1.604-.152-1.827.145l-2.947 3.94c-.235.31.223 1.015-.193 1.254l-.931.536c-.5-.755-1.72-1.123-2.543-.981-.92.158-.685-.25-1.12-1.295l-.908 3.966-10.172-.111-1.297.007-3.293-.176-5.887-.242c-.058 0-.473.283-.523.32l-.289.401-.419-.634c-.081-.121-.758-.297-.777-.158l-.154.968-.427 2.718c-.02.129-.724.388-.774.358l-4.405-4.284-6.071-1.116-.851-.166c-.246-.047-.7.554-.7.77l.012 1.73-.327-.425-.697-.894c-.492-.63-2.655 1.423-3.312 1.07-.658-.355-1.162-1.815-1.362-2.52l-.154-.537-.112-.411-.092-.604c-.058-.375-1.147.199-1.351.105l-1.677-.776c-.146-.068-.835.421-.874.762l-.127 1.123c-.011.112-.261.462-.38.54l-.485.32-.023-.772-.077-2.388c-.004-.176-.92.165-.981.33l-1.062 2.854c.104.266.273.705.165.432.885-.203 1.193-.28 1.297-.125s.242.543.131.6l-.874.446c-.65.33-2.074-.597-2.389-1.17l-2.105-3.876c-.331-.608-2.458-.702-3.166-.429-.3.115-.747.688-.92.931l.25.172.754.337c.201.088-.069.46-.265.55s-.762.112-.75-.08l.038-.632-.192-.128-2.228 1.987c-.119.105-.642-.627-.65-.766l-.108-1.966-.277.175-.827 1.99-.246.594c-.054.132-.804-.246-.885-.374l-1.878-2.985c-.088-.142-.546-.608-.611-.466l-.389.813-.808 5.43-2.732 1.822-2.023.742c-.308-.725-.935-1.913-1.032-2.607l-.438-3.178-.066-2.233c-.003-.178-1.327-.006-1.315.166l.365 4.786-2.659 1.309c-.634.313-1.45.506-2.347.65l.035-3.325-1.266.408c-.288.094-.708-.553-.842-.796l-.4-.708-.243 3.312c-.011.138-.404.658-.446.688l-.223-3.292-.035-1.221c.038-.044-.45.368-.5.462l-1.381 2.476-.404-2.115c-.089-.472-.858.412-2.805.705-1.066.162-1.616.648-1.866 1.71l-.935-.998c-2.79.674-5.456 1.076-8.268.388-.693-.17-2.051-.287-2.686-.25-.2.01-.158-.63-.312-.746l-1.196-.87-2.428.446-.611-.122c-.2-.04-.44-.624-.25-.63l1.107-.045c.308-.013.762-.782.5-.917l-2.439-1.282-.927 1.916c-.142.293.173 1.11.296 1.484.039.122-.488.297-.53.179l-.297-.864-.458-1.325-.77 2.155-.719 2.564-2.474-2.989c-.161-.195-.611-.465-1.12-.782l.108 1.885c.024.381-.85.456-.83.03-.208-.468-.331-.758-.485-.711l-1.008.303c-.235.071.192.692.35.867l.388.432c.077.084-.119.385-.242.395-.189.01-.716-.128-.839-.253l-1.685-1.677.123-.637-1.42 1.305c-.169.155-.277.712-.3 1.029l1.49-.863c.21-.122.823.536.692.735-.843 1.282-2.24 1.197-2.312 1.096l-.855-1.2c-.354-.5-1.923-.382-2.493-.119v1.272c.081-.007.627-.085.689-.22l.261-.556c.058-.121.55-.169.593-.044l.57 1.832.846-.719c.15-.128.623.21.727.365.139.209.016.894-.242.82l-.931-.267-.74.405-1.053-.307c-1.847-.54-1.578-1.74-3.178-1.91l-.1 1.377c-.008.121-.712.094-.762.013l-1.112-1.815c-.17-.276-.273-.441-.289-.458s-.765.202-.77.303c-.018.483.174 1.177.47 2.024l-1.289.702c-.273.148-1.062-.911-.911-.736l-2.382 1.997c.596.533.623.806.735 1.248.034.135-.512.216-.608.108l-.446-.51c-.243-.276-.924-.714-1.312-.923L38.74 70.35l-1.224-.719-.912.81 1.801.947c.492.26 1.197 1.063 1.254 1.545.012.105-.508.506-.592.429l-.585-.55-1.277-1.117-.778-.64c.247-.156.216-.135-.227.145-.265.205-2.027.34-2.204-.149l-.647-1.784-.365.661c.027.155-.72.938-.997.77-2.631-1.603-4.913 1.409-5.24-1.036l-.18-.625c-1.013.635-1.54 1.08-1.697 1.582l-.235.75c-.05.165-.746-.085-.762-.25l-.185-1.856c-.023-.229.231-.84.324-1.065.253-.621 1.515-.763.615-.82l-2.397-.152c-.33-.02-1.158.088-1.439.135-.115.53-.142.658-.088.412l2.308.56c.304.074-.05 1.126-.361 1.055l-2.459-.556c-.285-.064-.9-.506-.812-.75l.504-1.43c.408-.451.25-.296-.188.153-.408.06-.685.1-.431.064l-.331-1.923-.273 1.015c-.05.186-.45 1.167-.508.985l-.52-1.737c.366-.627.281-.492-.103.152l-.116 2.135c-.011.216-.246.654-.404.816s-.908-.064-1.008-.26l-1.077-2.172c-.135-.27-1.985.078-2.136.729l-.161.695c-.03.138-.839-.01-.889-.145-.192-.516-.12-1.704.204-2.216.158-.25 1.177.094 1.45.26.72.434.358-.824.9-.975l1.028-.29c.262-.075-.27-.85-.538-.797-1.362.28-1.078 1.302-2.174 1.194l-1.659-.161-.58-.058c-.758-.077 1.238-.671 1.773-1.835.181-.398.373-.924.631-.92l1.093.006-.07-.772-1.989.415c-.265.054-.719.688-.82.816L8.01 61.57l-1.847-.432-2.555-.149c-.169-.01-.692-.155-.665-.293l.13-.685.34-1.788.195-.762c.058-.222.774.246.731.48l-.238 1.247c-.023.122.716.398.796.297l.978-1.194 1.33-1.025.843-1.522L9.51 54.26l-.838-.35c-.1-.044-.45.1-.454.195l-.027.91-.562-.242a.8.8 0 0 0-.338-.024l-2.032.661-.042-.637c-.012-.165.038-.516-.093-.577l-.62-.293c-.118-.054-.103-.486.028-.506a3 3 0 0 1 .796 0l2.27.452c.143.027.716-.486.608-.58-.108-.095-.373-.328-.512-.382l-1.37-.54c-.276-.107.07-.812.285-1.352l-1.804.462c-.15.037-.97-.142-.873-.256l1.273-1.515c.112-.135.662-.216 1.093-.313.115.1-.323-.341-.443-.419L4.26 47.95c-.166-.104-1.058.354.011.348l.423 1.625-.808-.458-1.227-1.302c-.058-.061-.142-.064-.315-.105l-1.078-.263c-.18-.044 0-.58.17-.651.169-.07.708-.125.773.034l.254.607.235.209 1.02-.752c.384-.283.592-1.252.315-1.63l-.662-.903-1.12 1.433-.608.776c-.142.179-.865-.304-.796-.506l.492-1.447h1.474l-.408-2.287.943-1.791c.335-.634-2.32.044-2.405-.054l-.53-.61-.405-.463c-.084-.098.508-.155.643-.121l.892.236c.185.05.408-.543.589-.594l1.531-.441-.67-1.92c-.041-.121-.492-.148-.626-.189-.135-.04-.266-.502-.112-.516l1.524-.141c.38-.034 1.258.135 1.543.202l.442-.857c.104-.199.87-.172 1.124-.145l.834.084c-.354-.195-.973-.509-1.061-.694L5.626 32.5c-.054-.115-.093-.608.038-.635l.773-.148c1.763-.34 2.232-1.892 3.332-1.204 1.016.637.654 1.309 1.035 1.777.416-2.968 4.836-2.09 2.559-4.664l-.831 1.477c-.235.418-1.805.482-2.266.206-.982-.594-1.412-2.129-.331-3.154l-2.374-1.38.73 2.78c.116.441.678 1.376.928 1.784.13.21-.38.907-.592.772-.139-.09-.435-.35-.493-.485l-.292-.685c-.058-.132-.454.152-.412.293l.254.874c.054.179-.5.371-.704.334l-1.797-.35c-.28-.055-.138.853-.038 1.443-.678.506-.474-.854-2.167-.317l.547-1.032c.023-.04-.085-.135-.212-.264l.273-.178.281.151.639-.873c.12-.165.27-.57.462-.55l.673.068c.342.033 1.012.097.816.077-1.736-.634-1.205-1.568-2.213-3.06-.292-.434-.358-1.784.181-1.851l2.032-.25-.212-2.064c-.042-.432-.346-1.096-.192-1.46.154-.365 1.4-.439 1.704-.156s.3 1.168-.027 1.43c-.204.162-.796.635-.592.47.5.543.738 1.048.715 1.619-.05 1.194 3.151-.577 3.213.323l.1 1.404c.046.674 2.058.785 2.535.303.108-.111.073-.614.047-.627-.493-.172-1.216-.827-1.066-1.134.261-.526 1.808-.509 1.839-.054l.135 1.849.835-.361.03-1.552.847-3.562.284-2.53c.039-.33.312-.96.631-1.059.32-.097.97.044 1.19.27.757.783-.605 1.39-.455 2.722l.346 3.1 1.04.142.246.742.346 1.042.53-1.363c1.555.79-.784 1.097.1 2.58l.478-1.352 1.774.715-1.066-2.523c.639-.253 1.281-.93 1.373-1.464l-.284-.189-.747-.347-.68.975-1.067-1.026 1.643-1.092 1.028 1.197.2.267.354-.797c.096-.212 1.073.058 1.008.28l-.277.962c-.085.29.123 1.244.335 1.008.192-.216.707-1.08.996-.985 1.177.385 1.139 1.33 2.913 1.734l-.705-1.08c-.146-.222.55-.623.72-.687l-1.185-.577c-.254-.125-.439-1.08-.146-1.063.53.027 1.796.294 2.062.692l.812 1.217c.373.56 1.766-.502 3.805.594l.973.523c.158.084.635-.439.535-.381-.465-.526-.9-.985-1.027-1.35-.104-.303.288-.964.542-1.392.177-.297 1.362-.345 1.455-.014.342 1.194-1.147 1.299-.043 1.423l2.143.243-1.439.911c-.18.115.393.816.408.84l1.955-1.015 1.077-.53c.246-.121.797.36 1.15.661.093.027.643-.968.324-1.12L40.98 20.3l-.316.22-1.22.644c-.153.08-.634.165-.807.185-.258.034-.166-.674-.05-.88.061-.108.192-.607.088-.6-.261.023-1.1.205-1.158.013l-.37-1.251-1.961-.544c-.516-.141-1.07-1.43-.928-1.892.162-.51 1.432-1.19 2.02-1.38.208-.067 1.035.412.85.52l-.853.5c-.316.185-.843.84-.89 1.234-.018.182.678.89.57.695l.92-1.36c.234-.35 1.443-.26 2.016-.263l2.608-.006c.389 0 .489.768.543 1.23.046.385 1.208.392 1.858.274 1.566-.284.55-1.555 1.9-2.155l.732-.328c-.673-.128-1.374-.155-1.52.105l-.796 1.427c-.17.3-1.432-.196-1.155-.405l1.332-.992-1.716-.222c-.3-.04-.15-.962-.035-1.208.142-.31.989-.816 1.274-.587l1.042.837.72-.33-1.1-2.726c-.108-.267 1.43-.597 1.546-.574l-.12-2.293c-.015-.32 1.313-.129 1.267.172-.104.674-.17 1.777-.093 2.293.031.192 1.012.078 1.205-.017l.557-.273c.116-.057.389.297.404.412l.154 1.136 1.535-.39-.63-.632c-.143-.141.288-.762.465-.654l1.077.661c.458-1.147 2.07-.634 3.625-1.912.288-.237.534-1.259.861-1.134l1.093.408c.235.088.708-.587.962-.593l1.193-.037.808-1.825c.069-.159.657-.044.842-.014l1.7.26-.222.86 1.916-.563.48-1.164 1.628-.344-1.089 1.005c-.108.101.031.672.146.574.262-.23 1-.803 1.32-.793l2.351.091 1.277.702 4.079.448c.273.03 1.235-.236.988-.303-.542-.149-1.473-.213-2.17-.233l.435-2.408c.039-.223.47.553.608.944-.008.095.843-.31.743-.55-.123-.307-.535-1.174-.35-1.4.288-.35 1.673-.35 2.139-.182.327.118.661 1.032.442 1.279l-.942 1.055c1.354.604.523 1.653 1.023 2.092 2.209 1.933 4.49 1.275 4.513 1.346.104.307.489 1.322.723 1.072l.508-.546c.1-.112.616.023.797.084.6.203-.993.651-.447.968l1.509.874.773-.739c.108-.104.63.543.48.607l-.892.405 1.081.337c.408.128 1.374.304 1.863.334l5.128.317.173-1.75c.027-.287 1.178.03 1.274.286l.608 1.61c.108.286 1.373.202 1.647.168l-.043-1.875c-.004-.19.877-.6.993-.425.777 1.157-.058 1.798.311 1.966.462.213 1.551.577 2.151.638l4.613.455c1.328.131 1.497-3.47 3.598-4.19.111-.036.323.26.365.365l.978 2.361.842 2.034 2.905.33.819-1.96c.054-.127.524-.367.678-.4s.596.306.592.448l-.058 1.609c-.003.148.127.563.17.708.042.145.434-.266.492-.408l.381-.887.331 1.34.685-.345c-.027-.597-.035-.718 0 .088l1.196.566c.297.142 1.435.156 1.601-.1l1.935-2.952c.081-.121.62-.358.77-.405s.384.284.377.422l-.158 2.931c.042-.034.35-.506.389-.64l.688-2.544c.35-1.296 1.351-2.125 2.747-2.921v.64c-.404.932.804.918 1.02 2.176l.604 3.525c-.096.3.95.371.927.084l-.184-2.293c-.047-.553-.37-1.64-.239-2.145l.658-2.56.154-1.067.719 5.03c.12.843.362 1.588.231 2.347l-.415 2.399 1.731.256.3-2.115.196 2.068c.02.202.981.418.97.212l-.204-3.66c-.008-.124.685-.603.785-.516l2.008 1.771c.362.32 1.362 1.373 1.759 1.08l1.512-1.117c.177 1.258.196 3.248 1.212 4.162 1.138 1.026 3.158 1.3 4.844 1.684-.524-1.555-.347-2.658 1.254-3.552l.146.617-.831 2.793c-.039.128.554.563.658.462l.762-.742.038.459.662.526c.431.344.427-.712 1.127-.89l.346.846c.062.155.497.375.535.226l.223-.837 1.108-3.953c.289-.074.57-.145.47-.121l.05 1.518c.008.182.127.782.138.8l.516-1.3c.058-.144.781-.057.793.102.03.465-.024 1.48-.151 1.858l-.669 1.953 3.444-.06c.507-.01 1.2-.695 1.5-1.073l1.224-1.548c.08-.105-.062-.624-.189-.695l-.97-.55c-.284-.162.516-.89.812-.752.22.101.697.334.751.233l.38-.692.289-.526c.058-.105.469.317.473.428l.104 2.405c.004.115.562.405.631.32l.616-.762.431-.536c.084-.104.296.253.35.398l.738 1.98c.047.125.943-.094.862-.206l-.454-.644.562-.121c.096-.02.546 1.288.596.914l.1-.746c.016-.1.377-.293.493-.25l.685.264.673.162c.096.023.127-.348.177-.705.754-.02 1.501.496 1.508-.095l.039-2.135-1.305.044.224.283.392.49c.112.138-.412.873-1.447.903l-1.754.051c-.016.111.008-.064.069-.482.562-1.478 1.524-.675 2.828-1.839.485-.431.947-.816 1.293-.914l1.25-.35c.127-.038.827.26.716.327l-1.708 1.032c-.443.266-.016 1.561.392 1.653l.627-1.791.65-.365.958.91.531-.508c-.323-.31-.865-.702-.958-.911l-.854-1.906c-.027-.06-.061-.08-.158-.182-.05.027-.719.172-.873.091-.419-.212-.339-1.305-.069-1.686l.546-.77c.127-.178 1.02.065.958.267l-.261.857c-.031.108-.481.377-.439.479l.246.573.158.017c.296-.597 1.023-1.322 1.562-1.683l-.839-1.555c-.158-.294-.488-1.177-.161-1.326.327-.148.958-.26 1.45-.334l-.2-2.246c-.019-.226.962-.523 1.058-.307l.289.624-.439.674.396 1.498 1.624-.29c.181-.034.516.27.504.432l-.046.58c-.019.23.523.614.765.52l.993-.375c.192-.074-.573-.573-.6-.756l-.077-.485c-.023-.139 1-.159 1.039-.027l.388 1.275 2.247.044.362-1.822c.065-.337.977.921.727 1.18l-1.4 1.465c-.297.306.815 1.143 1.115 1.14l-.215-1.157c-.058-.317.862-1.046 2.282-1.427.407-.108-1.02-1.757 0-1.299l.807.361.197-.206.931-.775c.546-.456 1.789 1.534 2.216.988l.639-.816-.316-.22-.669.614c-.204.186-.062-.607-.093-.83-.038-.256-.854-.144-1.219-.1-.181.02-.677-.453-.5-.5l.838-.226c.331-.088 1.22-.212 1.393.044l.562.823.092.243 1.158.067 1.762.338c.304.057.862.202.758.178l-.581-1.09c-.254-.475 1.17-1.426 1.189-1.014l.039.971c-.254-.098.142.054.692.263l.954-.479c-.519-.432-1.381-1.278-1.708-1.862-.181-.32 1.004-.95 1.416-.937l2.139.077.785 1.056 2.751-.29.242 1.315c.023.115.631-.1.635-.219l.008-.843-.154-.135zm-4.848 1.548-.5-1.234c-.05-.128-.381.57-.323.502zm3.579-1.177-.574.078-.08.904zm-1.405 1.457c-.061-.58-.219-.506-.342-.172-.589.709-.066.688.342.172m-2.204.729c.173-.07.75.793.9 1.012.2-.418.135-1.002-.139-1.528-.057-.115-.515-.004-.688.044l-2.297.62.046.753 2.182-.898zm-135.72.644-.184.162.184.162.185-.162zm124.616.516.558 1.177 1.042-1.683-1.304.435-.296.068zm15.274-.195-.184.162.184.161.185-.161zM200.4 8.79l-.835-1.086-.631 1.67zm2.101-1.103-.185.223.185.162.184-.162zm-1.101.705-.184.162.184.162.185-.162zm-4.405.324-.185.162.185.162.185-.162zm-20.646 5.02c1.016-2.055 3.44-1.502 1.966-2.976-.365.651-.85 1.18-1.462 1.218-.438.027-1.273-.675-1.231-1.076l.158-1.501-1.412-.459 1.239 3.265-2.555.253c-.262.027-.169.854.085.803l1.042-.212 1.966-.594.2 1.275zm25.44-4.146c.939-.361.158-.061-.196.074-.528.327-.285.192.196-.074m-21.092.057-.993.314c-.142.044-.092.391-.046.762zm3.078.034-.185.162.185.162.185-.162zm13.22 0-.185.162.185.162.185-.162zm-22.396 1.93-.185.161.185.277.184-.277zM48.398 12.612c.077-.223-.239-.782-.481-.762-.162.013-.596.118-.593.26.004.141.066.596.123.725l.493 1.11.462-1.336zm132.807-.034-.185.162.185.162.185-.162zm37.174 1.09a5 5 0 0 0-.25.121zm-45.462.53c.458-.243.535-.287.039-.024-.385.26-.527.354-.039.023m48.502 2.978-1.42-.645.185-.866-2.821-1.66.324 1.673 1.377-.23.858 2.176 1.281-.108.219-.337zm-2.621-3.38-.215.307.716.435-.497-.742zm-171.608.391-.185.162.185.162.184-.162zm128.201.476-.238.007.238.006h.247l.238-.006-.238-.007zM39.849 17.406l-.185.162.185.162.184-.162zm.589 1.299-.778-.634c-.057.425.277 1.197.65 1.177.147-.007.281-.88.127-.54zm191.804 1.278-.008.21v.215l.008.21.007-.21v-.216zM39.479 20.3l-.184.162.184.28.185-.28zm194.232.324-.184.162.184.162.185-.162zm5.86.25c-.096-.01-.654.489-.608.668l.281 1.092.323-1.76zm.75.398-.007.209v.216l.007.209.008-.21v-.215zm-213.884 1.38c.111-.126-.762-.352-.882-.247-.419.368-.738 1.248-.507 1.781l1.385-1.535zm214.061.795.385-.698c.088-.162-.466-.408-.735-.533l.058 1.724.292-.49zm-221.945-.246-.008.21v.215l.008.21.008-.21v-.216zm230.213.965-.007.209v.216l.007.209.008-.21v-.215zM19.003 26.969l.758-2.149-1.266.294.096 1.976c.008.155.655-.047.412-.121m2.486-.874-.185.162.185.162.184-.162zm-5.456 1.656-.192-1.22-.439.08c-.192.445-.373.725-.196.8zm234.934 1.242-.185.162.185.161.185-.162zm4.482 4.293.066-2.769c-1.008.533-1.035 2.03-.066 2.77m2.421 4.358.519 2.02c.054.21.739.56.685.773l-.212.8c-.046.172.173.792.227.627.085-.263.343-1.133.631-1.12l1.674.085.358-3.694c.015-.142-.52-.614-.543-.475l-.1.68-.158 2.301-2.108-.04 1.204-2.03c-.138-.021-.873-.088-.973-.21-.423-.533-.393-1.828-.377-2.627l.061-4.163c-.615.867-.569 2.28-.5 3.245.035.476-.569 1.48-.739 1.973-.092.27.631.79.835 1.005.116.122-.284.45-.396.57a.55.55 0 0 0-.085.277zM8.13 35.115l.72-1.102c.115-.176.635-.21 1.104-.29l-.573-.547c-.139-.131-1.005.142-1.058.314-.12.405-.193 1.245-.193 1.622zm6.753-.974-.185.162.185.162.184-.162zm-4.775.965-.185.162.185.161.184-.161zm4.775 1.288-.185.162.185.162.184-.162zM5.776 37.73c-.127-.159-.466-.61-.424-.597.047.013-.492.098-.65.128s-.735.577-.592.63l1.177.443c.192.07.6-.46.485-.604zm257.249 2.675-.696-.017-.52 1.278c-.096.236.377.641.647.894l.565-2.155zm-.104 5.572-.088-1.279-1.093.915 1.185.367zm.793 6.297-.158-1.366c-.135.048-.896.26-.9.442l-.027 1.457.823-.296.262-.233zm.962-.593c.138-.088-.362-.152-.531-.145s-.162.428-.154.583c.008.115.573-.37.685-.438m-256.65.209c-.042.044-.223.23-.211.216zm.22.31.134.243c.02.037-.088-.179-.134-.243m.82.442-.24.007.24.007h.245l.239-.007-.239-.007zm254.763-.148-.131.178-.834 1.157c-.381-.135.554.196.784.28.185.064 1.051-.485.943-.627zm-1.508.472-.619.752c-.097.115.769.536.75.391zm-2.324 3.707c1.235-.651.943-1.838.004-2.28v2.28zm-248.662-.91.1-.068c-.361.246-.504.344-.1.067m-.792.94-1.055.105.978.216zm.327 3.532-1.535-1.042c-.32-.216-1.282-.135-1.701-.135l-.277.718 1.239-.152c.558-.067 1.027 1.302 1.52 1.03zm174.005-.294c1.089-.11.289-1.113-.284-.502-.097.101.119.52.284.502M6.437 59.886l-.184.162.184.162.185-.162zm108.21 2.712-.261-.776c-.054-.165-.673.375-.55.496l.534.52zm137.051-.307-.546-.037-.85.79c.423.246.808.465.884.3l.508-1.056zm-62.048.493-.185.162.185.162.185-.162zm-18.356.324-.008.209v.216l.008.209.007-.21v-.215zm6.733.378c.442-.3.558-.378.1-.068-.362.246-.504.344-.1.068m14.928-.378-.008.209v.216l.008.209.008-.21v-.215zm-18.968 4.87.412-.597-.531-3.353-1.224 1.9zm-152.864-2.62-.184.161.184.162.185-.162zm33.412.964-.185.162.185.162.184-.162zm-26.436 1.612-.008.21v.215l.008.21.007-.21v-.215zm3.12 1.11c.127.098-.477-.367-.65-.502l-2.024.867zm196.617.496-.185.162.185.162.185-.162zm-16.521 1.612-.185.162.185.162.185-.162zm3.151.837-.692-.577-2.09.958 2.782-.384z"/></svg>