<svg width="412" height="689" viewBox="0 0 412 689" fill="none" xmlns="http://www.w3.org/2000/svg">
<g opacity="0.05">
<path d="M24.321 17.7675C26.5578 17.7676 28.6225 18.4272 30.3718 19.5742C31.5476 20.3485 32.5805 21.3525 33.3835 22.5283C34.0432 22.2701 34.703 22.0412 35.3914 21.8691C36.7393 21.5249 38.1448 21.3525 39.5789 21.3525L39.9871 21.3583C44.4891 21.4723 48.5659 23.3415 51.5388 26.3144C54.6075 29.3831 56.471 33.5418 56.4998 38.1591C55.238 36.9835 53.6896 36.1232 51.9978 35.6357C51.4816 33.1978 50.2476 31.0176 48.5554 29.2968C46.261 27.0026 43.0776 25.5693 39.5789 25.5693C38.489 25.5693 37.4274 25.7125 36.4236 25.9706C35.3912 26.2288 34.4444 26.6016 33.5554 27.0605C33.4695 27.1178 33.3835 27.1754 33.2976 27.204C32.2078 27.6628 30.9742 27.1747 30.5154 26.0849C29.9991 24.8517 29.1101 23.8188 28.0203 23.0732C26.9591 22.385 25.6683 21.955 24.2917 21.955C22.4278 21.9551 20.7359 22.7006 19.5027 23.9335C18.2694 25.1668 17.5232 26.8594 17.5232 28.7236C17.5232 30.5878 18.2694 32.2803 19.5027 33.5136C20.7359 34.7466 22.4278 35.4921 24.2917 35.4921H24.8367C25.939 35.5459 26.7896 36.4063 26.8445 37.4824V38.2744C26.8445 41.7733 28.2787 44.9565 30.573 47.2509C32.776 49.4539 35.7781 50.8567 39.1238 50.9775C38.4423 49.5459 38.0583 47.941 38.0583 46.247C38.0585 43.207 39.2924 40.4534 41.2712 38.4745C43.2502 36.4958 46.0038 35.2626 49.0437 35.2626C52.0837 35.2628 54.8373 36.4957 56.8162 38.4745C58.795 40.4534 60.028 43.207 60.0281 46.247C60.0281 49.2869 58.7949 52.0405 56.8162 54.0195C54.8373 55.9983 52.0837 57.2322 49.0437 57.2324C46.5445 57.2324 44.2399 56.397 42.3992 55.0009C41.4953 55.1399 40.5372 55.2245 39.5789 55.2245C34.904 55.2245 30.6594 53.3314 27.5906 50.2626C24.8086 47.4806 23.0018 43.752 22.6863 39.622C20.3058 39.2778 18.1547 38.1591 16.5486 36.5244C14.5696 34.5454 13.3357 31.792 13.3357 28.7519C13.3358 25.7119 14.5697 22.9583 16.5486 20.9794C18.5275 19.0007 21.2811 17.7675 24.321 17.7675ZM15.9167 38.791C17.8669 38.791 19.6457 39.5933 20.9363 40.8837C22.2269 42.1743 23.03 43.953 23.03 45.9033C23.03 47.8535 22.2269 49.6322 20.9363 50.9228C19.6457 52.2133 17.8669 53.0165 15.9167 53.0165C13.9668 53.0164 12.1887 52.2132 10.8982 50.9228C9.60757 49.6322 8.80444 47.8535 8.80444 45.9033C8.80446 43.953 9.60758 42.1743 10.8982 40.8837C12.1887 39.5934 13.9668 38.7911 15.9167 38.791ZM49.0437 39.4785C47.1795 39.4785 45.4869 40.2247 44.2537 41.4579C43.0205 42.6911 42.2743 44.383 42.2742 46.247C42.2742 48.1112 43.0204 49.8038 44.2537 51.037C45.4869 52.2703 47.1795 53.0165 49.0437 53.0165C50.9077 53.0164 52.5996 52.2702 53.8328 51.037C55.066 49.8038 55.8123 48.1112 55.8123 46.247C55.8121 44.3829 55.0659 42.6911 53.8328 41.4579C52.5996 40.2248 50.9078 39.4786 49.0437 39.4785ZM15.9167 41.6298C14.7124 41.6299 13.651 42.1173 12.8767 42.8915C12.1024 43.6658 11.6151 44.7272 11.615 45.9316C11.615 47.1362 12.1023 48.1982 12.8767 48.9726C13.651 49.7468 14.7124 50.2342 15.9167 50.2343C17.1213 50.2343 18.1834 49.747 18.9578 48.9726C19.7321 48.1982 20.2195 47.1362 20.2195 45.9316C20.2194 44.7272 19.732 43.6658 18.9578 42.8915C18.1834 42.1172 17.1213 41.6298 15.9167 41.6298ZM35.7644 11.6015C37.0262 11.6016 38.1446 12.1175 38.9763 12.9492C39.8079 13.7808 40.2955 14.8993 40.2957 16.1611C40.2957 17.423 39.7794 18.5422 38.9763 19.374C38.1446 20.2056 37.0262 20.6932 35.7644 20.6933C34.5025 20.6933 33.3832 20.177 32.5515 19.374C31.7198 18.5422 31.2039 17.3943 31.2039 16.1611C31.204 14.928 31.7202 13.7808 32.5232 12.9492C33.3548 12.1175 34.4733 11.6016 35.7351 11.6015H35.7644ZM35.7351 14.4404C35.2477 14.4405 34.8177 14.6419 34.531 14.9286C34.2157 15.244 34.0438 15.6738 34.0437 16.1611C34.0437 16.6486 34.2443 17.079 34.531 17.3945C34.8464 17.7099 35.2764 17.911 35.7351 17.9111C36.194 17.9111 36.653 17.71 36.9685 17.3945C37.284 17.079 37.4851 16.6486 37.4851 16.1611C37.485 15.6737 37.2839 15.244 36.9685 14.9286C36.653 14.6132 36.2227 14.4404 35.7351 14.4404Z" fill="#EC691F"/>
<path d="M95.6788 11.6874V15.2158L101.673 17.7968C102.246 18.0549 102.763 18.4275 103.25 18.915C103.709 18.4275 104.254 18.0549 104.827 17.7968L110.821 15.2158V11.6874H114.608V43.8671C114.608 45.9607 113.059 48.3126 111.138 49.1445L105.143 51.7255V57.1464H101.358V51.7255L95.3634 49.1728C93.4705 48.3697 91.8927 45.9891 91.8927 43.8954V11.6874H95.6788ZM95.6212 43.6093C95.6214 44.6417 96.424 45.8464 97.3702 46.248L101.328 47.9394V46.0468C101.328 45.0144 100.526 43.8097 99.5792 43.4081L95.6212 41.7158V43.6093ZM106.893 43.4081C105.918 43.8097 105.143 45.0143 105.143 46.0468V47.9394L109.072 46.248C110.047 45.8465 110.821 44.6418 110.821 43.6093H110.851V41.7158L106.893 43.4081ZM95.6212 36.037C95.6212 37.0694 96.424 38.274 97.3702 38.6757L101.328 40.3681V38.4755C101.328 37.4431 100.526 36.2385 99.5792 35.8369L95.6212 34.1445V36.037ZM106.893 35.8369C105.918 36.2384 105.143 37.443 105.143 38.4755V40.3681L109.072 38.6757C110.047 38.2741 110.821 37.0695 110.821 36.037H110.851V34.1445L106.893 35.8369ZM95.6212 28.4658C95.6212 29.4981 96.4239 30.7028 97.3702 31.1044L101.328 32.7968V30.9033C101.328 29.8708 100.526 28.6661 99.5792 28.2646L95.6212 26.5732V28.4658ZM106.893 28.2646C105.918 28.6661 105.143 29.8708 105.143 30.9033V32.7968L109.072 31.1044C110.048 30.7029 110.821 29.4983 110.821 28.4658H110.851V26.5732L106.893 28.2646ZM95.6212 20.8945C95.6214 21.9268 96.424 23.1316 97.3702 23.5331L101.328 25.2245V23.332C101.328 22.2995 100.526 21.0949 99.5792 20.6933L95.6212 19.0009V20.8945ZM106.893 20.6933C105.918 21.0948 105.143 22.2995 105.143 23.332V25.2245L109.072 23.5331C110.047 23.1317 110.821 21.9269 110.821 20.8945H110.851V19.0009L106.893 20.6933Z" fill="#EC691F"/>
<path d="M192.949 16.0032L192.977 16.0325L188.532 20.4778C194.784 27.9921 194.411 39.1774 187.356 46.2327C186.151 45.0281 185.061 43.7084 184.115 42.303C183.57 45.8881 181.649 49.3593 178.322 52.1126C177.089 51.0801 176.085 49.9607 175.224 48.7562C173.36 51.7103 170.377 54.0629 166.39 55.2962C165.501 53.604 164.927 51.9112 164.612 50.2191C161.572 53.7467 156.811 55.7255 151.276 55.2093C150.76 49.6454 152.739 44.9134 156.266 41.8734C154.574 41.5579 152.882 40.984 151.19 40.095C152.423 36.1372 154.775 33.1539 157.729 31.261C156.553 30.4294 155.434 29.3975 154.402 28.1644C157.155 24.8087 160.654 22.8867 164.268 22.3704C162.863 21.4527 161.515 20.3916 160.282 19.1585C167.337 12.1032 178.522 11.7017 186.037 17.9827L190.482 13.5364L192.949 16.0032ZM160.167 43.3929C159.22 43.9665 158.331 44.6269 157.586 45.43C156.037 47.1221 155.091 49.3018 154.775 51.7396C157.557 51.3667 159.995 50.1615 161.773 48.2112V48.1829C162.289 47.638 162.72 46.9782 163.092 46.3187C162.175 46.3187 161.228 46.2904 160.282 46.2044C160.167 45.2579 160.167 44.3107 160.167 43.3929ZM172.901 43.9954C171.381 44.7411 169.746 45.3439 167.997 45.7454C167.767 47.3515 167.824 49.0439 168.283 50.7073C170.549 49.388 172.27 47.5233 173.216 45.2288H173.188C173.245 45.2002 173.245 45.1433 173.245 45.1146C173.101 44.7417 173.016 44.3683 172.901 43.9954ZM179.526 35.1624C178.608 35.5352 177.69 35.8502 176.715 36.137C176.171 37.4276 175.855 38.8049 175.855 40.2103C175.855 42.6766 176.716 45.0571 178.322 47.1507L178.35 47.179C179.956 45.1141 180.817 42.705 180.817 40.2386C180.817 38.4605 180.358 36.7398 179.526 35.1624ZM169.546 33.6995C168.427 33.9863 167.25 34.1009 166.103 34.1009C164.641 36.6529 163.781 39.6063 163.666 42.8177C166.867 42.6706 169.811 41.8405 172.356 40.3821C172.356 39.2062 172.499 38.0587 172.757 36.9114C171.61 37.0548 170.463 37.1693 169.287 37.1693C169.287 35.9935 169.402 34.8466 169.546 33.6995ZM173.79 17.0355C170.922 17.0355 168.168 17.8105 165.759 19.2444C167.882 20.7358 170.234 21.8825 172.729 22.6282L176.572 23.7757L174.909 27.4183C174.02 29.3685 173.417 31.3761 173.073 33.4124C175.109 33.0682 177.117 32.4656 179.067 31.5765L182.71 29.9134L183.857 33.7571C184.603 36.2521 185.75 38.6037 187.241 40.7259C190.826 34.703 190.023 26.7868 184.861 21.6243C181.907 18.6703 177.977 17.0355 173.79 17.0355ZM161.4 33.2405C159.077 34.1583 157.127 35.8791 155.779 38.2308L155.807 38.2025C156.868 38.4892 157.958 38.6321 159.019 38.6321C159.593 38.6321 160.166 38.5746 160.74 38.4886C161.113 36.7392 161.716 35.1046 162.49 33.556C162.117 33.4699 161.744 33.3839 161.4 33.2405ZM166.276 25.6976C163.809 25.6976 161.4 26.5583 159.335 28.1644C161.4 29.7705 163.809 30.6302 166.276 30.6302C167.681 30.6301 169.058 30.3439 170.377 29.7991C170.663 28.8527 170.979 27.9054 171.352 26.9876C169.746 26.156 168.025 25.6976 166.276 25.6976Z" fill="#EC691F"/>
<path d="M251.571 44.527C254.783 44.527 256.677 46.196 258.042 47.6891L258.569 48.3132C259.916 49.8331 260.663 50.6071 262.183 50.6071H264.448V55.1677H262.183C258.512 55.1677 256.475 52.9016 255.156 51.3815C253.836 49.8616 253.062 49.116 251.542 49.1159C250.022 49.1159 249.333 49.7754 247.928 51.3815C246.523 52.9589 244.573 55.1676 240.902 55.1677C237.231 55.1677 235.194 52.9016 233.874 51.3815C232.526 49.8616 231.752 49.1159 230.261 49.1159C228.77 49.1159 228.081 49.7755 226.676 51.3815C225.271 52.959 223.348 55.1677 219.649 55.1677H217.383V50.6071H219.649C221.169 50.6071 221.858 49.9191 223.263 48.3132C224.668 46.7358 226.618 44.5272 230.289 44.527C233.96 44.527 235.997 46.7931 237.317 48.3132C238.664 49.8329 239.353 50.6071 240.93 50.6071C242.507 50.6071 243.139 49.9192 244.544 48.3132C245.95 46.7357 247.899 44.5271 251.571 44.527ZM244.199 17.0222C246.178 19.0872 250.796 24.3077 250.796 28.8679C250.796 34.5464 246.379 39.1921 240.93 39.1921C235.481 39.192 231.064 34.575 231.064 28.8679C231.064 24.3077 235.681 19.0585 237.66 17.0222L240.93 13.6667L244.199 17.0222ZM240.902 20.2057C240.902 20.2057 235.596 25.6843 235.596 28.8679C235.596 32.0512 237.976 34.6325 240.902 34.6325C243.827 34.6324 246.207 32.0511 246.207 28.8679C246.207 25.6894 240.918 20.2231 240.902 20.2057Z" fill="#EC691F"/>
<path d="M320.06 13.7965V20.6793H326.943L326.914 20.7369C328.807 20.7369 330.356 22.2856 330.356 24.1783V31.0338C330.356 32.9265 329.581 34.6473 328.348 35.8805L320.06 44.1686V48.1842C320.06 51.97 316.962 55.0387 313.176 55.0387H295.996C292.211 55.0385 289.142 51.9415 289.142 48.1559V13.7965H320.06ZM292.583 24.0924V48.1559C292.583 50.0487 294.133 51.5973 296.026 51.5973H313.234C315.126 51.5973 316.675 50.0487 316.675 48.1559V24.0924H313.234V48.1266H309.792V24.0924H306.351V48.1266H302.908V24.0924H299.467V48.1266H296.026V24.0924H292.583ZM320.088 24.0924V39.2643L325.939 33.4137C326.598 32.7541 326.943 31.8939 326.943 30.9762L326.972 30.9469V24.0924H320.088ZM292.583 17.2379V20.6793H316.647V17.2379H292.583Z" fill="#EC691F"/>
<path d="M383.845 13.3656L385.594 18.6136H380.346V22.1127C384.82 26.6154 391.015 30.8889 397.869 30.889V34.4164H394.37C394.37 41.8732 395.632 48.9864 397.869 55.4681H385.566C382.468 52.3707 380.087 48.5851 378.596 44.3978C377.105 48.6137 374.725 52.3708 371.627 55.4681H359.294C361.531 48.9864 362.793 41.8733 362.793 34.4164H359.294V30.9174C366.149 30.9174 372.316 26.6448 376.819 22.142V13.3656H383.845ZM366.322 34.4164C366.322 40.4106 365.547 46.262 364.027 51.9408H370.078C374.438 47.1225 376.847 40.9555 376.847 34.4164H366.322ZM380.346 34.4164C380.346 40.9555 382.755 47.1225 387.115 51.9408H393.166C391.646 46.2907 390.871 40.4106 390.871 34.4164H380.346ZM378.596 25.2963C376.617 27.2464 374.151 29.2543 371.312 30.889H385.881C383.07 29.2256 380.604 27.2178 378.596 25.2963Z" fill="#EC691F"/>
<path d="M52.8717 90.3303C52.8717 97.0414 49.2865 102.892 43.9235 106.133L46.1891 114.393H46.1598C48.8844 114.737 51.0074 117.061 51.0074 119.871C51.0074 122.911 48.5409 125.406 45.4723 125.406C43.0633 125.406 41.0554 123.858 40.2809 121.707H24.4781L23.4742 125.406H19.6598L24.9078 106.133C19.5447 102.892 15.9596 97.0415 15.9596 90.3303H52.8717ZM45.5006 118.035C44.4681 118.035 43.6364 118.868 43.6364 119.871C43.6364 120.875 44.4681 121.707 45.5006 121.707C46.5044 121.707 47.3365 120.875 47.3365 119.871C47.3365 118.868 46.5331 118.035 45.5006 118.035ZM40.5104 107.71C38.5888 108.37 36.552 108.772 34.401 108.772C32.2501 108.772 30.2141 108.398 28.2926 107.71L25.4811 118.007H40.2809C40.6824 116.831 41.4853 115.827 42.5465 115.167L40.5104 107.71ZM20.1178 94.0012C21.7813 100.368 27.5756 105.073 34.4303 105.073C41.2848 105.072 47.0778 100.368 48.7125 94.0012H20.1178ZM29.0953 86.6301H25.1949L27.0299 81.095H30.9313L29.0953 86.6301ZM36.4664 86.6301H32.566L34.4303 81.095H38.3014L36.4664 86.6301ZM43.8375 86.6301H39.9655L41.8004 81.095H45.7008L43.8375 86.6301Z" fill="#EC691F"/>
<path d="M93.1544 86.6008C95.3911 86.6009 97.4559 87.2605 99.2052 88.4075C100.381 89.1818 101.414 90.1858 102.217 91.3616C102.877 91.1034 103.536 90.8745 104.225 90.7024C105.573 90.3582 106.978 90.1858 108.412 90.1858L108.82 90.1917C113.322 90.3056 117.399 92.1748 120.372 95.1477C123.441 98.2164 125.304 102.375 125.333 106.992C124.071 105.817 122.523 104.957 120.831 104.469C120.315 102.031 119.081 99.851 117.389 98.1301C115.094 95.8359 111.911 94.4026 108.412 94.4026C107.322 94.4026 106.261 94.5458 105.257 94.804C104.225 95.0621 103.278 95.435 102.389 95.8938C102.303 95.9511 102.217 96.0087 102.131 96.0374C101.041 96.4961 99.8076 96.008 99.3488 94.9182C98.8325 93.685 97.9434 92.6521 96.8536 91.9065C95.7925 91.2183 94.5017 90.7883 93.1251 90.7883C91.2612 90.7884 89.5692 91.5339 88.3361 92.7668C87.1028 94.0001 86.3566 95.6927 86.3566 97.5569C86.3566 99.4211 87.1028 101.114 88.3361 102.347C89.5693 103.58 91.2611 104.325 93.1251 104.325H93.67C94.7723 104.379 95.623 105.24 95.6779 106.316V107.108C95.6779 110.607 97.1121 113.79 99.4064 116.084C101.609 118.287 104.611 119.69 107.957 119.811C107.276 118.379 106.892 116.774 106.892 115.08C106.892 112.04 108.126 109.287 110.105 107.308C112.084 105.329 114.837 104.096 117.877 104.096C120.917 104.096 123.671 105.329 125.65 107.308C127.628 109.287 128.861 112.04 128.861 115.08C128.861 118.12 127.628 120.874 125.65 122.853C123.671 124.832 120.917 126.066 117.877 126.066C115.378 126.066 113.073 125.23 111.233 123.834C110.329 123.973 109.371 124.058 108.412 124.058C103.737 124.058 99.4928 122.165 96.424 119.096C93.6419 116.314 91.8351 112.585 91.5197 108.455C89.1392 108.111 86.9881 106.992 85.382 105.358C83.403 103.379 82.1691 100.625 82.1691 97.5852C82.1692 94.5452 83.4031 91.7916 85.382 89.8127C87.3609 87.834 90.1145 86.6008 93.1544 86.6008ZM84.7501 107.624C86.7003 107.624 88.479 108.427 89.7697 109.717C91.0603 111.008 91.8634 112.786 91.8634 114.737C91.8634 116.687 91.0603 118.465 89.7697 119.756C88.479 121.047 86.7003 121.85 84.7501 121.85C82.8001 121.85 81.0221 121.046 79.7316 119.756C78.4409 118.465 77.6378 116.687 77.6378 114.737C77.6378 112.786 78.441 111.008 79.7316 109.717C81.0221 108.427 82.8002 107.624 84.7501 107.624ZM117.877 108.312C116.013 108.312 114.32 109.058 113.087 110.291C111.854 111.524 111.108 113.216 111.108 115.08C111.108 116.945 111.854 118.637 113.087 119.87C114.32 121.104 116.013 121.85 117.877 121.85C119.741 121.85 121.433 121.104 122.666 119.87C123.899 118.637 124.646 116.945 124.646 115.08C124.646 113.216 123.899 111.524 122.666 110.291C121.433 109.058 119.741 108.312 117.877 108.312ZM84.7501 110.463C83.5457 110.463 82.4844 110.951 81.7101 111.725C80.9358 112.499 80.4485 113.56 80.4484 114.765C80.4484 115.969 80.9357 117.032 81.7101 117.806C82.4844 118.58 83.5458 119.068 84.7501 119.068C85.9547 119.068 87.0168 118.58 87.7911 117.806C88.5655 117.032 89.0529 115.969 89.0529 114.765C89.0527 113.561 88.5654 112.499 87.7911 111.725C87.0168 110.95 85.9547 110.463 84.7501 110.463ZM104.598 80.4348C105.86 80.4349 106.978 80.9509 107.81 81.7825C108.641 82.6141 109.129 83.7326 109.129 84.9944C109.129 86.2563 108.613 87.3755 107.81 88.2073C106.978 89.0389 105.86 89.5266 104.598 89.5266C103.336 89.5266 102.217 89.0103 101.385 88.2073C100.553 87.3755 100.037 86.2276 100.037 84.9944C100.037 83.7613 100.554 82.6141 101.357 81.7825C102.188 80.9508 103.307 80.4349 104.568 80.4348H104.598ZM104.568 83.2737C104.081 83.2738 103.651 83.4752 103.364 83.762C103.049 84.0773 102.877 84.5071 102.877 84.9944C102.877 85.4819 103.078 85.9123 103.364 86.2278C103.68 86.5432 104.11 86.7443 104.568 86.7444C105.027 86.7444 105.486 86.5433 105.802 86.2278C106.117 85.9123 106.318 85.4819 106.318 84.9944C106.318 84.507 106.117 84.0773 105.802 83.762C105.486 83.4465 105.056 83.2737 104.568 83.2737Z" fill="#EC691F"/>
<path d="M164.512 80.5208V84.0491L170.506 86.6301C171.08 86.8882 171.596 87.2608 172.083 87.7483C172.542 87.2608 173.087 86.8882 173.661 86.6301L179.655 84.0491V80.5208H183.441V112.7C183.441 114.794 181.892 117.146 179.971 117.978L173.976 120.559V125.98H170.191V120.559L164.197 118.006C162.304 117.203 160.726 114.822 160.726 112.729V80.5208H164.512ZM164.454 112.443C164.455 113.475 165.257 114.68 166.203 115.081L170.161 116.773V114.88C170.161 113.848 169.359 112.643 168.412 112.241L164.454 110.549V112.443ZM175.726 112.241C174.751 112.643 173.976 113.848 173.976 114.88V116.773L177.906 115.081C178.881 114.68 179.655 113.475 179.655 112.443H179.684V110.549L175.726 112.241ZM164.454 104.87C164.454 105.903 165.257 107.107 166.203 107.509L170.161 109.201V107.309C170.161 106.276 169.359 105.072 168.412 104.67L164.454 102.978V104.87ZM175.726 104.67C174.751 105.072 173.976 106.276 173.976 107.309V109.201L177.906 107.509C178.881 107.107 179.655 105.903 179.655 104.87H179.684V102.978L175.726 104.67ZM164.454 97.2991C164.454 98.3314 165.257 99.5361 166.203 99.9377L170.161 101.63V99.7366C170.161 98.7041 169.359 97.4994 168.412 97.0979L164.454 95.4065V97.2991ZM175.726 97.0979C174.751 97.4994 173.976 98.7041 173.976 99.7366V101.63L177.906 99.9377C178.881 99.5362 179.655 98.3316 179.655 97.2991H179.684V95.4065L175.726 97.0979ZM164.454 89.7278C164.455 90.7601 165.257 91.9649 166.203 92.3665L170.161 94.0579V92.1653C170.161 91.1328 169.359 89.9282 168.412 89.5266L164.454 87.8342V89.7278ZM175.726 89.5266C174.751 89.9281 173.976 91.1328 173.976 92.1653V94.0579L177.906 92.3665C178.881 91.965 179.654 90.7602 179.655 89.7278H179.684V87.8342L175.726 89.5266Z" fill="#EC691F"/>
<path d="M261.782 84.8365L261.811 84.8658L257.365 89.3112C263.617 96.8254 263.245 108.011 256.189 115.066C254.985 113.861 253.895 112.542 252.948 111.136C252.403 114.721 250.482 118.193 247.155 120.946C245.922 119.913 244.918 118.794 244.058 117.589C242.193 120.544 239.21 122.896 235.224 124.13C234.335 122.437 233.761 120.745 233.445 119.052C230.405 122.58 225.645 124.559 220.109 124.043C219.593 118.479 221.572 113.747 225.1 110.707C223.408 110.391 221.715 109.817 220.023 108.928C221.257 104.971 223.608 101.987 226.562 100.094C225.387 99.2627 224.268 98.2308 223.235 96.9977C225.989 93.6421 229.488 91.72 233.102 91.2037C231.696 90.286 230.348 89.2249 229.115 87.9918C236.171 80.9365 247.356 80.535 254.87 86.816L259.315 82.3698L261.782 84.8365ZM229 112.226C228.054 112.8 227.165 113.46 226.419 114.263C224.87 115.955 223.924 118.135 223.608 120.573C226.39 120.2 228.828 118.995 230.606 117.045V117.016C231.123 116.471 231.553 115.812 231.926 115.152C231.008 115.152 230.062 115.124 229.115 115.038C229.001 114.091 229 113.144 229 112.226ZM241.734 112.829C240.214 113.574 238.58 114.177 236.83 114.579C236.601 116.185 236.657 117.877 237.116 119.541C239.382 118.221 241.103 116.357 242.05 114.062H242.021C242.078 114.034 242.078 113.977 242.078 113.948C241.935 113.575 241.849 113.202 241.734 112.829ZM248.359 103.996C247.442 104.369 246.524 104.684 245.549 104.97C245.004 106.261 244.688 107.638 244.688 109.044C244.689 111.51 245.549 113.89 247.155 115.984L247.184 116.012C248.79 113.947 249.65 111.538 249.65 109.072C249.65 107.294 249.191 105.573 248.359 103.996ZM238.379 102.533C237.26 102.82 236.084 102.934 234.937 102.934C233.474 105.486 232.614 108.44 232.499 111.651C235.7 111.504 238.644 110.674 241.189 109.215C241.189 108.04 241.333 106.892 241.591 105.745C240.444 105.888 239.296 106.003 238.12 106.003C238.12 104.827 238.236 103.68 238.379 102.533ZM242.623 85.8688C239.755 85.8688 237.002 86.6438 234.593 88.0778C236.715 89.5691 239.067 90.7159 241.562 91.4615L245.405 92.609L243.742 96.2516C242.853 98.2018 242.25 100.209 241.906 102.246C243.943 101.902 245.95 101.299 247.9 100.41L251.543 98.7467L252.69 102.59C253.436 105.085 254.583 107.437 256.074 109.559C259.659 103.536 258.857 95.6201 253.694 90.4576C250.74 87.5036 246.81 85.8688 242.623 85.8688ZM230.233 102.074C227.91 102.992 225.96 104.712 224.612 107.064L224.641 107.036C225.702 107.323 226.791 107.465 227.853 107.465C228.426 107.465 229 107.408 229.573 107.322C229.946 105.572 230.549 103.938 231.323 102.389C230.95 102.303 230.578 102.217 230.233 102.074ZM235.109 94.5309C232.643 94.5309 230.233 95.3916 228.168 96.9977C230.233 98.6038 232.643 99.4635 235.109 99.4635C236.514 99.4635 237.891 99.1772 239.21 98.6324C239.497 97.686 239.813 96.7387 240.186 95.8209C238.58 94.9893 236.859 94.5309 235.109 94.5309Z" fill="#EC691F"/>
<path d="M320.404 113.36C323.616 113.36 325.511 115.029 326.875 116.522L327.402 117.146C328.75 118.666 329.496 119.44 331.016 119.44H333.282V124.001H331.016C327.345 124.001 325.308 121.735 323.989 120.215C322.67 118.695 321.895 117.949 320.375 117.949C318.855 117.949 318.167 118.609 316.761 120.215C315.356 121.792 313.406 124.001 309.735 124.001C306.064 124.001 304.027 121.735 302.708 120.215C301.36 118.695 300.586 117.949 299.094 117.949C297.603 117.949 296.915 118.609 295.509 120.215C294.104 121.792 292.182 124.001 288.482 124.001H286.216V119.44H288.482C290.002 119.44 290.691 118.752 292.096 117.146C293.501 115.569 295.452 113.36 299.123 113.36C302.794 113.36 304.831 115.626 306.15 117.146C307.498 118.666 308.186 119.44 309.763 119.44C311.341 119.44 311.972 118.753 313.377 117.146C314.783 115.569 316.733 113.36 320.404 113.36ZM313.033 85.8555C315.012 87.9205 319.629 93.141 319.629 97.7012C319.629 103.38 315.212 108.025 309.763 108.025C304.314 108.025 299.897 103.408 299.897 97.7012C299.897 93.141 304.515 87.8918 306.494 85.8555L309.763 82.5L313.033 85.8555ZM309.735 89.0391C309.735 89.0391 304.429 94.5176 304.429 97.7012C304.429 100.884 306.81 103.466 309.735 103.466C312.66 103.466 315.04 100.884 315.041 97.7012C315.041 94.5227 309.752 89.0564 309.735 89.0391Z" fill="#EC691F"/>
<path d="M388.893 82.6298V89.5126H395.776L395.748 89.5703C397.64 89.5703 399.189 91.1189 399.189 93.0117V99.8671C399.189 101.76 398.414 103.481 397.181 104.714L388.893 113.002V117.018C388.893 120.803 385.795 123.872 382.009 123.872H364.83C361.044 123.872 357.975 120.775 357.975 116.989V82.6298H388.893ZM361.417 92.9257V116.989C361.417 118.882 362.966 120.431 364.859 120.431H382.067C383.96 120.431 385.508 118.882 385.508 116.989V92.9257H382.067V116.96H378.625V92.9257H375.184V116.96H371.742V92.9257H368.3V116.96H364.859V92.9257H361.417ZM388.921 92.9257V108.098L394.772 102.247C395.432 101.587 395.776 100.727 395.776 99.8095L395.805 99.7802V92.9257H388.921ZM361.417 86.0712V89.5126H385.48V86.0712H361.417Z" fill="#EC691F"/>
<path d="M39.6785 151.032L41.4275 156.28H36.1794V159.779C40.6535 164.282 46.8484 168.556 53.7029 168.556V172.083H50.2039C50.2039 179.54 51.4659 186.653 53.7029 193.135H41.3992C38.3017 190.037 35.9208 186.252 34.4294 182.064C32.9381 186.28 30.558 190.037 27.4607 193.135H15.1277C17.3647 186.653 18.6267 179.54 18.6267 172.083H15.1277V168.584C21.9823 168.584 28.1493 164.311 32.6521 159.809V151.032H39.6785ZM22.155 172.083C22.155 178.077 21.3802 183.929 19.8601 189.607H25.9119C30.2713 184.789 32.6804 178.622 32.6804 172.083H22.155ZM36.1794 172.083C36.1794 178.622 38.5886 184.789 42.948 189.607H48.9998C47.4797 183.957 46.7048 178.077 46.7048 172.083H36.1794ZM34.4294 162.963C32.4506 164.913 29.9845 166.921 27.1453 168.556H41.7146C38.904 166.892 36.437 164.884 34.4294 162.963Z" fill="#EC691F"/>
<path d="M121.705 159.164C121.705 165.875 118.12 171.725 112.757 174.966L115.022 183.226H114.993C117.718 183.57 119.841 185.894 119.841 188.705C119.841 191.745 117.374 194.239 114.306 194.24C111.897 194.24 109.889 192.691 109.114 190.541H93.3115L92.3076 194.24H88.4932L93.7412 174.966C88.378 171.725 84.793 165.875 84.793 159.164H121.705ZM114.334 186.869C113.301 186.869 112.47 187.701 112.47 188.705C112.47 189.708 113.302 190.541 114.334 190.541C115.338 190.54 116.17 189.708 116.17 188.705C116.17 187.701 115.366 186.869 114.334 186.869ZM109.344 176.543C107.422 177.203 105.385 177.605 103.234 177.605C101.083 177.605 99.0475 177.232 97.126 176.543L94.3145 186.84H109.114C109.516 185.664 110.319 184.66 111.38 184L109.344 176.543ZM88.9512 162.834C90.6146 169.202 96.409 173.906 103.264 173.906C110.118 173.906 115.911 169.201 117.546 162.834H88.9512ZM97.9287 155.463H94.0283L95.8633 149.928H99.7646L97.9287 155.463ZM105.3 155.463H101.399L103.264 149.928H107.135L105.3 155.463ZM112.671 155.463H108.799L110.634 149.928H114.534L112.671 155.463Z" fill="#EC691F"/>
<path d="M161.988 155.434C164.224 155.434 166.289 156.094 168.038 157.241C169.214 158.015 170.247 159.019 171.05 160.195C171.71 159.937 172.37 159.708 173.058 159.536C174.406 159.191 175.811 159.019 177.245 159.019L177.654 159.025C182.156 159.139 186.233 161.008 189.205 163.981C192.274 167.05 194.138 171.208 194.166 175.826C192.905 174.65 191.356 173.79 189.664 173.302C189.148 170.864 187.914 168.684 186.222 166.963C183.928 164.669 180.744 163.236 177.245 163.236C176.156 163.236 175.094 163.379 174.09 163.637C173.058 163.895 172.111 164.268 171.222 164.727C171.136 164.784 171.05 164.842 170.964 164.871C169.874 165.329 168.641 164.841 168.182 163.751C167.666 162.518 166.777 161.485 165.687 160.74C164.626 160.052 163.335 159.622 161.958 159.622C160.094 159.622 158.402 160.367 157.169 161.6C155.936 162.833 155.19 164.526 155.19 166.39C155.19 168.254 155.936 169.947 157.169 171.18C158.403 172.413 160.094 173.159 161.958 173.159H162.503C163.606 173.212 164.456 174.073 164.511 175.149V175.941C164.511 179.44 165.945 182.623 168.24 184.917C170.443 187.12 173.445 188.523 176.79 188.644C176.109 187.213 175.725 185.608 175.725 183.914C175.725 180.874 176.959 178.12 178.938 176.141C180.917 174.162 183.67 172.929 186.71 172.929C189.75 172.929 192.504 174.162 194.483 176.141C196.462 178.12 197.695 180.874 197.695 183.914C197.695 186.953 196.461 189.707 194.483 191.686C192.504 193.665 189.75 194.899 186.71 194.899C184.211 194.899 181.906 194.064 180.066 192.667C179.162 192.806 178.204 192.891 177.245 192.891C172.571 192.891 168.326 190.998 165.257 187.929C162.475 185.147 160.668 181.419 160.353 177.289C157.972 176.944 155.821 175.826 154.215 174.191C152.236 172.212 151.002 169.459 151.002 166.418C151.002 163.378 152.236 160.625 154.215 158.646C156.194 156.667 158.948 155.434 161.988 155.434ZM153.583 176.458C155.534 176.458 157.312 177.26 158.603 178.55C159.894 179.841 160.697 181.62 160.697 183.57C160.697 185.52 159.894 187.299 158.603 188.589C157.312 189.88 155.534 190.683 153.583 190.683C151.633 190.683 149.855 189.88 148.565 188.589C147.274 187.299 146.471 185.52 146.471 183.57C146.471 181.62 147.274 179.841 148.565 178.55C149.855 177.26 151.633 176.458 153.583 176.458ZM186.71 177.145C184.846 177.145 183.154 177.891 181.92 179.125C180.687 180.358 179.941 182.05 179.941 183.914C179.941 185.778 180.687 187.47 181.92 188.704C183.154 189.937 184.846 190.683 186.71 190.683C188.574 190.683 190.266 189.937 191.499 188.704C192.733 187.47 193.479 185.778 193.479 183.914C193.479 182.05 192.733 180.358 191.499 179.125C190.266 177.891 188.574 177.145 186.71 177.145ZM153.583 179.296C152.379 179.297 151.318 179.784 150.543 180.558C149.769 181.332 149.282 182.394 149.282 183.598C149.282 184.803 149.769 185.865 150.543 186.639C151.318 187.413 152.379 187.901 153.583 187.901C154.788 187.901 155.85 187.414 156.624 186.639C157.399 185.865 157.886 184.803 157.886 183.598C157.886 182.394 157.399 181.332 156.624 180.558C155.85 179.784 154.788 179.296 153.583 179.296ZM173.431 149.268C174.693 149.268 175.811 149.784 176.643 150.616C177.475 151.447 177.962 152.566 177.962 153.828C177.962 155.09 177.446 156.209 176.643 157.041C175.811 157.872 174.693 158.36 173.431 158.36C172.169 158.36 171.05 157.844 170.218 157.041C169.386 156.209 168.87 155.061 168.87 153.828C168.871 152.595 169.387 151.447 170.19 150.616C171.021 149.784 172.14 149.268 173.402 149.268H173.431ZM173.402 152.107C172.914 152.107 172.484 152.308 172.198 152.595C171.882 152.911 171.71 153.34 171.71 153.828C171.71 154.315 171.911 154.746 172.198 155.061C172.513 155.376 172.943 155.578 173.402 155.578C173.861 155.578 174.32 155.377 174.635 155.061C174.951 154.746 175.152 154.315 175.152 153.828C175.152 153.34 174.95 152.911 174.635 152.595C174.32 152.28 173.889 152.107 173.402 152.107Z" fill="#EC691F"/>
<path d="M233.345 149.354V152.882L239.34 155.464C239.913 155.722 240.429 156.094 240.917 156.582C241.376 156.094 241.92 155.722 242.494 155.464L248.488 152.882V149.354H252.274V181.534C252.274 183.627 250.726 185.979 248.804 186.811L242.809 189.392V194.813H239.024V189.392L233.03 186.839C231.137 186.036 229.559 183.656 229.559 181.562V149.354H233.345ZM233.288 181.276C233.288 182.308 234.091 183.513 235.037 183.915L238.995 185.606V183.714C238.995 182.681 238.192 181.476 237.246 181.075L233.288 179.382V181.276ZM244.559 181.075C243.584 181.476 242.809 182.681 242.809 183.714V185.606L246.739 183.915C247.714 183.513 248.488 182.308 248.488 181.276H248.517V179.382L244.559 181.075ZM233.288 173.704C233.288 174.736 234.091 175.941 235.037 176.342L238.995 178.035V176.142C238.995 175.11 238.192 173.905 237.246 173.504L233.288 171.811V173.704ZM244.559 173.504C243.584 173.905 242.809 175.11 242.809 176.142V178.035L246.739 176.342C247.714 175.941 248.488 174.736 248.488 173.704H248.517V171.811L244.559 173.504ZM233.288 166.132C233.288 167.165 234.091 168.369 235.037 168.771L238.995 170.464V168.57C238.995 167.538 238.192 166.333 237.246 165.931L233.288 164.24V166.132ZM244.559 165.931C243.584 166.333 242.809 167.538 242.809 168.57V170.464L246.739 168.771C247.714 168.37 248.488 167.165 248.488 166.132H248.517V164.24L244.559 165.931ZM233.288 158.561C233.288 159.593 234.091 160.798 235.037 161.2L238.995 162.891V160.999C238.995 159.966 238.192 158.762 237.246 158.36L233.288 156.668V158.561ZM244.559 158.36C243.584 158.762 242.809 159.966 242.809 160.999V162.891L246.739 161.2C247.714 160.798 248.488 159.594 248.488 158.561H248.517V156.668L244.559 158.36Z" fill="#EC691F"/>
<path d="M330.615 153.67L330.644 153.699L326.198 158.144C332.451 165.659 332.078 176.844 325.023 183.899C323.818 182.695 322.728 181.375 321.781 179.97C321.237 183.555 319.315 187.026 315.989 189.779C314.755 188.747 313.751 187.627 312.891 186.423C311.027 189.377 308.043 191.73 304.057 192.963C303.168 191.271 302.594 189.578 302.279 187.886C299.238 191.413 294.478 193.392 288.943 192.876C288.427 187.312 290.405 182.58 293.933 179.54C292.241 179.224 290.549 178.651 288.857 177.762C290.09 173.804 292.442 170.821 295.396 168.928C294.22 168.096 293.101 167.064 292.069 165.831C294.822 162.475 298.321 160.553 301.935 160.037C300.53 159.119 299.182 158.058 297.948 156.825C305.004 149.77 316.189 149.368 323.703 155.649L328.149 151.203L330.615 153.67ZM297.833 181.059C296.887 181.633 295.998 182.294 295.252 183.097C293.704 184.789 292.757 186.968 292.442 189.406C295.224 189.033 297.662 187.828 299.44 185.878V185.849C299.956 185.305 300.386 184.645 300.759 183.985C299.841 183.985 298.895 183.957 297.948 183.871C297.834 182.925 297.833 181.977 297.833 181.059ZM310.568 181.662C309.048 182.408 307.413 183.01 305.663 183.412C305.434 185.018 305.491 186.711 305.949 188.374C308.215 187.055 309.937 185.19 310.883 182.895H310.855C310.911 182.867 310.911 182.81 310.911 182.781C310.768 182.408 310.682 182.035 310.568 181.662ZM317.193 172.829C316.275 173.202 315.357 173.517 314.382 173.804C313.837 175.094 313.522 176.471 313.522 177.877C313.522 180.343 314.383 182.724 315.989 184.817L316.017 184.846C317.623 182.781 318.484 180.372 318.484 177.905C318.484 176.127 318.024 174.406 317.193 172.829ZM307.212 171.366C306.094 171.653 304.917 171.767 303.77 171.767C302.307 174.319 301.447 177.273 301.332 180.484C304.533 180.337 307.478 179.507 310.023 178.049C310.023 176.873 310.166 175.725 310.424 174.578C309.277 174.721 308.129 174.836 306.953 174.836C306.953 173.66 307.069 172.513 307.212 171.366ZM311.456 154.702C308.588 154.702 305.835 155.477 303.426 156.911C305.548 158.402 307.901 159.549 310.396 160.295L314.239 161.442L312.575 165.085C311.686 167.035 311.084 169.043 310.74 171.079C312.776 170.735 314.783 170.132 316.734 169.243L320.376 167.58L321.524 171.424C322.269 173.919 323.416 176.27 324.907 178.392C328.493 172.37 327.69 164.453 322.528 159.291C319.573 156.337 315.644 154.702 311.456 154.702ZM299.067 170.907C296.744 171.825 294.794 173.546 293.446 175.897L293.474 175.869C294.535 176.156 295.625 176.299 296.686 176.299C297.259 176.299 297.833 176.241 298.406 176.155C298.779 174.406 299.382 172.771 300.156 171.223C299.784 171.137 299.411 171.05 299.067 170.907ZM303.943 163.364C301.476 163.364 299.066 164.225 297.001 165.831C299.066 167.437 301.476 168.297 303.943 168.297C305.348 168.297 306.724 168.01 308.043 167.466C308.33 166.519 308.646 165.572 309.019 164.654C307.413 163.823 305.692 163.364 303.943 163.364Z" fill="#EC691F"/>
<path d="M389.237 182.194C392.449 182.194 394.344 183.863 395.709 185.356L396.235 185.98C397.583 187.5 398.329 188.274 399.849 188.274H402.115V192.834H399.849C396.178 192.834 394.141 190.568 392.822 189.048C391.503 187.528 390.729 186.783 389.209 186.782C387.689 186.782 387 187.442 385.594 189.048C384.189 190.625 382.239 192.834 378.568 192.834C374.897 192.834 372.86 190.568 371.541 189.048C370.193 187.528 369.419 186.782 367.927 186.782C366.436 186.782 365.748 187.442 364.343 189.048C362.937 190.626 361.015 192.834 357.315 192.834H355.05V188.274H357.315C358.835 188.274 359.524 187.586 360.929 185.98C362.335 184.402 364.285 182.194 367.956 182.194C371.627 182.194 373.664 184.46 374.983 185.98C376.331 187.5 377.019 188.274 378.596 188.274C380.174 188.274 380.805 187.586 382.211 185.98C383.616 184.402 385.566 182.194 389.237 182.194ZM381.866 154.689C383.845 156.754 388.463 161.974 388.463 166.534C388.462 172.213 384.046 176.859 378.596 176.859C373.147 176.859 368.73 172.242 368.73 166.534C368.73 161.974 373.348 156.725 375.327 154.689L378.596 151.333L381.866 154.689ZM378.568 157.872C378.568 157.872 373.262 163.351 373.262 166.534C373.263 169.718 375.643 172.299 378.568 172.299C381.493 172.299 383.874 169.718 383.874 166.534C383.874 163.356 378.585 157.89 378.568 157.872Z" fill="#EC691F"/>
<path d="M44.7266 220.297V227.179H51.6094L51.5811 227.237C53.4739 227.237 55.0223 228.786 55.0225 230.678V237.534C55.0223 239.427 54.2478 241.147 53.0146 242.38L44.7266 250.669V254.684C44.7266 258.47 41.6286 261.539 37.8428 261.539H20.6631C16.8775 261.539 13.8087 258.441 13.8086 254.656V220.297H44.7266ZM17.25 230.592V254.656C17.2501 256.549 18.7996 258.097 20.6924 258.097H37.9004C39.7932 258.097 41.3417 256.549 41.3418 254.656V230.592H37.9004V254.627H34.459V230.592H31.0176V254.627H27.5752V230.592H24.1338V254.627H20.6924V230.592H17.25ZM44.7549 230.592V245.764L50.6055 239.914C51.2651 239.254 51.6093 238.394 51.6094 237.476L51.6387 237.447V230.592H44.7549ZM17.25 223.738V227.179H41.3135V223.738H17.25Z" fill="#EC691F"/>
<path d="M108.512 219.866L110.261 225.114H105.013V228.613C109.487 233.115 115.682 237.389 122.536 237.389V240.916H119.037C119.037 248.373 120.299 255.486 122.536 261.968H110.233C107.135 258.871 104.754 255.085 103.263 250.898C101.771 255.114 99.3914 258.871 96.2941 261.968H83.9611C86.1981 255.486 87.4601 248.373 87.4601 240.916H83.9611V237.417C90.8157 237.417 96.9826 233.145 101.485 228.642V219.866H108.512ZM90.9884 240.916C90.9884 246.911 90.2136 252.762 88.6935 258.441H94.7452C99.1047 253.622 101.514 247.456 101.514 240.916H90.9884ZM105.013 240.916C105.013 247.456 107.422 253.622 111.781 258.441H117.833C116.313 252.791 115.538 246.911 115.538 240.916H105.013ZM103.263 231.796C101.284 233.746 98.8178 235.754 95.9786 237.389H110.548C107.737 235.726 105.27 233.718 103.263 231.796Z" fill="#EC691F"/>
<path d="M190.538 227.997C190.538 234.708 186.953 240.559 181.59 243.8L183.856 252.059H183.826C186.551 252.404 188.674 254.727 188.674 257.538C188.674 260.578 186.207 263.073 183.139 263.073C180.73 263.073 178.722 261.525 177.948 259.374H162.145L161.141 263.073H157.326L162.574 243.8C157.211 240.559 153.626 234.708 153.626 227.997H190.538ZM183.167 255.702C182.135 255.702 181.303 256.534 181.303 257.538C181.303 258.542 182.135 259.374 183.167 259.374C184.171 259.374 185.003 258.542 185.003 257.538C185.003 256.534 184.2 255.702 183.167 255.702ZM178.177 245.377C176.255 246.036 174.219 246.438 172.068 246.438C169.917 246.438 167.881 246.065 165.959 245.377L163.148 255.674H177.948C178.349 254.498 179.152 253.494 180.213 252.834L178.177 245.377ZM157.784 231.668C159.448 238.035 165.242 242.739 172.097 242.739C178.951 242.739 184.744 238.035 186.379 231.668H157.784ZM166.762 224.297H162.862L164.697 218.762H168.598L166.762 224.297ZM174.133 224.297H170.233L172.097 218.762H175.968L174.133 224.297ZM181.504 224.297H177.632L179.467 218.762H183.367L181.504 224.297Z" fill="#EC691F"/>
<path d="M230.821 224.267C233.058 224.268 235.123 224.927 236.872 226.074C238.048 226.848 239.081 227.852 239.884 229.028C240.543 228.77 241.203 228.541 241.891 228.369C243.239 228.025 244.645 227.852 246.079 227.852L246.487 227.858C250.989 227.972 255.066 229.841 258.039 232.814C261.107 235.883 262.971 240.042 263 244.659C261.738 243.483 260.19 242.623 258.498 242.136C257.982 239.698 256.748 237.518 255.055 235.797C252.761 233.503 249.578 232.069 246.079 232.069C244.989 232.069 243.927 232.212 242.924 232.471C241.891 232.729 240.944 233.102 240.055 233.56C239.97 233.618 239.884 233.675 239.798 233.704C238.708 234.163 237.474 233.675 237.015 232.585C236.499 231.352 235.61 230.319 234.52 229.573C233.459 228.885 232.168 228.455 230.792 228.455C228.928 228.455 227.236 229.201 226.003 230.433C224.769 231.667 224.023 233.359 224.023 235.224C224.023 237.088 224.769 238.78 226.003 240.014C227.236 241.247 228.928 241.992 230.792 241.992H231.337C232.439 242.046 233.29 242.906 233.344 243.982V244.774C233.345 248.273 234.779 251.456 237.073 253.751C239.276 255.954 242.278 257.357 245.624 257.477C244.942 256.046 244.558 254.441 244.558 252.747C244.558 249.707 245.792 246.953 247.771 244.974C249.75 242.996 252.504 241.763 255.544 241.763C258.584 241.763 261.337 242.996 263.316 244.974C265.295 246.953 266.528 249.707 266.528 252.747C266.528 255.787 265.295 258.54 263.316 260.519C261.337 262.498 258.584 263.732 255.544 263.732C253.044 263.732 250.74 262.897 248.899 261.501C247.995 261.64 247.037 261.724 246.079 261.724C241.404 261.724 237.159 259.831 234.091 256.763C231.309 253.981 229.502 250.252 229.186 246.122C226.806 245.778 224.655 244.659 223.049 243.024C221.07 241.045 219.836 238.292 219.836 235.252C219.836 232.212 221.07 229.458 223.049 227.479C225.028 225.501 227.781 224.267 230.821 224.267ZM222.417 245.291C224.367 245.291 226.146 246.093 227.436 247.384C228.727 248.674 229.53 250.453 229.53 252.403C229.53 254.353 228.727 256.132 227.436 257.423C226.146 258.713 224.367 259.516 222.417 259.516C220.467 259.516 218.689 258.713 217.398 257.423C216.108 256.132 215.304 254.353 215.304 252.403C215.304 250.453 216.108 248.674 217.398 247.384C218.689 246.093 220.467 245.291 222.417 245.291ZM255.544 245.978C253.679 245.978 251.987 246.725 250.754 247.958C249.521 249.191 248.774 250.883 248.774 252.747C248.774 254.611 249.52 256.304 250.754 257.537C251.987 258.77 253.679 259.516 255.544 259.516C257.408 259.516 259.1 258.77 260.333 257.537C261.566 256.304 262.312 254.611 262.312 252.747C262.312 250.883 261.566 249.191 260.333 247.958C259.1 246.725 257.408 245.979 255.544 245.978ZM222.417 248.13C221.212 248.13 220.151 248.617 219.377 249.391C218.602 250.166 218.115 251.227 218.115 252.432C218.115 253.636 218.602 254.698 219.377 255.473C220.151 256.247 221.212 256.734 222.417 256.734C223.621 256.734 224.683 256.247 225.458 255.473C226.232 254.698 226.719 253.636 226.719 252.432C226.719 251.227 226.232 250.166 225.458 249.391C224.683 248.617 223.621 248.13 222.417 248.13ZM242.264 218.101C243.526 218.102 244.645 218.617 245.476 219.449C246.308 220.281 246.796 221.399 246.796 222.661C246.796 223.923 246.279 225.042 245.476 225.874C244.645 226.706 243.526 227.193 242.264 227.193C241.002 227.193 239.883 226.677 239.052 225.874C238.22 225.042 237.704 223.894 237.704 222.661C237.704 221.428 238.22 220.281 239.023 219.449C239.855 218.617 240.973 218.102 242.235 218.101H242.264ZM242.235 220.94C241.748 220.94 241.318 221.142 241.031 221.429C240.716 221.744 240.544 222.174 240.544 222.661C240.544 223.149 240.744 223.579 241.031 223.894C241.346 224.21 241.776 224.411 242.235 224.411C242.694 224.411 243.153 224.21 243.469 223.894C243.784 223.579 243.985 223.149 243.985 222.661C243.985 222.174 243.784 221.744 243.469 221.429C243.153 221.113 242.723 220.94 242.235 220.94Z" fill="#EC691F"/>
<path d="M302.179 218.188V221.716L308.173 224.297C308.746 224.555 309.263 224.928 309.75 225.415C310.209 224.928 310.754 224.555 311.327 224.297L317.321 221.716V218.188H321.107V250.367C321.107 252.461 319.559 254.813 317.638 255.645L311.643 258.226V263.646H307.857V258.226L301.863 255.673C299.97 254.87 298.393 252.489 298.393 250.396V218.188H302.179ZM302.121 250.109C302.121 251.142 302.924 252.346 303.87 252.748L307.828 254.439V252.547C307.828 251.514 307.026 250.31 306.079 249.908L302.121 248.216V250.109ZM313.393 249.908C312.417 250.31 311.643 251.514 311.643 252.547V254.439L315.572 252.748C316.547 252.347 317.321 251.142 317.321 250.109H317.351V248.216L313.393 249.908ZM302.121 242.537C302.121 243.569 302.924 244.774 303.87 245.176L307.828 246.868V244.976C307.828 243.943 307.025 242.739 306.079 242.337L302.121 240.645V242.537ZM313.393 242.337C312.417 242.738 311.643 243.943 311.643 244.976V246.868L315.572 245.176C316.547 244.774 317.321 243.57 317.321 242.537H317.351V240.645L313.393 242.337ZM302.121 234.966C302.121 235.998 302.924 237.203 303.87 237.604L307.828 239.297V237.403C307.828 236.371 307.025 235.166 306.079 234.765L302.121 233.073V234.966ZM313.393 234.765C312.418 235.166 311.643 236.371 311.643 237.403V239.297L315.572 237.604C316.547 237.203 317.321 235.998 317.321 234.966H317.351V233.073L313.393 234.765ZM302.121 227.395C302.121 228.427 302.924 229.632 303.87 230.033L307.828 231.725V229.832C307.828 228.8 307.026 227.595 306.079 227.193L302.121 225.501V227.395ZM313.393 227.193C312.417 227.595 311.643 228.8 311.643 229.832V231.725L315.572 230.033C316.547 229.632 317.321 228.427 317.321 227.395H317.351V225.501L313.393 227.193Z" fill="#EC691F"/>
<path d="M399.449 222.503L399.477 222.532L395.032 226.978C401.284 234.492 400.911 245.677 393.856 252.733C392.651 251.528 391.561 250.208 390.615 248.803C390.07 252.388 388.149 255.859 384.822 258.613C383.589 257.58 382.585 256.461 381.724 255.256C379.86 258.21 376.877 260.563 372.89 261.796C372.001 260.104 371.427 258.411 371.112 256.719C368.072 260.247 363.311 262.225 357.776 261.709C357.26 256.145 359.238 251.413 362.766 248.373C361.074 248.058 359.382 247.484 357.69 246.595C358.923 242.637 361.275 239.654 364.229 237.761C363.053 236.929 361.934 235.897 360.902 234.664C363.655 231.309 367.154 229.387 370.768 228.87C369.363 227.953 368.015 226.892 366.782 225.658C373.837 218.603 385.022 218.202 392.537 224.483L396.982 220.036L399.449 222.503ZM366.667 249.893C365.72 250.466 364.831 251.127 364.085 251.93C362.537 253.622 361.59 255.802 361.275 258.24C364.057 257.867 366.495 256.661 368.273 254.711V254.683C368.789 254.138 369.219 253.478 369.592 252.819C368.675 252.819 367.728 252.79 366.782 252.704C366.667 251.758 366.667 250.811 366.667 249.893ZM379.401 250.495C377.881 251.241 376.246 251.844 374.497 252.245C374.267 253.851 374.324 255.544 374.783 257.207C377.048 255.888 378.77 254.023 379.716 251.729H379.688C379.745 251.7 379.745 251.643 379.745 251.615C379.601 251.242 379.516 250.868 379.401 250.495ZM386.026 241.662C385.108 242.035 384.19 242.35 383.215 242.637C382.67 243.928 382.355 245.305 382.355 246.71C382.355 249.177 383.216 251.557 384.822 253.651L384.85 253.679C386.456 251.614 387.317 249.205 387.317 246.739C387.317 244.96 386.858 243.24 386.026 241.662ZM376.045 240.199C374.927 240.486 373.75 240.601 372.603 240.601C371.141 243.153 370.281 246.106 370.166 249.318C373.367 249.171 376.311 248.34 378.856 246.882C378.856 245.706 378.999 244.559 379.257 243.411C378.11 243.555 376.963 243.669 375.787 243.669C375.787 242.493 375.902 241.346 376.045 240.199ZM380.29 223.535C377.422 223.535 374.668 224.31 372.259 225.744C374.382 227.236 376.734 228.382 379.229 229.128L383.072 230.276L381.409 233.918C380.52 235.868 379.917 237.876 379.573 239.912C381.609 239.568 383.617 238.966 385.567 238.076L389.209 236.413L390.357 240.257C391.103 242.752 392.25 245.104 393.741 247.226C397.326 241.203 396.523 233.287 391.361 228.124C388.407 225.17 384.477 223.535 380.29 223.535ZM367.9 239.74C365.577 240.658 363.627 242.379 362.279 244.731L362.307 244.702C363.368 244.989 364.458 245.132 365.519 245.132C366.093 245.132 366.666 245.075 367.24 244.989C367.613 243.239 368.215 241.605 368.99 240.056C368.617 239.97 368.244 239.884 367.9 239.74ZM372.776 232.198C370.309 232.198 367.899 233.058 365.834 234.664C367.899 236.27 370.309 237.13 372.776 237.13C374.181 237.13 375.557 236.844 376.876 236.299C377.163 235.353 377.479 234.405 377.852 233.488C376.246 232.656 374.525 232.198 372.776 232.198Z" fill="#EC691F"/>
<path d="M45.0706 319.86C48.2828 319.86 50.1773 321.529 51.5422 323.022L52.0686 323.646C53.4165 325.166 54.1629 325.94 55.6829 325.94H57.9485V330.501H55.6829C52.0117 330.501 49.9748 328.235 48.6555 326.715C47.3364 325.195 46.5621 324.449 45.0422 324.449C43.5222 324.449 42.8333 325.109 41.428 326.715C40.0227 328.292 38.0726 330.501 34.4016 330.501C30.7305 330.501 28.6936 328.235 27.3743 326.715C26.0264 325.195 25.2523 324.449 23.761 324.449C22.2696 324.449 21.5813 325.109 20.176 326.715C18.7707 328.292 16.8485 330.501 13.1487 330.501H10.8831V325.94H13.1487C14.6687 325.94 15.3577 325.252 16.7629 323.646C18.1682 322.069 20.1184 319.86 23.7893 319.86C27.4604 319.86 29.4973 322.126 30.8167 323.646C32.1644 325.166 32.8527 325.94 34.4299 325.94C36.0073 325.94 36.6389 325.252 38.0442 323.646C39.4495 322.069 41.3995 319.86 45.0706 319.86ZM37.6995 292.355C39.6784 294.42 44.2961 299.641 44.2961 304.201C44.2959 309.88 39.8791 314.525 34.4299 314.525C28.9809 314.525 24.564 309.908 24.5637 304.201C24.5637 299.641 29.1814 294.392 31.1604 292.355L34.4299 289L37.6995 292.355ZM34.4016 295.539C34.4016 295.539 29.0959 301.018 29.0959 304.201C29.0962 307.384 31.4763 309.966 34.4016 309.966C37.3268 309.966 39.707 307.384 39.7073 304.201C39.7073 301.023 34.4184 295.556 34.4016 295.539Z" fill="#EC691F"/>
<path d="M113.56 289.13V296.013H120.443L120.414 296.07C122.307 296.07 123.856 297.619 123.856 299.512V306.367C123.856 308.26 123.081 309.981 121.848 311.214L113.56 319.502V323.517C113.56 327.303 110.462 330.372 106.676 330.372H89.4965C85.7109 330.372 82.6421 327.275 82.642 323.489V289.13H113.56ZM86.0834 299.426V323.489C86.0835 325.382 87.6329 326.931 89.5258 326.931H106.734C108.627 326.931 110.175 325.382 110.175 323.489V299.426H106.734V323.46H103.292V299.426H99.851V323.46H96.4086V299.426H92.9672V323.46H89.5258V299.426H86.0834ZM113.588 299.426V314.598L119.439 308.747C120.098 308.087 120.443 307.227 120.443 306.309L120.472 306.28V299.426H113.588ZM86.0834 292.571V296.013H110.147V292.571H86.0834Z" fill="#EC691F"/>
<path d="M177.345 288.699L179.094 293.947H173.846V297.446C178.32 301.949 184.515 306.222 191.37 306.222V309.75H187.87C187.87 317.206 189.132 324.32 191.37 330.801H179.066C175.968 327.704 173.587 323.918 172.096 319.731C170.605 323.947 168.225 327.704 165.127 330.801H152.794C155.031 324.32 156.293 317.207 156.293 309.75H152.794V306.251C159.649 306.251 165.816 301.978 170.319 297.475V288.699H177.345ZM159.822 309.75C159.822 315.744 159.047 321.595 157.527 327.274H163.578C167.938 322.456 170.347 316.289 170.347 309.75H159.822ZM173.846 309.75C173.846 316.289 176.255 322.456 180.615 327.274H186.666C185.146 321.624 184.371 315.744 184.371 309.75H173.846ZM172.096 300.63C170.117 302.58 167.651 304.588 164.812 306.222H179.381C176.571 304.559 174.104 302.551 172.096 300.63Z" fill="#EC691F"/>
<path d="M259.372 296.83C259.372 303.541 255.786 309.392 250.423 312.633L252.689 320.893H252.66C255.384 321.237 257.507 323.561 257.507 326.371C257.507 329.411 255.041 331.906 251.972 331.906C249.563 331.906 247.555 330.358 246.781 328.207H230.978L229.974 331.906H226.16L231.408 312.633C226.045 309.392 222.459 303.541 222.459 296.83H259.372ZM252 324.535C250.968 324.535 250.136 325.367 250.136 326.371C250.136 327.375 250.968 328.207 252 328.207C253.004 328.207 253.836 327.375 253.836 326.371C253.836 325.367 253.033 324.535 252 324.535ZM247.01 314.21C245.089 314.87 243.052 315.272 240.901 315.272C238.75 315.272 236.714 314.898 234.792 314.21L231.981 324.507H246.781C247.182 323.331 247.985 322.327 249.046 321.667L247.01 314.21ZM226.618 300.501C228.281 306.868 234.076 311.572 240.93 311.572C247.785 311.572 253.578 306.868 255.212 300.501H226.618ZM235.595 293.13H231.695L233.53 287.595H237.431L235.595 293.13ZM242.966 293.13H239.066L240.93 287.595H244.801L242.966 293.13ZM250.337 293.13H246.465L248.3 287.595H252.201L250.337 293.13Z" fill="#EC691F"/>
<path d="M299.654 293.101C301.891 293.101 303.956 293.76 305.705 294.907C306.881 295.682 307.914 296.686 308.717 297.861C309.376 297.603 310.036 297.374 310.725 297.202C312.073 296.858 313.478 296.686 314.912 296.686L315.32 296.692C319.822 296.805 323.899 298.675 326.872 301.648C329.941 304.716 331.804 308.875 331.833 313.492C330.571 312.317 329.023 311.456 327.331 310.969C326.815 308.531 325.581 306.351 323.889 304.63C321.594 302.336 318.411 300.903 314.912 300.902C313.822 300.902 312.761 301.046 311.757 301.304C310.724 301.562 309.778 301.935 308.889 302.394C308.803 302.451 308.717 302.509 308.631 302.537C307.541 302.996 306.307 302.508 305.849 301.418C305.332 300.185 304.443 299.152 303.354 298.406C302.292 297.718 301.002 297.288 299.625 297.288C297.761 297.288 296.069 298.034 294.836 299.267C293.603 300.5 292.856 302.193 292.856 304.057C292.856 305.921 293.603 307.614 294.836 308.847C296.069 310.08 297.761 310.825 299.625 310.825H300.17C301.272 310.879 302.123 311.739 302.178 312.816V313.608C302.178 317.106 303.612 320.29 305.906 322.584C308.109 324.787 311.111 326.19 314.457 326.311C313.776 324.879 313.392 323.274 313.392 321.58C313.392 318.54 314.626 315.787 316.604 313.808C318.583 311.829 321.337 310.596 324.377 310.596C327.417 310.596 330.171 311.829 332.149 313.808C334.128 315.787 335.361 318.54 335.361 321.58C335.361 324.62 334.128 327.374 332.149 329.353C330.171 331.332 327.417 332.565 324.377 332.566C321.878 332.566 319.573 331.73 317.732 330.334C316.829 330.473 315.87 330.558 314.912 330.558C310.237 330.558 305.993 328.665 302.924 325.596C300.142 322.814 298.335 319.085 298.02 314.955C295.639 314.611 293.488 313.492 291.882 311.858C289.903 309.879 288.669 307.125 288.669 304.085C288.669 301.045 289.903 298.291 291.882 296.313C293.861 294.334 296.614 293.101 299.654 293.101ZM291.25 314.124C293.2 314.124 294.979 314.926 296.27 316.217C297.56 317.508 298.363 319.286 298.363 321.236C298.363 323.187 297.56 324.965 296.27 326.256C294.979 327.546 293.2 328.35 291.25 328.35C289.3 328.35 287.522 327.546 286.231 326.256C284.941 324.965 284.138 323.187 284.138 321.236C284.138 319.286 284.941 317.508 286.231 316.217C287.522 314.927 289.3 314.124 291.25 314.124ZM324.377 314.812C322.513 314.812 320.82 315.558 319.587 316.791C318.354 318.024 317.608 319.716 317.607 321.58C317.607 323.444 318.354 325.137 319.587 326.37C320.82 327.604 322.513 328.35 324.377 328.35C326.241 328.35 327.933 327.603 329.166 326.37C330.399 325.137 331.146 323.444 331.146 321.58C331.145 319.716 330.399 318.024 329.166 316.791C327.933 315.558 326.241 314.812 324.377 314.812ZM291.25 316.963C290.046 316.963 288.984 317.45 288.21 318.225C287.436 318.999 286.948 320.06 286.948 321.265C286.948 322.469 287.436 323.531 288.21 324.306C288.984 325.08 290.046 325.567 291.25 325.568C292.455 325.568 293.517 325.08 294.291 324.306C295.065 323.531 295.553 322.469 295.553 321.265C295.553 320.06 295.065 318.999 294.291 318.225C293.517 317.45 292.455 316.963 291.25 316.963ZM311.098 286.935C312.359 286.935 313.478 287.451 314.31 288.282C315.141 289.114 315.629 290.233 315.629 291.494C315.629 292.756 315.113 293.875 314.31 294.707C313.478 295.539 312.359 296.026 311.098 296.026C309.836 296.026 308.717 295.51 307.885 294.707C307.053 293.875 306.537 292.727 306.537 291.494C306.537 290.261 307.053 289.114 307.856 288.282C308.688 287.451 309.807 286.935 311.068 286.935H311.098ZM311.068 289.774C310.581 289.774 310.151 289.975 309.864 290.262C309.549 290.577 309.377 291.007 309.377 291.494C309.377 291.982 309.578 292.412 309.864 292.728C310.18 293.043 310.61 293.244 311.068 293.244C311.527 293.244 311.986 293.043 312.302 292.728C312.617 292.412 312.818 291.982 312.818 291.494C312.818 291.007 312.617 290.577 312.302 290.262C311.986 289.946 311.556 289.774 311.068 289.774Z" fill="#EC691F"/>
<path d="M371.012 287.021V290.549L377.006 293.13C377.58 293.388 378.096 293.761 378.583 294.248C379.042 293.761 379.587 293.388 380.16 293.13L386.155 290.549V287.021H389.941V319.2C389.941 321.294 388.392 323.646 386.471 324.478L380.476 327.059V332.48H376.691V327.059L370.697 324.506C368.804 323.703 367.226 321.322 367.226 319.229V287.021H371.012ZM370.954 318.943C370.954 319.975 371.757 321.18 372.703 321.581L376.661 323.273V321.38C376.661 320.348 375.859 319.143 374.912 318.741L370.954 317.049V318.943ZM382.226 318.741C381.251 319.143 380.476 320.348 380.476 321.38V323.273L384.406 321.581C385.381 321.18 386.154 319.975 386.155 318.943H386.184V317.049L382.226 318.741ZM370.954 311.37C370.954 312.403 371.757 313.607 372.703 314.009L376.661 315.701V313.809C376.661 312.776 375.859 311.572 374.912 311.17L370.954 309.478V311.37ZM382.226 311.17C381.251 311.572 380.476 312.776 380.476 313.809V315.701L384.406 314.009C385.381 313.607 386.155 312.403 386.155 311.37H386.184V309.478L382.226 311.17ZM370.954 303.799C370.954 304.831 371.757 306.036 372.703 306.438L376.661 308.13V306.237C376.661 305.204 375.859 303.999 374.912 303.598L370.954 301.906V303.799ZM382.226 303.598C381.251 303.999 380.476 305.204 380.476 306.237V308.13L384.406 306.438C385.381 306.036 386.155 304.832 386.155 303.799H386.184V301.906L382.226 303.598ZM370.954 296.228C370.955 297.26 371.757 298.465 372.703 298.866L376.661 300.558V298.665C376.661 297.633 375.859 296.428 374.912 296.027L370.954 294.334V296.228ZM382.226 296.027C381.251 296.428 380.476 297.633 380.476 298.665V300.558L384.406 298.866C385.381 298.465 386.154 297.26 386.155 296.228H386.184V294.334L382.226 296.027Z" fill="#EC691F"/>
<path d="M55.2822 360.17L55.3105 360.199L50.8652 364.644C57.1174 372.159 56.7447 383.344 49.6895 390.399C48.4849 389.195 47.3947 387.875 46.4482 386.47C45.9033 390.055 43.9822 393.526 40.6553 396.279C39.422 395.247 38.418 394.127 37.5576 392.923C35.6934 395.877 32.7102 398.23 28.7236 399.463C27.8345 397.771 27.2608 396.078 26.9453 394.386C23.9052 397.913 19.1446 399.892 13.6094 399.376C13.0933 393.812 15.072 389.08 18.5996 386.04C16.9076 385.724 15.2155 385.151 13.5234 384.262C14.7567 380.304 17.1084 377.321 20.0625 375.428C18.8867 374.596 17.7678 373.564 16.7354 372.331C19.4887 368.975 22.9878 367.053 26.6016 366.537C25.1964 365.619 23.8484 364.558 22.6152 363.325C29.6707 356.27 40.8559 355.868 48.3701 362.149L52.8154 357.703L55.2822 360.17ZM22.5 387.559C21.5535 388.133 20.6646 388.794 19.9189 389.597C18.3703 391.289 17.4239 393.468 17.1084 395.906C19.8903 395.533 22.3283 394.328 24.1064 392.378V392.349C24.6226 391.805 25.053 391.145 25.4258 390.485C24.5082 390.485 23.5615 390.457 22.6152 390.371C22.5005 389.425 22.5 388.477 22.5 387.559ZM35.2344 388.162C33.7144 388.908 32.0795 389.51 30.3301 389.912C30.1007 391.518 30.1573 393.211 30.6162 394.874C32.882 393.555 34.6033 391.69 35.5498 389.395H35.5215C35.5782 389.367 35.5781 389.31 35.5781 389.281C35.4347 388.908 35.3491 388.535 35.2344 388.162ZM41.8594 379.329C40.9417 379.702 40.0239 380.017 39.0488 380.304C38.5039 381.594 38.1885 382.971 38.1885 384.377C38.1886 386.843 39.0493 389.224 40.6553 391.317L40.6836 391.346C42.2896 389.281 43.1504 386.872 43.1504 384.405C43.1504 382.627 42.691 380.906 41.8594 379.329ZM31.8789 377.866C30.7604 378.153 29.5837 378.267 28.4365 378.267C26.9742 380.819 26.114 383.773 25.999 386.984C29.2002 386.837 32.1445 386.007 34.6895 384.549C34.6895 383.373 34.8327 382.225 35.0908 381.078C33.9436 381.221 32.796 381.336 31.6201 381.336C31.6201 380.16 31.7355 379.013 31.8789 377.866ZM36.123 361.202C33.2551 361.202 30.5019 361.977 28.0928 363.411C30.2151 364.902 32.5673 366.049 35.0625 366.795L38.9053 367.942L37.2422 371.585C36.3531 373.535 35.7504 375.543 35.4062 377.579C37.4426 377.235 39.4501 376.632 41.4004 375.743L45.043 374.08L46.1904 377.924C46.9361 380.419 48.083 382.77 49.5742 384.892C53.1593 378.87 52.3568 370.953 47.1943 365.791C44.2402 362.837 40.3104 361.202 36.123 361.202ZM23.7334 377.407C21.4103 378.325 19.4603 380.046 18.1123 382.397L18.1406 382.369C19.2017 382.656 20.2915 382.799 21.3525 382.799C21.926 382.799 22.4997 382.741 23.0732 382.655C23.4461 380.906 24.0489 379.271 24.8232 377.723C24.4504 377.637 24.0775 377.55 23.7334 377.407ZM28.6094 369.864C26.1428 369.864 23.733 370.725 21.668 372.331C23.733 373.937 26.1428 374.797 28.6094 374.797C30.0144 374.797 31.3909 374.51 32.71 373.966C32.9968 373.019 33.3127 372.072 33.6855 371.154C32.0796 370.323 30.3587 369.864 28.6094 369.864Z" fill="#EC691F"/>
<path d="M113.904 388.694C117.116 388.694 119.011 390.363 120.376 391.856L120.902 392.48C122.25 394 122.996 394.774 124.516 394.774H126.782V399.334H124.516C120.845 399.334 118.808 397.068 117.489 395.548C116.17 394.028 115.395 393.283 113.876 393.282C112.356 393.282 111.667 393.942 110.261 395.548C108.856 397.125 106.906 399.334 103.235 399.334C99.5639 399.334 97.5269 397.068 96.2076 395.548C94.8598 394.028 94.0856 393.282 92.5944 393.282C91.103 393.282 90.4147 393.942 89.0094 395.548C87.6041 397.126 85.6818 399.334 81.9821 399.334H79.7164V394.774H81.9821C83.5021 394.774 84.1911 394.086 85.5963 392.48C87.0016 390.902 88.9518 388.694 92.6227 388.694C96.2938 388.694 98.3307 390.96 99.65 392.48C100.998 394 101.686 394.774 103.263 394.774C104.841 394.774 105.472 394.086 106.878 392.48C108.283 390.902 110.233 388.694 113.904 388.694ZM106.533 361.189C108.512 363.254 113.13 368.474 113.13 373.034C113.129 378.713 108.712 383.359 103.263 383.359C97.8142 383.359 93.3973 378.742 93.3971 373.034C93.3971 368.474 98.0148 363.225 99.9938 361.189L103.263 357.833L106.533 361.189ZM103.235 364.372C103.235 364.372 97.9293 369.851 97.9293 373.034C97.9296 376.218 100.31 378.799 103.235 378.799C106.16 378.799 108.54 376.218 108.541 373.034C108.541 369.856 103.252 364.39 103.235 364.372Z" fill="#EC691F"/>
<path d="M182.393 357.963V364.846H189.276L189.248 364.904C191.14 364.904 192.689 366.452 192.689 368.345V375.2C192.689 377.093 191.914 378.814 190.681 380.047L182.393 388.335V392.351C182.393 396.137 179.295 399.205 175.509 399.205H158.33C154.544 399.205 151.475 396.108 151.475 392.323V357.963H182.393ZM154.917 368.259V392.323C154.917 394.215 156.466 395.764 158.359 395.764H175.567C177.46 395.764 179.008 394.215 179.008 392.323V368.259H175.567V392.293H172.126V368.259H168.684V392.293H165.242V368.259H161.8V392.293H158.359V368.259H154.917ZM182.422 368.259V383.431L188.272 377.58C188.932 376.921 189.276 376.061 189.276 375.143L189.305 375.114V368.259H182.422ZM154.917 361.405V364.846H178.98V361.405H154.917Z" fill="#EC691F"/>
<path d="M246.178 357.532L247.927 362.78H242.679V366.279C247.154 370.782 253.348 375.056 260.203 375.056V378.583H256.704C256.704 386.04 257.966 393.153 260.203 399.635H247.899C244.802 396.537 242.421 392.752 240.929 388.564C239.438 392.78 237.058 396.537 233.961 399.635H221.628C223.865 393.153 225.127 386.04 225.127 378.583H221.628V375.084C228.482 375.084 234.649 370.811 239.152 366.309V357.532H246.178ZM228.655 378.583C228.655 384.577 227.88 390.429 226.36 396.107H232.412C236.771 391.289 239.18 385.122 239.18 378.583H228.655ZM242.679 378.583C242.679 385.122 245.089 391.289 249.448 396.107H255.5C253.98 390.457 253.205 384.577 253.205 378.583H242.679ZM240.929 369.463C238.951 371.413 236.484 373.421 233.645 375.056H248.215C245.404 373.392 242.937 371.384 240.929 369.463Z" fill="#EC691F"/>
<path d="M328.205 365.664C328.205 372.375 324.62 378.225 319.257 381.466L321.522 389.726H321.493C324.218 390.07 326.341 392.394 326.341 395.205C326.341 398.245 323.874 400.739 320.805 400.74C318.396 400.74 316.389 399.191 315.614 397.041H299.811L298.807 400.74H294.993L300.241 381.466C294.878 378.225 291.293 372.375 291.293 365.664H328.205ZM320.834 393.369C319.801 393.369 318.969 394.201 318.969 395.205C318.97 396.208 319.801 397.041 320.834 397.041C321.837 397.04 322.67 396.208 322.67 395.205C322.67 394.201 321.866 393.369 320.834 393.369ZM315.844 383.043C313.922 383.703 311.885 384.105 309.734 384.105C307.583 384.105 305.547 383.732 303.626 383.043L300.814 393.34H315.614C316.016 392.164 316.818 391.16 317.88 390.5L315.844 383.043ZM295.451 369.334C297.114 375.702 302.909 380.406 309.763 380.406C316.618 380.406 322.411 375.701 324.046 369.334H295.451ZM304.428 361.963H300.528L302.363 356.428H306.264L304.428 361.963ZM311.8 361.963H307.899L309.763 356.428H313.635L311.8 361.963ZM319.171 361.963H315.299L317.134 356.428H321.034L319.171 361.963Z" fill="#EC691F"/>
<path d="M368.488 361.934C370.724 361.934 372.789 362.594 374.538 363.741C375.714 364.515 376.747 365.519 377.55 366.695C378.21 366.437 378.87 366.208 379.558 366.036C380.906 365.691 382.311 365.519 383.745 365.519L384.154 365.525C388.656 365.639 392.732 367.508 395.705 370.481C398.774 373.55 400.637 377.708 400.666 382.326C399.404 381.15 397.856 380.29 396.164 379.802C395.648 377.364 394.414 375.184 392.722 373.463C390.428 371.169 387.244 369.736 383.745 369.736C382.656 369.736 381.594 369.879 380.59 370.137C379.558 370.395 378.611 370.768 377.722 371.227C377.636 371.284 377.55 371.342 377.464 371.371C376.374 371.829 375.141 371.341 374.682 370.251C374.166 369.018 373.277 367.985 372.187 367.24C371.126 366.552 369.835 366.122 368.458 366.122C366.594 366.122 364.902 366.867 363.669 368.1C362.436 369.333 361.69 371.026 361.69 372.89C361.69 374.754 362.436 376.447 363.669 377.68C364.902 378.913 366.594 379.659 368.458 379.659H369.003C370.105 379.712 370.956 380.573 371.011 381.649V382.441C371.011 385.94 372.445 389.123 374.74 391.417C376.942 393.62 379.945 395.023 383.29 395.144C382.609 393.713 382.225 392.108 382.225 390.414C382.225 387.374 383.459 384.62 385.438 382.641C387.417 380.662 390.17 379.429 393.21 379.429C396.25 379.429 399.004 380.662 400.983 382.641C402.962 384.62 404.194 387.374 404.195 390.414C404.195 393.453 402.961 396.207 400.983 398.186C399.004 400.165 396.25 401.399 393.21 401.399C390.711 401.399 388.406 400.564 386.566 399.167C385.662 399.306 384.704 399.391 383.745 399.391C379.07 399.391 374.826 397.498 371.757 394.429C368.975 391.647 367.168 387.919 366.853 383.789C364.472 383.444 362.321 382.326 360.715 380.691C358.736 378.712 357.502 375.959 357.502 372.918C357.502 369.878 358.736 367.125 360.715 365.146C362.694 363.167 365.448 361.934 368.488 361.934ZM360.083 382.958C362.033 382.958 363.812 383.76 365.103 385.05C366.393 386.341 367.197 388.12 367.197 390.07C367.197 392.02 366.393 393.799 365.103 395.089C363.812 396.38 362.033 397.183 360.083 397.183C358.133 397.183 356.355 396.38 355.065 395.089C353.774 393.799 352.971 392.02 352.971 390.07C352.971 388.12 353.774 386.341 355.065 385.05C356.355 383.76 358.133 382.958 360.083 382.958ZM393.21 383.645C391.346 383.645 389.653 384.391 388.42 385.625C387.187 386.858 386.441 388.55 386.441 390.414C386.441 392.278 387.187 393.97 388.42 395.204C389.653 396.437 391.346 397.183 393.21 397.183C395.074 397.183 396.766 396.437 397.999 395.204C399.233 393.97 399.979 392.278 399.979 390.414C399.979 388.55 399.232 386.858 397.999 385.625C396.766 384.391 395.074 383.645 393.21 383.645ZM360.083 385.796C358.879 385.797 357.817 386.284 357.043 387.058C356.269 387.832 355.782 388.894 355.781 390.098C355.781 391.303 356.269 392.365 357.043 393.139C357.817 393.913 358.879 394.401 360.083 394.401C361.288 394.401 362.35 393.914 363.124 393.139C363.899 392.365 364.386 391.303 364.386 390.098C364.386 388.894 363.899 387.832 363.124 387.058C362.35 386.284 361.288 385.796 360.083 385.796ZM379.931 355.768C381.193 355.768 382.311 356.284 383.143 357.116C383.974 357.947 384.462 359.066 384.462 360.328C384.462 361.59 383.946 362.709 383.143 363.541C382.311 364.372 381.193 364.86 379.931 364.86C378.669 364.86 377.55 364.344 376.718 363.541C375.886 362.709 375.37 361.561 375.37 360.328C375.37 359.095 375.887 357.947 376.69 357.116C377.521 356.284 378.64 355.768 379.902 355.768H379.931ZM379.902 358.607C379.414 358.607 378.984 358.808 378.698 359.095C378.382 359.411 378.21 359.84 378.21 360.328C378.21 360.815 378.411 361.246 378.698 361.561C379.013 361.876 379.443 362.078 379.902 362.078C380.361 362.078 380.82 361.877 381.135 361.561C381.45 361.246 381.652 360.815 381.652 360.328C381.651 359.84 381.45 359.411 381.135 359.095C380.82 358.78 380.389 358.607 379.902 358.607Z" fill="#EC691F"/>
<path d="M26.8455 424.688V428.216L32.8396 430.797C33.4131 431.055 33.9293 431.428 34.4167 431.915C34.8755 431.428 35.4204 431.055 35.9939 430.797L41.988 428.216V424.688H45.7742V456.867C45.7742 458.961 44.2259 461.313 42.3044 462.145L36.3093 464.726V470.146H32.5242V464.726L26.53 462.173C24.6371 461.37 23.0593 458.989 23.0593 456.896V424.688H26.8455ZM26.7878 456.609C26.788 457.642 27.5906 458.846 28.5369 459.248L32.4949 460.939V459.047C32.4948 458.014 31.6923 456.81 30.7458 456.408L26.7878 454.716V456.609ZM38.0593 456.408C37.0842 456.81 36.3094 458.014 36.3093 459.047V460.939L40.239 459.248C41.2141 458.847 41.9879 457.642 41.988 456.609H42.0173V454.716L38.0593 456.408ZM26.7878 449.037C26.7878 450.069 27.5906 451.274 28.5369 451.676L32.4949 453.368V451.476C32.4949 450.443 31.6922 449.239 30.7458 448.837L26.7878 447.145V449.037ZM38.0593 448.837C37.0842 449.238 36.3093 450.443 36.3093 451.476V453.368L40.239 451.676C41.2141 451.274 41.988 450.07 41.988 449.037H42.0173V447.145L38.0593 448.837ZM26.7878 441.466C26.7879 442.498 27.5906 443.703 28.5369 444.104L32.4949 445.797V443.903C32.4947 442.871 31.6922 441.666 30.7458 441.265L26.7878 439.573V441.466ZM38.0593 441.265C37.0843 441.666 36.3095 442.871 36.3093 443.903V445.797L40.239 444.104C41.2141 443.703 41.988 442.498 41.988 441.466H42.0173V439.573L38.0593 441.265ZM26.7878 433.895C26.7881 434.927 27.5906 436.132 28.5369 436.533L32.4949 438.225V436.332C32.4949 435.3 31.6923 434.095 30.7458 433.693L26.7878 432.001V433.895ZM38.0593 433.693C37.0842 434.095 36.3093 435.3 36.3093 436.332V438.225L40.239 436.533C41.214 436.132 41.9878 434.927 41.988 433.895H42.0173V432.001L38.0593 433.693Z" fill="#EC691F"/>
<path d="M124.116 429.003L124.144 429.032L119.699 433.478C125.951 440.992 125.578 452.177 118.523 459.233C117.318 458.028 116.228 456.708 115.282 455.303C114.737 458.888 112.816 462.359 109.489 465.113C108.255 464.08 107.251 462.961 106.391 461.756C104.527 464.71 101.544 467.063 97.557 468.296C96.6679 466.604 96.0942 464.911 95.7787 463.219C92.7386 466.747 87.978 468.725 82.4427 468.209C81.9266 462.645 83.9054 457.913 87.433 454.873C85.7409 454.558 84.0489 453.984 82.3568 453.095C83.5901 449.137 85.9418 446.154 88.8959 444.261C87.7201 443.429 86.6012 442.397 85.5687 441.164C88.3221 437.809 91.8212 435.887 95.4349 435.37C94.0297 434.453 92.6818 433.392 91.4486 432.158C98.504 425.103 109.689 424.702 117.203 430.983L121.649 426.536L124.116 429.003ZM91.3334 456.393C90.3869 456.966 89.498 457.627 88.7523 458.43C87.2036 460.122 86.2573 462.302 85.9418 464.74C88.7237 464.367 91.1617 463.161 92.9398 461.211V461.183C93.456 460.638 93.8863 459.978 94.2592 459.319C93.3415 459.319 92.3949 459.29 91.4486 459.204C91.3339 458.258 91.3334 457.311 91.3334 456.393ZM104.068 456.995C102.548 457.741 100.913 458.344 99.1635 458.745C98.934 460.351 98.9907 462.044 99.4496 463.707C101.715 462.388 103.437 460.523 104.383 458.229H104.355C104.412 458.2 104.411 458.143 104.411 458.115C104.268 457.742 104.182 457.368 104.068 456.995ZM110.693 448.162C109.775 448.535 108.857 448.85 107.882 449.137C107.337 450.428 107.022 451.805 107.022 453.21C107.022 455.677 107.883 458.057 109.489 460.151L109.517 460.179C111.123 458.114 111.984 455.705 111.984 453.239C111.984 451.46 111.524 449.74 110.693 448.162ZM100.712 446.699C99.5937 446.986 98.4171 447.101 97.2699 447.101C95.8076 449.653 94.9474 452.606 94.8324 455.818C98.0335 455.671 100.978 454.84 103.523 453.382C103.523 452.206 103.666 451.059 103.924 449.911C102.777 450.055 101.629 450.169 100.453 450.169C100.454 448.993 100.569 447.846 100.712 446.699ZM104.956 430.035C102.088 430.035 99.3352 430.81 96.9261 432.244C99.0485 433.736 101.401 434.882 103.896 435.628L107.739 436.776L106.076 440.418C105.186 442.368 104.584 444.376 104.24 446.412C106.276 446.068 108.283 445.466 110.234 444.576L113.876 442.913L115.024 446.757C115.769 449.252 116.916 451.604 118.408 453.726C121.993 447.703 121.19 439.787 116.028 434.624C113.074 431.67 109.144 430.035 104.956 430.035ZM92.5668 446.24C90.2437 447.158 88.2937 448.879 86.9457 451.231L86.974 451.202C88.0351 451.489 89.1249 451.632 90.1859 451.632C90.7594 451.632 91.3331 451.575 91.9066 451.489C92.2795 449.739 92.8823 448.105 93.6566 446.556C93.2838 446.47 92.9109 446.384 92.5668 446.24ZM97.4427 438.698C94.9762 438.698 92.5663 439.558 90.5013 441.164C92.5663 442.77 94.9762 443.63 97.4427 443.63C98.8478 443.63 100.224 443.344 101.543 442.799C101.83 441.853 102.146 440.905 102.519 439.988C100.913 439.156 99.1921 438.698 97.4427 438.698Z" fill="#EC691F"/>
<path d="M182.737 457.527C185.949 457.527 187.844 459.196 189.209 460.689L189.735 461.313C191.083 462.833 191.829 463.607 193.349 463.607H195.615V468.168H193.349C189.678 468.168 187.641 465.902 186.322 464.381C185.003 462.862 184.229 462.116 182.709 462.116C181.189 462.116 180.5 462.775 179.095 464.381C177.689 465.959 175.739 468.168 172.068 468.168C168.397 468.168 166.36 465.902 165.041 464.381C163.693 462.862 162.919 462.116 161.428 462.116C159.936 462.116 159.248 462.775 157.843 464.381C156.437 465.959 154.515 468.168 150.815 468.168H148.55V463.607H150.815C152.335 463.607 153.024 462.919 154.43 461.313C155.835 459.736 157.785 457.527 161.456 457.527C165.127 457.527 167.164 459.793 168.483 461.313C169.831 462.833 170.519 463.607 172.097 463.607C173.674 463.607 174.306 462.919 175.711 461.313C177.116 459.736 179.066 457.527 182.737 457.527ZM175.366 430.022C177.345 432.087 181.963 437.308 181.963 441.868C181.963 447.546 177.546 452.192 172.097 452.192C166.647 452.192 162.231 447.575 162.23 441.868C162.23 437.308 166.848 432.058 168.827 430.022L172.097 426.667L175.366 430.022ZM172.068 433.206C172.068 433.206 166.763 438.684 166.763 441.868C166.763 445.051 169.143 447.632 172.068 447.632C174.993 447.632 177.374 445.051 177.374 441.868C177.374 438.689 172.085 433.223 172.068 433.206Z" fill="#EC691F"/>
<path d="M251.227 426.797V433.679H258.109L258.081 433.737C259.974 433.737 261.522 435.286 261.522 437.178V444.034C261.522 445.927 260.748 447.647 259.515 448.88L251.227 457.169V461.184C251.227 464.97 248.129 468.039 244.343 468.039H227.163C223.377 468.039 220.309 464.941 220.309 461.156V426.797H251.227ZM223.75 437.092V461.156C223.75 463.049 225.3 464.597 227.192 464.597H244.4C246.293 464.597 247.842 463.049 247.842 461.156V437.092H244.4V461.127H240.959V437.092H237.518V461.127H234.075V437.092H230.634V461.127H227.192V437.092H223.75ZM251.255 437.092V452.264L257.105 446.414C257.765 445.754 258.109 444.894 258.109 443.976L258.139 443.947V437.092H251.255ZM223.75 430.238V433.679H247.813V430.238H223.75Z" fill="#EC691F"/>
<path d="M315.012 426.366L316.761 431.614H311.513V435.113C315.987 439.615 322.182 443.889 329.036 443.889V447.416H325.537C325.537 454.873 326.799 461.986 329.036 468.468H316.732C313.635 465.371 311.254 461.585 309.763 457.398C308.271 461.614 305.891 465.371 302.794 468.468H290.461C292.698 461.986 293.96 454.873 293.96 447.416H290.461V443.917C297.316 443.917 303.483 439.645 307.985 435.142V426.366H315.012ZM297.488 447.416C297.488 453.411 296.713 459.262 295.193 464.941H301.245C305.605 460.122 308.014 453.956 308.014 447.416H297.488ZM311.513 447.416C311.513 453.956 313.922 460.122 318.281 464.941H324.333C322.813 459.291 322.038 453.411 322.038 447.416H311.513ZM309.763 438.296C307.784 440.246 305.318 442.254 302.479 443.889H317.048C314.237 442.226 311.77 440.218 309.763 438.296Z" fill="#EC691F"/>
<path d="M397.038 434.497C397.038 441.208 393.453 447.059 388.09 450.3L390.355 458.559H390.326C393.051 458.904 395.174 461.227 395.174 464.038C395.174 467.078 392.707 469.573 389.639 469.573C387.23 469.573 385.222 468.025 384.447 465.874H368.645L367.641 469.573H363.826L369.074 450.3C363.711 447.059 360.126 441.208 360.126 434.497H397.038ZM389.667 462.202C388.634 462.202 387.803 463.034 387.803 464.038C387.803 465.042 388.635 465.874 389.667 465.874C390.671 465.874 391.503 465.042 391.503 464.038C391.503 463.034 390.699 462.202 389.667 462.202ZM384.677 451.877C382.755 452.536 380.718 452.938 378.567 452.938C376.416 452.938 374.38 452.565 372.459 451.877L369.647 462.174H384.447C384.849 460.998 385.652 459.994 386.713 459.334L384.677 451.877ZM364.284 438.168C365.948 444.535 371.742 449.239 378.597 449.239C385.451 449.239 391.244 444.535 392.879 438.168H364.284ZM373.262 430.797H369.361L371.196 425.262H375.098L373.262 430.797ZM380.633 430.797H376.732L378.597 425.262H382.468L380.633 430.797ZM388.004 430.797H384.132L385.967 425.262H389.867L388.004 430.797Z" fill="#EC691F"/>
<path d="M24.321 499.601C26.5578 499.601 28.6225 500.26 30.3718 501.407C31.5476 502.182 32.5805 503.186 33.3835 504.361C34.0432 504.103 34.703 503.874 35.3914 503.702C36.7393 503.358 38.1448 503.186 39.5789 503.186L39.9871 503.192C44.4891 503.305 48.5659 505.175 51.5388 508.148C54.6075 511.216 56.471 515.375 56.4998 519.992C55.238 518.817 53.6896 517.956 51.9978 517.469C51.4816 515.031 50.2476 512.851 48.5554 511.13C46.261 508.836 43.0776 507.403 39.5789 507.402C38.489 507.402 37.4274 507.546 36.4236 507.804C35.3912 508.062 34.4444 508.435 33.5554 508.894C33.4695 508.951 33.3835 509.009 33.2976 509.037C32.2078 509.496 30.9742 509.008 30.5154 507.918C29.9991 506.685 29.1101 505.652 28.0203 504.906C26.9591 504.218 25.6683 503.788 24.2917 503.788C22.4278 503.788 20.7359 504.534 19.5027 505.767C18.2694 507 17.5232 508.693 17.5232 510.557C17.5232 512.421 18.2694 514.114 19.5027 515.347C20.7359 516.58 22.4278 517.325 24.2917 517.325H24.8367C25.939 517.379 26.7896 518.239 26.8445 519.316V520.108C26.8445 523.606 28.2787 526.79 30.573 529.084C32.776 531.287 35.7781 532.69 39.1238 532.811C38.4423 531.379 38.0583 529.774 38.0583 528.08C38.0585 525.04 39.2924 522.287 41.2712 520.308C43.2502 518.329 46.0038 517.096 49.0437 517.096C52.0837 517.096 54.8373 518.329 56.8162 520.308C58.795 522.287 60.028 525.04 60.0281 528.08C60.0281 531.12 58.7949 533.874 56.8162 535.853C54.8373 537.832 52.0837 539.065 49.0437 539.066C46.5445 539.066 44.2399 538.23 42.3992 536.834C41.4953 536.973 40.5372 537.058 39.5789 537.058C34.904 537.058 30.6594 535.165 27.5906 532.096C24.8086 529.314 23.0018 525.585 22.6863 521.455C20.3058 521.111 18.1547 519.992 16.5486 518.358C14.5696 516.379 13.3357 513.625 13.3357 510.585C13.3358 507.545 14.5697 504.791 16.5486 502.813C18.5275 500.834 21.2811 499.601 24.321 499.601ZM15.9167 520.624C17.8669 520.624 19.6457 521.426 20.9363 522.717C22.2269 524.008 23.03 525.786 23.03 527.736C23.03 529.687 22.2269 531.465 20.9363 532.756C19.6457 534.046 17.8669 534.85 15.9167 534.85C13.9668 534.85 12.1887 534.046 10.8982 532.756C9.60757 531.465 8.80444 529.687 8.80444 527.736C8.80446 525.786 9.60758 524.008 10.8982 522.717C12.1887 521.427 13.9668 520.624 15.9167 520.624ZM49.0437 521.312C47.1795 521.312 45.4869 522.058 44.2537 523.291C43.0205 524.524 42.2743 526.216 42.2742 528.08C42.2742 529.944 43.0204 531.637 44.2537 532.87C45.4869 534.104 47.1795 534.85 49.0437 534.85C50.9077 534.85 52.5996 534.103 53.8328 532.87C55.066 531.637 55.8123 529.944 55.8123 528.08C55.8121 526.216 55.0659 524.524 53.8328 523.291C52.5996 522.058 50.9078 521.312 49.0437 521.312ZM15.9167 523.463C14.7124 523.463 13.651 523.95 12.8767 524.725C12.1024 525.499 11.6151 526.56 11.615 527.765C11.615 528.969 12.1023 530.031 12.8767 530.806C13.651 531.58 14.7124 532.067 15.9167 532.068C17.1213 532.068 18.1834 531.58 18.9578 530.806C19.7321 530.031 20.2195 528.969 20.2195 527.765C20.2194 526.56 19.732 525.499 18.9578 524.725C18.1834 523.95 17.1213 523.463 15.9167 523.463ZM35.7644 493.435C37.0262 493.435 38.1446 493.951 38.9763 494.782C39.8079 495.614 40.2955 496.733 40.2957 497.994C40.2957 499.256 39.7794 500.375 38.9763 501.207C38.1446 502.039 37.0262 502.526 35.7644 502.526C34.5025 502.526 33.3832 502.01 32.5515 501.207C31.7198 500.375 31.2039 499.227 31.2039 497.994C31.204 496.761 31.7202 495.614 32.5232 494.782C33.3548 493.951 34.4733 493.435 35.7351 493.435H35.7644ZM35.7351 496.274C35.2477 496.274 34.8177 496.475 34.531 496.762C34.2157 497.077 34.0438 497.507 34.0437 497.994C34.0437 498.482 34.2443 498.912 34.531 499.228C34.8464 499.543 35.2764 499.744 35.7351 499.744C36.194 499.744 36.653 499.543 36.9685 499.228C37.284 498.912 37.4851 498.482 37.4851 497.994C37.485 497.507 37.2839 497.077 36.9685 496.762C36.653 496.446 36.2227 496.274 35.7351 496.274Z" fill="#EC691F"/>
<path d="M95.6788 493.521V497.049L101.673 499.63C102.246 499.888 102.763 500.261 103.25 500.748C103.709 500.261 104.254 499.888 104.827 499.63L110.821 497.049V493.521H114.608V525.7C114.608 527.794 113.059 530.146 111.138 530.978L105.143 533.559V538.98H101.358V533.559L95.3634 531.006C93.4705 530.203 91.8927 527.822 91.8927 525.729V493.521H95.6788ZM95.6212 525.443C95.6214 526.475 96.424 527.68 97.3702 528.081L101.328 529.773V527.88C101.328 526.848 100.526 525.643 99.5792 525.241L95.6212 523.549V525.443ZM106.893 525.241C105.918 525.643 105.143 526.848 105.143 527.88V529.773L109.072 528.081C110.047 527.68 110.821 526.475 110.821 525.443H110.851V523.549L106.893 525.241ZM95.6212 517.87C95.6212 518.903 96.424 520.107 97.3702 520.509L101.328 522.201V520.309C101.328 519.276 100.526 518.072 99.5792 517.67L95.6212 515.978V517.87ZM106.893 517.67C105.918 518.072 105.143 519.276 105.143 520.309V522.201L109.072 520.509C110.047 520.107 110.821 518.903 110.821 517.87H110.851V515.978L106.893 517.67ZM95.6212 510.299C95.6212 511.331 96.4239 512.536 97.3702 512.938L101.328 514.63V512.737C101.328 511.704 100.526 510.499 99.5792 510.098L95.6212 508.406V510.299ZM106.893 510.098C105.918 510.499 105.143 511.704 105.143 512.737V514.63L109.072 512.938C110.048 512.536 110.821 511.332 110.821 510.299H110.851V508.406L106.893 510.098ZM95.6212 502.728C95.6214 503.76 96.424 504.965 97.3702 505.366L101.328 507.058V505.165C101.328 504.133 100.526 502.928 99.5792 502.527L95.6212 500.834V502.728ZM106.893 502.527C105.918 502.928 105.143 504.133 105.143 505.165V507.058L109.072 505.366C110.047 504.965 110.821 503.76 110.821 502.728H110.851V500.834L106.893 502.527Z" fill="#EC691F"/>
<path d="M192.949 497.836L192.977 497.866L188.532 502.311C194.784 509.825 194.411 521.011 187.356 528.066C186.151 526.861 185.061 525.542 184.115 524.136C183.57 527.721 181.649 531.192 178.322 533.946C177.089 532.913 176.085 531.794 175.224 530.589C173.36 533.543 170.377 535.896 166.39 537.129C165.501 535.437 164.927 533.744 164.612 532.052C161.572 535.58 156.811 537.559 151.276 537.042C150.76 531.479 152.739 526.747 156.266 523.707C154.574 523.391 152.882 522.817 151.19 521.928C152.423 517.97 154.775 514.987 157.729 513.094C156.553 512.263 155.434 511.231 154.402 509.998C157.155 506.642 160.654 504.72 164.268 504.204C162.863 503.286 161.515 502.225 160.282 500.992C167.337 493.936 178.522 493.535 186.037 499.816L190.482 495.37L192.949 497.836ZM160.167 525.226C159.22 525.8 158.331 526.46 157.586 527.263C156.037 528.955 155.091 531.135 154.775 533.573C157.557 533.2 159.995 531.995 161.773 530.044V530.016C162.289 529.471 162.72 528.811 163.092 528.152C162.175 528.152 161.228 528.124 160.282 528.038C160.167 527.091 160.167 526.144 160.167 525.226ZM172.901 525.829C171.381 526.574 169.746 527.177 167.997 527.579C167.767 529.185 167.824 530.877 168.283 532.541C170.549 531.221 172.27 529.356 173.216 527.062H173.188C173.245 527.033 173.245 526.976 173.245 526.948C173.101 526.575 173.016 526.201 172.901 525.829ZM179.526 516.996C178.608 517.368 177.69 517.683 176.715 517.97C176.171 519.261 175.855 520.638 175.855 522.043C175.855 524.51 176.716 526.89 178.322 528.984L178.35 529.012C179.956 526.947 180.817 524.538 180.817 522.072C180.817 520.294 180.358 518.573 179.526 516.996ZM169.546 515.533C168.427 515.82 167.25 515.934 166.103 515.934C164.641 518.486 163.781 521.44 163.666 524.651C166.867 524.504 169.811 523.674 172.356 522.215C172.356 521.039 172.499 519.892 172.757 518.745C171.61 518.888 170.463 519.002 169.287 519.002C169.287 517.827 169.402 516.68 169.546 515.533ZM173.79 498.869C170.922 498.869 168.168 499.644 165.759 501.078C167.882 502.569 170.234 503.716 172.729 504.461L176.572 505.609L174.909 509.251C174.02 511.202 173.417 513.209 173.073 515.246C175.109 514.901 177.117 514.299 179.067 513.41L182.71 511.747L183.857 515.59C184.603 518.085 185.75 520.437 187.241 522.559C190.826 516.536 190.023 508.62 184.861 503.458C181.907 500.503 177.977 498.869 173.79 498.869ZM161.4 515.074C159.077 515.991 157.127 517.712 155.779 520.064L155.807 520.036C156.868 520.322 157.958 520.465 159.019 520.465C159.593 520.465 160.166 520.408 160.74 520.322C161.113 518.572 161.716 516.938 162.49 515.389C162.117 515.303 161.744 515.217 161.4 515.074ZM166.276 507.531C163.809 507.531 161.4 508.391 159.335 509.998C161.4 511.604 163.809 512.463 166.276 512.463C167.681 512.463 169.058 512.177 170.377 511.632C170.663 510.686 170.979 509.739 171.352 508.821C169.746 507.989 168.025 507.531 166.276 507.531Z" fill="#EC691F"/>
<path d="M251.571 526.36C254.783 526.36 256.677 528.029 258.042 529.522L258.569 530.146C259.916 531.666 260.663 532.44 262.183 532.44H264.448V537.001H262.183C258.512 537.001 256.475 534.735 255.156 533.215C253.836 531.695 253.062 530.949 251.542 530.949C250.022 530.949 249.333 531.609 247.928 533.215C246.523 534.792 244.573 537.001 240.902 537.001C237.231 537.001 235.194 534.735 233.874 533.215C232.526 531.695 231.752 530.949 230.261 530.949C228.77 530.949 228.081 531.609 226.676 533.215C225.271 534.792 223.348 537.001 219.649 537.001H217.383V532.44H219.649C221.169 532.44 221.858 531.752 223.263 530.146C224.668 528.569 226.618 526.36 230.289 526.36C233.96 526.36 235.997 528.626 237.317 530.146C238.664 531.666 239.353 532.44 240.93 532.44C242.507 532.44 243.139 531.752 244.544 530.146C245.95 528.569 247.899 526.36 251.571 526.36ZM244.199 498.855C246.178 500.92 250.796 506.141 250.796 510.701C250.796 516.38 246.379 521.025 240.93 521.025C235.481 521.025 231.064 516.408 231.064 510.701C231.064 506.141 235.681 500.892 237.66 498.855L240.93 495.5L244.199 498.855ZM240.902 502.039C240.902 502.039 235.596 507.518 235.596 510.701C235.596 513.884 237.976 516.466 240.902 516.466C243.827 516.466 246.207 513.884 246.207 510.701C246.207 507.523 240.918 502.056 240.902 502.039Z" fill="#EC691F"/>
<path d="M320.06 495.63V502.513H326.943L326.914 502.57C328.807 502.57 330.356 504.119 330.356 506.012V512.867C330.356 514.76 329.581 516.481 328.348 517.714L320.06 526.002V530.017C320.06 533.803 316.962 536.872 313.176 536.872H295.996C292.211 536.872 289.142 533.775 289.142 529.989V495.63H320.06ZM292.583 505.926V529.989C292.583 531.882 294.133 533.431 296.026 533.431H313.234C315.126 533.431 316.675 531.882 316.675 529.989V505.926H313.234V529.96H309.792V505.926H306.351V529.96H302.908V505.926H299.467V529.96H296.026V505.926H292.583ZM320.088 505.926V521.098L325.939 515.247C326.598 514.587 326.943 513.727 326.943 512.809L326.972 512.78V505.926H320.088ZM292.583 499.071V502.513H316.647V499.071H292.583Z" fill="#EC691F"/>
<path d="M383.845 495.199L385.594 500.447H380.346V503.946C384.82 508.449 391.015 512.722 397.869 512.722V516.25H394.37C394.37 523.706 395.632 530.82 397.869 537.301H385.566C382.468 534.204 380.087 530.418 378.596 526.231C377.105 530.447 374.725 534.204 371.627 537.301H359.294C361.531 530.82 362.793 523.707 362.793 516.25H359.294V512.751C366.149 512.751 372.316 508.478 376.819 503.975V495.199H383.845ZM366.322 516.25C366.322 522.244 365.547 528.095 364.027 533.774H370.078C374.438 528.956 376.847 522.789 376.847 516.25H366.322ZM380.346 516.25C380.346 522.789 382.755 528.956 387.115 533.774H393.166C391.646 528.124 390.871 522.244 390.871 516.25H380.346ZM378.596 507.13C376.617 509.08 374.151 511.088 371.312 512.722H385.881C383.07 511.059 380.604 509.051 378.596 507.13Z" fill="#EC691F"/>
<path d="M52.8717 572.163C52.8717 578.875 49.2865 584.725 43.9235 587.966L46.1891 596.226H46.1598C48.8844 596.57 51.0074 598.894 51.0074 601.704C51.0074 604.744 48.5409 607.239 45.4723 607.24C43.0633 607.24 41.0554 605.691 40.2809 603.54H24.4781L23.4742 607.24H19.6598L24.9078 587.966C19.5447 584.725 15.9596 578.875 15.9596 572.163H52.8717ZM45.5006 599.869C44.4681 599.869 43.6364 600.701 43.6364 601.704C43.6364 602.708 44.4681 603.54 45.5006 603.54C46.5044 603.54 47.3365 602.708 47.3365 601.704C47.3365 600.701 46.5331 599.869 45.5006 599.869ZM40.5104 589.543C38.5888 590.203 36.552 590.605 34.401 590.605C32.2501 590.605 30.2141 590.232 28.2926 589.543L25.4811 599.84H40.2809C40.6824 598.664 41.4853 597.66 42.5465 597L40.5104 589.543ZM20.1178 575.834C21.7813 582.201 27.5756 586.906 34.4303 586.906C41.2848 586.905 47.0778 582.201 48.7125 575.834H20.1178ZM29.0953 568.463H25.1949L27.0299 562.928H30.9313L29.0953 568.463ZM36.4664 568.463H32.566L34.4303 562.928H38.3014L36.4664 568.463ZM43.8375 568.463H39.9655L41.8004 562.928H45.7008L43.8375 568.463Z" fill="#EC691F"/>
<path d="M93.1544 568.434C95.3911 568.434 97.4559 569.094 99.2052 570.241C100.381 571.015 101.414 572.019 102.217 573.195C102.877 572.937 103.536 572.708 104.225 572.536C105.573 572.191 106.978 572.019 108.412 572.019L108.82 572.025C113.322 572.139 117.399 574.008 120.372 576.981C123.441 580.05 125.304 584.208 125.333 588.826C124.071 587.65 122.523 586.79 120.831 586.302C120.315 583.864 119.081 581.684 117.389 579.963C115.094 577.669 111.911 576.236 108.412 576.236C107.322 576.236 106.261 576.379 105.257 576.637C104.225 576.895 103.278 577.268 102.389 577.727C102.303 577.784 102.217 577.842 102.131 577.87C101.041 578.329 99.8076 577.841 99.3488 576.751C98.8325 575.518 97.9434 574.485 96.8536 573.74C95.7925 573.051 94.5017 572.621 93.1251 572.621C91.2612 572.622 89.5692 573.367 88.3361 574.6C87.1028 575.833 86.3566 577.526 86.3566 579.39C86.3566 581.254 87.1028 582.947 88.3361 584.18C89.5693 585.413 91.2611 586.159 93.1251 586.159H93.67C94.7723 586.212 95.623 587.073 95.6779 588.149V588.941C95.6779 592.44 97.1121 595.623 99.4064 597.917C101.609 600.12 104.611 601.523 107.957 601.644C107.276 600.212 106.892 598.607 106.892 596.913C106.892 593.873 108.126 591.12 110.105 589.141C112.084 587.162 114.837 585.929 117.877 585.929C120.917 585.929 123.671 587.162 125.65 589.141C127.628 591.12 128.861 593.873 128.861 596.913C128.861 599.953 127.628 602.707 125.65 604.686C123.671 606.665 120.917 607.899 117.877 607.899C115.378 607.899 113.073 607.063 111.233 605.667C110.329 605.806 109.371 605.891 108.412 605.891C103.737 605.891 99.4928 603.998 96.424 600.929C93.6419 598.147 91.8351 594.418 91.5197 590.288C89.1392 589.944 86.9881 588.826 85.382 587.191C83.403 585.212 82.1691 582.458 82.1691 579.418C82.1692 576.378 83.4031 573.625 85.382 571.646C87.3609 569.667 90.1145 568.434 93.1544 568.434ZM84.7501 589.457C86.7003 589.457 88.479 590.26 89.7697 591.55C91.0603 592.841 91.8634 594.619 91.8634 596.57C91.8634 598.52 91.0603 600.299 89.7697 601.589C88.479 602.88 86.7003 603.683 84.7501 603.683C82.8001 603.683 81.0221 602.88 79.7316 601.589C78.4409 600.299 77.6378 598.52 77.6378 596.57C77.6378 594.619 78.441 592.841 79.7316 591.55C81.0221 590.26 82.8002 589.458 84.7501 589.457ZM117.877 590.145C116.013 590.145 114.32 590.891 113.087 592.124C111.854 593.358 111.108 595.049 111.108 596.913C111.108 598.778 111.854 600.47 113.087 601.703C114.32 602.937 116.013 603.683 117.877 603.683C119.741 603.683 121.433 602.937 122.666 601.703C123.899 600.47 124.646 598.778 124.646 596.913C124.646 595.049 123.899 593.358 122.666 592.124C121.433 590.891 119.741 590.145 117.877 590.145ZM84.7501 592.296C83.5457 592.296 82.4844 592.784 81.7101 593.558C80.9358 594.332 80.4485 595.394 80.4484 596.598C80.4484 597.803 80.9357 598.865 81.7101 599.639C82.4844 600.413 83.5458 600.901 84.7501 600.901C85.9547 600.901 87.0168 600.413 87.7911 599.639C88.5655 598.865 89.0529 597.803 89.0529 596.598C89.0527 595.394 88.5654 594.332 87.7911 593.558C87.0168 592.784 85.9547 592.296 84.7501 592.296ZM104.598 562.268C105.86 562.268 106.978 562.784 107.81 563.616C108.641 564.447 109.129 565.566 109.129 566.828C109.129 568.089 108.613 569.209 107.81 570.04C106.978 570.872 105.86 571.36 104.598 571.36C103.336 571.36 102.217 570.843 101.385 570.04C100.553 569.209 100.037 568.061 100.037 566.828C100.037 565.594 100.554 564.447 101.357 563.616C102.188 562.784 103.307 562.268 104.568 562.268H104.598ZM104.568 565.107C104.081 565.107 103.651 565.308 103.364 565.595C103.049 565.91 102.877 566.34 102.877 566.828C102.877 567.315 103.078 567.745 103.364 568.061C103.68 568.376 104.11 568.577 104.568 568.578C105.027 568.578 105.486 568.376 105.802 568.061C106.117 567.745 106.318 567.315 106.318 566.828C106.318 566.34 106.117 565.91 105.802 565.595C105.486 565.28 105.056 565.107 104.568 565.107Z" fill="#EC691F"/>
<path d="M164.512 562.354V565.882L170.506 568.463C171.08 568.721 171.596 569.094 172.083 569.582C172.542 569.094 173.087 568.721 173.661 568.463L179.655 565.882V562.354H183.441V594.534C183.441 596.627 181.892 598.979 179.971 599.811L173.976 602.392V607.813H170.191V602.392L164.197 599.839C162.304 599.036 160.726 596.656 160.726 594.562V562.354H164.512ZM164.454 594.276C164.455 595.308 165.257 596.513 166.203 596.915L170.161 598.606V596.713C170.161 595.681 169.359 594.476 168.412 594.075L164.454 592.382V594.276ZM175.726 594.075C174.751 594.476 173.976 595.681 173.976 596.713V598.606L177.906 596.915C178.881 596.513 179.655 595.308 179.655 594.276H179.684V592.382L175.726 594.075ZM164.454 586.704C164.454 587.736 165.257 588.941 166.203 589.342L170.161 591.035V589.142C170.161 588.11 169.359 586.905 168.412 586.503L164.454 584.811V586.704ZM175.726 586.503C174.751 586.905 173.976 588.11 173.976 589.142V591.035L177.906 589.342C178.881 588.941 179.655 587.736 179.655 586.704H179.684V584.811L175.726 586.503ZM164.454 579.132C164.454 580.165 165.257 581.369 166.203 581.771L170.161 583.463V581.57C170.161 580.537 169.359 579.333 168.412 578.931L164.454 577.24V579.132ZM175.726 578.931C174.751 579.333 173.976 580.537 173.976 581.57V583.463L177.906 581.771C178.881 581.369 179.655 580.165 179.655 579.132H179.684V577.24L175.726 578.931ZM164.454 571.561C164.455 572.593 165.257 573.798 166.203 574.2L170.161 575.891V573.999C170.161 572.966 169.359 571.761 168.412 571.36L164.454 569.667V571.561ZM175.726 571.36C174.751 571.761 173.976 572.966 173.976 573.999V575.891L177.906 574.2C178.881 573.798 179.654 572.593 179.655 571.561H179.684V569.667L175.726 571.36Z" fill="#EC691F"/>
<path d="M261.782 566.67L261.811 566.699L257.365 571.144C263.617 578.659 263.245 589.844 256.189 596.899C254.985 595.695 253.895 594.375 252.948 592.969C252.403 596.555 250.482 600.026 247.155 602.779C245.922 601.747 244.918 600.627 244.058 599.423C242.193 602.377 239.21 604.729 235.224 605.963C234.335 604.27 233.761 602.578 233.445 600.885C230.405 604.413 225.645 606.392 220.109 605.876C219.593 600.312 221.572 595.58 225.1 592.54C223.408 592.224 221.715 591.65 220.023 590.761C221.257 586.804 223.608 583.82 226.562 581.927C225.387 581.096 224.268 580.064 223.235 578.831C225.989 575.475 229.488 573.553 233.102 573.037C231.696 572.119 230.348 571.058 229.115 569.825C236.171 562.77 247.356 562.368 254.87 568.649L259.315 564.203L261.782 566.67ZM229 594.059C228.054 594.633 227.165 595.293 226.419 596.096C224.87 597.789 223.924 599.968 223.608 602.406C226.39 602.033 228.828 600.828 230.606 598.878V598.849C231.123 598.304 231.553 597.645 231.926 596.985C231.008 596.985 230.062 596.957 229.115 596.871C229.001 595.924 229 594.977 229 594.059ZM241.734 594.662C240.214 595.408 238.58 596.01 236.83 596.412C236.601 598.018 236.657 599.71 237.116 601.374C239.382 600.054 241.103 598.19 242.05 595.895H242.021C242.078 595.867 242.078 595.81 242.078 595.781C241.935 595.408 241.849 595.035 241.734 594.662ZM248.359 585.829C247.442 586.202 246.524 586.517 245.549 586.803C245.004 588.094 244.688 589.471 244.688 590.877C244.689 593.343 245.549 595.724 247.155 597.817L247.184 597.845C248.79 595.781 249.65 593.371 249.65 590.905C249.65 589.127 249.191 587.406 248.359 585.829ZM238.379 584.366C237.26 584.653 236.084 584.767 234.937 584.767C233.474 587.319 232.614 590.273 232.499 593.484C235.7 593.337 238.644 592.507 241.189 591.049C241.189 589.873 241.333 588.725 241.591 587.578C240.444 587.721 239.296 587.836 238.12 587.836C238.12 586.66 238.236 585.513 238.379 584.366ZM242.623 567.702C239.755 567.702 237.002 568.477 234.593 569.911C236.715 571.402 239.067 572.549 241.562 573.295L245.405 574.442L243.742 578.085C242.853 580.035 242.25 582.043 241.906 584.079C243.943 583.735 245.95 583.132 247.9 582.243L251.543 580.58L252.69 584.424C253.436 586.919 254.583 589.27 256.074 591.392C259.659 585.369 258.857 577.453 253.694 572.291C250.74 569.337 246.81 567.702 242.623 567.702ZM230.233 583.907C227.91 584.825 225.96 586.546 224.612 588.897L224.641 588.869C225.702 589.156 226.791 589.299 227.853 589.299C228.426 589.299 229 589.241 229.573 589.155C229.946 587.406 230.549 585.771 231.323 584.222C230.95 584.136 230.578 584.05 230.233 583.907ZM235.109 576.364C232.643 576.364 230.233 577.225 228.168 578.831C230.233 580.437 232.643 581.297 235.109 581.297C236.514 581.297 237.891 581.01 239.21 580.466C239.497 579.519 239.813 578.572 240.186 577.654C238.58 576.822 236.859 576.364 235.109 576.364Z" fill="#EC691F"/>
<path d="M320.404 595.193C323.616 595.193 325.511 596.862 326.875 598.356L327.402 598.98C328.75 600.5 329.496 601.274 331.016 601.274H333.282V605.834H331.016C327.345 605.834 325.308 603.568 323.989 602.048C322.67 600.528 321.895 599.782 320.375 599.782C318.855 599.782 318.167 600.442 316.761 602.048C315.356 603.625 313.406 605.834 309.735 605.834C306.064 605.834 304.027 603.568 302.708 602.048C301.36 600.528 300.586 599.782 299.094 599.782C297.603 599.782 296.915 600.442 295.509 602.048C294.104 603.625 292.182 605.834 288.482 605.834H286.216V601.274H288.482C290.002 601.274 290.691 600.586 292.096 598.98C293.501 597.402 295.452 595.194 299.123 595.193C302.794 595.193 304.831 597.46 306.15 598.98C307.498 600.499 308.186 601.274 309.763 601.274C311.341 601.274 311.972 600.586 313.377 598.98C314.783 597.402 316.733 595.194 320.404 595.193ZM313.033 567.689C315.012 569.754 319.629 574.974 319.629 579.534C319.629 585.213 315.212 589.859 309.763 589.859C304.314 589.858 299.897 585.241 299.897 579.534C299.897 574.974 304.515 569.725 306.494 567.689L309.763 564.333L313.033 567.689ZM309.735 570.872C309.735 570.872 304.429 576.351 304.429 579.534C304.429 582.718 306.81 585.299 309.735 585.299C312.66 585.299 315.04 582.718 315.041 579.534C315.041 576.356 309.752 570.89 309.735 570.872Z" fill="#EC691F"/>
<path d="M388.893 564.463V571.346H395.776L395.748 571.403C397.64 571.403 399.189 572.952 399.189 574.845V581.7C399.189 583.593 398.414 585.314 397.181 586.547L388.893 594.835V598.851C388.893 602.637 385.795 605.705 382.009 605.705H364.83C361.044 605.705 357.975 602.608 357.975 598.822V564.463H388.893ZM361.417 574.759V598.822C361.417 600.715 362.966 602.264 364.859 602.264H382.067C383.96 602.264 385.508 600.715 385.508 598.822V574.759H382.067V598.793H378.625V574.759H375.184V598.793H371.742V574.759H368.3V598.793H364.859V574.759H361.417ZM388.921 574.759V589.931L394.772 584.08C395.432 583.421 395.776 582.56 395.776 581.643L395.805 581.613V574.759H388.921ZM361.417 567.904V571.346H385.48V567.904H361.417Z" fill="#EC691F"/>
<path d="M39.6785 632.865L41.4275 638.114H36.1794V641.613C40.6535 646.115 46.8484 650.389 53.7029 650.389V653.916H50.2039C50.2039 661.373 51.4659 668.486 53.7029 674.968H41.3992C38.3017 671.871 35.9208 668.085 34.4294 663.898C32.9381 668.114 30.558 671.871 27.4607 674.968H15.1277C17.3647 668.486 18.6267 661.373 18.6267 653.916H15.1277V650.417C21.9823 650.417 28.1493 646.145 32.6521 641.642V632.865H39.6785ZM22.155 653.916C22.155 659.91 21.3802 665.762 19.8601 671.441H25.9119C30.2713 666.622 32.6804 660.455 32.6804 653.916H22.155ZM36.1794 653.916C36.1794 660.455 38.5886 666.622 42.948 671.441H48.9998C47.4797 665.791 46.7048 659.91 46.7048 653.916H36.1794ZM34.4294 644.796C32.4506 646.746 29.9845 648.754 27.1453 650.389H41.7146C38.904 648.725 36.437 646.718 34.4294 644.796Z" fill="#EC691F"/>
<path d="M121.705 640.997C121.705 647.708 118.12 653.559 112.757 656.8L115.022 665.059H114.993C117.718 665.403 119.841 667.727 119.841 670.538C119.841 673.578 117.374 676.073 114.306 676.073C111.897 676.073 109.889 674.525 109.114 672.374H93.3115L92.3076 676.073H88.4932L93.7412 656.8C88.378 653.559 84.793 647.708 84.793 640.997H121.705ZM114.334 668.702C113.301 668.702 112.47 669.534 112.47 670.538C112.47 671.542 113.302 672.374 114.334 672.374C115.338 672.374 116.17 671.542 116.17 670.538C116.17 669.534 115.366 668.702 114.334 668.702ZM109.344 658.377C107.422 659.036 105.385 659.438 103.234 659.438C101.083 659.438 99.0475 659.065 97.126 658.377L94.3145 668.674H109.114C109.516 667.498 110.319 666.493 111.38 665.834L109.344 658.377ZM88.9512 644.668C90.6146 651.035 96.409 655.739 103.264 655.739C110.118 655.739 115.911 651.035 117.546 644.668H88.9512ZM97.9287 637.297H94.0283L95.8633 631.761H99.7646L97.9287 637.297ZM105.3 637.297H101.399L103.264 631.761H107.135L105.3 637.297ZM112.671 637.297H108.799L110.634 631.761H114.534L112.671 637.297Z" fill="#EC691F"/>
</g>
</svg>
