<svg xmlns="http://www.w3.org/2000/svg" width="412" height="689" fill="none" viewBox="0 0 412 689"><path fill="#EC691F" d="M24.321 17.768a10.96 10.96 0 0 1 9.062 4.76 16 16 0 0 1 2.008-.659 17 17 0 0 1 4.188-.517l.408.006a16.9 16.9 0 0 1 11.552 4.956c3.069 3.07 4.932 7.228 4.96 11.845a11.1 11.1 0 0 0-4.501-2.523c-.516-2.438-1.75-4.618-3.443-6.34a12.68 12.68 0 0 0-8.976-3.727c-1.09 0-2.152.143-3.155.402-1.033.258-1.98.63-2.869 1.09a1.2 1.2 0 0 1-.257.143 2.106 2.106 0 0 1-2.783-1.12c-.516-1.232-1.405-2.265-2.495-3.01a6.87 6.87 0 0 0-3.728-1.119 6.74 6.74 0 0 0-4.79 1.979 6.74 6.74 0 0 0-1.979 4.79c0 1.864.746 3.556 1.98 4.79a6.74 6.74 0 0 0 4.789 1.978h.545a2.095 2.095 0 0 1 2.008 1.99v.792c0 3.5 1.434 6.682 3.728 8.977a12.7 12.7 0 0 0 8.55 3.727 11 11 0 0 1-1.065-4.731 10.97 10.97 0 0 1 10.986-10.984 10.97 10.97 0 0 1 10.984 10.984 10.97 10.97 0 0 1-10.984 10.985c-2.5 0-4.804-.835-6.645-2.231a19 19 0 0 1-2.82.224c-4.675 0-8.92-1.894-11.988-4.962a16.84 16.84 0 0 1-4.905-10.641 10.78 10.78 0 0 1-6.137-3.098 10.97 10.97 0 0 1-3.213-7.772A10.97 10.97 0 0 1 24.32 17.768M15.917 38.79c1.95 0 3.729.802 5.02 2.093a7.1 7.1 0 0 1 2.093 5.02 7.1 7.1 0 0 1-2.094 5.019 7.1 7.1 0 0 1-5.02 2.093 7.1 7.1 0 0 1-5.018-2.093 7.1 7.1 0 0 1-2.094-5.02c0-1.95.804-3.729 2.094-5.02a7.1 7.1 0 0 1 5.019-2.092m33.127.688a6.74 6.74 0 0 0-4.79 1.979 6.74 6.74 0 0 0-1.98 4.789 6.74 6.74 0 0 0 1.98 4.79 6.74 6.74 0 0 0 4.79 1.98 6.74 6.74 0 0 0 4.789-1.98 6.74 6.74 0 0 0 1.98-4.79 6.74 6.74 0 0 0-1.98-4.79 6.74 6.74 0 0 0-4.79-1.979m-33.127 2.15a4.27 4.27 0 0 0-3.04 1.263 4.27 4.27 0 0 0-1.262 3.04c0 1.204.487 2.266 1.262 3.04a4.27 4.27 0 0 0 3.04 1.262 4.27 4.27 0 0 0 3.04-1.261 4.27 4.27 0 0 0 1.262-3.041 4.27 4.27 0 0 0-1.261-3.04 4.27 4.27 0 0 0-3.041-1.262m19.847-30.027c1.262 0 2.38.515 3.212 1.347a4.48 4.48 0 0 1 1.32 3.212c0 1.262-.517 2.381-1.32 3.213a4.48 4.48 0 0 1-3.212 1.32c-1.262 0-2.38-.517-3.213-1.32a4.56 4.56 0 0 1-1.347-3.213c0-1.233.516-2.38 1.32-3.212a4.5 4.5 0 0 1 3.211-1.348zm-.029 2.838a1.7 1.7 0 0 0-1.204.489c-.315.315-.487.745-.487 1.232 0 .488.2.918.487 1.233.315.316.745.517 1.204.517s.918-.201 1.233-.517a1.733 1.733 0 0 0 0-2.466c-.315-.315-.745-.488-1.233-.488m59.945-2.752v3.529l5.994 2.58a5.3 5.3 0 0 1 1.577 1.119 5 5 0 0 1 1.577-1.118l5.994-2.581v-3.529h3.787v32.18c0 2.094-1.549 4.446-3.47 5.278l-5.995 2.58v5.421h-3.785v-5.42l-5.995-2.553c-1.892-.803-3.47-3.184-3.47-5.278V11.687zM95.62 43.61c0 1.033.803 2.237 1.75 2.639l3.957 1.691v-1.892c0-1.033-.802-2.237-1.749-2.639l-3.958-1.692zm11.272-.2c-.975.4-1.75 1.605-1.75 2.638v1.892l3.929-1.691c.975-.401 1.749-1.606 1.749-2.639h.03v-1.893zM95.62 36.038c0 1.032.803 2.237 1.75 2.639l3.957 1.692v-1.893c0-1.032-.802-2.236-1.749-2.638l-3.958-1.693zm11.272-.2c-.975.401-1.75 1.606-1.75 2.638v1.893l3.929-1.692c.975-.402 1.749-1.607 1.749-2.639h.03v-1.892zM95.62 28.467c0 1.032.803 2.237 1.75 2.638l3.957 1.693v-1.894c0-1.032-.802-2.237-1.749-2.638l-3.958-1.692zm11.272-.201c-.975.401-1.75 1.606-1.75 2.638v1.894l3.929-1.693c.976-.401 1.749-1.606 1.749-2.638h.03v-1.893zm-11.272-7.37c0 1.032.803 2.237 1.75 2.638l3.957 1.691v-1.892c0-1.033-.802-2.237-1.749-2.639l-3.958-1.692zm11.272-.202c-.975.402-1.75 1.606-1.75 2.639v1.892l3.929-1.69c.975-.402 1.749-1.607 1.749-2.64h.03v-1.893zm86.057-4.691.028.03-4.445 4.445c6.252 7.514 5.879 18.7-1.176 25.755a26.5 26.5 0 0 1-3.241-3.93c-.545 3.585-2.466 7.056-5.793 9.81a18 18 0 0 1-3.098-3.357c-1.864 2.954-4.847 5.307-8.834 6.54a17.9 17.9 0 0 1-1.778-5.077c-3.04 3.528-7.801 5.506-13.336 4.99-.516-5.564 1.463-10.296 4.99-13.336a17.9 17.9 0 0 1-5.076-1.778c1.233-3.958 3.585-6.941 6.539-8.834a17.6 17.6 0 0 1-3.327-3.097c2.753-3.355 6.252-5.277 9.866-5.794a24.8 24.8 0 0 1-3.986-3.212c7.055-7.055 18.24-7.456 25.755-1.175l4.445-4.447zm-32.782 27.39c-.947.574-1.836 1.234-2.581 2.037-1.549 1.692-2.495 3.872-2.811 6.31 2.782-.373 5.22-1.579 6.998-3.529v-.028c.516-.545.947-1.205 1.319-1.864-.917 0-1.864-.029-2.81-.115-.115-.946-.115-1.893-.115-2.811m12.734.602a22.6 22.6 0 0 1-4.904 1.75c-.23 1.607-.173 3.299.286 4.962 2.266-1.319 3.987-3.184 4.933-5.478h-.028c.057-.029.057-.086.057-.114-.144-.373-.229-.747-.344-1.12m6.625-8.833c-.918.373-1.836.688-2.811.975-.544 1.29-.86 2.668-.86 4.073 0 2.467.861 4.847 2.467 6.94l.028.029c1.606-2.065 2.467-4.474 2.467-6.94 0-1.778-.459-3.5-1.291-5.077m-9.98-1.462c-1.119.286-2.296.4-3.443.4-1.462 2.553-2.322 5.506-2.437 8.718 3.201-.147 6.145-.977 8.69-2.436 0-1.176.143-2.323.401-3.47-1.147.143-2.294.257-3.47.257 0-1.175.115-2.322.259-3.47m4.244-16.665c-2.868 0-5.622.776-8.031 2.21a24.2 24.2 0 0 0 6.97 3.383l3.843 1.148-1.663 3.642a24 24 0 0 0-1.836 5.994 24 24 0 0 0 5.994-1.835l3.643-1.664 1.147 3.844a24.2 24.2 0 0 0 3.384 6.969c3.585-6.023 2.782-13.94-2.38-19.102a15.56 15.56 0 0 0-11.071-4.588M161.4 33.24c-2.323.918-4.273 2.64-5.621 4.99l.028-.027a12.4 12.4 0 0 0 3.212.43c.574 0 1.147-.058 1.721-.144.373-1.75.976-3.384 1.75-4.933-.373-.086-.746-.172-1.09-.316m4.876-7.542c-2.467 0-4.876.86-6.941 2.466 2.065 1.606 4.474 2.466 6.941 2.466 1.405 0 2.782-.286 4.101-.83.286-.947.602-1.895.975-2.812-1.606-.832-3.327-1.29-5.076-1.29m85.295 18.829c3.212 0 5.106 1.669 6.471 3.162l.527.624c1.347 1.52 2.094 2.294 3.614 2.294h2.265v4.56h-2.265c-3.671 0-5.708-2.265-7.027-3.785-1.32-1.52-2.094-2.266-3.614-2.266s-2.209.66-3.614 2.266c-1.405 1.577-3.355 3.786-7.026 3.786s-5.708-2.266-7.028-3.786c-1.348-1.52-2.122-2.266-3.613-2.266s-2.18.66-3.585 2.266c-1.405 1.577-3.328 3.786-7.027 3.786h-2.266v-4.56h2.266c1.52 0 2.209-.689 3.614-2.295 1.405-1.577 3.355-3.786 7.026-3.786s5.708 2.266 7.028 3.786c1.347 1.52 2.036 2.294 3.613 2.294s2.209-.688 3.614-2.294c1.406-1.577 3.355-3.786 7.027-3.786m-7.372-27.505c1.979 2.065 6.597 7.286 6.597 11.846 0 5.678-4.417 10.324-9.866 10.324s-9.866-4.617-9.866-10.324c0-4.56 4.617-9.81 6.596-11.846l3.27-3.355zm-3.297 3.184s-5.306 5.478-5.306 8.662c0 3.183 2.38 5.765 5.306 5.765 2.925 0 5.305-2.582 5.305-5.765 0-3.179-5.289-8.645-5.305-8.662m79.158-6.409v6.882h6.883l-.029.058a3.45 3.45 0 0 1 3.442 3.441v6.856a6.85 6.85 0 0 1-2.008 4.846l-8.288 8.289v4.015c0 3.786-3.098 6.855-6.884 6.855h-17.18c-3.785 0-6.854-3.098-6.854-6.883v-34.36zm-27.477 10.295v24.064a3.453 3.453 0 0 0 3.443 3.441h17.208a3.45 3.45 0 0 0 3.441-3.441V24.092h-3.441v24.035h-3.442V24.092h-3.441v24.035h-3.443V24.092h-3.441v24.035h-3.441V24.092zm27.505 0v15.172l5.851-5.85a3.4 3.4 0 0 0 1.004-2.438l.029-.03v-6.854zm-27.505-6.854v3.441h24.064v-3.441zm91.262-3.872 1.749 5.248h-5.248v3.499c4.474 4.502 10.669 8.776 17.523 8.776v3.527h-3.499c0 7.457 1.262 14.57 3.499 21.052h-12.303a29.76 29.76 0 0 1-6.97-11.07 29.5 29.5 0 0 1-6.969 11.07h-12.333c2.237-6.482 3.499-13.595 3.499-21.052h-3.499v-3.499c6.855 0 13.022-4.272 17.525-8.775v-8.776zm-17.523 21.05a67.6 67.6 0 0 1-2.295 17.525h6.051c4.36-4.818 6.769-10.986 6.769-17.525zm14.024 0c0 6.54 2.409 12.707 6.769 17.525h6.051a67.4 67.4 0 0 1-2.295-17.525zm-1.75-9.12c-1.979 1.95-4.445 3.958-7.284 5.593h14.569c-2.811-1.663-5.277-3.671-7.285-5.593M52.872 90.33c0 6.711-3.586 12.562-8.949 15.803l2.266 8.26h-.03c2.725.344 4.848 2.668 4.848 5.478a5.54 5.54 0 0 1-5.535 5.535c-2.409 0-4.417-1.548-5.191-3.699H24.478l-1.004 3.699H19.66l5.248-19.273c-5.363-3.241-8.948-9.091-8.948-15.803zM45.5 118.035c-1.033 0-1.865.833-1.865 1.836s.832 1.836 1.865 1.836a1.85 1.85 0 0 0 1.836-1.836 1.83 1.83 0 0 0-1.836-1.836m-4.99-10.325c-1.922.66-3.959 1.062-6.11 1.062a18 18 0 0 1-6.108-1.062l-2.812 10.297h14.8a5.4 5.4 0 0 1 2.266-2.84zM20.117 94.001c1.663 6.367 7.458 11.072 14.312 11.072 6.855-.001 12.648-4.705 14.282-11.072zm8.977-7.37h-3.9l1.835-5.536h3.901zm7.371 0h-3.9l1.864-5.536H38.3zm7.371 0h-3.872l1.835-5.536h3.9zm49.318-.031a10.96 10.96 0 0 1 9.063 4.762c.66-.259 1.319-.487 2.008-.66a17 17 0 0 1 4.187-.516l.408.006a16.9 16.9 0 0 1 11.552 4.956c3.069 3.068 4.932 7.227 4.961 11.844a11.1 11.1 0 0 0-4.502-2.523c-.516-2.438-1.75-4.618-3.442-6.339a12.7 12.7 0 0 0-8.977-3.727c-1.09 0-2.151.143-3.155.401a13.2 13.2 0 0 0-2.868 1.09c-.086.057-.172.115-.258.143a2.106 2.106 0 0 1-2.782-1.119c-.517-1.233-1.406-2.266-2.495-3.012a6.87 6.87 0 0 0-3.729-1.118 6.74 6.74 0 0 0-4.789 1.979 6.74 6.74 0 0 0-1.98 4.79c0 1.864.747 3.557 1.98 4.79a6.74 6.74 0 0 0 4.79 1.978h.544a2.096 2.096 0 0 1 2.008 1.991v.792a12.68 12.68 0 0 0 3.728 8.976 12.7 12.7 0 0 0 8.551 3.727 11 11 0 0 1-1.065-4.731 10.967 10.967 0 0 1 10.985-10.984 10.97 10.97 0 0 1 10.984 10.984 10.97 10.97 0 0 1-10.984 10.986c-2.499 0-4.804-.836-6.644-2.232-.904.139-1.862.224-2.821.224-4.675 0-8.92-1.893-11.988-4.962a16.84 16.84 0 0 1-4.904-10.641 10.78 10.78 0 0 1-6.138-3.097 10.97 10.97 0 0 1-3.213-7.773 10.97 10.97 0 0 1 10.985-10.984m-8.404 21.024c1.95 0 3.729.803 5.02 2.093a7.1 7.1 0 0 1 2.093 5.02c0 1.95-.803 3.728-2.093 5.019a7.1 7.1 0 0 1-5.02 2.094 7.1 7.1 0 0 1-5.018-2.094 7.1 7.1 0 0 1-2.094-5.019c0-1.951.803-3.729 2.094-5.02a7.1 7.1 0 0 1 5.018-2.093m33.127.688a6.74 6.74 0 0 0-4.79 1.979 6.74 6.74 0 0 0-1.979 4.789c0 1.865.746 3.557 1.979 4.79a6.74 6.74 0 0 0 4.79 1.98 6.74 6.74 0 0 0 4.789-1.98 6.74 6.74 0 0 0 1.98-4.79 6.74 6.74 0 0 0-1.98-4.789 6.74 6.74 0 0 0-4.789-1.979m-33.127 2.151a4.27 4.27 0 0 0-3.04 1.262 4.26 4.26 0 0 0-1.262 3.04 4.27 4.27 0 0 0 1.262 3.041 4.27 4.27 0 0 0 3.04 1.262 4.27 4.27 0 0 0 3.041-1.262 4.27 4.27 0 0 0 1.262-3.041 4.27 4.27 0 0 0-1.262-3.04 4.27 4.27 0 0 0-3.04-1.262m19.848-30.028c1.262 0 2.38.516 3.212 1.347a4.5 4.5 0 0 1 1.319 3.212c0 1.262-.516 2.382-1.319 3.213a4.48 4.48 0 0 1-3.212 1.32c-1.262 0-2.381-.517-3.213-1.32a4.56 4.56 0 0 1-1.348-3.213c0-1.233.517-2.38 1.32-3.212a4.5 4.5 0 0 1 3.211-1.347zm-.03 2.839a1.7 1.7 0 0 0-1.204.488c-.315.315-.487.745-.487 1.232 0 .488.201.918.487 1.234a1.72 1.72 0 0 0 1.204.516c.459 0 .918-.2 1.234-.516s.516-.746.516-1.234a1.71 1.71 0 0 0-1.75-1.72m59.943-2.755v3.53l5.994 2.58c.574.258 1.09.63 1.577 1.118a5 5 0 0 1 1.578-1.118l5.994-2.58v-3.53h3.786v32.18c0 2.094-1.549 4.446-3.47 5.278l-5.995 2.581v5.421h-3.785v-5.421l-5.994-2.553c-1.893-.803-3.471-3.184-3.471-5.277V80.521zm-.058 31.923c.001 1.032.803 2.237 1.749 2.638l3.958 1.692v-1.893c0-1.032-.802-2.237-1.749-2.639l-3.958-1.692zm11.272-.202c-.975.402-1.75 1.607-1.75 2.639v1.893l3.93-1.692c.975-.401 1.749-1.606 1.749-2.638h.029v-1.894zm-11.272-7.371c0 1.033.803 2.237 1.749 2.639l3.958 1.692v-1.892c0-1.033-.802-2.237-1.749-2.639l-3.958-1.692zm11.272-.2c-.975.402-1.75 1.606-1.75 2.639v1.892l3.93-1.692c.975-.402 1.749-1.606 1.749-2.639h.029v-1.892zm-11.272-7.37c0 1.031.803 2.236 1.749 2.638l3.958 1.692v-1.893c0-1.033-.802-2.238-1.749-2.64l-3.958-1.69zm11.272-.202c-.975.401-1.75 1.606-1.75 2.639v1.893l3.93-1.692c.975-.402 1.749-1.606 1.749-2.639h.029v-1.893zm-11.272-7.37c.001 1.032.803 2.237 1.749 2.639l3.958 1.69v-1.892c0-1.032-.802-2.237-1.749-2.638l-3.958-1.693zm11.272-.201c-.975.401-1.75 1.606-1.75 2.638v1.893l3.93-1.692c.975-.401 1.748-1.606 1.749-2.638h.029v-1.894zm86.056-4.69.029.029-4.446 4.445c6.252 7.514 5.88 18.7-1.176 25.755a26.6 26.6 0 0 1-3.241-3.93c-.545 3.585-2.466 7.057-5.793 9.81a18 18 0 0 1-3.097-3.357c-1.865 2.955-4.848 5.307-8.834 6.541a18 18 0 0 1-1.779-5.078c-3.04 3.528-7.8 5.507-13.336 4.991-.516-5.564 1.463-10.296 4.991-13.336a18 18 0 0 1-5.077-1.779c1.234-3.957 3.585-6.941 6.539-8.834a17.7 17.7 0 0 1-3.327-3.096c2.754-3.356 6.253-5.278 9.867-5.794a24.7 24.7 0 0 1-3.987-3.212c7.056-7.056 18.241-7.457 25.755-1.176l4.445-4.446zM229 112.226c-.946.574-1.835 1.234-2.581 2.037-1.549 1.692-2.495 3.872-2.811 6.31 2.782-.373 5.22-1.578 6.998-3.528v-.029c.517-.545.947-1.204 1.32-1.864-.918 0-1.864-.028-2.811-.114-.114-.947-.115-1.894-.115-2.812m12.734.603a22.6 22.6 0 0 1-4.904 1.75c-.229 1.606-.173 3.298.286 4.962 2.266-1.32 3.987-3.184 4.934-5.479h-.029c.057-.028.057-.085.057-.114-.143-.373-.229-.746-.344-1.119m6.625-8.833c-.917.373-1.835.688-2.81.974-.545 1.291-.861 2.668-.861 4.074.001 2.466.861 4.846 2.467 6.94l.029.028c1.606-2.065 2.466-4.474 2.466-6.94 0-1.778-.459-3.499-1.291-5.076m-9.98-1.463c-1.119.287-2.295.401-3.442.401-1.463 2.552-2.323 5.506-2.438 8.717 3.201-.147 6.145-.977 8.69-2.436 0-1.175.144-2.323.402-3.47-1.147.143-2.295.258-3.471.258 0-1.176.116-2.323.259-3.47m4.244-16.664a15.65 15.65 0 0 0-8.03 2.209 24.2 24.2 0 0 0 6.969 3.383l3.843 1.148-1.663 3.643a24 24 0 0 0-1.836 5.994 24 24 0 0 0 5.994-1.836l3.643-1.663 1.147 3.843a24.2 24.2 0 0 0 3.384 6.969c3.585-6.023 2.783-13.939-2.38-19.101a15.56 15.56 0 0 0-11.071-4.59m-12.39 16.205c-2.323.918-4.273 2.638-5.621 4.99l.029-.028c1.061.287 2.15.429 3.212.429.573 0 1.147-.057 1.72-.143.373-1.75.976-3.384 1.75-4.933-.373-.086-.745-.172-1.09-.315m4.876-7.543c-2.466 0-4.876.86-6.941 2.467 2.065 1.606 4.475 2.465 6.941 2.465 1.405 0 2.782-.286 4.101-.83.287-.947.603-1.894.976-2.812-1.606-.832-3.327-1.29-5.077-1.29m85.295 18.83c3.212 0 5.107 1.669 6.471 3.162l.527.624c1.348 1.52 2.094 2.294 3.614 2.294h2.266v4.561h-2.266c-3.671 0-5.708-2.266-7.027-3.786s-2.094-2.266-3.614-2.266-2.208.66-3.614 2.266c-1.405 1.577-3.355 3.786-7.026 3.786s-5.708-2.266-7.027-3.786c-1.348-1.52-2.122-2.266-3.614-2.266s-2.179.66-3.585 2.266c-1.405 1.577-3.327 3.786-7.027 3.786h-2.266v-4.561h2.266c1.52 0 2.209-.688 3.614-2.294 1.405-1.577 3.356-3.786 7.027-3.786s5.708 2.266 7.027 3.786c1.348 1.52 2.036 2.294 3.613 2.294 1.578 0 2.209-.687 3.614-2.294 1.406-1.577 3.356-3.786 7.027-3.786m-7.371-27.504c1.979 2.065 6.596 7.285 6.596 11.845 0 5.679-4.417 10.324-9.866 10.324s-9.866-4.617-9.866-10.324c0-4.56 4.618-9.81 6.597-11.845l3.269-3.356zm-3.298 3.183s-5.306 5.479-5.306 8.662 2.381 5.765 5.306 5.765 5.305-2.582 5.306-5.765c0-3.178-5.289-8.645-5.306-8.662m79.158-6.409v6.883h6.883l-.028.057a3.45 3.45 0 0 1 3.441 3.442v6.855a6.85 6.85 0 0 1-2.008 4.847l-8.288 8.288v4.016c0 3.785-3.098 6.854-6.884 6.854H364.83c-3.786 0-6.855-3.097-6.855-6.883v-34.36zm-27.476 10.296v24.063a3.45 3.45 0 0 0 3.442 3.442h17.208a3.45 3.45 0 0 0 3.441-3.442V92.926h-3.441v24.034h-3.442V92.926h-3.441v24.034h-3.442V92.926H368.3v24.034h-3.441V92.926zm27.504 0v15.172l5.851-5.851a3.4 3.4 0 0 0 1.004-2.437l.029-.03v-6.854zm-27.504-6.855v3.442h24.063V86.07zM39.679 151.032l1.749 5.248h-5.249v3.499c4.474 4.503 10.67 8.777 17.524 8.777v3.527h-3.5c0 7.457 1.263 14.57 3.5 21.052H41.399a29.8 29.8 0 0 1-6.97-11.071 29.55 29.55 0 0 1-6.968 11.071H15.128c2.237-6.482 3.499-13.595 3.499-21.052h-3.5v-3.499c6.855 0 13.022-4.273 17.525-8.775v-8.777zm-17.524 21.051c0 5.994-.775 11.846-2.295 17.524h6.052c4.36-4.818 6.768-10.985 6.768-17.524zm14.024 0c0 6.539 2.41 12.706 6.769 17.524H49a67.4 67.4 0 0 1-2.295-17.524zm-1.75-9.12c-1.978 1.95-4.445 3.958-7.284 5.593h14.57c-2.811-1.664-5.278-3.672-7.286-5.593m87.276-3.799c0 6.711-3.585 12.561-8.948 15.802l2.265 8.26h-.029c2.725.344 4.848 2.668 4.848 5.479a5.54 5.54 0 0 1-5.535 5.535c-2.409 0-4.417-1.549-5.192-3.699H93.311l-1.003 3.699h-3.815l5.248-19.274c-5.363-3.241-8.948-9.091-8.948-15.802zm-7.371 27.705c-1.033 0-1.864.832-1.864 1.836 0 1.003.832 1.836 1.864 1.836a1.85 1.85 0 0 0 1.836-1.836 1.83 1.83 0 0 0-1.836-1.836m-4.99-10.326c-1.922.66-3.959 1.062-6.11 1.062s-4.186-.373-6.108-1.062l-2.812 10.297h14.8a5.4 5.4 0 0 1 2.266-2.84zm-20.393-13.709c1.664 6.368 7.458 11.072 14.313 11.072 6.854 0 12.647-4.705 14.282-11.072zm8.978-7.371h-3.9l1.834-5.535h3.902zm7.371 0h-3.901l1.865-5.535h3.871zm7.371 0h-3.872l1.835-5.535h3.9zm49.317-.029a10.96 10.96 0 0 1 9.062 4.761c.66-.258 1.32-.487 2.008-.659a17 17 0 0 1 4.187-.517l.409.006a16.9 16.9 0 0 1 11.551 4.956c3.069 3.069 4.933 7.227 4.961 11.845a11.1 11.1 0 0 0-4.502-2.524c-.516-2.438-1.75-4.618-3.442-6.339a12.68 12.68 0 0 0-8.977-3.727c-1.089 0-2.151.143-3.155.401a13.2 13.2 0 0 0-2.868 1.09c-.086.057-.172.115-.258.144a2.107 2.107 0 0 1-2.782-1.12c-.516-1.233-1.405-2.266-2.495-3.011a6.9 6.9 0 0 0-3.729-1.118 6.74 6.74 0 0 0-4.789 1.978 6.74 6.74 0 0 0-1.979 4.79c0 1.864.746 3.557 1.979 4.79a6.74 6.74 0 0 0 4.789 1.979h.545a2.094 2.094 0 0 1 2.008 1.99v.792c0 3.499 1.434 6.682 3.729 8.976a12.7 12.7 0 0 0 8.55 3.727 11 11 0 0 1-1.065-4.73 10.97 10.97 0 0 1 10.985-10.985 10.97 10.97 0 0 1 10.985 10.985 10.97 10.97 0 0 1-10.985 10.985c-2.499 0-4.804-.835-6.644-2.232-.904.139-1.862.224-2.821.224a16.9 16.9 0 0 1-11.988-4.962 16.84 16.84 0 0 1-4.904-10.64 10.78 10.78 0 0 1-6.138-3.098 10.97 10.97 0 0 1-3.213-7.773 10.967 10.967 0 0 1 10.986-10.984m-8.405 21.024c1.951 0 3.729.802 5.02 2.092a7.1 7.1 0 0 1 2.094 5.02 7.1 7.1 0 0 1-2.094 5.019 7.1 7.1 0 0 1-5.02 2.094 7.1 7.1 0 0 1-5.018-2.094 7.1 7.1 0 0 1-2.094-5.019c0-1.95.803-3.729 2.094-5.02a7.1 7.1 0 0 1 5.018-2.092m33.127.687a6.74 6.74 0 0 0-4.79 1.98 6.74 6.74 0 0 0-1.979 4.789c0 1.864.746 3.556 1.979 4.79a6.75 6.75 0 0 0 4.79 1.979 6.74 6.74 0 0 0 4.789-1.979 6.74 6.74 0 0 0 1.98-4.79 6.74 6.74 0 0 0-1.98-4.789 6.74 6.74 0 0 0-4.789-1.98m-33.127 2.151a4.27 4.27 0 0 0-3.04 1.262 4.27 4.27 0 0 0-1.261 3.04c0 1.205.487 2.267 1.261 3.041a4.27 4.27 0 0 0 3.04 1.262 4.26 4.26 0 0 0 3.041-1.262 4.26 4.26 0 0 0 1.262-3.041 4.26 4.26 0 0 0-1.262-3.04 4.27 4.27 0 0 0-3.041-1.262m19.848-30.028c1.262 0 2.38.516 3.212 1.348a4.48 4.48 0 0 1 1.319 3.212c0 1.262-.516 2.381-1.319 3.213a4.5 4.5 0 0 1-3.212 1.319c-1.262 0-2.381-.516-3.213-1.319a4.56 4.56 0 0 1-1.348-3.213 4.66 4.66 0 0 1 1.32-3.212 4.5 4.5 0 0 1 3.212-1.348zm-.029 2.839c-.488 0-.918.201-1.204.488-.316.316-.488.745-.488 1.233 0 .487.201.918.488 1.233.315.315.745.517 1.204.517s.918-.201 1.233-.517a1.73 1.73 0 0 0 0-2.466 1.7 1.7 0 0 0-1.233-.488m59.943-2.753v3.528l5.995 2.582c.573.258 1.089.63 1.577 1.118a5 5 0 0 1 1.577-1.118l5.994-2.582v-3.528h3.786v32.18c0 2.093-1.548 4.445-3.47 5.277l-5.995 2.581v5.421h-3.785v-5.421l-5.994-2.553c-1.893-.803-3.471-3.183-3.471-5.277v-32.208zm-.057 31.922c0 1.032.803 2.237 1.749 2.639l3.958 1.691v-1.892c0-1.033-.803-2.238-1.749-2.639l-3.958-1.693zm11.271-.201c-.975.401-1.75 1.606-1.75 2.639v1.892l3.93-1.691c.975-.402 1.749-1.607 1.749-2.639h.029v-1.894zm-11.271-7.371c0 1.032.803 2.237 1.749 2.638l3.958 1.693v-1.893c0-1.032-.803-2.237-1.749-2.638l-3.958-1.693zm11.271-.2c-.975.401-1.75 1.606-1.75 2.638v1.893l3.93-1.693c.975-.401 1.749-1.606 1.749-2.638h.029v-1.893zm-11.271-7.372c0 1.033.803 2.237 1.749 2.639l3.958 1.693v-1.894c0-1.032-.803-2.237-1.749-2.639l-3.958-1.691zm11.271-.201c-.975.402-1.75 1.607-1.75 2.639v1.894l3.93-1.693c.975-.401 1.749-1.606 1.749-2.639h.029v-1.892zm-11.271-7.37c0 1.032.803 2.237 1.749 2.639l3.958 1.691v-1.892c0-1.033-.803-2.237-1.749-2.639l-3.958-1.692zm11.271-.201c-.975.402-1.75 1.606-1.75 2.639v1.892l3.93-1.691c.975-.402 1.749-1.606 1.749-2.639h.029v-1.893zm86.056-4.69.029.029-4.446 4.445c6.253 7.515 5.88 18.7-1.175 25.755a26.5 26.5 0 0 1-3.242-3.929c-.544 3.585-2.466 7.056-5.792 9.809a17.8 17.8 0 0 1-3.098-3.356c-1.864 2.954-4.848 5.307-8.834 6.54a17.9 17.9 0 0 1-1.778-5.077c-3.041 3.527-7.801 5.506-13.336 4.99-.516-5.564 1.462-10.296 4.99-13.336a18 18 0 0 1-5.076-1.778c1.233-3.958 3.585-6.941 6.539-8.834a17.7 17.7 0 0 1-3.327-3.097c2.753-3.356 6.252-5.278 9.866-5.794a25 25 0 0 1-3.987-3.212c7.056-7.055 18.241-7.457 25.755-1.176l4.446-4.446zm-32.782 27.389c-.946.574-1.835 1.235-2.581 2.038-1.548 1.692-2.495 3.871-2.81 6.309 2.782-.373 5.22-1.578 6.998-3.528v-.029c.516-.544.946-1.204 1.319-1.864-.918 0-1.864-.028-2.811-.114-.114-.946-.115-1.894-.115-2.812m12.735.603a22.6 22.6 0 0 1-4.905 1.75c-.229 1.606-.172 3.299.286 4.962 2.266-1.319 3.988-3.184 4.934-5.479h-.028c.056-.028.056-.085.056-.114-.143-.373-.229-.746-.343-1.119m6.625-8.833c-.918.373-1.836.688-2.811.975-.545 1.29-.86 2.667-.86 4.073 0 2.466.861 4.847 2.467 6.94l.028.029c1.606-2.065 2.467-4.474 2.467-6.941 0-1.778-.46-3.499-1.291-5.076m-9.981-1.463c-1.118.287-2.295.401-3.442.401-1.463 2.552-2.323 5.506-2.438 8.717 3.201-.147 6.146-.977 8.691-2.435 0-1.176.143-2.324.401-3.471-1.147.143-2.295.258-3.471.258 0-1.176.116-2.323.259-3.47m4.244-16.664a15.65 15.65 0 0 0-8.03 2.209 24.2 24.2 0 0 0 6.97 3.384l3.843 1.147-1.664 3.643a24 24 0 0 0-1.835 5.994 24 24 0 0 0 5.994-1.836l3.642-1.663 1.148 3.844a24.1 24.1 0 0 0 3.383 6.968c3.586-6.022 2.783-13.939-2.379-19.101a15.56 15.56 0 0 0-11.072-4.589m-12.389 16.205c-2.323.918-4.273 2.639-5.621 4.99l.028-.028c1.061.287 2.151.43 3.212.43.573 0 1.147-.058 1.72-.144a20.6 20.6 0 0 1 1.75-4.932c-.372-.086-.745-.173-1.089-.316m4.876-7.543c-2.467 0-4.877.861-6.942 2.467 2.065 1.606 4.475 2.466 6.942 2.466 1.405 0 2.781-.287 4.1-.831.287-.947.603-1.894.976-2.812-1.606-.831-3.327-1.29-5.076-1.29m85.294 18.83c3.212 0 5.107 1.669 6.472 3.162l.526.624c1.348 1.52 2.094 2.294 3.614 2.294h2.266v4.56h-2.266c-3.671 0-5.708-2.266-7.027-3.786s-2.093-2.265-3.613-2.266-2.209.66-3.615 2.266c-1.405 1.577-3.355 3.786-7.026 3.786s-5.708-2.266-7.027-3.786c-1.348-1.52-2.122-2.266-3.614-2.266s-2.179.66-3.584 2.266c-1.406 1.578-3.328 3.786-7.028 3.786h-2.265v-4.56h2.265c1.52 0 2.209-.688 3.614-2.294 1.406-1.578 3.356-3.786 7.027-3.786s5.708 2.266 7.027 3.786c1.348 1.52 2.036 2.294 3.613 2.294 1.578 0 2.209-.688 3.615-2.294 1.405-1.578 3.355-3.786 7.026-3.786m-7.371-27.505c1.979 2.065 6.597 7.285 6.597 11.845-.001 5.679-4.417 10.325-9.867 10.325-5.449 0-9.866-4.617-9.866-10.325 0-4.56 4.618-9.809 6.597-11.845l3.269-3.356zm-3.298 3.183s-5.306 5.479-5.306 8.662c.001 3.184 2.381 5.765 5.306 5.765s5.306-2.581 5.306-5.765c0-3.178-5.289-8.644-5.306-8.662M44.727 220.297v6.882h6.882l-.028.058a3.45 3.45 0 0 1 3.441 3.441v6.856a6.85 6.85 0 0 1-2.007 4.846l-8.288 8.289v4.015c0 3.786-3.098 6.855-6.884 6.855h-17.18c-3.785 0-6.854-3.098-6.854-6.883v-34.359zM17.25 230.592v24.064a3.45 3.45 0 0 0 3.442 3.441H37.9a3.45 3.45 0 0 0 3.442-3.441v-24.064H37.9v24.035h-3.44v-24.035h-3.441v24.035h-3.443v-24.035h-3.441v24.035h-3.442v-24.035zm27.505 0v15.172l5.85-5.85a3.4 3.4 0 0 0 1.004-2.438l.03-.029v-6.855zm-27.505-6.854v3.441h24.063v-3.441zm91.262-3.872 1.749 5.248h-5.248v3.499c4.474 4.502 10.669 8.776 17.523 8.776v3.527h-3.499c0 7.457 1.262 14.57 3.499 21.052h-12.303a29.76 29.76 0 0 1-6.97-11.07 29.55 29.55 0 0 1-6.969 11.07H83.961c2.237-6.482 3.5-13.595 3.5-21.052h-3.5v-3.499c6.855 0 13.022-4.272 17.524-8.775v-8.776zm-17.524 21.05c0 5.995-.774 11.846-2.294 17.525h6.051c4.36-4.819 6.769-10.985 6.769-17.525zm14.025 0c0 6.54 2.409 12.706 6.768 17.525h6.052a67.4 67.4 0 0 1-2.295-17.525zm-1.75-9.12c-1.979 1.95-4.445 3.958-7.284 5.593h14.569c-2.811-1.663-5.278-3.671-7.285-5.593m87.275-3.799c0 6.711-3.585 12.562-8.948 15.803l2.266 8.259h-.03c2.725.345 4.848 2.668 4.848 5.479a5.54 5.54 0 0 1-5.535 5.535c-2.409 0-4.417-1.548-5.191-3.699h-15.803l-1.004 3.699h-3.815l5.248-19.273c-5.363-3.241-8.948-9.092-8.948-15.803zm-7.371 27.705c-1.032 0-1.864.832-1.864 1.836s.832 1.836 1.864 1.836a1.85 1.85 0 0 0 1.836-1.836 1.83 1.83 0 0 0-1.836-1.836m-4.99-10.325c-1.922.659-3.958 1.061-6.109 1.061s-4.187-.373-6.109-1.061l-2.811 10.297h14.8a5.4 5.4 0 0 1 2.265-2.84zm-20.393-13.709c1.664 6.367 7.458 11.071 14.313 11.071 6.854 0 12.647-4.704 14.282-11.071zm8.978-7.371h-3.9l1.835-5.535h3.901zm7.371 0h-3.9l1.864-5.535h3.871zm7.371 0h-3.872l1.835-5.535h3.9zm49.317-.03a10.97 10.97 0 0 1 9.063 4.761 16 16 0 0 1 2.007-.659 17 17 0 0 1 4.188-.517l.408.006a16.9 16.9 0 0 1 11.552 4.956c3.068 3.069 4.932 7.228 4.961 11.845a11.1 11.1 0 0 0-4.502-2.523c-.516-2.438-1.75-4.618-3.443-6.339a12.68 12.68 0 0 0-8.976-3.728c-1.09 0-2.152.143-3.155.402-1.033.258-1.98.631-2.869 1.089a1.1 1.1 0 0 1-.257.144 2.107 2.107 0 0 1-2.783-1.119c-.516-1.233-1.405-2.266-2.495-3.012a6.9 6.9 0 0 0-3.728-1.118 6.74 6.74 0 0 0-4.789 1.978 6.74 6.74 0 0 0-1.98 4.791c0 1.864.746 3.556 1.98 4.79a6.74 6.74 0 0 0 4.789 1.978h.545a2.094 2.094 0 0 1 2.007 1.99v.792a12.7 12.7 0 0 0 3.729 8.977 12.7 12.7 0 0 0 8.551 3.726 11 11 0 0 1-1.066-4.73 10.97 10.97 0 0 1 10.986-10.984 10.97 10.97 0 0 1 10.984 10.984 10.966 10.966 0 0 1-10.984 10.985c-2.5 0-4.804-.835-6.645-2.231a19 19 0 0 1-2.82.223c-4.675 0-8.92-1.893-11.988-4.961a16.85 16.85 0 0 1-4.905-10.641 10.77 10.77 0 0 1-6.137-3.098 10.97 10.97 0 0 1-3.213-7.772 10.97 10.97 0 0 1 10.985-10.985m-8.404 21.024c1.95 0 3.729.802 5.019 2.093a7.1 7.1 0 0 1 2.094 5.019c0 1.95-.803 3.729-2.094 5.02a7.1 7.1 0 0 1-5.019 2.093 7.1 7.1 0 0 1-5.019-2.093 7.1 7.1 0 0 1-2.094-5.02c0-1.95.804-3.729 2.094-5.019a7.1 7.1 0 0 1 5.019-2.093m33.127.687a6.74 6.74 0 0 0-4.79 1.98 6.74 6.74 0 0 0-1.98 4.789 6.74 6.74 0 0 0 1.98 4.79 6.74 6.74 0 0 0 4.79 1.979 6.74 6.74 0 0 0 4.789-1.979 6.74 6.74 0 0 0 1.979-4.79 6.74 6.74 0 0 0-1.979-4.789 6.75 6.75 0 0 0-4.789-1.98m-33.127 2.152a4.27 4.27 0 0 0-3.04 1.261 4.27 4.27 0 0 0-1.262 3.041c0 1.204.487 2.266 1.262 3.041a4.27 4.27 0 0 0 3.04 1.261 4.27 4.27 0 0 0 3.041-1.261 4.27 4.27 0 0 0 1.261-3.041 4.27 4.27 0 0 0-1.261-3.041 4.27 4.27 0 0 0-3.041-1.261m19.847-30.029a4.5 4.5 0 0 1 3.212 1.348 4.48 4.48 0 0 1 1.32 3.212c0 1.262-.517 2.381-1.32 3.213a4.48 4.48 0 0 1-3.212 1.319c-1.262 0-2.381-.516-3.212-1.319a4.56 4.56 0 0 1-1.348-3.213c0-1.233.516-2.38 1.319-3.212a4.5 4.5 0 0 1 3.212-1.348zm-.029 2.839a1.7 1.7 0 0 0-1.204.489c-.315.315-.487.745-.487 1.232 0 .488.2.918.487 1.233.315.316.745.517 1.204.517s.918-.201 1.234-.517a1.733 1.733 0 0 0 0-2.465 1.7 1.7 0 0 0-1.234-.489m59.944-2.752v3.528l5.994 2.581c.573.258 1.09.631 1.577 1.118a5 5 0 0 1 1.577-1.118l5.994-2.581v-3.528h3.786v32.179c0 2.094-1.548 4.446-3.469 5.278l-5.995 2.581v5.42h-3.786v-5.42l-5.994-2.553c-1.893-.803-3.47-3.184-3.47-5.277v-32.208zm-.058 31.921c0 1.033.803 2.237 1.749 2.639l3.958 1.691v-1.892c0-1.033-.802-2.237-1.749-2.639l-3.958-1.692zm11.272-.201c-.976.402-1.75 1.606-1.75 2.639v1.892l3.929-1.691c.975-.401 1.749-1.606 1.749-2.639h.03v-1.893zm-11.272-7.371c0 1.032.803 2.237 1.749 2.639l3.958 1.692v-1.892c0-1.033-.803-2.237-1.749-2.639l-3.958-1.692zm11.272-.2c-.976.401-1.75 1.606-1.75 2.639v1.892l3.929-1.692c.975-.402 1.749-1.606 1.749-2.639h.03v-1.892zm-11.272-7.371c0 1.032.803 2.237 1.749 2.638l3.958 1.693v-1.894c0-1.032-.803-2.237-1.749-2.638l-3.958-1.692zm11.272-.201c-.975.401-1.75 1.606-1.75 2.638v1.894l3.929-1.693c.975-.401 1.749-1.606 1.749-2.638h.03v-1.893zm-11.272-7.37c0 1.032.803 2.237 1.749 2.638l3.958 1.692v-1.893c0-1.032-.802-2.237-1.749-2.639l-3.958-1.692zm11.272-.202c-.976.402-1.75 1.607-1.75 2.639v1.893l3.929-1.692c.975-.401 1.749-1.606 1.749-2.638h.03v-1.894zm86.056-4.69.028.029-4.445 4.446c6.252 7.514 5.879 18.699-1.176 25.755a26.5 26.5 0 0 1-3.241-3.93c-.545 3.585-2.466 7.056-5.793 9.81a18 18 0 0 1-3.098-3.357c-1.864 2.954-4.847 5.307-8.834 6.54a17.9 17.9 0 0 1-1.778-5.077c-3.04 3.528-7.801 5.506-13.336 4.99-.516-5.564 1.462-10.296 4.99-13.336a17.9 17.9 0 0 1-5.076-1.778c1.233-3.958 3.585-6.941 6.539-8.834a17.7 17.7 0 0 1-3.327-3.097c2.753-3.355 6.252-5.277 9.866-5.794a24.7 24.7 0 0 1-3.986-3.212c7.055-7.055 18.24-7.456 25.755-1.175l4.445-4.447zm-32.782 27.39c-.947.573-1.836 1.234-2.582 2.037-1.548 1.692-2.495 3.872-2.81 6.31 2.782-.373 5.22-1.579 6.998-3.529v-.028c.516-.545.946-1.205 1.319-1.864-.917 0-1.864-.029-2.81-.115-.115-.946-.115-1.893-.115-2.811m12.734.602a22.6 22.6 0 0 1-4.904 1.75c-.23 1.606-.173 3.299.286 4.962 2.265-1.319 3.987-3.184 4.933-5.478h-.028c.057-.029.057-.086.057-.114-.144-.373-.229-.747-.344-1.12m6.625-8.833c-.918.373-1.836.688-2.811.975-.545 1.291-.86 2.668-.86 4.073 0 2.467.861 4.847 2.467 6.941l.028.028c1.606-2.065 2.467-4.474 2.467-6.94 0-1.779-.459-3.499-1.291-5.077m-9.981-1.463c-1.118.287-2.295.402-3.442.402-1.462 2.552-2.322 5.505-2.437 8.717 3.201-.147 6.145-.978 8.69-2.436 0-1.176.143-2.323.401-3.471-1.147.144-2.294.258-3.47.258 0-1.176.115-2.323.258-3.47m4.245-16.664c-2.868 0-5.622.775-8.031 2.209a24.2 24.2 0 0 0 6.97 3.384l3.843 1.148-1.663 3.642a24 24 0 0 0-1.836 5.994 24 24 0 0 0 5.994-1.836l3.642-1.663 1.148 3.844a24.2 24.2 0 0 0 3.384 6.969c3.585-6.023 2.782-13.939-2.38-19.102a15.56 15.56 0 0 0-11.071-4.589M367.9 239.74c-2.323.918-4.273 2.639-5.621 4.991l.028-.029c1.061.287 2.151.43 3.212.43.574 0 1.147-.057 1.721-.143.373-1.75.975-3.384 1.75-4.933-.373-.086-.746-.172-1.09-.316m4.876-7.542c-2.467 0-4.877.86-6.942 2.466 2.065 1.606 4.475 2.466 6.942 2.466 1.405 0 2.781-.286 4.1-.831.287-.946.603-1.894.976-2.811-1.606-.832-3.327-1.29-5.076-1.29M45.07 319.86c3.213 0 5.107 1.669 6.472 3.162l.527.624c1.347 1.52 2.094 2.294 3.614 2.294h2.266v4.561h-2.266c-3.671 0-5.708-2.266-7.027-3.786-1.32-1.52-2.094-2.266-3.614-2.266s-2.209.66-3.614 2.266c-1.405 1.577-3.355 3.786-7.026 3.786-3.672 0-5.708-2.266-7.028-3.786-1.348-1.52-2.122-2.266-3.613-2.266s-2.18.66-3.585 2.266c-1.405 1.577-3.327 3.786-7.027 3.786h-2.266v-4.561h2.266c1.52 0 2.209-.688 3.614-2.294 1.405-1.577 3.355-3.786 7.026-3.786s5.708 2.266 7.028 3.786c1.347 1.52 2.036 2.294 3.613 2.294s2.209-.688 3.614-2.294c1.406-1.577 3.356-3.786 7.027-3.786m-7.37-27.505c1.978 2.065 6.596 7.286 6.596 11.846 0 5.679-4.417 10.324-9.866 10.324-5.45 0-9.866-4.617-9.866-10.324 0-4.56 4.617-9.809 6.596-11.846L34.43 289zm-3.298 3.184s-5.306 5.479-5.306 8.662 2.38 5.765 5.306 5.765c2.925 0 5.305-2.582 5.305-5.765 0-3.178-5.289-8.645-5.305-8.662m79.157-6.409v6.883h6.883l-.029.057a3.45 3.45 0 0 1 3.442 3.442v6.855a6.85 6.85 0 0 1-2.008 4.847l-8.288 8.288v4.015c0 3.786-3.098 6.855-6.884 6.855h-17.18c-3.785 0-6.854-3.097-6.854-6.883V289.13zm-27.477 10.296v24.063a3.453 3.453 0 0 0 3.443 3.442h17.208a3.45 3.45 0 0 0 3.441-3.442v-24.063h-3.441v24.034h-3.442v-24.034h-3.441v24.034h-3.442v-24.034h-3.442v24.034h-3.441v-24.034zm27.505 0v15.172l5.851-5.851a3.4 3.4 0 0 0 1.004-2.438l.029-.029v-6.854zm-27.505-6.855v3.442h24.064v-3.442zm91.262-3.872 1.749 5.248h-5.248v3.499c4.474 4.503 10.669 8.776 17.524 8.776v3.528h-3.5c0 7.456 1.262 14.57 3.5 21.051h-12.304a29.76 29.76 0 0 1-6.97-11.07 29.5 29.5 0 0 1-6.969 11.07h-12.333c2.237-6.481 3.499-13.594 3.499-21.051h-3.499v-3.499c6.855 0 13.022-4.273 17.525-8.776v-8.776zm-17.523 21.051c0 5.994-.775 11.845-2.295 17.524h6.051c4.36-4.818 6.769-10.985 6.769-17.524zm14.024 0c0 6.539 2.409 12.706 6.769 17.524h6.051a67.4 67.4 0 0 1-2.295-17.524zm-1.75-9.12c-1.979 1.95-4.445 3.958-7.284 5.592h14.569c-2.81-1.663-5.277-3.671-7.285-5.592m87.276-3.8c0 6.711-3.586 12.562-8.949 15.803l2.266 8.26h-.029c2.724.344 4.847 2.668 4.847 5.478a5.54 5.54 0 0 1-5.535 5.535c-2.409 0-4.417-1.548-5.191-3.699h-15.803l-1.004 3.699h-3.814l5.248-19.273c-5.363-3.241-8.949-9.092-8.949-15.803zM252 324.535c-1.032 0-1.864.832-1.864 1.836s.832 1.836 1.864 1.836a1.85 1.85 0 0 0 1.836-1.836 1.83 1.83 0 0 0-1.836-1.836m-4.99-10.325c-1.921.66-3.958 1.062-6.109 1.062s-4.187-.374-6.109-1.062l-2.811 10.297h14.8a5.4 5.4 0 0 1 2.265-2.84zm-20.392-13.709c1.663 6.367 7.458 11.071 14.312 11.071 6.855 0 12.648-4.704 14.282-11.071zm8.977-7.371h-3.9l1.835-5.535h3.901zm7.371 0h-3.9l1.864-5.535h3.871zm7.371 0h-3.872l1.835-5.535h3.901zm49.317-.029a10.96 10.96 0 0 1 9.063 4.76 16 16 0 0 1 2.008-.659 17 17 0 0 1 4.187-.516l.408.006a16.9 16.9 0 0 1 11.552 4.956c3.069 3.068 4.932 7.227 4.961 11.844a11.1 11.1 0 0 0-4.502-2.523c-.516-2.438-1.75-4.618-3.442-6.339a12.7 12.7 0 0 0-8.977-3.728c-1.09 0-2.151.144-3.155.402a13.2 13.2 0 0 0-2.868 1.09c-.086.057-.172.115-.258.143-1.09.459-2.324-.029-2.782-1.119-.517-1.233-1.406-2.266-2.495-3.012a6.9 6.9 0 0 0-3.729-1.118 6.74 6.74 0 0 0-4.789 1.979 6.74 6.74 0 0 0-1.98 4.79c0 1.864.747 3.557 1.98 4.79a6.74 6.74 0 0 0 4.789 1.978h.545a2.095 2.095 0 0 1 2.008 1.991v.792c0 3.498 1.434 6.682 3.728 8.976a12.7 12.7 0 0 0 8.551 3.727 11 11 0 0 1-1.065-4.731 10.97 10.97 0 0 1 10.985-10.984 10.964 10.964 0 0 1 10.984 10.984 10.97 10.97 0 0 1-10.984 10.986 10.97 10.97 0 0 1-6.645-2.232c-.903.139-1.862.224-2.82.224a16.9 16.9 0 0 1-11.988-4.962 16.84 16.84 0 0 1-4.904-10.641 10.78 10.78 0 0 1-6.138-3.097 10.97 10.97 0 0 1-3.213-7.773 10.965 10.965 0 0 1 10.985-10.984m-8.404 21.023c1.95 0 3.729.802 5.02 2.093a7.1 7.1 0 0 1 2.093 5.019 7.1 7.1 0 0 1-2.093 5.02 7.1 7.1 0 0 1-5.02 2.094 7.1 7.1 0 0 1-5.019-2.094 7.1 7.1 0 0 1-2.093-5.02c0-1.95.803-3.728 2.093-5.019a7.1 7.1 0 0 1 5.019-2.093m33.127.688a6.74 6.74 0 0 0-4.79 1.979 6.75 6.75 0 0 0-1.98 4.789c0 1.864.747 3.557 1.98 4.79a6.74 6.74 0 0 0 4.79 1.98 6.74 6.74 0 0 0 4.789-1.98 6.74 6.74 0 0 0 1.98-4.79 6.75 6.75 0 0 0-1.98-4.789 6.74 6.74 0 0 0-4.789-1.979m-33.127 2.151a4.26 4.26 0 0 0-3.04 1.262 4.27 4.27 0 0 0-1.262 3.04c0 1.204.488 2.266 1.262 3.041a4.27 4.27 0 0 0 3.04 1.262 4.27 4.27 0 0 0 3.041-1.262 4.27 4.27 0 0 0 1.262-3.041 4.27 4.27 0 0 0-1.262-3.04 4.26 4.26 0 0 0-3.041-1.262m19.848-30.028c1.261 0 2.38.516 3.212 1.347a4.5 4.5 0 0 1 1.319 3.212c0 1.262-.516 2.381-1.319 3.213a4.48 4.48 0 0 1-3.212 1.319c-1.262 0-2.381-.516-3.213-1.319a4.56 4.56 0 0 1-1.348-3.213c0-1.233.516-2.38 1.319-3.212a4.5 4.5 0 0 1 3.212-1.347zm-.03 2.839a1.7 1.7 0 0 0-1.204.488c-.315.315-.487.745-.487 1.232 0 .488.201.918.487 1.234a1.72 1.72 0 0 0 1.204.516 1.8 1.8 0 0 0 1.234-.516 1.73 1.73 0 0 0 0-2.466c-.316-.316-.746-.488-1.234-.488m59.944-2.753v3.528l5.994 2.581c.574.258 1.09.631 1.577 1.118a5 5 0 0 1 1.577-1.118l5.995-2.581v-3.528h3.786V319.2c0 2.094-1.549 4.446-3.47 5.278l-5.995 2.581v5.421h-3.785v-5.421l-5.994-2.553c-1.893-.803-3.471-3.184-3.471-5.277v-32.208zm-.058 31.922c0 1.032.803 2.237 1.749 2.638l3.958 1.692v-1.893c0-1.032-.802-2.237-1.749-2.639l-3.958-1.692zm11.272-.202c-.975.402-1.75 1.607-1.75 2.639v1.893l3.93-1.692c.975-.401 1.748-1.606 1.749-2.638h.029v-1.894zm-11.272-7.371c0 1.033.803 2.237 1.749 2.639l3.958 1.692v-1.892c0-1.033-.802-2.237-1.749-2.639l-3.958-1.692zm11.272-.2c-.975.402-1.75 1.606-1.75 2.639v1.892l3.93-1.692c.975-.402 1.749-1.606 1.749-2.639h.029v-1.892zm-11.272-7.371c0 1.032.803 2.237 1.749 2.639l3.958 1.692v-1.893c0-1.033-.802-2.238-1.749-2.639l-3.958-1.692zm11.272-.201c-.975.401-1.75 1.606-1.75 2.639v1.893l3.93-1.692c.975-.402 1.749-1.606 1.749-2.639h.029v-1.893zm-11.272-7.37c.001 1.032.803 2.237 1.749 2.638l3.958 1.692v-1.893c0-1.032-.802-2.237-1.749-2.638l-3.958-1.693zm11.272-.201c-.975.401-1.75 1.606-1.75 2.638v1.893l3.93-1.692c.975-.401 1.748-1.606 1.749-2.638h.029v-1.894zM55.282 360.17l.029.029-4.446 4.445c6.252 7.515 5.88 18.7-1.175 25.755a26.5 26.5 0 0 1-3.242-3.929c-.545 3.585-2.466 7.056-5.793 9.809a18 18 0 0 1-3.097-3.356c-1.865 2.954-4.848 5.307-8.834 6.54a17.9 17.9 0 0 1-1.779-5.077c-3.04 3.527-7.8 5.506-13.336 4.99-.516-5.564 1.463-10.296 4.99-13.336a18 18 0 0 1-5.076-1.778c1.234-3.958 3.585-6.941 6.54-8.834a17.7 17.7 0 0 1-3.328-3.097c2.754-3.356 6.253-5.278 9.867-5.794a24.8 24.8 0 0 1-3.987-3.212c7.056-7.055 18.24-7.457 25.755-1.176l4.445-4.446zM22.5 387.559c-.947.574-1.835 1.235-2.581 2.038-1.549 1.692-2.495 3.871-2.81 6.309 2.781-.373 5.22-1.578 6.997-3.528v-.029c.517-.544.947-1.204 1.32-1.864-.918 0-1.864-.028-2.81-.114-.116-.946-.116-1.894-.116-2.812m12.734.603a22.6 22.6 0 0 1-4.904 1.75c-.23 1.606-.173 3.299.286 4.962 2.266-1.319 3.987-3.184 4.934-5.479h-.028c.056-.028.056-.085.056-.114-.143-.373-.229-.746-.344-1.119m6.625-8.833a30 30 0 0 1-2.81.975c-.545 1.29-.86 2.667-.86 4.073 0 2.466.86 4.847 2.466 6.94l.029.029c1.606-2.065 2.466-4.474 2.466-6.941 0-1.778-.459-3.499-1.29-5.076m-9.98-1.463c-1.119.287-2.295.401-3.443.401-1.462 2.552-2.322 5.506-2.437 8.717 3.201-.147 6.146-.977 8.69-2.435 0-1.176.144-2.324.402-3.471-1.147.143-2.295.258-3.47.258 0-1.176.114-2.323.258-3.47m4.244-16.664a15.65 15.65 0 0 0-8.03 2.209 24.2 24.2 0 0 0 6.97 3.384l3.842 1.147-1.663 3.643a24 24 0 0 0-1.836 5.994 24 24 0 0 0 5.994-1.836l3.643-1.663 1.147 3.844a24.2 24.2 0 0 0 3.384 6.968c3.585-6.022 2.783-13.939-2.38-19.101a15.56 15.56 0 0 0-11.071-4.589m-12.39 16.205c-2.323.918-4.273 2.639-5.62 4.99l.028-.028c1.06.287 2.15.43 3.212.43.573 0 1.147-.058 1.72-.144a20.6 20.6 0 0 1 1.75-4.932c-.373-.086-.745-.173-1.09-.316m4.876-7.543c-2.466 0-4.876.861-6.941 2.467 2.065 1.606 4.475 2.466 6.941 2.466a10.7 10.7 0 0 0 4.101-.831c.287-.947.603-1.894.975-2.812-1.605-.831-3.326-1.29-5.076-1.29m85.294 18.83c3.212 0 5.107 1.669 6.472 3.162l.526.624c1.348 1.52 2.094 2.294 3.614 2.294h2.266v4.56h-2.266c-3.671 0-5.708-2.266-7.027-3.786s-2.094-2.265-3.613-2.266-2.209.66-3.615 2.266c-1.405 1.577-3.355 3.786-7.026 3.786s-5.708-2.266-7.027-3.786c-1.348-1.52-2.122-2.266-3.614-2.266s-2.18.66-3.585 2.266c-1.405 1.578-3.327 3.786-7.027 3.786h-2.266v-4.56h2.266c1.52 0 2.21-.688 3.614-2.294 1.406-1.578 3.356-3.786 7.027-3.786 3.67 0 5.708 2.266 7.027 3.786 1.348 1.52 2.036 2.294 3.613 2.294 1.578 0 2.209-.688 3.615-2.294 1.405-1.578 3.355-3.786 7.026-3.786m-7.371-27.505c1.979 2.065 6.597 7.285 6.597 11.845-.001 5.679-4.418 10.325-9.867 10.325s-9.866-4.617-9.866-10.325c0-4.56 4.618-9.809 6.597-11.845l3.269-3.356zm-3.298 3.183s-5.306 5.479-5.306 8.662 2.381 5.765 5.306 5.765 5.305-2.581 5.306-5.765c0-3.178-5.289-8.644-5.306-8.662m79.158-6.409v6.883h6.883l-.028.058a3.45 3.45 0 0 1 3.441 3.441v6.855a6.85 6.85 0 0 1-2.008 4.847l-8.288 8.288v4.016c0 3.786-3.098 6.854-6.884 6.854H158.33c-3.786 0-6.855-3.097-6.855-6.882v-34.36zm-27.476 10.296v24.064a3.45 3.45 0 0 0 3.442 3.441h17.208a3.45 3.45 0 0 0 3.441-3.441v-24.064h-3.441v24.034h-3.441v-24.034h-3.442v24.034h-3.442v-24.034H161.8v24.034h-3.441v-24.034zm27.505 0v15.172l5.85-5.851a3.4 3.4 0 0 0 1.004-2.437l.029-.029v-6.855zm-27.505-6.854v3.441h24.063v-3.441zm91.261-3.873 1.749 5.248h-5.248v3.499c4.475 4.503 10.669 8.777 17.524 8.777v3.527h-3.499c0 7.457 1.262 14.57 3.499 21.052h-12.304a29.8 29.8 0 0 1-6.97-11.071 29.55 29.55 0 0 1-6.968 11.071h-12.333c2.237-6.482 3.499-13.595 3.499-21.052h-3.499v-3.499c6.854 0 13.021-4.273 17.524-8.775v-8.777zm-17.523 21.051c0 5.994-.775 11.846-2.295 17.524h6.052c4.359-4.818 6.768-10.985 6.768-17.524zm14.024 0c0 6.539 2.41 12.706 6.769 17.524h6.052a67.4 67.4 0 0 1-2.295-17.524zm-1.75-9.12c-1.978 1.95-4.445 3.958-7.284 5.593h14.57c-2.811-1.664-5.278-3.672-7.286-5.593m87.276-3.799c0 6.711-3.585 12.561-8.948 15.802l2.265 8.26h-.029c2.725.344 4.848 2.668 4.848 5.479a5.54 5.54 0 0 1-5.536 5.535c-2.409 0-4.416-1.549-5.191-3.699h-15.803l-1.004 3.699h-3.814l5.248-19.274c-5.363-3.241-8.948-9.091-8.948-15.802zm-7.371 27.705c-1.033 0-1.865.832-1.865 1.836.001 1.003.832 1.836 1.865 1.836a1.85 1.85 0 0 0 1.836-1.836 1.83 1.83 0 0 0-1.836-1.836m-4.99-10.326c-1.922.66-3.959 1.062-6.11 1.062a18 18 0 0 1-6.108-1.062l-2.812 10.297h14.8a5.4 5.4 0 0 1 2.266-2.84zm-20.393-13.709c1.663 6.368 7.458 11.072 14.312 11.072 6.855 0 12.648-4.705 14.283-11.072zm8.977-7.371h-3.9l1.835-5.535h3.901zm7.372 0h-3.901l1.864-5.535h3.872zm7.371 0h-3.872l1.835-5.535h3.9zm49.317-.029a10.96 10.96 0 0 1 9.062 4.761c.66-.258 1.32-.487 2.008-.659a17 17 0 0 1 4.187-.517l.409.006a16.9 16.9 0 0 1 11.551 4.956c3.069 3.069 4.932 7.227 4.961 11.845a11.1 11.1 0 0 0-4.502-2.524c-.516-2.438-1.75-4.618-3.442-6.339a12.68 12.68 0 0 0-8.977-3.727c-1.089 0-2.151.143-3.155.401a13.2 13.2 0 0 0-2.868 1.09c-.086.057-.172.115-.258.144a2.107 2.107 0 0 1-2.782-1.12c-.516-1.233-1.405-2.266-2.495-3.011a6.9 6.9 0 0 0-3.729-1.118 6.74 6.74 0 0 0-4.789 1.978 6.74 6.74 0 0 0-1.979 4.79c0 1.864.746 3.557 1.979 4.79a6.74 6.74 0 0 0 4.789 1.979h.545a2.095 2.095 0 0 1 2.008 1.99v.792c0 3.499 1.434 6.682 3.729 8.976a12.7 12.7 0 0 0 8.55 3.727 11 11 0 0 1-1.065-4.73 10.97 10.97 0 0 1 10.985-10.985 10.97 10.97 0 0 1 10.985 10.985 10.97 10.97 0 0 1-10.985 10.985c-2.499 0-4.804-.835-6.644-2.232-.904.139-1.862.224-2.821.224a16.9 16.9 0 0 1-11.988-4.962 16.84 16.84 0 0 1-4.904-10.64 10.78 10.78 0 0 1-6.138-3.098 10.97 10.97 0 0 1-3.213-7.773 10.967 10.967 0 0 1 10.986-10.984m-8.405 21.024c1.95 0 3.729.802 5.02 2.092a7.1 7.1 0 0 1 2.094 5.02c0 1.95-.804 3.729-2.094 5.019a7.1 7.1 0 0 1-5.02 2.094 7.1 7.1 0 0 1-5.018-2.094 7.1 7.1 0 0 1-2.094-5.019c0-1.95.803-3.729 2.094-5.02a7.1 7.1 0 0 1 5.018-2.092m33.127.687a6.74 6.74 0 0 0-4.79 1.98 6.74 6.74 0 0 0-1.979 4.789c0 1.864.746 3.556 1.979 4.79a6.74 6.74 0 0 0 4.79 1.979 6.74 6.74 0 0 0 4.789-1.979 6.74 6.74 0 0 0 1.98-4.79 6.74 6.74 0 0 0-1.98-4.789 6.74 6.74 0 0 0-4.789-1.98m-33.127 2.151a4.27 4.27 0 0 0-3.04 1.262 4.27 4.27 0 0 0-1.262 3.04c0 1.205.488 2.267 1.262 3.041a4.27 4.27 0 0 0 3.04 1.262 4.26 4.26 0 0 0 3.041-1.262 4.26 4.26 0 0 0 1.262-3.041 4.26 4.26 0 0 0-1.262-3.04 4.27 4.27 0 0 0-3.041-1.262m19.848-30.028c1.262 0 2.38.516 3.212 1.348a4.48 4.48 0 0 1 1.319 3.212c0 1.262-.516 2.381-1.319 3.213a4.5 4.5 0 0 1-3.212 1.319c-1.262 0-2.381-.516-3.213-1.319a4.56 4.56 0 0 1-1.348-3.213c0-1.233.517-2.381 1.32-3.212a4.5 4.5 0 0 1 3.212-1.348zm-.029 2.839c-.488 0-.918.201-1.204.488-.316.316-.488.745-.488 1.233 0 .487.201.918.488 1.233.315.315.745.517 1.204.517s.918-.201 1.233-.517c.315-.315.517-.746.517-1.233a1.74 1.74 0 0 0-.517-1.233 1.7 1.7 0 0 0-1.233-.488M26.846 424.688v3.528l5.994 2.581c.573.258 1.09.631 1.577 1.118a5 5 0 0 1 1.577-1.118l5.994-2.581v-3.528h3.786v32.179c0 2.094-1.548 4.446-3.47 5.278l-5.995 2.581v5.42h-3.785v-5.42l-5.994-2.553c-1.893-.803-3.47-3.184-3.47-5.277v-32.208zm-.058 31.921c0 1.033.803 2.237 1.749 2.639l3.958 1.691v-1.892c0-1.033-.803-2.237-1.75-2.639l-3.957-1.692zm11.271-.201c-.975.402-1.75 1.606-1.75 2.639v1.892l3.93-1.691c.975-.401 1.749-1.606 1.749-2.639h.03v-1.893zm-11.271-7.371c0 1.032.803 2.237 1.749 2.639l3.958 1.692v-1.892c0-1.033-.803-2.237-1.75-2.639l-3.957-1.692zm11.271-.2c-.975.401-1.75 1.606-1.75 2.639v1.892l3.93-1.692c.975-.402 1.749-1.606 1.749-2.639h.03v-1.892zm-11.271-7.371c0 1.032.803 2.237 1.749 2.638l3.958 1.693v-1.894c0-1.032-.803-2.237-1.75-2.638l-3.957-1.692zm11.271-.201c-.975.401-1.75 1.606-1.75 2.638v1.894l3.93-1.693c.975-.401 1.749-1.606 1.749-2.638h.03v-1.893zm-11.271-7.37c0 1.032.803 2.237 1.749 2.638l3.958 1.692v-1.893c0-1.032-.803-2.237-1.75-2.639l-3.957-1.692zm11.271-.202c-.975.402-1.75 1.607-1.75 2.639v1.893l3.93-1.692c.975-.401 1.749-1.606 1.749-2.638h.03v-1.894zm86.057-4.69.028.029-4.445 4.446c6.252 7.514 5.879 18.699-1.176 25.755a26.5 26.5 0 0 1-3.241-3.93c-.545 3.585-2.466 7.056-5.793 9.81a17.8 17.8 0 0 1-3.098-3.357c-1.864 2.954-4.847 5.307-8.834 6.54a17.9 17.9 0 0 1-1.778-5.077c-3.04 3.528-7.801 5.506-13.336 4.99-.516-5.564 1.462-10.296 4.99-13.336a17.9 17.9 0 0 1-5.076-1.778c1.233-3.958 3.585-6.941 6.539-8.834a17.7 17.7 0 0 1-3.327-3.097c2.753-3.355 6.252-5.277 9.866-5.794a24.7 24.7 0 0 1-3.986-3.212c7.055-7.055 18.24-7.456 25.754-1.175l4.446-4.447zm-32.783 27.39c-.946.573-1.835 1.234-2.58 2.037-1.55 1.692-2.496 3.872-2.811 6.31 2.782-.373 5.22-1.579 6.998-3.529v-.028c.516-.545.946-1.205 1.32-1.864-.919 0-1.865-.029-2.811-.115-.115-.946-.116-1.893-.116-2.811m12.735.602a22.6 22.6 0 0 1-4.904 1.75c-.23 1.606-.173 3.299.286 4.962 2.265-1.319 3.987-3.184 4.933-5.478h-.028c.057-.029.056-.086.056-.114-.143-.373-.229-.747-.343-1.12m6.625-8.833c-.918.373-1.836.688-2.811.975-.545 1.291-.86 2.668-.86 4.073 0 2.467.861 4.847 2.467 6.941l.028.028c1.606-2.065 2.467-4.474 2.467-6.94 0-1.779-.46-3.499-1.291-5.077m-9.981-1.463c-1.118.287-2.295.402-3.442.402-1.462 2.552-2.323 5.505-2.438 8.717 3.202-.147 6.146-.978 8.691-2.436 0-1.176.143-2.323.401-3.471-1.147.144-2.295.258-3.471.258.001-1.176.116-2.323.259-3.47m4.244-16.664c-2.868 0-5.62.775-8.03 2.209a24.2 24.2 0 0 0 6.97 3.384l3.843 1.148-1.663 3.642a24 24 0 0 0-1.836 5.994 24 24 0 0 0 5.994-1.836l3.642-1.663 1.148 3.844a24.1 24.1 0 0 0 3.384 6.969c3.585-6.023 2.782-13.939-2.38-19.102a15.56 15.56 0 0 0-11.072-4.589m-12.39 16.205c-2.322.918-4.272 2.639-5.62 4.991l.028-.029c1.061.287 2.15.43 3.212.43.573 0 1.147-.057 1.72-.143.373-1.75.976-3.384 1.75-4.933-.372-.086-.745-.172-1.09-.316m4.877-7.542c-2.467 0-4.877.86-6.942 2.466 2.065 1.606 4.475 2.466 6.942 2.466 1.405 0 2.781-.286 4.1-.831.287-.946.603-1.894.976-2.811-1.606-.832-3.327-1.29-5.076-1.29m85.294 18.829c3.212 0 5.107 1.669 6.472 3.162l.526.624c1.348 1.52 2.094 2.294 3.614 2.294h2.266v4.561h-2.266c-3.671 0-5.708-2.266-7.027-3.787-1.319-1.519-2.093-2.265-3.613-2.265s-2.209.659-3.614 2.265c-1.406 1.578-3.356 3.787-7.027 3.787s-5.708-2.266-7.027-3.787c-1.348-1.519-2.122-2.265-3.613-2.265s-2.18.659-3.585 2.265c-1.406 1.578-3.328 3.787-7.028 3.787h-2.265v-4.561h2.265c1.52 0 2.209-.688 3.615-2.294 1.405-1.577 3.355-3.786 7.026-3.786s5.708 2.266 7.027 3.786c1.348 1.52 2.036 2.294 3.614 2.294s2.209-.688 3.614-2.294c1.405-1.577 3.355-3.786 7.026-3.786m-7.371-27.505c1.979 2.065 6.597 7.286 6.597 11.846 0 5.678-4.417 10.324-9.866 10.324-5.45 0-9.866-4.617-9.867-10.324 0-4.56 4.618-9.81 6.597-11.846l3.27-3.355zm-3.298 3.184s-5.305 5.478-5.305 8.662c0 3.183 2.38 5.764 5.305 5.764s5.306-2.581 5.306-5.764c0-3.179-5.289-8.645-5.306-8.662m79.159-6.409v6.882h6.882l-.028.058a3.45 3.45 0 0 1 3.441 3.441v6.856a6.85 6.85 0 0 1-2.007 4.846l-8.288 8.289v4.015c0 3.786-3.098 6.855-6.884 6.855h-17.18c-3.786 0-6.854-3.098-6.854-6.883v-34.359zm-27.477 10.295v24.064a3.45 3.45 0 0 0 3.442 3.441H244.4a3.45 3.45 0 0 0 3.442-3.441v-24.064H244.4v24.035h-3.441v-24.035h-3.441v24.035h-3.443v-24.035h-3.441v24.035h-3.442v-24.035zm27.505 0v15.172l5.85-5.85a3.4 3.4 0 0 0 1.004-2.438l.03-.029v-6.855zm-27.505-6.854v3.441h24.063v-3.441zm91.262-3.872 1.749 5.248h-5.248v3.499c4.474 4.502 10.669 8.776 17.523 8.776v3.527h-3.499c0 7.457 1.262 14.57 3.499 21.052h-12.304a29.8 29.8 0 0 1-6.969-11.07 29.55 29.55 0 0 1-6.969 11.07h-12.333c2.237-6.482 3.499-13.595 3.499-21.052h-3.499v-3.499c6.855 0 13.022-4.272 17.524-8.775v-8.776zm-17.524 21.05a67.6 67.6 0 0 1-2.295 17.525h6.052c4.36-4.819 6.769-10.985 6.769-17.525zm14.025 0c0 6.54 2.409 12.706 6.768 17.525h6.052a67.4 67.4 0 0 1-2.295-17.525zm-1.75-9.12c-1.979 1.95-4.445 3.958-7.284 5.593h14.569c-2.811-1.663-5.278-3.671-7.285-5.593m87.275-3.799c0 6.711-3.585 12.562-8.948 15.803l2.265 8.259h-.029c2.725.345 4.848 2.668 4.848 5.479a5.54 5.54 0 0 1-5.535 5.535c-2.409 0-4.417-1.548-5.192-3.699h-15.802l-1.004 3.699h-3.815l5.248-19.273c-5.363-3.241-8.948-9.092-8.948-15.803zm-7.371 27.705c-1.033 0-1.864.832-1.864 1.836s.832 1.836 1.864 1.836a1.85 1.85 0 0 0 1.836-1.836 1.83 1.83 0 0 0-1.836-1.836m-4.99-10.325c-1.922.659-3.959 1.061-6.11 1.061s-4.187-.373-6.108-1.061l-2.812 10.297h14.8a5.4 5.4 0 0 1 2.266-2.84zm-20.393-13.709c1.664 6.367 7.458 11.071 14.313 11.071 6.854 0 12.647-4.704 14.282-11.071zm8.978-7.371h-3.901l1.835-5.535h3.902zm7.371 0h-3.901l1.865-5.535h3.871zm7.371 0h-3.872l1.835-5.535h3.9zM24.321 499.601a10.96 10.96 0 0 1 9.062 4.76c.66-.258 1.32-.487 2.008-.659a17 17 0 0 1 4.188-.516l.408.006a16.9 16.9 0 0 1 11.552 4.956c3.069 3.068 4.932 7.227 4.96 11.844a11.1 11.1 0 0 0-4.501-2.523c-.516-2.438-1.75-4.618-3.443-6.339a12.7 12.7 0 0 0-8.976-3.728c-1.09 0-2.152.144-3.155.402-1.033.258-1.98.631-2.869 1.09-.086.057-.172.115-.257.143a2.106 2.106 0 0 1-2.783-1.119c-.516-1.233-1.405-2.266-2.495-3.012a6.9 6.9 0 0 0-3.728-1.118 6.74 6.74 0 0 0-4.79 1.979 6.74 6.74 0 0 0-1.979 4.79 6.74 6.74 0 0 0 1.98 4.79 6.74 6.74 0 0 0 4.789 1.978h.545a2.095 2.095 0 0 1 2.008 1.991v.792c0 3.498 1.434 6.682 3.728 8.976a12.7 12.7 0 0 0 8.55 3.727 11 11 0 0 1-1.065-4.731 10.97 10.97 0 0 1 10.986-10.984 10.967 10.967 0 0 1 10.984 10.984 10.97 10.97 0 0 1-10.984 10.986c-2.5 0-4.804-.836-6.645-2.232a19 19 0 0 1-2.82.224c-4.675 0-8.92-1.893-11.988-4.962a16.84 16.84 0 0 1-4.905-10.641 10.78 10.78 0 0 1-6.137-3.097 10.97 10.97 0 0 1-3.213-7.773 10.966 10.966 0 0 1 10.985-10.984m-8.404 21.023a7.1 7.1 0 0 1 5.02 2.093 7.1 7.1 0 0 1 2.093 5.019 7.1 7.1 0 0 1-2.094 5.02 7.1 7.1 0 0 1-5.02 2.094 7.1 7.1 0 0 1-5.018-2.094 7.1 7.1 0 0 1-2.094-5.02c0-1.95.804-3.728 2.094-5.019a7.1 7.1 0 0 1 5.019-2.093m33.127.688a6.74 6.74 0 0 0-4.79 1.979 6.74 6.74 0 0 0-1.98 4.789 6.74 6.74 0 0 0 1.98 4.79 6.74 6.74 0 0 0 4.79 1.98 6.74 6.74 0 0 0 4.789-1.98 6.74 6.74 0 0 0 1.98-4.79 6.74 6.74 0 0 0-1.98-4.789 6.74 6.74 0 0 0-4.79-1.979m-33.127 2.151a4.26 4.26 0 0 0-3.04 1.262 4.26 4.26 0 0 0-1.262 3.04 4.27 4.27 0 0 0 1.262 3.041 4.27 4.27 0 0 0 3.04 1.262 4.27 4.27 0 0 0 3.04-1.262 4.27 4.27 0 0 0 1.262-3.041 4.27 4.27 0 0 0-1.261-3.04 4.27 4.27 0 0 0-3.041-1.262m19.847-30.028a4.5 4.5 0 0 1 3.212 1.347 4.5 4.5 0 0 1 1.32 3.212c0 1.262-.517 2.381-1.32 3.213a4.48 4.48 0 0 1-3.212 1.319c-1.262 0-2.38-.516-3.213-1.319a4.56 4.56 0 0 1-1.347-3.213c0-1.233.516-2.38 1.32-3.212a4.5 4.5 0 0 1 3.211-1.347zm-.029 2.839a1.7 1.7 0 0 0-1.204.488c-.315.315-.487.745-.487 1.232 0 .488.2.918.487 1.234.315.315.745.516 1.204.516s.918-.201 1.233-.516a1.73 1.73 0 0 0 0-2.466c-.315-.316-.745-.488-1.233-.488m59.945-2.753v3.528l5.994 2.581c.573.258 1.09.631 1.577 1.118a5 5 0 0 1 1.577-1.118l5.994-2.581v-3.528h3.787V525.7c0 2.094-1.549 4.446-3.47 5.278l-5.995 2.581v5.421h-3.785v-5.421l-5.995-2.553c-1.892-.803-3.47-3.184-3.47-5.277v-32.208zm-.058 31.922c0 1.032.803 2.237 1.75 2.638l3.957 1.692v-1.893c0-1.032-.802-2.237-1.749-2.639l-3.958-1.692zm11.272-.202c-.975.402-1.75 1.607-1.75 2.639v1.893l3.929-1.692c.975-.401 1.749-1.606 1.749-2.638h.03v-1.894zm-11.272-7.371c0 1.033.803 2.237 1.75 2.639l3.957 1.692v-1.892c0-1.033-.802-2.237-1.749-2.639l-3.958-1.692zm11.272-.2c-.975.402-1.75 1.606-1.75 2.639v1.892l3.929-1.692c.975-.402 1.749-1.606 1.749-2.639h.03v-1.892zm-11.272-7.371c0 1.032.803 2.237 1.75 2.639l3.957 1.692v-1.893c0-1.033-.802-2.238-1.749-2.639l-3.958-1.692zm11.272-.201c-.975.401-1.75 1.606-1.75 2.639v1.893l3.929-1.692c.976-.402 1.749-1.606 1.749-2.639h.03v-1.893zm-11.272-7.37c0 1.032.803 2.237 1.75 2.638l3.957 1.692v-1.893c0-1.032-.802-2.237-1.749-2.638l-3.958-1.693zm11.272-.201c-.975.401-1.75 1.606-1.75 2.638v1.893l3.929-1.692c.975-.401 1.749-1.606 1.749-2.638h.03v-1.894zm86.056-4.691.028.03-4.445 4.445c6.252 7.514 5.879 18.7-1.176 25.755a26.5 26.5 0 0 1-3.241-3.93c-.545 3.585-2.466 7.056-5.793 9.81a18 18 0 0 1-3.098-3.357c-1.864 2.954-4.847 5.307-8.834 6.54a17.9 17.9 0 0 1-1.778-5.077c-3.04 3.528-7.801 5.507-13.336 4.99-.516-5.563 1.463-10.295 4.99-13.335a18 18 0 0 1-5.076-1.779c1.233-3.958 3.585-6.941 6.539-8.834a17.6 17.6 0 0 1-3.327-3.096c2.753-3.356 6.252-5.278 9.866-5.794a24.8 24.8 0 0 1-3.986-3.212c7.055-7.056 18.24-7.457 25.755-1.176l4.445-4.446zm-32.782 27.39c-.947.574-1.836 1.234-2.581 2.037-1.549 1.692-2.495 3.872-2.811 6.31 2.782-.373 5.22-1.578 6.998-3.529v-.028c.516-.545.947-1.205 1.319-1.864a31 31 0 0 1-2.81-.114c-.115-.947-.115-1.894-.115-2.812m12.734.603a22.7 22.7 0 0 1-4.904 1.75c-.23 1.606-.173 3.298.286 4.962 2.266-1.32 3.987-3.185 4.933-5.479h-.028c.057-.029.057-.086.057-.114-.144-.373-.229-.747-.344-1.119m6.625-8.833c-.918.372-1.836.687-2.811.974-.544 1.291-.86 2.668-.86 4.073 0 2.467.861 4.847 2.467 6.941l.028.028c1.606-2.065 2.467-4.474 2.467-6.94 0-1.778-.459-3.499-1.291-5.076m-9.98-1.463c-1.119.287-2.296.401-3.443.401-1.462 2.552-2.322 5.506-2.437 8.717 3.201-.147 6.145-.977 8.69-2.436 0-1.176.143-2.323.401-3.47-1.147.143-2.294.257-3.47.257 0-1.175.115-2.322.259-3.469m4.244-16.664c-2.868 0-5.622.775-8.031 2.209a24.2 24.2 0 0 0 6.97 3.383l3.843 1.148-1.663 3.642a24 24 0 0 0-1.836 5.995 24 24 0 0 0 5.994-1.836l3.643-1.663 1.147 3.843a24.2 24.2 0 0 0 3.384 6.969c3.585-6.023 2.782-13.939-2.38-19.101a15.55 15.55 0 0 0-11.071-4.589m-12.39 16.205c-2.323.917-4.273 2.638-5.621 4.99l.028-.028a12.4 12.4 0 0 0 3.212.429c.574 0 1.147-.057 1.721-.143.373-1.75.976-3.384 1.75-4.933-.373-.086-.746-.172-1.09-.315m4.876-7.543c-2.467 0-4.876.86-6.941 2.467 2.065 1.606 4.474 2.465 6.941 2.465 1.405 0 2.782-.286 4.101-.831.286-.946.602-1.893.975-2.811-1.606-.832-3.327-1.29-5.076-1.29m85.295 18.829c3.212 0 5.106 1.669 6.471 3.162l.527.624c1.347 1.52 2.094 2.294 3.614 2.294h2.265v4.561h-2.265c-3.671 0-5.708-2.266-7.027-3.786-1.32-1.52-2.094-2.266-3.614-2.266s-2.209.66-3.614 2.266c-1.405 1.577-3.355 3.786-7.026 3.786s-5.708-2.266-7.028-3.786c-1.348-1.52-2.122-2.266-3.613-2.266s-2.18.66-3.585 2.266c-1.405 1.577-3.328 3.786-7.027 3.786h-2.266v-4.561h2.266c1.52 0 2.209-.688 3.614-2.294 1.405-1.577 3.355-3.786 7.026-3.786s5.708 2.266 7.028 3.786c1.347 1.52 2.036 2.294 3.613 2.294s2.209-.688 3.614-2.294c1.406-1.577 3.355-3.786 7.027-3.786m-7.372-27.505c1.979 2.065 6.597 7.286 6.597 11.846 0 5.679-4.417 10.324-9.866 10.324s-9.866-4.617-9.866-10.324c0-4.56 4.617-9.809 6.596-11.846l3.27-3.355zm-3.297 3.184s-5.306 5.479-5.306 8.662 2.38 5.765 5.306 5.765c2.925 0 5.305-2.582 5.305-5.765 0-3.178-5.289-8.645-5.305-8.662m79.158-6.409v6.883h6.883l-.029.057a3.45 3.45 0 0 1 3.442 3.442v6.855a6.85 6.85 0 0 1-2.008 4.847l-8.288 8.288v4.015c0 3.786-3.098 6.855-6.884 6.855h-17.18c-3.785 0-6.854-3.097-6.854-6.883V495.63zm-27.477 10.296v24.063a3.453 3.453 0 0 0 3.443 3.442h17.208a3.45 3.45 0 0 0 3.441-3.442v-24.063h-3.441v24.034h-3.442v-24.034h-3.441v24.034h-3.443v-24.034h-3.441v24.034h-3.441v-24.034zm27.505 0v15.172l5.851-5.851a3.4 3.4 0 0 0 1.004-2.438l.029-.029v-6.854zm-27.505-6.855v3.442h24.064v-3.442zm91.262-3.872 1.749 5.248h-5.248v3.499c4.474 4.503 10.669 8.776 17.523 8.776v3.528h-3.499c0 7.456 1.262 14.57 3.499 21.051h-12.303a29.76 29.76 0 0 1-6.97-11.07 29.5 29.5 0 0 1-6.969 11.07h-12.333c2.237-6.481 3.499-13.594 3.499-21.051h-3.499v-3.499c6.855 0 13.022-4.273 17.525-8.776v-8.776zm-17.523 21.051c0 5.994-.775 11.845-2.295 17.524h6.051c4.36-4.818 6.769-10.985 6.769-17.524zm14.024 0c0 6.539 2.409 12.706 6.769 17.524h6.051a67.4 67.4 0 0 1-2.295-17.524zm-1.75-9.12c-1.979 1.95-4.445 3.958-7.284 5.592h14.569c-2.811-1.663-5.277-3.671-7.285-5.592M52.872 572.163c0 6.712-3.586 12.562-8.949 15.803l2.266 8.26h-.03c2.725.344 4.848 2.668 4.848 5.478a5.54 5.54 0 0 1-5.535 5.536c-2.409 0-4.417-1.549-5.191-3.7H24.478l-1.004 3.7H19.66l5.248-19.274c-5.363-3.241-8.948-9.091-8.948-15.803zM45.5 599.869c-1.033 0-1.865.832-1.865 1.835s.832 1.836 1.865 1.836a1.85 1.85 0 0 0 1.836-1.836 1.83 1.83 0 0 0-1.836-1.835m-4.99-10.326c-1.922.66-3.959 1.062-6.11 1.062-2.15 0-4.187-.373-6.108-1.062L25.48 599.84h14.8a5.4 5.4 0 0 1 2.266-2.84zm-20.393-13.709c1.663 6.367 7.458 11.072 14.312 11.072 6.855-.001 12.648-4.705 14.282-11.072zm8.977-7.371h-3.9l1.835-5.535h3.901zm7.371 0h-3.9l1.864-5.535H38.3zm7.371 0h-3.872l1.835-5.535h3.9zm49.318-.029a10.96 10.96 0 0 1 9.063 4.761c.66-.258 1.319-.487 2.008-.659a17 17 0 0 1 4.187-.517l.408.006a16.9 16.9 0 0 1 11.552 4.956c3.069 3.069 4.932 7.227 4.961 11.845a11.1 11.1 0 0 0-4.502-2.524c-.516-2.438-1.75-4.618-3.442-6.339a12.7 12.7 0 0 0-8.977-3.727c-1.09 0-2.151.143-3.155.401a13.2 13.2 0 0 0-2.868 1.09c-.086.057-.172.115-.258.143a2.106 2.106 0 0 1-2.782-1.119c-.517-1.233-1.406-2.266-2.495-3.011a6.87 6.87 0 0 0-3.729-1.119 6.75 6.75 0 0 0-4.789 1.979 6.74 6.74 0 0 0-1.98 4.79c0 1.864.747 3.557 1.98 4.79a6.74 6.74 0 0 0 4.79 1.979h.544a2.094 2.094 0 0 1 2.008 1.99v.792a12.68 12.68 0 0 0 3.728 8.976 12.7 12.7 0 0 0 8.551 3.727 11 11 0 0 1-1.065-4.731 10.967 10.967 0 0 1 10.985-10.984 10.97 10.97 0 0 1 10.984 10.984 10.97 10.97 0 0 1-10.984 10.986c-2.499 0-4.804-.836-6.644-2.232-.904.139-1.862.224-2.821.224-4.675 0-8.92-1.893-11.988-4.962a16.84 16.84 0 0 1-4.904-10.641 10.77 10.77 0 0 1-6.138-3.097 10.97 10.97 0 0 1-3.213-7.773 10.97 10.97 0 0 1 10.985-10.984m-8.404 21.023c1.95 0 3.729.803 5.02 2.093a7.1 7.1 0 0 1 2.093 5.02 7.1 7.1 0 0 1-2.093 5.019 7.1 7.1 0 0 1-5.02 2.094 7.1 7.1 0 0 1-5.018-2.094 7.1 7.1 0 0 1-2.094-5.019c0-1.951.803-3.729 2.094-5.02a7.1 7.1 0 0 1 5.018-2.093m33.127.688a6.74 6.74 0 0 0-4.79 1.979 6.74 6.74 0 0 0-1.979 4.789c0 1.865.746 3.557 1.979 4.79a6.74 6.74 0 0 0 4.79 1.98 6.74 6.74 0 0 0 4.789-1.98 6.74 6.74 0 0 0 1.98-4.79 6.74 6.74 0 0 0-1.98-4.789 6.74 6.74 0 0 0-4.789-1.979m-33.127 2.151a4.27 4.27 0 0 0-3.04 1.262 4.27 4.27 0 0 0-1.262 3.04c0 1.205.488 2.267 1.262 3.041a4.27 4.27 0 0 0 3.04 1.262 4.27 4.27 0 0 0 3.041-1.262 4.27 4.27 0 0 0 1.262-3.041 4.27 4.27 0 0 0-1.262-3.04 4.27 4.27 0 0 0-3.04-1.262m19.848-30.028c1.262 0 2.38.516 3.212 1.348a4.48 4.48 0 0 1 1.319 3.212c0 1.261-.516 2.381-1.319 3.212a4.48 4.48 0 0 1-3.212 1.32c-1.262 0-2.381-.517-3.213-1.32a4.56 4.56 0 0 1-1.348-3.212c0-1.234.517-2.381 1.32-3.212a4.5 4.5 0 0 1 3.211-1.348zm-.03 2.839a1.7 1.7 0 0 0-1.204.488c-.315.315-.487.745-.487 1.233 0 .487.201.917.487 1.233.316.315.746.516 1.204.517a1.8 1.8 0 0 0 1.234-.517 1.733 1.733 0 0 0 0-2.466 1.7 1.7 0 0 0-1.234-.488m59.943-2.753v3.528l5.994 2.581c.574.258 1.09.631 1.577 1.119a5 5 0 0 1 1.578-1.119l5.994-2.581v-3.528h3.786v32.18c0 2.093-1.549 4.445-3.47 5.277l-5.995 2.581v5.421h-3.785v-5.421l-5.994-2.553c-1.893-.803-3.471-3.183-3.471-5.277v-32.208zm-.058 31.922c.001 1.032.803 2.237 1.749 2.639l3.958 1.691v-1.893c0-1.032-.802-2.237-1.749-2.638l-3.958-1.693zm11.272-.201c-.975.401-1.75 1.606-1.75 2.638v1.893l3.93-1.691c.975-.402 1.749-1.607 1.749-2.639h.029v-1.894zm-11.272-7.371c0 1.032.803 2.237 1.749 2.638l3.958 1.693v-1.893c0-1.032-.802-2.237-1.749-2.639l-3.958-1.692zm11.272-.201c-.975.402-1.75 1.607-1.75 2.639v1.893l3.93-1.693c.975-.401 1.749-1.606 1.749-2.638h.029v-1.893zm-11.272-7.371c0 1.033.803 2.237 1.749 2.639l3.958 1.692v-1.893c0-1.033-.802-2.237-1.749-2.639l-3.958-1.691zm11.272-.201c-.975.402-1.75 1.606-1.75 2.639v1.893l3.93-1.692c.975-.402 1.749-1.606 1.749-2.639h.029v-1.892zm-11.272-7.37c.001 1.032.803 2.237 1.749 2.639l3.958 1.691v-1.892c0-1.033-.802-2.238-1.749-2.639l-3.958-1.693zm11.272-.201c-.975.401-1.75 1.606-1.75 2.639v1.892l3.93-1.691c.975-.402 1.748-1.607 1.749-2.639h.029v-1.894zm86.056-4.69.029.029-4.446 4.445c6.252 7.515 5.88 18.7-1.176 25.755a26.5 26.5 0 0 1-3.241-3.93c-.545 3.586-2.466 7.057-5.793 9.81a18 18 0 0 1-3.097-3.356c-1.865 2.954-4.848 5.306-8.834 6.54a18 18 0 0 1-1.779-5.078c-3.04 3.528-7.8 5.507-13.336 4.991-.516-5.564 1.463-10.296 4.991-13.336a18 18 0 0 1-5.077-1.779c1.234-3.957 3.585-6.941 6.539-8.834a17.7 17.7 0 0 1-3.327-3.096c2.754-3.356 6.253-5.278 9.867-5.794a24.8 24.8 0 0 1-3.987-3.212c7.056-7.055 18.241-7.457 25.755-1.176l4.445-4.446zM229 594.059c-.946.574-1.835 1.234-2.581 2.037-1.549 1.693-2.495 3.872-2.811 6.31 2.782-.373 5.22-1.578 6.998-3.528v-.029c.517-.545.947-1.204 1.32-1.864-.918 0-1.864-.028-2.811-.114-.114-.947-.115-1.894-.115-2.812m12.734.603a22.6 22.6 0 0 1-4.904 1.75c-.229 1.606-.173 3.298.286 4.962 2.266-1.32 3.987-3.184 4.934-5.479h-.029c.057-.028.057-.085.057-.114-.143-.373-.229-.746-.344-1.119m6.625-8.833c-.917.373-1.835.688-2.81.974-.545 1.291-.861 2.668-.861 4.074.001 2.466.861 4.847 2.467 6.94l.029.028c1.606-2.064 2.466-4.474 2.466-6.94 0-1.778-.459-3.499-1.291-5.076m-9.98-1.463c-1.119.287-2.295.401-3.442.401-1.463 2.552-2.323 5.506-2.438 8.717 3.201-.147 6.145-.977 8.69-2.435 0-1.176.144-2.324.402-3.471-1.147.143-2.295.258-3.471.258 0-1.176.116-2.323.259-3.47m4.244-16.664a15.65 15.65 0 0 0-8.03 2.209 24.2 24.2 0 0 0 6.969 3.384l3.843 1.147-1.663 3.643a24 24 0 0 0-1.836 5.994 24 24 0 0 0 5.994-1.836l3.643-1.663 1.147 3.844a24.2 24.2 0 0 0 3.384 6.968c3.585-6.023 2.783-13.939-2.38-19.101a15.56 15.56 0 0 0-11.071-4.589m-12.39 16.205c-2.323.918-4.273 2.639-5.621 4.99l.029-.028c1.061.287 2.15.43 3.212.43.573 0 1.147-.058 1.72-.144a20.6 20.6 0 0 1 1.75-4.933c-.373-.086-.745-.172-1.09-.315m4.876-7.543c-2.466 0-4.876.861-6.941 2.467 2.065 1.606 4.475 2.466 6.941 2.466a10.7 10.7 0 0 0 4.101-.831c.287-.947.603-1.894.976-2.812-1.606-.832-3.327-1.29-5.077-1.29m85.295 18.829c3.212 0 5.107 1.669 6.471 3.163l.527.624c1.348 1.52 2.094 2.294 3.614 2.294h2.266v4.56h-2.266c-3.671 0-5.708-2.266-7.027-3.786s-2.094-2.266-3.614-2.266-2.208.66-3.614 2.266c-1.405 1.577-3.355 3.786-7.026 3.786s-5.708-2.266-7.027-3.786c-1.348-1.52-2.122-2.266-3.614-2.266s-2.179.66-3.585 2.266c-1.405 1.577-3.327 3.786-7.027 3.786h-2.266v-4.56h2.266c1.52 0 2.209-.688 3.614-2.294 1.405-1.578 3.356-3.786 7.027-3.787s5.708 2.267 7.027 3.787c1.348 1.519 2.036 2.294 3.613 2.294 1.578 0 2.209-.688 3.614-2.294 1.406-1.578 3.356-3.786 7.027-3.787m-7.371-27.504c1.979 2.065 6.596 7.285 6.596 11.845 0 5.679-4.417 10.325-9.866 10.325-5.449-.001-9.866-4.618-9.866-10.325 0-4.56 4.618-9.809 6.597-11.845l3.269-3.356zm-3.298 3.183s-5.306 5.479-5.306 8.662 2.381 5.765 5.306 5.765 5.305-2.581 5.306-5.765c0-3.178-5.289-8.644-5.306-8.662m79.158-6.409v6.883h6.883l-.028.057a3.45 3.45 0 0 1 3.441 3.442v6.855a6.85 6.85 0 0 1-2.008 4.847l-8.288 8.288v4.016c0 3.786-3.098 6.854-6.884 6.854H364.83c-3.786 0-6.855-3.097-6.855-6.883v-34.359zm-27.476 10.296v24.063a3.45 3.45 0 0 0 3.442 3.442h17.208a3.45 3.45 0 0 0 3.441-3.442v-24.063h-3.441v24.034h-3.442v-24.034h-3.441v24.034h-3.442v-24.034H368.3v24.034h-3.441v-24.034zm27.504 0v15.172l5.851-5.851a3.4 3.4 0 0 0 1.004-2.437l.029-.03v-6.854zm-27.504-6.855v3.442h24.063v-3.442zM39.679 632.865l1.749 5.249h-5.249v3.499c4.474 4.502 10.67 8.776 17.524 8.776v3.527h-3.5c0 7.457 1.263 14.57 3.5 21.052H41.399a29.8 29.8 0 0 1-6.97-11.07 29.5 29.5 0 0 1-6.968 11.07H15.128c2.237-6.482 3.499-13.595 3.499-21.052h-3.5v-3.499c6.855 0 13.022-4.272 17.525-8.775v-8.777zm-17.524 21.051a67.6 67.6 0 0 1-2.295 17.525h6.052c4.36-4.819 6.768-10.986 6.768-17.525zm14.024 0c0 6.539 2.41 12.706 6.769 17.525H49a67.4 67.4 0 0 1-2.295-17.525zm-1.75-9.12c-1.978 1.95-4.445 3.958-7.284 5.593h14.57c-2.811-1.664-5.278-3.671-7.286-5.593m87.276-3.799c0 6.711-3.585 12.562-8.948 15.803l2.265 8.259h-.029c2.725.344 4.848 2.668 4.848 5.479a5.54 5.54 0 0 1-5.535 5.535c-2.409 0-4.417-1.548-5.192-3.699H93.311l-1.003 3.699h-3.815l5.248-19.273c-5.363-3.241-8.948-9.092-8.948-15.803zm-7.371 27.705c-1.033 0-1.864.832-1.864 1.836s.832 1.836 1.864 1.836a1.85 1.85 0 0 0 1.836-1.836 1.83 1.83 0 0 0-1.836-1.836m-4.99-10.325c-1.922.659-3.959 1.061-6.11 1.061s-4.186-.373-6.108-1.061l-2.812 10.297h14.8a5.4 5.4 0 0 1 2.266-2.84zm-20.393-13.709c1.664 6.367 7.458 11.071 14.313 11.071 6.854 0 12.647-4.704 14.282-11.071zm8.978-7.371h-3.9l1.834-5.536h3.902zm7.371 0h-3.901l1.865-5.536h3.871zm7.371 0h-3.872l1.835-5.536h3.9z" opacity=".05"/></svg>