<svg width="412" height="637" viewBox="0 0 412 637" fill="none" xmlns="http://www.w3.org/2000/svg">
<path d="M348.561 264.659V269.989L357.617 273.889C358.484 274.279 359.264 274.842 360 275.579C360.693 274.842 361.517 274.279 362.384 273.889L371.44 269.989V264.659H377.16V313.279C377.16 316.442 374.82 319.996 371.917 321.252L362.86 325.152V333.342H357.141V325.152L348.084 321.295C345.224 320.082 342.84 316.485 342.84 313.322V264.659H348.561ZM348.474 312.889C348.474 314.449 349.687 316.269 351.117 316.875L357.097 319.432V316.572C357.097 315.012 355.883 313.192 354.453 312.585L348.474 310.029V312.889ZM365.504 312.585C364.031 313.192 362.861 315.012 362.86 316.572V319.432L368.797 316.875C370.27 316.269 371.44 314.449 371.44 312.889H371.483V310.029L365.504 312.585ZM348.474 301.449C348.474 303.009 349.687 304.828 351.117 305.435L357.097 307.992V305.132C357.097 303.572 355.883 301.752 354.453 301.145L348.474 298.588V301.449ZM365.504 301.145C364.031 301.752 362.86 303.572 362.86 305.132V307.992L368.797 305.435C370.27 304.828 371.44 303.009 371.44 301.449H371.483V298.588L365.504 301.145ZM348.474 290.008C348.474 291.568 349.687 293.389 351.117 293.996L357.097 296.552V293.692C357.097 292.132 355.883 290.312 354.453 289.706L348.474 287.149V290.008ZM365.504 289.706C364.031 290.312 362.86 292.132 362.86 293.692V296.552L368.797 293.996C370.27 293.389 371.44 291.568 371.44 290.008H371.483V287.149L365.504 289.706ZM348.474 278.569C348.474 280.129 349.687 281.949 351.117 282.555L357.097 285.112V282.252C357.097 280.692 355.883 278.872 354.453 278.265L348.474 275.708V278.569ZM365.504 278.265C364.031 278.872 362.86 280.692 362.86 282.252V285.112L368.797 282.555C370.27 281.948 371.44 280.129 371.44 278.569H371.483V275.708L365.504 278.265Z" fill="white"/>
<path d="M58.7974 391.805L61.3901 399.583H53.6118V404.768C60.2418 411.44 69.4221 417.772 79.5796 417.772V423H74.395C74.395 434.05 76.2646 444.59 79.5796 454.195H61.3472C56.7572 449.605 53.23 443.995 51.02 437.79C48.81 444.038 45.2819 449.605 40.6919 454.195H22.4175C25.7325 444.59 27.6021 434.05 27.6021 423H22.4175V417.815C32.5747 417.815 41.7119 411.483 48.3843 404.811V391.805H58.7974ZM32.8296 423C32.8296 431.882 31.6817 440.553 29.4292 448.968H38.397C44.857 441.828 48.4272 432.69 48.4272 423H32.8296ZM53.6118 423C53.6118 432.69 57.1821 441.828 63.6421 448.968H72.6099C70.3574 440.595 69.2095 431.882 69.2095 423H53.6118ZM51.02 409.485C48.0876 412.375 44.4324 415.35 40.2251 417.772H61.8149C57.6501 415.308 53.995 412.333 51.02 409.485Z" fill="white"/>
<path d="M167.479 477.683C164.697 476.858 174.135 478.18 167.918 476.727C169.232 476.801 170.569 476.888 171.913 476.991C172.215 477.327 172.537 477.667 172.826 478.003C171.032 477.874 169.239 477.766 167.478 477.685C167.478 477.684 167.479 477.684 167.479 477.683ZM164.76 481.201C166.44 480.477 171.474 480.757 166.122 479.444C165.677 479.698 165.177 479.948 164.713 480.203C162.79 479.815 160.912 479.46 159.02 479.138C158.308 479.213 157.604 479.294 156.905 479.378C156.041 478.836 155.184 478.301 154.319 477.773C155.094 477.863 155.886 477.961 156.674 478.064C159.879 477.772 162.552 477.813 166.811 478.125C166.457 477.971 166.115 477.82 165.749 477.667C167.835 478.056 169.926 478.48 172.053 478.939C170.162 478.916 168.089 478.924 166.402 478.958C168.992 479.984 173.865 480.11 176.336 480.296C179.763 480.551 178.959 480.823 181.445 481.049C181.843 481.087 181.935 480.8 182.721 480.923C186.771 481.536 194.3 483.183 189.715 483.002C183.285 481.698 177.576 481.359 171.211 480.409C172.846 481.419 169.359 481.233 164.76 481.201ZM281.887 503.855C280.022 504.18 275.991 503.726 273.415 503.14C273.412 503.14 273.41 503.139 273.407 503.139C272.847 503.015 271.632 502.346 273.47 502.586C276.505 502.966 278.041 503.887 279.678 503.441C280.394 503.589 281.144 503.721 281.887 503.855ZM288.623 503.889C290.508 504.038 289.693 504.696 287.286 504.555C287.286 504.556 287.286 504.556 287.286 504.557C286.274 504.484 288.275 504.023 284.628 504.479C283.864 504.081 283.211 503.713 282.52 503.316C283.366 503.341 284.13 503.352 285.076 503.361C284.438 503.981 286.736 503.734 288.623 503.889ZM193.087 483.308C193.51 482.816 192.205 482.55 190.09 481.746C192.148 482.156 194.26 482.601 196.263 483.043C195.193 483.124 194.186 483.222 193.087 483.308ZM143.789 478.716C143.786 478.716 143.783 478.716 143.78 478.717C143.089 478.851 142.418 478.991 141.74 479.136C141.293 478.971 140.852 478.809 140.406 478.649C137.925 479.084 135.462 479.616 133.039 480.276C133.199 479.589 137.703 478.937 140.116 478.298C143.85 478.122 145.551 478.454 145.835 478.956C145.151 478.87 144.473 478.789 143.789 478.716ZM96.8167 332.912C96.0686 332.582 95.3283 332.246 94.5796 331.891C95.3895 332.607 96.2111 333.286 97.0365 333.983C99.8306 335.021 99.6712 335.736 102.877 337.659C112.988 343.168 110.683 340.675 119.661 346.134C111.925 343.023 114.596 344.915 109.723 343.347C108.991 342.486 113.936 343.664 110.989 342.028C105.553 339.955 100.432 337.499 94.9748 333.884C95.0788 334.061 95.1824 334.237 95.2874 334.414C96.1382 334.971 97.0205 335.53 97.9142 336.076C96.8574 335.619 95.8319 335.157 94.7969 334.669C96.2357 335.12 93.1468 333.177 93.8816 333.013C94.2063 332.947 95.6928 333.627 96.5891 333.969C94.7121 332.465 92.8162 330.845 90.9908 329.146C92.1074 329.823 93.2254 330.467 94.3386 331.076C95.1574 331.702 95.974 332.307 96.8028 332.899C96.8075 332.903 96.8121 332.908 96.8167 332.912ZM360.065 116.247C360.426 119.07 359.105 124.188 357.338 126.259C358.763 123.118 359.678 119.711 360.065 116.247ZM146.094 479.377C145.733 479.293 145.384 479.212 145.024 479.131C146.591 478.864 148.158 478.632 149.692 478.428C149.993 478.711 150.3 478.994 150.609 479.278C149.086 479.285 147.667 479.312 146.094 479.377ZM242.209 496.994C242.082 496.954 241.968 496.919 241.865 496.886C241.091 496.641 240.882 496.559 239.719 496.141C239.72 496.142 239.721 496.143 239.723 496.143C239.196 495.95 234.856 494.388 235.414 494.337C237.534 495.002 239.803 495.739 242.003 496.467C242.061 496.486 242.119 496.506 242.177 496.525C242.2 496.685 242.17 496.827 242.209 496.994ZM216.385 489.077C216.382 489.075 216.379 489.074 216.377 489.073C215.569 488.821 214.816 488.549 213.982 488.317C217.096 488.782 217.404 489.514 220.15 490.093C222.893 490.677 224.743 490.855 226.747 492.337C225.864 492.209 224.91 492.12 223.974 492.005C220.192 490.561 219.107 490.599 215.921 490.083C216.076 489.747 216.23 489.413 216.385 489.077ZM143.35 352.932C144.181 352.64 144.972 353.18 145.061 353.198C145.059 353.198 145.058 353.198 145.056 353.199C151.837 353.763 144.129 353.346 150.505 354.241C149.539 354.231 148.589 354.221 147.634 354.199C146.207 353.799 144.75 353.35 143.35 352.932ZM350.836 394.348C350.771 394.468 350.713 394.597 350.647 394.717C348.506 391.789 347.536 391.45 345.788 388.998C347.597 390.638 349.278 392.424 350.837 394.347C350.836 394.347 350.836 394.348 350.836 394.348ZM260.37 502.845C256.298 502.221 253.029 501.503 249.414 500.099C249.411 500.097 249.409 500.096 249.406 500.095C249.193 500.011 250.326 500.062 250.056 499.919C249.261 499.737 248.429 499.56 247.613 499.367C247.562 499.137 247.517 498.909 247.467 498.681C249.727 499.411 251.844 500.057 254.155 500.704C253.841 500.5 253.5 500.289 253.202 500.087C255.201 500.544 257.196 500.96 259.148 501.328C258.4 501.508 257.645 501.683 256.889 501.853C258.058 502.2 259.22 502.529 260.37 502.845ZM297.612 364.162C298.217 364.474 296.968 364.352 297.931 364.747C298.893 365.138 300.8 365.449 300.261 365.683C298.907 365.33 297.487 364.98 296.113 364.655C300.304 366.515 304.841 367.356 304.621 368.172C300.575 366.623 297.03 365.695 292.946 364.862C293.276 364.247 297.501 364.8 295.101 363.494C295.928 363.709 296.8 363.938 297.603 364.161C297.606 364.161 297.609 364.162 297.612 364.162ZM114.108 516.214C114.522 518.576 116.466 523.549 117.378 526.534C117.594 527.309 117.515 530.11 117.37 530.173C116.834 530.342 115.463 527.563 116.541 530.729C116.053 529.713 115.586 528.737 115.106 527.648C114.847 527.986 114.591 528.326 114.335 528.662C114.987 530.006 115.572 531.121 116.259 532.389C116.18 532.505 116.1 532.622 116.021 532.739C113.831 528.182 114.733 531.185 113.199 528.857C114 531.252 114.806 533.425 115.817 535.833C115.149 534.507 114.414 532.986 113.92 531.864C113.266 531.976 114.716 534.602 114.873 535.136C115.453 538.036 109.51 524.621 108.539 523.531C109.252 525.97 110.002 528.133 110.952 530.531C110.553 529.911 110.163 529.287 109.787 528.676C108.268 523.315 106.501 517.268 106.529 510.682C106.472 510.079 106.431 509.483 106.407 508.905C106.123 509.076 105.84 509.243 105.559 509.424C105.513 508.499 105.503 507.627 105.537 506.688C106.403 509.445 106.195 505.584 107.95 501.553C107.577 503.892 107.171 506.587 107.798 506.476C107.637 498.467 114.255 490.952 120.883 487.431C122.465 486.538 122.193 485.633 126.42 484.247C126.3 484.377 126.325 484.535 126.267 484.674C133.546 482.008 138.298 481.228 146.302 481.176C145.821 480.912 145.347 480.649 144.866 480.391C143.167 480.627 141.503 480.902 139.794 481.228C138.574 480.915 140.301 480.406 135.183 481.174C131.03 481.919 133.546 481.685 132.46 482.033C130.982 482.533 129.516 482.5 128.005 483.153C126.837 483.683 128.222 483.6 125.017 484.592C126.091 483.669 127.365 482.73 128.516 481.893C129.345 481.786 130.18 481.697 131.032 481.62C130.226 481.941 129.454 482.269 128.692 482.615C131.492 481.61 134.147 480.865 137.184 480.193C136.329 481.041 139.311 480.352 141.047 480.121C143.697 479.76 141.47 480.445 143.166 480.231C144.826 480.03 146.794 479.357 149.839 479.435C148.184 479.783 150.444 480.039 150.012 480.344C149.568 480.64 146.363 480.782 149.459 481.04C155.523 480.766 148.897 479.637 153.063 479.468C157.936 479.329 159.092 481.304 157.587 481.619C156.396 481.869 152.571 481.72 151.365 482.047C158.333 482.671 158.496 481.701 159.695 481.519C164.066 481.006 161.013 482.888 166.239 482.565C166.107 482.949 165.998 483.296 165.869 483.664C166.743 483.672 167.331 483.632 168.401 483.685C165.351 482.608 167.897 482.888 169.231 483.032C171.331 483.259 168.128 482.532 168.695 482.497C170.213 482.392 172.615 482.801 171.176 482.289C171.826 482.523 172.507 482.765 173.142 483.003C175.545 483.094 181.632 482.329 176.048 481.862C176.634 481.323 178.42 481.874 179.77 482.176C181.117 482.479 181.154 482.09 182.351 482.357C187.146 483.454 183.859 483.576 183.013 483.964C189.48 484.732 183.233 483.324 192.427 484.84C193.401 484.599 189.233 483.31 192.827 483.772C193.381 484.642 195.738 485.635 200.75 487.018C201.279 486.963 201.783 486.903 202.303 486.848C204.857 488.15 203.277 488.486 208.544 488.911C205.436 489.752 207.602 489.235 211.861 490.99C212.734 491.348 210.563 491.119 211.784 491.605C212.337 491.825 213.791 491.953 215.153 492.515C215.85 492.796 218.801 494.224 221.092 494.582C219.678 493.395 224.052 493.97 220.622 492.347C227.286 494.4 231.899 495.443 224.262 494.245C225.865 494.951 227.464 495.664 229.075 496.391C230.294 496.573 231.535 496.768 232.767 496.965C232.761 497.617 232.516 497.704 237.114 499.063C235.076 498.56 233.107 498.094 231.039 497.61C230.934 497.709 230.616 497.747 230.647 497.884C232.801 498.33 237.978 499.868 240.63 500.619C241.132 500.761 241.539 500.868 241.815 500.93C243.587 501.33 240.276 500.209 240.821 500.215C245.349 500.297 244.709 501.1 247.672 501.742C249.399 502.106 245.402 500.784 246.323 500.993C249.775 501.796 250.962 502.845 254.085 503.645C253.064 502.98 252.12 502.315 251.224 501.657C254.251 502.502 257.988 503.393 260.875 503.851C262.023 504.034 261.222 503.568 261.412 503.586C262.314 503.68 266.197 504.221 266.623 504.277C269.71 504.768 269.737 505.185 272.668 505.573C271.518 505.471 270.425 505.358 269.277 505.226C268.662 505.809 268.026 506.386 267.391 506.962C270.417 507.482 273.127 507.871 276.291 508.202C274.019 507.778 271.977 507.318 269.843 506.798C273.213 506.725 276.759 506.543 280.141 506.196C281.888 506.626 283.487 507.015 285.355 507.367C290.246 507.286 289.177 505.91 291.473 507.007C292.825 506.845 294.286 506.647 295.695 506.421C295.507 506.606 295.32 506.791 295.129 506.975C296.85 506.727 298.532 506.436 300.174 506.102C298.35 505.757 296.555 505.325 294.743 504.896C298.048 504.475 298.133 504.924 298.642 504.998C299.969 505.179 302.436 504.344 303.545 504.446C303.927 504.497 300.701 505.368 301.893 505.559C302.121 505.616 306.816 506.223 309.427 505.198C309.315 504.964 309.032 504.712 308.857 504.47C312.475 503.41 314.717 504.011 314.35 504.534C316.216 503.687 318.98 502.616 319.233 502.067C320.204 501.672 321.152 501.264 322.091 500.836C321.516 502.194 325.362 500.227 325.246 499.294C323.618 500.089 322.047 500.784 320.38 501.455C321.174 499.881 316.146 501.775 326.537 497.751C328.697 497.23 323.105 499.446 324.849 499.001C327.724 497.824 329.994 496.272 332.662 494.954C335.875 493.248 332.655 496.384 338.93 490.67C323.056 500.367 341.014 489.076 345.837 481.785C348.465 480.992 353.846 475.511 357.801 466.068C356.991 466.85 355.744 469.785 354.69 471.31C353.647 472.825 354.445 471.001 353.111 472.843C351.794 474.698 348.807 478.476 347.119 480.027C348.277 478.464 353.042 470.28 350.104 475.85C353.064 472.201 354.623 470.501 357.223 465.234C357.334 463.349 357.053 463.369 358.978 458.059C358.699 461.547 361.436 455.607 361.844 457.241C360.305 461.085 360.203 458.608 358.982 460.655C358.877 460.868 357.634 464.447 357.223 465.234C359.542 462.085 360.27 460.872 360.266 463.479C361.255 460.888 361.914 459.29 361.567 458.901C361.946 458.423 362.322 457.936 362.688 457.455C362.963 456.593 363.185 455.81 363.455 454.892C362.416 455.959 363.562 453.637 363.685 451.795C363.785 449.966 362.775 452.19 363.764 447.393C363.295 448.963 362.832 450.387 362.295 451.877C362.898 448.782 363.315 445.652 363.545 442.531C362.879 444.667 361.327 449.167 360.789 448.902C361.341 447.581 361.766 442.729 361.782 442.211C361.977 440.182 362.188 441.325 362.217 441.173C362.763 437.979 362.736 435.324 363.3 434.109C363.111 431.655 363.219 429.838 363.045 427.255C362.939 425.832 362.564 426.142 362.567 425.311C362.358 419.834 363.925 424.795 360.806 414.602C360.853 415.922 360.847 417.204 360.814 418.499C360.491 417.358 360.143 416.243 359.76 415.115C359.621 414.335 359.47 413.567 359.303 412.796C359.878 412.651 360.455 412.509 361.029 412.365C360.819 411.502 360.594 410.651 360.348 409.791C360.876 411.223 361.352 412.667 361.784 414.142C361.92 414.253 362.052 414.355 362.187 414.467C361.796 412.199 361.307 409.99 360.682 407.751C360.473 407.779 360.263 407.808 360.054 407.837C358.502 402.967 358.561 402.693 355.778 398.684C353.933 395.387 351.424 393.435 349.826 392.029C349.441 391.367 349.042 390.713 348.617 390.059C348.165 389.806 347.708 389.558 347.252 389.324C346.77 388.463 346.249 387.604 345.704 386.766C344.92 386.808 344.695 386.678 347.145 389.481C345.855 388.934 341.273 384.411 339.098 382.857C337.509 381.619 339.686 382.361 339.515 382.172C339.041 381.606 336.874 380.408 335.775 379.869C335.55 379.753 335.372 379.66 335.266 379.597C332.573 378.004 330.622 377.067 328.18 375.766C327.705 375.511 326.496 374.556 326.385 374.493C325.537 374.03 323.298 372.843 323.043 372.729C309.707 366.913 323.536 374.115 311.035 369.125C311.347 369.455 311.626 369.773 311.927 370.102C310.965 369.759 309.995 369.42 309.035 369.095C307.879 368.512 309.447 368.723 306.957 368.133C307.194 367.949 307.433 367.765 307.68 367.585C306.584 367.353 305.53 367.144 304.416 366.925C303.021 365.524 296.725 363.473 297.458 362.638C297.7 362.332 302.311 363.317 300.032 362.258C298.114 361.623 299.31 362.404 298.515 362.197C292.784 360.751 293.261 360.329 290.851 359.878C290.418 360.028 289.967 360.181 289.528 360.335C288.656 360.05 287.781 359.771 286.9 359.497C286.656 359.613 286.403 359.729 286.16 359.846C286.993 360.043 287.931 360.271 288.696 360.463C287.48 360.783 277.61 359.058 281.474 359.282C283.063 359.368 285.812 360.064 284.215 358.935C281.583 358.485 278.493 357.999 275.693 357.624C275.635 357.446 275.582 357.269 275.523 357.091C271.739 356.557 275.055 357.787 274.985 358.136C274.125 357.998 273.257 357.862 272.4 357.734C272.062 357.518 271.746 357.298 271.381 357.084C271.306 357.332 270.727 357.829 268.177 357.237C266.537 356.861 269.243 356.588 266.062 356.239C266.247 356.668 267.316 357.288 263.789 356.959C263.493 356.503 263.058 356.066 262.84 355.601C258.407 355.472 256.425 354.616 251.235 354.637C247.902 354.648 243.346 355.4 241.323 353.689C238.919 353.518 239.655 353.959 238.938 354.013C235.541 354.273 233.08 353.432 232.454 353.365C228.484 352.948 226.638 353.172 223.397 352.752C223.568 353.052 223.659 353.334 223.795 353.626C226.777 353.24 228.334 353.291 232.496 353.523C231.097 353.535 229.691 353.554 228.276 353.577C228.5 353.824 228.722 354.071 228.937 354.316C241.894 353.817 238.809 355.176 227.984 355.17C227.059 354.7 226.098 354.233 225.18 353.767C218.932 354.323 215.943 353.715 208.869 353.549C208.019 353.53 204.94 353.782 203.626 353.794C203.648 353.796 203.669 353.797 203.691 353.799C202.872 354.219 203.981 354.414 204.113 354.79C203.399 354.837 202.686 354.883 201.974 354.93C200.387 354.642 200.946 354.407 197.785 354.472C198.21 354.758 198.631 355.044 199.057 355.331C195.587 355.337 193.356 355.023 190.143 355.139C190.689 355.034 191.223 354.928 191.758 354.823C184.75 354.504 190.333 352.866 185.046 353.652C184.713 353.501 184.388 353.35 184.056 353.199C186.221 353.191 188.4 353.174 190.581 353.15C190.627 352.943 190.676 352.737 190.713 352.53C188.371 352.579 186.033 352.624 183.721 352.654C185.41 352.538 187.116 352.416 188.82 352.289C186.111 352.17 183.449 352.04 180.761 351.892C183.614 352.704 179.896 352.733 180.579 353.499C175.786 352.768 172.102 351.875 164.716 351.983C163.261 351.995 164.016 352.594 159.902 351.642C160.841 352.567 155.611 352.518 156.204 353.364C157.652 353.461 159.158 353.562 160.575 353.621C158.988 353.221 158.788 352.445 161.236 352.402C164.374 352.351 168.815 353.093 168.684 352.238C169.918 352.336 171.071 352.407 172.28 352.486C171.774 352.677 171.278 352.869 170.781 353.058C174.227 352.868 176.329 353.025 177.973 353.594C173.902 353.62 169.817 353.593 165.741 353.485C166.337 353.554 166.943 353.623 167.542 353.688C164.425 354.056 167.595 354.773 161.81 354.514C161.863 354.27 161.909 354.025 161.962 353.78C159.792 354.312 154.054 353.772 155.813 354.698C154.102 354.299 153.766 354.112 152.725 354.412C148.154 353.328 145.385 352.138 147.112 351.515C145.429 351.419 143.696 351.292 142 351.141C142.933 351.544 143.876 351.938 144.825 352.325C141.858 351.854 138.919 351.305 136.016 350.667C135.896 349.947 141.663 351.569 140.087 350.621C139.77 350.436 138.157 350.399 137.762 350.244C133.601 348.592 140.262 350.537 139.104 349.689C132.742 348.153 138.032 348.432 129.133 347.007C128.96 346.747 128.77 346.478 128.614 346.223C125.626 345.341 125.735 345.849 123.157 345.09C121.54 344.603 119.852 343.129 117.936 342.954C117.592 342.901 120.124 345.082 114.042 342.449C109.388 340.277 111.64 340.536 109.291 339.087C106.932 337.658 101.059 335.228 100.138 333.217C101.253 334.149 102.753 335.204 104.051 336.122C104.715 336.273 105.358 336.405 106.014 336.537C102.759 334.999 99.7672 332.598 97.5138 331.578C94.0789 328.166 89.5544 325.024 90.078 326.672C91.3657 327.625 90.2675 326.176 91.8392 327.839C91.885 328.146 91.9426 328.46 91.9913 328.767C89.0278 326.264 87.1916 324.469 88.863 325.182C88.4412 324.776 88.0252 324.367 87.607 323.95C87.2191 324.205 86.8377 324.468 86.4478 324.721C85.8949 324.263 85.3416 323.794 84.792 323.319C84.2933 322.682 83.7861 322.021 83.304 321.372C84.6177 321.676 85.7405 322.923 82.0321 318.334C81.8371 318.487 81.6372 318.633 81.442 318.786C78.3504 314.797 78.6134 314.235 74.8626 309.309C78.3766 312.612 78.976 315.589 80.2798 314.483C80.9793 315.492 81.6927 316.489 82.4096 317.457C82.7172 317.426 83.0234 317.392 83.3239 317.352C78.8137 312.773 71.0969 304.759 69.8673 300.579C69.4769 300.207 69.1004 299.82 68.6974 299.436C67.0152 295.396 64.8315 294.521 63.5654 290.338C63.4429 289.882 65.0746 290.152 62.4793 285.055C62.3809 285.264 62.1419 285.465 61.9898 285.67C61.5302 284.487 61.106 283.335 60.718 282.242C60.4772 282.12 60.2318 281.988 59.9897 281.865C60.7618 283.679 61.6531 285.675 62.5476 287.584C61.7176 286.072 60.8206 284.36 60.0865 282.935C60.7522 284.98 61.2862 286.058 60.2603 284.948C59.3783 283.182 58.5687 281.506 57.7395 279.72C57.5553 279.582 57.3705 279.445 57.1863 279.306C57.2688 280.311 57.3663 281.315 57.4531 282.31C56.1144 278.941 54.8364 275.793 53.8823 272.751C53.5215 271.587 53.2263 270.45 53.0118 269.334C52.8927 268.66 54.0791 270.76 52.1937 266.57C52.3882 266.429 52.5254 266.253 52.7013 266.11C50.3606 261.009 50.0347 259.127 49.235 253.357C49.6187 257.13 49.1616 253.79 48.7463 252.893C48.453 252.28 49.0084 254.795 48.7876 254.546C48.5553 254.304 47.2159 251.134 47.7237 253.977C50.6488 260.531 49.4751 262.857 53.2609 271.176C52.5903 269.939 51.9379 268.677 51.312 267.408C51.4142 268.072 51.5091 268.667 51.6346 269.384C50.1924 264.488 50.8599 266.883 49.9983 264.959C49.1474 263.03 47.9299 259.391 47.2912 256.905C47.0891 256.122 47.5768 256.881 47.2033 255.101C46.9408 253.895 45.8436 250.645 46.2538 249.779C46.5235 249.228 48.3637 254.352 47.1411 247.026C47.2711 245.595 47.7053 249.124 47.7718 249.19C48.2726 249.752 47.8443 245.238 47.3175 243.189C47.2703 243.022 47.1491 244.712 46.8127 242.93C46.041 238.692 46.2869 236.164 46.6881 233.388C46.1025 233.116 45.2683 229.489 45.6871 224.974C45.5311 224.736 45.3739 224.507 45.2182 224.267C45.2708 224.975 45.3288 225.681 45.3945 226.387C45.2659 227.149 45.1728 227.96 45.0416 228.709C44.9809 224.147 44.2756 223.454 44.1313 221.225C43.8375 213.572 45.5087 218.389 45.7417 219.747C45.5067 220.701 45.2692 221.627 45.0514 222.582C45.2603 222.488 45.4711 222.393 45.6809 222.309C46.7004 211.19 47.0809 220.727 48.0974 215.199C47.3029 213.651 47.7787 209.479 49.6145 204.512C49.7444 203.945 49.8828 203.379 50.0207 202.815C49.904 202.685 49.6886 202.631 49.6356 202.454C51.1208 196.255 53.0875 195.719 53.3832 195.202C54.8402 192.932 54.7653 190.724 55.0518 189.992C56.2689 186.95 57.0204 186.25 58.2228 183.373C59.5602 180.301 58.2622 182.207 58.4839 181.172C58.662 180.34 59.9032 177.981 60.2734 176.916C60.2114 177.388 60.1262 177.9 60.0736 178.37C62.0173 175.439 63.7074 173.178 66.0401 169.978C67.54 165.542 71.8216 164.055 69.4016 164.082C66.91 166.934 65.5453 168.508 63.9857 169.922C65.3701 167.82 66.805 165.815 68.3447 163.828C68.9629 163.389 69.4443 163.115 70.1589 162.59C71.0123 160.889 74.0836 157.845 75.2245 156.565C80.519 150.705 78.3614 151.67 84.7353 148.125C80.7306 151.432 81.0833 151.914 77.2644 155.334C78.3516 154.874 80.2273 153.07 79.3206 154.576C82.9328 151.194 81.4893 151.909 82.6978 150.366C83.7504 149.035 86.459 146.98 86.0439 146.735C86.4728 146.728 86.8325 146.763 87.2592 146.761C89.9094 144.846 92.5597 143.121 95.3993 141.453C94.3246 142.384 93.2827 143.328 92.2711 144.283C93.194 143.808 94.1284 143.343 95.0724 142.892C101.339 137.906 114.713 134.314 111.98 133.25C115.522 131.865 116.076 131.984 118.18 131.701C118.353 131.484 118.529 131.294 118.699 131.061C121.159 130.465 122.795 129.41 124.943 129.011C127.096 128.618 127.759 129.038 127.863 128.069C129.304 128.004 130.814 127.904 132.188 127.88C132.962 127.513 133.746 127.154 134.532 126.801C135.851 126.674 137.185 126.562 138.528 126.467C139.2 125.901 144.375 125.398 146.63 124.908C148.849 125.184 148.96 126.614 154.031 126.047C153.882 125.686 153.735 125.325 153.584 124.964C154.738 124.977 155.902 125.001 157.081 125.036C157.156 125.154 157.221 125.272 157.295 125.39C156.697 125.373 156.11 125.36 155.517 125.347C156.039 125.528 156.551 125.71 157.065 125.896C158.827 125.531 160.623 125.192 162.458 124.881C159.981 124.666 157.536 124.5 155.124 124.384C158.132 123.977 160.283 124.203 162.998 123.891C165.372 124.401 164.488 124.695 163.53 125.245C164.428 125.198 165.242 125.159 166.089 125.124C165.495 125.678 167.049 125.982 161.963 125.948C162.313 126.103 162.669 126.251 163.009 126.414C163.841 126.388 164.394 126.523 165.256 126.47C167.635 126.326 169.539 125.424 169.384 125.077C169.295 124.892 166.891 125.175 166.994 124.928C167.241 124.322 172.735 124.697 164.827 123.944C167.447 123.581 168.035 123.885 170.975 124.104C170.752 123.89 170.535 123.678 170.319 123.466C171.686 123.609 173.064 123.766 174.45 123.938C172.493 124.866 182.579 125.89 173.42 126.253C176.155 126.442 178.702 126.672 181.316 126.955C180.767 127.014 180.221 127.075 179.678 127.139C178.503 126.985 177.379 126.846 176.182 126.712C177.574 127.001 178.902 127.297 180.273 127.612C183.561 127.65 184.917 127.429 186.502 127.136C182.644 126.378 183.864 126.973 180.868 126.79C180.998 126.506 180.884 126.225 181.172 125.94C182.648 126.665 187.805 126.773 189.03 126.909C192.58 127.27 189.731 127.506 192.072 127.83C194.407 128.159 197.27 128.24 199.136 129.154C199.156 128.82 199.055 128.454 198.963 128.132C202.738 128.655 201.932 128.931 202.311 129.046C208.154 130.963 211.582 130.937 218.576 132.499C217.757 132.196 216.883 131.895 215.992 131.591C221.368 132.135 217.877 131.496 213.269 130.238C217.632 131.275 220.086 131.262 223.108 131.838C226.103 132.402 231.245 134.136 233.049 134.915C228.615 134.043 224.014 132.551 219.329 131.532C219.78 131.989 220.228 132.394 220.687 132.89C223.705 132.904 225.27 133.814 226.195 134.156C228.923 135.173 229.004 134.568 230.536 135.676C230.527 135.439 230.527 135.242 230.515 135.019C236.238 136.713 242.089 138.967 246.15 139.431C246.324 140.06 246.418 140.642 246.638 141.298C246.99 141.356 247.33 141.427 247.662 141.509C249.794 142.034 251.512 142.906 253.302 143.383C255.358 143.926 254.724 143.273 257.123 143.825C257.565 143.925 258.388 144.458 259.498 144.571C260.515 144.667 265.2 144.401 265.312 145.789C267.396 146.354 269.322 146.894 271.287 147.392C269.35 147.001 267.375 146.573 265.373 146.114C266.987 146.878 268.572 147.614 270.149 148.331C270.428 148.105 270.708 147.874 270.975 147.649C275.438 148.368 278.994 149.609 283.447 150.306C284.23 150.423 282.428 149.544 285.916 150.288C289.504 151.009 291.655 152.448 297.809 152.639C298.122 152.647 299.978 152.009 302.027 152.694C302.499 152.852 300.471 152.908 301.561 153.146C302.594 153.408 307.66 153.728 308.069 154.104C308.017 153.963 307.701 153.813 307.549 153.667C308.421 153.616 309.29 153.554 310.146 153.485C310.227 153.731 310.314 153.978 310.395 154.224C315.164 153.552 317.784 152.625 325.043 151.83C322.949 151.816 320.813 151.718 318.857 151.537C318.337 151.838 317.806 152.136 317.275 152.429C313.808 152.581 310.651 152.545 307.246 152.378C306.681 152.653 306.118 152.924 305.536 153.191C304.578 153.121 303.782 153.048 302.913 152.963C303.14 152.768 303.367 152.573 303.599 152.377C301.909 152.344 300.173 152.276 298.407 152.172C302.041 151.311 308.248 152.803 307.859 151.751C308.649 151.922 309.433 152.086 310.21 152.242C310.587 151.738 311.992 151.899 314.909 151.839C314.248 151.627 313.452 151.417 312.914 151.185C315.766 151.466 320.365 151.062 323.283 150.745C324.536 150.617 323.347 151.159 323.723 151.145C325.717 151.091 328.925 149.782 329.77 149.613C334.204 148.814 337.527 148.998 341.667 146.181C336.966 148.108 339.515 147.025 337.685 147.319C337.116 147.411 330.768 149.405 338.578 146.642C338.979 146.503 342.783 145.09 345.593 143.647C348.558 142.151 350.696 140.814 348.923 142.576C350.745 140.991 352.118 139.481 353.493 137.773C358.45 134.786 355.912 135.158 354.268 135.816C354.848 135.148 355.366 134.496 355.903 133.784C355.553 136.038 361.294 127.647 361.543 124.123C361.755 123.014 360.487 125.879 361.174 123.394C361.605 122.248 362.032 120.939 362.358 119.673C361.425 121.385 361.93 117.759 361.308 117.734C362.16 115.588 363.308 113.794 363.825 115.156C363.736 113.148 363.492 111.159 363.107 109.223C363.036 110.14 362.935 111.061 362.802 111.963C363.32 105.486 359.86 97.8962 360.388 96.2662C360.055 95.4782 359.698 94.6954 359.316 93.926C359.015 93.7773 358.717 93.6413 358.415 93.502C356.856 90.0306 354.796 86.7356 352.268 83.8276C354.67 86.2601 355.445 86.7676 357.225 89.9307C356.683 88.6174 356.062 87.3151 355.385 86.0659C351.278 82.3144 350.75 81.7316 343.892 77.3405C343.659 77.0268 338.082 74.2007 337.816 74.2306C336.931 73.7386 338.468 73.8053 338.078 73.5715C337.086 72.6626 329.437 70.997 329.502 71.0695C330.415 70.2639 338.073 69.8683 345.402 73.6027C352.81 77.0909 358.418 84.0665 360.331 87.1163C368.644 99.6303 370.691 116.434 363.951 130.355C357.22 144.537 342.529 152.316 328.58 154.99C300.169 160.094 272.888 152.881 246.719 144.321C233.314 139.795 220.397 136.2 206.545 133.487C205.872 133.357 206.121 133.643 205.833 133.597C204.036 133.305 202.424 132.645 201.699 132.501C200.242 132.212 200.989 132.682 199.925 132.499C189.082 130.652 179.05 129.358 167.985 129.125C167.285 129.113 168.005 128.86 166.775 128.883C166.132 128.896 164.196 129.282 162.683 129.297C157.504 129.354 153.48 129.39 148.048 129.88C145.149 130.141 140.88 130.631 137.627 131.182C136.209 131.417 134.787 131.864 133.429 132.137C131.516 132.528 131.801 132.091 131.497 132.128C130.125 132.316 130.03 132.765 128.768 133.047C126.437 133.586 126.234 133.339 123.364 134.152C121.275 134.731 116.564 136.469 114.127 137.477C107.961 139.387 100.854 142.998 95.8919 146.217C92.953 148.118 92.5061 148 91.3337 148.793C87.1676 151.698 84.5558 154.451 81.1024 157.644C76.5793 161.879 72.6443 165.832 69.0553 170.687C68.4798 171.474 68.8971 171.505 68.3508 172.294C66.3183 175.218 64.0241 179.124 62.5009 181.9C60.8173 184.98 59.778 185.955 58.488 189.176C58.1198 190.126 58.4193 190.569 57.8491 192.169C56.9402 194.722 55.6158 197.407 55.0201 199.218C54.2236 201.698 55.2805 199.651 54.2935 203.01C54.2543 203.148 53.7992 203.571 53.6314 204.307C53.1586 206.454 53.4405 206.295 52.7744 209.433C52.6908 209.727 51.6533 213.874 51.6116 214.301C51.2085 216.766 50.6234 221.773 50.6261 223.259C50.6072 228.56 51.2637 224.394 50.0789 228.879C50.3237 230.871 50.6234 232.833 50.9744 234.913C50.6527 233.522 50.6291 239.227 50.7246 239.626C51.2294 242.905 51.4113 240.902 51.8764 245.059C50.1748 239.697 52.4619 250.452 53.1343 252.79C54.5571 259.129 56.344 265.053 58.6265 270.825C60.6207 275.833 62.5259 280.235 64.9741 285.156C66.8214 288.872 69.4207 293.222 71.708 296.975C72.2225 297.818 71.637 297.303 72.0876 298.044C72.5393 298.777 72.2539 297.831 72.7614 298.669C75.8192 303.693 78.3997 308.113 82.362 311.949C82.4705 312.217 82.4112 312.256 82.63 312.666C85.9001 315.865 91.5842 322.509 94.0544 324.615C97.9714 328.081 99.172 328.442 102.242 330.647C106.217 333.538 112.511 337.532 110.131 334.951C113.12 336.5 116.049 337.848 119.176 339.225C119.524 339.378 119.169 339.561 119.308 339.623C120.19 340.02 120.582 339.878 121.194 340.097C122.862 340.68 120.043 339.986 122.442 340.769C123.716 341.163 124.487 341.228 128.029 342.303C149.479 348.757 174.687 348.921 198.396 349.005C200.037 349.009 198.963 348.716 201.015 348.736C208.095 348.794 220.951 349.338 227.112 349.445C233.338 349.542 231.909 349.082 235.805 349.049C236.556 349.046 235.931 349.263 236.61 349.296C241.207 349.509 246.565 350.22 250.286 350.577C252.732 350.813 252.555 350.417 254.252 350.541C256.776 350.73 259.343 351.394 260.695 351.561C266.976 352.34 271.432 352.673 277.236 353.856C277.021 353.732 276.883 353.629 276.703 353.513C283.687 354.755 290.584 356.299 297.4 358.187C297.1 358.025 296.81 357.865 296.51 357.703C304.495 359.97 303.349 360.619 303.153 358.688C303.757 358.807 304.4 358.93 304.978 359.052C304.52 359.869 309.034 361.919 315.003 364.409C315.46 364.592 318.679 364.892 317.981 365.746C318.831 365.806 319.348 365.823 320.074 365.875C321.205 366.676 322.35 367.493 323.472 368.318C324.164 368.564 324.865 368.82 325.558 369.076C325.741 368.933 325.75 368.704 326.049 368.616C329.189 369.944 335.267 373.194 337.702 374.475C337.946 374.6 338.19 374.725 338.434 374.85C344.543 377.923 350.171 382.217 353.186 386.608C354.948 388.611 353.602 386.276 356.022 389.456C356.131 389.94 356.224 390.396 356.325 390.897C358.908 393.03 358.885 393.923 360.814 397.878C362.061 400.563 363.066 402.281 364.04 404.913C364.283 405.585 363.996 405.584 364.172 406.038C364.801 407.556 366.478 411.9 366.734 413.04C369.303 423.183 369.625 432.288 368.423 442.075C368.285 443.125 368.715 441.793 368.568 442.881C368.317 444.633 368.055 443.546 367.89 444.554C367.386 447.357 367.838 447.467 366.992 451.367C364.182 464.233 356.837 478.076 347.184 487.931C346.886 488.242 347.084 488.397 346.756 488.736C344.595 490.96 342.096 492.739 339.914 494.484C336.34 497.317 333.582 499.569 329.641 501.763C321.841 506.022 314.103 508.496 305.31 510.18C298.002 511.513 291.722 512.037 283.545 511.858C268.612 511.451 253.831 508.405 239.566 503.836C221.047 497.915 202.251 492.933 183.405 489.429C182.561 489.274 182.943 489.115 182.683 489.081C180.224 488.767 179.975 489.038 179.213 488.285C176.097 487.938 174.991 488.248 171.308 487.76C169.283 487.507 170.857 486.942 167.428 486.958C164.38 487.037 167.645 487.596 158.659 486.617C158.417 486.594 157.219 486.084 155.338 486.145C153.44 486.222 155.682 486.546 151.085 486.616C140.761 486.866 126.396 487.833 118.321 494.806C118.087 495.004 116.804 496.195 115.838 497.588C114.83 498.983 114.155 500.59 113.983 501.15C113.386 503.321 113.774 502.945 113.338 505.825C113.094 508.147 112.727 510.169 113.19 513.104C113.257 513.445 113.682 514.027 114.108 516.214ZM86.4088 325.226C85.6495 325.005 83.5802 325.038 80.8389 321.502C80.5864 321.172 82.8088 322.16 81.2746 320.287C82.9149 321.923 84.6564 323.651 86.4099 325.225C86.4095 325.225 86.4092 325.226 86.4088 325.226ZM112.534 536.551C111.018 533.46 109.681 530.403 108.52 527.226C109.493 529.276 110.655 531.496 111.756 533.395C111.991 534.431 112.247 535.478 112.534 536.551ZM336.663 381.131C336.665 381.132 336.668 381.134 336.671 381.135C336.258 380.929 335.842 380.728 335.422 380.534C332.714 379.273 330.014 378.094 327.327 376.992C327.704 377.025 328.082 377.059 328.46 377.094C330.855 378.023 333.261 379.015 335.67 380.066C335.773 380.111 335.877 380.157 335.98 380.202C336.213 380.51 336.441 380.82 336.663 381.131ZM355.754 398.917C356.655 400.894 356.157 400.551 356.461 401.719C356.462 401.719 356.462 401.718 356.463 401.718C356.545 402.025 357.114 403.36 357.33 403.88C357.396 403.623 357.434 403.311 357.488 403.037C360.032 407.521 361.621 417.19 356.88 405.614C357.144 405.704 357.404 405.788 357.667 405.883C355.317 400.111 351.735 394.023 355.754 398.917ZM56.4736 282.376C54.3102 278.86 53.2955 277.009 51.9982 273.516C51.5735 272.358 51.133 271.015 50.6556 269.347C51.1661 270.19 51.6865 271.024 52.2166 271.848C52.3144 272.335 52.4153 272.82 52.5195 273.304C52.6621 273.951 52.8062 274.594 52.9523 275.236C52.9536 275.24 52.9548 275.243 52.9561 275.246C53.2358 275.378 53.516 275.51 53.792 275.632C54.6671 277.938 55.5636 280.192 56.4736 282.376ZM233.877 495.811C232.83 494.058 232.998 494.925 237.281 495.969C238.768 496.335 237.424 495.651 238.341 495.906C239.963 496.355 241.073 496.773 241.784 497.13C243.257 497.866 243.035 498.335 242.19 498.398C241.941 498.32 241.692 498.241 241.443 498.162C238.894 497.349 236.347 496.557 233.886 495.814C233.883 495.813 233.88 495.812 233.877 495.811ZM108.037 499.119C108.036 499.122 108.034 499.125 108.033 499.129C107.663 499.143 108.446 497.043 107.191 499.254C107.886 497.449 108.787 495.769 109.906 494.196C109.604 494.674 109.313 495.172 109.049 495.669C109.403 495.303 109.77 494.952 110.143 494.616C110.221 493.858 110.747 493.428 112.158 492.07C111.489 492.19 110.818 492.339 110.143 492.524C111.747 490.732 113.595 489.211 115.582 487.939C115.665 488.006 115.749 488.073 115.833 488.14C116.475 487.522 117.095 486.962 117.786 486.398C118.054 486.382 118.313 486.372 118.581 486.362C119.476 485.75 120.315 485.222 121.225 484.7C121.649 484.853 119.573 485.861 123.297 484.195C122.233 484.948 121.244 485.729 120.326 486.543C115.071 489.149 110.291 493.473 108.037 499.119ZM272.441 504.978C266.309 504.226 268.044 504.196 269.579 503.756C270.532 504.175 271.493 504.583 272.441 504.978ZM213.725 354.604C211.89 355.053 210.062 355.502 208.163 355.942C204.403 356.191 200.683 355.351 203.488 355.023C206.866 354.631 210.451 355.08 213.725 354.604ZM128.531 348.556C132.938 349.962 128.602 349.382 127.491 349.385C126.387 348.533 124.647 348.078 121.932 347.089C124.509 347.949 127.804 348.322 128.532 348.555C128.532 348.555 128.532 348.556 128.531 348.556ZM286.666 361.863C288.443 362.254 290.245 362.557 291.8 363.114C291.211 363.413 288.131 362.25 290.247 363.439C289.109 363.17 287.972 362.911 286.846 362.665C287.621 362.566 286.705 362.147 286.67 361.866C286.668 361.865 286.667 361.864 286.666 361.863ZM330.123 493.661C333.36 492.167 333.76 491.606 336.302 489.132C336.964 489.157 334.122 492.35 331.94 493.945C331.334 493.856 330.729 493.76 330.123 493.661ZM331.965 147.559C331.303 148.374 325.301 149.842 322.065 150.027C322.435 149.898 322.802 149.764 323.163 149.629C326.194 149.113 329.05 148.454 331.965 147.559ZM120.647 346.6C121.097 346.778 121.526 346.94 121.932 347.089C121.475 346.938 121.04 346.776 120.647 346.6ZM56.5201 184.853C56.3595 186.43 58.3551 182.452 55.9491 187.288C55.9496 187.288 55.95 187.289 55.9505 187.289C54.4264 190.515 54.109 191.253 52.9555 194.359C52.7253 193.025 54.8408 186.544 51.5461 195.311C51.5082 195.428 51.9482 195.318 51.4391 196.719C51.2847 197.152 50.5228 198.461 49.8311 200.606C49.6082 201.297 48.0983 206.558 50.0442 199.359C49.5432 199.446 49.2108 198.931 48.7805 198.823C49.4919 195.947 51.0513 194.083 52.1192 191.182C53.7277 186.879 53.9514 184.385 55.3928 184.08C53.9594 187.677 51.6798 193.86 50.7588 194.47C49.5648 198.027 49.8543 199.224 51.0171 196.444C55.0263 184.236 52.7499 193.337 56.8877 182.932C56.7973 182.74 56.8434 182.247 56.6731 182.241C58.7309 179.444 56.5515 184.28 56.5201 184.853ZM47.2663 209.934C47.3218 207.682 47.444 205.427 47.6398 203.17C48.201 203.308 48.3561 204.618 47.971 208.106C47.7311 208.709 47.4946 209.325 47.2663 209.934ZM192.456 126.114C192.809 125.85 193.681 125.686 194.334 125.483C194.945 125.721 210.747 128.808 202.704 127.616C201.488 127.41 194.404 125.716 192.456 126.114ZM307.94 503.415C309.698 503.212 311.627 502.902 313.423 502.556C310.737 503.533 308.037 504.355 305.284 505.044C306.196 504.513 307.077 503.971 307.94 503.415ZM183.23 353.935C184.018 353.958 181.393 354.347 184.502 354.322C182.19 354.565 179.99 354.758 177.699 354.959C177.02 354.741 176.336 354.523 175.661 354.302C175.127 354.416 174.583 354.528 174.05 354.64C174.377 354.357 174.668 354.08 175.012 353.792C178.808 354.529 179.758 353.831 183.23 353.935ZM296.401 362.034C296.888 362.823 291.487 361.752 296.677 363.27C295.562 363.397 293.973 363.176 290.849 362.434C290.39 362.155 289.931 361.879 289.471 361.604C289.302 362.005 288.467 361.962 286.666 361.863C286.664 361.863 286.663 361.862 286.661 361.861C281.968 360.845 282.295 360.806 281.282 359.874C286.198 361.292 286.458 360.717 289.963 361.154C292.388 361.466 295.362 362.384 296.401 362.034ZM175.558 124.428C179.271 124.146 175.998 123.367 182.364 124.485C181.937 124.582 181.51 124.68 181.086 124.78C179.223 124.639 177.492 124.529 175.558 124.428ZM312.738 369.609C312.699 368.533 309.721 366.64 308.647 367.973C311.658 369.384 310.445 367.984 312.738 369.609ZM130.447 347.477C136.62 349.083 135.254 349.832 132.517 349.773C132.165 349.479 131.816 349.183 131.478 348.89C130.36 348.701 129.25 348.5 128.135 348.278C128.915 348.02 129.682 347.751 130.447 347.477ZM360.692 455.498C361.436 450.671 358.728 460.35 359.337 456.997C359.87 454.361 361.42 451.119 361.513 452.529C361.283 453.444 361.008 454.446 360.695 455.489C360.694 455.492 360.693 455.495 360.692 455.498ZM363.864 427.723C363.144 428.564 363.364 427.397 363.59 431.199C363.766 432.302 362.96 440.915 363.809 437.33C364.013 434.245 364.046 430.933 363.864 427.723ZM70.9333 305.897C71.1631 305.722 75.7253 310.861 76.1145 311.579C76.1149 311.579 76.1153 311.578 76.1156 311.578C77.1329 313.728 72.8011 308.115 74.1154 310.984C70.4634 305.04 68.2918 304.038 70.1059 303.424C72.3332 306.635 71.0275 305.354 70.9333 305.897ZM352.091 84.067C352.089 84.0648 352.087 84.0625 352.085 84.0603C352.425 84.3696 354.404 87.4959 353.97 87.2616C351.3 83.8288 351.999 84.1234 348.64 81.823C348.577 81.5521 348.531 81.305 348.448 81.0217C349.769 81.9736 350.597 82.4153 352.091 84.067ZM209.295 129.676C207.656 129.425 204.831 128.515 202.991 128.208C209.013 127.897 215.86 130.725 209.295 129.676ZM164.746 481.201C164.751 481.201 164.755 481.201 164.76 481.201C164.759 481.202 164.757 481.202 164.755 481.203C164.752 481.202 164.749 481.202 164.746 481.201ZM85.5861 146.758C85.8125 146.701 85.9564 146.69 86.0317 146.718C86.0355 146.724 86.0392 146.729 86.043 146.734C85.9 146.736 85.7501 146.743 85.5861 146.758ZM63.5058 293.931C62.5274 291.243 67.7499 299.145 69.2848 301.727C68.9963 301.662 68.8191 301.736 68.354 301.446C67.5003 299.141 63.5976 294.306 63.5058 293.931ZM255.566 356.103C248.213 355.41 257.96 354.491 258.22 355.994C258.201 356.017 255.754 356.116 255.566 356.103ZM102.763 336.944C104.677 337.441 101.442 335.424 106.673 338.528C106.916 338.823 107.161 339.118 107.408 339.412C105.829 338.628 104.277 337.803 102.763 336.944ZM207.132 351.903C197.833 352.202 188.875 352.712 194.946 354.236C195.652 354.189 196.369 354.144 197.077 354.096C197.175 353.362 199.827 353.766 203.607 353.792C204.148 353.501 206.263 353.436 206.663 353.189C207.433 352.711 204.997 352.37 207.132 351.903ZM213.211 491.565C213.388 491.482 213.563 491.398 213.741 491.316C215.211 491.559 216.701 491.816 218.139 492.065C217.846 492.234 217.554 492.404 217.263 492.574C215.953 492.242 214.562 491.895 213.22 491.568C213.217 491.567 213.214 491.566 213.211 491.565ZM47.5439 219.154C46.2812 218.167 46.0978 221.179 46.6238 227.196C46.8333 224.504 47.1405 221.814 47.5439 219.154ZM350.311 388.142C350.151 388.552 349.986 388.956 349.825 389.366C352.188 391.517 352.162 390.836 351.571 389.289C351.155 388.897 350.74 388.521 350.311 388.142ZM365.883 431.146C365.941 429.802 365.636 430.494 365.64 430.354C365.687 426.985 365.828 426.438 365.113 422.348C364.966 421.857 364.811 421.368 364.651 420.875C364.1 422.895 364.77 424.185 364.521 428.256C364.766 427.518 365.001 426.771 365.225 426.018C365.345 428.29 365.364 430.513 365.289 432.773C365.374 433.041 365.457 433.311 365.539 433.581C365.665 432.777 365.792 431.945 365.883 431.146ZM196.702 487.239C194.592 486.752 192.475 486.284 190.32 485.834C190.203 486.018 190.09 486.203 189.973 486.387C192.235 486.65 194.475 486.934 196.702 487.239ZM60.2734 176.916C60.2977 176.731 60.3201 176.549 60.3325 176.383C60.4024 176.441 60.367 176.639 60.2734 176.916ZM348.551 79.4101C346.654 77.754 343.435 75.982 340.871 74.9756C340.951 75.3785 347.215 78.4251 348.806 80.363C349.164 80.5362 349.36 80.1049 348.551 79.4101ZM139.061 349.492C139.714 349.361 140.364 349.227 141.005 349.086C142.46 349.378 143.928 349.652 145.412 349.907C145.488 349.708 145.562 349.508 145.637 349.31C139.085 348.526 140.698 348.144 137.665 346.949C138.123 347.799 138.581 348.645 139.061 349.492ZM128.573 485.743C132.979 484.375 134.691 483.927 131.928 483.832C130.255 484.35 128.773 484.888 127.171 485.547C127.64 485.606 128.135 485.663 128.573 485.743ZM129.586 129.078C133.511 128.005 133.606 128.842 137.384 127.729C135.292 127.911 133.244 128.131 131.21 128.395C130.669 128.619 130.118 128.849 129.586 129.078ZM61.1541 280.573C60.7413 278.975 58.1959 276.748 57.2934 271.849C57.1964 271.72 57.1026 271.598 57.0113 271.481C56.4439 270.774 55.9788 270.279 55.4433 269.599C55.5482 268.965 55.6371 268.261 55.7605 267.658C55.7595 267.655 55.7584 267.652 55.7574 267.649C54.2606 263.731 54.7792 266.424 54.4206 266.452C54.2608 266.459 53.5053 263.404 53.5166 264.431C53.498 266.041 55.5084 270.928 55.5517 272.073C55.5554 272.211 55.5301 272.299 55.4692 272.325C55.4499 272.262 55.4296 272.197 55.4085 272.131C54.6991 269.952 53.1776 266.145 53.1992 267.471C53.2139 268.462 54.1665 270.381 55.0354 272.283C55.5011 273.312 55.9291 274.332 56.1632 275.232C55.6199 271.268 58.4205 278.734 58.0705 279.812C60.5064 283.652 58.9863 279.87 57.0922 275.493C58.7969 277.923 56.8097 274.127 57.0097 273.259C58.429 276.054 62.3353 285.072 61.1541 280.573ZM246.094 352.702C242.908 352.519 237.935 351.92 235.722 352.351C234.437 352.597 239.423 353.043 235.958 353.367C239.066 353.453 239.792 353.315 239.278 352.873C239.992 352.859 240.717 352.848 241.421 352.838C241.742 352.936 242.072 353.035 242.393 353.134C242.773 352.985 243.155 352.839 243.528 352.691C244.276 352.77 245.034 352.851 245.784 352.936C245.878 352.856 246.034 352.792 246.094 352.702ZM242.349 139.268C241.5 139.002 240.662 138.744 239.818 138.488C239.881 138.613 239.96 138.748 240.036 138.88C240.088 138.982 240.14 139.084 240.191 139.185C239.788 138.748 235.932 137.06 234.187 136.882C233.301 136.789 235.075 137.875 231.468 136.94C234.081 137.654 236.444 138.277 238.992 139.014C238.717 139.102 238.451 139.195 238.177 139.283C238.178 139.284 238.179 139.285 238.181 139.285C239.006 139.577 239.843 139.878 240.674 140.179C241.232 139.874 241.786 139.569 242.349 139.268ZM349.047 385.674C346.597 383.707 345.674 383.235 346.416 384.571C346.419 384.573 346.421 384.575 346.423 384.577C347.424 385.169 348.411 385.801 349.379 386.472C349.273 386.208 349.165 385.944 349.047 385.674ZM77.3176 157.713C80.4172 151.84 71.1898 162.848 73.6528 161.386C73.734 161.306 76.719 157.953 77.3176 157.713ZM129.479 346.581C131.16 347.028 132.859 347.441 134.577 347.821C134.238 347.491 133.892 347.159 133.559 346.827C132.199 346.767 130.837 346.686 129.479 346.581ZM148.814 483.927C150.624 484.413 155.262 484.659 157.586 484.185C156.374 484.063 155.178 483.956 154 483.864C156.203 483.836 158.6 483.864 160.809 483.939C160.998 483.195 158.283 483.43 154.33 483.133C153.786 483.073 149.695 482.11 148.401 482.873C148.124 483.015 152.3 483.063 149.406 483.524C150.666 483.538 151.774 483.529 153.006 483.561C153.093 483.743 153.181 483.926 153.27 484.109C151.76 484.023 150.271 483.961 148.814 483.927ZM227.512 351.938C223.121 351.794 222.587 352.102 221.67 352.623C223.696 352.593 225.732 352.573 227.776 352.563C227.684 352.355 227.605 352.147 227.512 351.938ZM187.169 487.774C189.47 488.292 188.56 487.679 189.514 487.775C193.182 488.167 195.453 488.962 199.03 489.555C198.778 489.586 198.546 489.615 198.303 489.645C198.306 489.646 198.309 489.647 198.313 489.647C214.721 493.89 206.309 490.777 196.358 488.748C196.16 488.539 195.972 488.332 195.774 488.125C191.327 487.464 187.08 486.97 187.169 487.774ZM50.8409 206.017C50.9861 205.855 51.2432 207.57 51.6429 204.55C51.3024 201.986 50.8049 205.934 50.2572 206.832C50.3443 206.004 50.448 205.158 50.5532 204.338C49.1629 209.116 49.337 209.888 50.3452 208.252C50.4117 208.135 50.6949 206.18 50.8409 206.017ZM63.242 176.349C62.3736 175.02 59.7925 180.774 60.3281 180.785C60.7466 180.04 60.8613 179.342 61.4007 178.6C61.948 177.854 62.3398 177.809 63.242 176.349ZM103.25 333.854C103.096 333.756 101.889 332.275 101.79 332.755C103.079 334.944 107.38 336.613 106.881 335.883C105.565 335.153 104.64 334.793 103.251 333.853C103.251 333.853 103.25 333.854 103.25 333.854ZM121.901 489.658C121.931 489.614 126.04 488.082 126.497 487.76C126.854 487.374 126.995 487.05 127.258 486.696C124.964 487.586 120.494 489.617 121.909 489.654C121.906 489.656 121.903 489.657 121.901 489.658Z" fill="white"/>
<path d="M41.9207 159.464C45.3586 148.166 49.6411 141.282 57.2573 134.144C58.4314 133.253 56.172 136.813 60.2561 136.082C65.6001 135.795 70.2994 134.746 73.3891 136.065C77.2229 137.702 90.8315 144.022 94.1064 150.891C95.5478 153.914 97.6559 157.815 96.8032 164.704C96.0496 170.793 94.9742 177.214 90.807 180.371C86.8231 183.389 80.2785 188.895 64.8204 189.779C58.1722 190.159 52.5819 190.389 50.0605 187.466C44.394 180.897 38.7352 169.932 41.9207 159.464Z" fill="white"/>
<g clip-path="url(#clip0_165_2758)">
<path d="M76.375 172.375H61.375C60.8581 172.375 60.4375 171.954 60.4375 171.438C60.4375 170.921 60.8581 170.5 61.375 170.5H78.7071L83 155.5H58.8778L58.481 153.889L58.4803 153.889C58.1776 152.662 57.0686 151.75 55.75 151.75H53.8125C52.2617 151.75 51 153.012 51 154.562H52.875C52.875 154.046 53.2956 153.625 53.8125 153.625H55.75C56.2669 153.625 56.6875 154.046 56.6875 154.562H56.716L60.238 168.866C59.2521 169.304 58.5625 170.291 58.5625 171.438C58.5625 172.988 59.8242 174.25 61.375 174.25H62.4738C62.3697 174.543 62.3125 174.859 62.3125 175.188C62.3125 176.738 63.5742 178 65.125 178C66.6758 178 67.9375 176.738 67.9375 175.188C67.9375 174.859 67.8803 174.543 67.7763 174.25H73.7238C73.6197 174.543 73.5626 174.859 73.5626 175.188C73.5626 176.738 74.8243 178 76.3751 178C77.9259 178 79.1876 176.738 79.1876 175.188C79.1876 173.637 77.9258 172.375 76.375 172.375ZM80.5143 157.375L77.2929 168.625H62.1097L59.3396 157.375H80.5143ZM66.0625 175.188C66.0625 175.704 65.6419 176.125 65.125 176.125C64.6081 176.125 64.1875 175.704 64.1875 175.188C64.1875 174.671 64.6081 174.25 65.125 174.25C65.6419 174.25 66.0625 174.671 66.0625 175.188ZM76.375 176.125C75.8581 176.125 75.4375 175.704 75.4375 175.188C75.4375 174.671 75.8581 174.25 76.375 174.25C76.8919 174.25 77.3125 174.671 77.3125 175.188C77.3125 175.704 76.8919 176.125 76.375 176.125Z" fill="#DB1C41"/>
<path d="M68.875 146H70.75V149.75H68.875V146Z" fill="#DB1C41"/>
<path d="M61.856 149.684L63.1816 148.359L65.8328 151.01L64.5072 152.336L61.856 149.684Z" fill="#DB1C41"/>
<path d="M73.7874 151.011L76.4386 148.36L77.7642 149.686L75.113 152.337L73.7874 151.011Z" fill="#DB1C41"/>
</g>
<path d="M112.446 502.888C123.34 506.203 129.978 510.332 136.861 517.677C137.721 518.809 134.288 516.63 134.992 520.568C135.269 525.722 136.28 530.253 135.009 533.232C133.43 536.929 127.336 550.052 120.713 553.21C117.797 554.6 114.036 556.633 107.392 555.81C101.521 555.084 95.3296 554.047 92.2851 550.028C89.3746 546.187 84.0659 539.876 83.213 524.97C82.8462 518.559 82.6246 513.168 85.4434 510.737C91.7781 505.273 102.351 499.816 112.446 502.888Z" fill="white"/>
<g clip-path="url(#clip1_165_2758)">
<path d="M118.211 526.053L111.846 525.128L109 519.361L106.154 525.128L99.7896 526.053L104.395 530.542L103.308 536.88L109 533.888L114.693 536.88L113.605 530.542L118.211 526.053ZM109 531.77L105.798 533.453L106.409 529.887L103.819 527.362L107.399 526.842L109 523.598L110.601 526.842L114.181 527.362L111.591 529.887L112.202 533.453L109 531.77Z" fill="#DB1C41"/>
<path d="M109.938 513H108.062V517.467H109.938V513Z" fill="#DB1C41"/>
<path d="M109.938 540.533H108.062V545H109.938V540.533Z" fill="#DB1C41"/>
<path d="M103.743 513.859L102.011 514.576L103.721 518.703L105.453 517.986L103.743 513.859Z" fill="#DB1C41"/>
<path d="M114.28 539.298L112.548 540.016L114.257 544.143L115.99 543.425L114.28 539.298Z" fill="#DB1C41"/>
<path d="M98.349 517.023L97.0232 518.349L100.182 521.508L101.507 520.182L98.349 517.023Z" fill="#DB1C41"/>
<path d="M117.818 536.492L116.492 537.818L119.651 540.977L120.976 539.651L117.818 536.492Z" fill="#DB1C41"/>
<path d="M94.577 522.011L93.8594 523.744L97.9864 525.453L98.704 523.721L94.577 522.011Z" fill="#DB1C41"/>
<path d="M120.015 532.548L119.298 534.28L123.425 535.99L124.142 534.257L120.015 532.548Z" fill="#DB1C41"/>
<path d="M97.4669 528.062H93V529.938H97.4669V528.062Z" fill="#DB1C41"/>
<path d="M125 528.062H120.533V529.938H125V528.062Z" fill="#DB1C41"/>
<path d="M97.9859 532.549L93.8589 534.258L94.5765 535.99L98.7035 534.281L97.9859 532.549Z" fill="#DB1C41"/>
<path d="M123.425 522.012L119.298 523.721L120.015 525.454L124.142 523.744L123.425 522.012Z" fill="#DB1C41"/>
<path d="M100.181 536.492L97.0229 539.651L98.3488 540.976L101.507 537.818L100.181 536.492Z" fill="#DB1C41"/>
<path d="M119.651 517.023L116.492 520.182L117.818 521.507L120.977 518.349L119.651 517.023Z" fill="#DB1C41"/>
<path d="M103.721 539.297L102.011 543.425L103.744 544.142L105.453 540.015L103.721 539.297Z" fill="#DB1C41"/>
<path d="M114.257 513.859L112.548 517.986L114.28 518.703L115.99 514.576L114.257 513.859Z" fill="#DB1C41"/>
</g>
<path d="M136.308 333.65C132.81 345.187 132.661 341.373 124.912 348.661C123.718 349.572 110.944 356.182 107.108 354.415C99.2736 350.806 103.129 357.156 99.9858 355.809C96.0852 354.138 81.952 344.953 78.6201 337.939C77.1536 334.852 76.5283 332.206 77.3959 325.171C78.1626 318.953 79.2568 312.397 83.4966 309.173C87.5498 306.091 89.2438 300.958 104.971 300.055C111.735 299.667 122.347 301.359 124.912 304.344C130.678 311.052 139.549 322.961 136.308 333.65Z" fill="white"/>
<path d="M349.35 501.296C337.813 497.74 341.627 497.589 334.339 489.711C333.428 488.497 326.818 475.51 328.585 471.61C332.194 463.645 325.844 467.565 327.191 464.369C328.862 460.403 338.047 446.035 345.061 442.647C348.148 441.156 350.794 440.52 357.829 441.402C364.047 442.182 370.603 443.294 373.827 447.605C376.909 451.726 382.042 453.448 382.945 469.437C383.333 476.314 381.641 487.103 378.656 489.711C371.948 495.572 360.039 504.591 349.35 501.296Z" fill="white"/>
<path d="M350.834 460.353L349.489 462.207L348.145 460.353H341V479.648H348.145L349.489 477.793L350.834 479.648H373V460.353H350.834ZM371.125 477.773H351.79L350.427 475.892V473.699H348.552V475.892L347.188 477.773H342.875V462.228H347.188L348.552 464.108V466.301H350.427V464.108L351.79 462.227H371.125V477.773Z" fill="#DB1C41"/>
<path d="M348.552 468.226H350.427V471.774H348.552V468.226Z" fill="#DB1C41"/>
<path d="M356.873 472.574L363.346 466.101L364.671 467.427L358.198 473.9L356.873 472.574Z" fill="#DB1C41"/>
<path d="M361.612 473.7C361.612 475.278 362.896 476.563 364.475 476.563C366.054 476.563 367.338 475.278 367.338 473.7C367.338 472.121 366.054 470.836 364.475 470.836C362.896 470.836 361.612 472.121 361.612 473.7ZM365.463 473.7C365.463 474.244 365.02 474.688 364.475 474.688C363.93 474.688 363.487 474.244 363.487 473.7C363.487 473.155 363.93 472.711 364.475 472.711C365.02 472.711 365.463 473.155 365.463 473.7Z" fill="#DB1C41"/>
<path d="M357.077 469.164C358.655 469.164 359.94 467.879 359.94 466.301C359.94 464.722 358.655 463.438 357.077 463.438C355.498 463.438 354.213 464.722 354.213 466.301C354.213 467.879 355.498 469.164 357.077 469.164ZM357.077 465.312C357.621 465.312 358.065 465.756 358.065 466.301C358.065 466.845 357.621 467.289 357.077 467.289C356.532 467.289 356.088 466.845 356.088 466.301C356.088 465.756 356.532 465.312 357.077 465.312Z" fill="#DB1C41"/>
<path d="M108.188 317.625H96.3125V319.5H108.188V317.625Z" fill="#DB1C41"/>
<path d="M108.188 321.375H106.312V323.25H108.188V321.375Z" fill="#DB1C41"/>
<path d="M102.562 321.375H96.3125V323.25H102.562V321.375Z" fill="#DB1C41"/>
<path d="M108.188 325.125H106.312V327H108.188V325.125Z" fill="#DB1C41"/>
<path d="M102.562 325.125H96.3125V327H102.562V325.125Z" fill="#DB1C41"/>
<path d="M108.188 328.875H106.312V330.75H108.188V328.875Z" fill="#DB1C41"/>
<path d="M102.562 328.875H96.3125V330.75H102.562V328.875Z" fill="#DB1C41"/>
<path d="M108.188 334.5H96.3125V336.375H108.188V334.5Z" fill="#DB1C41"/>
<path d="M119.438 318.5V315.688C119.438 313.103 117.335 311 114.75 311H97.25C94.6653 311 92.5625 313.103 92.5625 315.688V338.312C92.5625 340.897 94.6653 343 97.25 343H114.75C117.335 343 119.438 340.897 119.438 338.312V335.5H111.938V318.5H119.438ZM111.938 315.688C111.938 314.137 113.199 312.875 114.75 312.875C116.301 312.875 117.562 314.137 117.562 315.688V316.625H111.938V315.688ZM111.003 341.125H97.25C95.6992 341.125 94.4375 339.863 94.4375 338.312V315.688C94.4375 314.137 95.6992 312.875 97.25 312.875H111.003C110.413 313.659 110.062 314.633 110.062 315.688V338.312C110.062 339.367 110.413 340.341 111.003 341.125ZM117.562 337.375V338.312C117.562 339.863 116.301 341.125 114.75 341.125C113.199 341.125 111.938 339.863 111.938 338.312V337.375H117.562Z" fill="#DB1C41"/>
<defs>
<clipPath id="clip0_165_2758">
<rect width="32" height="32" fill="white" transform="translate(51 146)"/>
</clipPath>
<clipPath id="clip1_165_2758">
<rect width="32" height="32" fill="white" transform="translate(93 513)"/>
</clipPath>
</defs>
</svg>
