<svg xmlns="http://www.w3.org/2000/svg" width="412" height="637" fill="none" viewBox="0 0 412 637"><path fill="#fff" d="M348.561 264.659v5.33l9.056 3.9c.867.39 1.647.953 2.383 1.69a7.5 7.5 0 0 1 2.384-1.69l9.056-3.9v-5.33h5.72v48.62c0 3.163-2.34 6.717-5.243 7.973l-9.057 3.9v8.19h-5.719v-8.19l-9.057-3.857c-2.86-1.213-5.244-4.81-5.244-7.973v-48.663zm-.087 48.23c0 1.56 1.213 3.38 2.643 3.986l5.98 2.557v-2.86c0-1.56-1.214-3.38-2.644-3.987l-5.979-2.556zm17.03-.304c-1.473.607-2.643 2.427-2.644 3.987v2.86l5.937-2.557c1.473-.606 2.643-2.426 2.643-3.986h.043v-2.86zm-17.03-11.136c0 1.56 1.213 3.379 2.643 3.986l5.98 2.557v-2.86c0-1.56-1.214-3.38-2.644-3.987l-5.979-2.557zm17.03-.304c-1.473.607-2.644 2.427-2.644 3.987v2.86l5.937-2.557c1.473-.607 2.643-2.426 2.643-3.986h.043v-2.861zm-17.03-11.137c0 1.56 1.213 3.381 2.643 3.988l5.98 2.556v-2.86c0-1.56-1.214-3.38-2.644-3.986l-5.979-2.557zm17.03-.302c-1.473.606-2.644 2.426-2.644 3.986v2.86l5.937-2.556c1.473-.607 2.643-2.428 2.643-3.988h.043v-2.859zm-17.03-11.137c0 1.56 1.213 3.38 2.643 3.986l5.98 2.557v-2.86c0-1.56-1.214-3.38-2.644-3.987l-5.979-2.557zm17.03-.304c-1.473.607-2.644 2.427-2.644 3.987v2.86l5.937-2.557c1.473-.607 2.643-2.426 2.643-3.986h.043v-2.861zM58.797 391.805l2.593 7.778h-7.778v5.185c6.63 6.672 15.81 13.004 25.968 13.004V423h-5.185c0 11.05 1.87 21.59 5.185 31.195H61.347c-4.59-4.59-8.117-10.2-10.327-16.405a43.8 43.8 0 0 1-10.328 16.405H22.418c3.315-9.605 5.184-20.145 5.184-31.195h-5.184v-5.185c10.157 0 19.294-6.332 25.966-13.004v-13.006zM32.83 423a100 100 0 0 1-3.4 25.968h8.967c6.46-7.14 10.03-16.278 10.03-25.968zm20.782 0c0 9.69 3.57 18.828 10.03 25.968h8.968c-2.253-8.373-3.4-17.086-3.4-25.968zm-2.592-13.515c-2.932 2.89-6.588 5.865-10.795 8.287h21.59c-4.165-2.464-7.82-5.439-10.795-8.287"/><path fill="#fff" d="M167.479 477.683c-2.782-.825 6.656.497.439-.956 1.314.074 2.651.161 3.995.264.302.336.624.676.913 1.012a208 208 0 0 0-5.348-.318zm-2.719 3.518c1.68-.724 6.714-.444 1.362-1.757-.445.254-.945.504-1.409.759a189 189 0 0 0-5.693-1.065q-1.067.113-2.115.24a249 249 0 0 0-2.586-1.605c.775.09 1.567.188 2.355.291 3.205-.292 5.878-.251 10.137.061-.354-.154-.696-.305-1.062-.458 2.086.389 4.177.813 6.304 1.272a184 184 0 0 0-5.651.019c2.59 1.026 7.463 1.152 9.934 1.338 3.427.255 2.623.527 5.109.753.398.038.49-.249 1.276-.126 4.05.613 11.579 2.26 6.994 2.079-6.43-1.304-12.139-1.643-18.504-2.593 1.635 1.01-1.852.824-6.451.792m117.127 22.654c-1.865.325-5.896-.129-8.472-.715l-.008-.001c-.56-.124-1.775-.793.063-.553 3.035.38 4.571 1.301 6.208.855.716.148 1.466.28 2.209.414m6.736.034c1.885.149 1.07.807-1.337.666v.002c-1.012-.073.989-.534-2.658-.078a56 56 0 0 1-2.108-1.163c.846.025 1.61.036 2.556.045-.638.62 1.66.373 3.547.528m-95.536-20.581c.423-.492-.882-.758-2.997-1.562 2.058.41 4.17.855 6.173 1.297-1.07.081-2.077.179-3.176.265m-49.298-4.592-.009.001c-.691.134-1.362.274-2.04.419-.447-.165-.888-.327-1.334-.487a82 82 0 0 0-7.367 1.627c.16-.687 4.664-1.339 7.077-1.978 3.734-.176 5.435.156 5.719.658-.684-.086-1.362-.167-2.046-.24M96.817 332.912a90 90 0 0 1-2.237-1.021c.81.716 1.631 1.395 2.457 2.092 2.794 1.038 2.634 1.753 5.84 3.676 10.111 5.509 7.806 3.016 16.784 8.475-7.736-3.111-5.065-1.219-9.938-2.787-.732-.861 4.213.317 1.266-1.319-5.436-2.073-10.557-4.529-16.014-8.144l.312.53a100 100 0 0 0 2.627 1.662 105 105 0 0 1-3.117-1.407c1.439.451-1.65-1.492-.915-1.656.324-.066 1.81.614 2.707.956a100 100 0 0 1-5.598-4.823 87 87 0 0 0 3.348 1.93 94 94 0 0 0 2.464 1.823zm263.248-216.665c.361 2.823-.96 7.941-2.727 10.012 1.425-3.141 2.34-6.548 2.727-10.012m-213.971 363.13c-.361-.084-.71-.165-1.07-.246 1.567-.267 3.134-.499 4.668-.703q.452.424.917.85c-1.523.007-2.942.034-4.515.099m96.115 17.617-.344-.108c-.774-.245-.983-.327-2.146-.745l.004.002c-.527-.193-4.867-1.755-4.309-1.806 2.12.665 4.389 1.402 6.589 2.13l.174.058c.023.16-.007.302.032.469m-25.824-7.917-.008-.004c-.808-.252-1.561-.524-2.395-.756 3.114.465 3.422 1.197 6.168 1.776 2.743.584 4.593.762 6.597 2.244-.883-.128-1.837-.217-2.773-.332-3.782-1.444-4.867-1.406-8.053-1.922zM143.35 352.932c.831-.292 1.622.248 1.711.266l-.005.001c6.781.564-.927.147 5.449 1.042-.966-.01-1.916-.02-2.871-.042-1.427-.4-2.884-.849-4.284-1.267m207.486 41.416c-.065.12-.123.249-.189.369-2.141-2.928-3.111-3.267-4.859-5.719a48 48 0 0 1 5.049 5.349zM260.37 502.845c-4.072-.624-7.341-1.342-10.956-2.746l-.008-.004c-.213-.084.92-.033.65-.176-.795-.182-1.627-.359-2.443-.552-.051-.23-.096-.458-.146-.686 2.26.73 4.377 1.376 6.688 2.023-.314-.204-.655-.415-.953-.617 1.999.457 3.994.873 5.946 1.241q-1.123.27-2.259.525 1.755.52 3.481.992m37.242-138.683c.605.312-.644.19.319.585.962.391 2.869.702 2.33.936a190 190 0 0 0-4.148-1.028c4.191 1.86 8.728 2.701 8.508 3.517-4.046-1.549-7.591-2.477-11.675-3.31.33-.615 4.555-.062 2.155-1.368.827.215 1.699.444 2.502.667zM114.108 516.214c.414 2.362 2.358 7.335 3.27 10.32.216.775.137 3.576-.008 3.639-.536.169-1.907-2.61-.829.556a101 101 0 0 1-1.435-3.081l-.771 1.014a89 89 0 0 0 1.924 3.727l-.238.35c-2.19-4.557-1.288-1.554-2.822-3.882a96 96 0 0 0 2.618 6.976 93 93 0 0 1-1.897-3.969c-.654.112.796 2.738.953 3.272.58 2.9-5.363-10.515-6.334-11.605a77 77 0 0 0 2.413 7 109 109 0 0 1-1.165-1.855c-1.519-5.361-3.286-11.408-3.258-17.994a34 34 0 0 1-.122-1.777c-.284.171-.567.338-.848.519a31 31 0 0 1-.022-2.736c.866 2.757.658-1.104 2.413-5.135-.373 2.339-.779 5.034-.152 4.923-.161-8.009 6.457-15.524 13.085-19.045 1.582-.893 1.31-1.798 5.537-3.184-.12.13-.095.288-.153.427 7.279-2.666 12.031-3.446 20.035-3.498-.481-.264-.955-.527-1.436-.785-1.699.236-3.363.511-5.072.837-1.22-.313.507-.822-4.611-.054-4.153.745-1.637.511-2.723.859-1.478.5-2.944.467-4.455 1.12-1.168.53.217.447-2.988 1.439 1.074-.923 2.348-1.862 3.499-2.699a66 66 0 0 1 2.516-.273c-.806.321-1.578.649-2.34.995 2.8-1.005 5.455-1.75 8.492-2.422-.855.848 2.127.159 3.863-.072 2.65-.361.423.324 2.119.11 1.66-.201 3.628-.874 6.673-.796-1.655.348.605.604.173.909-.444.296-3.649.438-.553.696 6.064-.274-.562-1.403 3.604-1.572 4.873-.139 6.029 1.836 4.524 2.151-1.191.25-5.016.101-6.222.428 6.968.624 7.131-.346 8.33-.528 4.371-.513 1.318 1.369 6.544 1.046-.132.384-.241.731-.37 1.099.874.008 1.462-.032 2.532.021-3.05-1.077-.504-.797.83-.653 2.1.227-1.103-.5-.536-.535 1.518-.105 3.92.304 2.481-.208.65.234 1.331.476 1.966.714 2.403.091 8.49-.674 2.906-1.141.586-.539 2.372.012 3.722.314 1.347.303 1.384-.086 2.581.181 4.795 1.097 1.508 1.219.662 1.607 6.467.768.22-.64 9.414.876.974-.241-3.194-1.53.4-1.068.554.87 2.911 1.863 7.923 3.246.529-.055 1.033-.115 1.553-.17 2.554 1.302.974 1.638 6.241 2.063-3.108.841-.942.324 3.317 2.079.873.358-1.298.129-.077.615.553.22 2.007.348 3.369.91.697.281 3.648 1.709 5.939 2.067-1.414-1.187 2.96-.612-.47-2.235 6.664 2.053 11.277 3.096 3.64 1.898 1.603.706 3.202 1.419 4.813 2.146 1.219.182 2.46.377 3.692.574-.006.652-.251.739 4.347 2.098a511 511 0 0 0-6.075-1.453c-.105.099-.423.137-.392.274 2.154.446 7.331 1.984 9.983 2.735.502.142.909.249 1.185.311 1.772.4-1.539-.721-.994-.715 4.528.082 3.888.885 6.851 1.527 1.727.364-2.27-.958-1.349-.749 3.452.803 4.639 1.852 7.762 2.652a62 62 0 0 1-2.861-1.988c3.027.845 6.764 1.736 9.651 2.194 1.148.183.347-.283.537-.265.902.094 4.785.635 5.211.691 3.087.491 3.114.908 6.045 1.296-1.15-.102-2.243-.215-3.391-.347-.615.583-1.251 1.16-1.886 1.736 3.026.52 5.736.909 8.9 1.24a118 118 0 0 1-6.448-1.404c3.37-.073 6.916-.255 10.298-.602 1.747.43 3.346.819 5.214 1.171 4.891-.081 3.822-1.457 6.118-.36 1.352-.162 2.813-.36 4.222-.586q-.28.278-.566.554a89 89 0 0 0 5.045-.873c-1.824-.345-3.619-.777-5.431-1.206 3.305-.421 3.39.028 3.899.102 1.327.181 3.794-.654 4.903-.552.382.051-2.844.922-1.652 1.113.228.057 4.923.664 7.534-.361-.112-.234-.395-.486-.57-.728 3.618-1.06 5.86-.459 5.493.064 1.866-.847 4.63-1.918 4.883-2.467a75 75 0 0 0 2.858-1.231c-.575 1.358 3.271-.609 3.155-1.542a73 73 0 0 1-4.866 2.161c.794-1.574-4.234.32 6.157-3.704 2.16-.521-3.432 1.695-1.688 1.25 2.875-1.177 5.145-2.729 7.813-4.047 3.213-1.706-.007 1.43 6.268-4.284-15.874 9.697 2.084-1.594 6.907-8.885 2.628-.793 8.009-6.274 11.964-15.717-.81.782-2.057 3.717-3.111 5.242-1.043 1.515-.245-.309-1.579 1.533-1.317 1.855-4.304 5.633-5.992 7.184 1.158-1.563 5.923-9.747 2.985-4.177 2.96-3.649 4.519-5.349 7.119-10.616.111-1.885-.17-1.865 1.755-7.175-.279 3.488 2.458-2.452 2.866-.818-1.539 3.844-1.641 1.367-2.862 3.414-.105.213-1.348 3.792-1.759 4.579 2.319-3.149 3.047-4.362 3.043-1.755.989-2.591 1.648-4.189 1.301-4.578.379-.478.755-.965 1.121-1.446.275-.862.497-1.645.767-2.563-1.039 1.067.107-1.255.23-3.097.1-1.829-.91.395.079-4.402a83 83 0 0 1-1.469 4.484 80 80 0 0 0 1.25-9.346c-.666 2.136-2.218 6.636-2.756 6.371.552-1.321.977-6.173.993-6.691.195-2.029.406-.886.435-1.038.546-3.194.519-5.849 1.083-7.064-.189-2.454-.081-4.271-.255-6.854-.106-1.423-.481-1.113-.478-1.944-.209-5.477 1.358-.516-1.761-10.709.047 1.32.041 2.602.008 3.897a69 69 0 0 0-1.054-3.384c-.139-.78-.29-1.548-.457-2.319l1.726-.431a66 66 0 0 0-.681-2.574 67 67 0 0 1 1.436 4.351c.136.111.268.213.403.325a67 67 0 0 0-1.505-6.716l-.628.086c-1.552-4.87-1.493-5.144-4.276-9.153-1.845-3.297-4.354-5.249-5.952-6.655a47 47 0 0 0-1.209-1.97 43 43 0 0 0-1.365-.735 45 45 0 0 0-1.548-2.558c-.784.042-1.009-.088 1.441 2.715-1.29-.547-5.872-5.07-8.047-6.624-1.589-1.238.588-.496.417-.685-.474-.566-2.641-1.764-3.74-2.303a12 12 0 0 1-.509-.272c-2.693-1.593-4.644-2.53-7.086-3.831-.475-.255-1.684-1.21-1.795-1.273-.848-.463-3.087-1.65-3.342-1.764-13.336-5.816.493 1.386-12.008-3.604.312.33.591.648.892.977-.962-.343-1.932-.682-2.892-1.007-1.156-.583.412-.372-2.078-.962q.354-.277.723-.548c-1.096-.232-2.15-.441-3.264-.66-1.395-1.401-7.691-3.452-6.958-4.287.242-.306 4.853.679 2.574-.38-1.918-.635-.722.146-1.517-.061-5.731-1.446-5.254-1.868-7.664-2.319-.433.15-.884.303-1.323.457q-1.307-.427-2.628-.838c-.244.116-.497.232-.74.349.833.197 1.771.425 2.536.617-1.216.32-11.086-1.405-7.222-1.181 1.589.086 4.338.782 2.741-.347a249 249 0 0 0-8.522-1.311c-.058-.178-.111-.355-.17-.533-3.784-.534-.468.696-.538 1.045a242 242 0 0 0-2.585-.402c-.338-.216-.654-.436-1.019-.65-.075.248-.654.745-3.204.153-1.64-.376 1.066-.649-2.115-.998.185.429 1.254 1.049-2.273.72-.296-.456-.731-.893-.949-1.358-4.433-.129-6.415-.985-11.605-.964-3.333.011-7.889.763-9.912-.948-2.404-.171-1.668.27-2.385.324-3.397.26-5.858-.581-6.484-.648-3.97-.417-5.816-.193-9.057-.613.171.3.262.582.398.874 2.982-.386 4.539-.335 8.701-.103q-2.098.019-4.22.054.337.371.661.739c12.957-.499 9.872.86-.953.854-.925-.47-1.886-.937-2.804-1.403-6.248.556-9.237-.052-16.311-.218-.85-.019-3.929.233-5.243.245l.065.005c-.819.42.29.615.422.991l-2.139.14c-1.587-.288-1.028-.523-4.189-.458l1.272.859c-3.47.006-5.701-.308-8.914-.192.546-.105 1.08-.211 1.615-.316-7.008-.319-1.425-1.957-6.712-1.171-.333-.151-.658-.302-.99-.453 2.165-.008 4.344-.025 6.525-.049.046-.207.095-.413.132-.62-2.342.049-4.68.094-6.992.124 1.689-.116 3.395-.238 5.099-.365a723 723 0 0 1-8.059-.397c2.853.812-.865.841-.182 1.607-4.793-.731-8.477-1.624-15.863-1.516-1.455.012-.7.611-4.814-.341.939.925-4.291.876-3.698 1.722 1.448.097 2.954.198 4.371.257-1.587-.4-1.787-1.176.661-1.219 3.138-.051 7.579.691 7.448-.164 1.234.098 2.387.169 3.596.248-.506.191-1.002.383-1.499.572 3.446-.19 5.548-.033 7.192.536-4.071.026-8.156-.001-12.232-.109.596.069 1.202.138 1.801.203-3.117.368.053 1.085-5.732.826.053-.244.099-.489.152-.734-2.17.532-7.908-.008-6.149.918-1.711-.399-2.047-.586-3.088-.286-4.571-1.084-7.34-2.274-5.613-2.897a163 163 0 0 1-5.112-.374q1.4.604 2.825 1.184a152 152 0 0 1-8.809-1.658c-.12-.72 5.647.902 4.071-.046-.317-.185-1.93-.222-2.325-.377-4.161-1.652 2.5.293 1.342-.555-6.362-1.536-1.072-1.257-9.971-2.682-.173-.26-.363-.529-.519-.784-2.988-.882-2.879-.374-5.457-1.133-1.617-.487-3.305-1.961-5.221-2.136-.344-.053 2.188 2.128-3.894-.505-4.654-2.172-2.402-1.913-4.751-3.362-2.359-1.429-8.232-3.859-9.153-5.87 1.115.932 2.615 1.987 3.913 2.905a79 79 0 0 0 1.963.415c-3.255-1.538-6.247-3.939-8.5-4.959-3.435-3.412-7.96-6.554-7.436-4.906 1.288.953.19-.496 1.761 1.167.046.307.104.621.152.928-2.963-2.503-4.8-4.298-3.128-3.585a100 100 0 0 1-1.256-1.232c-.388.255-.77.518-1.16.771q-.829-.688-1.655-1.402a98 98 0 0 1-1.488-1.947c1.314.304 2.436 1.551-1.272-3.038-.195.153-.395.299-.59.452-3.092-3.989-2.829-4.551-6.58-9.477 3.515 3.303 4.114 6.28 5.418 5.174a118 118 0 0 0 2.13 2.974q.462-.046.914-.105c-4.51-4.579-12.227-12.593-13.457-16.773-.39-.372-.767-.759-1.17-1.143-1.682-4.04-3.865-4.915-5.132-9.098-.122-.456 1.51-.186-1.086-5.283-.098.209-.337.41-.49.615a126 126 0 0 1-1.271-3.428c-.24-.122-.486-.254-.728-.377a179 179 0 0 0 2.558 5.719 209 209 0 0 1-2.462-4.649c.666 2.045 1.2 3.123.174 2.013a200 200 0 0 1-2.52-5.228q-.278-.206-.554-.414c.083 1.005.18 2.009.267 3.004-1.339-3.369-2.617-6.517-3.57-9.559a32 32 0 0 1-.871-3.417c-.12-.674 1.067 1.426-.818-2.764.194-.141.331-.317.507-.46-2.34-5.101-2.666-6.983-3.466-12.753.384 3.773-.073.433-.489-.464-.293-.613.262 1.902.042 1.653-.233-.242-1.572-3.412-1.064-.569 2.925 6.554 1.751 8.88 5.537 17.199a110 110 0 0 1-1.949-3.768c.102.664.197 1.259.323 1.976-1.443-4.896-.775-2.501-1.637-4.425-.85-1.929-2.068-5.568-2.707-8.054-.202-.783.286-.024-.088-1.804-.262-1.206-1.36-4.456-.95-5.322.27-.551 2.11 4.573.888-2.753.13-1.431.564 2.098.63 2.164.502.562.073-3.952-.453-6.001-.048-.167-.169 1.523-.505-.259-.772-4.238-.526-6.766-.125-9.542-.586-.272-1.42-3.899-1-8.414-.157-.238-.314-.467-.47-.707q.078 1.061.176 2.12c-.128.762-.221 1.573-.352 2.322-.061-4.562-.766-5.255-.91-7.484-.294-7.653 1.377-2.836 1.61-1.478-.235.954-.473 1.88-.69 2.835.208-.094.42-.189.629-.273 1.02-11.119 1.4-1.582 2.416-7.11-.794-1.548-.318-5.72 1.517-10.687.13-.567.269-1.133.407-1.697-.117-.13-.332-.184-.385-.361 1.485-6.199 3.451-6.735 3.747-7.252 1.457-2.27 1.382-4.478 1.669-5.21 1.217-3.042 1.968-3.742 3.17-6.619 1.338-3.072.04-1.166.262-2.201.178-.832 1.42-3.191 1.79-4.256-.063.472-.148.984-.2 1.454 1.943-2.931 3.633-5.192 5.966-8.392 1.5-4.436 5.782-5.923 3.362-5.896-2.492 2.852-3.857 4.426-5.416 5.84a97 97 0 0 1 4.359-6.094c.618-.439 1.1-.713 1.814-1.238.853-1.701 3.925-4.745 5.066-6.025 5.294-5.86 3.136-4.895 9.51-8.44-4.004 3.307-3.652 3.789-7.47 7.209 1.087-.46 2.962-2.264 2.056-.758 3.612-3.382 2.168-2.667 3.377-4.21 1.052-1.331 3.761-3.386 3.346-3.631.429-.007.788.028 1.215.026 2.65-1.915 5.3-3.64 8.14-5.308a99 99 0 0 0-3.128 2.83 106 106 0 0 1 2.801-1.391c6.267-4.986 19.641-8.578 16.908-9.642 3.542-1.385 4.096-1.266 6.2-1.549.173-.217.349-.407.519-.64 2.46-.596 4.096-1.651 6.244-2.05 2.153-.393 2.816.027 2.92-.942 1.441-.065 2.951-.165 4.325-.189q1.163-.55 2.344-1.079 1.98-.191 3.996-.334c.672-.566 5.847-1.069 8.102-1.559 2.219.276 2.33 1.706 7.401 1.139q-.222-.541-.447-1.083 1.73.02 3.497.072c.075.118.14.236.214.354a272 272 0 0 0-1.778-.043c.522.181 1.034.363 1.548.549q2.642-.548 5.393-1.015a191 191 0 0 0-7.334-.497c3.008-.407 5.159-.181 7.874-.493 2.374.51 1.49.804.532 1.354.898-.047 1.712-.086 2.559-.121-.594.554.96.858-4.126.824.35.155.706.303 1.046.466.832-.026 1.385.109 2.247.056 2.379-.144 4.283-1.046 4.128-1.393-.089-.185-2.493.098-2.39-.149.247-.606 5.741-.231-2.167-.984 2.62-.363 3.208-.059 6.148.16q-.333-.32-.656-.638 2.051.214 4.131.472c-1.957.928 8.129 1.952-1.03 2.315 2.735.189 5.282.419 7.896.702q-.824.088-1.638.184a184 184 0 0 0-3.496-.427c1.392.289 2.72.585 4.091.9 3.288.038 4.644-.183 6.229-.476-3.858-.758-2.638-.163-5.634-.346.13-.284.016-.565.304-.85 1.476.725 6.633.833 7.858.969 3.55.361.701.597 3.042.921 2.335.329 5.198.41 7.064 1.324.02-.334-.081-.7-.173-1.022 3.775.523 2.969.799 3.348.914 5.843 1.917 9.271 1.891 16.265 3.453-.819-.303-1.693-.604-2.584-.908 5.376.544 1.885-.095-2.723-1.353 4.363 1.037 6.817 1.024 9.839 1.6 2.995.564 8.137 2.298 9.941 3.077-4.434-.872-9.035-2.364-13.72-3.383.451.457.899.862 1.358 1.358 3.018.014 4.583.924 5.508 1.266 2.728 1.017 2.809.412 4.341 1.52-.009-.237-.009-.434-.021-.657 5.723 1.694 11.574 3.948 15.635 4.412.174.629.268 1.211.488 1.867q.527.087 1.024.211c2.132.525 3.85 1.397 5.64 1.874 2.056.543 1.422-.11 3.821.442.442.1 1.265.633 2.375.746 1.017.096 5.702-.17 5.814 1.218 2.084.565 4.01 1.105 5.975 1.603a231 231 0 0 1-5.914-1.278c1.614.764 3.199 1.5 4.776 2.217.279-.226.559-.457.826-.682 4.463.719 8.019 1.96 12.472 2.657.783.117-1.019-.762 2.469-.018 3.588.721 5.739 2.16 11.893 2.351.313.008 2.169-.63 4.218.055.472.158-1.556.214-.466.452 1.033.262 6.099.582 6.508.958-.052-.141-.368-.291-.52-.437.872-.051 1.741-.113 2.597-.182.081.246.168.493.249.739 4.769-.672 7.389-1.599 14.648-2.394a74 74 0 0 1-6.186-.293c-.52.301-1.051.599-1.582.892-3.467.152-6.624.116-10.029-.051-.565.275-1.128.546-1.71.813-.958-.07-1.754-.143-2.623-.228q.34-.292.686-.586c-1.69-.033-3.426-.101-5.192-.205 3.634-.861 9.841.631 9.452-.421q1.185.257 2.351.491c.377-.504 1.782-.343 4.699-.403-.661-.212-1.457-.422-1.995-.654 2.852.281 7.451-.123 10.369-.44 1.253-.128.064.414.44.4 1.994-.054 5.202-1.363 6.047-1.532 4.434-.799 7.757-.615 11.897-3.432-4.701 1.927-2.152.844-3.982 1.138-.569.092-6.917 2.086.893-.677.401-.139 4.205-1.552 7.015-2.995 2.965-1.496 5.103-2.833 3.33-1.071 1.822-1.585 3.195-3.095 4.57-4.803 4.957-2.987 2.419-2.615.775-1.957a37 37 0 0 0 1.635-2.032c-.35 2.254 5.391-6.137 5.64-9.661.212-1.109-1.056 1.756-.369-.729a37 37 0 0 0 1.184-3.721c-.933 1.712-.428-1.914-1.05-1.939.852-2.146 2-3.94 2.517-2.578a39.4 39.4 0 0 0-.718-5.933 40 40 0 0 1-.305 2.74c.518-6.477-2.942-14.067-2.414-15.697q-.5-1.183-1.072-2.34c-.301-.149-.599-.285-.901-.424-1.559-3.471-3.619-6.766-6.147-9.674 2.402 2.432 3.177 2.94 4.957 6.103a41 41 0 0 0-1.84-3.865c-4.107-3.752-4.635-4.334-11.493-8.725-.233-.314-5.81-3.14-6.076-3.11-.885-.492.652-.426.262-.66-.992-.908-8.641-2.574-8.576-2.501.913-.806 8.571-1.202 15.9 2.533 7.408 3.488 13.016 10.464 14.929 13.513 8.313 12.514 10.36 29.318 3.62 43.239-6.731 14.182-21.422 21.961-35.371 24.635-28.411 5.104-55.692-2.109-81.861-10.669-13.405-4.526-26.322-8.121-40.174-10.834-.673-.13-.424.156-.712.11-1.797-.292-3.409-.952-4.134-1.096-1.457-.289-.71.181-1.774-.002-10.843-1.847-20.875-3.141-31.94-3.374-.7-.012.02-.265-1.21-.242-.643.013-2.579.399-4.092.414-5.179.057-9.203.093-14.635.583-2.899.261-7.168.751-10.421 1.302-1.418.235-2.84.682-4.198.955-1.913.391-1.628-.046-1.932-.009-1.372.188-1.467.637-2.729.919-2.331.539-2.534.292-5.404 1.105-2.089.579-6.8 2.317-9.237 3.325-6.166 1.91-13.273 5.521-18.235 8.74-2.939 1.901-3.386 1.783-4.558 2.576-4.166 2.905-6.778 5.658-10.232 8.851-4.523 4.235-8.458 8.188-12.047 13.043-.575.787-.158.818-.704 1.607-2.033 2.924-4.327 6.83-5.85 9.606-1.684 3.08-2.723 4.055-4.013 7.276-.368.95-.069 1.393-.639 2.993-.909 2.553-2.233 5.238-2.829 7.049-.796 2.48.26.433-.727 3.792-.039.138-.494.561-.662 1.297-.472 2.147-.19 1.988-.857 5.126-.083.294-1.12 4.441-1.162 4.868-.404 2.465-.989 7.472-.986 8.958-.019 5.301.638 1.135-.547 5.62.245 1.992.544 3.954.895 6.034-.321-1.391-.345 4.314-.25 4.713.505 3.279.687 1.276 1.152 5.433-1.701-5.362.586 5.393 1.258 7.731 1.423 6.339 3.21 12.263 5.493 18.035 1.994 5.008 3.899 9.41 6.347 14.331 1.847 3.716 4.447 8.066 6.734 11.819.514.843-.071.328.38 1.069.451.733.166-.213.673.625 3.058 5.024 5.639 9.444 9.601 13.28.109.268.05.307.268.717 3.27 3.199 8.954 9.843 11.424 11.949 3.917 3.466 5.118 3.827 8.188 6.032 3.975 2.891 10.269 6.885 7.889 4.304 2.989 1.549 5.918 2.897 9.045 4.274.348.153-.007.336.132.398.882.397 1.274.255 1.886.474 1.668.583-1.151-.111 1.248.672 1.274.394 2.045.459 5.587 1.534 21.45 6.454 46.658 6.618 70.367 6.702 1.641.004.567-.289 2.619-.269 7.08.058 19.936.602 26.097.709 6.226.097 4.797-.363 8.693-.396.751-.003.126.214.805.247 4.597.213 9.955.924 13.676 1.281 2.446.236 2.269-.16 3.966-.036 2.524.189 5.091.853 6.443 1.02 6.281.779 10.737 1.112 16.541 2.295-.215-.124-.353-.227-.533-.343a225 225 0 0 1 20.697 4.674c-.3-.162-.59-.322-.89-.484 7.985 2.267 6.839 2.916 6.643.985.604.119 1.247.242 1.825.364-.458.817 4.056 2.867 10.025 5.357.457.183 3.676.483 2.978 1.337.85.06 1.367.077 2.093.129 1.131.801 2.276 1.618 3.398 2.443.692.246 1.393.502 2.086.758.183-.143.192-.372.491-.46 3.14 1.328 9.218 4.578 11.653 5.859l.732.375c6.109 3.073 11.737 7.367 14.752 11.758 1.762 2.003.416-.332 2.836 2.848.109.484.202.94.303 1.441 2.583 2.133 2.56 3.026 4.489 6.981 1.247 2.685 2.252 4.403 3.226 7.035.243.672-.044.671.132 1.125.629 1.518 2.306 5.862 2.562 7.002 2.569 10.143 2.891 19.248 1.689 29.035-.138 1.05.292-.282.145.806-.251 1.752-.513.665-.678 1.673-.504 2.803-.052 2.913-.898 6.813-2.81 12.866-10.155 26.709-19.808 36.564-.298.311-.1.466-.428.805-2.161 2.224-4.66 4.003-6.842 5.748-3.574 2.833-6.332 5.085-10.273 7.279-7.8 4.259-15.538 6.733-24.331 8.417-7.308 1.333-13.588 1.857-21.765 1.678-14.933-.407-29.714-3.453-43.979-8.022-18.519-5.921-37.315-10.903-56.161-14.407-.844-.155-.462-.314-.722-.348-2.459-.314-2.708-.043-3.47-.796-3.116-.347-4.222-.037-7.905-.525-2.025-.253-.451-.818-3.88-.802-3.048.079.217.638-8.769-.341-.242-.023-1.44-.533-3.321-.472-1.898.077.344.401-4.253.471-10.324.25-24.689 1.217-32.764 8.19-.234.198-1.517 1.389-2.483 2.782-1.008 1.395-1.683 3.002-1.855 3.562-.597 2.171-.209 1.795-.645 4.675-.244 2.322-.611 4.344-.148 7.279.067.341.492.923.918 3.11m-27.7-190.988c-.758-.221-2.828-.188-5.57-3.724-.252-.33 1.97.658.437-1.215 1.64 1.636 3.381 3.364 5.135 4.938zm26.126 211.325c-1.516-3.091-2.853-6.148-4.014-9.325a88 88 0 0 0 3.236 6.169c.235 1.036.491 2.083.778 3.156m224.129-155.42.008.004a46 46 0 0 0-1.249-.601 190 190 0 0 0-8.095-3.542l1.133.102c2.395.929 4.801 1.921 7.21 2.972l.31.136q.35.462.683.929m19.091 17.786c.901 1.977.403 1.634.707 2.802l.002-.001c.082.307.651 1.642.867 2.162.066-.257.104-.569.158-.843 2.544 4.484 4.133 14.153-.608 2.577.264.09.524.174.787.269-2.35-5.772-5.932-11.86-1.913-6.966M56.474 282.376c-2.164-3.516-3.178-5.367-4.476-8.86a60 60 0 0 1-1.342-4.169q.765 1.265 1.56 2.501a107 107 0 0 0 .74 3.398c.28.132.56.264.836.386.875 2.306 1.772 4.56 2.682 6.744m177.403 213.435c-1.047-1.753-.879-.886 3.404.158 1.487.366.143-.318 1.06-.063 1.622.449 2.732.867 3.443 1.224 1.473.736 1.251 1.205.406 1.268l-.747-.236a512 512 0 0 0-7.557-2.348zm-125.84 3.308-.004.01c-.37.014.413-2.086-.842.125a22.8 22.8 0 0 1 2.715-5.058 23 23 0 0 0-.857 1.473q.533-.549 1.094-1.053c.078-.758.604-1.188 2.015-2.546q-1.003.178-2.015.454c1.604-1.792 3.452-3.313 5.439-4.585l.251.201a31 31 0 0 1 1.953-1.742c.268-.016.527-.026.795-.036a39 39 0 0 1 2.644-1.662c.424.153-1.652 1.161 2.072-.505a35 35 0 0 0-2.971 2.348c-5.255 2.606-10.035 6.93-12.289 12.576m164.404 5.859c-6.132-.752-4.397-.782-2.862-1.222.953.419 1.914.827 2.862 1.222m-58.716-150.374c-1.835.449-3.663.898-5.562 1.338-3.76.249-7.48-.591-4.675-.919 3.378-.392 6.963.057 10.237-.419m-85.194-6.048c4.407 1.406.071.826-1.04.829-1.104-.852-2.844-1.307-5.559-2.296 2.577.86 5.872 1.233 6.6 1.466zm158.135 13.307c1.777.391 3.579.694 5.134 1.251-.589.299-3.669-.864-1.553.325a205 205 0 0 0-3.401-.774c.775-.099-.141-.518-.176-.799zm43.457 131.798c3.237-1.494 3.637-2.055 6.179-4.529.662.025-2.18 3.218-4.362 4.813q-.909-.135-1.817-.284m1.842-346.102c-.662.815-6.664 2.283-9.9 2.468q.556-.195 1.098-.398a69 69 0 0 0 8.802-2.07M120.647 346.6q.675.266 1.285.489a14 14 0 0 1-1.285-.489M56.52 184.853c-.16 1.577 1.835-2.401-.57 2.435v.001c-1.524 3.226-1.841 3.964-2.995 7.07-.23-1.334 1.886-7.815-1.409.952-.038.117.402.007-.107 1.408-.154.433-.916 1.742-1.608 3.887-.223.691-1.733 5.952.213-1.247-.5.087-.833-.428-1.263-.536.71-2.876 2.27-4.74 3.338-7.641 1.609-4.303 1.832-6.797 3.274-7.102-1.434 3.597-3.713 9.78-4.634 10.39-1.194 3.557-.905 4.754.258 1.974 4.01-12.208 1.733-3.107 5.87-13.512-.09-.192-.044-.685-.214-.691 2.058-2.797-.122 2.039-.153 2.612m-9.254 25.081q.082-3.378.374-6.764c.561.138.716 1.448.331 4.936-.24.603-.476 1.219-.705 1.828m145.19-83.82c.353-.264 1.225-.428 1.878-.631.611.238 16.413 3.325 8.37 2.133-1.216-.206-8.3-1.9-10.248-1.502M307.94 503.415a76 76 0 0 0 5.483-.859 82 82 0 0 1-8.139 2.488 69 69 0 0 0 2.656-1.629m-124.71-149.48c.788.023-1.837.412 1.272.387-2.312.243-4.512.436-6.803.637-.679-.218-1.363-.436-2.038-.657-.534.114-1.078.226-1.611.338.327-.283.618-.56.962-.848 3.796.737 4.746.039 8.218.143m113.171 8.099c.487.789-4.914-.282.276 1.236-1.115.127-2.704-.094-5.828-.836a219 219 0 0 0-1.378-.83c-.169.401-1.004.358-2.805.259l-.005-.002c-4.693-1.016-4.366-1.055-5.379-1.987 4.916 1.418 5.176.843 8.681 1.28 2.425.312 5.399 1.23 6.438.88M175.558 124.428c3.713-.282.44-1.061 6.806.057q-.641.145-1.278.295a230 230 0 0 0-5.528-.352m137.18 245.181c-.039-1.076-3.017-2.969-4.091-1.636 3.011 1.411 1.798.011 4.091 1.636m-182.291-22.132c6.173 1.606 4.807 2.355 2.07 2.296q-.53-.442-1.039-.883c-1.118-.189-2.228-.39-3.343-.612.78-.258 1.547-.527 2.312-.801m230.245 108.021c.744-4.827-1.964 4.852-1.355 1.499.533-2.636 2.083-5.878 2.176-4.468a68 68 0 0 1-.818 2.96zm3.172-27.775c-.72.841-.5-.326-.274 3.476.176 1.103-.63 9.716.219 6.131.204-3.085.237-6.397.055-9.607M70.934 305.897c.23-.175 4.791 4.964 5.18 5.682l.002-.001c1.017 2.15-3.315-3.463-2-.594-3.653-5.944-5.824-6.946-4.01-7.56 2.227 3.211.922 1.93.827 2.473M352.09 84.067l-.006-.007c.34.31 2.319 3.436 1.885 3.202-2.67-3.433-1.971-3.139-5.33-5.439-.063-.27-.109-.518-.192-.801 1.321.952 2.149 1.393 3.643 3.045m-142.796 45.609c-1.639-.251-4.464-1.161-6.304-1.468 6.022-.311 12.869 2.517 6.304 1.468m-44.549 351.525h.014l-.005.002zm-79.16-334.443c.227-.057.37-.068.446-.04l.011.016a6 6 0 0 0-.457.024m-22.08 147.173c-.979-2.688 4.244 5.214 5.779 7.796-.289-.065-.466.009-.931-.281-.854-2.305-4.756-7.14-4.848-7.515m192.06 62.172c-7.353-.693 2.394-1.612 2.654-.109-.019.023-2.466.122-2.654.109m-152.803-19.159c1.914.497-1.321-1.52 3.91 1.584q.364.443.735.884a95 95 0 0 1-4.645-2.468m104.369 14.959c-9.299.299-18.257.809-12.186 2.333.706-.047 1.423-.092 2.131-.14.098-.734 2.75-.33 6.53-.304.541-.291 2.656-.356 3.056-.603.77-.478-1.666-.819.469-1.286m6.079 139.662.53-.249c1.47.243 2.96.5 4.398.749q-.44.254-.876.509c-1.31-.332-2.701-.679-4.043-1.006zM47.544 219.154c-1.263-.987-1.446 2.025-.92 8.042.21-2.692.517-5.382.92-8.042M350.31 388.142c-.16.41-.325.814-.486 1.224 2.363 2.151 2.337 1.47 1.746-.077a53 53 0 0 0-1.26-1.147m15.572 43.004c.058-1.344-.247-.652-.243-.792.047-3.369.188-3.916-.527-8.006a67 67 0 0 0-.462-1.473c-.551 2.02.119 3.31-.13 7.381q.368-1.108.704-2.238c.12 2.272.139 4.495.064 6.755q.127.402.25.808c.126-.804.253-1.636.344-2.435m-169.181 56.093c-2.11-.487-4.227-.955-6.382-1.405l-.347.553c2.262.263 4.502.547 6.729.852M60.273 176.916a10 10 0 0 0 .06-.533c.07.058.034.256-.06.533M348.551 79.41c-1.897-1.656-5.116-3.428-7.68-4.434.08.403 6.344 3.45 7.935 5.387.358.173.554-.258-.255-.953m-209.49 270.082a107 107 0 0 0 1.944-.406 161 161 0 0 0 4.407.821l.225-.597c-6.552-.784-4.939-1.166-7.972-2.361.458.85.916 1.696 1.396 2.543m-10.488 136.251c4.406-1.368 6.118-1.816 3.355-1.911a54 54 0 0 0-4.757 1.715c.469.059.964.116 1.402.196m1.013-356.665c3.925-1.073 4.02-.236 7.798-1.349a147 147 0 0 0-6.174.666c-.541.224-1.092.454-1.624.683M61.154 280.573c-.413-1.598-2.958-3.825-3.86-8.724q-.146-.193-.283-.368c-.567-.707-1.032-1.202-1.568-1.882.105-.634.194-1.338.318-1.941l-.004-.009c-1.496-3.918-.978-1.225-1.336-1.197-.16.007-.916-3.048-.904-2.021-.019 1.61 1.991 6.497 2.035 7.642.003.138-.022.226-.083.252l-.06-.194c-.71-2.179-2.231-5.986-2.21-4.66.015.991.968 2.91 1.836 4.812.466 1.029.894 2.049 1.128 2.949-.543-3.964 2.258 3.502 1.908 4.58 2.435 3.84.915.058-.979-4.319 1.705 2.43-.282-1.366-.082-2.234 1.419 2.795 5.325 11.813 4.144 7.314m184.94 72.129c-3.186-.183-8.159-.782-10.372-.351-1.285.246 3.701.692.236 1.016 3.108.086 3.834-.052 3.32-.494a399 399 0 0 1 2.143-.035c.321.098.651.197.972.296.38-.149.762-.295 1.135-.443.748.079 1.506.16 2.256.245.094-.08.25-.144.31-.234m-3.745-213.434a289 289 0 0 0-2.531-.78c.063.125.142.26.218.392l.155.305c-.403-.437-4.259-2.125-6.004-2.303-.886-.093.888.993-2.719.058 2.613.714 4.976 1.337 7.524 2.074-.275.088-.541.181-.815.269l.004.002c.825.292 1.662.593 2.493.894.558-.305 1.112-.61 1.675-.911m106.698 246.406c-2.45-1.967-3.373-2.439-2.631-1.103l.007.006a49 49 0 0 1 2.956 1.895 28 28 0 0 0-.332-.798M77.317 157.713c3.1-5.873-6.127 5.135-3.664 3.673.081-.08 3.066-3.433 3.665-3.673m52.162 188.868q2.521.67 5.098 1.24c-.339-.33-.685-.662-1.018-.994q-2.042-.09-4.08-.246m19.335 137.346c1.81.486 6.448.732 8.772.258a161 161 0 0 0-3.586-.321c2.203-.028 4.6 0 6.809.075.189-.744-2.526-.509-6.479-.806-.544-.06-4.635-1.023-5.929-.26-.277.142 3.899.19 1.005.651 1.26.014 2.368.005 3.6.037l.264.548a133 133 0 0 0-4.456-.182m78.698-131.989c-4.391-.144-4.925.164-5.842.685q3.04-.045 6.106-.06c-.092-.208-.171-.416-.264-.625M187.17 487.774c2.301.518 1.391-.095 2.345.001 3.668.392 5.939 1.187 9.516 1.78l-.727.09.01.002c16.408 4.243 7.996 1.13-1.955-.899-.198-.209-.386-.416-.584-.623-4.447-.661-8.694-1.155-8.605-.351M50.841 206.017c.145-.162.402 1.553.802-1.467-.34-2.564-.838 1.384-1.386 2.282.087-.828.191-1.674.296-2.494-1.39 4.778-1.216 5.55-.208 3.914.067-.117.35-2.072.496-2.235m12.401-29.668c-.868-1.329-3.45 4.425-2.914 4.436.419-.745.533-1.443 1.073-2.185.547-.746.939-.791 1.841-2.251m40.008 157.505c-.154-.098-1.361-1.579-1.46-1.099 1.289 2.189 5.59 3.858 5.091 3.128-1.316-.73-2.241-1.09-3.63-2.03zm18.651 155.804c.03-.044 4.139-1.576 4.596-1.898.357-.386.498-.71.761-1.064-2.294.89-6.764 2.921-5.349 2.958z"/><path fill="#fff" d="M41.92 159.464c3.439-11.298 7.721-18.182 15.337-25.32 1.174-.891-1.085 2.669 3 1.938 5.343-.287 10.042-1.336 13.132-.017 3.834 1.637 17.443 7.957 20.717 14.826 1.442 3.023 3.55 6.924 2.697 13.813-.753 6.089-1.829 12.51-5.996 15.667-3.984 3.018-10.529 8.524-25.987 9.408-6.648.38-12.238.61-14.76-2.313-5.666-6.569-11.325-17.534-8.14-28.002"/><g fill="#DB1C41" clip-path="url(#a)"><path d="M76.375 172.375h-15a.94.94 0 0 1-.937-.937c0-.517.42-.938.937-.938h17.332l4.293-15H58.878l-.397-1.611a2.82 2.82 0 0 0-2.731-2.139h-1.937A2.816 2.816 0 0 0 51 154.562h1.875c0-.516.42-.937.938-.937h1.937a.94.94 0 0 1 .938.937h.028l3.522 14.304a2.82 2.82 0 0 0-1.675 2.572 2.816 2.816 0 0 0 2.812 2.812h1.099a2.816 2.816 0 0 0 2.651 3.75 2.816 2.816 0 0 0 2.651-3.75h5.948a2.816 2.816 0 0 0 2.651 3.75 2.816 2.816 0 0 0 2.813-2.812 2.816 2.816 0 0 0-2.813-2.813m4.14-15-3.222 11.25H62.11l-2.77-11.25zm-14.452 17.813a.939.939 0 0 1-1.875 0 .938.938 0 0 1 1.875 0m10.312.937a.94.94 0 0 1-.937-.937.938.938 0 0 1 1.875 0 .94.94 0 0 1-.938.937M68.875 146h1.875v3.75h-1.875zm-7.019 3.684 1.326-1.325 2.65 2.651-1.325 1.326zm11.931 1.327 2.652-2.651 1.325 1.326-2.651 2.651z"/></g><path fill="#fff" d="M112.446 502.888c10.894 3.315 17.532 7.444 24.415 14.789.86 1.132-2.573-1.047-1.869 2.891.277 5.154 1.288 9.685.017 12.664-1.579 3.697-7.673 16.82-14.296 19.978-2.916 1.39-6.677 3.423-13.321 2.6-5.871-.726-12.062-1.763-15.107-5.782-2.91-3.841-8.22-10.152-9.072-25.058-.367-6.411-.588-11.802 2.23-14.233 6.335-5.464 16.908-10.921 27.003-7.849"/><g fill="#DB1C41" clip-path="url(#b)"><path d="m118.211 526.053-6.365-.925-2.846-5.767-2.846 5.767-6.364.925 4.605 4.489-1.087 6.338 5.692-2.992 5.693 2.992-1.088-6.338zM109 531.77l-3.202 1.683.611-3.566-2.59-2.525 3.58-.52 1.601-3.244 1.601 3.244 3.58.52-2.59 2.525.611 3.566zm.938-18.77h-1.876v4.467h1.876zm0 27.533h-1.876V545h1.876zm-6.195-26.674-1.732.717 1.71 4.127 1.732-.717zm10.537 25.439-1.732.718 1.709 4.127 1.733-.718zm-15.931-22.275-1.326 1.326 3.159 3.159 1.325-1.326zm19.469 19.469-1.326 1.326 3.159 3.159 1.325-1.326zm-23.241-14.481-.718 1.733 4.127 1.709.718-1.732zm25.438 10.537-.717 1.732 4.127 1.71.717-1.733zm-22.548-4.486H93v1.876h4.467zm27.533 0h-4.467v1.876H125zm-27.014 4.487-4.127 1.709.718 1.732 4.127-1.709zm25.439-10.537-4.127 1.709.717 1.733 4.127-1.71zm-23.244 14.48-3.158 3.159 1.326 1.325 3.158-3.158zm19.47-19.469-3.159 3.159 1.326 1.325 3.159-3.158zm-15.93 22.274-1.71 4.128 1.733.717 1.709-4.127zm10.536-25.438-1.709 4.127 1.732.717 1.71-4.127z"/></g><path fill="#fff" d="M136.308 333.65c-3.498 11.537-3.647 7.723-11.396 15.011-1.194.911-13.968 7.521-17.804 5.754-7.834-3.609-3.979 2.741-7.122 1.394-3.9-1.671-18.034-10.856-21.366-17.87-1.466-3.087-2.092-5.733-1.224-12.768.767-6.218 1.86-12.774 6.1-15.998 4.054-3.082 5.748-8.215 21.475-9.118 6.764-.388 17.376 1.304 19.941 4.289 5.766 6.708 14.637 18.617 11.396 29.306M349.35 501.296c-11.537-3.556-7.723-3.707-15.011-11.585-.911-1.214-7.521-14.201-5.754-18.101 3.609-7.965-2.741-4.045-1.394-7.241 1.671-3.966 10.856-18.334 17.87-21.722 3.087-1.491 5.733-2.127 12.768-1.245 6.218.78 12.774 1.892 15.998 6.203 3.082 4.121 8.215 5.843 9.118 21.832.388 6.877-1.304 17.666-4.289 20.274-6.708 5.861-18.617 14.88-29.306 11.585"/><path fill="#DB1C41" d="m350.834 460.353-1.345 1.854-1.344-1.854H341v19.295h7.145l1.344-1.855 1.345 1.855H373v-19.295zm20.291 17.42H351.79l-1.363-1.881v-2.193h-1.875v2.193l-1.364 1.881h-4.313v-15.545h4.313l1.364 1.88v2.193h1.875v-2.193l1.363-1.881h19.335z"/><path fill="#DB1C41" d="M348.552 468.226h1.875v3.548h-1.875zm8.321 4.348 6.473-6.473 1.325 1.326-6.473 6.473zm4.739 1.126a2.866 2.866 0 0 0 2.863 2.863 2.866 2.866 0 0 0 2.863-2.863 2.867 2.867 0 0 0-2.863-2.864 2.867 2.867 0 0 0-2.863 2.864m3.851 0a.99.99 0 0 1-.988.988.99.99 0 0 1 0-1.977.99.99 0 0 1 .988.989m-8.386-4.536a2.867 2.867 0 0 0 2.863-2.863 2.866 2.866 0 0 0-2.863-2.863 2.867 2.867 0 0 0-2.864 2.863 2.867 2.867 0 0 0 2.864 2.863m0-3.852a.99.99 0 0 1 .988.989.99.99 0 0 1-.988.988.99.99 0 0 1-.989-.988.99.99 0 0 1 .989-.989M108.188 317.625H96.312v1.875h11.876zm0 3.75h-1.876v1.875h1.876zm-5.626 0h-6.25v1.875h6.25zm5.626 3.75h-1.876V327h1.876zm-5.626 0h-6.25V327h6.25zm5.626 3.75h-1.876v1.875h1.876zm-5.626 0h-6.25v1.875h6.25zm5.626 5.625H96.312v1.875h11.876z"/><path fill="#DB1C41" d="M119.438 318.5v-2.812A4.693 4.693 0 0 0 114.75 311h-17.5a4.693 4.693 0 0 0-4.687 4.688v22.624A4.693 4.693 0 0 0 97.25 343h17.5a4.693 4.693 0 0 0 4.688-4.688V335.5h-7.5v-17zm-7.5-2.812a2.815 2.815 0 0 1 2.812-2.813 2.815 2.815 0 0 1 2.812 2.813v.937h-5.624zm-.935 25.437H97.25a2.816 2.816 0 0 1-2.812-2.813v-22.624a2.816 2.816 0 0 1 2.812-2.813h13.753a4.66 4.66 0 0 0-.941 2.813v22.624c0 1.055.351 2.029.941 2.813m6.559-3.75v.937a2.815 2.815 0 0 1-2.812 2.813 2.815 2.815 0 0 1-2.812-2.813v-.937z"/><defs><clipPath id="a"><path fill="#fff" d="M51 146h32v32H51z"/></clipPath><clipPath id="b"><path fill="#fff" d="M93 513h32v32H93z"/></clipPath></defs></svg>