<svg width="262" height="283" viewBox="0 0 262 283" fill="none" xmlns="http://www.w3.org/2000/svg">
<g clip-path="url(#clip0_14_1591)">
<path d="M122.672 5.9795C118.098 6.39004 119.539 11.5038 116.836 8.46055L119.826 3.85544C120.255 3.19502 121.544 1.82063 122.126 1.31192L123.495 0.116022C123.898 -0.240963 125.5 0.28559 125.473 0.821068C125.446 1.35655 125.169 2.48105 124.856 2.92728L122.681 5.9795H122.672Z" fill="#149A76"/>
<path d="M131.506 10.2365C132.141 9.75461 134.549 9.86171 134.674 10.5221C134.835 11.3521 134.719 12.9139 134.227 13.6011C133.833 14.1545 132.096 13.9403 131.497 13.619C130.745 13.2174 130.817 10.7542 131.497 10.2276L131.506 10.2365Z" fill="#149A76"/>
<path d="M28.0948 68.8089C28.0232 69.1569 26.3227 69.0677 26.26 68.7107L25.5798 64.882C25.4813 64.3466 26.3406 63.115 26.8776 62.9365C27.6025 62.7044 29.0614 64.1234 28.9093 64.8553L28.0948 68.8089Z" fill="#149A76"/>
<path d="M50.4792 12.9764C50.9447 12.3874 53.5044 11.9769 53.8177 12.5748C54.2115 13.3156 54.5337 14.7435 54.0325 15.4128C53.6297 15.9483 52.2961 16.457 51.6249 16.4481C50.7836 16.4392 49.9512 13.6458 50.4882 12.9764H50.4792Z" fill="#149A76"/>
<path d="M164.022 10.0759C165.266 10.0134 166.528 10.415 166.841 11.1201C167.154 11.8251 166.823 14.2883 166.045 14.1277L163.073 13.5297C162.312 13.378 163.261 10.1116 164.022 10.0759Z" fill="#149A76"/>
<path d="M109.488 160.688L105.138 157.529C105.237 157.198 106.937 155.03 107.403 155.592L109.793 158.439C109.954 158.635 109.757 159.43 109.488 160.688Z" fill="#149A76"/>
<path d="M10.2748 44.1769C11.2325 44.0609 12.6377 44.4536 12.9689 45.0248C13.3 45.5959 12.7093 47.7468 12.0559 47.6218L9.74678 47.1756C9.10236 47.0507 9.60358 44.2572 10.2748 44.1769Z" fill="#149A76"/>
<path d="M23.906 46.7204C24.8637 46.7472 26.0809 47.1667 26.4389 47.72C26.7969 48.2733 26.2957 50.3617 25.6423 50.2367L23.2705 49.7727C22.6172 49.6477 23.2258 46.6937 23.906 46.7204Z" fill="#149A76"/>
<path d="M251.126 68.2377C251.152 67.7022 254.043 66.899 254.097 67.4256L254.366 70.0762C254.419 70.6027 253.041 70.9776 252.504 70.9329C251.788 70.8705 251.081 69.1569 251.126 68.2377Z" fill="#149A76"/>
<path d="M151.742 159.688L148.618 156.841C148.234 156.493 149.764 154.592 150.149 154.905L152.959 157.198L151.751 159.688H151.742Z" fill="#149A76"/>
<path d="M214.403 9.52258C214.984 9.04065 216.712 8.71936 217.097 9.12097C217.616 9.64752 218.18 11.2897 217.517 11.6109L215.521 12.5748C214.85 12.8961 213.839 9.99558 214.403 9.52258Z" fill="#149A76"/>
<path d="M183.659 6.72917C184.285 6.57745 185.672 6.72917 186.022 7.16648C186.487 7.75551 186.478 9.85279 185.744 9.83495L183.22 9.76355C182.468 9.7457 182.916 6.91659 183.659 6.7381V6.72917Z" fill="#149A76"/>
<path d="M141.798 163.544C142.103 163.098 144.134 162.785 144.501 163.187C144.985 163.713 145.486 165.266 144.85 165.579L142.917 166.516C142.273 166.828 141.351 164.213 141.798 163.544Z" fill="#149A76"/>
<path d="M37.0987 35.047C36.6512 35.3862 34.3958 35.0738 34.4226 34.5294L34.5479 32.1554C34.5748 31.5843 36.5528 31.8074 37.0092 32.1287C37.6178 32.557 37.6894 34.6008 37.0987 35.0559V35.047Z" fill="#149A76"/>
<path d="M241.799 79.3846C241.951 79.9914 240.188 80.2592 240.054 79.572L239.275 75.788C239.168 75.2882 240.081 74.36 240.475 74.119L241.799 79.3757V79.3846Z" fill="#149A76"/>
<path d="M89.5559 12.4409C89.7439 11.959 92.232 12.084 92.1694 12.6105L91.9188 14.7613C91.8561 15.2879 90.1287 14.9131 89.7081 14.5918C89.2874 14.2705 89.2605 13.2174 89.5649 12.4409H89.5559Z" fill="#149A76"/>
<path d="M114.599 1.81171C115.091 1.50827 116.577 1.47257 116.836 1.92773C117.096 2.38288 117.23 3.81082 116.72 3.95362L114.867 4.47125C114.366 4.61404 114.151 2.08837 114.599 1.81171Z" fill="#149A76"/>
<path d="M137.467 5.31014C137.583 4.90853 139.731 4.01607 139.812 4.4266L140.268 6.67561C140.349 7.07722 139.176 7.52345 138.764 7.56807C138.147 7.63947 137.288 5.90809 137.458 5.31014H137.467Z" fill="#149A76"/>
<path d="M255.422 95.6809C255.815 95.1722 258.098 94.6635 257.964 95.1812L257.418 97.2963C257.239 97.9835 254.983 96.2521 255.422 95.6809Z" fill="#149A76"/>
<path d="M18.6254 41.9725C19.243 41.5263 21.2479 41.2764 21.1226 41.8297L20.6571 43.8735C20.496 44.5696 18.0437 42.4009 18.6254 41.9725Z" fill="#149A76"/>
<path d="M180.007 11.8876L179.613 13.7082C179.515 14.1634 177.707 13.619 177.778 13.1638L178.11 11.1826C178.181 10.772 180.105 11.4592 180.007 11.8876Z" fill="#149A76"/>
<path d="M149.934 9.82601C149.558 11.3164 147.947 11.7984 147.697 10.415L148.287 7.84474C148.368 7.48775 149.093 8.45162 149.934 9.82601Z" fill="#149A76"/>
<path d="M249.514 130.862C249.658 130.55 251.537 130.335 251.555 130.683L251.627 132.495C251.645 133.022 250.302 133.2 249.846 132.95C249.389 132.7 249.3 131.335 249.514 130.862Z" fill="#149A76"/>
<path d="M192.985 17.3941C193.477 16.9836 195.562 16.6623 195.401 17.1353L194.793 18.9113C194.578 19.5449 192.475 17.8225 192.985 17.3941Z" fill="#149A76"/>
<path d="M233.986 155.637C234.299 155.458 235.409 155.672 235.633 155.958C235.964 156.386 235.946 157.877 235.4 157.886H233.646C233.1 157.886 233.52 155.904 233.995 155.637H233.986Z" fill="#149A76"/>
<path d="M65.0323 151.781C64.0925 153.227 62.9022 149.3 63.7614 149.318L65.4977 149.345C66.0347 149.354 65.4709 151.112 65.0323 151.781Z" fill="#149A76"/>
<path d="M152.709 160.045C152.941 159.572 155.474 159.626 155.286 160.117L154.588 161.92C154.302 162.66 152.216 161.027 152.709 160.054V160.045Z" fill="#149A76"/>
<path d="M67.4042 173.147C67.8159 172.736 69.9998 172.504 69.8387 172.968L69.23 174.744C69.0152 175.378 66.9298 173.629 67.4042 173.147Z" fill="#149A76"/>
<path d="M71.7181 182.009C72.0045 181.821 73.0696 182.178 73.2128 182.491C73.4187 182.964 73.5261 184.285 73.0159 184.276L71.3154 184.249C70.7963 184.249 71.2885 182.286 71.7271 182L71.7181 182.009Z" fill="#149A76"/>
<path d="M237.423 8.91572C237.933 8.54088 240.009 8.21959 239.839 8.68367L239.186 10.424C238.953 11.0398 236.886 9.31732 237.432 8.91572H237.423Z" fill="#149A76"/>
<path d="M200.584 17.5369C201.693 17.0193 203.233 16.7605 203.081 17.2335L202.49 19.0541C202.284 19.6967 199.975 17.8225 200.584 17.5369Z" fill="#149A76"/>
<path d="M225.653 23.1237C225.716 22.6239 228.079 22.3294 227.944 22.8203L227.39 24.8194C227.211 25.462 225.564 23.8734 225.653 23.1237Z" fill="#149A76"/>
<path d="M259.36 106.756C260.255 106.158 262.134 105.891 261.991 106.373L261.445 108.184C261.248 108.836 258.823 107.122 259.36 106.756Z" fill="#149A76"/>
<path d="M233.234 40.2679C233.064 40.6963 231.005 38.7329 231.426 38.5455L233.583 37.6084C234.084 37.3853 233.583 39.3755 233.234 40.2679Z" fill="#149A76"/>
<path d="M232.008 58.3582L230.164 60.1074L228.32 57.9476C228.097 57.6888 229.099 57.0284 229.421 57.1801L231.999 58.3582H232.008Z" fill="#149A76"/>
<path d="M62.1235 152.21C62.5621 152.013 64.5401 152.897 64.1821 153.218L62.7858 154.476C62.3115 154.905 61.5417 152.477 62.1235 152.21Z" fill="#149A76"/>
<path d="M23.2259 54.0208C23.4138 56.002 21.0957 56.011 21.2926 54.0208C21.3642 53.2711 23.1543 53.2711 23.2259 54.0208Z" fill="#149A76"/>
<path d="M108.477 164.49C108.647 164.026 110.965 163.874 110.831 164.347L110.32 166.177C110.141 166.828 108.253 165.106 108.477 164.49Z" fill="#149A76"/>
<path d="M63.4123 176.565L63.3049 172.986L65.0234 174.566C65.3724 174.887 64.3342 175.842 63.4123 176.565Z" fill="#149A76"/>
<path d="M157.623 14.4044C157.99 16.7069 158.097 17.2245 157.739 17.3049C157.381 17.3852 156.226 17.3138 156.343 16.9657L156.898 15.3058C157.623 14.3954 158.151 13.7439 157.623 14.3954V14.4044Z" fill="#149A76"/>
<path d="M127.594 7.72872C127.612 7.41636 129.053 7.16647 129.25 7.40743C129.546 7.77334 129.904 8.54086 129.546 8.8443L128.525 9.70999C128.176 10.0045 127.568 8.1928 127.594 7.72872Z" fill="#149A76"/>
<path d="M104.172 7.2111C104.467 7.88938 101.675 7.94292 101.639 7.19326C101.603 6.44359 103.769 6.26509 104.172 7.2111Z" fill="#149A76"/>
<path d="M9.28136 130.103C9.54091 129.916 10.7581 130.139 10.8745 130.442C11.0625 130.889 11.1699 132.263 10.6865 132.209L9.13815 132.031C8.65484 131.977 8.8786 130.389 9.28136 130.103Z" fill="#149A76"/>
<path d="M2.54187 82.1691C2.82828 82.8295 0.017909 82.8741 8.52541e-06 82.1601C-0.0268422 81.3034 2.09436 81.1338 2.54187 82.1691Z" fill="#149A76"/>
<path d="M232.67 64.0521C232.957 64.4269 232.214 64.882 231.238 65.0784C229.493 63.0257 232.223 63.472 232.67 64.0521Z" fill="#149A76"/>
<path d="M53.0033 157.1C53.5273 157.1 53.952 156.677 53.952 156.154C53.952 155.632 53.5273 155.208 53.0033 155.208C52.4793 155.208 52.0546 155.632 52.0546 156.154C52.0546 156.677 52.4793 157.1 53.0033 157.1Z" fill="#149A76"/>
<path d="M233.225 73.655C233.749 73.655 234.174 73.2314 234.174 72.7089C234.174 72.1865 233.749 71.7629 233.225 71.7629C232.701 71.7629 232.276 72.1865 232.276 72.7089C232.276 73.2314 232.701 73.655 233.225 73.655Z" fill="#149A76"/>
<path d="M57.2725 151.995C57.7964 151.995 58.2212 151.572 58.2212 151.049C58.2212 150.527 57.7964 150.103 57.2725 150.103C56.7485 150.103 56.3237 150.527 56.3237 151.049C56.3237 151.572 56.7485 151.995 57.2725 151.995Z" fill="#149A76"/>
<path d="M234.935 77.0642C235.459 77.0642 235.883 76.6406 235.883 76.1182C235.883 75.5957 235.459 75.1721 234.935 75.1721C234.411 75.1721 233.986 75.5957 233.986 76.1182C233.986 76.6406 234.411 77.0642 234.935 77.0642Z" fill="#149A76"/>
<path d="M15.1617 76.6537C16.1194 76.3413 17.2113 76.0646 17.1039 76.4216L16.6564 77.9209C16.549 78.2779 15.6809 77.3498 15.1617 76.6537Z" fill="#149A76"/>
<path d="M78.6726 190.121C78.5831 190.434 77.4196 189.14 77.6881 188.952L79.3797 187.756C79.4244 187.622 78.9501 189.193 78.6726 190.121Z" fill="#149A76"/>
<path d="M18.8402 129.853C19.3642 129.853 19.7889 129.43 19.7889 128.907C19.7889 128.385 19.3642 127.961 18.8402 127.961C18.3162 127.961 17.8915 128.385 17.8915 128.907C17.8915 129.43 18.3162 129.853 18.8402 129.853Z" fill="#149A76"/>
<path d="M19.6905 64.2841C20.2145 64.2841 20.6393 63.8606 20.6393 63.3381C20.6393 62.8156 20.2145 62.3921 19.6905 62.3921C19.1666 62.3921 18.7418 62.8156 18.7418 63.3381C18.7418 63.8606 19.1666 64.2841 19.6905 64.2841Z" fill="#149A76"/>
<path d="M94.595 6.83627C95.5526 6.5239 96.6446 6.24724 96.5372 6.60423L96.0897 8.10356C95.9823 8.46055 95.1141 7.53239 94.595 6.83627Z" fill="#149A76"/>
<path d="M175.997 10.6381C176.521 10.6381 176.946 10.2146 176.946 9.69213C176.946 9.16967 176.521 8.74612 175.997 8.74612C175.473 8.74612 175.049 9.16967 175.049 9.69213C175.049 10.2146 175.473 10.6381 175.997 10.6381Z" fill="#149A76"/>
<path d="M248.969 118.091C248.074 120.331 245.836 119.447 247.912 117.573C249.094 116.083 249.711 116.181 248.969 118.091Z" fill="#149A76"/>
<path d="M13.0763 118.242L10.248 117.404C10.8656 116.868 12.4946 117.091 13.0763 118.242Z" fill="#149A76"/>
<path d="M253.587 105.212C252.638 105.944 252.978 105.685 253.82 105.034C254.894 104.213 254.625 104.418 253.587 105.212Z" fill="#149A76"/>
<path d="M7.79563 99.6078L6.04138 100.955L6.39044 99.0634C6.46204 98.6975 7.90303 99.5988 7.79563 99.6078Z" fill="#149A76"/>
<path d="M108.038 9.82602C106.928 11.0041 106.57 11.3789 107.089 10.8345L108.038 9.82602Z" fill="#149A76"/>
<path d="M15.3228 89.7372C14.58 89.4605 13.9892 88.8715 13.7118 88.1307L15.3228 89.7372Z" fill="#149A76"/>
<path d="M82.7626 182.705C81.8139 183.437 82.154 183.178 82.9953 182.527C84.0694 181.705 83.8009 181.911 82.7626 182.705Z" fill="#149A76"/>
<path d="M146.864 157.663C146.918 157.725 146.238 157.02 145.549 156.315C145.584 156.065 146.068 156.493 146.864 157.663Z" fill="#149A76"/>
<path d="M82.6106 194.03H83.1834L83.7473 194.048L83.1834 194.066H82.6106L82.0557 194.048L82.6106 194.03Z" fill="#149A76"/>
<path d="M54.4264 150.603H54.9992L55.5631 150.621L54.9992 150.639H54.4264L53.8715 150.621L54.4264 150.603Z" fill="#149A76"/>
<path d="M245.612 141.687L245.621 142.241V142.821L245.612 143.374L245.594 142.821V142.241L245.612 141.687Z" fill="#149A76"/>
<path d="M18.5538 126.765H19.1266L19.6815 126.774L19.1266 126.792H18.5538L17.9989 126.774L18.5538 126.765Z" fill="#149A76"/>
<path d="M8.30581 113.138H8.87862L9.43354 113.155L8.87862 113.164H8.30581L7.74194 113.155L8.30581 113.138Z" fill="#149A76"/>
<path d="M250.875 111.442H251.448L252.002 111.451L251.448 111.469H250.875L250.32 111.451L250.875 111.442Z" fill="#149A76"/>
<path d="M7.31226 107.631L7.32117 108.184V108.756L7.31226 109.318L7.29443 108.756V108.184L7.31226 107.631Z" fill="#149A76"/>
<path d="M258.563 104.623H259.136L259.691 104.641L259.136 104.65H258.563L257.999 104.641L258.563 104.623Z" fill="#149A76"/>
<path d="M8.30581 102.071H8.87862L9.43354 102.089L8.87862 102.098H8.30581L7.74194 102.089L8.30581 102.071Z" fill="#149A76"/>
<path d="M243.903 87.1936L243.912 87.7469V88.3181L243.903 88.8804L243.885 88.3181V87.7469L243.903 87.1936Z" fill="#149A76"/>
<path d="M239.633 84.6412L239.642 85.1945V85.7657L239.633 86.319L239.615 85.7657V85.1945L239.633 84.6412Z" fill="#149A76"/>
<path d="M18.5538 85.0428H19.1266L19.6815 85.0517L19.1266 85.0696H18.5538L17.9989 85.0517L18.5538 85.0428Z" fill="#149A76"/>
<path d="M236.214 79.5274L236.223 80.0807V80.6608L236.214 81.2141L236.197 80.6608V80.0807L236.214 79.5274Z" fill="#149A76"/>
<path d="M244.896 69.7103H245.469L246.024 69.7281L245.469 69.737H244.896L244.332 69.7281L244.896 69.7103Z" fill="#149A76"/>
<path d="M98.7031 6.30078L98.712 6.85411V7.42528L98.7031 7.98754L98.6853 7.42528V6.85411L98.7031 6.30078Z" fill="#149A76"/>
<path d="M251.578 75.2463L251.155 75.6692L251.579 76.0919L252.003 75.6691L251.578 75.2463Z" fill="#149A76"/>
<path d="M254.133 77.7981L253.709 78.221L254.134 78.6437L254.558 78.2209L254.133 77.7981Z" fill="#149A76"/>
<path d="M239.613 82.0584L239.189 82.4813L239.613 82.904L240.037 82.4811L239.613 82.0584Z" fill="#149A76"/>
<path d="M12.4408 101.658L12.0168 102.081L12.4409 102.504L12.8649 102.081L12.4408 101.658Z" fill="#149A76"/>
<path d="M14.1416 110.173L13.7177 110.596L14.1418 111.019L14.5657 110.596L14.1416 110.173Z" fill="#149A76"/>
<path d="M257.557 110.153L257.133 110.576L257.557 110.999L257.981 110.576L257.557 110.153Z" fill="#149A76"/>
<path d="M17.5585 118.681L17.1345 119.104L17.5586 119.527L17.9826 119.104L17.5585 118.681Z" fill="#149A76"/>
<path d="M14.9973 131.452L14.5734 131.875L14.9975 132.297L15.4214 131.875L14.9973 131.452Z" fill="#149A76"/>
<path d="M17.5618 138.269L17.1378 138.692L17.5619 139.115L17.9859 138.692L17.5618 138.269Z" fill="#149A76"/>
<path d="M250.734 138.256L250.31 138.679L250.734 139.102L251.158 138.679L250.734 138.256Z" fill="#149A76"/>
<path d="M60.2704 148.478L59.8464 148.901L60.2705 149.323L60.6945 148.901L60.2704 148.478Z" fill="#149A76"/>
<path d="M55.1449 154.444L54.7209 154.867L55.145 155.29L55.569 154.867L55.1449 154.444Z" fill="#149A76"/>
<path d="M74.5286 23.6413C75.4504 23.1237 77.9744 24.2661 78.1982 25.1853C78.4577 26.2652 77.8402 28.416 76.8646 28.9426C76.0233 29.3888 73.8752 28.8355 73.2576 28.1304C72.4163 27.1666 72.6938 24.6588 74.5286 23.6413Z" fill="#149A76"/>
<path d="M185.27 18.3312C184.5 20.0358 182.701 20.839 181.815 20.4642C180.669 19.9912 179.792 17.0104 180.687 16.3232C181.698 15.5378 183.023 15.0291 183.811 15.0469C184.598 15.0648 185.654 17.4923 185.279 18.3312H185.27Z" fill="#149A76"/>
<path d="M160.03 24.7569C158.956 24.6855 157.22 22.6864 155.931 21.3031C156.692 20.3749 159.404 18.6346 160.594 18.9113C162.25 19.2861 161.614 24.8729 160.021 24.7569H160.03Z" fill="#149A76"/>
<path d="M169.795 31.6378L167.056 30.4419L165.955 32.4857C165.714 32.9408 164.819 31.6825 165.024 31.2005L166.886 26.8453C167.02 26.524 167.692 25.5155 167.96 25.7208L169.858 27.1487L172.22 29.0229C172.614 29.3353 170.251 31.8342 169.786 31.6378H169.795Z" fill="#149A76"/>
<path d="M140.724 156.636C140.304 157.154 138.54 158.118 138.03 157.698C137.52 157.279 136.813 156.226 136.616 155.592C136.366 154.798 138.209 153.593 139.248 153.272C140.134 152.995 143.365 153.397 142.81 154.084L140.733 156.636H140.724Z" fill="#149A76"/>
<path d="M32.4446 41.3389C32.9458 40.6071 36.1768 41.2229 36.2753 42.0975C36.3737 42.9721 36.2395 44.3197 35.8636 45.1229C35.4877 45.9261 32.9906 45.7477 32.3103 45.1676C31.6301 44.5875 31.5854 42.5705 32.4446 41.3389Z" fill="#149A76"/>
<path d="M169.141 24.5249C168.927 24.507 168.497 23.1059 168.73 23.0256L172.775 21.5619C173.438 21.3209 174.914 22.258 175.192 22.8738C175.469 23.4896 174.234 24.9265 173.536 24.873L169.141 24.5338V24.5249Z" fill="#149A76"/>
<path d="M106.857 15.7698C106.141 16.4927 103.841 17.885 103.715 17.2424L103.232 14.7167C103.107 14.0652 104.037 12.1464 104.682 12.2357C105.326 12.3249 106.561 12.7712 107.116 13.1192C107.671 13.4673 107.313 15.3147 106.857 15.7788V15.7698Z" fill="#149A76"/>
<path d="M93.9327 25.8011C93.888 26.0599 93.7269 26.4258 93.4762 26.6043C93.2525 26.7561 92.5544 26.8364 92.2948 26.7471C92.1516 26.0599 93.8253 25.8368 93.9327 25.8011Z" fill="#149A76"/>
<path d="M223.505 76.1717C223.783 75.5649 223.353 74.8152 223.281 74.1905C223.63 72.6108 221.67 65.8638 223.335 69.2819L226.271 75.306C226.539 75.8683 224.176 76.2431 223.514 76.1717H223.505Z" fill="#149A76"/>
<path d="M223.281 74.1904C223.147 74.7795 223.049 76.1182 223.505 76.1717C223.89 77.0196 224.543 79.813 225.438 79.4738C227.694 78.6349 226.485 76.5108 230.764 75.1008C231.113 74.9847 232.527 76.4484 232.187 76.6001L229.52 77.7782L229.153 83.4988C229.681 83.7844 232.527 84.7751 233.753 84.8197L235.847 84.9L234.317 86.7653C234.138 86.9794 234.568 87.747 234.845 87.7202L236.268 87.6042C236.886 87.5506 237.745 87.4792 237.351 87.5149L237.047 90.4779C236.957 91.3347 234.299 89.6033 233.959 89.1571L231.882 89.8889L233.234 94.7796C232.581 95.3418 233.887 94.3423 234.093 94.0567L235.382 92.2271C235.588 91.9326 237.62 92.361 237.494 92.7001L235.856 96.9572C235.597 97.0018 237.092 96.743 237.575 96.6537C238.103 96.5556 238.434 98.5725 238.515 99.0902L241.772 96.1807L244.305 100.955C244.646 101.589 245.603 103.035 245.183 103.552L243.742 105.337L242.301 107.122C241.88 107.64 245.514 109.871 244.887 110.469L243.115 112.165L244.082 116.333C244.314 117.35 243.58 119.206 242.784 120.661L245.46 122.58L243.026 123.74L242.9 124.356L242.202 127.792C242.086 128.381 240.206 128.149 238.667 128.015L238.899 129.309C239.186 129.755 239.956 130.978 240.358 130.674L241.665 129.702L243.017 128.702C243.33 128.47 243.07 130.085 242.793 130.353C240.197 132.861 240.296 138.608 241.683 141.402C241.951 141.937 242.39 142.749 242.292 142.767L240.967 143.008L236.742 143.749C230.979 144.766 226.548 140.84 227.327 143.499C228.562 147.712 234.415 145.802 233.046 147.604L230.11 147.792L230.773 149.416C231.193 150.451 232.008 152.95 231.972 154.128C231.811 160.429 227.193 165.507 221.106 167.042C217.097 168.051 214.439 170.675 213.356 174.655C212.389 178.189 210.026 180.742 205.649 180.465C198.713 180.028 196.314 175.797 193.307 176.627L191.311 177.181C190.855 177.306 191.087 172.701 187.892 172.424C186.764 172.326 184.822 172.629 184.294 173.254C183.766 173.879 183.954 175.922 184.473 176.699L188.868 183.267C191.374 187.016 191.445 190.701 190.121 194.932C189.002 198.519 189.056 203.607 190.506 207.194L195.697 220.01C199.25 228.783 198.382 235.735 190.219 240.233C188.304 241.286 186.747 244.178 188.17 246.177L194.077 254.468C197.299 259.002 193.038 265.427 193.701 270.175L194.9 278.868C195.178 280.885 193.388 282.929 191.463 282.982C187.722 283.098 184.205 281.385 183.936 277.547L183.301 268.506C183.068 265.258 182.746 262.295 181.958 259.136C179.917 251.005 182.835 247.31 180.374 243.803C175.559 236.922 182.209 232.844 176.087 226.427C172.542 222.714 177.474 216.833 172.426 208.899C171.093 206.81 170.466 203.187 171.084 200.661C173.241 191.835 172.82 183.821 171.764 174.807L169.759 157.796C169.428 154.958 161.104 157.073 161.068 156.949L160.281 154.209C161.104 153.905 160.218 154.235 159.296 154.566L155.698 158.805L156.128 151.165C158.258 151.862 156.199 151.192 155.519 150.969L150.946 150.585C150.659 151.531 150.507 152.049 150.623 151.665L153.407 152.326C153.953 152.451 154.535 153.459 154.749 153.986C154.893 154.343 153.461 154.405 153.067 154.316L148.815 153.343L149.326 149.916C149.469 148.979 148.216 146.962 147.679 146.185L144.394 146.819C143.741 146.944 142.864 144.838 142.3 144.49C141.387 143.928 138.317 145.471 138.836 146.409L139.758 148.06C139.883 148.292 139.176 149.068 138.943 149.211L135.73 151.121C134.173 152.049 133.699 156.413 133.788 158.225L134.065 164.07L134.271 172.335C134.459 179.912 134.361 187.622 130.056 193.754C129.519 194.521 127.809 195.503 127.031 195.324C123.379 194.486 123.415 187.078 122.905 181.723L121.249 164.222L118.707 161.982C118.08 161.429 119.486 158.698 119.154 157.779C117.642 153.575 114.876 146.551 110.92 143.669L107.367 141.072C107.045 140.84 106.248 141.661 106.347 142.053L106.723 143.579C106.857 144.115 104.906 144.802 104.789 144.258L104.333 142.241C104.261 141.919 103.491 141.17 103.107 140.902L102.337 151.13L101.719 159.376C101.701 159.662 103.232 160.01 103.16 159.956C102.99 160.126 102.176 162.973 102.552 163.937L107.465 176.583L111.565 186.507C113.086 190.184 112.648 194.593 111.761 198.537C110.294 205.043 114.294 207.346 111.377 214.343C108.745 220.661 109.291 228.471 103.116 229.872C96.9399 231.273 92.2232 226.097 91.9188 220.108C91.7309 216.458 91.8383 211.96 90.7553 208.729C89.1711 204.008 87.6317 200.117 87.2826 195.057L88.8668 166.498L88.473 164.374C88.4014 163.972 87.6048 164.9 87.5959 165.293L87.5601 168.22C87.5511 168.979 84.4454 168.381 84.4902 167.631C84.5349 166.882 85.0272 165.588 85.5642 165.043L89.0548 161.554C89.6365 160.974 89.7081 159.055 89.6544 157.538L87.7033 160.126L86.5935 161.589C85.4568 163.098 85.9848 159.108 83.5056 157.493L79.5317 154.896L82.4495 149.871C82.7717 149.318 83.7383 148.193 84.1411 148.461L85.9222 149.648L89.1174 151.772L89.5291 150.309L86.5129 148.069C85.7432 147.497 87.3453 144.972 87.8733 144.16L88.661 142.955C88.8131 142.723 88.0792 142.044 87.8465 141.875L86.5577 140.92C86.316 140.741 85.8506 141.223 85.8685 141.545L86.0475 144.418C86.0833 145.061 84.2127 146.052 83.3803 146.132C79.0037 146.578 77.9207 138.733 75.71 142.928L82.6017 147.694L79.3527 151.87L77.7148 148.622C76.6408 148.399 74.8776 148.024 74.1705 147.658L68.0486 144.517C68.0844 144.659 67.8248 143.651 67.6816 143.124L65.462 140.277C65.3009 140.072 64.4685 140.483 64.5043 140.741L64.6833 141.928C64.737 142.303 63.6093 143.089 63.5287 142.723C63.3139 141.803 62.9022 140.108 62.9112 140.143L60.4409 141.607C59.5727 142.125 57.7916 142.401 56.9772 142.437C56.1627 142.473 54.8828 140.965 54.2921 140.277C54.0415 139.983 53.2628 140.84 53.406 141.188L53.7909 142.098C54.2384 142.134 54.3816 142.152 54.4621 142.294L55.4377 144.008C55.6704 144.409 53.6029 142.874 53.8535 142.999L53.2718 142.589L49.9781 145.712L45.1539 149.443C40.9742 152.674 46.1295 157.654 46.6665 162.062L48.3849 176.11C48.7698 179.251 48.5102 182.402 47.2662 185.204C43.9098 192.736 53.6029 193.111 54.6054 197.743C55.0171 199.635 54.3189 202.589 53.1465 203.874C48.6356 208.854 53.5582 212.058 52.7885 217.306C52.3857 220.037 48.6087 221.732 46.1563 221.527C44.9123 221.429 43.1759 220.849 42.9074 220.01C42.0482 217.359 43.5608 215.69 42.7374 211.416C41.6096 205.615 46.3085 203.321 40.9563 197.752C38.6471 195.351 36.0873 191.764 36.0963 188.265L36.1679 171.496L35.1476 162.205L34.709 142.25C32.8205 147.024 30.8067 152.388 30.7619 157.752L30.6277 176.663C30.574 183.455 35.3624 184.124 33.635 189.657C31.1916 197.484 35.1476 199.68 32.9816 203.339C30.8156 206.998 31.6033 209.961 32.8563 213.665C35.0849 220.251 31.4332 225.472 35.5772 233.932C37.8237 238.529 38.7276 242.83 35.2997 245.588C34.351 246.355 31.1468 246.962 30.1444 246.257C26.8328 243.928 28.6497 239.01 27.5041 235.851C26.5911 233.334 24.3357 228.819 24.7921 226.338C25.8304 220.715 24.9353 217.913 21.6685 213.441C19.8337 210.925 19.7174 205.525 20.147 202.152L22.3308 185.07C22.841 181.108 21.8923 176.966 20.3439 173.325C17.5246 166.703 21.3821 162.571 18.1869 154.164C17.077 151.237 18.0974 149.309 19.6368 146.676C21.1763 144.044 22.3129 140.367 23.0289 137.297L24.631 130.433L25.6245 125.587C25.7319 125.07 23.8434 124.4 23.2885 124.249L24.64 122.169L21.7759 122.767C21.4448 122.839 20.6034 122.767 20.2902 122.696C20.1649 122.669 20.0217 122.473 19.8248 122.25L20.1291 121.321L21.1226 121.83L23.2527 120.866L19.4489 118.358L21.2479 116.52L20.1649 115.511L17.3098 117.189L16.7101 114.717C16.5042 113.887 16.4416 112.263 16.4684 111.317L17.7752 114.369C18.0258 114.967 19.243 113.7 19.064 113.084L17.7394 108.452C16.8891 105.489 14.9648 106.953 15.6361 105.81L18.3659 104.347L18.3032 101.616L22.3308 100.241L20.496 96.7519C22.0265 95.5649 23.9866 94.9045 26.3763 95.2169L29.321 92.4413L25.3113 93.2981C24.9532 93.5747 24.8548 93.6818 24.7026 93.7175L21.3195 94.5118L18.16 95.2615L20.6034 92.8251L16.1283 94.61C16.0567 94.6636 16.1731 92.6912 16.4863 92.5127L19.8158 90.6118L19.0909 87.5238C20.3528 86.5332 21.2568 85.3819 21.1584 83.365C21.0957 81.9995 23.2169 81.4729 22.9663 82.9187C22.7783 83.9808 22.662 84.6947 22.662 84.6769C22.662 84.659 23.7897 85.1945 23.9866 85.3641L27.1282 88.2735C28.3454 89.398 33.7245 88.6394 36.0247 85.0963C36.2932 84.6769 36.2663 83.4631 36.3916 82.9723L36.499 82.5439L34.6016 81.3391L39.5332 80.7501L38.4323 76.261C40.0344 76.0557 42.7015 79.1972 42.3435 77.7692C42.2272 77.3051 42.3256 75.1097 42.809 75.1186C46.1295 75.1989 47.9106 79.7862 46.5322 79.6612C46.1384 79.6255 45.0376 79.4471 44.7153 79.2061L42.7194 77.7157L43.2386 80.7411L38.8261 83.5078L42.4957 82.535C44.5005 82.0084 46.4427 81.6693 48.1701 81.5443L48.8683 78.6974C48.9578 78.3493 49.6022 79.804 49.808 80.0985L50.6404 81.2855C50.8284 81.5533 51.974 80.2949 51.8755 80.0182L50.1929 75.1811L53.2449 76.1003L54.0683 75.6541L54.5785 72.6465L51.3206 74.5564L49.808 71.5309C49.6469 71.2007 49.8349 70.3529 49.8528 69.9869C49.8707 69.621 51.079 70.8348 51.3475 71.1204C52.3857 72.2449 53.0033 69.1748 56.0821 69.6121L56.0553 68.6036L50.6762 68.675L44.6974 68.7553C44.7332 68.6393 43.9098 71.4506 43.6145 72.4769L47.123 73.2712C47.5257 73.3605 47.7405 74.6367 47.7674 75.0204C47.9285 77.0017 44.9123 73.646 42.5762 73.9495L40.1955 74.2618L40.5803 71.5845L34.6105 67.9878L37.2777 63.3827C37.5015 62.999 36.1052 62.5081 35.9262 62.7401L34.5121 64.4715C34.1541 64.9178 32.8563 63.2221 33.2591 62.8115L35.0402 61.0266C30.9947 62.8383 26.7612 60.3662 24.3804 56.9481C23.8882 56.243 25.6156 54.3242 26.3763 53.8691L31.0126 51.0846L32.9189 49.5138C33.3217 49.1836 34.2615 50.4152 34.6016 50.8079L35.5772 51.9503C35.8546 52.2805 37.1256 51.629 37.4836 51.3166L43.4265 46.1046C43.9277 45.6673 45.9415 47.4344 46.3264 47.9788L47.8927 50.21C48.3491 50.8615 46.2279 52.1109 45.4224 52.45C45.0734 52.6018 46.2458 53.6638 46.5412 53.4139L47.9732 52.2002L51.8755 49.139C52.2693 48.8266 54.48 51.388 54.0325 51.7182L49.7812 54.8329C49.2889 54.226 50.1123 55.2345 50.4524 55.654L51.5354 56.9927C52.3409 57.9922 48.6713 59.5541 48.7071 59.7058L49.1815 62.2047C49.459 63.6594 51.0163 66.3368 52.0635 67.3363C52.2514 67.5148 53.5313 66.9972 53.4508 66.7473L53.0391 65.4622C52.8959 65.007 52.8153 63.3559 53.2986 63.2845L55.921 62.874C55.8315 63.2399 55.9121 62.9186 56.3954 61.0177L54.9902 61.2051L52.5826 61.5264C52.0277 61.5978 51.3296 59.7325 51.7681 59.3934L54.0862 57.5996C55.0708 58.2957 54.2652 57.7245 53.4508 57.1444C51.9561 57.0552 51.4012 56.0377 53.2897 55.7254L59.7249 51.2631L64.2626 48.1127C64.8892 47.6754 66.4107 46.89 67.1088 46.7918C67.9859 46.6758 69.2748 47.6397 70.7247 48.6303L76.435 43.5522C76.7661 43.2577 75.3967 41.6602 75.1372 41.9815L73.3561 44.2037C72.8012 44.8909 70.0892 44.7392 69.239 44.2037C66.5897 42.5348 70.1877 38.3134 64.3074 34.8775L66.3301 41.9993L67.5742 44.7213C67.8159 45.2568 63.1618 47.7914 61.318 45.8904C60.7005 45.2568 61.2017 43.57 61.9266 42.2046C58.9731 43.5522 56.2701 44.2572 56.0732 44.4447L50.7747 49.264L47.3557 46.0154C47.0245 45.703 46.8724 44.3465 47.3109 44.2929C47.7495 44.2394 49.2084 44.2483 49.5127 44.5696L51.8576 47.0328C51.3475 44.8909 52.5199 40.5803 54.3995 40.6695L60.0113 40.9373L58.0959 35.9306C57.8274 35.2344 57.5052 33.9939 57.6037 33.3603C57.9438 31.1827 62.4458 32.7355 62.1862 30.6026L61.6581 26.3009C61.5776 25.6583 61.8908 24.1768 62.1056 23.5699C62.3831 22.8114 65.283 23.3647 65.1666 24.159L64.737 27.0952L64.021 31.9859C67.5384 33.0033 70.9843 30.0581 71.1096 32.0573L71.2796 34.8239C71.3333 35.761 73.5261 36.4036 74.5823 36.2697L81.6082 35.3505C83.5235 35.1006 85.4926 33.4584 86.1549 31.8431L86.862 30.1028C86.9873 29.7993 87.7391 30.1742 88.8221 30.6561L90.0124 29.7726C90.0393 28.532 90.0125 27.9966 90.0572 28.068C90.102 28.1394 89.2696 27.3718 89.0011 27.1398C88.7326 26.9078 89.0906 25.8011 89.4933 25.8636C90.3436 25.9885 91.6772 26.524 92.2321 26.7114L93.0466 29.5316C92.7602 29.603 93.8163 29.3353 94.237 29.2192L96.7699 25.1228L93.87 25.7654C94.0221 24.8283 95.5079 22.6239 96.2239 23.2933C97.3248 24.3285 98.5689 25.6762 99.5713 25.9171C100.923 26.2473 102.749 24.1411 102.489 23.0077L102.024 22.3294L97.7902 22.1242L95.7943 22.026C95.3378 21.9992 95.9643 20.5088 96.4029 20.3749L97.5575 20.009L100.78 19.536C101.487 19.4289 102.713 21.5619 102.614 21.8296L103.008 22.7667L106.239 22.4365C107.465 22.3116 110.159 23.1326 111.359 23.7217C113.059 24.5606 111.108 19.3307 111.591 19.0273L114.098 17.4566C113.999 19.2326 114.447 22.6775 115.879 22.74L120.3 22.9363C120.354 22.8292 121.141 21.2228 120.891 20.8301L119.038 17.9564L119.808 16.109C119.19 14.5114 118.68 12.7711 118.582 11.602C118.456 10.0759 122.86 17.9831 128.722 15.8323C129.42 15.5735 129.922 18.2062 129.984 19.0005L130.808 17.644L132.114 15.511C132.41 15.0291 134.236 15.6538 134.755 15.9037C135.739 16.3945 132.374 16.9836 132.598 18.6079L138.55 18.6614L139.149 21.3923L141.807 22.142L140.644 20.1429C140.447 19.8038 141.297 18.9559 141.673 19.0273L146.283 19.9287C146.73 20.0179 147.16 21.7315 146.712 21.9189L143.723 23.0969C142.64 23.5253 142.765 27.3004 143.929 27.0595L146.623 26.4972L145.96 23.0077L149.003 24.4356C149.442 24.6409 150.713 25.9171 150.319 26.1849L148.296 27.5414C147.974 27.7556 148.189 29.2728 148.404 29.0407C152.798 27.3361 149.603 20.839 153.407 24.3999L154.132 30.8167C154.168 31.1113 154.597 31.379 154.794 31.3522L159.529 30.6918L160.379 29.1746L156.181 29.014C155.823 28.9961 155.072 28.3178 155.152 27.9341C155.233 27.5503 155.85 26.881 156.244 26.8631L160.719 26.5865C161.301 26.5508 162.849 27.6128 162.715 28.2018L162.008 31.2184C161.686 32.5749 164.997 34.2795 166.349 34.1635C166.984 34.1099 168.685 32.2268 169.195 32.6106L171.97 34.69L175.389 36.9033L176.149 36.2965L173.885 32.7802C173.491 32.1644 172.963 30.5669 173.42 30.0314L174.87 28.3357C175.219 27.9252 175.881 26.3634 175.872 26.4169C179.551 26.8988 181.269 23.2487 182.066 24.2571L183.184 25.6583C183.712 26.3187 185.708 26.6043 186.433 25.9528L192.591 20.3571L196.207 24.4713C196.771 25.1139 195.106 26.5151 194.05 27.0773C193.88 27.0773 195.052 28.2643 195.375 27.9966L199.635 24.4535L199.501 23.9805L195.697 20.482C195.357 20.1697 196.824 18.4561 197.156 18.7328L199.733 20.8658C199.957 21.0443 200.61 22.0081 200.512 22.2848L199.975 23.7306L200.387 24.0519L202.517 25.4887C203.063 25.8546 201.729 27.4075 201.04 28.068L202.651 29.9421L209.265 25.7476L212.452 26.881L212.085 24.0965C212.022 23.6503 213.311 22.6686 213.749 22.5436C214.439 22.3473 216.175 23.0523 216.345 23.7484C216.998 26.4526 212.926 25.8547 212.666 28.3268C212.523 29.6922 210.509 32.3339 209.346 31.9859C208.567 31.7628 208.182 29.4513 208.03 28.657C207.914 28.0412 205.784 29.1211 205.927 29.7279C206.034 30.1831 206.661 31.5753 206.383 31.9591L204.02 35.2791C203.573 35.9038 201.962 36.4928 201.237 36.2429C200.691 36.0555 200.002 34.3866 200.458 34.0475L202.409 32.557C202.893 32.1822 203.555 31.7003 202.83 32.2447C201.389 32.1644 201.058 32.2982 200.906 31.9591L200.27 30.6115L199.501 28.9693C199.339 28.6213 197.943 29.5941 198.283 29.7726C198.91 30.1028 200.727 32.1197 200.127 32.4946L197.182 34.3777L198.946 40.4732C199.196 41.3389 198.283 44.409 197.379 44.1323L193.361 42.8828L191.929 48.0145L195.607 47.6129C196.001 47.5683 196.44 49.728 196.046 49.7994L194.641 50.085C191.087 50.8079 190.729 57.305 193.343 61.7584L193.405 57.1087L196.27 58.3671C196.86 58.6259 195.777 60.982 195.652 61.1694L199.868 61.6067L198.534 63.5255L202.391 67.5148L202.553 64.6411L201.926 64.0074L200.673 62.7312L205.157 59.8218L206.58 61.2051C206.858 61.4728 206.992 61.6335 207.198 61.6692L211.243 62.4099L210.966 65.8102L209.059 65.3372L206.697 62.1065L206.195 61.6513L202.391 63.6505L202.911 64.3287C205.354 68.9517 214.027 65.5068 212.156 68.8803C211.386 70.2725 214.474 74.1191 215.835 73.3783C216.658 72.9321 216.998 70.5403 216.649 70.3261C215.575 71.995 214.313 72.111 214.125 70.7991C215.065 70.0851 216.067 69.3979 215.745 69.148L214.17 67.8807L212.308 66.3814C212.013 66.1493 213.141 64.8553 213.49 65.0248L216.918 66.7205C217.643 67.0775 218.842 68.2734 219.272 68.916C219.621 69.4336 218.233 71.4774 218.753 71.8165L223.183 74.1369L223.281 74.1904ZM126.753 25.1675L128.024 19.8484L124.668 18.1705L126.753 25.1675ZM137.547 20.1072L136.205 20.2946L136.017 22.6953L137.556 20.1161L137.547 20.1072ZM123.8 25.0247L122.189 23.4182C122.466 24.159 123.057 24.748 123.8 25.0247ZM132.866 23.3201L132.437 23.7484L132.866 24.1768L133.296 23.7484L132.866 23.3201ZM193.432 23.9805C193.182 23.7663 191.911 22.9274 191.777 23.2754L191.087 25.1228L192.752 26.8185L193.432 23.9805ZM184.831 34.8061L186.755 36.6356C187.23 36.6178 189.709 35.8681 190.157 35.0649L192.734 30.4687L190.899 28.8087C190.783 28.7819 189.288 28.773 189.387 29.0675C189.673 29.8975 190.273 31.2898 190.022 31.6646L187.776 34.9845C185.189 33.6012 183.963 32.5124 183.023 29.2639L178.485 29.5851L184.822 34.815L184.831 34.8061ZM161.05 33.5388L160.621 33.9671L161.05 34.3955L161.48 33.9671L161.05 33.5388ZM86.7456 35.2434L86.316 35.6717L86.7456 36.1001L87.1752 35.6717L86.7456 35.2434ZM176.901 38.2599L177.796 42.0975L181.126 39.0453L181.376 37.8672L183.184 36.1894C183.936 37.3496 183.408 36.5374 182.844 35.6628L177.385 37.5727C177.223 37.6262 177.143 37.7512 176.892 38.2688L176.901 38.2599ZM176.507 36.8855L175.935 37.3496L176.481 37.8404L176.848 37.3407C176.74 37.2425 176.588 37.0372 176.516 36.8944L176.507 36.8855ZM193.969 38.1082C192.806 37.2157 192.143 36.6445 191.911 36.8855L190.694 38.1349C190.452 38.3848 191.231 38.6793 192.367 39.2059C192.179 39.3398 192.528 39.0899 193.969 38.1082ZM79.7286 41.1604L79.9255 38.8311C79.8629 39.5361 79.7286 41.1872 79.7286 41.1604ZM185.458 40.0894C185.78 39.8217 184.5 38.5009 184.151 38.715C183.775 38.9471 182.773 39.67 182.862 40.0002L183.202 41.2675C183.292 41.5977 185.019 40.4553 185.449 40.0894H185.458ZM190.318 40.9105L187.239 41.6066C186.648 41.7405 188.537 43.1506 189.002 43.5343L190.55 44.8016L190.327 40.9105H190.318ZM188.841 47.7378C189.127 46.89 189.503 45.7923 189.279 46.4616L184.688 43.6682C184.196 43.3737 182.728 42.8382 182.683 43.3469L182.459 45.8994C181.645 45.8369 182.459 45.8994 183.372 45.9708C183.927 45.7387 185.306 45.23 185.547 45.6406L187.105 48.3269C186.55 48.5143 187.48 48.2019 188.841 47.7378ZM64.5401 43.7575L64.1105 44.1858L64.5401 44.6142L64.9697 44.1858L64.5401 43.7575ZM43.5608 51.2809C44.778 50.8079 44.4021 48.6392 43.167 48.1484C42.6926 48.3626 42.7015 51.6201 43.5608 51.2809ZM179.595 47.8449C179.577 47.7468 179.747 48.5768 179.828 48.9337L179.595 47.8449ZM180.866 48.6125L180.025 49.853L180.544 52.1645C180.642 52.5928 182.191 51.9146 182.262 51.4951L182.486 50.2546L184.044 48.9873L180.848 48.6125H180.866ZM191.168 49.6031C191.275 49.1747 189.951 49.139 189.557 49.3086C189.163 49.4781 188.626 50.558 188.939 50.8525L190.246 52.0663C190.488 52.2894 190.935 50.4866 191.168 49.6031ZM67.3236 54.2707L68.5051 52.7089C68.7288 52.4143 67.1178 52.2448 66.8493 52.5125L64.9429 54.4135C65.5604 54.94 66.2765 55.538 66.2765 55.6451C66.2765 55.7879 66.9746 54.708 67.3147 54.2707H67.3236ZM79.0574 52.2716L78.6278 52.6999L79.0574 53.1283L79.487 52.6999L79.0574 52.2716ZM33.2322 57.5549L33.3307 53.994L30.6903 55.1988L33.2233 57.5639L33.2322 57.5549ZM41.905 59.4648L43.7308 55.4219L42.1466 53.9762C40.4998 52.4679 42.5404 57.8584 38.7008 59.5005L42.5941 64.293L44.6616 63.7665C46.1295 63.3916 40.7952 61.928 41.9139 59.4737L41.905 59.4648ZM184.965 53.9762L184.536 54.4045L184.965 54.8329L185.395 54.4045L184.965 53.9762ZM61.5149 58.2778L57.0219 54.6634L59.2416 59.0097L61.5239 58.2778H61.5149ZM63.1528 56.9391C62.5532 54.1725 61.3091 54.6812 61.4881 56.9748L63.1528 56.9391ZM187.821 56.6803C188.85 55.886 189.118 55.6808 188.053 56.5018C187.212 57.1533 186.881 57.4121 187.821 56.6803ZM37.2509 59.5273L35.4429 57.2515L35.0312 59.5184C34.9328 60.0806 37.6089 59.9735 37.2509 59.5273ZM187.525 59.081L187.096 59.5094L187.525 59.9378L187.955 59.5094L187.525 59.081ZM61.3001 62.874L59.4206 61.4193C59.1431 61.2051 58.3376 62.2939 58.1228 62.6955C57.7021 63.4987 62.043 63.4452 61.3001 62.874ZM190.944 61.6424L190.515 62.0708L190.944 62.4992L191.374 62.0708L190.944 61.6424ZM56.8519 64.1949L56.4222 64.6232L56.8519 65.0516L57.2815 64.6232L56.8519 64.1949ZM42.2898 70.5581L42.3883 65.9887L38.1369 66.9347L42.2988 70.567L42.2898 70.5581ZM44.8944 65.8995L44.4647 66.3278L44.8944 66.7562L45.324 66.3278L44.8944 65.8995ZM209.283 70.6563C209.552 70.6474 210.402 68.3805 209.775 69.8263L205.327 68.0146C205.309 67.3006 204.557 70.8794 205.273 70.8526L209.283 70.6652V70.6563ZM55.1424 71.0044L54.7128 71.4327L55.1424 71.8611L55.572 71.4327L55.1424 71.0044ZM54.2742 76.136L53.7819 76.5287L55.6973 76.7875C56.1269 76.8411 54.1489 76.0735 54.2742 76.136ZM55.9926 79.5184L55.563 79.9468L55.9926 80.3752L56.4222 79.9468L55.9926 79.5184ZM37.2867 82.7581L36.7407 83.365L38.1011 84.5876C38.1906 84.5698 39.0588 83.4453 38.6829 83.3025L37.2956 82.7581H37.2867ZM226.852 85.0963C226.87 85.7925 226.852 85.2927 226.835 84.659L226.852 85.0963ZM227.676 85.4623L227.076 86.3547L227.577 89.1571L228.911 87.1758L229.976 85.5961L227.685 85.4712L227.676 85.4623ZM24.9711 92.7358L24.5952 89.0678C24.5594 88.7019 23.0558 88.3717 22.832 88.4074L24.3267 93.1553L24.9622 92.7448L24.9711 92.7358ZM31.2274 90.5939L30.7977 91.0223L31.2274 91.4507L31.657 91.0223L31.2274 90.5939ZM23.8524 98.3048C24.5594 97.5373 24.8458 97.2249 24.2193 97.9032C23.199 99.0009 23.011 99.2151 23.8524 98.3048ZM20.1201 102.312L19.3683 102.928L20.1201 103.356L20.5497 102.928L20.1201 102.312ZM242.193 116.136L241.764 116.565L242.193 116.993L242.623 116.565L242.193 116.136ZM242.551 123.41L240.161 122.107L240.296 127.381L241.155 125.748L242.211 123.731L242.551 123.41ZM97.459 126.98L91.7756 125.712C92.0441 125.391 90.1199 126.792 90.5047 127.042C90.9701 127.337 92.25 128.095 92.6438 128.015L97.4501 126.971L97.459 126.98ZM86.8799 130.175L86.325 130.193L86.8799 130.21H87.4527L88.0076 130.193L87.4527 130.175H86.8799ZM137.986 129.764L137.968 130.317V130.889L137.986 131.442L138.004 130.889V130.317L137.986 129.764ZM84.4096 136.69C84.7408 136.475 84.2395 134.985 83.8994 135.03L80.203 135.494L78.9142 135.663C78.9142 135.663 79.0663 136.85 79.1021 137.18C79.1737 137.859 81.0175 138.894 81.5903 138.519L84.4096 136.69ZM105.201 137.421C105.201 136.895 104.771 136.475 104.252 136.475C103.733 136.475 103.304 136.904 103.304 137.421C103.304 137.939 103.733 138.367 104.252 138.367C104.771 138.367 105.201 137.939 105.201 137.421ZM74.2242 138.43C75.2535 137.636 75.522 137.43 74.457 138.251C73.6156 138.903 73.2845 139.162 74.2242 138.43ZM72.6401 139.465C71.0827 139.242 70.0087 139.09 70.0892 139.456L70.3936 140.759L72.6401 139.465ZM106.391 139.126L105.962 139.554L106.391 139.983L106.821 139.554L106.391 139.126ZM87.6943 157.323C87.6317 154.726 87.041 153.584 86.1728 152.888L82.7001 153.986L87.7033 157.332L87.6943 157.323ZM164.604 154.012L164.049 154.03L164.604 154.048H165.176L165.731 154.03L165.176 154.012H164.604ZM167.029 153.602L166.6 154.03L167.029 154.459L167.459 154.03L167.029 153.602ZM90.9254 155.717C90.9433 155.512 89.4128 154.53 89.4128 154.771V156.734C89.4307 156.94 90.9075 155.931 90.9254 155.717Z" fill="#149A76"/>
<path d="M73.4276 154.03L72.9712 155.458C72.8727 155.762 72.282 156.145 71.9956 156.27C70.9484 156.743 69.4627 151.121 71.3154 149.541C71.7181 149.193 73.6156 150.219 73.5887 150.755L73.4276 154.03Z" fill="#149A76"/>
<path d="M216.837 53.637C215.781 56.0021 214.43 57.3408 213.901 56.7428C213.436 56.2163 212.675 54.9847 212.478 54.2975L212.013 52.6464C211.897 52.2269 213.069 51.3613 213.445 51.5933L216.837 53.6281V53.637Z" fill="#149A76"/>
<path d="M202.839 51.4505C203.394 51.5933 204.002 54.1368 203.456 54.2885L201.264 54.8954C200.539 55.0918 199.733 53.5656 199.33 52.6732C199.178 52.343 199.635 50.6473 199.975 50.7276L202.839 51.4416V51.4505Z" fill="#149A76"/>
<path d="M144.492 152.977L141.834 149.318C141.619 149.023 143.391 147.381 143.794 147.587C144.85 148.14 145.898 150.639 145.719 151.79C145.638 152.308 145.575 152.665 145.593 152.558L146.9 152.254C147.41 152.138 147.965 152.772 148.063 153.289C148.126 153.629 147.58 154.905 147.267 154.744L145.352 153.762C145.173 153.673 144.618 153.147 144.492 152.977Z" fill="#149A76"/>
<path d="M81.9662 16.9657C82.3422 16.4302 85.1525 16.3678 85.0362 16.6534C85.9133 17.3941 86.0565 18.7239 85.2868 19.6877L82.548 20.2857C81.7335 20.4642 81.3397 17.8582 81.9662 16.9747V16.9657Z" fill="#149A76"/>
<path d="M213.964 48.7285L208.657 45.4888L210.536 43.3916C210.912 42.9721 212.613 44.2572 212.783 44.8106L213.964 48.7285Z" fill="#149A76"/>
<path d="M60.6646 49.4692L58.2123 49.1212C57.6216 48.5321 57.183 48.1662 57.1024 47.9342L56.5386 46.3902C56.6012 46.2296 56.9861 45.4353 57.183 45.3371C57.6753 45.0961 60.0113 45.0872 60.0918 45.6227L60.6557 49.4603L60.6646 49.4692Z" fill="#149A76"/>
<path d="M81.8587 34.1724L80.7041 33.2978L79.469 32.1465C79.1826 31.8788 78.9767 30.4241 79.3706 30.3794L81.993 30.1296C82.2794 30.1028 83.9531 30.3884 83.4877 30.3259L81.8498 34.1724H81.8587Z" fill="#149A76"/>
<path d="M214.322 63.8111C214.098 64.0253 212.666 63.6951 212.774 63.4452L214.277 59.7682C214.421 59.4291 216.515 59.5362 216.605 59.8932C216.739 60.4287 216.81 61.4282 216.417 61.8031L214.322 63.8111Z" fill="#149A76"/>
<path d="M205.855 20.5445C206.294 20.1161 208.191 19.8038 208.567 20.1964C209.077 20.7141 209.614 22.2937 208.97 22.6061L206.956 23.5967C206.303 23.918 205.318 21.0621 205.846 20.5445H205.855Z" fill="#149A76"/>
<path d="M187.48 22.7132C187.042 23.6146 186.129 25.0514 185.717 24.8908L184.061 24.2393C183.524 24.0251 184.339 22.3027 184.759 21.8832L186.013 20.6338C186.406 20.2411 187.731 22.1956 187.48 22.7043V22.7132Z" fill="#149A76"/>
<path d="M90.2093 22.6329C90.2809 22.5704 89.1263 23.5432 88.4819 24.0787C87.9807 24.4981 86.7634 22.0439 87.4168 21.9992L92.2231 21.7136C92.5274 21.6958 93.324 21.1782 93.6014 21.0086C93.8789 20.839 93.9952 21.9011 94.0668 22.5436L91.9367 24.7837C91.6234 25.1139 90.9969 23.9716 90.2182 22.6329H90.2093Z" fill="#149A76"/>
<path d="M77.7328 31.62C77.9834 32.2179 77.0794 34.0475 76.4708 34.0564C75.6563 34.0742 74.0721 32.6998 74.1258 31.8341C74.1706 31.0845 77.4374 30.9238 77.7328 31.62Z" fill="#149A76"/>
<path d="M152.897 18.7685C153.228 18.3401 155.296 18.1259 155.483 18.6346C155.671 19.1433 155.752 20.6873 155.233 20.8569L153.389 21.4548C152.87 21.6244 152.557 19.2058 152.897 18.7774V18.7685Z" fill="#149A76"/>
<path d="M163.297 24.8194C163.914 24.4803 165.203 24.4178 165.597 24.8194C165.991 25.221 166.268 27.1041 165.713 27.1934L163.565 27.5682C163.011 27.6664 162.814 25.0782 163.297 24.8105V24.8194Z" fill="#149A76"/>
<path d="M204.468 40.0002L202.687 40.973C202.23 41.2229 200.843 40.1876 201.219 39.8306L202.893 38.2063C203.179 37.9297 204.28 37.7333 204.692 37.6976C205.3 37.6441 204.987 39.7235 204.477 40.0002H204.468Z" fill="#149A76"/>
<path d="M35.3982 73.8513C35.0133 74.2083 33.6081 71.7719 34.0735 71.513L36.1768 70.335C36.5169 70.1387 37.6178 71.2096 37.403 71.5487C37.0808 72.0485 36.1231 73.1909 35.3982 73.8602V73.8513Z" fill="#149A76"/>
<path d="M29.0524 85.1142C28.5602 85.1767 27.5846 84.5609 27.3161 84.1414C27.0476 83.722 27.6293 81.9281 28.1395 82.0441L30.0906 82.4993C30.6635 82.6332 29.6342 85.0339 29.0524 85.1142Z" fill="#149A76"/>
<path d="M123.048 9.95097C123.486 9.64753 125.08 9.92419 125.268 10.424C125.455 10.9238 125.599 12.3606 125.062 12.3695L122.636 12.3963C122.099 12.3963 122.609 10.2633 123.048 9.95989V9.95097Z" fill="#149A76"/>
<path d="M56.2611 28.3803C56.5207 27.8002 59.3132 28.9158 58.8478 29.3353L57.013 30.9952C56.5475 31.4147 55.7868 29.4424 56.2611 28.3803Z" fill="#149A76"/>
<path d="M47.8569 35.9127C47.8032 35.529 50.0139 34.7257 50.0945 35.1006L50.542 37.2693C50.6225 37.6441 49.4948 37.9743 49.101 37.9654C48.5192 37.9475 47.9912 36.8587 47.8569 35.9216V35.9127Z" fill="#149A76"/>
<path d="M37.8416 48.7285C37.4836 48.8891 35.8725 48.8356 35.8009 48.4697C35.6935 47.9163 36.15 46.185 36.7049 46.2742L38.9425 46.6312C39.3989 46.7026 38.2622 48.5411 37.8416 48.7374V48.7285Z" fill="#149A76"/>
<path d="M240.994 94.0478C241.397 94.3066 239.902 95.5471 239.141 95.9755L238.264 92.2896L240.985 94.0567L240.994 94.0478Z" fill="#149A76"/>
<path d="M162.733 162.259C162.482 162.401 160.657 162.821 160.558 162.277C160.469 161.795 160.674 160.242 161.068 160.242C161.659 160.242 162.679 160.545 162.993 161.045L163.718 162.196L164.711 163.803C164.872 164.061 163.351 163.374 163.207 163.115L162.742 162.259H162.733Z" fill="#149A76"/>
<path d="M77.5895 153.102C77.8849 153.272 76.5423 154.851 76.2917 154.619L74.8686 153.289C74.618 153.057 75.4325 151.844 75.7278 152.013L77.5895 153.093V153.102Z" fill="#149A76"/>
<path d="M110.383 147.935C110.303 147.587 112.316 147.39 112.352 147.72L112.531 149.452C112.585 149.952 110.983 150.416 110.867 149.934L110.383 147.935Z" fill="#149A76"/>
<path d="M30.5829 65.4265C31.0304 65.2747 32.3461 65.2123 32.4177 65.5425C32.534 66.0333 32.5698 67.4434 32.0686 67.4077L30.5829 67.3006C30.0817 67.2649 30.0906 65.5782 30.5829 65.4175V65.4265Z" fill="#149A76"/>
<path d="M235.096 151.969C235.167 151.513 235.489 149.702 235.355 150.487C236.071 151.335 236.375 151.692 236.358 151.683L237.942 153.04C238.327 153.37 236.859 154.664 236.42 154.405C235.838 154.066 235.382 153.388 235.248 152.745L235.087 151.969H235.096Z" fill="#149A76"/>
<path d="M85.0362 28.6124L83.8727 29.0854C83.4162 29.2728 82.8076 28.5231 82.7091 28.0412C82.6375 27.7199 83.1745 26.5775 83.461 26.7471L85.2689 27.8359L86.0297 28.2911C86.0297 28.2911 86.7188 27.4165 86.8531 27.7467L87.3812 29.0407C87.5154 29.3709 86.1192 29.2639 85.8149 29.0854L85.0362 28.6213V28.6124Z" fill="#149A76"/>
<path d="M202.123 45.6852L201.103 48.7106C200.888 49.3443 198.507 47.8271 199.071 47.4166L201.201 45.8548L202.123 45.6852Z" fill="#149A76"/>
<path d="M222.923 58.5545C223.21 58.3582 224.248 58.7241 224.409 59.0364C224.66 59.4916 224.785 60.857 224.257 60.8392L222.529 60.7946C222.001 60.7767 222.494 58.849 222.923 58.5545Z" fill="#149A76"/>
<path d="M113.82 155.101C113.865 154.798 115.369 154.476 115.556 154.717C115.843 155.083 116.219 155.851 115.87 156.154L114.858 157.029C114.509 157.332 113.749 155.556 113.82 155.101Z" fill="#149A76"/>
<path d="M81.9126 158.555C82.199 159.644 79.5587 159.715 79.4065 158.644C79.3259 158.064 81.7604 157.984 81.9126 158.555Z" fill="#149A76"/>
<path d="M44.5095 42.6151C44.4916 42.1332 46.9171 42.0439 46.7829 42.5169L46.219 44.3911C46.031 45.0069 44.5363 43.4183 44.5095 42.6151Z" fill="#149A76"/>
<path d="M105.085 145.614C105.613 147.783 103.268 148.363 103.196 146.069C103.187 145.605 104.968 145.168 105.085 145.614Z" fill="#149A76"/>
<path d="M216.067 35.8235C216.613 38.0457 214.34 38.6883 214.313 36.118C214.313 35.7431 215.978 35.4665 216.067 35.8235Z" fill="#149A76"/>
<path d="M189.091 17.8403L189.432 20.8033C189.476 21.1692 187.525 20.0804 187.731 19.7859L189.091 17.8493V17.8403Z" fill="#149A76"/>
<path d="M120.595 171.522C120.783 173.513 118.465 173.504 118.662 171.522C118.734 170.773 120.524 170.773 120.595 171.522Z" fill="#149A76"/>
<path d="M86.4414 191.987C86.4772 192.718 83.6848 192.736 83.7206 191.987C83.7653 190.951 86.3967 190.996 86.4414 191.987Z" fill="#149A76"/>
<path d="M32.2208 78.1441C32.6504 77.9477 34.6642 78.8045 34.3151 79.1258L32.9189 80.3663C32.4445 80.7858 31.639 78.4029 32.2208 78.1441Z" fill="#149A76"/>
<path d="M223.791 68.7643C223.38 68.9339 222.905 66.3814 223.254 67.2292L227.139 66.2832C227.3 66.0244 227.067 67.4524 226.682 67.6041L223.791 68.7643Z" fill="#149A76"/>
<path d="M231.095 81.7585C230.737 81.7407 231.319 79.4828 231.605 79.688L233.261 80.8393C233.628 81.0892 231.668 81.7942 231.086 81.7675L231.095 81.7585Z" fill="#149A76"/>
<path d="M218.278 65.1855C217.884 65.2301 217.392 64.1324 217.616 63.8557C218.958 62.2404 220.82 64.891 218.278 65.1855Z" fill="#149A76"/>
<path d="M165.302 22.0081C163.896 25.0068 162.948 22.3027 163.619 21.4816C163.861 21.1871 164.845 21.5798 165.302 22.0081Z" fill="#149A76"/>
<path d="M164.711 161.893C164.523 161.473 164.496 159.367 164.774 159.537L166.68 160.733C167.083 160.982 164.899 162.312 164.711 161.884V161.893Z" fill="#149A76"/>
<path d="M222.977 45.2746L225.367 42.8382C225.761 44.0966 224.991 45.346 222.977 45.2746Z" fill="#149A76"/>
<path d="M227.023 55.538C226.906 55.9485 225.385 55.8146 225.376 55.4755C225.34 54.1814 227.595 53.4139 227.023 55.538Z" fill="#149A76"/>
<path d="M146.032 148.345C146.479 148.077 148.073 147.578 147.938 147.944L147.383 149.425C147.249 149.791 145.701 148.542 146.032 148.345Z" fill="#149A76"/>
<path d="M159.914 158.412C159.958 158.002 161.623 157.698 161.516 158.1L161.024 159.885C160.916 160.286 159.869 158.823 159.914 158.412Z" fill="#149A76"/>
<path d="M156.387 159.171C156.289 158.832 158.213 158.716 158.088 159.064L157.587 160.536C157.47 160.884 156.53 159.644 156.387 159.162V159.171Z" fill="#149A76"/>
<path d="M167.521 159.331C167.486 158.939 169.482 158.689 169.338 159.055L168.739 160.527C168.587 160.893 167.566 159.724 167.53 159.331H167.521Z" fill="#149A76"/>
<path d="M60.235 145.641C60.4498 146.168 57.9079 145.882 58.2839 145.48L59.4563 144.231C59.6622 144.017 60.1097 145.32 60.235 145.641Z" fill="#149A76"/>
<path d="M49.45 77.439C49.4411 77.7335 47.5973 76.6447 47.839 76.4752L49.5306 75.2703L49.45 77.439Z" fill="#149A76"/>
<path d="M245.084 127.667C244.672 128.086 242.945 127.131 243.58 126.792L246.068 125.436C246.391 125.266 246.346 124.748 246.453 123.811L248.664 124.017L245.075 127.667H245.084Z" fill="#149A76"/>
<path d="M30.5562 85.9977C31.487 85.6943 32.5968 85.4354 32.4894 85.7924L32.0329 87.3364C31.9255 87.6934 31.0663 86.7206 30.5562 85.9888V85.9977Z" fill="#149A76"/>
<path d="M201.541 60.8392C200.771 60.2859 200.234 59.3309 200.163 58.1618L201.541 60.8392Z" fill="#149A76"/>
<path d="M135.784 15.4664C136.204 15.2254 137.699 14.7613 137.583 15.1272L137.108 16.6087C136.992 16.9746 135.444 15.6627 135.775 15.4753L135.784 15.4664Z" fill="#149A76"/>
<path d="M140.223 17.0818C140.196 16.698 141.986 16.4927 141.87 16.8676L141.351 18.5097C141.235 18.8756 140.25 17.4744 140.214 17.0907L140.223 17.0818Z" fill="#149A76"/>
<path d="M40.1954 45.5513C40.7194 45.5513 41.1442 45.1278 41.1442 44.6053C41.1442 44.0828 40.7194 43.6593 40.1954 43.6593C39.6715 43.6593 39.2467 44.0828 39.2467 44.6053C39.2467 45.1278 39.6715 45.5513 40.1954 45.5513Z" fill="#149A76"/>
<path d="M150.373 22.5615C150.897 22.5615 151.322 22.1379 151.322 21.6154C151.322 21.093 150.897 20.6694 150.373 20.6694C149.849 20.6694 149.424 21.093 149.424 21.6154C149.424 22.1379 149.849 22.5615 150.373 22.5615Z" fill="#149A76"/>
<path d="M246.561 104.811L245.218 107.604L244.386 106.694L246.561 104.811Z" fill="#149A76"/>
<path d="M224.74 52.7713L222.986 54.119L223.335 52.2269C223.406 51.861 224.847 52.7624 224.74 52.7713Z" fill="#149A76"/>
<path d="M247.742 116.886L246.131 115.279C246.874 115.556 247.465 116.145 247.742 116.886Z" fill="#149A76"/>
<path d="M200.217 55.8057C199.16 57.0373 198.874 57.3675 199.322 56.841L200.217 55.8057Z" fill="#149A76"/>
<path d="M207.842 59.0364C207.842 59.0364 207.976 57.4121 208.038 56.6982C208.074 56.3233 207.985 57.305 207.842 59.0364Z" fill="#149A76"/>
<path d="M246.4 96.6805C245.29 97.8586 244.932 98.2334 245.451 97.689L246.4 96.6805Z" fill="#149A76"/>
<path d="M245.183 95.6006L243.572 93.9942C244.314 94.2709 244.905 94.8599 245.183 95.6006Z" fill="#149A76"/>
<path d="M21.4 133.914L19.7889 132.308C20.5318 132.584 21.1225 133.173 21.4 133.914Z" fill="#149A76"/>
<path d="M243.043 132.326L243.061 132.879V133.45L243.043 134.012L243.034 133.45V132.879L243.043 132.326Z" fill="#149A76"/>
<path d="M22.6798 131.469L22.6976 132.022V132.602L22.6798 133.156L22.6709 132.602V132.022L22.6798 131.469Z" fill="#149A76"/>
<path d="M246.462 121.25L246.471 121.812V122.383L246.453 122.946L246.436 122.383V121.812L246.462 121.25Z" fill="#149A76"/>
<path d="M245.55 120.134C245.684 120.688 245.541 120.09 245.29 119.063L245.55 120.134Z" fill="#149A76"/>
<path d="M245.746 113.994H246.328L246.883 114.003L246.328 114.021H245.746L245.191 114.003L245.746 113.994Z" fill="#149A76"/>
<path d="M246.606 110.585H247.178L247.733 110.603L247.178 110.612H246.606L246.042 110.603L246.606 110.585Z" fill="#149A76"/>
<path d="M28.793 86.7206H29.3747L29.9296 86.7563L29.3747 86.7653H28.8019L28.238 86.7385L28.793 86.7206Z" fill="#149A76"/>
<path d="M33.0711 84.186H33.6529L34.2078 84.2039L33.6529 84.2128H33.0711L32.5162 84.2039L33.0711 84.186Z" fill="#149A76"/>
<path d="M36.5349 76.5287H37.1704L37.7879 76.5376L37.1704 76.5555H36.5349L35.9263 76.5376L36.5349 76.5287Z" fill="#149A76"/>
<path d="M211.583 39.9109H212.156L212.72 39.9288L212.156 39.9377H211.583L211.029 39.9288L211.583 39.9109Z" fill="#149A76"/>
<path d="M207.171 38.6526L207.189 39.2148V39.786L207.171 40.3393L207.162 39.786V39.2148L207.171 38.6526Z" fill="#149A76"/>
<path d="M81.635 27.5771L81.6528 28.1929V28.8355L81.635 29.4602L81.6172 28.8355V28.1929L81.635 27.5771Z" fill="#149A76"/>
<path d="M68.8093 27.586L68.8182 28.1394V28.7195L68.8093 29.2728L68.7915 28.7195V28.1394L68.8093 27.586Z" fill="#149A76"/>
<path d="M86.8799 25.4352H87.4616L88.0165 25.4531L87.4616 25.462H86.8799L86.325 25.4531L86.8799 25.4352Z" fill="#149A76"/>
<path d="M99.6967 23.6681L100.269 23.6592L100.815 23.7038L100.261 23.7395L99.6877 23.7485L99.1328 23.7306L99.6967 23.6681Z" fill="#149A76"/>
<path d="M116.63 19.9287L116.648 20.482L116.639 21.0532L116.612 21.6065L116.586 21.0621L116.595 20.482L116.63 19.9287Z" fill="#149A76"/>
<path d="M107.385 20.3303H107.958L108.513 20.3392L107.958 20.3571H107.385L106.821 20.3392L107.385 20.3303Z" fill="#149A76"/>
<path d="M94.5681 19.4735H95.1409L95.7048 19.4914L95.1409 19.5003H94.5681L94.0132 19.4914L94.5681 19.4735Z" fill="#149A76"/>
<path d="M113.22 13.9581L113.238 14.5204V15.0916L113.22 15.6449L113.202 15.0916V14.5204L113.22 13.9581Z" fill="#149A76"/>
<path d="M104.682 17.8136L105.102 18.6346L104.682 19.063L104.252 18.6346L104.682 17.8136Z" fill="#149A76"/>
<path d="M207.162 42.0431L206.738 42.4659L207.162 42.8887L207.586 42.4658L207.162 42.0431Z" fill="#149A76"/>
<path d="M194.363 44.6053L194.793 45.0337L194.363 45.4621L193.826 45.0337L194.363 44.6053Z" fill="#149A76"/>
<path d="M207.157 47.1425L206.733 47.5654L207.158 47.9882L207.581 47.5653L207.157 47.1425Z" fill="#149A76"/>
<path d="M204.611 51.4237L205.041 51.8432L204.611 52.2715L204.021 51.8432L204.611 51.4237Z" fill="#149A76"/>
<path d="M196.06 54.8175L195.636 55.2404L196.061 55.6631L196.485 55.2402L196.06 54.8175Z" fill="#149A76"/>
<path d="M197.769 55.6634L197.345 56.0863L197.769 56.509L198.193 56.0862L197.769 55.6634Z" fill="#149A76"/>
<path d="M50.8731 60.7856L51.6518 61.214L50.8731 61.6424L50.4435 61.214L50.8731 60.7856Z" fill="#149A76"/>
<path d="M240.471 90.5749L240.047 90.9978L240.471 91.4205L240.895 90.9977L240.471 90.5749Z" fill="#149A76"/>
<path d="M20.1202 98.2512L20.8541 98.6796L20.1202 99.108L19.6906 98.6796L20.1202 98.2512Z" fill="#149A76"/>
<path d="M248.16 100.793L247.736 101.216L248.16 101.639L248.584 101.216L248.16 100.793Z" fill="#149A76"/>
<path d="M244.753 129.755L245.183 130.184L244.753 130.612L244.019 130.184L244.753 129.755Z" fill="#149A76"/>
<path d="M61.9714 142.473L62.4011 142.955L61.9714 143.383L61.5508 142.955L61.9714 142.473Z" fill="#149A76"/>
<path d="M63.6805 144.224L63.2566 144.646L63.6807 145.069L64.1046 144.646L63.6805 144.224Z" fill="#149A76"/>
<path d="M50.0189 147.633L49.595 148.056L50.0191 148.478L50.443 148.056L50.0189 147.633Z" fill="#149A76"/>
<path d="M68.8041 148.481L68.3801 148.903L68.8042 149.326L69.2282 148.903L68.8041 148.481Z" fill="#149A76"/>
<path d="M237.061 149.328L236.637 149.751L237.061 150.173L237.485 149.751L237.061 149.328Z" fill="#149A76"/>
<path d="M103.823 151.049L104.252 151.469L103.823 151.897L102.972 151.469L103.823 151.049Z" fill="#149A76"/>
<path d="M107.236 151.892L106.812 152.315L107.236 152.737L107.66 152.314L107.236 151.892Z" fill="#149A76"/>
<path d="M50.0211 152.748L49.5972 153.17L50.0213 153.593L50.4452 153.17L50.0211 152.748Z" fill="#149A76"/>
<path d="M103.825 154.441L103.401 154.864L103.825 155.287L104.249 154.864L103.825 154.441Z" fill="#149A76"/>
<path d="M80.7668 136.431L81.1874 136.993L80.7668 137.698L80.3372 136.993L80.7668 136.431Z" fill="#149A76"/>
</g>
<defs>
<clipPath id="clip0_14_1591">
<rect width="262" height="283" fill="white"/>
</clipPath>
</defs>
</svg>
