<svg width="207" height="238" viewBox="0 0 207 238" fill="none" xmlns="http://www.w3.org/2000/svg">
<g clip-path="url(#clip0_14_1443)">
<path d="M25.1521 130.098L26.8428 128.311L24.2618 127.146C24.3967 126.794 23.8391 124.502 23.0837 124.511L19.3067 124.547C18.7401 125.413 19.6574 123.933 19.8822 123.644L21.5189 121.55C22.2654 120.593 16.7976 122.597 17.0944 121.712C17.2203 121.342 17.5081 120.205 17.8048 119.925L20.7635 117.145L18.0207 115.917C17.6519 115.755 18.0117 117.533 18.0746 117.93C18.1286 118.255 17.1933 118.905 17.0224 118.634L16.1141 117.235C15.7364 116.658 14.3065 114.97 14.7652 114.5L17.2563 111.991C17.9487 111.296 16.4469 108.949 15.6195 108.281C11.9054 105.257 16.6357 98.6679 15.3587 98.9929L13.776 99.3991C12.5979 99.697 10.2867 98.6138 9.45032 97.5216L12.1752 97.3501C13.2274 97.2869 15.3138 95.9149 16.0332 95.1476C16.6897 94.4526 15.1969 91.8078 14.6932 91.3656L14.1627 90.0206C16.4649 89.804 18.2005 90.0567 18.9919 89.5422L22.2384 87.421L21.1412 85.1463C20.5657 85.7331 17.8138 87.4571 17.6879 86.6176L17.2113 83.3862L20.6107 84.361C20.2419 82.8536 19.8013 81.1476 20.5117 80.7775L24.7205 78.6202C25.305 78.3224 26.7978 77.3656 27.1935 77.7717L28.8033 79.4597C29.2889 79.9742 30.0353 80.8227 29.6396 80.3804C30.413 79.0625 31.78 77.3024 32.8052 76.7518L34.5678 75.804C35.0175 75.5603 33.5336 74.9013 33.048 75.0638C31.9329 75.4339 28.8573 75.9484 27.9849 75.1631C26.609 73.9084 26.6719 70.7763 27.5892 68.4023L23.2996 66.1818L26.4022 75.5332C26.636 76.2282 25.0802 77.2121 24.4147 77.2572L20.5747 77.4829C19.9272 77.519 18.5692 78.1599 18.2905 78.3765L19.0639 79.1077L18.2725 80.4706L17.634 79.0806C17.2742 79.1167 15.6285 78.3585 15.9433 77.844L17.1933 75.8672C17.7329 75.0819 17.9038 74.4139 18.4433 74.2605L20.8085 73.6015C20.5207 73.3217 19.2887 71.8685 19.0009 71.2276L16.9145 66.5068C16.5548 65.6944 17.3822 63.3385 18.2725 63.2753L21.3661 63.0587L20.9884 58.5274L20.7276 55.3952C20.6826 54.8446 22.4722 54.646 23.0028 54.7995C23.5334 54.9529 24.1089 55.991 24.073 56.6048L23.7222 62.9594C23.6773 63.7898 26.3212 63.2753 27.1756 63.1489L29.4688 62.824C30.0084 62.7518 29.9994 67.8427 31.717 67.608L34.6038 67.2018C34.8916 67.1657 35.4851 66.0013 35.2243 65.8207L33.8754 64.8459C33.4347 64.53 32.985 63.6725 32.7872 63.176C32.6613 62.842 34.388 62.138 34.7387 62.1831C35.2693 62.2553 36.4653 63.6995 36.4564 64.2411C36.4474 64.9452 36.3305 66.5609 36.8431 66.5699L43.0123 66.6963C43.4979 66.7053 43.6777 69.0612 43.2191 68.7453C41.5284 69.3952 41.4295 69.4313 41.6273 69.3591L44.2083 72.1483L45.0267 71.6338L44.7929 67.8246L47.194 67.1025L50.0268 64.8549L51.2049 64.6112C50.5304 62.5712 49.5142 61.5783 46.9962 59.5835L49.4333 59.1502L50.0538 58.8072C49.2624 58.3108 47.0142 56.9297 47.7156 56.2076C48.7588 55.1425 51.079 53.599 51.6096 52.4977L53.2913 49.0226L49.5052 48.499C48.8577 48.4088 47.8595 45.8814 48.444 45.6015L51.9513 43.9226C53.4442 43.2095 51.4387 35.8801 55.5305 34.8872C57.9946 34.2914 60.4767 35.3565 61.385 37.1618L62.9318 40.2218C63.1117 40.5828 63.966 41.4584 63.5613 41.6299L60.036 43.1102L60.7375 43.9677C60.8454 43.5074 60.6925 44.1754 60.5666 44.726L59.7573 43.6338L56.0162 44.5093C55.8363 44.1393 56.268 45.0329 56.5378 45.6106C59.8472 46.1251 61.6008 45.764 63.2735 43.8865L63.7951 43.2998L66.8258 43.0922C67.5902 43.038 69.164 42.2437 69.7215 41.7021L69.2539 40.8627C69.146 41.3952 69.3078 40.6099 69.4338 39.96L70.1442 41.2959L72.4015 42.9658L71.2593 39.0483C71.2324 38.9491 71.0795 38.9761 70.8726 38.9852L70.1082 38.3804L70.1442 37.8478L68.1567 38.3262C67.6531 38.4526 68.9122 36.5751 69.4068 36.7466L70.6568 37.1889C70.7827 37.234 70.8546 37.3604 71.0435 37.5861L71.4842 38.1006L71.9698 38.5068L75.504 39.942L75.3422 36.873C75.2432 34.9774 80.8099 34.3275 81.2056 36.0606L82.9952 44.0761L83.5528 40.7363C82.9952 40.3843 82.8873 40.3211 82.8873 40.1315L82.8334 34.9774L85.0007 34.4539L85.9989 38.5429C86.1698 39.2469 83.9305 39.5719 83.328 39.8968L84.0474 40.5558L86.2417 42.7672C86.9072 43.4352 89.6051 41.5216 90.4864 41.8375L97.3571 44.3378L98.724 41.4403L101.341 44.4913C101.548 44.735 102.654 43.2366 102.429 42.9929C101.728 42.2527 100.487 39.7975 101.143 39.1657C102.276 38.0645 106.296 37.4416 107.222 38.606C107.78 39.3101 108.526 41.6389 108.769 42.5506L110.622 49.7627L111.323 46.5674C111.494 45.773 112.16 43.7331 112.897 43.5796L116.422 42.8485C119.354 42.2347 121.656 41.4403 124.201 43.2276C124.516 43.4442 125.856 44.2295 126.072 43.9316L127.412 42.0271C128.014 41.1696 128.887 40.0322 129.552 39.599C130.352 39.0754 132.682 40.4204 133.005 41.305L134.687 45.9265C134.813 46.2695 133.851 47.7408 133.617 47.479L132.43 46.1792C132.277 46.0168 131.162 45.6647 131.144 45.8723L130.604 52.4526C130.388 55.1244 132.583 50.7015 136.108 50.7737C135.892 51.1708 136.917 49.3114 137.196 48.8059C137.7 47.8762 140.47 50.1418 139.633 50.7917C136.18 53.4455 138.257 56.3159 135.928 57.1644C135.011 57.4984 133.203 56.6228 132.484 55.9639L131.162 54.7543C130.892 54.5106 130.55 56.6048 130.892 56.7311L136.324 58.726C137.061 58.9968 138.698 60.2244 139.319 60.7118L144.966 65.1528L146.783 61.7589C147.295 60.802 142.43 58.4732 142.97 55.5306C143.15 54.5828 144.813 52.9039 145.766 53.0213C146.72 53.1386 148.617 54.2489 149.247 55.0342L151.153 57.363C152.376 58.8614 148.95 61.0367 150.101 62.7788C150.587 63.519 151.828 65.7576 151.207 66.3262L147.979 69.2508L151.558 72.9065L153.608 85.3359L161.405 85.4984C162.979 85.5345 165.209 85.2998 166.127 86.058L167.602 87.3037C168.006 87.6467 167.125 89.3256 166.594 89.3256H159.427L159.616 90.3185L167.521 91.5822C170.443 92.0516 169.832 84.8304 176.145 84.9658C178.717 85.02 181.001 86.3017 181.837 88.4229C182.548 90.2192 181.136 94.2721 178.735 94.4255C175.156 94.6512 171.909 94.7324 170.488 93.0716C170.326 92.882 169.247 93.6673 169.274 93.911C169.346 94.5068 169.895 96.0864 169.436 96.4384L165.875 99.1644C166.001 99.3991 165.155 97.8285 165.075 97.675C165.866 97.0432 167.134 94.9129 166.468 94.8046L159.076 93.577C159.679 94.8859 160.83 96.7814 160.614 97.7472C160.398 98.7131 157.646 99.6699 156.441 100.022L159.355 104.102L159.913 103.515L160.218 101.755L164.13 101.574C164.688 101.547 165.066 103.47 164.679 103.642L161.181 105.212C162.071 106.377 163.114 107.433 164.4 107.929C173.177 111.359 171.442 114.455 169.751 113.092L166.441 110.42L164.742 111.431L163.06 110.312C162.386 109.87 161.172 112.839 161.945 113.047L167.332 114.536C167.97 114.717 170.075 114.311 170.317 114.906L172.242 119.745C172.404 120.16 172.08 121.749 171.963 122.353C171.9 122.687 173.051 123.13 173.105 122.759L173.42 120.62C173.483 120.214 175.803 120.449 176.019 120.801L180.569 127.995L182.926 131.28L178.897 132.968C178.474 131.344 180.74 130.288 179.113 129.024C177.242 130.91 177.701 132.869 178.807 134.756L180.875 138.285C181.289 138.998 181.577 140.632 181.541 141.345C181.406 141.255 182.224 141.832 182.539 142.058C182.665 142.148 181.55 142.879 181.487 142.789L180.731 141.823C180.237 142.157 179.095 142.925 179.059 143.538L178.951 145.497C178.924 145.921 178.339 146.102 176.738 147.004L178.78 148.747L180.56 150.263L177.359 151.184V152.005L176.604 156.23C176.478 156.934 174.077 156.139 173.375 156.04C172.584 155.923 170.794 157.277 171.001 158.044L171.63 160.409L172.287 160.797L173.546 159.642L172.611 158.82C172.287 158.974 173.366 157.773 173.429 157.917C173.555 158.215 174.023 159.289 174.05 159.253L176.316 157.611C176.64 157.376 178.069 157.412 177.935 157.773C177.8 158.134 177.458 159.082 177.188 159.353L174.589 161.997C174.319 162.277 172.952 162.322 172.683 162.034L171.99 161.275L171.145 160.824L168.357 163.631C168.177 163.496 169.508 165.166 169.508 165.166C169.508 165.166 168.51 165.409 168.51 165.4C168.51 165.382 167.925 164.182 167.844 164.209L163.762 165.148L166.729 169.137C166.963 169.453 166.316 170.988 166.199 171.349C165.758 172.658 164.499 168.632 163.941 168.857L162.763 169.345L162.35 170.031L162.026 177.541C161.981 178.489 163.609 181.296 162.718 181.63C161.783 181.982 159.265 182.524 158.438 183.083C155.65 184.97 151.036 187.678 147.466 188.12L140.64 188.977C139.957 189.068 138.77 189.113 138.428 188.661L137.07 186.874C136.935 186.694 136.126 187.353 136.063 187.596C135.892 188.237 135.038 189.564 134.642 189.194C134.246 188.824 133.608 187.903 134.004 187.542L135.532 186.152C136.189 185.556 132.592 185.972 132.933 186.802C133.446 188.048 131.36 189.862 131.261 190.927L129.849 205.595L127.906 220.073C127.735 221.373 125.137 224.208 123.824 224.108L113.931 223.377C108.409 222.971 108.113 216.698 104.264 213.972C104.821 213.313 106.368 210.614 105.712 209.648L103.283 206.064L104.866 203.745C104.641 198.491 101.988 194.231 97.447 191.442C94.1736 189.429 88.2022 190.232 86.0888 192.371C85.4683 193.003 85.0097 195.359 85.0366 195.639L86.8892 196.939C84.9557 195.549 84.7039 195.901 85.909 197.886L84.4701 196.19C83.8046 196.83 82.6085 198.708 82.7434 199.674L85.3424 218.422L86.4306 233.424C86.5205 234.624 84.8208 237.07 83.8496 237.594C80.9268 239.173 74.3529 236.294 73.3997 231.194C72.7252 227.556 72.8421 224.126 73.0939 220.11L74.4968 197.525L73.1479 193.337L72.6443 192.832L71.2773 191.46L70.8277 191.008L69.083 190.232C68.6244 190.024 68.8132 188.788 69.056 188.355C69.2989 187.921 71.0075 187.443 71.0885 187.93L71.5111 190.512L71.9158 191.008L73.031 192.272L73.8673 192.723C74.4519 191.216 74.254 188.427 73.7774 186.378L68.4715 185.809L69.9194 181.251C70.2881 180.077 68.2107 177.342 67.0596 177.55L62.4372 178.407C61.9066 178.263 61.439 178.128 63.4084 178.678L65.5308 183.48L65.8725 184.13L67.6351 184.897C68.0848 185.087 67.9139 186.36 67.6262 186.757C67.2395 187.28 65.4408 187.614 65.4139 186.974L65.315 184.563L64.9283 184.22L63.1836 184.789C62.2483 185.096 60.5037 177.712 58.9659 179.319L56.3039 182.099C56.0162 182.397 54.8651 182.957 54.6762 182.587C54.4874 182.217 54.1007 181.088 54.1996 180.655L55.0089 177.144L58.2015 178.732L59.0019 176.494C59.1547 176.061 60.0001 175.844 60.4587 175.781L61.1872 175.041C60.8724 174.698 60.1979 173.488 59.8652 173.813L58.2734 175.384C57.7788 175.871 56.232 176.539 55.5665 176.53C53.9837 176.512 54.2985 171.259 56.7536 170.41L58.5882 169.778C58.9209 169.661 58.0216 168.894 57.6799 168.921L53.687 169.191C53.7679 169.191 54.0017 171.448 53.3722 171.358L48.462 170.618L47.158 175.709L45.4853 174.039C45.1346 173.696 44.0734 175.275 43.6598 175.844C43.291 176.349 41.4025 175.077 41.6633 174.526L42.6525 172.414C43.1651 171.322 40.782 167.81 40.764 169.327L40.719 172.766C40.71 173.524 38.5337 173.678 37.8323 173.38C34.0732 171.782 39.6219 169.598 39.1273 163.532C38.9474 161.275 41.6093 163.243 41.7802 160.734L42.1309 155.652C41.6813 156.058 40.4043 157.385 39.7658 157.286L34.4959 156.491C33.5426 156.347 31.762 156.248 31.5731 155.562L30.6469 152.231C30.485 151.635 31.9868 150.254 32.4545 150.435C33.1559 150.696 34.325 151.265 34.5408 150.904L35.665 149.072C35.8988 148.692 36.1596 147.104 36.0966 147.104L33.066 149.487C32.8052 149.694 31.3573 149.162 31.3393 148.828L31.1954 146.4C31.0426 143.872 37.2567 140.83 33.3088 141.498C31.78 141.76 28.3986 143.936 29.0371 145.253L30.1073 147.465C30.3051 147.88 29.2799 148.774 28.8573 148.593L26.9058 147.781C25.7277 147.293 22.5891 147.311 21.411 147.835L19.4236 148.72C18.866 148.972 17.8768 147.221 18.1825 146.689C19.2527 144.784 20.197 147.212 22.9938 144.603C23.5154 144.116 21.9146 142.554 21.2222 142.491L14.9451 141.887L15.5386 135.821C15.5925 135.243 17.4361 135.044 17.4541 135.505L17.616 139.458C18.4973 138.727 19.9092 137.491 20.5207 136.633L25.1162 130.143L25.1521 130.098ZM53.8219 42.8485L53.2823 43.2817L53.8219 43.715L54.2535 43.2817L53.8219 42.8485ZM78.7145 42.8485L78.2829 43.2817L78.7145 43.715L79.1462 43.2817L78.7145 42.8485ZM53.8219 45.4391L53.8039 45.9987V46.5764L53.8219 47.136L53.8399 46.5764V45.9987L53.8219 45.4391ZM55.7014 49.8801L57.6889 47.3617L54.1726 48.3365L55.6924 49.8891L55.7014 49.8801ZM123.617 52.4345C123.032 51.1347 122.367 48.9594 121.53 48.7066L116.863 47.2895L115.001 51.6402L123.617 52.4436V52.4345ZM50.7642 59.2676L50.1347 59.9806C50.1347 59.9806 50.8542 59.1683 50.7642 59.2676ZM39.3791 70.6228L40.764 68.7363C39.7568 68.7904 38.2999 68.98 38.264 69.5306L38.0391 72.4462L39.3791 70.6228ZM48.9027 69.6209C50.4765 67.6802 48.9477 69.5577 48.6869 69.8826C48.534 71.8865 48.6689 70.9478 48.9027 69.6209ZM40.4942 74.1521C39.1722 72.9155 38.4258 73.1051 39.541 74.7118C40.9888 75.5603 41.8072 75.4158 40.4942 74.1521ZM23.7852 74.7118L23.3535 75.1451L23.7852 75.9123L24.2169 75.1451L23.7852 74.7118ZM41.9511 78.5751L41.3935 78.5932L41.9511 78.6112H42.5266L43.0842 78.5932L42.5266 78.5751H41.9511ZM27.3554 84.3701C27.6162 84.2166 26.0065 83.7743 25.26 83.7021C24.6215 84.4152 24.3248 86.2205 24.9003 85.8685L27.3554 84.3701ZM36.6632 85.0471L36.2315 85.4803L36.6632 85.9136L37.0949 85.4803L36.6632 85.0471ZM24.6485 86.7711L24.2169 87.2044L24.6485 87.6376L25.0802 87.2044L24.6485 86.7711ZM154.652 93.3062C154.948 93.6222 156.702 93.559 156.756 93.1438L157.421 88.4952L153.653 88.7208L156.144 89.9394C156.9 90.3095 155.848 92.2953 155.173 92.8369L154.652 93.3153V93.3062ZM36.6632 90.2192L36.2315 90.6525L36.6632 91.0857L37.0949 90.6525L36.6632 90.2192ZM154.706 92.3585L154.283 91.0587C154.166 90.7066 152.835 91.3385 153.105 91.6273L154.238 92.8549L154.715 92.3675L154.706 92.3585ZM20.0261 93.8117C20.3768 93.3875 18.9469 91.3836 18.6052 91.8169L17.1393 93.7215C16.8426 94.1006 19.7203 94.1818 20.0261 93.8117ZM156.477 103.136C156.477 102.603 156.046 102.179 155.524 102.179C155.002 102.179 154.571 102.612 154.571 103.136C154.571 103.66 155.002 104.093 155.524 104.093C156.046 104.093 156.477 103.66 156.477 103.136ZM157.664 103.994L157.233 104.427L157.664 104.86L158.096 104.427L157.664 103.994ZM168.825 119.501L168.393 119.934L168.825 120.367L169.256 119.934L168.825 119.501ZM24.4687 123.03C24.4687 123.175 24.4687 123.572 24.6305 123.707L24.4687 123.03ZM25.6827 124.014L25.6018 124.502C26.6809 124.411 26.9867 124.249 25.6827 124.014ZM177.404 137.59L176.972 138.023L177.404 138.456L177.836 138.023L177.404 137.59ZM27.6702 139.513C26.9417 138.493 24.6575 138.303 23.2816 138.763L27.2115 140.199L27.6612 139.513H27.6702ZM28.1288 140.153L27.6162 140.596L29.2529 140.767C29.6217 140.803 27.895 140.036 28.1198 140.153H28.1288ZM176.361 143.574L176.568 141.2C176.505 141.986 176.361 143.583 176.361 143.574ZM39.2352 148.783L38.8035 149.216L39.2352 149.649L39.6669 149.216L39.2352 148.783ZM43.2641 155.507L46.1418 154.569L45.0447 151.617C44.7839 150.922 43.1112 149.577 42.5536 150.01L40.4133 151.689L41.7892 152.763C42.7335 151.274 43.9026 151.265 44.0555 152.312L43.2641 155.498V155.507ZM176.945 150.958L174.301 149.523L174.652 155.191L176.658 151.382L176.945 150.958ZM39.2352 150.507L38.8035 150.94L39.2352 151.373L39.6669 150.94L39.2352 150.507ZM48.9746 155.823C50.0088 155.02 50.2786 154.812 49.2085 155.643C48.3631 156.302 48.0304 156.563 48.9746 155.823ZM47.0052 159.75L45.6472 157.222C45.4404 156.843 44.0734 156.482 44.5141 156.798C44.1814 159.47 43.2461 162.178 41.9331 163.496L40.6111 164.823C40.3503 165.084 40.6741 166.213 41.0428 166.168C41.4115 166.122 42.4997 165.77 42.7245 165.473L46.9962 159.759L47.0052 159.75ZM51.9873 160.201C50.9711 160.264 50.6114 160.4 51.9423 160.607L51.9873 160.201ZM49.1185 165.337H47.8325C47.5627 165.337 46.8703 166.141 46.5915 166.357C46.3127 166.574 47.8865 166.944 48.2462 166.863L50.0898 166.447C50.4495 166.366 49.4872 165.346 49.1185 165.346V165.337ZM61.5828 175.384L61.0882 175.907L61.5199 176.367L62.1494 175.835L61.5828 175.375V175.384ZM73.5975 184.573C73.7954 184.925 73.9752 183.191 74.0112 182.794C74.0472 182.397 72.2935 182.235 72.4824 182.578L73.5975 184.573ZM70.9895 183.228L70.5579 183.661L70.9895 184.094L71.4212 183.661L70.9895 183.228Z" fill="#DB1C41"/>
<path d="M24.2619 127.155C24.7835 127.309 25.3141 130.278 25.1522 130.107L22.5712 128.284L19.0639 131.262C18.8031 131.488 17.3732 131.389 17.4811 131.064L18.0657 129.43C18.8031 127.363 17.3013 125.513 18.6592 125.765L19.8193 125.982C20.1611 126.045 19.9272 127.751 20.269 127.715L24.2529 127.164L24.2619 127.155Z" fill="#DB1C41"/>
<path d="M116.234 39.7885L115.181 41.6841C114.93 42.1444 113.149 41.9278 112.789 41.5396C111.971 40.646 112.519 37.8208 113.374 36.7827C115.109 34.6525 111.17 30.9607 114.957 26.8356C116.171 25.5087 119.957 25.0303 121.818 25.7885C123.68 26.5467 125.433 29.6338 125.245 32.1341C124.75 38.7324 117.861 36.8549 116.225 39.7885H116.234Z" fill="#DB1C41"/>
<path d="M192.8 94.9942C193.645 96.3121 193.789 99.5887 192.611 101.042C191.586 102.315 188.537 102.712 186.568 101.755C184.976 100.97 184.383 97.7292 185.021 95.9781L186.784 91.158L187.737 89.2444C187.971 88.775 189.491 89.8762 189.769 90.3095L192.8 95.0032V94.9942Z" fill="#DB1C41"/>
<path d="M160.128 77.6905L162.242 71.7872C162.97 69.7563 166.352 68.8446 168.339 69.9368C170.147 70.9387 171.127 73.8452 170.389 76.138C169.085 80.2089 159.652 78.9993 160.128 77.6815V77.6905Z" fill="#DB1C41"/>
<path d="M134.058 17.2856C132.016 15.6247 132.016 11.7524 133.959 9.96518C135.38 8.66537 139.076 8.68342 140.434 10.1367C141.549 11.3282 141.81 14.4694 141.153 15.9678C140.155 18.2514 136.576 19.3346 134.067 17.2856H134.058Z" fill="#DB1C41"/>
<path d="M199.428 67.6982C197.548 67.7163 195.3 65.4326 195.084 63.7808C194.805 61.6957 196.253 58.9245 198.403 58.41C201.559 57.6518 203.816 59.773 204.158 62.3817C204.446 64.6563 203.358 67.6531 199.437 67.6982H199.428Z" fill="#DB1C41"/>
<path d="M96.1341 32.107C94.8931 34.156 91.3678 34.5171 89.839 33.3617C88.0764 32.0168 87.3839 29.0741 88.1393 27.305C89.0656 25.1476 92.0783 23.9742 94.2186 25.0122C96.6827 26.2037 97.8158 29.3179 96.1251 32.107H96.1341Z" fill="#DB1C41"/>
<path d="M65.4499 8.71953C62.8239 7.25725 62.4912 3.43004 64.4696 1.19148C65.6117 -0.0992984 69.0201 -0.397171 70.2521 0.550605C72.0687 1.9497 72.6713 4.80206 71.9518 6.77884C71.1604 8.94519 67.9769 10.1186 65.4499 8.71953Z" fill="#DB1C41"/>
<path d="M196.982 143.349C197.53 144.306 198.286 145.723 198.232 146.589C198.178 147.456 196.901 148.846 196.082 149.108C195.012 149.451 192.8 148.097 192.539 147.068L190.885 140.659C190.579 139.494 191.631 138.041 193.537 135.848C193.349 135.73 194.572 136.471 195.156 136.823C197.395 140.153 195.741 141.146 197 143.34L196.982 143.349Z" fill="#DB1C41"/>
<path d="M25.1341 170.139C25.5029 170.564 25.9075 171.818 25.8536 172.306C25.7816 172.956 24.2348 173.425 23.6413 173.208L18.5423 171.376C17.4811 170.997 16.7706 168.524 17.2383 167.341C17.8138 165.879 20.9434 165.22 21.8157 166.249L25.1431 170.139H25.1341Z" fill="#DB1C41"/>
<path d="M183.582 177.676C185.974 177.044 187.575 178.678 187.764 180.177C187.908 181.341 186.595 183.58 185.273 183.887C184.131 184.148 182.224 182.921 181.64 181.729C181.127 180.682 182.341 178.01 183.582 177.685V177.676Z" fill="#DB1C41"/>
<path d="M157.305 56.0451C158.096 55.1515 161.405 55.5126 161.945 56.4242C162.574 57.4894 162.395 59.9355 161.414 61.0006C160.695 61.7679 158.573 61.6325 157.556 61.0819C156.468 60.4952 155.965 57.5616 157.314 56.0542L157.305 56.0451Z" fill="#DB1C41"/>
<path d="M133.869 209.458C135.55 208.637 137.97 209.431 138.293 210.433C138.68 211.634 138.212 214.495 137.079 214.955C136.108 215.353 133.941 214.82 133.041 214.107C132.079 213.349 132.457 210.144 133.869 209.458Z" fill="#DB1C41"/>
<path d="M33.5336 202.526C35.1793 201.84 37.4186 202.851 37.7154 203.871C38.138 205.324 37.6614 207.852 36.5013 208.258C35.4042 208.637 33.039 208.177 32.3285 207.391C31.5012 206.471 32.0228 203.167 33.5336 202.535V202.526Z" fill="#DB1C41"/>
<path d="M202.611 102.811C204.401 102.116 206.478 103.001 206.829 104.012C207.279 105.302 206.793 108.055 205.624 108.453C204.545 108.814 202.153 108.317 201.442 107.532C200.615 106.611 201.271 103.335 202.62 102.811H202.611Z" fill="#DB1C41"/>
<path d="M141.738 44.8614C142.862 43.8414 145.901 44.3198 146.387 45.3668C146.9 46.4771 146.72 48.8872 145.812 49.7627C145.056 50.4939 142.88 50.4216 141.971 49.8981C140.784 49.2121 140.317 46.1521 141.738 44.8614Z" fill="#DB1C41"/>
<path d="M32.7782 55.3501C34.1272 54.8807 36.5103 55.666 36.7442 56.6409C36.996 57.6699 36.6812 59.9175 35.7369 60.2605C34.6218 60.6577 32.9581 60.4681 32.1307 59.8814C31.3034 59.2947 31.7261 55.7112 32.7782 55.3411V55.3501Z" fill="#DB1C41"/>
<path d="M43.2461 184.852C42.5087 185.096 40.4403 184.248 40.6472 183.643C40.854 183.038 41.6724 181.838 42.2749 181.621L45.3595 180.52C46.1689 180.231 47.4189 182.19 47.8506 183.318L43.2461 184.852Z" fill="#DB1C41"/>
<path d="M176.28 106.178C176.37 106.647 175.965 108.624 175.641 108.416C175.165 108.119 174.185 107.342 174.014 106.81L172.602 102.387C172.494 102.053 171.406 101.141 171.711 100.979L173.159 100.22C173.492 100.049 175.012 99.4803 175.075 99.8414L176.262 106.178H176.28Z" fill="#DB1C41"/>
<path d="M12.8317 77.8349C12.499 78.1509 11.2939 77.0045 11.4738 76.5532L12.9486 72.6808C13.1195 72.2295 14.0548 71.4803 14.5404 71.4984C15.1879 71.5254 16.303 72.1122 16.5278 72.7169C16.7527 73.3217 15.9343 74.8652 15.4667 75.3075L12.8317 77.8349Z" fill="#DB1C41"/>
<path d="M28.1468 191.053L21.7168 191.27V188.12L28.2098 188.246C28.4795 188.246 29.2619 189.429 29.226 189.699C29.19 189.97 28.4166 191.044 28.1468 191.053Z" fill="#DB1C41"/>
<path d="M165.479 67.1115C164.301 67.2289 162.619 65.6222 162.691 64.891C162.781 63.9703 163.986 61.9665 164.904 62.0026C165.623 62.0297 166.846 63.3024 167.071 63.9884C167.296 64.6744 166.208 67.0393 165.479 67.1206V67.1115Z" fill="#DB1C41"/>
<path d="M46.1959 62.6525L46.2858 63.6273L45.1977 66.254C44.9279 66.6963 42.8055 65.8659 42.9944 65.3875L44.0286 62.7969L41.1058 63.0677C41.3127 62.7427 42.3289 61.6686 42.7606 61.5422C43.7408 61.2534 45.0628 60.9645 45.5214 61.3256L46.2049 62.6525H46.1959Z" fill="#DB1C41"/>
<path d="M46.2858 63.6273C46.2228 62.9413 46.1868 62.5532 46.1958 62.6525L48.6599 64.1418L46.2858 63.6364V63.6273Z" fill="#DB1C41"/>
<path d="M-0.783745 142.22C-0.316108 141.733 2.39978 142.211 2.37281 142.879C2.33683 143.719 2.121 144.992 1.81524 145.768C1.57243 146.391 -0.352079 146.102 -0.91864 145.75C-1.62909 145.308 -1.52117 142.988 -0.783745 142.211V142.22Z" fill="#DB1C41"/>
<path d="M10.4126 44.2927C11.3029 43.9407 13.1735 44.2386 13.3803 44.8614C13.6411 45.6377 13.5512 47.1721 12.9397 47.7137C12.4541 48.147 10.8533 47.9394 10.2598 47.6596C9.52233 47.2985 9.64823 44.5996 10.4036 44.3017L10.4126 44.2927Z" fill="#DB1C41"/>
<path d="M61.0523 197.264C61.3131 196.596 64.4876 196.641 64.4337 197.39L64.1908 200.387C64.1279 201.127 61.6818 200.766 61.1152 200.279C60.5487 199.791 60.5846 198.482 61.0613 197.273L61.0523 197.264Z" fill="#DB1C41"/>
<path d="M44.3433 50.9362C44.3793 51.2702 42.3378 52.6331 42.131 52.4165L40.0176 50.1418C39.514 49.6003 41.1508 48.0567 41.8432 47.813C42.7066 47.5061 44.2084 49.7357 44.3433 50.9362Z" fill="#DB1C41"/>
<path d="M13.7131 112.596L13.866 114.744C13.893 115.105 12.8678 115.277 12.6519 114.988L11.4918 113.507L11.8336 108.976C11.8785 108.435 14.0908 108.444 14.0368 109.084L13.7131 112.596Z" fill="#DB1C41"/>
<path d="M99.5694 215.741C99.7943 215.136 102.78 214.342 102.861 214.965L103.248 218.061C103.329 218.683 101.512 219.008 100.882 218.981C100.046 218.945 99.2097 216.68 99.5604 215.732L99.5694 215.741Z" fill="#DB1C41"/>
<path d="M97.6179 211.616L99.2456 213.755C99.5784 214.197 97.9146 215.786 97.5279 215.38L95.5045 213.241L94.893 211.832C94.7581 211.507 94.7311 210.361 95.0729 210.424C95.5855 210.524 97.2402 211.137 97.6089 211.616H97.6179Z" fill="#DB1C41"/>
<path d="M174.535 167.801L176.046 173.443C176.226 174.102 173.339 173.217 173.285 172.594L173.006 168.939C173.771 168.37 174.58 167.756 174.535 167.792V167.801Z" fill="#DB1C41"/>
<path d="M70.9806 35.0045L73.031 33.3346C73.2648 33.1451 74.6138 33.8672 74.5778 34.1741L74.308 36.2502C74.263 36.5751 73.4267 37.9201 73.1749 37.7124L70.5669 35.5461L69.4788 34.5712C70.423 34.6344 71.0705 34.6705 70.1892 34.6164L70.9896 35.0045H70.9806Z" fill="#DB1C41"/>
<path d="M170.92 183.995C171.343 184.275 171.612 185.556 171.496 186.026C171.334 186.64 168.986 186.829 168.879 186.215L168.141 182.126L170.929 183.995H170.92Z" fill="#DB1C41"/>
<path d="M144.166 198.672L140.659 199.403L139.795 197.435C139.552 196.876 141.045 195.359 141.459 195.801L144.175 198.672H144.166Z" fill="#DB1C41"/>
<path d="M192.26 118.156C192.503 117.696 194.877 117.687 194.823 118.21L194.599 120.413C194.545 120.936 192.827 120.413 192.395 120.115C191.964 119.817 191.928 118.788 192.26 118.156Z" fill="#DB1C41"/>
<path d="M95.4416 36.205C96.1341 36.5571 96.8355 37.0174 97.2042 37.4236C97.573 37.8298 96.9884 39.4636 96.4488 39.3462L94.3714 38.9039C93.8408 38.7866 94.947 35.9613 95.4326 36.205H95.4416Z" fill="#DB1C41"/>
<path d="M61.0792 207.77C61.5738 207.482 63.5973 208.095 63.3635 208.583L62.4012 210.614C62.1674 211.101 60.9174 210.451 60.5397 210.063C60.1619 209.675 60.6116 208.041 61.0702 207.77H61.0792Z" fill="#DB1C41"/>
<path d="M26.0695 205.288C26.2943 204.801 28.1828 204.611 28.5515 204.999C28.9202 205.387 29.4239 206.317 28.9742 206.606L27.1127 207.807C26.663 208.095 25.8446 205.794 26.0695 205.288Z" fill="#DB1C41"/>
<path d="M45.2066 188.4C45.5753 187.696 48.2822 190.25 48.0663 190.566L47.4188 191.505C46.9602 192.173 44.1634 190.422 44.5411 189.681L45.1976 188.4H45.2066Z" fill="#DB1C41"/>
<path d="M166.459 189.212C167.134 188.517 169.481 188.147 169.328 188.743L168.717 191.117C168.51 191.902 165.902 189.79 166.459 189.212Z" fill="#DB1C41"/>
<path d="M196.478 131.479C197.144 130.703 199.509 130.396 199.356 130.974L198.771 133.302C198.573 134.079 195.948 132.084 196.478 131.47V131.479Z" fill="#DB1C41"/>
<path d="M175.021 117.524C174.985 118.138 172.539 118.553 172.701 118.012L174.068 113.489C174.499 113.155 175.264 113.11 175.237 113.489L175.021 117.515V117.524Z" fill="#DB1C41"/>
<path d="M24.3428 162.972C24.5497 163.144 23.2007 164.651 22.9759 164.407L21.8518 163.207L20.9165 162.205C20.7186 161.997 21.7528 160.725 21.9687 160.914L24.3518 162.972H24.3428Z" fill="#DB1C41"/>
<path d="M185.426 159.425C185.821 159.091 187.989 159.443 187.854 159.939L187.386 161.609C187.242 162.115 185.534 162.024 185.084 161.754C184.634 161.483 185.03 159.75 185.426 159.416V159.425Z" fill="#DB1C41"/>
<path d="M138.932 58.3739C139.876 57.7782 141.792 57.4081 141.657 57.9587L141.144 60.1431C140.973 60.8743 138.284 58.7711 138.932 58.3649V58.3739Z" fill="#DB1C41"/>
<path d="M3.56892 119.302C3.86569 118.698 6.54561 118.337 6.37474 118.932L5.71825 121.261C5.49343 122.046 3.05632 120.331 3.55993 119.302H3.56892Z" fill="#DB1C41"/>
<path d="M50.5754 193.951L50.3416 196.135C50.3057 196.505 48.534 196.28 48.552 195.91L48.615 194.249C48.633 193.752 50.6204 193.518 50.5754 193.96V193.951Z" fill="#DB1C41"/>
<path d="M163.627 176.512L165.848 176.918C166.414 177.026 165.965 179.337 165.398 179.238L163.618 178.94C163.042 178.85 163.348 177.559 163.627 176.512Z" fill="#DB1C41"/>
<path d="M23.4615 156.564L21.519 156.112C21.1143 156.022 21.4021 154.126 21.8068 154.208L23.9201 154.677C24.3698 154.776 23.9201 156.672 23.4615 156.564Z" fill="#DB1C41"/>
<path d="M7.94848 66.6693C8.27223 66.4346 9.66615 66.254 9.79205 66.6151C9.9809 67.1567 9.90896 68.9981 9.3424 68.9529L7.57976 68.8085C7.00421 68.7634 7.48983 66.9942 7.94848 66.6693Z" fill="#DB1C41"/>
<path d="M158.519 73.1232C158.141 74.6306 156.522 75.127 156.27 73.7189L156.864 71.1193C156.945 70.7492 157.673 71.7331 158.519 73.1232Z" fill="#DB1C41"/>
<path d="M4.80996 92.8188L4.48621 91.4287L7.56182 88.459L7.92154 89.8672L4.80996 92.8188Z" fill="#DB1C41"/>
<path d="M14.1987 120.638L14.9451 122.57C15.1519 123.093 13.3623 124.24 13.3264 123.689L13.0386 119.384C13.2814 119.618 14.1447 120.503 14.1987 120.638Z" fill="#DB1C41"/>
<path d="M37.9132 61.9845C37.8143 61.6415 40.1255 61.2443 40.1525 61.6054L40.2784 63.519C40.3144 64.0606 38.6777 64.6744 38.5248 64.1509L37.9132 61.9935V61.9845Z" fill="#DB1C41"/>
<path d="M15.3587 60.2153C16.4289 59.7008 18.1825 59.5022 17.9937 60.0077L17.2742 61.9484C17.0134 62.6434 14.6932 60.5313 15.3587 60.2153Z" fill="#DB1C41"/>
<path d="M2.02213 104.057C2.01314 104.228 2.12106 102.892 2.193 102.143L2.66963 100.175C2.75956 99.8233 3.52397 99.5435 3.89268 99.5977C4.43226 99.6699 5.51143 100.78 5.11573 101.15L2.03113 104.057H2.02213Z" fill="#DB1C41"/>
<path d="M0.673222 118.021C0.745166 117.66 3.11033 117.786 3.0204 118.147L2.4988 120.277C2.39988 120.665 1.15884 120.395 0.943012 120.088C0.619263 119.636 0.529333 118.716 0.673222 118.012V118.021Z" fill="#DB1C41"/>
<path d="M179.787 156.013C179.58 156.22 178.276 155.977 178.15 155.733C178.016 155.48 177.926 155.101 178.159 154.984L179.697 154.235C180.354 153.91 181.091 152.502 181.64 151.761L182.539 150.561C182.8 150.209 183.834 151.987 183.519 152.303L179.778 156.022L179.787 156.013Z" fill="#DB1C41"/>
<path d="M89.1465 193.861C89.0925 194.285 88.391 195.747 88.0673 195.603C87.5817 195.395 86.6644 194.628 86.8353 194.122L87.2939 192.76C87.4648 192.254 89.2184 193.319 89.1465 193.861Z" fill="#DB1C41"/>
<path d="M154.589 69.2779C155.137 71.5255 152.853 72.1754 152.826 69.5758C152.826 69.1967 154.499 68.9168 154.589 69.2779Z" fill="#DB1C41"/>
<path d="M61.8436 186.504C62.1584 187.669 59.4695 187.723 59.3346 186.594C59.2626 186.017 61.6907 185.935 61.8436 186.504Z" fill="#DB1C41"/>
<path d="M27.3915 167.305L26.2314 168.993C25.8986 169.48 24.7385 167.486 25.1702 167.07L26.3303 165.933C26.5461 165.716 27.5713 167.043 27.3915 167.305Z" fill="#DB1C41"/>
<path d="M0.088583 112.632L-4.23706 112.352L-1.20641 111.079C-0.936622 110.971 -0.585893 111.585 0.088583 112.641V112.632Z" fill="#DB1C41"/>
<path d="M14.6393 117.605C14.954 118.797 12.2561 118.743 12.1302 117.723C12.0583 117.136 14.4864 117.028 14.6393 117.605Z" fill="#DB1C41"/>
<path d="M38.7406 159.208C39.0194 159.885 36.2136 159.93 36.1866 159.208C36.1506 158.324 38.309 158.179 38.7406 159.208Z" fill="#DB1C41"/>
<path d="M30.3592 153.991C30.3862 154.749 27.5803 154.758 27.6163 154C27.6523 153.016 30.3232 153.052 30.3592 153.991Z" fill="#DB1C41"/>
<path d="M7.0223 108.317L5.65536 110.132C5.33161 110.556 4.04561 108.642 4.5852 108.579L7.0223 108.308V108.317Z" fill="#DB1C41"/>
<path d="M65.9355 179.283C66.4841 179.193 68.3816 179.888 68.0309 180.186L66.547 181.449C66.0794 181.847 65.3419 179.382 65.9445 179.283H65.9355Z" fill="#DB1C41"/>
<path d="M91.7725 194.493L89.749 192.534L91.6466 191.812C91.9973 191.676 91.9163 192.769 91.7725 194.493Z" fill="#DB1C41"/>
<path d="M52.2931 199.665L50.2697 197.706L52.1672 196.984C52.5179 196.848 52.437 197.941 52.2931 199.665Z" fill="#DB1C41"/>
<path d="M155.245 64.6473C155.713 64.5029 157.673 65.3333 157.314 65.6583L155.803 67.0393C155.326 67.4726 154.625 64.8369 155.245 64.6473Z" fill="#DB1C41"/>
<path d="M-0.666734 108.398C-0.140263 108.398 0.286526 107.97 0.286526 107.442C0.286526 106.913 -0.140263 106.485 -0.666734 106.485C-1.1932 106.485 -1.62 106.913 -1.62 107.442C-1.62 107.97 -1.1932 108.398 -0.666734 108.398Z" fill="#DB1C41"/>
<path d="M170.866 108.958L169.679 109.084C169.301 107.839 169.517 106.846 170.866 108.958Z" fill="#DB1C41"/>
<path d="M178.744 120.25C178.636 120.629 177.485 119.266 177.755 119.077L179.454 117.867C179.472 117.795 179.032 119.293 178.753 120.25H178.744Z" fill="#DB1C41"/>
<path d="M67.0237 40.0593L65.8366 40.1857C65.4589 38.94 65.6747 37.9471 67.0237 40.0593Z" fill="#DB1C41"/>
<path d="M17.4091 125.26L14.8281 126.235L17.0854 122.949L17.4091 125.26Z" fill="#DB1C41"/>
<path d="M190.462 129.89C189.113 130.865 188.915 130.45 190.102 129.313C191.262 129.006 191.748 129.231 190.462 129.89Z" fill="#DB1C41"/>
<path d="M9.63026 146.291C10.1567 146.291 10.5835 145.863 10.5835 145.335C10.5835 144.806 10.1567 144.378 9.63026 144.378C9.10379 144.378 8.677 144.806 8.677 145.335C8.677 145.863 9.10379 146.291 9.63026 146.291Z" fill="#DB1C41"/>
<path d="M184.221 144.73C183.321 146.995 181.073 146.102 183.16 144.206C184.347 142.699 184.967 142.798 184.221 144.73Z" fill="#DB1C41"/>
<path d="M133.212 203.997C133.739 203.997 134.166 203.569 134.166 203.041C134.166 202.512 133.739 202.084 133.212 202.084C132.686 202.084 132.259 202.512 132.259 203.041C132.259 203.569 132.686 203.997 133.212 203.997Z" fill="#DB1C41"/>
<path d="M95.4506 202.273C95.9771 202.273 96.4038 201.845 96.4038 201.317C96.4038 200.788 95.9771 200.36 95.4506 200.36C94.9241 200.36 94.4973 200.788 94.4973 201.317C94.4973 201.845 94.9241 202.273 95.4506 202.273Z" fill="#DB1C41"/>
<path d="M28.5066 172.134C29.0331 172.134 29.4599 171.706 29.4599 171.177C29.4599 170.649 29.0331 170.221 28.5066 170.221C27.9801 170.221 27.5533 170.649 27.5533 171.177C27.5533 171.706 27.9801 172.134 28.5066 172.134Z" fill="#DB1C41"/>
<path d="M32.7963 173.849C33.3227 173.849 33.7495 173.421 33.7495 172.892C33.7495 172.364 33.3227 171.936 32.7963 171.936C32.2698 171.936 31.843 172.364 31.843 172.892C31.843 173.421 32.2698 173.849 32.7963 173.849Z" fill="#DB1C41"/>
<path d="M180.408 173.849C180.934 173.849 181.361 173.421 181.361 172.892C181.361 172.364 180.934 171.936 180.408 171.936C179.881 171.936 179.454 172.364 179.454 172.892C179.454 173.421 179.881 173.849 180.408 173.849Z" fill="#DB1C41"/>
<path d="M96.3049 195.386C96.8314 195.386 97.2582 194.958 97.2582 194.429C97.2582 193.901 96.8314 193.473 96.3049 193.473C95.7785 193.473 95.3517 193.901 95.3517 194.429C95.3517 194.958 95.7785 195.386 96.3049 195.386Z" fill="#DB1C41"/>
<path d="M133.212 192.796C133.739 192.796 134.166 192.367 134.166 191.839C134.166 191.31 133.739 190.882 133.212 190.882C132.686 190.882 132.259 191.31 132.259 191.839C132.259 192.367 132.686 192.796 133.212 192.796Z" fill="#DB1C41"/>
<path d="M51.7355 181.278C51.6636 180.881 53.7949 180.628 53.6331 180.989L52.9586 182.469C52.7967 182.83 51.8075 181.684 51.7355 181.278Z" fill="#DB1C41"/>
<path d="M66.9427 189.51C67.2844 189.672 66.547 189.736 64.7754 190.214L65.297 188.544C65.0272 188.391 66.565 189.329 66.9427 189.51Z" fill="#DB1C41"/>
<path d="M184.706 171.069L183.088 169.444C183.834 169.724 184.427 170.32 184.706 171.069Z" fill="#DB1C41"/>
<path d="M186.793 167.856C185.66 169.065 185.336 169.417 185.821 168.894L186.793 167.856Z" fill="#DB1C41"/>
<path d="M196.226 128.248C195.111 129.439 194.752 129.818 195.273 129.268L196.226 128.248Z" fill="#DB1C41"/>
<path d="M174.301 111.747C173.555 111.467 172.961 110.872 172.683 110.122L174.301 111.747Z" fill="#DB1C41"/>
<path d="M10.8533 105.853C9.73818 107.044 9.37846 107.424 9.90006 106.873L10.8533 105.853Z" fill="#DB1C41"/>
<path d="M166.63 102.26C165.434 103.208 165.758 102.956 166.666 102.233C167.862 101.602 167.719 101.683 166.63 102.26Z" fill="#DB1C41"/>
<path d="M7.91257 98.7311L6.29382 97.1064C7.04024 97.3862 7.63378 97.9819 7.91257 98.7311Z" fill="#DB1C41"/>
<path d="M16.5549 87.2766L14.7922 88.6396L15.143 86.726C15.2149 86.3559 16.6628 87.2676 16.5549 87.2766Z" fill="#DB1C41"/>
<path d="M136.216 203.05L136.225 203.609V204.187L136.216 204.756L136.198 204.187V203.609L136.216 203.05Z" fill="#DB1C41"/>
<path d="M163.815 185.367H164.391L164.958 185.385L164.391 185.394H163.815L163.258 185.385L163.815 185.367Z" fill="#DB1C41"/>
<path d="M169.823 181.061H170.398L170.965 181.079L170.398 181.088H169.823L169.265 181.079L169.823 181.061Z" fill="#DB1C41"/>
<path d="M167.97 172.044L167.979 172.603V173.19L167.97 173.75L167.952 173.19V172.603L167.97 172.044Z" fill="#DB1C41"/>
<path d="M174.113 166.429H174.688L175.255 166.438L174.688 166.475H174.113L173.555 166.456L174.113 166.429Z" fill="#DB1C41"/>
<path d="M172.395 164.696H172.979L173.537 164.714L172.979 164.732H172.395L171.837 164.714L172.395 164.696Z" fill="#DB1C41"/>
<path d="M177.404 161.709L177.422 162.268V162.855L177.404 163.415L177.395 162.855V162.268L177.404 161.709Z" fill="#DB1C41"/>
<path d="M179.149 158.676H179.787L180.408 158.685L179.787 158.694H179.149L178.528 158.685L179.149 158.676Z" fill="#DB1C41"/>
<path d="M180.12 146.616H180.704L181.262 146.625L180.704 146.643H180.12L179.562 146.625L180.12 146.616Z" fill="#DB1C41"/>
<path d="M186.847 135.875L186.865 136.435V137.012L186.847 137.581L186.838 137.012V136.435L186.847 135.875Z" fill="#DB1C41"/>
<path d="M181.838 136.281H182.413L182.98 136.29L182.413 136.308H181.838L181.28 136.29L181.838 136.281Z" fill="#DB1C41"/>
<path d="M19.4956 132.337L19.5136 132.932V133.546L19.4956 134.133L19.4866 133.546V132.932L19.4956 132.337Z" fill="#DB1C41"/>
<path d="M28.2188 60.4951H28.7944L29.3609 60.5042L28.7944 60.5222H28.2188L27.6613 60.5042L28.2188 60.4951Z" fill="#DB1C41"/>
<path d="M183.555 125.088H184.131L184.697 125.097L184.131 125.115H183.555L182.998 125.097L183.555 125.088Z" fill="#DB1C41"/>
<path d="M180.12 120.774H180.704L181.262 120.792L180.704 120.81H180.12L179.562 120.792L180.12 120.774Z" fill="#DB1C41"/>
<path d="M11.0511 82.8807H11.6356L12.1932 82.8988L11.6356 82.9078H11.0511L10.4935 82.8988L11.0511 82.8807Z" fill="#DB1C41"/>
<path d="M10.9162 115.204L10.9252 115.764V116.342L10.9162 116.91L10.8982 116.342V115.764L10.9162 115.204Z" fill="#DB1C41"/>
<path d="M178.267 113.48L178.276 114.04V114.627L178.267 115.186L178.249 114.627V114.04L178.267 113.48Z" fill="#DB1C41"/>
<path d="M9.19857 110.899L9.21655 111.458V112.036L9.19857 112.605L9.18958 112.036V111.458L9.19857 110.899Z" fill="#DB1C41"/>
<path d="M15.1789 110.032L15.2059 110.601V111.179L15.1879 111.738L15.1519 111.179L15.1429 110.592L15.1789 110.032Z" fill="#DB1C41"/>
<path d="M11.9774 103.551H12.6429L13.2814 103.569L12.6429 103.578H11.9774L11.3479 103.569L11.9774 103.551Z" fill="#DB1C41"/>
<path d="M8.34416 105.727L8.35315 106.295V106.873L8.34416 107.433L8.32617 106.873V106.295L8.34416 105.727Z" fill="#DB1C41"/>
<path d="M6.6263 104.86L6.20032 105.288L6.62645 105.715L7.05243 105.287L6.6263 104.86Z" fill="#DB1C41"/>
<path d="M190.265 103.985L189.839 104.413L190.265 104.84L190.691 104.413L190.265 103.985Z" fill="#DB1C41"/>
<path d="M10.0604 88.4866L9.6344 88.9143L10.0605 89.3419L10.4865 88.9142L10.0604 88.4866Z" fill="#DB1C41"/>
<path d="M11.7777 86.7705L11.3517 87.1982L11.7778 87.6258L12.2038 87.1981L11.7777 86.7705Z" fill="#DB1C41"/>
<path d="M183.409 119.485L182.983 119.913L183.409 120.341L183.835 119.913L183.409 119.485Z" fill="#DB1C41"/>
<path d="M11.7829 122.936L11.3569 123.363L11.7831 123.791L12.209 123.363L11.7829 122.936Z" fill="#DB1C41"/>
<path d="M22.0765 126.46C22.3944 126.46 22.6521 126.202 22.6521 125.883C22.6521 125.564 22.3944 125.305 22.0765 125.305C21.7587 125.305 21.501 125.564 21.501 125.883C21.501 126.202 21.7587 126.46 22.0765 126.46Z" fill="#DB1C41"/>
<path d="M1.48201 133.267L1.05603 133.695L1.48217 134.122L1.90815 133.695L1.48201 133.267Z" fill="#DB1C41"/>
<path d="M65.8339 41.1231L65.408 41.5508L65.8341 41.9784L66.2601 41.5507L65.8339 41.1231Z" fill="#DB1C41"/>
<path d="M3.19515 136.721L2.76917 137.149L3.19529 137.577L3.62127 137.149L3.19515 136.721Z" fill="#DB1C41"/>
<path d="M91.5875 39.3979L91.1615 39.8256L91.5876 40.2532L92.0136 39.8255L91.5875 39.3979Z" fill="#DB1C41"/>
<path d="M89.8687 37.6743L89.4427 38.102L89.8689 38.5296L90.2949 38.1018L89.8687 37.6743Z" fill="#DB1C41"/>
<path d="M49.5367 37.6827L49.1107 38.1104L49.5368 38.5379L49.9628 38.1102L49.5367 37.6827Z" fill="#DB1C41"/>
<path d="M181.693 148.763L181.267 149.191L181.693 149.618L182.119 149.19L181.693 148.763Z" fill="#DB1C41"/>
<path d="M24.6496 159.971L24.2236 160.399L24.6498 160.826L25.0757 160.399L24.6496 159.971Z" fill="#DB1C41"/>
<path d="M27.2176 164.277L26.7916 164.704L27.2178 165.132L27.6437 164.704L27.2176 164.277Z" fill="#DB1C41"/>
<path d="M137.073 190.113L136.647 190.54L137.073 190.968L137.499 190.54L137.073 190.113Z" fill="#DB1C41"/>
</g>
<defs>
<clipPath id="clip0_14_1443">
<rect width="228" height="238" fill="white" transform="translate(-21)"/>
</clipPath>
</defs>
</svg>
