<svg xmlns="http://www.w3.org/2000/svg" width="262" height="283" fill="none" viewBox="0 0 262 283"><g fill="#149A76" clip-path="url(#a)"><path d="M122.672 5.98c-4.574.41-3.133 5.524-5.836 2.48l2.99-4.605c.429-.66 1.718-2.034 2.3-2.543l1.369-1.196c.403-.357 2.005.17 1.978.705-.027.536-.304 1.66-.617 2.106l-2.175 3.052zm8.834 4.257c.635-.482 3.043-.375 3.168.285.161.83.045 2.392-.447 3.08-.394.553-2.131.338-2.73.017-.752-.402-.68-2.865 0-3.391zM28.095 68.809c-.072.348-1.772.259-1.835-.098l-.68-3.829c-.099-.535.76-1.767 1.298-1.946.724-.232 2.183 1.187 2.031 1.92zM50.48 12.976c.465-.589 3.024-1 3.338-.401.394.74.716 2.169.215 2.838-.403.535-1.737 1.044-2.408 1.035-.841-.009-1.674-2.802-1.137-3.472zm113.542-2.9c1.244-.063 2.506.339 2.819 1.044s-.018 3.168-.796 3.008l-2.972-.598c-.761-.152.188-3.418.949-3.454m-54.534 150.612-4.35-3.159c.099-.331 1.799-2.499 2.265-1.937l2.39 2.847c.161.196-.036.991-.305 2.249M10.275 44.177c.957-.116 2.363.277 2.694.848.331.57-.26 2.722-.913 2.597l-2.31-.446c-.644-.125-.142-2.919.529-3m13.631 2.544c.958.027 2.175.447 2.533 1s-.143 2.642-.797 2.517l-2.372-.464c-.653-.125-.044-3.08.636-3.053m227.22 21.518c.026-.536 2.917-1.339 2.971-.812l.269 2.65c.053.527-1.325.902-1.862.857-.716-.062-1.423-1.776-1.378-2.695m-99.384 91.45-3.124-2.847c-.384-.348 1.146-2.249 1.531-1.936l2.81 2.293-1.208 2.49zM214.403 9.523c.581-.482 2.309-.804 2.694-.402.519.527 1.083 2.169.42 2.49l-1.996.964c-.671.321-1.682-2.58-1.118-3.052M183.659 6.73c.626-.153 2.013 0 2.363.436.465.59.456 2.687-.278 2.669l-2.524-.071c-.752-.018-.304-2.847.439-3.026zm-41.861 156.814c.305-.446 2.336-.759 2.703-.357.484.526.985 2.079.349 2.392l-1.933.937c-.644.312-1.566-2.303-1.119-2.972M37.099 35.047c-.448.34-2.703.027-2.676-.518l.125-2.374c.027-.57 2.005-.348 2.461-.026.609.428.68 2.472.09 2.927zm204.7 44.338c.152.606-1.611.874-1.745.187l-.779-3.784c-.107-.5.806-1.428 1.2-1.669l1.324 5.257zM89.556 12.44c.188-.481 2.676-.356 2.613.17l-.25 2.151c-.063.527-1.79.152-2.21-.17-.422-.32-.449-1.374-.144-2.15zm25.043-10.628c.492-.304 1.978-.34 2.237.116.26.455.394 1.883-.116 2.026l-1.853.517c-.501.143-.716-2.383-.268-2.66m22.868 3.499c.116-.401 2.264-1.294 2.345-.883l.456 2.249c.081.401-1.092.847-1.504.892-.617.071-1.476-1.66-1.306-2.258zm117.955 90.37c.393-.508 2.676-1.017 2.542-.499l-.546 2.115c-.179.688-2.435-1.044-1.996-1.615M18.625 41.973c.618-.447 2.623-.697 2.498-.143l-.466 2.044c-.161.696-2.613-1.473-2.032-1.902m161.382-30.084-.394 1.82c-.098.455-1.906-.089-1.835-.544l.332-1.981c.071-.411 1.995.276 1.897.705m-30.073-2.062c-.376 1.49-1.987 1.972-2.237.589l.59-2.57c.081-.357.806.607 1.647 1.981m99.58 121.036c.144-.312 2.023-.527 2.041-.179l.072 1.812c.018.527-1.325.705-1.781.455-.457-.25-.546-1.615-.332-2.088M192.985 17.394c.492-.41 2.577-.732 2.416-.259l-.608 1.776c-.215.634-2.318-1.088-1.808-1.517m41.001 138.243c.313-.179 1.423.035 1.647.321.331.428.313 1.919-.233 1.928h-1.754c-.546 0-.126-1.982.349-2.249zm-168.954-3.856c-.94 1.446-2.13-2.481-1.27-2.463l1.736.027c.537.009-.027 1.767-.466 2.436m87.677 8.264c.232-.473 2.765-.419 2.577.072l-.698 1.803c-.286.74-2.372-.893-1.879-1.866zm-85.305 13.102c.412-.411 2.596-.643 2.435-.179l-.609 1.776c-.215.634-2.3-1.115-1.826-1.597m4.314 8.862c.286-.188 1.352.169 1.495.482.206.473.313 1.794-.197 1.785l-1.7-.027c-.52 0-.028-1.963.411-2.249zM237.423 8.916c.51-.375 2.586-.696 2.416-.232l-.653 1.74c-.233.616-2.3-1.107-1.754-1.508zm-36.839 8.621c1.109-.518 2.649-.776 2.497-.303l-.591 1.82c-.206.643-2.515-1.231-1.906-1.517m25.069 5.587c.063-.5 2.426-.795 2.291-.304l-.554 2c-.179.642-1.826-.947-1.737-1.696m33.707 83.632c.895-.598 2.774-.865 2.631-.383l-.546 1.811c-.197.652-2.622-1.062-2.085-1.428m-26.126-66.488c-.17.428-2.229-1.535-1.808-1.723l2.157-.937c.501-.223 0 1.768-.349 2.66m-1.226 18.09-1.844 1.75-1.844-2.16c-.223-.26.779-.92 1.101-.768l2.578 1.178zM62.124 152.21c.438-.197 2.416.687 2.058 1.008l-1.396 1.258c-.474.429-1.244-1.999-.663-2.266M23.226 54.02c.188 1.982-2.13 1.991-1.933 0 .071-.749 1.861-.749 1.933 0m85.251 110.47c.17-.464 2.488-.616 2.354-.143l-.511 1.83c-.179.651-2.067-1.071-1.843-1.687m-45.065 12.075-.107-3.579 1.718 1.58c.35.321-.689 1.276-1.61 1.999m94.21-162.161c.367 2.303.474 2.82.116 2.9s-1.513.01-1.396-.338l.555-1.66c.725-.91 1.253-1.562.725-.91zm-30.029-6.675c.018-.313 1.459-.563 1.656-.322.296.366.654 1.134.296 1.437l-1.021.866c-.349.294-.957-1.517-.931-1.981m-23.422-.518c.295.678-2.497.732-2.533-.018s2.13-.928 2.533.018M9.281 130.103c.26-.187 1.477.036 1.593.339.188.447.296 1.821-.187 1.767l-1.549-.178c-.483-.054-.26-1.642.143-1.928M2.542 82.17c.286.66-2.524.704-2.542-.01-.027-.857 2.094-1.026 2.542.01M232.67 64.052c.287.375-.456.83-1.432 1.026-1.745-2.052.985-1.606 1.432-1.026M53.003 157.1a.947.947 0 1 0 0-1.892.947.947 0 1 0 0 1.892m180.222-83.445a.95.95 0 0 0 .949-.946.95.95 0 0 0-.949-.946.95.95 0 0 0-.949.946c0 .522.425.946.949.946m-175.952 78.34a.947.947 0 1 0 0-1.892.947.947 0 1 0 0 1.892m177.662-74.931a.947.947 0 1 0 0-1.892.95.95 0 0 0-.949.946c0 .523.425.946.949.946m-219.773-.41c.957-.313 2.05-.59 1.942-.232l-.448 1.499c-.107.357-.975-.571-1.494-1.267m63.511 113.467c-.09.313-1.253-.981-.985-1.169l1.692-1.196c.044-.134-.43 1.437-.707 2.365M18.84 129.853a.947.947 0 1 0 0-1.892.947.947 0 1 0 0 1.892m.85-65.569a.947.947 0 0 0 .95-.946.947.947 0 0 0-.95-.946.947.947 0 0 0-.948.946c0 .523.425.946.948.946M94.595 6.836c.958-.312 2.05-.589 1.942-.232l-.447 1.5c-.108.357-.976-.572-1.495-1.268m81.402 3.802a.95.95 0 0 0 .949-.946.948.948 0 0 0-1.897 0c0 .523.424.946.948.946m72.972 107.453c-.895 2.24-3.133 1.356-1.057-.518 1.182-1.49 1.799-1.392 1.057.518m-235.893.151-2.828-.838c.618-.536 2.247-.313 2.828.838m240.511-13.03c-.949.732-.609.473.233-.178zM7.796 99.608l-1.755 1.347.35-1.892c.071-.365 1.512.536 1.405.545M108.038 9.826c-1.11 1.178-1.468 1.553-.949 1.008zM15.323 89.737a2.75 2.75 0 0 1-1.611-1.606zm131.541 67.926c.054.062-.626-.643-1.315-1.348.035-.25.519.178 1.315 1.348M82.61 194.03h.573l.564.018-.564.018h-.572l-.555-.018zm-28.184-43.427H55l.564.018-.564.018h-.573l-.555-.018zm191.186-8.916.009.554v.58l-.009.553-.018-.553v-.58zM18.554 126.765h.573l.555.009-.555.018h-.573l-.555-.018zM8.306 113.138h.573l.555.017-.555.009h-.573l-.564-.009zm242.569-1.696h.573l.554.009-.554.018h-.573l-.555-.018zM7.312 107.631l.01.553v.572l-.01.562-.018-.562v-.572zm251.251-3.008h.573l.555.018-.555.009h-.573l-.564-.009zM8.306 102.071h.573l.555.018-.555.009h-.573l-.564-.009zm235.597-14.877.009.553v.571l-.009.562-.018-.562v-.571zm-4.27-2.553.009.553v.572l-.009.553-.018-.553v-.572zm-221.079.402h.573l.555.009-.555.018h-.573l-.555-.018zm217.66-5.516.009.554v.58l-.009.553-.017-.553v-.58zm8.682-9.817h.573l.555.018-.555.009h-.573l-.564-.009zM98.703 6.3l.009.554v.571l-.009.563-.018-.563v-.57zm152.875 68.946-.423.423.424.423.424-.423zm2.555 2.552-.424.423.425.423.424-.423zm-14.52 4.26-.424.423.424.423.424-.423zm-227.173 19.6-.423.423.424.423.424-.423zm1.702 8.515-.424.423.424.423.424-.423zm243.415-.02-.424.423.424.423.424-.423zm-239.998 8.528-.425.423.425.423.424-.423zm-2.562 12.771-.424.423.425.422.423-.422zm2.565 6.817-.424.423.424.423.424-.423zm233.172-.013-.424.423.424.423.424-.423zM60.27 148.478l-.424.423.425.422.423-.422zm-5.125 5.966-.424.423.424.423.424-.423zM74.529 23.641c.921-.517 3.445.625 3.67 1.544.259 1.08-.359 3.231-1.334 3.758-.842.446-2.99-.108-3.607-.813-.842-.963-.564-3.471 1.27-4.489m110.742-5.31c-.77 1.705-2.569 2.508-3.455 2.133-1.146-.473-2.023-3.454-1.128-4.14 1.011-.786 2.336-1.295 3.124-1.277.787.018 1.843 2.445 1.468 3.284zm-25.24 6.426c-1.074-.072-2.81-2.07-4.099-3.454.761-.928 3.473-2.668 4.663-2.392 1.656.375 1.02 5.962-.573 5.846zm9.765 6.881-2.739-1.196-1.101 2.044c-.241.455-1.136-.803-.931-1.285l1.862-4.356c.134-.321.806-1.33 1.074-1.124l1.898 1.428 2.362 1.874c.394.312-1.969 2.811-2.434 2.615zm-29.071 124.998c-.42.518-2.184 1.482-2.694 1.062s-1.217-1.472-1.414-2.106c-.25-.794 1.593-1.999 2.632-2.32.886-.277 4.117.125 3.562.812l-2.077 2.552zM32.445 41.339c.5-.732 3.732-.116 3.83.758.099.875-.035 2.223-.411 3.026s-2.873.625-3.554.045-.725-2.597.135-3.83m136.696-16.813c-.214-.018-.644-1.42-.411-1.5l4.045-1.463c.663-.241 2.139.696 2.417 1.312.277.616-.958 2.053-1.656 1.999l-4.395-.34zm-62.284-8.755c-.716.723-3.016 2.115-3.142 1.472l-.483-2.525c-.125-.652.805-2.57 1.45-2.481s1.879.535 2.434.883.197 2.196-.259 2.66zM93.933 25.801c-.045.259-.206.625-.457.803-.224.152-.922.232-1.181.143-.143-.687 1.53-.91 1.638-.946m129.572 50.371c.278-.607-.152-1.357-.224-1.981.349-1.58-1.611-8.327.054-4.91l2.936 6.025c.268.562-2.095.937-2.757.866z"/><path d="M223.281 74.19c-.134.59-.232 1.928.224 1.982.385.848 1.038 3.641 1.933 3.302 2.256-.84 1.047-2.963 5.326-4.373.349-.116 1.763 1.347 1.423 1.5l-2.667 1.177-.367 5.72c.528.286 3.374 1.277 4.6 1.322l2.094.08-1.53 1.865c-.179.214.251.982.528.955l1.423-.116a52 52 0 0 1 1.083-.09l-.304 2.964c-.09.857-2.748-.875-3.088-1.32l-2.077.73 1.352 4.892c-.653.562.653-.438.859-.723l1.289-1.83c.206-.294 2.238.134 2.112.473l-1.638 4.257c-.259.045 1.236-.214 1.719-.303.528-.098.859 1.919.94 2.436l3.257-2.91 2.533 4.775c.341.634 1.298 2.08.878 2.597l-1.441 1.785-1.441 1.785c-.421.518 3.213 2.749 2.586 3.347l-1.772 1.696.967 4.168c.232 1.017-.502 2.873-1.298 4.328l2.676 1.919-2.434 1.16-.126.616-.698 3.436c-.116.589-1.996.357-3.535.223l.232 1.294c.287.446 1.057 1.669 1.459 1.365l1.307-.972 1.352-1c.313-.232.053 1.383-.224 1.651-2.596 2.508-2.497 8.255-1.11 11.049.268.535.707 1.347.609 1.365l-1.325.241-4.225.741c-5.763 1.017-10.194-2.909-9.415-.25 1.235 4.213 7.088 2.303 5.719 4.105l-2.936.188.663 1.624c.42 1.035 1.235 3.534 1.199 4.712-.161 6.301-4.779 11.379-10.866 12.914-4.009 1.009-6.667 3.633-7.75 7.613-.967 3.534-3.33 6.087-7.707 5.81-6.936-.437-9.335-4.668-12.342-3.838l-1.996.554c-.456.125-.224-4.48-3.419-4.757-1.128-.098-3.07.205-3.598.83s-.34 2.668.179 3.445l4.395 6.568c2.506 3.749 2.577 7.434 1.253 11.665-1.119 3.587-1.065 8.675.385 12.262l5.191 12.816c3.553 8.773 2.685 15.725-5.478 20.223-1.915 1.053-3.472 3.945-2.049 5.944l5.907 8.291c3.222 4.534-1.039 10.959-.376 15.707l1.199 8.693c.278 2.017-1.512 4.061-3.437 4.114-3.741.116-7.258-1.597-7.527-5.435l-.635-9.041c-.233-3.248-.555-6.211-1.343-9.37-2.041-8.131.877-11.826-1.584-15.333-4.815-6.881 1.835-10.959-4.287-17.376-3.545-3.713 1.387-9.594-3.661-17.528-1.333-2.089-1.96-5.712-1.342-8.238 2.157-8.826 1.736-16.84.68-25.854l-2.005-17.011c-.331-2.838-8.655-.723-8.691-.847l-.787-2.74c.823-.304-.063.026-.985.357l-3.598 4.239.43-7.64c2.13.697.071.027-.609-.196l-4.573-.384c-.287.946-.439 1.464-.323 1.08l2.784.661c.546.125 1.128 1.133 1.342 1.66.144.357-1.288.419-1.682.33l-4.252-.973.511-3.427c.143-.937-1.11-2.954-1.647-3.731l-3.285.634c-.653.125-1.53-1.981-2.094-2.329-.913-.562-3.983.981-3.464 1.919l.922 1.651c.125.232-.582 1.008-.815 1.151l-3.213 1.91c-1.557.928-2.031 5.292-1.942 7.104l.277 5.845.206 8.265c.188 7.577.09 15.287-4.215 21.419-.537.767-2.247 1.749-3.025 1.57-3.652-.838-3.616-8.246-4.126-13.601l-1.656-17.501-2.542-2.24c-.627-.553.779-3.284.447-4.203-1.512-4.204-4.278-11.228-8.234-14.11l-3.553-2.597c-.322-.232-1.119.589-1.02.981l.376 1.526c.134.536-1.817 1.223-1.934.679l-.456-2.017c-.072-.322-.842-1.071-1.226-1.339l-.77 10.228-.618 8.246c-.018.286 1.513.634 1.441.58-.17.17-.984 3.017-.608 3.981l4.913 12.646 4.1 9.924c1.521 3.677 1.083 8.086.196 12.03-1.467 6.506 2.533 8.809-.384 15.806-2.632 6.318-2.086 14.128-8.261 15.529-6.176 1.401-10.893-3.775-11.197-9.764-.188-3.65-.08-8.148-1.164-11.379-1.584-4.721-3.123-8.612-3.472-13.672l1.584-28.559-.394-2.124c-.072-.402-.868.526-.877.919l-.036 2.927c-.009.759-3.115.161-3.07-.589.045-.749.537-2.043 1.074-2.588l3.49-3.489c.582-.58.654-2.499.6-4.016l-1.95 2.588-1.11 1.463c-1.137 1.509-.61-2.481-3.088-4.096l-3.974-2.597 2.918-5.025c.322-.553 1.288-1.678 1.691-1.41l1.781 1.187 3.195 2.124.412-1.463-3.016-2.24c-.77-.572.832-3.097 1.36-3.909l.788-1.205c.152-.232-.582-.911-.814-1.08l-1.29-.955c-.241-.179-.706.303-.689.625l.18 2.873c.035.643-1.835 1.634-2.668 1.714-4.376.446-5.46-7.399-7.67-3.204l6.892 4.766-3.25 4.176-1.637-3.248c-1.074-.223-2.837-.598-3.544-.964l-6.122-3.141c.035.142-.224-.866-.367-1.393l-2.22-2.847c-.161-.205-.993.206-.958.464l.18 1.187c.053.375-1.075 1.161-1.155.795-.215-.92-.627-2.615-.618-2.58l-2.47 1.464c-.868.518-2.65.794-3.464.83s-2.094-1.472-2.685-2.16c-.25-.294-1.03.563-.886.911l.385.91c.447.036.59.054.671.196l.976 1.714c.232.401-1.835-1.134-1.585-1.009l-.581-.41-3.294 3.123-4.824 3.731c-4.18 3.231.975 8.211 1.512 12.619l1.719 14.048c.385 3.141.125 6.292-1.119 9.094-3.356 7.532 6.337 7.907 7.34 12.539.411 1.892-.287 4.846-1.46 6.131-4.51 4.98.412 8.184-.358 13.432-.402 2.731-4.18 4.426-6.632 4.221-1.244-.098-2.98-.678-3.249-1.517-.859-2.651.654-4.32-.17-8.594-1.127-5.801 3.572-8.095-1.78-13.664-2.31-2.401-4.87-5.988-4.86-9.487l.07-16.769-1.02-9.291-.438-19.955c-1.889 4.774-3.902 10.138-3.947 15.502l-.134 18.911c-.054 6.792 4.734 7.461 3.007 12.994-2.443 7.827 1.513 10.023-.653 13.682s-1.379 6.622-.126 10.326c2.229 6.586-1.423 11.807 2.721 20.267 2.247 4.597 3.15 8.898-.277 11.656-.949.767-4.153 1.374-5.156.669-3.311-2.329-1.494-7.247-2.64-10.406-.913-2.517-3.168-7.032-2.712-9.513 1.038-5.623.143-8.425-3.123-12.897-1.835-2.516-1.952-7.916-1.522-11.289l2.184-17.082c.51-3.962-.439-8.104-1.987-11.745-2.82-6.622 1.038-10.754-2.157-19.161-1.11-2.927-.09-4.855 1.45-7.488s2.676-6.309 3.392-9.379l1.602-6.864.994-4.846c.107-.517-1.782-1.187-2.337-1.338l1.352-2.08-2.864.598c-.331.072-1.173 0-1.486-.071-.125-.027-.268-.223-.465-.446l.304-.929.994.509 2.13-.964-3.804-2.508 1.799-1.838-1.083-1.009-2.855 1.678-.6-2.472c-.206-.83-.268-2.454-.242-3.4l1.307 3.052c.25.598 1.468-.669 1.289-1.285l-1.325-4.632c-.85-2.963-2.774-1.499-2.103-2.642l2.73-1.463-.063-2.731 4.028-1.375-1.835-3.49c1.53-1.186 3.49-1.847 5.88-1.534l2.945-2.776-4.01.857c-.358.277-.456.384-.608.42l-3.383.794-3.16.75 2.443-2.437-4.475 1.785c-.071.054.045-1.919.358-2.097l3.33-1.901-.725-3.088c1.262-.99 2.166-2.142 2.067-4.159-.062-1.365 2.059-1.892 1.808-.446-.188 1.062-.304 1.776-.304 1.758s1.128.517 1.325.687l3.141 2.91c1.217 1.124 6.596.365 8.897-3.178.268-.42.241-1.633.367-2.124l.107-.428-1.897-1.205 4.931-.589-1.1-4.489c1.601-.205 4.269 2.936 3.91 1.508-.116-.464-.017-2.66.466-2.65 3.32.08 5.102 4.667 3.723 4.542-.394-.035-1.494-.214-1.817-.455l-1.996-1.49.52 3.025-4.413 2.767 3.67-.973c2.005-.527 3.947-.866 5.674-.99l.698-2.848c.09-.348.734 1.107.94 1.401l.832 1.188c.188.267 1.334-.991 1.236-1.268l-1.683-4.837 3.052.92.823-.447.51-3.007-3.257 1.91-1.513-3.026c-.161-.33.027-1.178.045-1.544s1.226.848 1.494 1.133c1.039 1.125 1.656-1.945 4.735-1.508l-.027-1.008-5.379.071-5.979.08c.036-.116-.787 2.696-1.083 3.722l3.509.794c.403.09.617 1.366.644 1.75.161 1.98-2.855-1.375-5.19-1.072l-2.381.313.384-2.677-5.97-3.597 2.668-4.605c.224-.384-1.173-.875-1.352-.643l-1.414 1.732c-.358.446-1.656-1.25-1.253-1.66l1.781-1.785c-4.045 1.811-8.279-.66-10.66-4.079-.492-.705 1.236-2.624 1.996-3.079l4.637-2.784 1.906-1.571c.403-.33 1.343.901 1.683 1.294l.975 1.142c.278.33 1.549-.321 1.907-.633l5.942-5.212c.502-.438 2.515 1.33 2.9 1.874l1.567 2.231c.456.651-1.665 1.9-2.47 2.24-.35.152.823 1.214 1.118.964l1.432-1.214 3.903-3.061c.393-.312 2.604 2.249 2.157 2.58l-4.252 3.114c-.492-.607.331.401.671.821l1.083 1.339c.806 1-2.864 2.561-2.828 2.713l.474 2.499c.278 1.454 1.835 4.132 2.883 5.131.187.179 1.467-.339 1.387-.589l-.412-1.285c-.143-.455-.224-2.106.26-2.178l2.622-.41c-.09.366-.009.045.474-1.856l-1.405.187-2.407.321c-.555.072-1.253-1.794-.815-2.133l2.318-1.793c.985.696.18.124-.635-.456-1.495-.089-2.05-1.106-.161-1.419l6.435-4.462 4.538-3.15c.626-.438 2.148-1.223 2.846-1.321.877-.116 2.166.848 3.616 1.838l5.71-5.078c.331-.294-1.038-1.892-1.298-1.57l-1.78 2.222c-.556.687-3.268.535-4.118 0-2.65-1.67.949-5.89-4.932-9.327L66.33 42l1.244 2.722c.242.536-4.412 3.07-6.256 1.17-.617-.634-.116-2.321.609-3.686-2.954 1.347-5.657 2.052-5.854 2.24l-5.298 4.819-3.42-3.249c-.33-.312-.483-1.669-.044-1.722.438-.054 1.897-.045 2.202.277l2.345 2.463c-.51-2.142.662-6.453 2.542-6.364l5.611.268-1.915-5.006c-.269-.697-.59-1.937-.492-2.57.34-2.178 4.842-.625 4.582-2.758l-.528-4.302c-.08-.643.233-2.124.448-2.731.277-.759 3.177-.205 3.06.589l-.429 2.936-.716 4.89c3.517 1.018 6.963-1.927 7.089.072l.17 2.767c.053.937 2.246 1.58 3.302 1.446l7.026-.92c1.915-.25 3.885-1.892 4.547-3.507l.707-1.74c.125-.304.877.071 1.96.553l1.19-.883c.027-1.241 0-1.776.045-1.705s-.787-.696-1.056-.928c-.268-.232.09-1.339.492-1.276.85.124 2.184.66 2.74.847l.814 2.82c-.287.072.77-.196 1.19-.312l2.533-4.096-2.9.642c.152-.937 1.638-3.141 2.354-2.472 1.1 1.035 2.345 2.383 3.347 2.624 1.352.33 3.178-1.776 2.918-2.91l-.465-.678-4.234-.205-1.996-.098c-.456-.027.17-1.517.609-1.651l1.154-.366 3.223-.473c.707-.107 1.933 2.026 1.834 2.294l.394.937 3.231-.33c1.226-.125 3.92.696 5.12 1.285 1.7.839-.251-4.391.232-4.695l2.507-1.57c-.099 1.776.349 5.22 1.781 5.283l4.421.196c.054-.107.841-1.713.591-2.106l-1.853-2.874.77-1.847c-.618-1.598-1.128-3.338-1.226-4.507-.126-1.526 4.278 6.381 10.14 4.23.698-.259 1.2 2.374 1.262 3.168l.824-1.356 1.306-2.133c.296-.482 2.122.143 2.641.393.984.49-2.381 1.08-2.157 2.704l5.952.053.599 2.731 2.658.75-1.163-2c-.197-.338.653-1.186 1.029-1.115l4.61.902c.447.089.877 1.803.429 1.99l-2.989 1.178c-1.083.428-.958 4.203.206 3.962l2.694-.562-.663-3.49 3.043 1.429c.439.205 1.71 1.481 1.316 1.749l-2.023 1.356c-.322.215-.107 1.732.108 1.5 4.394-1.705 1.199-8.202 5.003-4.641l.725 6.417c.036.294.465.562.662.535l4.735-.66.85-1.517-4.198-.161c-.358-.018-1.109-.696-1.029-1.08s.698-1.053 1.092-1.07l4.475-.277c.582-.036 2.13 1.026 1.996 1.615l-.707 3.016c-.322 1.357 2.989 3.061 4.341 2.945.635-.053 2.336-1.936 2.846-1.552l2.775 2.079 3.419 2.213.76-.606-2.264-3.517c-.394-.616-.922-2.213-.465-2.749l1.45-1.695c.349-.41 1.011-1.973 1.002-1.92 3.679.483 5.397-3.167 6.194-2.159l1.118 1.401c.528.66 2.524.946 3.249.295l6.158-5.596 3.616 4.114c.564.643-1.101 2.044-2.157 2.606-.17 0 1.002 1.187 1.325.92l4.26-3.544-.134-.473-3.804-3.498c-.34-.312 1.127-2.026 1.459-1.75l2.577 2.134c.224.178.877 1.142.779 1.419l-.537 1.446.412.32 2.13 1.438c.546.366-.788 1.918-1.477 2.579l1.611 1.874 6.614-4.194 3.187 1.133-.367-2.785c-.063-.446 1.226-1.427 1.664-1.552.69-.197 2.426.508 2.596 1.204.653 2.705-3.419 2.107-3.679 4.579-.143 1.365-2.157 4.007-3.32 3.659-.779-.223-1.164-2.535-1.316-3.329-.116-.616-2.246.464-2.103 1.07.107.456.734 1.848.456 2.232l-2.363 3.32c-.447.625-2.058 1.214-2.783.964-.546-.187-1.235-1.856-.779-2.196l1.951-1.49c.484-.375 1.146-.857.421-.312-1.441-.08-1.772.053-1.924-.286l-.636-1.348-.769-1.642c-.162-.348-1.558.625-1.218.804.627.33 2.444 2.347 1.844 2.722l-2.945 1.883 1.764 6.095c.25.866-.663 3.936-1.567 3.66l-4.018-1.25-1.432 5.131 3.678-.401c.394-.045.833 2.115.439 2.186l-1.405.286c-3.554.723-3.912 7.22-1.298 11.673l.062-4.65 2.865 1.26c.59.258-.493 2.614-.618 2.801l4.216.438-1.334 1.919 3.857 3.989.162-2.874-.627-.634-1.253-1.276 4.484-2.91 1.423 1.384c.278.268.412.428.618.464l4.045.74-.277 3.401-1.907-.473-2.362-3.23-.502-.456-3.804 2 .52.678c2.443 4.623 11.116 1.178 9.245 4.551-.77 1.392 2.318 5.24 3.679 4.498.823-.446 1.163-2.838.814-3.052-1.074 1.669-2.336 1.785-2.524.473.94-.714 1.942-1.401 1.62-1.651l-1.575-1.267-1.862-1.5c-.295-.232.833-1.526 1.182-1.356l3.428 1.695c.725.358 1.924 1.553 2.354 2.196.349.518-1.039 2.561-.519 2.9l4.43 2.32zm-96.528-49.022 1.271-5.32-3.356-1.677zm10.794-5.06-1.342.187-.188 2.4 1.539-2.579zM123.8 25.024l-1.611-1.607c.277.741.868 1.33 1.611 1.607m9.066-1.705-.429.428.429.429.43-.429zm60.566.66c-.25-.214-1.521-1.053-1.655-.705l-.69 1.848 1.665 1.695zm-8.601 10.826 1.924 1.83c.475-.018 2.954-.768 3.402-1.571l2.577-4.596-1.835-1.66c-.116-.027-1.611-.036-1.512.258.286.83.886 2.223.635 2.598l-2.246 3.32c-2.587-1.384-3.813-2.473-4.753-5.721l-4.538.321 6.337 5.23zM161.05 33.54l-.429.428.429.428.43-.428zm-74.304 1.704-.43.429.43.428.43-.428zM176.9 38.26l.895 3.837 3.33-3.052.25-1.178 1.808-1.678c.752 1.16.224.348-.34-.526l-5.459 1.91c-.162.053-.242.178-.493.696zm-.394-1.374-.572.464.546.49.367-.5a1.9 1.9 0 0 1-.332-.446zm17.462 1.222c-1.163-.892-1.826-1.463-2.058-1.222l-1.217 1.249c-.242.25.537.544 1.673 1.07-.188.135.161-.115 1.602-1.097M79.729 41.16l.197-2.329c-.063.705-.197 2.356-.197 2.33m105.729-1.07c.322-.268-.958-1.59-1.307-1.375-.376.232-1.378.955-1.289 1.285l.34 1.267c.09.33 1.817-.812 2.247-1.178zm4.86.82-3.079.697c-.591.133 1.298 1.544 1.763 1.927l1.548 1.268-.223-3.892zm-1.477 6.828c.286-.848.662-1.946.438-1.276l-4.591-2.794c-.492-.294-1.96-.83-2.005-.321l-.224 2.552c-.814-.062 0 0 .913.072.555-.232 1.934-.741 2.175-.33l1.558 2.686c-.555.187.375-.125 1.736-.59m-124.3-3.98-.43.428.43.428.429-.428zM43.56 51.28c1.217-.473.841-2.642-.394-3.133-.474.215-.465 3.472.394 3.133m136.034-3.436c-.018-.098.152.732.233 1.089zm1.271.767-.841 1.241.519 2.311c.098.429 1.647-.25 1.718-.669l.224-1.24 1.558-1.268-3.196-.375zm10.302.991c.107-.428-1.217-.464-1.611-.294s-.931 1.249-.618 1.544l1.307 1.213c.242.223.689-1.58.922-2.463M67.324 54.271l1.181-1.562c.224-.295-1.387-.464-1.656-.197l-1.906 1.901c.617.527 1.334 1.125 1.334 1.232 0 .143.698-.937 1.038-1.374zm11.733-2-.43.429.43.428.43-.428zm-45.825 5.284.099-3.561-2.64 1.205 2.532 2.365zm8.673 1.91 1.826-4.043-1.584-1.446c-1.647-1.508.393 3.882-3.446 5.525l3.893 4.792 2.068-.527c1.468-.374-3.867-1.838-2.748-4.292zm143.06-5.489-.429.428.429.429.43-.428zm-123.45 4.302-4.493-3.615 2.22 4.347 2.282-.732zm1.638-1.339c-.6-2.767-1.844-2.258-1.665.036zm124.668-.259c1.029-.794 1.297-1 .232-.178-.841.651-1.172.91-.232.178m-150.57 2.847-1.808-2.276-.412 2.267c-.098.563 2.578.456 2.22.01m150.274-.446-.429.428.429.429.43-.429zM61.3 62.874l-1.88-1.455c-.277-.214-1.082.875-1.297 1.277-.42.803 3.92.75 3.177.178m129.644-1.232-.429.429.429.428.43-.428zM56.852 64.195l-.43.428.43.429.43-.429zM42.29 70.558l.098-4.57-4.251.947 4.162 3.632zm2.604-4.659-.43.429.43.428.43-.428zm164.389 4.757c.269-.009 1.119-2.276.492-.83l-4.448-1.811c-.018-.714-.77 2.864-.054 2.838l4.01-.188zm-154.14.348-.43.429.43.428.429-.428zm-.869 5.132-.492.393 1.915.258c.43.054-1.548-.714-1.423-.651m1.719 3.382-.43.429.43.428.43-.428zm-18.706 3.24-.546.607 1.36 1.223c.09-.018.958-1.143.582-1.285l-1.387-.545zm189.565 2.338c.018.697 0 .197-.017-.437zm.824.366-.6.893.501 2.802 1.334-1.981 1.065-1.58-2.291-.125zM24.971 92.736l-.376-3.668c-.036-.366-1.54-.696-1.763-.66l1.495 4.747.635-.41zm6.256-2.142-.43.428.43.429.43-.429zm-7.375 7.71c.707-.767.994-1.08.367-.4-1.02 1.097-1.208 1.311-.367.4m-3.732 4.008-.752.616.752.428.43-.428zm222.073 13.824-.429.429.429.428.43-.428zm.358 7.274-2.39-1.303.135 5.274.859-1.633 1.056-2.017zm-145.092 3.57-5.683-1.268c.268-.321-1.656 1.08-1.271 1.33.465.295 1.745 1.053 2.139.973l4.806-1.044zm-10.58 3.195-.554.018.555.017h.573l.555-.017-.555-.018zm51.107-.411-.018.553v.572l.018.553.018-.553v-.572zM84.41 136.69c.33-.215-.17-1.705-.51-1.66l-3.697.464-1.289.169s.152 1.187.188 1.517c.072.679 1.915 1.714 2.488 1.339zm20.791.731a.949.949 0 0 0-1.897 0c0 .518.429.946.948.946a.954.954 0 0 0 .949-.946m-30.977 1.009c1.03-.794 1.298-1 .233-.179-.841.652-1.172.911-.233.179m-1.584 1.035c-1.557-.223-2.631-.375-2.55-.009l.304 1.303zm33.751-.339-.429.428.429.429.43-.429zm-18.697 18.197c-.062-2.597-.653-3.739-1.521-4.435l-3.473 1.098 5.003 3.346zm76.91-3.311-.555.018.555.018h.572l.555-.018-.555-.018zm2.425-.41-.429.428.429.429.43-.429zm-76.104 2.115c.018-.205-1.512-1.187-1.512-.946v1.963c.018.206 1.495-.803 1.512-1.017"/><path d="m73.428 154.03-.457 1.428c-.098.304-.689.687-.975.812-1.048.473-2.533-5.149-.68-6.729.402-.348 2.3.678 2.273 1.214zM216.837 53.637c-1.056 2.365-2.407 3.704-2.936 3.106-.465-.527-1.226-1.758-1.423-2.446l-.465-1.65c-.116-.42 1.056-1.286 1.432-1.054l3.392 2.035zm-13.998-2.187c.555.143 1.163 2.687.617 2.838l-2.192.607c-.725.197-1.531-1.33-1.934-2.222-.152-.33.305-2.026.645-1.945l2.864.714zm-58.347 101.527-2.658-3.659c-.215-.295 1.557-1.937 1.96-1.731 1.056.553 2.104 3.052 1.925 4.203-.081.518-.144.875-.126.768l1.307-.304c.51-.116 1.065.518 1.163 1.035.063.34-.483 1.616-.796 1.455l-1.915-.982c-.179-.089-.734-.615-.86-.785M81.966 16.966c.376-.536 3.187-.598 3.07-.313.877.741 1.02 2.07.25 3.035l-2.738.598c-.814.178-1.208-2.428-.582-3.311zm131.998 31.763-5.307-3.24 1.879-2.097c.376-.42 2.077.865 2.247 1.419zm-153.299.741-2.453-.349c-.59-.589-1.029-.955-1.11-1.187l-.563-1.544c.062-.16.447-.955.644-1.053.492-.24 2.828-.25 2.909.286l.564 3.837zm21.194-15.298-1.155-.874-1.235-1.151c-.286-.268-.492-1.723-.098-1.768l2.622-.25c.286-.026 1.96.26 1.495.197l-1.638 3.846zm132.463 29.639c-.224.214-1.656-.116-1.548-.366l1.503-3.677c.144-.339 2.238-.232 2.328.125.134.536.205 1.535-.188 1.91zm-8.467-43.266c.439-.429 2.336-.741 2.712-.349.51.518 1.047 2.098.403 2.41l-2.014.99c-.653.322-1.638-2.534-1.11-3.052zm-18.375 2.168c-.438.902-1.351 2.338-1.763 2.178l-1.656-.652c-.537-.214.278-1.936.698-2.356l1.254-1.25c.393-.392 1.718 1.563 1.467 2.071zm-97.27-.08c.07-.063-1.084.91-1.728 1.446-.501.42-1.719-2.035-1.065-2.08l4.806-.285c.304-.018 1.101-.536 1.378-.705.278-.17.394.892.466 1.535l-2.13 2.24c-.314.33-.94-.812-1.719-2.151zM77.733 31.62c.25.598-.654 2.427-1.262 2.436-.815.018-2.399-1.356-2.345-2.222.045-.75 3.311-.91 3.607-.214m75.164-12.851c.331-.429 2.399-.643 2.586-.134.188.508.269 2.052-.25 2.222l-1.844.598c-.519.17-.832-2.25-.492-2.678zm10.4 6.051c.617-.34 1.906-.402 2.3 0 .394.401.671 2.284.116 2.373l-2.148.375c-.554.098-.751-2.49-.268-2.758zM204.468 40l-1.781.973c-.457.25-1.844-.785-1.468-1.142l1.674-1.625c.286-.276 1.387-.473 1.799-.508.608-.054.295 2.026-.215 2.302zM35.398 73.851c-.385.357-1.79-2.08-1.325-2.338l2.104-1.178c.34-.196 1.44.875 1.226 1.214-.322.5-1.28 1.642-2.005 2.311zm-6.346 11.263c-.492.063-1.467-.553-1.736-.973s.313-2.213.824-2.097l1.95.455c.573.134-.456 2.535-1.038 2.615m93.996-75.163c.438-.303 2.032-.027 2.22.473.187.5.331 1.937-.206 1.946l-2.426.026c-.537 0-.027-2.133.412-2.436zM56.261 28.38c.26-.58 3.052.536 2.587.955l-1.835 1.66c-.465.42-1.226-1.553-.752-2.615m-8.404 7.533c-.054-.384 2.157-1.187 2.237-.812l.448 2.168c.08.375-1.047.705-1.441.696-.582-.018-1.11-1.106-1.244-2.043zM37.842 48.729c-.358.16-1.97.107-2.041-.26-.108-.553.349-2.284.904-2.195l2.238.357c.456.072-.68 1.91-1.101 2.106zm203.152 45.319c.403.259-1.092 1.5-1.853 1.927l-.877-3.685 2.721 1.767zm-78.261 68.211c-.251.142-2.076.562-2.175.018-.089-.482.116-2.035.51-2.035.591 0 1.611.303 1.925.803l.725 1.151.993 1.607c.161.258-1.36-.429-1.504-.688l-.465-.856zm-85.143-9.157c.295.17-1.048 1.749-1.298 1.517l-1.423-1.33c-.251-.232.564-1.445.859-1.276l1.862 1.08zm32.793-5.167c-.08-.348 1.933-.545 1.969-.215l.179 1.732c.054.5-1.548.964-1.664.482zm-79.8-82.508c.447-.152 1.763-.215 1.835.115.116.491.152 1.901-.35 1.866l-1.485-.107c-.501-.036-.492-1.723 0-1.883zm204.513 86.542c.071-.456.393-2.267.259-1.482.716.848 1.02 1.205 1.003 1.196l1.584 1.357c.385.33-1.083 1.624-1.522 1.365-.582-.339-1.038-1.017-1.172-1.66l-.161-.776zM85.036 28.612l-1.163.473c-.457.188-1.065-.562-1.164-1.044-.072-.321.465-1.463.752-1.294l1.808 1.089.76.455s.69-.875.824-.544l.528 1.294c.134.33-1.262.223-1.566.044l-.779-.464zm117.087 17.073-1.02 3.026c-.215.633-2.596-.884-2.032-1.294l2.13-1.562zm20.8 12.87c.287-.197 1.325.17 1.486.481.251.456.376 1.821-.152 1.803l-1.728-.044c-.528-.018-.035-1.946.394-2.24M113.82 155.101c.045-.303 1.549-.625 1.736-.384.287.366.663 1.134.314 1.437l-1.012.875c-.349.303-1.109-1.473-1.038-1.928m-31.907 3.454c.286 1.089-2.354 1.16-2.507.089-.08-.58 2.354-.66 2.507-.089M44.51 42.615c-.018-.482 2.407-.571 2.273-.098l-.564 1.874c-.188.616-1.683-.973-1.71-1.776m60.576 102.999c.528 2.169-1.817 2.749-1.889.455-.009-.464 1.772-.901 1.889-.455m110.982-109.79c.546 2.222-1.727 2.864-1.754.294 0-.375 1.665-.651 1.754-.294M189.091 17.84l.341 2.963c.044.366-1.907-.723-1.701-1.017l1.36-1.937zm-68.496 153.682c.188 1.991-2.13 1.982-1.933 0 .072-.749 1.862-.749 1.933 0m-34.154 20.465c.036.731-2.756.749-2.72 0 .044-1.036 2.676-.991 2.72 0M32.22 78.144c.43-.196 2.444.66 2.095.982l-1.396 1.24c-.474.42-1.28-1.963-.698-2.222m191.57-9.38c-.411.17-.886-2.383-.537-1.535l3.885-.946c.161-.259-.072 1.17-.457 1.321zm7.304 12.995c-.358-.018.224-2.276.51-2.071l1.656 1.151c.367.25-1.593.955-2.175.928zm-12.817-16.573c-.394.044-.886-1.054-.662-1.33 1.342-1.616 3.204 1.035.662 1.33m-52.976-43.178c-1.406 2.999-2.354.295-1.683-.526.242-.295 1.226.098 1.683.526m-.591 139.885c-.188-.42-.215-2.526.063-2.356l1.906 1.196c.403.249-1.781 1.579-1.969 1.151zm58.266-116.618 2.39-2.437c.394 1.259-.376 2.508-2.39 2.437m4.046 10.263c-.117.41-1.638.277-1.647-.062-.036-1.295 2.219-2.062 1.647.062m-80.991 92.807c.447-.268 2.041-.767 1.906-.401l-.555 1.481c-.134.366-1.682-.883-1.351-1.08m13.882 10.067c.044-.41 1.709-.714 1.602-.312l-.492 1.785c-.108.401-1.155-1.062-1.11-1.473m-3.527.759c-.098-.339 1.826-.455 1.701-.107l-.501 1.472c-.117.348-1.057-.892-1.2-1.374zm11.134.16c-.035-.392 1.961-.642 1.817-.276l-.599 1.472c-.152.366-1.173-.803-1.209-1.196zm-107.286-13.69c.215.527-2.327.241-1.951-.161l1.172-1.249c.206-.214.654 1.089.779 1.41M49.45 77.439c-.009.295-1.853-.794-1.611-.964l1.692-1.205zm195.634 50.228c-.412.419-2.139-.536-1.504-.875l2.488-1.356c.323-.17.278-.688.385-1.625l2.211.206-3.589 3.65zM30.556 85.998c.931-.304 2.04-.563 1.933-.206l-.456 1.544c-.108.357-.967-.615-1.477-1.347zM201.541 60.84c-.77-.554-1.307-1.51-1.378-2.678zm-65.757-45.374c.42-.24 1.915-.705 1.799-.339l-.475 1.482c-.116.366-1.664-.946-1.333-1.134zm4.439 1.616c-.027-.384 1.763-.59 1.647-.214l-.519 1.642c-.116.366-1.101-1.036-1.137-1.42zM40.195 45.551a.947.947 0 0 0 .95-.946.947.947 0 0 0-.95-.946.947.947 0 0 0-.948.946c0 .523.425.946.948.946m110.178-22.989a.95.95 0 0 0 .949-.947.95.95 0 0 0-.949-.946.95.95 0 0 0-.949.946c0 .523.425.947.949.947m96.188 82.249-1.343 2.793-.832-.91zm-21.821-52.04-1.754 1.348.349-1.892c.071-.366 1.512.535 1.405.544m23.002 64.115-1.611-1.607a2.75 2.75 0 0 1 1.611 1.607m-47.525-61.08c-1.057 1.231-1.343 1.562-.895 1.035zm7.625 3.23s.134-1.624.196-2.338c.036-.375-.053.607-.196 2.338M246.4 96.68c-1.11 1.179-1.468 1.553-.949 1.009zm-1.217-1.08-1.611-1.606a2.75 2.75 0 0 1 1.611 1.607M21.4 133.914l-1.611-1.606a2.75 2.75 0 0 1 1.611 1.606m221.643-1.588.018.553v.571l-.018.562-.009-.562v-.571zm-220.363-.857.018.553v.58l-.018.554-.01-.554v-.58zm223.782-10.219.009.562v.571l-.018.563-.017-.563v-.571zm-.912-1.116c.134.554-.009-.044-.26-1.071zm.196-6.14h.582l.555.009-.555.018h-.582l-.555-.018zm.86-3.409h.572l.555.018-.555.009h-.572l-.564-.009zM28.793 86.72h.582l.555.036-.555.01h-.573l-.564-.028zm4.278-2.534h.582l.555.018-.555.009h-.582l-.555-.01zm3.464-7.657h.635l.618.009-.618.017h-.635l-.609-.017zM211.583 39.91h.573l.564.019-.564.009h-.573l-.554-.01zm-4.412-1.257.018.562v.571l-.018.553-.009-.553v-.571zM81.635 27.577l.018.616v.642l-.018.625-.018-.625v-.642zm-12.825.009.008.553v.58l-.009.554-.017-.553v-.58zm18.07-2.151h.582l.554.018-.554.009h-.582l-.555-.009zm12.817-1.767.572-.009.546.045-.554.035-.573.01-.555-.018zm16.933-3.739.018.553-.009.571-.027.553-.026-.544.009-.58zm-9.245.401h.573l.555.01-.555.017h-.573l-.564-.018zm-12.817-.856h.573l.564.017-.564.01h-.573l-.555-.01zm18.652-5.516.018.562v.572l-.018.553-.018-.553v-.572zm-8.538 3.856.42.82-.42.429-.43-.428zm102.48 24.229-.424.423.424.423.424-.423zm-12.799 2.562.43.429-.43.428-.537-.428zm12.794 2.538-.424.422.425.423.423-.423zm-2.546 4.281.43.42-.43.428-.59-.429zm-8.551 3.394-.424.422.425.423.424-.423zm1.709.845-.424.423.424.423.424-.423zM50.873 60.786l.779.428-.779.428-.43-.428zm189.598 29.789-.424.423.424.422.424-.422zM20.12 98.251l.734.429-.734.428-.43-.428zm228.04 2.542-.424.423.424.423.424-.423zm-3.407 28.962.43.429-.43.428-.734-.428zM61.971 142.473l.43.482-.43.428-.42-.428zm1.709 1.751-.423.422.424.423.424-.423zm-13.661 3.409-.424.423.424.422.424-.422zm18.785.848-.424.422.424.423.424-.423zm168.257.847-.424.423.424.422.424-.422zm-133.238 1.721.429.42-.429.428-.851-.428zm3.413.843-.424.423.424.422.424-.423zm-57.215.856-.424.422.424.423.424-.423zm53.804 1.693-.424.423.424.423.424-.423zm-23.058-18.01.42.562-.42.705-.43-.705z"/></g><defs><clipPath id="a"><path fill="#fff" d="M0 0h262v283H0z"/></clipPath></defs></svg>