<svg xmlns="http://www.w3.org/2000/svg" width="207" height="238" fill="none" viewBox="0 0 207 238"><g fill="#DB1C41" clip-path="url(#a)"><path d="m25.152 130.098 1.69-1.787-2.58-1.165c.135-.352-.423-2.644-1.178-2.635l-3.777.036c-.567.866.35-.614.575-.903l1.637-2.094c.746-.957-4.721 1.047-4.425.162.126-.37.414-1.507.71-1.787l2.96-2.78-2.743-1.228c-.37-.162-.01 1.616.054 2.013.054.325-.882.975-1.053.704l-.908-1.399c-.378-.577-1.808-2.265-1.349-2.735l2.491-2.509c.693-.695-.81-3.042-1.636-3.71-3.715-3.024 1.016-9.613-.261-9.288l-1.583.406c-1.178.298-3.49-.785-4.326-1.877l2.725-.172c1.052-.063 3.139-1.435 3.858-2.202.657-.695-.836-3.34-1.34-3.782l-.53-1.345c2.302-.217 4.038.036 4.829-.479l3.246-2.121-1.097-2.275c-.575.587-3.327 2.311-3.453 1.472l-.477-3.232 3.4.975c-.37-1.507-.81-3.213-.1-3.584l4.21-2.157c.584-.298 2.077-1.254 2.473-.848l1.61 1.688c.485.514 1.231 1.363.836.92.773-1.317 2.14-3.078 3.165-3.628l1.763-.948c.45-.244-1.034-.903-1.52-.74-1.115.37-4.19.884-5.063.1-1.376-1.256-1.313-4.388-.396-6.762l-4.29-2.22 3.103 9.351c.234.695-1.322 1.68-1.987 1.724l-3.84.226c-.648.036-2.006.677-2.284.893l.773.732-.791 1.363-.639-1.39c-.36.036-2.005-.722-1.69-1.237l1.25-1.977c.539-.785.71-1.453 1.25-1.607l2.364-.659c-.287-.28-1.52-1.733-1.807-2.373l-2.087-4.721c-.36-.813.468-3.169 1.358-3.232l3.094-.216-.378-4.532-.26-3.132c-.045-.55 1.744-.749 2.275-.596s1.106 1.192 1.07 1.806l-.35 6.354c-.046.83 2.598.316 3.453.19l2.293-.325c.54-.072.53 5.019 2.248 4.784l2.887-.406c.288-.036.881-1.2.62-1.381l-1.349-.975c-.44-.316-.89-1.174-1.088-1.67-.126-.334 1.601-1.038 1.952-.993.53.072 1.726 1.517 1.717 2.058-.009.704-.126 2.32.387 2.329l6.17.126c.485.01.665 2.365.206 2.05-1.69.65-1.79.685-1.592.613l2.581 2.79.819-.515-.234-3.81 2.401-.721 2.833-2.248 1.178-.244c-.675-2.04-1.69-3.033-4.209-5.028l2.437-.433.62-.343c-.79-.496-3.039-1.877-2.337-2.6 1.043-1.065 3.363-2.608 3.894-3.71l1.681-3.474-3.786-.524c-.647-.09-1.646-2.618-1.061-2.898l3.507-1.678c1.493-.714-.512-8.043 3.58-9.036 2.464-.596 4.946.47 5.854 2.275l1.547 3.06c.18.36 1.034 1.236.63 1.408l-3.526 1.48.701.858c.108-.46-.044.207-.17.758l-.81-1.092-3.74.875c-.18-.37.251.524.52 1.102 3.31.514 5.064.153 6.736-1.724l.522-.587 3.03-.208c.765-.054 2.339-.848 2.897-1.39l-.468-.84c-.108.533.054-.252.18-.902l.71 1.336 2.257 1.67-1.142-3.918c-.027-.099-.18-.072-.386-.063l-.765-.605.036-.532-1.987.478c-.504.127.755-1.75 1.25-1.58l1.25.443c.126.045.198.171.386.397l.441.515.486.406 3.534 1.435-.162-3.069c-.099-1.896 5.468-2.545 5.864-.812l1.79 8.015.557-3.34c-.558-.352-.666-.415-.666-.604l-.054-5.155 2.168-.523.998 4.089c.17.704-2.068 1.029-2.671 1.354l.72.659 2.194 2.211c.665.668 3.363-1.245 4.244-.93l6.871 2.5 1.367-2.897 2.617 3.051c.207.244 1.313-1.254 1.088-1.498-.701-.74-1.942-3.196-1.286-3.827 1.133-1.101 5.153-1.724 6.079-.56.558.704 1.304 3.033 1.547 3.945l1.853 7.212.701-3.196c.171-.794.837-2.834 1.574-2.987l3.525-.731c2.932-.614 5.234-1.409 7.779.379.315.216 1.655 1.002 1.871.704l1.34-1.905c.602-.857 1.475-1.995 2.14-2.428.8-.524 3.13.821 3.453 1.706l1.682 4.621c.126.343-.836 1.815-1.07 1.553l-1.187-1.3c-.153-.162-1.268-.514-1.286-.307l-.54 6.58c-.216 2.672 1.979-1.75 5.504-1.678-.216.397.809-1.463 1.088-1.968.504-.93 3.274 1.336 2.437 1.986-3.453 2.654-1.376 5.524-3.705 6.372-.917.334-2.725-.541-3.444-1.2l-1.322-1.21c-.27-.243-.612 1.85-.27 1.977l5.432 1.995c.737.27 2.374 1.498 2.995 1.986l5.647 4.44 1.817-3.393c.512-.957-4.353-3.286-3.813-6.228.18-.948 1.843-2.627 2.796-2.51.954.118 2.851 1.228 3.481 2.013l1.906 2.329c1.223 1.498-2.203 3.674-1.052 5.416.486.74 1.727 2.979 1.106 3.547l-3.228 2.925 3.579 3.655 2.05 12.43 7.797.162c1.574.036 3.804-.198 4.722.56l1.475 1.246c.404.343-.477 2.022-1.008 2.022h-7.167l.189.993 7.905 1.263c2.922.47 2.311-6.752 8.624-6.616 2.572.054 4.856 1.336 5.692 3.457.711 1.796-.701 5.85-3.102 6.002-3.579.226-6.826.307-8.247-1.353-.162-.19-1.241.595-1.214.839.072.596.621 2.175.162 2.527l-3.561 2.726c.126.235-.72-1.335-.8-1.489.791-.632 2.059-2.762 1.393-2.87l-7.392-1.228c.603 1.309 1.754 3.204 1.538 4.17s-2.968 1.923-4.173 2.275l2.914 4.08.558-.587.305-1.76 3.912-.181c.558-.027.936 1.896.549 2.068l-3.498 1.57c.89 1.165 1.933 2.221 3.219 2.717 8.777 3.43 7.042 6.526 5.351 5.163l-3.31-2.672-1.699 1.011-1.682-1.119c-.674-.442-1.888 2.527-1.115 2.735l5.387 1.489c.638.181 2.743-.225 2.985.37l1.925 4.839c.162.415-.162 2.004-.279 2.608-.063.334 1.088.777 1.142.406l.315-2.139c.063-.406 2.383-.171 2.599.181l4.55 7.194 2.357 3.285-4.029 1.688c-.423-1.624 1.843-2.68.216-3.944-1.871 1.886-1.412 3.845-.306 5.732l2.068 3.529c.414.713.702 2.347.666 3.06-.135-.09.683.487.998.713.126.09-.989.821-1.052.731l-.756-.966c-.494.334-1.636 1.102-1.672 1.715l-.108 1.959c-.027.424-.612.605-2.213 1.507l2.042 1.743 1.78 1.516-3.201.921v.821l-.755 4.225c-.126.704-2.527-.091-3.229-.19-.791-.117-2.581 1.237-2.374 2.004l.629 2.365.657.388 1.259-1.155-.935-.822c-.324.154.755-1.047.818-.903.126.298.594 1.372.621 1.336l2.266-1.642c.324-.235 1.753-.199 1.619.162-.135.361-.477 1.309-.747 1.58l-2.599 2.644c-.27.28-1.637.325-1.906.037l-.693-.759-.845-.451-2.788 2.807c-.18-.135 1.151 1.535 1.151 1.535s-.998.243-.998.234c0-.018-.585-1.218-.666-1.191l-4.082.939 2.967 3.989c.234.316-.413 1.851-.53 2.212-.441 1.309-1.7-2.717-2.258-2.492l-1.178.488-.413.686-.324 7.51c-.045.948 1.583 3.755.692 4.089-.935.352-3.453.894-4.28 1.453-2.788 1.887-7.402 4.595-10.972 5.037l-6.826.857c-.683.091-1.87.136-2.212-.316l-1.358-1.787c-.135-.18-.944.479-1.007.722-.171.641-1.025 1.968-1.421 1.598s-1.034-1.291-.638-1.652l1.528-1.39c.657-.596-2.94-.18-2.599.65.513 1.246-1.573 3.06-1.672 4.125l-1.412 14.668-1.943 14.478c-.171 1.3-2.769 4.135-4.082 4.035l-9.893-.731c-5.522-.406-5.818-6.679-9.667-9.405.557-.659 2.104-3.358 1.448-4.324l-2.429-3.584 1.583-2.319c-.225-5.254-2.878-9.514-7.419-12.303-3.273-2.013-9.245-1.21-11.358.929-.62.632-1.08 2.988-1.052 3.268l1.852 1.3c-1.933-1.39-2.185-1.038-.98.947l-1.439-1.696c-.665.64-1.861 2.518-1.727 3.484l2.6 18.748 1.088 15.002c.09 1.2-1.61 3.646-2.581 4.17-2.923 1.579-9.497-1.3-10.45-6.4-.675-3.638-.558-7.068-.306-11.084l1.403-22.585-1.35-4.188-.503-.505-1.367-1.372-.45-.452-1.744-.776c-.459-.208-.27-1.444-.027-1.877s1.951-.912 2.032-.425l.423 2.582.405.496 1.115 1.264.836.451c.585-1.507.387-4.296-.09-6.345l-5.305-.569 1.447-4.558c.37-1.174-1.708-3.909-2.86-3.701l-4.622.857c-.53-.144-.998-.279.971.271l2.123 4.802.341.65 1.763.767c.45.19.279 1.463-.009 1.86-.386.523-2.185.857-2.212.217l-.099-2.411-.387-.343-1.744.569c-.936.307-2.68-7.077-4.218-5.47l-2.662 2.78c-.288.298-1.439.858-1.628.488s-.575-1.499-.476-1.932l.809-3.511 3.193 1.588.8-2.238c.153-.433.998-.65 1.457-.713l.728-.74c-.315-.343-.99-1.553-1.322-1.228l-1.592 1.571c-.494.487-2.041 1.155-2.707 1.146-1.582-.018-1.268-5.271 1.188-6.12l1.834-.632c.333-.117-.566-.884-.908-.857l-3.993.27c.08 0 .315 2.257-.315 2.167l-4.91-.74-1.304 5.091-1.673-1.67c-.35-.343-1.412 1.236-1.825 1.805-.369.505-2.257-.767-1.997-1.318l.99-2.112c.512-1.092-1.871-4.604-1.889-3.087l-.045 3.439c-.009.758-2.185.912-2.887.614-3.759-1.598 1.79-3.782 1.295-9.848-.18-2.257 2.482-.289 2.653-2.798l.35-5.082c-.449.406-1.726 1.733-2.364 1.634l-5.27-.795c-.953-.144-2.734-.243-2.923-.929l-.926-3.331c-.162-.596 1.34-1.977 1.808-1.796.7.261 1.87.83 2.086.469l1.124-1.832c.234-.38.495-1.968.432-1.968l-3.031 2.383c-.26.207-1.709-.325-1.727-.659l-.144-2.428c-.152-2.528 6.062-5.57 2.114-4.902-1.529.262-4.91 2.438-4.272 3.755l1.07 2.212c.198.415-.827 1.309-1.25 1.128l-1.951-.812c-1.178-.488-4.317-.47-5.495.054l-1.987.885c-.558.252-1.547-1.499-1.241-2.031 1.07-1.905 2.014.523 4.81-2.086.522-.487-1.078-2.049-1.77-2.112l-6.278-.604.594-6.066c.053-.578 1.897-.777 1.915-.316l.162 3.953c.881-.731 2.293-1.967 2.905-2.825l4.595-6.49zm28.67-87.25-.54.434.54.433.431-.433zm24.893 0-.432.434.431.433.432-.433zM53.822 45.44l-.018.56v.577l.018.56.018-.56V46zm1.88 4.441 1.987-2.518-3.516.974 1.52 1.553zm67.915 2.554c-.585-1.3-1.25-3.475-2.087-3.727l-4.667-1.418-1.862 4.351 8.616.804zm-72.853 6.834-.63.713s.72-.813.63-.713M39.38 70.623l1.385-1.887c-1.007.054-2.464.244-2.5.795l-.225 2.915zm9.524-1.002c1.574-1.94.045-.063-.216.262-.153 2.004-.018 1.065.216-.262m-8.409 4.531c-1.322-1.237-2.068-1.047-.953.56 1.448.848 2.266.704.953-.56m-16.709.56-.431.433.431.767.432-.767zm18.166 3.863-.557.018.557.018h.576l.557-.018-.557-.018zM27.355 84.37c.261-.153-1.349-.596-2.095-.668-.639.713-.935 2.519-.36 2.166zm9.308.677-.431.433.431.434.432-.434zM24.65 86.771l-.432.433.431.434.432-.434zm130.003 6.535c.296.316 2.05.253 2.104-.162l.665-4.649-3.768.226 2.491 1.218c.756.37-.296 2.356-.971 2.898l-.521.478zM36.663 90.22l-.431.434.431.433.432-.433zm118.043 2.14-.423-1.3c-.117-.352-1.448.28-1.178.568l1.133 1.228.477-.487zm-134.68 1.453c.35-.424-1.08-2.428-1.42-1.995l-1.467 1.905c-.296.379 2.581.46 2.887.09m136.451 9.324a.955.955 0 0 0-.953-.957.96.96 0 0 0-.953.957.96.96 0 0 0 .953.957.96.96 0 0 0 .953-.957m1.187.858-.431.433.431.433.432-.433zm11.161 15.507-.432.433.432.433.431-.433zM24.469 123.03c0 .145 0 .542.162.677zm1.214.984-.081.488c1.079-.091 1.385-.253.08-.488m151.721 13.576-.432.433.432.433.432-.433zM27.67 139.513c-.728-1.02-3.013-1.21-4.388-.75l3.93 1.436.45-.686zm.459.64-.513.443 1.637.171c.369.036-1.358-.731-1.133-.614zm148.232 3.421.207-2.374c-.063.786-.207 2.383-.207 2.374m-137.126 5.209-.431.433.431.433.432-.433zm4.03 6.724 2.877-.938-1.097-2.952c-.261-.695-1.934-2.04-2.491-1.607l-2.14 1.679 1.375 1.074c.944-1.489 2.114-1.498 2.267-.451l-.792 3.186zm133.68-4.549-2.644-1.435.351 5.668 2.006-3.809zm-137.71-.451-.431.433.431.433.432-.433zm9.74 5.316c1.034-.803 1.304-1.011.233-.18-.845.659-1.178.92-.233.18m-1.97 3.927-1.358-2.528c-.207-.379-1.574-.74-1.133-.424-.333 2.672-1.268 5.38-2.58 6.698l-1.323 1.327c-.26.261.063 1.39.432 1.345.368-.046 1.457-.398 1.681-.695l4.272-5.714zm4.982.451c-1.016.063-1.376.199-.045.406zm-2.869 5.136h-1.285c-.27 0-.963.804-1.241 1.02-.28.217 1.294.587 1.654.506l1.844-.416c.36-.081-.603-1.101-.972-1.101zm12.465 10.047-.495.523.432.46.63-.532-.567-.46zm12.014 9.189c.198.352.378-1.382.414-1.779s-1.718-.559-1.529-.216zm-2.607-1.345-.432.433.431.433.432-.433z"/><path d="M24.262 127.155c.521.154 1.052 3.123.89 2.952l-2.58-1.823-3.508 2.978c-.26.226-1.69.127-1.583-.198l.585-1.634c.737-2.067-.765-3.917.593-3.665l1.16.217c.342.063.108 1.769.45 1.733l3.984-.551zm91.972-87.366-1.053 1.895c-.251.46-2.032.244-2.392-.144-.818-.894-.27-3.72.585-4.757 1.735-2.13-2.204-5.822 1.583-9.947 1.214-1.327 5-1.806 6.861-1.047 1.862.758 3.615 3.845 3.427 6.345-.495 6.598-7.384 4.72-9.02 7.654zM192.8 94.994c.845 1.318.989 4.595-.189 6.048-1.025 1.273-4.074 1.67-6.043.713-1.592-.785-2.185-4.026-1.547-5.777l1.763-4.82.953-1.914c.234-.469 1.754.632 2.032 1.066l3.031 4.693zM160.128 77.69l2.114-5.903c.728-2.03 4.11-2.942 6.097-1.85 1.808 1.002 2.788 3.908 2.05 6.201-1.304 4.07-10.737 2.861-10.261 1.543zm-26.07-60.404c-2.042-1.661-2.042-5.534-.099-7.32 1.421-1.3 5.117-1.283 6.475.17 1.115 1.192 1.376 4.333.719 5.832-.998 2.283-4.577 3.367-7.086 1.318zm65.37 50.412c-1.88.018-4.128-2.265-4.344-3.917-.279-2.085 1.169-4.856 3.319-5.371 3.156-.758 5.413 1.363 5.755 3.972.288 2.274-.8 5.271-4.721 5.316zM96.134 32.107c-1.24 2.049-4.766 2.41-6.295 1.255-1.763-1.345-2.455-4.288-1.7-6.057.927-2.157 3.94-3.33 6.08-2.293 2.464 1.192 3.597 4.306 1.906 7.095zM65.45 8.72c-2.626-1.463-2.959-5.29-.98-7.529 1.142-1.29 4.55-1.588 5.782-.64 1.817 1.399 2.42 4.251 1.7 6.228-.792 2.166-3.975 3.34-6.502 1.94m131.532 134.63c.548.957 1.304 2.374 1.25 3.24s-1.331 2.257-2.15 2.519c-1.07.343-3.282-1.011-3.543-2.04l-1.654-6.409c-.306-1.165.746-2.618 2.652-4.811-.188-.118 1.035.623 1.619.975 2.239 3.33.585 4.323 1.844 6.517zm-171.848 26.79c.369.425.773 1.679.72 2.167-.072.65-1.62 1.119-2.213.902l-5.099-1.832c-1.06-.379-1.771-2.852-1.304-4.035.576-1.462 3.705-2.121 4.578-1.092l3.327 3.89zm158.448 7.537c2.392-.632 3.993 1.002 4.182 2.501.144 1.164-1.169 3.403-2.491 3.71-1.142.261-3.049-.966-3.633-2.158-.513-1.047.701-3.719 1.942-4.044zM157.305 56.045c.791-.894 4.1-.532 4.64.38.629 1.064.45 3.51-.531 4.576-.719.767-2.841.632-3.858.08-1.088-.586-1.591-3.52-.242-5.027zm-23.436 153.413c1.681-.821 4.101-.027 4.424.975.387 1.201-.081 4.062-1.214 4.522-.971.398-3.138-.135-4.038-.848-.962-.758-.584-3.963.828-4.649m-100.335-6.932c1.645-.686 3.885.325 4.181 1.345.423 1.453-.054 3.981-1.214 4.387-1.097.379-3.462-.081-4.172-.867-.828-.92-.306-4.224 1.205-4.856zm169.077-99.715c1.79-.695 3.867.19 4.218 1.201.45 1.29-.036 4.043-1.205 4.441-1.079.361-3.471-.136-4.182-.921-.827-.921-.171-4.197 1.178-4.721zm-60.873-57.95c1.124-1.02 4.163-.541 4.649.506.513 1.11.333 3.52-.575 4.396-.756.73-2.932.659-3.841.135-1.187-.686-1.654-3.746-.233-5.037M32.778 55.35c1.35-.47 3.732.316 3.966 1.29.252 1.03-.063 3.277-1.007 3.62-1.115.398-2.779.208-3.606-.379-.828-.586-.405-4.17.647-4.54zm10.468 129.502c-.737.244-2.806-.604-2.599-1.209s1.025-1.805 1.628-2.022l3.084-1.101c.81-.289 2.06 1.67 2.492 2.798zm133.034-78.674c.09.469-.315 2.446-.639 2.238-.476-.297-1.456-1.074-1.627-1.606l-1.412-4.423c-.108-.334-1.196-1.246-.891-1.408l1.448-.759c.333-.171 1.853-.74 1.916-.379l1.187 6.337zM12.832 77.835c-.333.316-1.538-.83-1.358-1.282l1.475-3.872c.17-.451 1.106-1.2 1.591-1.183.648.027 1.763.614 1.988 1.219s-.594 2.148-1.061 2.59zm15.315 113.218-6.43.217v-3.15l6.493.126c.27 0 1.052 1.183 1.016 1.453-.036.271-.81 1.345-1.08 1.354M165.479 67.112c-1.178.117-2.86-1.49-2.788-2.221.09-.92 1.295-2.925 2.213-2.888.719.027 1.942 1.3 2.167 1.985.225.686-.863 3.051-1.592 3.133zM46.196 62.653l.09.974-1.088 2.627c-.27.442-2.392-.388-2.204-.867l1.035-2.59-2.923.27c.207-.324 1.223-1.398 1.655-1.525.98-.289 2.302-.578 2.76-.216l.684 1.327z"/><path d="m46.286 63.627-.09-.974 2.464 1.489-2.374-.506zM-.784 142.22c.468-.487 3.184-.009 3.157.659-.036.84-.252 2.113-.558 2.889-.243.623-2.167.334-2.734-.018-.71-.442-.602-2.762.135-3.539zm11.197-97.927c.89-.352 2.76-.054 2.967.568.261.777.171 2.311-.44 2.853-.486.433-2.087.225-2.68-.054-.738-.361-.612-3.06.144-3.358zm50.639 152.971c.261-.668 3.436-.623 3.382.126l-.243 2.997c-.063.74-2.51.379-3.076-.108-.566-.488-.53-1.797-.054-3.006zM44.343 50.936c.036.334-2.005 1.697-2.212 1.48l-2.113-2.274c-.504-.542 1.133-2.085 1.825-2.329.864-.307 2.365 1.923 2.5 3.123m-30.63 61.66.153 2.148c.027.361-.998.533-1.214.244l-1.16-1.481.342-4.531c.045-.541 2.257-.532 2.203.108zM99.57 215.741c.224-.605 3.21-1.399 3.291-.776l.387 3.096c.081.622-1.736.947-2.366.92-.836-.036-1.672-2.301-1.322-3.249zm-1.952-4.125 1.628 2.139c.332.442-1.331 2.031-1.718 1.625l-2.024-2.139-.611-1.409c-.135-.325-.162-1.471.18-1.408.513.1 2.167.713 2.536 1.192zm76.917-43.815 1.511 5.642c.18.659-2.707-.226-2.761-.849l-.279-3.655c.765-.569 1.574-1.183 1.529-1.147zM70.98 35.005l2.051-1.67c.234-.19 1.583.532 1.547.84l-.27 2.075c-.045.325-.881 1.67-1.133 1.462l-2.608-2.166-1.088-.975c.944.063 1.591.1.71.045l.8.389zm99.94 148.99c.423.28.692 1.561.576 2.031-.162.614-2.51.803-2.617.189l-.738-4.089 2.788 1.869zm-26.754 14.677-3.507.731-.864-1.968c-.243-.559 1.25-2.076 1.664-1.634l2.716 2.871zm48.094-80.516c.243-.46 2.617-.469 2.563.054l-.224 2.203c-.054.523-1.772 0-2.204-.298-.431-.298-.467-1.327-.135-1.959M95.442 36.205c.692.352 1.394.812 1.762 1.219.369.406-.216 2.04-.755 1.922l-2.078-.442c-.53-.117.576-2.943 1.062-2.699zM61.08 207.77c.494-.288 2.517.325 2.284.813l-.963 2.031c-.234.487-1.484-.163-1.861-.551-.378-.388.072-2.022.53-2.293zm-35.01-2.482c.224-.487 2.113-.677 2.482-.289.368.388.872 1.318.422 1.607l-1.861 1.201c-.45.288-1.268-2.013-1.043-2.519M45.207 188.4c.368-.704 3.075 1.85 2.86 2.166l-.648.939c-.459.668-3.256-1.083-2.878-1.824l.657-1.281zm121.252.812c.675-.695 3.022-1.065 2.869-.469l-.611 2.374c-.207.785-2.815-1.327-2.258-1.905m30.019-57.733c.666-.776 3.031-1.083 2.878-.505l-.585 2.328c-.198.777-2.823-1.218-2.293-1.832zm-21.457-13.955c-.036.614-2.482 1.029-2.32.488l1.367-4.523c.431-.334 1.196-.379 1.169 0l-.216 4.026zM24.343 162.972c.207.172-1.142 1.679-1.367 1.435l-1.124-1.2-.936-1.002c-.197-.208.837-1.48 1.053-1.291l2.383 2.058zm161.083-3.547c.395-.334 2.563.018 2.428.514l-.468 1.67c-.144.506-1.852.415-2.302.145-.45-.271-.054-2.004.342-2.338zM138.932 58.374c.944-.596 2.86-.966 2.725-.415l-.513 2.184c-.171.731-2.86-1.372-2.212-1.778zM3.569 119.302c.297-.604 2.977-.965 2.806-.37l-.657 2.329c-.225.785-2.662-.93-2.158-1.959zm47.006 74.649-.233 2.184c-.036.37-1.808.145-1.79-.225l.063-1.661c.018-.497 2.005-.731 1.96-.289zm113.052-17.439 2.221.406c.566.108.117 2.419-.45 2.32l-1.78-.298c-.576-.09-.27-1.381.009-2.428M23.462 156.564l-1.943-.452c-.405-.09-.117-1.986.288-1.904l2.113.469c.45.099 0 1.995-.459 1.887M7.948 66.67c.324-.235 1.718-.416 1.844-.055.189.542.117 2.383-.45 2.338l-1.762-.145c-.576-.045-.09-1.814.368-2.139m150.571 6.454c-.378 1.508-1.997 2.004-2.249.596l.594-2.6c.081-.37.809.614 1.655 2.004M4.81 92.819l-.324-1.39 3.076-2.97.36 1.408zm9.389 27.819.746 1.932c.207.523-1.583 1.67-1.619 1.119l-.287-4.305c.242.234 1.106 1.119 1.16 1.254m23.714-58.653c-.099-.343 2.213-.74 2.24-.38l.125 1.914c.036.542-1.6 1.155-1.753.632l-.612-2.157zm-22.554-1.77c1.07-.514 2.824-.713 2.635-.207l-.72 1.94c-.26.695-2.58-1.417-1.915-1.733M2.022 104.057c-.009.171.1-1.165.171-1.914l.477-1.968c.09-.352.854-.632 1.223-.577.54.072 1.618 1.182 1.223 1.552l-3.085 2.907zM.673 118.021c.072-.361 2.437-.235 2.347.126l-.521 2.13c-.1.388-1.34.118-1.556-.189-.324-.452-.414-1.372-.27-2.076zm179.114 37.992c-.207.207-1.511-.036-1.637-.28-.134-.253-.224-.632.009-.749l1.538-.749c.657-.325 1.394-1.733 1.943-2.474l.899-1.2c.261-.352 1.295 1.426.98 1.742l-3.741 3.719zm-90.64 37.848c-.055.424-.756 1.886-1.08 1.742-.485-.208-1.403-.975-1.232-1.481l.459-1.362c.17-.506 1.924.559 1.853 1.101m65.442-124.583c.548 2.247-1.736 2.897-1.763.298 0-.38 1.673-.66 1.763-.298M61.844 186.504c.314 1.165-2.375 1.219-2.51.09-.071-.577 2.357-.659 2.51-.09m-34.452-19.199-1.16 1.688c-.333.487-1.494-1.507-1.062-1.923l1.16-1.137c.216-.217 1.241 1.11 1.062 1.372M.089 112.632l-4.326-.28 3.03-1.273c.27-.108.621.506 1.296 1.562zm14.551 4.973c.314 1.192-2.384 1.138-2.51.118-.072-.587 2.356-.695 2.51-.118m24.1 41.603c.28.677-2.526.722-2.553 0-.036-.884 2.122-1.029 2.554 0m-8.381-5.217c.026.758-2.78.767-2.744.009.036-.984 2.707-.948 2.743-.009M7.022 108.317l-1.367 1.815c-.323.424-1.61-1.49-1.07-1.553l2.437-.271zm58.914 70.966c.548-.09 2.446.605 2.095.903l-1.484 1.263c-.468.398-1.205-2.067-.602-2.166zm25.837 15.21-2.024-1.959 1.898-.722c.35-.136.27.957.125 2.681m-39.479 5.172-2.023-1.959 1.897-.722c.35-.136.27.957.126 2.681M155.245 64.647c.468-.144 2.428.686 2.069 1.011l-1.511 1.381c-.477.434-1.178-2.202-.558-2.392M-.667 108.398a.955.955 0 0 0 .954-.956.955.955 0 0 0-.954-.957.955.955 0 0 0-.953.957c0 .528.427.956.953.956m171.533.56-1.187.126c-.378-1.245-.162-2.238 1.187-.126m7.878 11.292c-.108.379-1.259-.984-.989-1.173l1.699-1.21a337 337 0 0 0-.701 2.383zM67.024 40.06l-1.187.126c-.378-1.246-.162-2.239 1.187-.127M17.41 125.26l-2.582.975 2.257-3.286zm173.052 4.63c-1.349.975-1.547.56-.36-.577 1.16-.307 1.646-.082.36.577M9.63 146.291a.955.955 0 0 0 .954-.956.955.955 0 0 0-.954-.957.955.955 0 0 0-.953.957c0 .528.427.956.953.956m174.591-1.561c-.9 2.265-3.148 1.372-1.061-.524 1.187-1.507 1.807-1.408 1.061.524m-51.009 59.267a.955.955 0 0 0 .954-.956.955.955 0 0 0-.954-.957.955.955 0 0 0-.953.957c0 .528.427.956.953.956m-37.762-1.724a.955.955 0 0 0 .954-.956.955.955 0 0 0-.953-.957.955.955 0 0 0-.954.957c0 .528.427.956.954.956m-66.944-30.139a.955.955 0 0 0 .953-.957.955.955 0 0 0-.953-.956.955.955 0 0 0-.954.956c0 .529.427.957.954.957m4.289 1.715a.955.955 0 0 0 .953-.957.955.955 0 0 0-.953-.956.955.955 0 0 0-.953.956c0 .529.427.957.953.957m147.612 0a.955.955 0 0 0 .953-.957.955.955 0 1 0-1.907 0c0 .529.427.957.954.957m-84.103 21.537a.955.955 0 0 0 .953-.957.955.955 0 0 0-.953-.956.955.955 0 0 0-.953.956c0 .529.426.957.953.957m36.907-2.59a.956.956 0 0 0 .954-.957.955.955 0 0 0-.954-.957.955.955 0 0 0-.953.957c0 .528.427.957.953.957m-81.476-11.518c-.072-.397 2.059-.65 1.897-.289l-.674 1.48c-.162.361-1.152-.785-1.224-1.191m15.208 8.232c.341.162-.396.226-2.168.704l.522-1.67c-.27-.153 1.268.785 1.646.966m117.763-18.441-1.618-1.625c.746.28 1.339.876 1.618 1.625m2.087-3.213c-1.133 1.209-1.457 1.561-.972 1.038zm9.433-39.608c-1.115 1.191-1.474 1.57-.953 1.02zm-21.925-16.501a2.77 2.77 0 0 1-1.618-1.625zm-163.448-5.894c-1.115 1.191-1.475 1.571-.953 1.02zm155.777-3.593c-1.196.948-.872.696.036-.027 1.196-.631 1.053-.55-.036.027M7.913 98.731l-1.62-1.625a2.77 2.77 0 0 1 1.62 1.625m8.642-11.454-1.763 1.363.351-1.914c.072-.37 1.52.542 1.412.55M136.216 203.05l.009.559v.578l-.009.569-.018-.569v-.578zm27.599-17.683h.576l.567.018-.567.009h-.576l-.557-.009zm6.008-4.306h.575l.567.018-.567.009h-.575l-.558-.009zm-1.853-9.017.009.559v.587l-.009.56-.018-.56v-.587zm6.143-5.615h.575l.567.009-.567.037h-.575l-.558-.019zm-1.718-1.733h.584l.558.018-.558.018h-.584l-.558-.018zm5.009-2.987.018.559v.587l-.018.56-.009-.56v-.587zm1.745-3.033h.638l.621.009-.621.009h-.638l-.621-.009zm.971-12.06h.584l.558.009-.558.018h-.584l-.558-.018zm6.727-10.741.018.56v.577l-.018.569-.009-.569v-.577zm-5.009.406h.575l.567.009-.567.018h-.575l-.558-.018zm-162.342-3.944.018.595v.614l-.018.587-.01-.587v-.614zm8.723-71.842h.575l.567.01-.567.017h-.575l-.558-.018zm155.336 64.593h.576l.566.009-.566.018h-.576l-.557-.018zm-3.435-4.314h.584l.558.018-.558.018h-.584l-.558-.018zM11.051 82.88h.585l.557.019-.557.009h-.585l-.558-.01zm-.135 32.324.01.56v.578l-.01.568-.018-.568v-.578zm167.351-1.724.009.56v.587l-.009.559-.018-.559v-.587zM9.199 110.899l.018.559v.578l-.018.569-.01-.569v-.578zm5.98-.867.027.569v.578l-.018.559-.036-.559-.01-.587zm-3.202-6.481h.666l.638.018-.638.009h-.666l-.63-.009zm-3.633 2.176.01.568v.578l-.01.56-.018-.56v-.578zm-1.718-.867-.426.428.426.427.426-.428zm183.639-.875-.426.428.426.427.426-.427zM10.06 88.487l-.426.427.426.428.426-.428zm1.718-1.717-.426.428.426.428.426-.428zm171.631 32.715-.426.428.426.428.426-.428zm-171.626 3.451-.426.427.426.428.426-.428zm10.294 3.524a.577.577 0 0 0 0-1.155.577.577 0 0 0 0 1.155m-20.595 6.807-.426.428.426.427.426-.427zm64.352-92.144-.426.428.426.427.426-.427zM3.195 136.721l-.426.428.426.428.426-.428zm88.393-97.323-.426.428.426.427.426-.428zm-1.719-1.724-.426.428.426.428.426-.428zm-40.332.009-.426.427.426.428.426-.428zm132.156 111.08-.426.428.426.427.426-.428zM24.65 159.971l-.426.428.426.427.426-.427zm2.568 4.306-.426.427.426.428.426-.428zm109.855 25.836-.426.427.426.428.426-.428z"/></g><defs><clipPath id="a"><path fill="#fff" d="M-21 0h228v238H-21z"/></clipPath></defs></svg>