<svg xmlns="http://www.w3.org/2000/svg" width="410" height="64" fill="none" viewBox="0 0 410 64"><g fill="#149A76" clip-path="url(#a)"><path d="M371.979 39.203c-.083.966 1.714 1.124 1.766.112l.361-2.247c.068-.412-1.406-.704-1.503-.3l-.616 2.435zm15.617-3.641c-.112.547 2.405 1.087 2.277.54l-.518-2.285c-.12-.525-1.578.891-1.759 1.745m-4.907 2.742c.18-.337-2.082-.802-2.172-.382l-.308 1.356c-.091.412 1.3 1.236 1.503.854zm2.803-3.978c-.135.36 1.781.75 1.683.315l-.458-2.03c-.075-.33-.985 1.086-1.225 1.715m-7.004-.359c.428 1.1.729 1.872 1.127 1.782l1.931-.434-3.066-1.348zm22.967-.989a.796.796 0 0 1-.797-.794.796.796 0 0 1 1.593 0 .795.795 0 0 1-.796.794M86.6 54.418a.795.795 0 0 1-.796-.794.796.796 0 0 1 1.593 0 .795.795 0 0 1-.796.794M26.304 41.286c.037-.322-1.669-.547-1.54-.248l.533 1.237c.127.284.962-.667 1-.99zm85.398 1.7a.795.795 0 1 1 0-1.588c.44 0 .797.356.797.794a.796.796 0 0 1-.797.794m-9.086 20.992h-.481l-.466.014.466.008h.481l.474-.008zm10.762-12.152h-.481l-.473.015.473.008h.481l.466-.008zM79.784 41.48l-.008.465v.487l.008.464.015-.464v-.487zM31.73 39.338l-.008.464v.487l.008.465.015-.465v-.487zm3.472.337h-.48l-.474.015.473.008h.481l.466-.008zm8.726-2.48-.015.465v.48l.015.471.007-.472v-.48zm4.298 0-.007.465v.48l.007.471.016-.472v-.48zm-.698-.816c.127-.105.135-.442.127-.562l-1.014.816c-1.09.188-.834.33.067.405l.812-.667zm38.712-7.761-.008.464v.48l.008.471.015-.472v-.479zM15.15 9.657h-.503l-.48.007.48.015h.504l.48-.015zM78.368 37.17l.356.355-.356.355-.356-.355zm-23.664 1.426.356.355-.356.355-.356-.355zm-17.209.714.356.355-.356.355-.356-.355zm18.645 2.86.356.354-.356.355-.356-.355zm22.23 3.574.356.355-.356.355-.356-.355z"/><path d="m408.249 6.48.052-2.794c.015-.944-3.502.262-3.78.584l.293-3.206-1.51 1.625c-.324.345-1.233 1.619-1.699 1.649l-5.862.39-1.353 2.636-5.96-.644c-.375-.038-.225 1.895-.466 2.195-.187.232-1.367.15-1.48-.142l-.579-1.574c-.436-1.168-1.217 1.768-3.089 3.32-.533.441-2.254-.21-3.164-.57-2.322-.922-1.976 2.524-4.329 3.101l-14.865 3.641-4.314 1.049-32.88 6.645-59.546-2.218-83.873-6.487-73.118-5.701-41.448-1.85-3.3.014-10.468.292-4.217-.06 1.444-3.333c.33-.757-4.194-2.008-6.133.929l-3.81-.255c-.339-.022-.399 1.985-.391 2.652 0 .322-1.248-.315-1.135-.464.293-1.14.428-1.469.128-1.499l-1.954-.195-1.203.884 2.134 1.993c-.383.315-.954.817-1.15.69l-.886-.57c-.24-.15-1.33-.884-1.113-.704s-.165 1.393-.435 1.476l-2.353.689c-2.247.66.391-3.199-.654-3.439-3.186-.749-5.05-.659-6.433 1.813l-2.893-.696c-.399-.098-1.947 1.22-1.699 1.535l1.691 2.165-2.24-.082c-.405-.015-.42-.712-.526-2.637.782-.075-1.12-.397-1.104-.142l.173 3.738c.015.3 1.007.577 2.134.959l-.226.974-1.796-.173c-5.216-.502-11.634-.569-12.754 2.637l-2.179 6.256c-.27.989-.511 1.888-.278 1.011L.157 23.396c-.24-.187-1.383.427-1.157.637l1.022.959c.406.374 1.195 1.43 1.338 2.022l1.082 4.495c3.495.562 4.93.99 7.283 3.739l-2.21-.098c-.353-.015-1.518.884-1.202.967l2.675.666c2.69.675 2.09 3.484 2.646 3.162l1.15-.667c.375-.217 1.54-.172 1.953-.037l3.969 1.303c.691.225.924 2.158 1.09 3.64.06.57 1.713.795 1.525.203l-.872-2.697-.42-1.19c-.128-.353 1.134.149 1.51.179l1.518.112c.18.015.406.113.601.18.173.06.15 0 .308-.15l2.255-2.225 3.75-3.086c2.375-1.956 7.456-3.993 10.357-2.652-.023-.532-.196-1.633.15-1.513l1.458.494-.33.48c-.129-.368.082.247.277.816l.564-.787 2.555 1.281c.421.21-.894-1.55-1.405-2.157 1.909-1.124 3.878 5.91 10.762 4.96 1.691-.233 4.066.261 5.734.643l1.473-1.415 1.902 1.625c.721-.6 1.48-1.326 1.916-1.138l3.037 1.318L68 34.521l2.435.697-1.225-1.559-3.194-2.652c-.233-.194-.857 1.813-1.023 2.076-.165.262-1.224.621-1.014.449l-.06-2.764c-.008-.397 1.21-.667 1.48-.69l.474.278 1.676.929 2.48-4.008 24.012-1.132c-.676 2.607-1.503 5.162-1.3 7.125.127 1.22 1.683 4.098 1.067 5.236l-3.54 6.548c-1.698 3.139-2.405 6.615-.541 9.874s-.992 4.412 1.834 4.57l9.266.532 1.887 2.09c.721-.63 1.556-1.454 1.976-1.184l1.293.816c.165-.164-.962 1.117-.977 1.124l.849.248c-.015.014.579-.87.677-1.027.157-.24.473-.712.526-.989l.285-1.49c.045-.218.617.082 1.12.33l.782-.338c-.819-1.109-1.323-1.64-1.135-1.978l.864-1.543c.038-.075.135-.54.135-.637l-.015-1.139 2.819 2.285c.037-2.989-2.638-2.225-2.292-5.656.157-1.595.06-2.727-.436-3.828l-4.337-9.581c-.729-1.611-.917-2.66 0-4.45 2.458-4.855-.225-7.387 3.968-7.335l59.576.735 91.741 2.854 63.687.951c13.062 2.165 25.598 3.798 38.915 3.753 1.804.098 3.525.622 4.81 1.267 0-.053 1.518-1.244 1.999-1.312l13.002-1.678c.203-.03.736.592.751.81l.121 1.648c.015.24.691.09.886-.06s.677-.907.557-1.11l-1.195-1.954c.488.104 2.209.576 2.675.284l4.013-2.524 5.149-.607 3.382-4.06c.157-.195 1.21-.51 1.412-.368l1.083.802c.308.225 1.142.397 1.533.405.263 0 .736-1.034.518-1.177l-1.886-1.206c3.277-3.64 4.599-7.581 4.817-12.398l.248.135c1.128-1.461 1.759-2.548 2.3-3.986l.06-.382 1.015.554c.037-.344.022-1.603-.271-1.475l-1.022.464-.443.36zm-1.421-2.172.361.36-.361.359-.36-.36zM44.221 6.81l1.435-1.229v2.457zm360.894.906c.669-.981 1.075-1.34 1.105-1.131a78 78 0 0 1-1.105 1.131M39.621 6.323l.361.48-.36.359-.534-.36zm356.994 1.52c.451-.15 2.104-.704 1.826-.614l-.894 2.075c-.015.083-1.27-1.348-.932-1.46m6.786 2.158c-.127-1.453-.203-2.307-.173-1.985zM389.618 7.8l.361.442-.361.36-.586-.36zm-347.847.09.015.464v.48l-.015.464-.015-.465v-.479zM25.545 9.41c-.158-.816 1.924-.659 1.593 0l-1.007 2c-.135.27-.353-.846-.586-2.007zm-4.833.675c-.736-.75-1.06-1.08-.406-.42.932.944 1.143 1.161.406.42m2.165 2.21c-.865-.667-1.09-.84-.196-.15.707.547.985.764.196.15M65.625 29.63l.556-1.768c.098-.322.443.802.353 1.124l-.308 1.1-.601-.464zm.42 5.409c-.57-2.15 1.27-1.521 1.376-.068.023.263-1.3.337-1.375.068m39.202 24.94a2.3 2.3 0 0 1 1.352-1.35z"/><path d="M391.722 5.371c.03.412 1.811.622 1.932.173l.714-2.69c.15-.57-.399-2.082-.662-2.614s-2.39-.12-2.345.472zM400.921.69c-.669-.563-2.345-.847-2.239-.368l.413 1.925c.135.637 2.33-1.138 1.826-1.558M23.666 4.255c-.571-.45-2.277-.749-2.172-.3l.42 1.813c.143.607 2.27-1.108 1.76-1.52zm348.516 4.667c-.233-.24-1.804-.27-1.736.068l.413 1.993c.068.33 1.27.022 1.556-.15.428-.263.15-1.521-.241-1.91zM70.194 29.412l1.872 1.97c.466-1.603.142-2.997-.158-2.847zM27.792 5.102a.795.795 0 0 1-.797-.794c0-.439.357-.794.797-.794s.796.355.796.794a.795.795 0 0 1-.796.794m359.233.404c.023-.322-1.48-.494-1.383-.187l.429 1.356c.097.307.932-.847.954-1.169m-4.006 2.832c-.804-.262-1.721-.494-1.631-.195l.376 1.259c.09.3.819-.48 1.255-1.064m-368.95 4.33c0-.33-1.496-.502-1.383-.187l.488 1.378c.113.315.895-.861.895-1.19m375.128 19.335c-.053-.33-1.676-.615-1.541-.307l.557 1.296c.135.307 1.044-.66.992-.997zM100.166 61.356c-.285-.255-1.465-.675-1.375-.368l.353 1.289c.083.307 1.27-.712 1.03-.922zM69.39 40.125a.795.795 0 0 1-.796-.795.795.795 0 0 1 1.593 0 .795.795 0 0 1-.797.794M58.245 42.59l.931-1.656c.166-.292-1.307-.15-1.277.18s.18 1.767.346 1.483zm6.125.396a.795.795 0 1 1 0-1.588c.44 0 .796.356.796.794a.795.795 0 0 1-.796.794m-27.304-8.952 1.473 1.131-.293-1.588c-.06-.307-1.27.45-1.18.457M390.054 4.375c.909.667.639.472-.128-.09-.932-.637-.744-.51.128.09M63.288 38.626l-.008.465v.48l.008.464.015-.465v-.48zm2.87-.719-.007.465v.486l.007.465.016-.465v-.486zm1.436-.135-.008.517v.524l.008.517.007-.517v-.524zM20.855 6.795h-.481l-.466.015.466.007h.481l.473-.007zm1.555-.412-.007.524v.555l.008.531.007-.531v-.555zm29.425-.663.356.355-.356.355-.356-.355zm-21.517-.006.356.355-.356.355-.356-.355zM18.135 7.146l.355.355-.356.355-.356-.355zm380.094 23.61.356.355-.356.355-.356-.355zm-328.466-.021.356.355-.356.354-.356-.355zm-24.384 3.568.356.355-.356.354-.356-.355zm329.185.734.356.355-.356.354-.356-.355zm-3.587.004.356.355-.356.355-.356-.355zM58.293 37.878l.355.355-.356.355-.356-.355zM96.28 60.457l-.36.674.36.36.361-.36zm10.763 2.143-.489.673.489.36.353-.36z"/></g><defs><clipPath id="a"><path fill="#fff" d="M410 0H-1v64h411z"/></clipPath></defs></svg>