<svg xmlns="http://www.w3.org/2000/svg" width="378" height="106" fill="none" viewBox="0 0 378 106"><g fill="#EC691F" clip-path="url(#a)"><path d="M279.536 51.662c-.663 2.21 1.5 1.84 1.421.024-.008-.221-1.35-.253-1.421-.024m3.694.49c-.426-.253-1.807-.553-1.697-.214l.45 1.358c.11.34 1.539-.97 1.247-1.145M5.303 34.502c.837.647.537.418-.205-.158-.947-.726-.71-.545.205.158M8.397 48.82c1.191.734 1.712 1.058 1.475.916-.623-.379-1.72-1.058-1.475-.915"/><path d="m348.146 3.552-2.202-2.123.119 1.594c.047.671.094 1.287.094 1.247-.757-.773-.978-1.12-1.223-1.113l-1.594.056s2.265-4.381.797-2.913l-2.683 2.676.71 3.086-.631.213-3.52-4.388-1.097 3.015 1.918-.647c-.908-1.137.197.118.268.347l1.152 3.45 1.555-1.098.568-.403.174 1.832c.047.505-1.397.237-2.17.213l-9.944-.284c-.371-.008-.047-1.429.079-1.8l.529-1.531c.087-.245-1.152-.955-1.413-.955l-5.121.118c-.576.016-1.389 1.95-1.594 2.392l-5.674-.505-1.287 2.723c-.118.244-.868-.86-.781-1.082.11-.26-.647-1.365-.821-1.097l-1.444 2.202c-.781-.813-1.231-1.35-1.539-1.128-2.896 2.115-6.392 2.28-9.714.742l-2.691 1.27-38.732 4.002-57.633 7.988-2.73-.718-3.323 1.524c.845-1.54 2.715-4.57 1.76-5.676s-6.274-1.594-7.315 1.737l-4.972-.332c-.9-.063-.758 3.37-.245 3.118.663 1.334.868 1.76.624 1.318l-2.676-.678c-.323-.08-.157-.98-.031-2.605.971-.15-1.373-.348-1.357.016l.276 5.162-4.135.781c.686-1.042 1.341-2.155 1.12-2.944-.702-2.502-5.611-.063-8.136-1.942-.371-.276-.213-1.973-.229-2.455-.016-.434-1.176-1.231-1.515-.963s-.805 1.09-.742 1.5l.631 3.789 2.605-.545-.135 1.468c-.023.293-.781.269-1.096.245l-5.043-.402-.308 3.836c-.032.379-1.547.426-1.626.37l.624-3.235c.213-.135-1.784-.206-1.752.189l.221 3.157-7.118 1.137-20.526 2.96c-30.036 4.333-66.243 4.191-95.868-1.863l-1.799-2.194c-.758.3-2.699 1.089-3.314.908l-7.387-2.148c-.537-.157-1.673-1.555-2.13-1.878-.372-.26-1.587-.134-2.037-.229-.3-.063-.765-.947-.86-1.129l2.612-3.694c.26-.37.268-2.17-.166-2.313-.434-.142-1.467-.378-2.036-.378h-4.466l-1.318 2.533-5.28-.529c-.497-.047-2.738 5.368-2.138 1.319.844.544-1.058-1.113-1.192-.813-.252.576-.702 2.462-.552 3.125l1.057 4.484-4.293.75c-.205.04-.994.615-1.01.615-.584-.055-.773-.963-2.691-.892-.434.016-.852 1.366-.426 1.46l2.067.474L6.7 30.318l-.694-2.739c.639.19 1.523.474 1.704.869l.45.97c-.426.261-.529.3-.537.395l-.094 2.053.805-1.524.434-.781c5.271 1.16 5.99 15.076 3.235 18.383l-1.444 1.737.292 2.076-3.859 7.727c-2.707 5.423-.34 11.493 5.2 13.916 3.568 1.563 6.843 5.92 4.436 9.583l-2.589 3.939c-.418.631-2.557.947-3.346 1.27l-3.685 1.516-.048 3.055c.932-.166-.868.15-1.223.213-.71.126-.229-2.013-.087-2.881-.11-.237-1.562 1.12-1.523 1.523.324 3.623 4.017 4.081 1.894 4.342l-4.522.552c-.552.071.687 1.508 1.752 2.305l.056-1.54c-.821.088.955-.102 1.183-.133l4.151 3.962c4.049 3.868 6.282-.031 9.32 2.273l1.366-2.391c1.594-2.787 4.616-6.6 5.247-10.333 1.626-9.59.719-18.817-2.596-27.903l-1.01-3.946c-.245-.956-1.602-2.866-1.634-3.86l-.126-3.813 3.788.355-3.164-3.702c-.277-.323.82-1.428.639-1.097l2.099 2.037c.481.473 1.318 1.35 1.634 1.855l2.296 3.638 1.926-2.62 2.493 2.17-.229.087-1.696 1.13c-.276.18.757 1.357 1.097 1.325l2.549-.26 3.14 1.673c.23.127 1.082-.908.932-1.113l-1.034-1.444c-.94-.024.86-.127 1.05.008l3.298 2.376c.292.213 1.989-.198 1.823-.53l-.781-1.57c-.245-.466-.623-1.192-.284-.537l2.517-.67c.04 2.225 2.091 5.532 3.788 6.117.221.079.655-1.05.987-2.171-1.168-.205.023-.024 1.01.134.465.513 3.022 1.697 3.07.876l.197-3.244c.032-.474.718-1.894.323-2.17l-2.036-1.413c-.126.118.237-.23.277-.261l35.654 2.834c20.794.552 40.981-.419 61.554-2.1 8.713.995 16.912.742 25.632-.26l13.898-5.02c.331.189 1.499.954 1.957.883l2.217-.347-1.941 4.618 2.565.181.891 3.04 3.047-1.011.347-1.729.055-1.728c2.407-.071 4.443-.75 6.653-1.91l-2.281-3.324c-.332-.49-1.807-.252-2.841.071l-1.152-1.468c2.817-.055 4.569.434 6.826 1.587l5.13 2.62c-.277.592-.876 2.345-.324 2.913.9.916 1.989 2.234 2.336 2.881l-.616.6-.615-1.034c-.142-.237-.363-.229-.537-.071-.197.19-.41.608-.308.813l1.492 2.968c-.426.102 1.199.308 1.073-.047l-.678-1.84c.173-.6.244-.702.37-.781l3.773-2.226-.647-3.11 1.436.97 6.242-.023c9.88-.04 19.508-.016 23.841-8.675.726-1.452 3.014-3.252 4.632-3.054 1.136.134 2.202 2.897 2.202 4.112l.023 12.172c0 2.06.624 5.02 1.318 6.89 1.152 3.079 4.143 4.097 7.111 3.837 3.204-.292 5.429-2.116 5.279-5.7l-.426-10.047.75-2.929c.079-.308.079-1.287.323-1.129l3.82 2.4c.292.181 1.397-.308 1.618-.584.22-.276-.032-1.768-.379-1.855l-4.94-1.224.189-1.697c1.121.142 2.873.095 3.583.537 5.208 3.268 4.419 10.214 7.718 4.95l4.056 2.28.103-4.807 1.207.908c.844 1.01 1.207.505.663-.703-1.113-1.16-2.281-2.289-3.078-2.636l-2.02-.892c-.939-.418-.568 3.544-2.336 3.45.134-.955.687-2.629.189-2.929l-2.927-1.768 1.168-1.287c1.333 1.192 2.036 1.903 2.407 1.618.505-.378 1.223-1.27 1.633-1.941l1.018-1.666-.915 3.931 2.872.726-.016-2.186c0-.624 1.792-1.42 2.186-.987l3.197 3.513-.356-3.205 15.578 6.741 18.467 10.893c4.072 2.4 9.067 3.133 14.055 2.778l10.882-2.328c.284-.063.939 1.12 1.137 1.531.197.41 1.681.979 2.059.75l4.372-2.629-.102-2.612c-.04-1.003 4.53-.276 5.334-4.578l1.965 2.747.876 1.223c.198.268 1.618-.442 1.46-.734l-.883-1.705-1.531-2.96 1.523.67c1.973.877 1.712-2.296 2.47-1.546l1.775 1.784.292-1.934.04-4.618 1.318 1.413 4.174-1.444c.679-.237 3.102-1.327 2.66-1.887l-2.052-2.636c-.631-.813-1.768-2.132-1.492-2.89.277-.757 1.492-1.862 2.392-2.58l-.624-1.508c2.21-3.742-.615-5.73 1.081-8.407.679-1.073 1.926-3.662 1.539-4.696-.663-1.776-6.013.276-5.8-.608l.284-1.192c.063-.26-.442-1.594-.221-.797l-1.641.9c.086-.553.323-1.87-.032-2.226l-1.728-1.713 1.128-.758-.702-.75c0 .016-.931 1.406-.789 1.145l-.821-1.334-2.123.403-2.644-5.77c-.173-.38.308-1.863.45-2.613-4.814.055-4.127 4.31-7.086 3.623.173.513.118 2.802-.663 2.7-3.93-.537.986-1.571-.261-2.842l-2.927-3-1.508.387-.931-.892c-.253.103 1.089-.773 1.081-.773s-1.191-.466-.836-.324l-.647.695zm-3.693.695.379.379-.379.378-.379-.378zm4.916 4.183-2.052.797c-.497.198-1.759-1.452-1.688-1.973l.213-1.531c.039-.284 1.207.031 1.128.308l-.386 1.405 2.359.639.418.355zm-.039-.805.363-1.113c.11-.324 2.123.126 1.846.332l-1.736 1.286-.481-.505zm-24.164-.363c0-.466.379-.837.836-.837.458 0 .837.38.837.837a.84.84 0 0 1-.837.837.84.84 0 0 1-.836-.837m32.86 3.276c-.071 1.05-.228-2.21.213-1.863L359.897 10l.986 1.981zm7.513 3.496.379.38-.379.378-.379-.379zM193.21 21.336c.19-1.295.671-2.613 1.65-3.694l-.884 4.602zM18.735 19.284l2.438-.782-1.286 4.16zm168.304-.08.024.53v.544l-.008.529-.04-.529v-.545zm-174.696.86.378.38-.379.379-.378-.38zm176.693 2.464c-.071.544-.071-1.105.244-.987.316.118 1.208.434 1.05.379l.797 1.563-.269.284-1.815-1.24zm-15.066 2.415c.529-2.447 1.626-1.997 1.468.032zm-6.171 1.034c-.252-.829-.702-2.313-.671-2.202l1.555 1.2c.237.181-.797 1.294-.884 1.002m202.633 15.834a2.43 2.43 0 0 1 1.42-1.42zm-100.823.11c.592-.923.899-1.46 1.136-1.357l2.66 1.113-3.804.245zm99.576.348.489.016-.489.016h-.505l-.489-.016.489-.016zM21.197 45.024c-1.208-.829-1.255-1.91.402-.703.782.245.955.569-.402.703m6.858 3.078-2.257-3.212c-1.444-.656-.521-.703.418-.458l2.186 1.863c.458.386.142 1.926-.237 2.383l-.118-.576zm251.339-1.31 2.407-1.168-1.12 3.425zm85.506-.174c.892.055 1.207.174.039.355zm-170.096 2.897-.355-1.823c-.071-.371.647-1.05.979-1.397l.773 3.417c.205-.142-.481.332-.813.553zm3.331-1.823c1.688.608 2.099.758 1.988.718l-1.783 1.105c-.276.174-.261-1.192-.205-1.815zm-164.753 6.78c-3.039.316.852-1.334 1.79-4.452l-2.288-.347c.505-.892.837-1.634 1.216-1.555l1.586.331c2.667.56.22 3.6 4.12 4.192.268.04.875 1.058.607 1.09l-7.031.733zm-3.457-5.999 1.334.584-.821 1.871c-.126.292-1.286-.071-1.192-.387l.671-2.068zm182.959 1.058a4.5 4.5 0 0 1-.276.584zm-173.6.268h.537l-.537.024h-.56l-.544-.008h.544l.56-.008zm172.874 1.026-.426-.497s.347.403.426.497m-17.543-.292h.016c-1.184.063-1.602.087-.016 0M47.634 54.82l-1.531-3.804c1.294-.032 2.762.963 2.667 1.168l-1.27 2.692c-.08.165-1.587 1.018.134-.056m165.629-2.652c-.458.624-1.231 1.453-1.334 1.129l-.402-1.326c-.095-.324.899-.079 1.728.19zm-20.045 1.39c.553-1.01 1.989-1.208 2.557-.735zM49.473 56.903c-.442.498-.908-2.265-.26-2.178l1.972.252zm301.759-.686.015.489v.505l-.015.49-.016-.49v-.505z"/><path d="m374.63 37.817 2.265.876c.363.142.955-.765.916-1.144-.056-.513-.845-1.397-1.381-1.524l-3.102-.75c.063.648.726 2.321 1.31 2.55zm-2.178-23.127c-.268.584-.852 1.862-.552 2.028l1.168.663c.3.174 1.27-.663 1.318-.994l.244-1.808c.071-.529-1.941-.387-2.17.11zM189.706 12.1c-.41-.126-1.46.498-1.61.908-.197.553.537 2.17 1.066 1.926l1.728-.781c.529-.237-.592-1.887-1.184-2.06zm11.048 39.388-.481 3.979 2.983-3.979zM24.898 22.267l2.975 2.597-.86-3.173c-.063-.245-.852-.82-1.05-1.002-.197-.182-1.23 1.42-1.057 1.57zm27.076 39.641 1.239 1.073c.252.213 1.057.142 1.365.024.458-.182.434-1.666-.023-1.784l-3.339-.868c-.284-.434.442 1.278.75 1.555zM11.238 84.609c-.26-.229-1.815-.41-1.744-.071l.442 2.155c.07.331 1.27-.04 1.546-.237.41-.3.134-1.508-.252-1.847zm17.566-25.74c-.181-.253-2.044-.395-1.973-.087l.434 1.91c.072.308 1.05-.016 1.295-.22.355-.309.528-1.224.252-1.603zm240.915-1.453 1.01 1.105.908-2.968-1.886-.047zM150.643 25.97c-.245.899 2.083 1.01 2.217.054.071-.505-2.067-.584-2.217-.055m224.974 4.571c.102.9 2.367.884 2.383.015.016-.663-2.462-.679-2.383-.016M9.588 37.762c-.055 1.657.49 2.194 1.105.505 1.097-1.113-.434-2.842-1.105-.505m346-34.281c-.245-.41-2.533.52-2.17.845l1.546 1.412c.466.427 1.074-1.515.632-2.257zm-84.63 47.281 3.109.04-1.246-1.468c-.198-.23-.727.3-1.863 1.42zm-52.755 2.068c-.055 1.65.489 2.195 1.105.49 1.152-1.082-.505-2.929-1.105-.49m-197.093.127c-.284 1.136 2.1 1.184 2.202.165.047-.497-2.076-.678-2.202-.165m19.405 5.714 1.72 1.792.632-1.665c.118-.308-.836-.237-2.352-.119zm148.173-7.821c.703.038.868-.317.339-.98-.954-1.184-2.998.845-.339.98m-12.169-32.174c.348.04.782-.932.584-1.176-1.183-1.43-2.825.915-.584 1.176M12.713 106a.837.837 0 1 1 .001-1.674.837.837 0 0 1 0 1.674M320.107 4.468c-.221.126.387.197 1.941.584l-.473-1.453c.181-.11-1.018.608-1.468.86zm15.917 1.768c-.844-.277-1.807-.521-1.712-.205l.395 1.326c.094.315.86-.506 1.317-1.121M50.396 60.392c.008-.34-1.673-.426-1.563-.103l.45 1.31c.11.325 1.097-.867 1.113-1.207m137.921-43.879c-.268.134.379.205 1.934.616l-.442-1.46c.213-.127-1.073.623-1.492.836zm169.259 39.562c-.3-.269-1.554-.703-1.46-.38l.395 1.374c.095.324 1.318-.766 1.065-.987zm1.563.221a.836.836 0 1 1 0-1.673.836.836 0 0 1 0 1.672M15.68 16.71c.103-.331-1.601-.41-1.49-.095l.473 1.358c.11.316.868-.805 1.01-1.27zm164.225 4.192a.837.837 0 1 1 0-1.674.837.837 0 0 1 0 1.674m191.561 26.024c-.924-.308-1.855-.545-1.76-.229l.394 1.326c.095.324.979-.576 1.366-1.097m4.672-20.72c.978 1.042 1.294 1.373.836.892zM12.05 42c.916.672.632.458-.157-.118-.955-.702-.75-.544.157.119m272.647 2.179 1.16-1.619c-.15.032-.473.45-1.16 1.618M243.59 47.29c.979 1.041 1.294 1.373.837.891zm-37.651 2.257c.979 1.05 1.287 1.373.845.9zm-3.441-30.327 1.421-1.42a2.43 2.43 0 0 0-1.421 1.42m73.093 34.518c-.063 0 1.46-.118 2.051-.174.332-.023-.528.048-2.051.174m-70.409 1.839c.978 1.042 1.294 1.374.836.892zM36.885 57.866c1.35.774 1.816 1.074 1.31.53zm-13.195.719c.98 1.041 1.295 1.373.837.892zm21.837 3.023c.978 1.026 1.294 1.357.844.884-.584-.616-1.223-1.287-.844-.884m319.357-52.72c.939 1.058 1.223 1.381.789.9zm-33.981-6.891-.016.49v.505l.016.489.008-.49v-.505zM187.055 15.55l-.008.49v.512l.008.49.015-.49v-.513zm-19.579 4.515-.008.497v.505l.008.49.015-.49v-.505zm-3.007 1.5-.016.552v.569l.016.552.008-.552v-.569zm39.908 26.371-.032.498-.008.505.024.49.024-.498v-.505zm64.017.577-.016.552v.569l.016.552.007-.553v-.568zm-51.335 4.294h-.505l-.498.015.498.008h.505l.489-.008zm-17.954-.356-.008.49v.513l.008.49.016-.49v-.513zm8.16 1.113h-.505l-.489.008.489.016h.505l.497-.016zM53.9 56.098c-.142.853-.182 1.105 0 0-.53-.434-.955-.79 0 0m-27.25-.631-.016.49v.504l.016.498.008-.498v-.505zm0 12.803-.016.49v.504l.016.498.008-.498v-.505zM4.806 98.864l-.371.648.37.379.38-.38zm16.596-42.669.374.374-.374.374-.374-.374zm252.269-.74.374.374-.374.374-.374-.374zm-59.501-1.149-.379.774.379.379.379-.38zm-9.781-1.87.374.373-.374.374-.374-.374zm18.072-.004.374.374-.374.374-.374-.374zM10.106 32.838l.374.374-.374.374-.374-.374z"/></g><defs><clipPath id="a"><path fill="#fff" d="M378 0H0v106h378z"/></clipPath></defs></svg>