<svg width="378" height="106" viewBox="0 0 378 106" fill="none" xmlns="http://www.w3.org/2000/svg">
<g clip-path="url(#clip0_15_1817)">
<path d="M279.536 51.6621C278.873 53.8722 281.036 53.5012 280.957 51.6858C280.949 51.4647 279.607 51.4332 279.536 51.6621Z" fill="#EC691F"/>
<path d="M283.23 52.1515C282.804 51.8989 281.423 51.5989 281.533 51.9384L281.983 53.296C282.093 53.6354 283.522 52.3251 283.23 52.1515Z" fill="#EC691F"/>
<path d="M5.30316 34.5019C6.13967 35.1492 5.83978 34.9202 5.09797 34.344C4.15098 33.6178 4.38773 33.7994 5.30316 34.5019Z" fill="#EC691F"/>
<path d="M8.39667 48.8205C9.5883 49.5545 10.1091 49.8782 9.8724 49.7361C9.24896 49.3572 8.15203 48.6784 8.39667 48.8205Z" fill="#EC691F"/>
<path d="M348.146 3.55201L345.944 1.4287L346.063 3.02316C346.11 3.69409 346.157 4.30978 346.157 4.27031C345.4 3.49676 345.179 3.14945 344.934 3.15735L343.34 3.2126C343.34 3.2126 345.605 -1.16822 344.137 0.299948L341.454 2.9758L342.164 6.0621L341.533 6.27522L338.013 1.88651L336.916 4.90178L338.834 4.25452C337.926 3.11788 339.031 4.37292 339.102 4.60183L340.254 8.05123L341.809 6.95405L342.377 6.55149L342.551 8.38275C342.598 8.88793 341.154 8.61955 340.381 8.59587L330.437 8.31171C330.066 8.30382 330.39 6.88301 330.516 6.51203L331.045 4.98071C331.132 4.73602 329.893 4.02562 329.632 4.02562L324.511 4.14402C323.935 4.1598 323.122 6.09368 322.917 6.53571L317.243 6.03053L315.956 8.75374C315.838 8.99844 315.088 7.89336 315.175 7.67235C315.285 7.41187 314.528 6.3068 314.354 6.57517L312.91 8.77742C312.129 7.9644 311.679 7.42766 311.371 7.64867C308.475 9.76409 304.979 9.92985 301.657 8.39065L298.966 9.66148L260.234 13.6634L202.601 21.6515L199.871 20.9332L196.548 22.4566C197.393 20.9174 199.263 17.8864 198.308 16.7813C197.353 15.6762 192.034 15.1868 190.993 18.5178L186.021 18.1863C185.121 18.1232 185.263 21.5568 185.776 21.3042C186.439 22.6382 186.644 23.0644 186.4 22.6224L183.724 21.9436C183.401 21.8646 183.567 20.9648 183.693 19.3387C184.664 19.1888 182.32 18.9914 182.336 19.3545L182.612 24.5168L178.477 25.2982C179.163 24.2563 179.818 23.1433 179.597 22.354C178.895 19.8518 173.986 22.2909 171.461 20.4122C171.09 20.136 171.248 18.4389 171.232 17.9574C171.216 17.5233 170.056 16.726 169.717 16.9944C169.378 17.2628 168.912 18.0837 168.975 18.4942L169.606 22.283L172.211 21.7383L172.076 23.2065C172.053 23.4985 171.295 23.4749 170.98 23.4512L165.937 23.0486L165.629 26.8848C165.597 27.2637 164.082 27.311 164.003 27.2558L164.627 24.0195C164.84 23.8853 162.843 23.8143 162.875 24.209L163.096 27.3663L155.978 28.5029L135.452 31.463C105.416 35.7964 69.2094 35.6543 39.5843 29.6001L37.785 27.4058C37.0274 27.7057 35.0861 28.495 34.4706 28.3135L27.084 26.1665C26.5474 26.0086 25.411 24.6115 24.9533 24.2879C24.5824 24.0274 23.3671 24.1537 22.9172 24.059C22.6173 23.9958 22.1517 23.1118 22.057 22.9302L24.6692 19.2361C24.9296 18.8651 24.9375 17.0655 24.5034 16.9234C24.0694 16.7813 23.0356 16.5445 22.4674 16.5445H18.0008L16.6829 19.0783L11.4034 18.5494C10.9062 18.502 8.66501 23.9169 9.26477 19.8676C10.1092 20.4122 8.20728 18.7546 8.07312 19.0546C7.82059 19.6308 7.37079 21.5173 7.52072 22.1804L8.57819 26.6638L4.28516 27.4137C4.07999 27.4531 3.29083 28.0293 3.27502 28.0293C2.69107 27.9741 2.50165 27.0664 0.583984 27.1374C0.149963 27.1532 -0.268311 28.5029 0.157837 28.5977L2.22543 29.0713L6.69998 30.3184L6.00552 27.5794C6.64474 27.7689 7.52859 28.053 7.71011 28.4477L8.15994 29.4186C7.7338 29.6791 7.63123 29.7185 7.62332 29.8132L7.52859 31.8655L8.33356 30.3421L8.76758 29.5607C14.0392 30.721 14.7573 44.637 12.0031 47.9443L10.559 49.6808L10.851 51.7568L6.99197 59.4844C4.28516 64.9071 6.65265 70.9771 12.1925 73.4004C15.7596 74.9633 19.0345 79.3204 16.6276 82.9829L14.0392 86.9217C13.6209 87.5532 11.4823 87.8689 10.6931 88.1926L7.00778 89.7081L6.96042 92.7628C7.8916 92.5971 6.09235 92.9128 5.73721 92.9759C5.02698 93.1022 5.50836 90.9631 5.65042 90.0949C5.53995 89.8581 4.08786 91.2157 4.12732 91.6183C4.45087 95.2413 8.14417 95.6992 6.02133 95.9596L1.49942 96.5122C0.947021 96.5832 2.186 98.0198 3.25137 98.817L3.30661 97.2778C2.48587 97.3647 4.26151 97.1752 4.49036 97.1436L8.64133 101.106C12.6897 104.974 14.923 101.075 17.9613 103.379L19.3266 100.988C20.9207 98.2014 23.9431 94.3889 24.5745 90.6553C26.2001 81.0649 25.2926 71.8375 21.9781 62.7523L20.968 58.8056C20.7234 57.8505 19.366 55.9403 19.3345 54.9457L19.2082 51.1332L22.9962 51.4884L19.8316 47.7864C19.5554 47.4628 20.6524 46.3577 20.4709 46.6893L22.57 48.7257C23.0514 49.1993 23.8879 50.0755 24.2036 50.5807L26.5 54.2195L28.4256 51.5989L30.9193 53.7696C32.0163 53.3591 31.7716 53.4539 30.6905 53.8564L28.9938 54.9852C28.7176 55.1667 29.7514 56.3428 30.0907 56.3113L32.6397 56.0508L35.7805 57.7242C36.0094 57.8505 36.8617 56.8164 36.7118 56.6112L35.678 55.1667C34.7389 55.143 36.5381 55.0404 36.7275 55.1746L40.0262 57.5505C40.3182 57.7636 42.0149 57.3532 41.8492 57.0217L41.0679 55.4509C40.8233 54.9852 40.4445 54.259 40.7838 54.9141L43.3013 54.2432C43.3407 56.4691 45.3925 59.7765 47.0892 60.3606C47.3102 60.4395 47.7442 59.3107 48.0757 58.1899C46.9077 57.9847 48.0993 58.1662 49.0858 58.3241C49.5514 58.8371 52.1083 60.0211 52.1556 59.2002L52.3529 55.9561C52.3845 55.4825 53.0711 54.0617 52.6765 53.7854L50.6404 52.3725C50.5142 52.4909 50.8772 52.1436 50.9167 52.112L86.5709 54.9457C107.365 55.4982 127.552 54.5274 148.125 52.8461C156.838 53.8406 165.037 53.5881 173.757 52.5856L187.655 47.5654C187.986 47.7549 189.154 48.5205 189.612 48.4495L191.829 48.1022L189.888 52.7198L192.453 52.9013L193.344 55.9403L196.391 54.9299L196.738 53.2013L196.793 51.4726C199.2 51.4016 201.236 50.7228 203.446 49.5624L201.165 46.2393C200.833 45.7499 199.358 45.9867 198.324 46.3104L197.172 44.8422C199.989 44.787 201.741 45.2763 203.998 46.4288L209.128 49.0494C208.851 49.6414 208.252 51.3937 208.804 51.962C209.704 52.8777 210.793 54.1958 211.14 54.8431L210.524 55.443L209.909 54.409C209.767 54.1722 209.546 54.1801 209.372 54.3379C209.175 54.5274 208.962 54.9457 209.064 55.1509L210.556 58.1188C210.13 58.2215 211.755 58.4267 211.629 58.0715L210.951 56.2323C211.124 55.6324 211.195 55.5298 211.321 55.4509L215.094 53.225L214.447 50.115L215.883 51.0859L222.125 51.0622C232.005 51.0227 241.633 51.0464 245.966 42.3874C246.692 40.935 248.98 39.1353 250.598 39.3326C251.734 39.4668 252.8 42.2295 252.8 43.4451L252.823 55.6166C252.823 57.6768 253.447 60.6368 254.141 62.5076C255.293 65.586 258.284 66.6042 261.252 66.3437C264.456 66.0517 266.681 64.2283 266.531 60.6447L266.105 50.5965L266.855 47.668C266.934 47.3602 266.934 46.3814 267.178 46.5393L270.998 48.9389C271.29 49.1204 272.395 48.631 272.616 48.3548C272.836 48.0785 272.584 46.5866 272.237 46.4998L267.297 45.2763L267.486 43.5793C268.607 43.7213 270.359 43.674 271.069 44.116C276.277 47.3839 275.488 54.33 278.787 49.0652L282.843 51.3463L282.946 46.5393L284.153 47.447C284.997 48.4574 285.36 47.9522 284.816 46.7445C283.703 45.5842 282.535 44.4554 281.738 44.1081L279.718 43.2162C278.779 42.7978 279.15 46.7603 277.382 46.6656C277.516 45.7105 278.069 44.0371 277.571 43.7371L274.644 41.969L275.812 40.6824C277.145 41.8743 277.848 42.5847 278.219 42.3005C278.724 41.9217 279.442 41.0297 279.852 40.3588L280.87 38.6933L279.955 42.6242L282.827 43.3504L282.811 41.1639C282.811 40.5403 284.603 39.7431 284.997 40.1772L288.194 43.6898L287.838 40.4851L303.416 47.226L321.883 58.1188C325.955 60.5184 330.95 61.2525 335.938 60.8973L346.82 58.5688C347.104 58.5056 347.759 59.6896 347.957 60.1001C348.154 60.5105 349.638 61.0789 350.016 60.8499L354.388 58.2215L354.286 55.6088C354.246 54.6063 358.816 55.3325 359.62 51.0306L361.585 53.7775L362.461 55.001C362.659 55.2693 364.079 54.5589 363.921 54.2669L363.038 52.5619L361.507 49.6019L363.03 50.2728C365.003 51.149 364.742 47.9759 365.5 48.7257L367.275 50.5096L367.567 48.5758L367.607 43.9581L368.925 45.3711L373.099 43.9266C373.778 43.6898 376.201 42.6005 375.759 42.0401L373.707 39.4037C373.076 38.5907 371.939 37.2725 372.215 36.5147C372.492 35.7569 373.707 34.6519 374.607 33.9336L373.983 32.4259C376.193 28.6845 373.368 26.6954 375.064 24.0195C375.743 22.946 376.99 20.357 376.603 19.323C375.94 17.5469 370.59 19.5992 370.803 18.7152L371.087 17.5233C371.15 17.2628 370.645 15.9288 370.866 16.726L369.225 17.6259C369.311 17.0733 369.548 15.7552 369.193 15.4L367.465 13.6871L368.593 12.9293L367.891 12.1795C367.891 12.1952 366.96 13.5845 367.102 13.324L366.281 11.99L364.158 12.3926L361.514 6.62253C361.341 6.24365 361.822 4.7597 361.964 4.00983C357.15 4.06508 357.837 8.31961 354.878 7.63288C355.051 8.14595 354.996 10.435 354.215 10.3324C350.285 9.79567 355.201 8.76163 353.954 7.4908L351.027 4.49132L349.519 4.8781L348.588 3.98615C348.335 4.08876 349.677 3.2126 349.669 3.2126C349.661 3.2126 348.478 2.74689 348.833 2.88897L348.186 3.58359L348.146 3.55201ZM344.453 4.24663L344.832 4.62551L344.453 5.00439L344.074 4.62551L344.453 4.24663ZM349.369 8.43011L347.317 9.22734C346.82 9.42468 345.558 7.77496 345.629 7.254L345.842 5.72269C345.881 5.43853 347.049 5.75426 346.97 6.03053L346.584 7.43555L348.943 8.07491L349.361 8.43011H349.369ZM349.33 7.62499L349.693 6.51203C349.803 6.1884 351.816 6.63832 351.539 6.84355L349.803 8.13017L349.322 7.62499H349.33ZM325.166 7.2619C325.166 6.79619 325.545 6.4252 326.002 6.4252C326.46 6.4252 326.839 6.80408 326.839 7.2619C326.839 7.71971 326.46 8.09859 326.002 8.09859C325.545 8.09859 325.166 7.71971 325.166 7.2619ZM358.026 10.5376C357.955 11.5875 357.798 8.3275 358.239 8.67481L359.897 10.0009L360.883 11.9821L358.026 10.5376ZM365.539 14.0344L365.918 14.4133L365.539 14.7922L365.16 14.4133L365.539 14.0344ZM193.21 21.3358C193.4 20.0413 193.881 18.7231 194.86 17.6417L193.976 22.2435L193.21 21.3358ZM18.7347 19.2835L21.1732 18.502L19.8869 22.6618L18.7347 19.2835ZM187.039 19.2046L187.063 19.7334V20.2781L187.055 20.8069L187.015 20.2781V19.7334L187.039 19.2046ZM12.3425 20.0649L12.7213 20.4438L12.3425 20.8227L11.9637 20.4438L12.3425 20.0649ZM189.036 22.5277C188.965 23.0723 188.965 21.4226 189.28 21.541C189.596 21.6594 190.488 21.9751 190.33 21.9199L191.127 23.4828L190.858 23.7669L189.043 22.5277H189.036ZM173.97 24.943C174.499 22.4961 175.596 22.946 175.438 24.9746L173.97 24.943ZM167.799 25.9771C167.547 25.1483 167.097 23.6643 167.128 23.7748L168.683 24.9746C168.92 25.1562 167.886 26.2691 167.799 25.9771ZM370.432 41.8112C370.677 41.156 371.197 40.635 371.852 40.3903L370.432 41.8112ZM269.609 41.9217C270.201 40.9981 270.508 40.4614 270.745 40.564L273.405 41.677L269.601 41.9217H269.609ZM369.185 42.269L369.674 42.2848L369.185 42.3005H368.68L368.191 42.2848L368.68 42.269H369.185ZM21.1969 45.0238C19.9894 44.195 19.9421 43.1136 21.5993 44.3212C22.3806 44.5659 22.5542 44.8896 21.1969 45.0238ZM28.0547 48.1022L25.7977 44.8896C24.3535 44.2344 25.2768 44.1871 26.2159 44.4318L28.4019 46.2946C28.8596 46.6814 28.544 48.2206 28.1652 48.6784L28.0468 48.1022H28.0547ZM279.394 46.7919L281.801 45.6236L280.681 49.0494L279.394 46.7919ZM364.9 46.6182C365.792 46.6735 366.107 46.7919 364.939 46.9734L364.9 46.6182ZM194.804 49.5151L194.449 47.6917C194.378 47.3207 195.096 46.6419 195.428 46.2946L196.201 49.7124C196.406 49.5703 195.72 50.0439 195.388 50.2649L194.804 49.5151ZM198.135 47.6917C199.823 48.2995 200.234 48.4495 200.123 48.41L198.34 49.5151C198.064 49.6887 198.079 48.3232 198.135 47.6996V47.6917ZM33.3815 54.4721C30.3432 54.7878 34.2338 53.1381 35.1729 50.0203L32.8843 49.6729C33.3894 48.781 33.7209 48.039 34.0996 48.118L35.6859 48.4495C38.3532 49.0099 35.9068 52.0488 39.8053 52.6409C40.0736 52.6803 40.6812 53.6986 40.4129 53.7301L33.3815 54.4642V54.4721ZM29.925 48.4732L31.2587 49.0573L30.4379 50.928C30.3117 51.22 29.1516 50.8569 29.2463 50.5412L29.9171 48.4732H29.925ZM212.884 49.5309C212.923 49.4519 212.726 49.9255 212.608 50.115L212.884 49.5309ZM39.2844 49.7992H39.821L39.2844 49.8229H38.7241L38.1796 49.815H38.7241L39.2844 49.8071V49.7992ZM212.158 50.8254L211.732 50.3281C211.732 50.3281 212.079 50.7307 212.158 50.8254ZM194.615 50.5333H194.631C193.447 50.5965 193.029 50.6201 194.615 50.5333ZM47.6337 54.8194L46.1028 51.0148C47.397 50.9832 48.8648 51.9778 48.7701 52.183L47.4996 54.8747C47.4207 55.0404 45.9134 55.8929 47.6337 54.8194ZM213.263 52.1672C212.805 52.7908 212.032 53.6196 211.929 53.296L211.527 51.9699C211.432 51.6463 212.426 51.891 213.255 52.1594L213.263 52.1672ZM193.218 53.5565C193.771 52.5461 195.207 52.3488 195.775 52.8224L193.218 53.5565ZM49.4725 56.9033C49.0306 57.4005 48.5649 54.6379 49.2121 54.7247L51.185 54.9773L49.4725 56.9033ZM351.232 56.2165L351.247 56.7059V57.2111L351.232 57.7005L351.216 57.2111V56.7059L351.232 56.2165Z" fill="#EC691F"/>
<path d="M374.63 37.8171L376.895 38.6933C377.258 38.8354 377.85 37.9276 377.811 37.5487C377.755 37.0357 376.966 36.1516 376.43 36.0253L373.328 35.2755C373.391 35.9227 374.054 37.5961 374.638 37.825L374.63 37.8171Z" fill="#EC691F"/>
<path d="M372.452 14.6896C372.184 15.2737 371.6 16.5524 371.9 16.7181L373.068 17.3812C373.368 17.5548 374.338 16.7181 374.386 16.3866L374.63 14.579C374.701 14.0502 372.689 14.1923 372.46 14.6896H372.452Z" fill="#EC691F"/>
<path d="M189.706 12.1005C189.296 11.9742 188.246 12.5978 188.096 13.0083C187.899 13.5608 188.633 15.1789 189.162 14.9342L190.89 14.1528C191.419 13.916 190.298 12.2663 189.706 12.0926V12.1005Z" fill="#EC691F"/>
<path d="M200.754 51.4884L200.273 55.4667L203.256 51.4884H200.754Z" fill="#EC691F"/>
<path d="M24.8979 22.2672L27.873 24.8641L27.0129 21.691C26.9497 21.4463 26.1606 20.8701 25.9633 20.6885C25.766 20.507 24.7322 22.1093 24.9058 22.2593L24.8979 22.2672Z" fill="#EC691F"/>
<path d="M51.974 61.9077L53.213 62.9812C53.4655 63.1943 54.2705 63.1232 54.5782 63.0048C55.0359 62.8233 55.0123 61.3393 54.5546 61.2209L51.2164 60.3527C50.9323 59.9185 51.6583 61.6314 51.9661 61.9077H51.974Z" fill="#EC691F"/>
<path d="M11.2376 84.609C10.9772 84.3801 9.42258 84.1985 9.49361 84.5379L9.93553 86.6928C10.0066 87.0244 11.2061 86.6534 11.4823 86.456C11.8926 86.1561 11.6164 84.9484 11.2297 84.609H11.2376Z" fill="#EC691F"/>
<path d="M28.8043 58.8687C28.6228 58.6161 26.7604 58.4741 26.8314 58.7819L27.2655 60.6921C27.3365 60.9999 28.315 60.6763 28.5597 60.4711C28.9148 60.1632 29.0884 59.2476 28.8122 58.8687H28.8043Z" fill="#EC691F"/>
<path d="M269.719 57.4163L270.729 58.5214L271.637 55.5535L269.751 55.5061L269.719 57.4163Z" fill="#EC691F"/>
<path d="M150.643 25.9692C150.398 26.869 152.726 26.9795 152.86 26.0244C152.931 25.5193 150.793 25.4403 150.643 25.9692Z" fill="#EC691F"/>
<path d="M375.617 30.5394C375.719 31.4393 377.984 31.4235 378 30.5552C378.016 29.8922 375.538 29.8764 375.617 30.5394Z" fill="#EC691F"/>
<path d="M9.58822 37.7619C9.53298 39.4195 10.0775 39.9562 10.693 38.267C11.79 37.1541 10.259 35.4254 9.58822 37.7619Z" fill="#EC691F"/>
<path d="M355.588 3.48097C355.343 3.07052 353.055 4.00193 353.418 4.32556L354.964 5.73848C355.43 6.16472 356.038 4.22295 355.596 3.48097H355.588Z" fill="#EC691F"/>
<path d="M270.958 50.7622L274.067 50.8017L272.821 49.3335C272.623 49.1046 272.094 49.6335 270.958 50.7543V50.7622Z" fill="#EC691F"/>
<path d="M218.203 52.8303C218.148 54.48 218.692 55.0247 219.308 53.3197C220.46 52.2383 218.803 50.3912 218.203 52.8303Z" fill="#EC691F"/>
<path d="M21.11 52.9566C20.8259 54.0932 23.2091 54.1406 23.3117 53.1224C23.3591 52.6251 21.2362 52.4435 21.11 52.9566Z" fill="#EC691F"/>
<path d="M40.5154 58.6714L42.2358 60.4632L42.8671 58.7977C42.9854 58.4898 42.0306 58.5609 40.5154 58.6793V58.6714Z" fill="#EC691F"/>
<path d="M188.688 50.8491C189.391 50.8885 189.556 50.5333 189.027 49.8703C188.073 48.6863 186.029 50.7149 188.688 50.8491Z" fill="#EC691F"/>
<path d="M176.519 18.6757C176.867 18.7152 177.301 17.7443 177.103 17.4996C175.92 16.0709 174.278 18.4152 176.519 18.6757Z" fill="#EC691F"/>
<path d="M12.7133 106C12.2513 106 11.8768 105.625 11.8768 105.163C11.8768 104.701 12.2513 104.327 12.7133 104.327C13.1753 104.327 13.5498 104.701 13.5498 105.163C13.5498 105.625 13.1753 106 12.7133 106Z" fill="#EC691F"/>
<path d="M320.107 4.46764C319.886 4.59394 320.494 4.66498 322.048 5.05175L321.575 3.59937C321.756 3.48887 320.557 4.20716 320.107 4.45975V4.46764Z" fill="#EC691F"/>
<path d="M336.024 6.23576C335.18 5.95949 334.217 5.7148 334.312 6.03053L334.707 7.35662C334.801 7.67235 335.567 6.85144 336.024 6.23576Z" fill="#EC691F"/>
<path d="M50.3957 60.3921C50.4036 60.0527 48.7227 59.9659 48.8332 60.2895L49.283 61.5998C49.3935 61.9235 50.3799 60.7316 50.3957 60.3921Z" fill="#EC691F"/>
<path d="M188.317 16.5129C188.049 16.6471 188.696 16.7181 190.251 17.1286L189.809 15.6683C190.022 15.542 188.736 16.2919 188.317 16.505V16.5129Z" fill="#EC691F"/>
<path d="M357.576 56.0745C357.276 55.8061 356.022 55.372 356.116 55.6956L356.511 57.069C356.606 57.3927 357.829 56.3034 357.576 56.0824V56.0745Z" fill="#EC691F"/>
<path d="M359.139 56.2955C358.677 56.2955 358.303 55.9209 358.303 55.4588C358.303 54.9967 358.677 54.6221 359.139 54.6221C359.601 54.6221 359.976 54.9967 359.976 55.4588C359.976 55.9209 359.601 56.2955 359.139 56.2955Z" fill="#EC691F"/>
<path d="M15.6806 16.7103C15.7832 16.3787 14.0786 16.2998 14.1891 16.6155L14.6626 17.9732C14.7731 18.2889 15.5307 17.1681 15.6727 16.7024L15.6806 16.7103Z" fill="#EC691F"/>
<path d="M179.905 20.9016C179.443 20.9016 179.068 20.527 179.068 20.0649C179.068 19.6028 179.443 19.2282 179.905 19.2282C180.367 19.2282 180.741 19.6028 180.741 20.0649C180.741 20.527 180.367 20.9016 179.905 20.9016Z" fill="#EC691F"/>
<path d="M371.466 46.9261C370.542 46.6182 369.611 46.3814 369.706 46.6971L370.1 48.0232C370.195 48.3469 371.079 47.447 371.466 46.9261Z" fill="#EC691F"/>
<path d="M376.138 26.206C377.116 27.2479 377.432 27.5794 376.974 27.0979L376.138 26.206Z" fill="#EC691F"/>
<path d="M12.0505 42.0006C12.9659 42.6715 12.6818 42.4584 11.8926 41.8822C10.9378 41.1797 11.1429 41.3376 12.0505 42.0006Z" fill="#EC691F"/>
<path d="M284.697 44.1792L285.857 42.561C285.707 42.5926 285.384 43.011 284.697 44.1792Z" fill="#EC691F"/>
<path d="M161.194 24.7141C162.03 25.3614 161.731 25.1325 160.989 24.5563C160.042 23.8301 160.278 24.0116 161.194 24.7141Z" fill="#EC691F"/>
<path d="M243.59 47.2892C244.569 48.3311 244.884 48.6626 244.427 48.1811L243.59 47.2892Z" fill="#EC691F"/>
<path d="M205.939 49.5467C206.918 50.5965 207.226 50.9201 206.784 50.4465L205.939 49.5467Z" fill="#EC691F"/>
<path d="M202.498 19.2203L203.919 17.7995C203.264 18.0442 202.743 18.5652 202.498 19.2203Z" fill="#EC691F"/>
<path d="M275.591 53.738C275.528 53.738 277.051 53.6196 277.642 53.5644C277.974 53.5407 277.114 53.6117 275.591 53.738Z" fill="#EC691F"/>
<path d="M205.182 55.5772C206.16 56.6191 206.476 56.9506 206.018 56.4691L205.182 55.5772Z" fill="#EC691F"/>
<path d="M36.8854 57.8663C38.2348 58.6398 38.7005 58.9398 38.1954 58.3951L36.8854 57.8663Z" fill="#EC691F"/>
<path d="M23.6905 58.5846C24.6691 59.6265 24.9847 59.958 24.527 59.4765L23.6905 58.5846Z" fill="#EC691F"/>
<path d="M45.5266 61.6077C46.5051 62.6339 46.8208 62.9654 46.371 62.4918C45.787 61.8761 45.1478 61.2052 45.5266 61.6077Z" fill="#EC691F"/>
<path d="M364.884 8.88793C365.823 9.94564 366.107 10.2693 365.673 9.78777L364.884 8.88793Z" fill="#EC691F"/>
<path d="M330.903 1.99702L330.887 2.48641V2.99158L330.903 3.48097L330.911 2.99158V2.48641L330.903 1.99702Z" fill="#EC691F"/>
<path d="M187.055 15.5499L187.047 16.0393V16.5524L187.055 17.0418L187.07 16.5524V16.0393L187.055 15.5499Z" fill="#EC691F"/>
<path d="M167.476 20.0649L167.468 20.5622V21.0674L167.476 21.5568L167.491 21.0674V20.5622L167.476 20.0649Z" fill="#EC691F"/>
<path d="M164.469 21.5647L164.453 22.1172V22.6855L164.469 23.2381L164.477 22.6855V22.1172L164.469 21.5647Z" fill="#EC691F"/>
<path d="M204.377 47.9364L204.345 48.4337L204.337 48.9389L204.361 49.4283L204.385 48.931V48.4258L204.377 47.9364Z" fill="#EC691F"/>
<path d="M268.394 48.5126L268.378 49.0652V49.6335L268.394 50.186L268.401 49.6335V49.0652L268.394 48.5126Z" fill="#EC691F"/>
<path d="M217.059 52.8066H216.554L216.056 52.8224L216.554 52.8303H217.059L217.548 52.8224L217.059 52.8066Z" fill="#EC691F"/>
<path d="M199.105 52.4514L199.097 52.9408V53.4539L199.105 53.9433L199.121 53.4539V52.9408L199.105 52.4514Z" fill="#EC691F"/>
<path d="M207.265 53.5644H206.76L206.271 53.5723L206.76 53.5881H207.265L207.762 53.5723L207.265 53.5644Z" fill="#EC691F"/>
<path d="M53.8995 56.0981C53.7575 56.9506 53.718 57.2032 53.8995 56.0981C53.3708 55.664 52.9447 55.3088 53.8995 56.0981Z" fill="#EC691F"/>
<path d="M26.6498 55.4667L26.6341 55.9561V56.4612L26.6498 56.9585L26.6577 56.4612V55.9561L26.6498 55.4667Z" fill="#EC691F"/>
<path d="M26.6498 68.2697L26.6341 68.7591V69.2643L26.6498 69.7616L26.6577 69.2643V68.7591L26.6498 68.2697Z" fill="#EC691F"/>
<path d="M4.80591 98.8644L4.435 99.5117L4.80591 99.8905L5.18469 99.5117L4.80591 98.8644Z" fill="#EC691F"/>
<path d="M21.4019 56.1949L21.7758 56.5689L21.4018 56.9428L21.028 56.5688L21.4019 56.1949Z" fill="#EC691F"/>
<path d="M273.671 55.4551L274.045 55.8291L273.671 56.203L273.297 55.829L273.671 55.4551Z" fill="#EC691F"/>
<path d="M214.17 54.3064L213.791 55.0799L214.17 55.4588L214.549 55.0799L214.17 54.3064Z" fill="#EC691F"/>
<path d="M204.389 52.4355L204.763 52.8095L204.389 53.1834L204.015 52.8094L204.389 52.4355Z" fill="#EC691F"/>
<path d="M222.461 52.432L222.835 52.806L222.461 53.1799L222.087 52.8059L222.461 52.432Z" fill="#EC691F"/>
<path d="M10.1058 32.8383L10.4796 33.2124L10.1057 33.5862L9.73188 33.2122L10.1058 32.8383Z" fill="#EC691F"/>
</g>
<defs>
<clipPath id="clip0_15_1817">
<rect width="378" height="106" fill="white" transform="matrix(-1 0 0 1 378 0)"/>
</clipPath>
</defs>
</svg>
