<svg xmlns="http://www.w3.org/2000/svg" width="160" height="170" fill="none" viewBox="0 0 160 170"><path fill="#fff" d="M60.066 43.881c5.525 0 10.624 1.63 14.945 4.463a27 27 0 0 1 7.438 7.296c1.629-.637 3.258-1.205 4.958-1.63 3.329-.85 6.8-1.274 10.342-1.274l1.008.014c11.119.28 21.187 4.898 28.53 12.24 7.579 7.579 12.183 17.85 12.254 29.254-3.117-2.904-6.942-5.03-11.122-6.234-1.275-6.02-4.32-11.404-8.5-15.654-5.666-5.666-13.529-9.208-22.17-9.208-2.692 0-5.312.355-7.791.992a32.6 32.6 0 0 0-7.084 2.692c-.213.141-.426.283-.638.354-2.692 1.133-5.737-.071-6.87-2.763-1.275-3.046-3.472-5.596-6.163-7.437-2.621-1.7-5.808-2.763-9.208-2.763a16.65 16.65 0 0 0-11.83 4.888 16.65 16.65 0 0 0-4.887 11.829c0 4.604 1.842 8.783 4.888 11.829a16.65 16.65 0 0 0 11.829 4.888h1.345c2.904.141 5.1 2.55 4.958 5.454v1.416c0 8.641 3.543 16.504 9.21 22.171 5.44 5.441 12.854 8.908 21.118 9.206a27.1 27.1 0 0 1-2.631-11.685 27.09 27.09 0 0 1 27.129-27.13 27.09 27.09 0 0 1 27.129 27.13 27.1 27.1 0 0 1-7.933 19.196 27.1 27.1 0 0 1-19.196 7.933 27.1 27.1 0 0 1-16.412-5.508c-2.231.343-4.597.55-6.963.55a41.76 41.76 0 0 1-29.609-12.255c-6.87-6.871-11.333-16.079-12.112-26.279-5.88-.85-11.192-3.612-15.158-7.65a27.1 27.1 0 0 1-7.934-19.196 27.087 27.087 0 0 1 27.13-27.129M39.31 95.802c4.817 0 9.209 1.984 12.397 5.171 3.187 3.188 5.17 7.579 5.17 12.396 0 4.816-1.983 9.209-5.17 12.396-3.188 3.188-7.58 5.171-12.397 5.171-4.816 0-9.208-1.984-12.395-5.171-3.188-3.187-5.171-7.58-5.171-12.396s1.983-9.208 5.17-12.396c3.188-3.187 7.58-5.17 12.396-5.17m81.813 1.7a16.65 16.65 0 0 0-11.83 4.888 16.65 16.65 0 0 0-4.887 11.829 16.65 16.65 0 0 0 4.887 11.829 16.65 16.65 0 0 0 11.83 4.887c4.604 0 8.783-1.841 11.829-4.887a16.65 16.65 0 0 0 4.887-11.829c0-4.604-1.842-8.783-4.887-11.829a16.65 16.65 0 0 0-11.829-4.888m-81.813 5.313a10.54 10.54 0 0 0-7.508 3.116c-1.912 1.913-3.117 4.534-3.117 7.509s1.205 5.595 3.117 7.508c1.913 1.912 4.533 3.117 7.508 3.117s5.596-1.205 7.509-3.117c1.912-1.913 3.116-4.533 3.116-7.508a10.54 10.54 0 0 0-3.116-7.509 10.54 10.54 0 0 0-7.509-3.116m49.017-74.163c3.116 0 5.88 1.275 7.933 3.329s3.259 4.817 3.259 7.934-1.275 5.879-3.259 7.933c-2.054 2.054-4.817 3.258-7.933 3.258-3.117 0-5.879-1.275-7.933-3.258-2.054-2.054-3.33-4.888-3.33-7.933.001-3.046 1.275-5.88 3.259-7.934 2.054-2.054 4.817-3.33 7.933-3.33zm-.07 7.013c-1.205 0-2.268.495-2.976 1.204-.78.779-1.204 1.842-1.204 3.046s.495 2.266 1.204 3.045c.779.78 1.842 1.276 2.975 1.276s2.267-.496 3.046-1.276a4.28 4.28 0 0 0 1.275-3.045 4.28 4.28 0 0 0-1.275-3.046c-.779-.78-1.842-1.204-3.046-1.204"/></svg>