<svg width="412" height="81" viewBox="0 0 412 81" fill="none" xmlns="http://www.w3.org/2000/svg">
<g clip-path="url(#clip0_87_4253)">
<path d="M333.79 10.563C333.584 10.357 333.139 9.93187 333.219 9.65285L333.611 8.31752L334.089 4.82308L335.232 7.08184C335.339 7.28779 335.956 7.28779 336.103 7.10177C337.305 5.58043 334.867 4.15874 335.844 3.36817C336.528 2.81012 338.92 2.67725 339.664 3.18215C340.94 4.05244 340.017 7.05527 338.967 7.38744L340.455 11.4466L342.303 13.3864L342.721 13.7784L343.665 14.6088L344.017 14.9144L345.552 15.24C345.917 15.3197 345.685 16.6749 345.346 16.8344L344.097 17.4522L343.651 15.3529L343.273 15.0938L342.389 14.0441L342.103 13.7386C341.964 13.9312 341.246 14.5889 341.053 14.476L337.678 12.5095L336.754 11.9714C336.535 11.8385 337.359 10.4434 337.099 10.4102L334.262 10.0382L334.508 10.5497L336.734 15.3994L333.963 16.1833C333.75 16.2431 334.654 17.5519 334.853 17.4389L336.847 16.2963C337.332 16.0172 338.628 17.3924 338.442 17.9239L337.684 20.1428C337.611 20.3554 337.864 20.5281 338.03 20.4285C338.216 20.3222 338.807 19.7641 338.854 19.5582L339.744 15.8644C340.349 16.3494 341.691 17.7246 341.578 18.3159L340.761 22.5743L343.173 21.8834C343.838 21.6907 344.994 20.8537 345.539 20.3355L342.841 20.4152C342.555 20.4218 342.07 19.9568 342.043 19.6778C342.01 19.2592 342.402 18.462 342.808 18.4554L346.243 18.3757L346.642 22.4149C346.728 23.2984 348.994 24.089 349.612 24.2086L350.443 22.4016L352.742 24.3149C355.998 27.0254 356.171 30.7191 356.895 28.8855L358.237 25.4974L360.643 25.318C360.929 25.2981 361.055 26.4408 360.816 26.6002L359.766 27.3044C359.573 27.4373 358.809 27.9555 358.822 27.9355C358.649 28.1282 360.464 29.4768 360.457 29.4303C360.503 29.7824 360.836 27.6565 361.826 27.1184C362.238 26.8925 363.188 27.7097 363.414 28.1415L363.992 29.2376C364.304 29.8356 366.956 28.7128 366.816 27.7562L366.305 24.388C366.285 24.2484 367.454 24.1887 367.474 24.3414L368.278 31.2506C368.345 31.8352 367.381 33.5094 367.109 34.094C367.002 34.3199 368.052 34.5258 368.298 34.579L370.77 35.1038C371.461 35.2499 371.096 37.9671 370.425 37.7612L368.69 37.2164L368.338 37.5353C368.444 37.7014 369.508 38.7444 369.953 38.844L375.462 40.0996L378.625 40.0399L381.808 42.0993L380.552 40.1461C380.425 39.9535 380.731 39.1762 380.957 39.236L382.439 39.6147C382.725 39.6878 383.462 40.372 383.429 40.6909L383.27 42.086C383.223 42.4647 384.665 43.0693 384.632 42.7172L384.512 41.3087L385.768 40.1461L385.369 35.8545C385.33 35.4293 387.184 34.951 387.004 35.1702L387.489 39.8538L389.257 37.0902C389.403 36.8643 389.788 36.1601 389.808 36.2531C389.709 35.6153 387.529 34.5457 388.307 32.6457C388.818 31.3835 391.656 30.9649 394.201 31.8884C394.839 32.1209 395.257 33.8017 395.237 34.6321C395.197 36.5986 393.809 38.2395 392.48 38.7311C393.536 39.2559 394.752 40.1528 394.819 40.8769L395.164 44.8563C395.609 44.7301 396.713 44.2518 396.799 43.913L397.849 39.8671C398.155 38.6779 399.238 36.6982 400.155 36.1003C400.48 35.8877 402.015 35.808 402.135 36.1734L402.839 38.2926L403.218 39.4353C403.298 39.6811 404.175 39.8339 404.208 39.5815L404.527 37.0237C404.594 36.5056 405.77 36.0804 406.368 36.0737C407.172 36.0604 408.534 38.0668 408.096 38.7311L406.315 41.4615C405.77 42.2986 405.112 44.4245 404.866 45.441C404.647 46.3378 406.275 48.1116 406.78 48.5368C406.959 47.8525 407.564 45.9791 408.096 46.2647L409.591 47.0619C409.93 47.2413 409.571 48.6829 409.192 48.7826L407.172 49.3074L408.694 52.3966L410.215 50.3504C410.541 49.912 412.036 50.2774 412.674 50.4634L412.82 45.0756L414.501 47.6399L416.123 49.892L417.08 47.6266L417.113 53.2204C417.113 53.8914 418.681 55.1868 418.92 55.5257C419.033 55.054 419.332 53.154 419.837 53.2669L422.688 53.918C423.233 54.0442 422.914 56.469 422.323 56.3494L419.1 55.6984C419.339 56.9274 420.13 58.7411 421.034 59.226L423.658 60.6544L423.698 53.9578L424.449 56.2432C424.615 56.7481 425.758 53.9312 423.765 50.6494L425.127 49.5067C425.439 49.241 426.669 50.2375 426.536 50.6228C426.356 51.1476 425.486 52.5627 425.526 53.1274L426.057 60.7873C426.861 60.4817 427.38 59.9834 427.406 59.5914L428.071 51.4665L429.573 53.9379C429.247 54.5026 429.46 54.1305 429.779 53.5791L431.413 49.4204C431.593 48.9553 432.583 50.676 432.563 51.1476L432.357 56.1036C433.008 56.4159 433.287 56.4159 433.367 56.7015L434.018 59.0002C433.726 59.4652 433.859 59.2526 434.251 58.6281L435.294 57.7977L435.135 61.0729C435.015 63.4845 438.205 65.0058 436.384 73.4695C436.324 74.5458 436.583 74.7185 437.062 73.5825L439.394 65.9824C440.039 63.8897 441.62 68.281 441.069 71.8419L440.231 77.2762C440.132 77.9273 439.009 79.6811 439.474 80.1462L441.188 81.8535C443.036 83.6938 438.185 87.5735 440.73 90.2375L443.84 93.4862C442.444 93.4596 441.374 93.2736 441.035 93.5393C439.866 94.4362 439.899 97.8376 440.637 99.1131L442.564 102.441C442.112 102.98 443.082 102.016 443.089 101.79L443.222 98.4289L441.474 97.8044C441.055 97.6516 442.617 96.675 442.949 96.9673L444.185 98.0701L445.355 94.7816C446.079 95.9974 447.169 97.3393 447.136 98.1366L446.923 103C446.896 103.551 446.165 104.893 445.926 105.046L445.056 98.781C445.016 98.4687 444.411 99.6579 444.424 99.9768L444.59 104.428L443.454 111.57L443.301 113.802C443.288 114.034 441.839 113.284 441.893 113.058L442.444 110.772C442.531 110.42 441.055 109.995 440.896 110.314L439.062 114.081L438.65 111.496C438.61 111.251 437.48 111.37 437.553 111.609C437.626 111.849 437.826 112.493 437.793 112.745L437.341 116.16C437.294 116.499 436.151 117.104 435.839 116.951L434.025 116.061C433.393 115.748 432.516 117.323 432.211 118.618L433.347 118.206C434.297 117.622 434.523 118.007 433.739 118.744L433.287 119.734L435.958 119.09C436.676 119.256 437.194 119.376 436.317 119.17L436.789 117.283C436.882 116.918 438.351 117.15 438.278 117.522C437.726 120.432 435.301 122.438 434.091 121.893L432.191 121.03C431.785 120.844 430.815 121.694 430.523 122.086C428.177 125.242 424.861 124.006 425.34 124.963C426.403 127.082 427.891 127.341 427.865 127.793L427.692 130.57C427.679 130.749 426.496 130.709 426.476 130.55C426.363 129.879 426.117 128.344 426.124 128.417L422.037 127.454C420.907 127.188 420.13 130.45 420.216 131.606C420.329 133.201 419.386 130.829 416.734 130.218L415.412 129.912C415.173 129.859 415.671 129.268 416.043 128.803C416.821 127.839 416.309 127.673 415.531 128.238L414.156 128.862C413.89 128.982 415.299 131.606 414.435 132.184L412.574 133.426L411.212 131.686C411.917 135.034 408.74 136.31 410.249 136.602C410.627 136.675 411.551 136.908 411.292 137.04L407.77 138.808C407.185 139.1 406.169 138.641 405.125 138.117C404.693 141.684 407.963 143.146 405.079 143.093L401.264 138.701C402.075 137.479 401.763 137.951 401.344 138.582L398.859 141.06C398.746 141.173 398.872 142.222 398.905 142.342L401.743 140.94C402.009 140.807 402.813 142.475 402.507 142.488C402.201 142.501 401.464 142.581 401.264 142.78L399.125 144.993L396.819 141.717C396.573 141.365 395.629 142.448 395.53 142.867L395.224 144.129C395.104 144.634 396.108 145.75 396.58 146.002C396.613 146.022 397.184 145.63 397.404 145.504L398.467 144.866C398.686 144.734 399.151 145.557 399.218 145.803C399.311 146.129 399.271 147.311 398.959 147.205L397.556 146.733C396.54 146.388 396.885 147.603 394.766 147.238C394.035 147.112 392.978 146.873 392.526 147.019C391.018 147.497 391.928 150.055 391.722 150.208L390.632 151.031C387.722 153.237 388.366 158.353 388.944 162.465L391.237 178.828C391.33 179.505 390.386 180.973 390.147 181.02C387.941 176.722 387.316 172.503 387.403 167.72L386.3 157.615C383.117 153.33 383.283 148.235 385.662 143.604L384.971 141.485C384.824 141.033 383.097 141.445 383.21 141.903L384.034 145.292C384.24 146.142 382.2 147.882 381.535 147.285L380.14 146.029C380.173 145.524 380.186 145.424 380.12 146.315L376.877 149.145C376.485 149.484 376.139 149.769 376.292 149.962L377.575 151.616C377.807 151.915 376.525 152.606 376.312 152.294C373.827 148.62 370.597 149.769 368.597 145.478C366.962 145.896 365.334 147.192 364.172 149.025C363.607 149.218 361.899 149.45 361.5 148.932C360.337 147.404 360.331 143.883 360.005 145.584L359.101 147.072L358.271 148.361C357.626 149.357 356.849 146.866 355.56 146.8C352.33 146.627 349.871 148.72 349.466 147.65C349.306 147.231 349.134 146.408 349.094 145.889L348.974 144.195L346.256 146.182C345.851 146.481 345.525 147.995 345.273 148.434L344.695 149.424C344.582 149.616 343.725 148.779 343.711 148.587L343.432 144.72C343.392 144.149 344.25 142.833 344.701 141.983C345.778 141.452 345.612 141.212 344.648 141.412L342.103 141.219L338.595 140.993C338.395 142.382 338.369 142.574 338.435 142.143L342.249 143.186C342.761 143.325 342.116 145.411 341.618 145.278L336.754 143.996C335.671 143.71 336.442 140.701 337.153 139.791C337.518 139.319 336.016 138.09 335.478 137.878C335.365 137.831 335.059 138.582 334.966 138.701L333.996 139.957C333.77 140.249 332.76 138.901 333.086 138.728L334.481 138.004L334.568 137.293L330.355 136.775C329.65 136.688 329.949 138.03 330.747 137.884C332.109 138.416 333.079 140.369 332.754 141.631C332.634 142.109 332.142 142.867 331.856 143.166C329.989 145.165 329.823 139.625 327.59 138.176C326.932 137.751 325.078 139.246 324.746 139.95C323.663 142.289 323.975 140.488 320.806 140.395C320.434 140.382 319.317 139.837 319.643 139.658L321.098 138.874C323.424 137.618 323.178 135.845 323.743 136.124L325.118 136.795L326.122 137.286L327.258 135.008L328.315 134.337C327.457 133.752 327.079 133.446 326.926 133.612L325.75 134.835C325.304 135.3 323.803 135.586 323.298 135.18C321.756 133.945 324.195 130.49 323.052 130.417L316.034 129.978C314.167 129.859 314.759 129.281 312.267 128.896L309.828 128.524L309.137 128.417L307.801 128.484C306.818 128.53 308.419 126.192 308.32 124.411L308.213 122.398C308.18 121.827 310.147 121.993 310.041 122.538L309.808 123.74L309.622 124.67C309.602 124.783 309.835 125.461 309.901 125.667C309.948 125.793 310.918 125.428 310.924 125.268L311.124 121.116C311.137 120.85 310.579 120.219 310.346 120.1C309.987 119.92 308.599 120.372 308.439 120.744L305.927 126.717L302.91 135.014L302.319 133.519C302.027 132.782 301.442 133.885 299.535 132.995C299.189 132.835 299.136 131.553 299.501 131.453L301.269 130.968C303.449 130.37 301.748 129.434 304.95 125.979C305.582 125.295 305.941 123.275 305.994 122.458C305.489 122.498 303.223 122.159 302.837 122.744L297.747 130.503C297.342 131.115 298.133 132.503 297.415 132.975L295.807 134.031C294.943 132.543 292.836 131.819 291.414 132.098C289.826 132.41 290.232 131.606 289.481 129.547L287.912 137.359L270.343 137.14L268.103 137.153L262.415 136.808L252.248 136.33C252.149 136.33 251.431 136.888 251.345 136.961C250.933 137.612 250.388 138.475 250.846 137.751L250.122 136.502C249.982 136.263 248.813 135.918 248.78 136.19L248.514 138.097L247.776 143.451C247.743 143.704 246.527 144.215 246.44 144.156L238.832 135.718L228.346 133.519L226.877 133.194C226.452 133.101 225.668 134.283 225.668 134.709L225.688 138.117L225.123 137.28L223.92 135.519C223.07 134.277 219.335 138.323 218.199 137.625C217.062 136.927 216.192 134.051 215.846 132.662L215.581 131.606L215.388 130.796L215.228 129.606C215.129 128.869 213.248 129.998 212.896 129.812L209.999 128.284C209.746 128.152 208.557 129.115 208.49 129.786L208.271 131.998C208.251 132.217 207.819 132.908 207.613 133.061L206.776 133.692L206.736 132.171L206.603 127.467C206.596 127.122 205.015 127.793 204.909 128.118L203.075 133.739C203.254 134.263 203.546 135.127 203.36 134.589C204.889 134.19 205.42 134.038 205.6 134.343C205.779 134.649 206.018 135.413 205.826 135.526L204.317 136.403C203.194 137.054 200.735 135.227 200.191 134.097L196.556 126.464C195.984 125.268 192.309 125.082 191.087 125.62C190.568 125.846 189.798 126.976 189.499 127.454L189.931 127.793L191.233 128.457C191.579 128.63 191.113 129.361 190.774 129.54C190.436 129.719 189.459 129.759 189.479 129.381L189.545 128.138L189.213 127.886L185.365 131.799C185.159 132.005 184.256 130.563 184.242 130.291L184.056 126.418L183.578 126.763L182.149 130.683L181.724 131.852C181.631 132.111 180.335 131.367 180.195 131.115L176.953 125.235C176.8 124.956 176.009 124.039 175.896 124.318L175.225 125.919L173.829 136.615L169.111 140.203L165.616 141.664C165.085 140.236 164.001 137.897 163.835 136.529L163.078 130.271L162.965 125.873C162.958 125.521 160.672 125.86 160.692 126.198L161.323 135.625L156.732 138.203C155.635 138.821 154.226 139.2 152.678 139.485L152.738 132.935L150.552 133.739C150.053 133.925 149.329 132.649 149.096 132.171L148.405 130.776L147.987 137.3C147.967 137.572 147.289 138.595 147.216 138.655L146.83 132.171L146.771 129.766C146.837 129.68 145.993 130.49 145.907 130.676L143.521 135.552L142.824 131.387C142.671 130.457 141.342 132.197 137.979 132.775C136.139 133.094 135.188 134.051 134.756 136.144L133.142 134.177C128.324 135.506 123.719 136.296 118.861 134.941C117.665 134.609 115.319 134.376 114.223 134.449C113.877 134.469 113.951 133.207 113.685 132.981L111.618 131.267L107.425 132.144L106.369 131.905C106.023 131.825 105.611 130.676 105.937 130.663L107.85 130.576C108.382 130.55 109.166 129.035 108.714 128.769L104.501 126.245L102.9 130.018C102.654 130.596 103.199 132.204 103.411 132.941C103.478 133.181 102.568 133.526 102.494 133.294L101.983 131.593L101.192 128.982L99.863 133.227L98.6203 138.276L94.3475 132.39C94.0684 132.005 93.291 131.473 92.4138 130.849L92.5999 134.562C92.6397 135.313 91.1313 135.459 91.1645 134.622C90.8057 133.699 90.5931 133.127 90.3273 133.22L88.5862 133.818C88.1809 133.958 88.9185 135.18 89.1909 135.526L89.8621 136.376C89.995 136.542 89.6561 137.133 89.4435 137.153C89.1178 137.173 88.2075 136.901 87.9948 136.655L85.0843 133.353L85.2969 132.098L82.8449 134.669C82.5525 134.974 82.3664 136.07 82.3266 136.695L84.8982 134.994C85.2637 134.755 86.3203 136.051 86.0943 136.443C84.6391 138.967 82.2269 138.801 82.1006 138.602L80.6254 136.237C80.0141 135.253 77.3029 135.486 76.3194 136.004V138.509C76.4589 138.495 77.4025 138.343 77.5089 138.077L77.9607 136.981C78.0604 136.741 78.911 136.648 78.9841 136.894L79.9676 140.502L81.4295 139.087C81.6886 138.834 82.506 139.499 82.6854 139.804C82.9246 140.216 82.712 141.565 82.2668 141.418L80.6586 140.894L79.3828 141.691L77.562 141.086C74.3724 140.023 74.8375 137.658 72.0732 137.326L71.9004 140.037C71.8871 140.276 70.6711 140.223 70.5847 140.063L68.6642 136.489C68.3719 135.944 68.1924 135.619 68.1659 135.586C68.1393 135.552 66.8435 135.984 66.8368 136.183C66.8036 137.133 67.1359 138.502 67.6475 140.169L65.4214 141.551C64.9496 141.844 63.5874 139.758 63.8465 140.103L59.7332 144.036C60.7632 145.086 60.8097 145.624 61.0024 146.494C61.0623 146.76 60.1186 146.919 59.9525 146.707L59.1817 145.703C58.7631 145.159 57.5869 144.295 56.9157 143.883L52.9021 141.425L50.7889 140.01L49.2141 141.604L52.324 143.471C53.1745 143.983 54.3906 145.564 54.4903 146.514C54.5102 146.72 53.6131 147.51 53.4669 147.358L52.4569 146.275L50.2507 144.076L48.9084 142.814C49.3337 142.508 49.2805 142.548 48.5163 143.099C48.0578 143.504 45.0144 143.77 44.7087 142.807L43.5923 139.293L42.961 140.595C43.0075 140.9 41.7184 142.442 41.2399 142.109C36.6947 138.954 32.7542 144.886 32.1893 140.07L31.877 138.841C30.1293 140.09 29.219 140.967 28.9465 141.957L28.5412 143.431C28.4548 143.757 27.252 143.265 27.2254 142.94L26.9065 139.286C26.8666 138.834 27.3052 137.632 27.4647 137.187C27.9032 135.964 30.0828 135.685 28.5279 135.572L24.388 135.273C23.8165 135.233 22.3878 135.446 21.9027 135.539C21.7034 136.582 21.6569 136.834 21.7499 136.35L25.7369 137.452C26.2619 137.598 25.6506 139.671 25.1123 139.532L20.8661 138.436C20.3743 138.309 19.3111 137.439 19.464 136.961L20.3345 134.144C21.0389 133.254 20.7664 133.559 20.0089 134.443C19.3045 134.562 18.826 134.642 19.2646 134.569L18.6931 130.782L18.2213 132.782C18.1349 133.147 17.4439 135.081 17.3442 134.722L16.4471 131.301C17.0784 130.065 16.9322 130.331 16.2677 131.599L16.0683 135.805C16.0484 136.23 15.643 137.094 15.3706 137.412C15.0981 137.731 13.8024 137.286 13.6296 136.901L11.769 132.623C11.5364 132.091 8.34009 132.775 8.08093 134.058L7.80183 135.426C7.74867 135.698 6.3532 135.406 6.26681 135.14C5.93456 134.124 6.06082 131.785 6.619 130.776C6.89145 130.284 8.6524 130.962 9.12421 131.287C10.3668 132.144 9.7422 129.666 10.6792 129.367L12.4534 128.796C12.9053 128.65 11.9882 127.122 11.5231 127.228C9.17072 127.779 9.66246 129.792 7.76861 129.58L4.90457 129.261L3.90116 129.148C2.59208 128.995 6.04088 127.826 6.96455 125.534C7.27687 124.75 7.60913 123.714 8.05435 123.72L9.94155 123.734L9.82194 122.212L6.38643 123.029C5.92791 123.136 5.1438 124.385 4.97102 124.637L-0.172283 124.132L-3.36193 123.282L-7.77427 122.99C-8.06665 122.97 -8.97039 122.684 -8.92387 122.412L-8.69794 121.063L-8.11317 117.542L-7.77427 116.041C-7.67459 115.602 -6.4386 116.526 -6.5117 116.984L-6.9237 119.442C-6.96357 119.681 -5.68771 120.226 -5.54816 120.027L-3.86031 117.675L-1.56111 115.655L-0.105828 112.659L2.4193 109.736L0.970674 109.045C0.797901 108.959 0.193197 109.244 0.186552 109.43L0.140037 111.224C0.558678 111.43 -0.345055 110.985 -0.830146 110.746C-0.943112 110.693 -1.2953 110.653 -1.41491 110.699L-4.92352 112.001L-4.99662 110.746C-5.01655 110.42 -4.93017 109.729 -5.1561 109.61L-6.22596 109.032C-6.43196 108.925 -6.40538 108.075 -6.17945 108.035C-5.84055 107.969 -5.1561 107.962 -4.80391 108.035L-0.883306 108.925C-0.637437 108.979 0.35268 107.969 0.166617 107.783C-0.0194445 107.597 -0.477955 107.138 -0.717178 107.032L-3.08283 105.969C-3.56128 105.757 -2.96322 104.368 -2.59109 103.305L-5.70764 104.215C-5.9668 104.288 -7.38221 103.936 -7.21608 103.71L-5.01655 100.727C-4.82385 100.462 -3.8736 100.302 -3.12935 100.11C-2.93 100.309 -3.68754 99.4387 -3.89353 99.2859L-6.65125 97.3061C-6.93699 97.1002 -8.47865 98.0037 -6.63131 97.9904L-5.90035 101.193L-7.29582 100.289L-9.41561 97.7247C-9.51528 97.6051 -9.66147 97.5984 -9.9605 97.5187L-11.8211 97.0005C-12.1335 96.9142 -11.8211 95.8579 -11.5287 95.7184C-11.2364 95.5788 -10.306 95.4725 -10.1931 95.7848L-9.75451 96.9806L-9.34916 97.3925L-7.5882 95.911C-6.9237 95.353 -6.56486 93.4463 -7.04331 92.7022L-8.18626 90.9218L-10.12 93.7453L-11.1699 95.2732C-11.4158 95.6254 -12.6651 94.6753 -12.5454 94.2767L-11.6949 91.4267H-9.1498L-9.85418 86.9225L-8.22613 83.3948C-7.64801 82.1458 -12.2331 83.4812 -12.3793 83.2885L-13.2963 82.0861L-13.9941 81.1759C-14.1403 80.9833 -13.1169 80.8703 -12.8843 80.9367L-11.3427 81.4018C-11.0237 81.5014 -10.6383 80.3322 -10.326 80.2325L-7.68124 79.3623L-8.83748 75.5821C-8.91058 75.343 -9.68806 75.2898 -9.92063 75.2101C-10.1532 75.1304 -10.3791 74.2202 -10.1133 74.1937L-7.48188 73.9146C-6.82402 73.8482 -5.30894 74.1804 -4.8172 74.3133L-4.05301 72.6258C-3.8736 72.2339 -2.55123 72.287 -2.11265 72.3402L-0.670663 72.5062C-1.28201 72.1209 -2.35187 71.5031 -2.50471 71.1377L-4.29224 66.8793C-4.38527 66.6534 -4.45172 65.6835 -4.22579 65.6303L-2.89012 65.338C0.153329 64.667 0.964027 61.611 2.86452 62.9663C4.61883 64.2219 3.99419 65.5439 4.65206 66.4674C5.36973 60.6212 13.0049 62.3485 9.07104 57.2795L7.6357 60.1893C7.23035 61.0131 4.51915 61.1394 3.72174 60.5946C2.02724 59.4254 1.28299 56.4026 3.15026 54.383L-0.949759 51.6658L0.312811 57.14C0.512163 58.0103 1.48234 59.8505 1.91428 60.6544C2.14021 61.0663 1.25642 62.4415 0.890936 62.1757C0.651712 61.9963 0.140036 61.4848 0.0403595 61.2191L-0.464664 59.8705C-0.564341 59.6114 -1.24879 60.1694 -1.17569 60.4484L-0.737115 62.1691C-0.644084 62.5212 -1.60098 62.8999 -1.95317 62.8268L-5.05643 62.1359C-5.54152 62.0296 -5.29565 63.8167 -5.12288 64.9792C-6.29241 65.9758 -5.94022 63.2985 -8.86406 64.3548L-7.92046 62.3219C-7.88059 62.2422 -8.06665 62.0561 -8.28594 61.8037L-7.81414 61.4516L-7.32905 61.7505L-6.22596 60.0299C-6.01996 59.7044 -5.7608 58.9072 -5.42855 58.947L-4.26566 59.0799C-3.67424 59.1463 -2.518 59.2726 -2.8569 59.2327C-5.85384 57.9837 -4.93681 56.1435 -6.67783 53.2071C-7.18285 52.3501 -7.29582 49.6927 -6.36551 49.5599L-2.8569 49.0683L-3.22238 45.0025C-3.29548 44.1521 -3.82044 42.8434 -3.55463 42.1259C-3.28883 41.4084 -1.13582 41.2622 -0.610857 41.8203C-0.0858946 42.3783 -0.0925398 44.1189 -0.657372 44.6371C-1.00956 44.956 -2.03291 45.8861 -1.68072 45.5605C-0.816855 46.6301 -0.404859 47.6266 -0.44473 48.7494C-0.531116 51.1011 4.9976 47.6133 5.10392 49.3871L5.2767 52.1508C5.35644 53.4795 8.83182 53.6987 9.65581 52.7487C9.84187 52.5295 9.78207 51.5396 9.73555 51.513C8.88498 51.1742 7.6357 49.8854 7.89486 49.2808C8.34673 48.2445 11.0181 48.2777 11.0712 49.1745L11.3038 52.8151L12.7458 52.1043L12.7989 49.0483L14.2609 42.0329L14.7526 37.0503C14.8191 36.3993 15.2909 35.1569 15.8424 34.9643C16.3939 34.7716 17.517 35.0506 17.8957 35.4958C19.2048 37.037 16.8524 38.2328 17.1116 40.857L17.7097 46.9623L19.5038 47.2413L19.9291 48.7029L20.5272 50.7557L21.4442 48.0717C24.1288 49.6263 20.0886 50.2309 21.617 53.154L22.441 50.4899L25.5044 51.8984L23.6637 46.9291C24.7668 46.4308 25.8765 45.0955 26.036 44.0458L25.5442 43.6738L24.2551 42.9895L23.0789 44.9095L21.2382 42.8899L24.0757 40.7374L25.8499 43.0958L26.1954 43.6207L26.8068 42.0528C26.9729 41.6343 28.6608 42.1657 28.5478 42.6042L28.0694 44.4976C27.9232 45.0689 28.282 46.949 28.6475 46.484C28.9797 46.0588 29.8702 44.3581 30.3686 44.5441C32.402 45.3014 32.3355 47.1616 35.3989 47.9588L34.1829 45.8329C33.9303 45.3944 35.1331 44.6039 35.4255 44.4777L33.3788 43.3416C32.9402 43.0958 32.6213 41.2157 33.1263 41.249C34.0433 41.3021 36.2295 41.8269 36.6881 42.6109L38.0902 45.0091C38.7347 46.1119 41.1403 44.0193 44.6622 46.1784L46.3434 47.2081C46.6158 47.3742 47.4398 46.3445 47.267 46.4574C46.463 45.421 45.7121 44.5175 45.4928 43.8C45.3134 43.2021 45.9912 41.9 46.4298 41.0563C46.7354 40.4717 48.7821 40.3787 48.9416 41.0297C49.533 43.3815 46.9614 43.5874 48.8685 43.8332L52.5698 44.3116L50.0846 46.1053C49.7722 46.3312 50.7624 47.713 50.7889 47.7595L54.1646 45.7598L56.0253 44.7168C56.4506 44.4777 57.4008 45.4277 58.0122 46.0189C58.1716 46.0721 59.1219 44.1123 58.5704 43.8133L56.7695 42.85L56.2246 43.2818L54.1181 44.5507C53.8523 44.7102 53.0217 44.8763 52.7227 44.9161C52.2774 44.9826 52.4369 43.5874 52.6363 43.1822C52.7426 42.9696 52.9685 41.9864 52.7891 41.9997C52.3372 42.0462 50.8886 42.4049 50.7889 42.0262L50.151 39.5615L46.762 38.4919C45.8716 38.2129 44.9147 35.6751 45.1605 34.765C45.4396 33.7618 47.6325 32.4198 48.6492 32.0478C49.0081 31.9149 50.4368 32.8583 50.1178 33.0709L48.6426 34.0541C48.0977 34.4195 47.1873 35.7083 47.1076 36.4856C47.0743 36.8444 48.2771 38.2395 48.091 37.8542L49.6792 35.1769C50.0846 34.486 52.1711 34.6653 53.1612 34.6587L57.6666 34.6454C58.3378 34.6454 58.5105 36.1601 58.6036 37.0702C58.6833 37.8276 60.6901 37.8409 61.8131 37.6084C64.5177 37.0503 62.7634 34.5457 65.0958 33.3632L66.3584 32.7188C65.1955 32.4664 63.9861 32.4132 63.7336 32.9247L62.358 35.7349C62.0657 36.3262 59.8861 35.3496 60.3645 34.9377L62.6637 32.9845L59.7 32.5461C59.1817 32.4664 59.4409 30.6527 59.6402 30.1677C59.8861 29.5565 61.348 28.56 61.8397 29.0118L63.6405 30.6593L64.8832 30.0083L62.9827 24.6404C62.7966 24.1156 65.4547 23.4645 65.654 23.511L65.448 18.9935C65.4214 18.3624 67.714 18.741 67.6343 19.3323C67.4548 20.661 67.3419 22.8334 67.4748 23.8498C67.5279 24.2285 69.2224 24.0026 69.5547 23.8166L70.5182 23.2785C70.7176 23.1656 71.1894 23.8631 71.216 24.089L71.4818 26.3278L74.1332 25.5572L73.0434 24.3149C72.7975 24.0359 73.5417 22.8135 73.8474 23.0261L75.708 24.3282C76.4988 22.0694 79.2831 23.0792 81.9677 20.5613C82.4661 20.0963 82.8914 18.0833 83.4562 18.3292L85.3434 19.133C85.7488 19.3057 86.5661 17.9771 87.0047 17.9638L89.0647 17.8907L90.4602 14.2966C90.5798 13.9844 91.5965 14.2102 91.9154 14.27L94.8526 14.7816L94.4671 16.4756L97.7764 15.3662L98.607 13.0742L101.418 12.3966L99.5374 14.3763C99.3513 14.5756 99.5905 15.6984 99.7899 15.5057C100.242 15.0539 101.518 13.9246 102.069 13.9445L106.129 14.1239L108.335 15.5057L115.379 16.3893C115.851 16.4491 117.512 15.9242 117.087 15.7914C116.15 15.4991 114.542 15.3728 113.339 15.333L114.09 10.5896C114.157 10.1511 114.901 11.6791 115.14 12.4497C115.127 12.6357 116.595 11.8385 116.423 11.3668C116.21 10.7623 115.499 9.05494 115.818 8.60983C116.316 7.91891 118.708 7.91891 119.512 8.25108C120.077 8.4836 120.655 10.284 120.277 10.7689L118.649 12.8483C120.988 14.0375 119.552 16.1036 120.416 16.9673C124.231 20.7739 128.171 19.4785 128.211 19.618C128.39 20.2225 129.055 22.2222 129.46 21.7306L130.337 20.6544C130.51 20.4351 131.401 20.7009 131.713 20.8204C132.75 21.219 129.998 22.1026 130.942 22.7271L133.547 24.4477L134.883 22.9928C135.069 22.7869 135.972 24.0624 135.713 24.1887L134.172 24.9859L136.039 25.6502C136.743 25.9027 138.411 26.2481 139.255 26.3079L148.113 26.9324L148.412 23.4844C148.459 22.9198 150.445 23.5442 150.612 24.0491L151.661 27.2181C151.848 27.7827 154.034 27.6167 154.506 27.5502L154.432 23.8565C154.426 23.4844 155.948 22.674 156.147 23.0194C157.489 25.2981 156.047 26.5604 156.685 26.8925C157.483 27.3111 159.363 28.0285 160.4 28.1481L168.367 29.045C170.66 29.3041 170.952 22.2089 174.58 20.7939C174.773 20.7208 175.139 21.3054 175.212 21.5114L176.9 26.1617L178.355 30.1677L183.372 30.8188L184.787 26.959C184.88 26.7065 185.691 26.2348 185.957 26.1684C186.223 26.102 186.987 26.7729 186.98 27.052L186.88 30.2209C186.874 30.5132 187.1 31.3303 187.173 31.616C187.246 31.9017 187.924 31.0912 188.023 30.8121L188.681 29.0649L189.253 31.7024L190.436 31.0247C190.389 29.8488 190.376 29.6097 190.436 31.1975L192.502 32.3136C193.014 32.5926 194.981 32.6192 195.267 32.1143L198.609 26.3013C198.749 26.0621 199.679 25.5971 199.938 25.504C200.197 25.411 200.603 26.0621 200.589 26.3345L200.317 32.1076C200.39 32.0412 200.922 31.1111 200.988 30.8454L202.177 25.8362C202.782 23.2851 204.51 21.6509 206.922 20.083V21.3453C206.224 23.1789 208.311 23.1523 208.683 25.6303L209.726 32.5726C209.56 33.1639 211.368 33.3034 211.328 32.7387L211.009 28.2212C210.929 27.1317 210.371 24.9925 210.597 23.996L211.733 18.9536L211.999 16.8543L213.242 26.7597C213.448 28.4205 213.866 29.8887 213.64 31.3835L212.923 36.1069L215.913 36.6118L216.431 32.4464L216.77 36.5188C216.803 36.9174 218.465 37.3426 218.445 36.9374L218.092 29.7293C218.079 29.4835 219.275 28.5401 219.448 28.7128L222.917 32.2006C223.541 32.8317 225.269 34.9045 225.954 34.3265L228.565 32.1275C228.871 34.6055 228.904 38.5252 230.658 40.3255C232.625 42.3451 236.114 42.8832 239.025 43.6406C238.121 40.578 238.426 38.4056 241.191 36.6451L241.443 37.8608L240.008 43.3616C239.942 43.614 240.965 44.471 241.144 44.2717L242.46 42.8102C242.427 42.3518 242.46 42.7902 242.526 43.7137L243.669 44.75C244.414 45.4277 244.407 43.3483 245.616 42.9962L246.215 44.6637C246.321 44.9693 247.072 45.4011 247.138 45.1088L247.524 43.4612L249.437 35.6751C249.936 35.529 250.421 35.3895 250.248 35.436L250.334 38.4255C250.348 38.7842 250.554 39.9668 250.574 40L251.464 37.4423C251.564 37.1566 252.813 37.3293 252.833 37.6416C252.886 38.5584 252.793 40.558 252.574 41.3021L251.418 45.1486L257.365 45.0291C258.242 45.0091 259.438 43.6605 259.957 42.9165L262.07 39.8671C262.209 39.6612 261.963 38.6381 261.744 38.4986L260.07 37.4157C259.578 37.0968 260.96 35.6618 261.472 35.9342C261.85 36.1335 262.674 36.5919 262.767 36.3926L263.425 35.0307L263.924 33.9943C264.023 33.7884 264.734 34.6188 264.741 34.8381L264.92 39.5748C264.927 39.8007 265.891 40.372 266.01 40.2059L267.073 38.7045L267.818 37.6482C267.964 37.4423 268.329 38.1465 268.422 38.4321L269.698 42.3318C269.778 42.5776 271.326 42.1458 271.187 41.9266L270.403 40.6577L271.373 40.4185C271.539 40.3787 272.316 42.9563 272.403 42.2189L272.576 40.7507C272.602 40.5514 273.227 40.1727 273.426 40.2591L274.609 40.7773L275.772 41.0962C275.938 41.1427 275.991 40.4119 276.078 39.7077C277.38 39.6678 278.669 40.6843 278.682 39.5217L278.749 35.3164L276.496 35.4027C276.41 35.2765 276.576 35.5223 276.882 35.9608L277.559 36.9241C277.752 37.1965 276.848 38.6447 275.061 38.7045L272.031 38.8042C272.004 39.0234 272.044 38.6779 272.15 37.8542C273.12 34.9443 274.782 36.5255 277.034 34.2335C277.872 33.3831 278.669 32.6258 279.267 32.4331L281.427 31.7422C281.646 31.6691 282.856 32.2538 282.663 32.3866L279.712 34.4195C278.948 34.9443 279.686 37.4954 280.39 37.6748L281.473 34.1471L282.596 33.4296L284.251 35.2234L285.168 34.2202C284.61 33.609 283.673 32.8384 283.513 32.4265L282.038 28.673C281.992 28.5534 281.932 28.5135 281.766 28.3142C281.679 28.3674 280.523 28.653 280.257 28.4936C279.533 28.0751 279.673 25.9226 280.138 25.1719L281.081 23.6572C281.301 23.3051 282.842 23.7834 282.736 24.182L282.284 25.8694C282.231 26.082 281.453 26.6135 281.527 26.8128L281.952 27.9422L282.224 27.9754C282.736 26.7995 283.992 25.3712 284.922 24.6603L283.474 21.5977C283.201 21.0197 282.63 19.2792 283.194 18.9869C283.759 18.6945 284.849 18.4753 285.7 18.3292L285.354 13.9046C285.321 13.4595 287.015 12.8749 287.181 13.3001L287.68 14.5291L286.922 15.8578L287.607 18.8075L290.411 18.2361C290.723 18.1697 291.301 18.7676 291.281 19.0865L291.202 20.2292C291.169 20.6809 292.106 21.4383 292.524 21.2523L294.239 20.5148C294.571 20.3687 293.248 19.3855 293.202 19.0267L293.069 18.0701C293.029 17.7977 294.797 17.7578 294.863 18.0169L295.534 20.5281L299.415 20.6145L300.04 17.027C300.153 16.3627 301.728 18.8407 301.296 19.3522L298.877 22.2355C298.365 22.84 300.286 24.4876 300.804 24.481L300.432 22.2023C300.332 21.5778 301.92 20.1428 304.372 19.3921C305.077 19.1795 302.611 15.9309 304.372 16.8344L305.768 17.5452L306.107 17.14L307.715 15.612C308.658 14.7151 310.805 18.6348 311.542 17.5585L312.646 15.9508L312.101 15.519L310.944 16.7281C310.592 17.0935 310.838 15.5323 310.785 15.0938C310.718 14.5889 309.31 14.8081 308.678 14.8945C308.366 14.9344 307.509 14.0043 307.815 13.9113L309.263 13.4662C309.835 13.2934 311.37 13.0476 311.669 13.5525L312.639 15.1735L312.798 15.6519L314.798 15.7847L317.842 16.4491C318.367 16.562 319.33 16.8477 319.151 16.8012L318.148 14.6553C317.709 13.7186 320.168 11.8452 320.201 12.6557L320.267 14.569C319.829 14.3763 320.513 14.6753 321.464 15.0872L323.112 14.1438C322.214 13.2934 320.726 11.6259 320.161 10.4766C319.849 9.8455 321.895 8.60318 322.606 8.62976L326.301 8.78256L327.657 10.8619L332.408 10.2906L332.827 12.8815C332.867 13.1074 333.916 12.6822 333.923 12.4497L333.936 10.7889L333.671 10.5231L333.79 10.563ZM325.417 13.6123L324.553 11.1808C324.467 10.9284 323.896 12.3036 323.995 12.1707L325.417 13.6123ZM331.597 11.2938L330.607 11.4466L330.468 13.227L331.597 11.2938ZM329.172 14.1637C329.066 13.0211 328.793 13.1672 328.58 13.8249C327.564 15.22 328.467 15.1802 329.172 14.1637ZM325.364 15.5987C325.663 15.4592 326.66 17.1599 326.919 17.5917C327.265 16.7679 327.152 15.6186 326.68 14.5823C326.58 14.3564 325.79 14.5756 325.49 14.6686L321.523 15.891L321.603 17.3725L325.371 15.6054L325.364 15.5987ZM90.9585 16.8676L90.6396 17.1865L90.9585 17.5054L91.2775 17.1865L90.9585 16.8676ZM306.186 17.884L307.15 20.2026L308.951 16.8875L306.698 17.7445L306.186 17.8774V17.884ZM332.567 17.4987L332.249 17.8176L332.567 18.1365L332.886 17.8176L332.567 17.4987ZM332.109 20.1827L330.667 18.0435L329.577 21.332L332.109 20.1827ZM335.737 18.0103L335.418 18.4487L335.737 18.7676L336.056 18.4487L335.737 18.0103ZM333.837 19.3987L333.518 19.7176L333.837 20.0365L334.156 19.7176L333.837 19.3987ZM326.228 20.0365L325.909 20.3554L326.228 20.6743L326.547 20.3554L326.228 20.0365ZM290.57 29.9219C292.325 25.8761 296.511 26.9656 293.966 24.0624C293.335 25.3446 292.498 26.3876 291.441 26.4607C290.683 26.5138 289.241 25.132 289.315 24.3414L289.587 21.3851L287.148 20.4816L289.288 26.9125L284.876 27.4107C284.424 27.4639 284.583 29.0915 285.022 28.9918L286.823 28.5733L290.218 27.4041L290.564 29.9153L290.57 29.9219ZM334.508 21.7572C336.129 21.0463 334.78 21.6376 334.169 21.9033C333.259 22.5477 333.677 22.282 334.508 21.7572ZM298.079 21.8701L296.365 22.4879C296.119 22.5743 296.206 23.2586 296.285 23.9893L298.079 21.8701ZM303.396 21.9365L303.077 22.2554L303.396 22.5743L303.715 22.2554L303.396 21.9365ZM326.228 21.9365L325.909 22.2554L326.228 22.5743L326.547 22.2554L326.228 21.9365ZM287.547 25.7366L287.228 26.0555L287.547 26.6002L287.866 26.0555L287.547 25.7366ZM69.5813 27.7097C69.7142 27.2712 69.1693 26.1684 68.7506 26.2083C68.4715 26.2348 67.7206 26.4408 67.7273 26.7198C67.7339 26.9988 67.8402 27.8957 67.9399 28.1481L68.7905 30.3338L69.5879 27.703L69.5813 27.7097ZM298.957 27.6432L298.638 27.9621L298.957 28.281L299.276 27.9621L298.957 27.6432ZM363.161 29.7891C363.348 29.6828 362.929 29.9153 362.73 30.0282L363.161 29.7891ZM284.643 30.8321C285.434 30.3537 285.567 30.2674 284.71 30.7856C284.045 31.2971 283.799 31.4831 284.643 30.8321ZM368.411 36.6982L365.959 35.4293L366.278 33.722L361.407 30.4534L361.965 33.7485L364.344 33.2968L365.826 37.5818L368.039 37.3692L368.418 36.7049L368.411 36.6982ZM363.886 30.0415L363.514 30.6461L364.75 31.5031L363.892 30.0415H363.886ZM67.4947 30.8121L67.1757 31.131L67.4947 31.4499L67.8137 31.131L67.4947 30.8121ZM288.916 31.7489L288.504 31.7621L288.916 31.7754H289.341L289.753 31.7621L289.341 31.7489H288.916ZM54.8159 37.15L54.4969 37.4688L54.8159 37.7877L55.1348 37.4688L54.8159 37.15ZM55.8326 39.7077L54.4903 38.4587C54.3906 39.2958 54.9687 40.8171 55.6133 40.7773C55.8658 40.764 56.0984 39.0433 55.8326 39.7143V39.7077ZM387.104 42.2255L387.09 42.6374V43.0626L387.104 43.4745L387.117 43.0626V42.6374L387.104 42.2255ZM54.1779 42.85L53.859 43.1689L54.1779 43.7203L54.4969 43.1689L54.1779 42.85ZM389.642 43.4878L389.323 43.8067L389.642 44.1256L389.961 43.8067L389.642 43.4878ZM399.763 43.9794C399.597 43.9595 398.633 44.9427 398.713 45.2948L399.198 47.4473L399.756 43.9794H399.763ZM401.058 44.7633L401.045 45.1752V45.6004L401.058 46.0123L401.072 45.6004V45.1752L401.058 44.7633ZM31.6511 47.4805C31.8438 47.2347 30.3353 46.7896 30.1293 46.9955C29.405 47.7196 28.8535 49.4536 29.2522 50.5032L31.6444 47.4805H31.6511ZM401.364 49.0483L402.029 47.6731C402.181 47.3543 401.225 46.8693 400.759 46.6235L400.859 50.0183L401.364 49.055V49.0483ZM18.0353 48.5634L18.022 48.9753V49.4004L18.0353 49.8123L18.0486 49.4004V48.9753L18.0353 48.5634ZM415.644 50.4634L415.631 50.8753V51.3004L415.644 51.7123L415.658 51.3004V50.8753L415.644 50.4634ZM18.8127 55.9841L20.1218 51.7522L17.9356 52.3302L18.1017 56.2232C18.115 56.5288 19.2314 56.1302 18.8127 55.9841ZM23.1055 54.2634L22.7865 54.5823L23.1055 54.9012L23.4244 54.5823L23.1055 54.2634ZM13.6827 57.5253L13.3505 55.1204L12.5929 55.2799C12.2607 56.1568 11.9484 56.7082 12.254 56.8543L13.6827 57.5253ZM419.445 59.9701L419.126 60.289L419.445 60.6079L419.764 60.289L419.445 59.9701ZM427.187 68.4272L427.3 62.9729C425.559 64.0226 425.512 66.9723 427.187 68.4272ZM431.367 77.0105L432.264 80.9899C432.357 81.4018 433.54 82.0927 433.447 82.5112L433.081 84.0857C433.001 84.4245 433.38 85.6469 433.473 85.3214C433.619 84.8032 434.065 83.0892 434.563 83.1158L437.454 83.2819L438.072 76.0073C438.098 75.7283 437.175 74.7982 437.135 75.0706L436.962 76.4126L436.689 80.9434L433.048 80.8637L435.128 76.8643C434.889 76.8245 433.619 76.6916 433.447 76.4524C432.716 75.4028 432.769 72.8517 432.795 71.2772L432.902 63.0792C431.839 64.7866 431.918 67.5702 432.038 69.4702C432.098 70.4069 431.054 72.3867 430.762 73.3566C430.603 73.8881 431.852 74.9112 432.204 75.3363C432.403 75.5755 431.712 76.2199 431.52 76.4591C431.447 76.5454 431.353 76.9108 431.373 77.0038L431.367 77.0105ZM0.0337181 72.0279L1.27635 69.8555C1.4757 69.5101 2.37279 69.4436 3.18349 69.2842L2.19337 68.2079C1.95415 67.9489 0.459004 68.487 0.365973 68.8258C0.159975 69.623 0.0337181 71.2772 0.0337181 72.0213V72.0279ZM11.6959 70.108L11.3769 70.4269L11.6959 70.7457L12.0148 70.4269L11.6959 70.108ZM3.4493 72.008L3.13033 72.3269L3.4493 72.6458L3.76826 72.3269L3.4493 72.008ZM11.6959 74.5458L11.3769 74.8647L11.6959 75.1835L12.0148 74.8647L11.6959 74.5458ZM-4.03308 77.1766C-4.25237 76.8643 -4.83714 75.9741 -4.76404 76.0007C-4.6843 76.0273 -5.61461 76.1933 -5.88706 76.2531C-6.15951 76.3129 -7.15627 77.3892 -6.9104 77.4955L-4.87701 78.3657C-4.54475 78.5052 -3.84037 77.4622 -4.03972 77.1766H-4.03308ZM440.271 82.4448L439.068 82.4116L438.171 84.9294C438.005 85.3945 438.823 86.1917 439.288 86.6899L440.265 82.4448H440.271ZM440.092 93.4197L439.939 90.9019L438.052 92.7022L440.098 93.4264L440.092 93.4197ZM441.461 105.823L441.188 103.132C440.956 103.225 439.64 103.644 439.633 104.003L439.587 106.873L441.009 106.288L441.461 105.83V105.823ZM443.122 104.654C443.361 104.481 442.497 104.355 442.205 104.368C441.912 104.381 441.926 105.212 441.939 105.517C441.952 105.743 442.929 104.787 443.122 104.654ZM-0.145702 105.066C-0.218799 105.152 -0.531117 105.517 -0.511182 105.491L-0.145702 105.066ZM0.233068 105.677L0.465651 106.155C0.498876 106.228 0.312809 105.803 0.233068 105.677ZM1.64848 106.547L1.23648 106.56L1.64848 106.574H2.07376L2.48575 106.56L2.07376 106.547H1.64848ZM441.66 106.255L441.434 106.607L439.992 108.886C439.334 108.62 440.949 109.271 441.348 109.437C441.667 109.563 443.162 108.48 442.976 108.201L441.66 106.255ZM439.055 107.185L437.985 108.666C437.819 108.892 439.314 109.723 439.281 109.437L439.055 107.185ZM435.041 114.486C437.175 113.204 436.67 110.865 435.048 109.995V114.486H435.041ZM5.56908 112.692C6.33326 112.101 6.53262 111.948 5.74185 112.559C5.11721 113.044 4.87134 113.237 5.56908 112.692ZM4.20019 114.546L2.37943 114.752L4.06729 115.177L4.20019 114.546ZM4.76502 121.501L2.11363 119.449C1.56209 119.023 -0.099184 119.183 -0.8235 119.183L-1.30195 120.598L0.837773 120.299C1.80131 120.166 2.61201 122.863 3.46258 122.325L4.76502 121.501ZM305.296 120.923C307.177 120.704 305.794 118.731 304.804 119.934C304.638 120.133 305.01 120.957 305.296 120.923ZM-2.89012 120.817L-3.20909 121.136L-2.89012 121.455L-2.57116 121.136L-2.89012 120.817ZM184.003 126.159L183.551 124.631C183.458 124.305 182.388 125.368 182.601 125.607L183.525 126.63L184.003 126.159ZM420.708 125.554L419.764 125.481L418.296 127.035C419.027 127.52 419.691 127.952 419.824 127.627L420.701 125.547L420.708 125.554ZM313.543 126.524L313.224 126.843L313.543 127.162L313.862 126.843L313.543 126.524ZM281.839 127.162L281.826 127.574V127.999L281.839 128.411L281.852 127.999V127.574L281.839 127.162ZM293.468 127.906C294.232 127.314 294.431 127.162 293.641 127.773C293.016 128.258 292.77 128.45 293.468 127.906ZM319.251 127.162L319.237 127.574V127.999L319.251 128.411L319.264 127.999V127.574L319.251 127.162ZM286.49 136.755L287.201 135.579L286.284 128.975L284.171 132.716L286.49 136.755ZM22.4742 131.593L22.1552 131.912L22.4742 132.231L22.7932 131.912L22.4742 131.593ZM80.1802 133.493L79.8612 133.812L80.1802 134.131L80.4992 133.812L80.1802 133.493ZM34.5218 136.668L34.5085 137.08V137.505L34.5218 137.917L34.535 137.505V137.08L34.5218 136.668ZM39.9109 138.854C40.1302 139.047 39.0869 138.13 38.7879 137.864L35.2926 139.572L39.9109 138.854ZM379.495 139.831L379.176 140.15L379.495 140.468L379.814 140.15L379.495 139.831ZM350.961 143.006L350.642 143.325L350.961 143.644L351.28 143.325L350.961 143.006ZM356.403 144.654L355.207 143.518L351.599 145.404L356.403 144.647V144.654Z" fill="#EC691F"/>
<path d="M41.1867 36.353L38.6815 39.0104C34.3223 38.2796 32.3288 40.9901 32.156 39.1698L33.7841 36.0275L34.5682 34.5062C34.7542 34.1474 36.0102 34.7055 36.4554 34.9513C39.1533 36.446 42.5024 34.9513 41.1867 36.3464V36.353Z" fill="#EC691F"/>
<path d="M402.088 34.0143L401.065 35.2366C400.839 35.509 399.596 34.8447 399.384 34.5657C398.806 33.8216 398.547 31.3768 399.297 30.7789L402.241 28.4471C402.713 28.075 404.547 28.3873 404.773 28.9453C404.999 29.5034 404.813 30.7457 404.407 31.2307L402.095 34.001L402.088 34.0143Z" fill="#EC691F"/>
<path d="M7.99438 46.5173C6.39291 45.833 6.29323 43.076 7.57574 42.1194C8.24689 41.6211 10.1275 41.4683 10.7322 42.0064C11.3369 42.5446 11.7156 44.3183 11.6093 45.1288C11.4764 46.1719 9.49617 47.1617 7.98774 46.5173H7.99438Z" fill="#EC691F"/>
<path d="M49.6126 27.6166C48.9613 27.6432 47.8782 26.0288 47.9048 25.3911C47.938 24.6204 48.7753 23.0526 49.6192 22.7869C50.41 22.5344 51.8054 24.1089 51.9118 24.9194C52.038 25.8561 51.1941 27.5502 49.6126 27.6166Z" fill="#EC691F"/>
<path d="M410.388 32.3005C410.973 31.8354 413.033 32.5662 413.292 33.2372C413.591 34.0278 413.133 35.7949 412.335 36.2799C411.724 36.6586 410.242 36.2267 409.597 35.6222C408.953 35.0176 409.159 33.2704 410.395 32.2938L410.388 32.3005Z" fill="#EC691F"/>
<path d="M344.449 10.8486C344.236 11.0479 342.788 11.3468 342.701 11.0745L342.083 9.14123C341.618 7.69961 343.366 5.12196 344.868 6.15169C345.891 6.86254 345.446 9.92516 344.456 10.8486H344.449Z" fill="#EC691F"/>
<path d="M123.533 16.3096C122.556 16.6152 121.792 14.383 122.157 13.0609C122.436 12.0312 124.005 10.7225 124.689 11.2008C126.164 12.2305 125.925 15.5589 123.533 16.3096Z" fill="#EC691F"/>
<path d="M315.802 10.2243L310.599 12.3436C309.908 11.9782 309.363 11.5597 309.422 11.4201L310.957 8.56348L315.795 10.2243H315.802Z" fill="#EC691F"/>
<path d="M377.92 28.447C378.492 27.8823 380.678 28.0749 380.997 28.7127C381.382 29.4767 381.243 31.2837 380.645 31.8949C380.153 32.4064 378.485 32.247 377.854 31.8949C377.116 31.4697 376.904 29.4568 377.92 28.4536V28.447Z" fill="#EC691F"/>
<path d="M350.562 21.671L348.549 22.2622C348.283 22.342 347.678 21.9035 347.891 21.7308L349.014 20.8339C350.184 19.8972 346.363 18.243 346.569 17.8643L347.16 16.7947C347.213 16.7017 350.529 17.8776 351.194 19.3126L351.945 20.9469C352.091 21.2591 350.928 21.5514 350.562 21.6577V21.671Z" fill="#EC691F"/>
<path d="M124.782 10.1247C124.602 10.3572 123.254 10.4237 123.054 10.1978C122.25 9.29428 123.393 6.30474 124.795 6.17852L126.47 6.02572C126.915 5.98586 126.849 7.4142 126.576 7.77294L124.789 10.1247H124.782Z" fill="#EC691F"/>
<path d="M379.834 37.4422C379.661 38.08 377.648 38.8706 377.096 38.5783C376.431 38.2328 375.847 36.7115 376.146 35.9807C376.378 35.4027 377.428 34.9045 378.113 34.7716C378.85 34.6254 380.139 36.3129 379.834 37.4422Z" fill="#EC691F"/>
<path d="M44.0308 31.9085L42.3761 31.1379C42.0439 30.9851 42.6021 29.6365 42.9543 29.7561L44.2966 30.2278L45.187 30.5533C45.187 30.5533 45.5193 29.9952 45.7385 29.6299L46.5559 28.2746C46.8084 27.8494 48.4365 28.8659 48.2371 29.3176C47.3467 31.3837 45.4794 32.5795 44.0308 31.9019V31.9085Z" fill="#EC691F"/>
<path d="M346.701 2.45118L344.13 5.29456C343.771 5.68652 342.502 4.33791 342.621 3.81972C342.774 3.16867 343.465 1.78019 344.05 1.48124L345.924 0.537873C346.316 0.338571 346.994 2.13229 346.701 2.45118Z" fill="#EC691F"/>
<path d="M58.3642 25.4047C58.5104 25.5375 58.8094 26.4145 58.8293 26.6271C58.8559 26.9526 58.1449 27.6036 57.8525 27.4442L55.3739 26.1222C55.0483 25.9494 54.6828 25.0659 54.6363 24.7071C54.5698 24.2221 55.9919 23.1525 56.3441 23.4847L58.3708 25.4047H58.3642Z" fill="#EC691F"/>
<path d="M72.8307 19.0534C73.1762 18.6017 75.2229 18.6083 75.3758 19.1398C75.5685 19.8041 75.502 21.1793 75.1432 21.7706C74.8574 22.2422 73.3623 22.0297 72.8839 21.7573C72.2792 21.4185 72.3057 19.7443 72.8307 19.0534Z" fill="#EC691F"/>
<path d="M292.836 13.8384C293.169 13.4132 295.322 13.4531 295.421 13.9845C295.548 14.6555 295.421 15.9643 295.029 16.529C294.724 16.9807 293.421 16.8478 292.909 16.6286C292.285 16.3562 292.272 14.5625 292.836 13.8384Z" fill="#EC691F"/>
<path d="M255.478 40.7439C256.162 40.3121 257.677 40.3984 257.89 40.9033C258.169 41.561 258.235 43.0425 257.711 43.4876C257.292 43.8464 255.863 43.6471 255.391 43.3747C254.793 43.0359 254.9 41.1093 255.484 40.7439H255.478Z" fill="#EC691F"/>
<path d="M25.4245 34.9512C24.966 35.4627 23.1386 35.2103 22.9592 34.6655C22.7797 34.1207 22.7266 32.7854 22.9326 32.2539C23.1053 31.8022 24.7334 32.2406 25.0922 32.5662C25.5375 32.9714 25.8298 34.4928 25.4178 34.9512H25.4245Z" fill="#EC691F"/>
<path d="M374.298 31.9085C373.999 32.6592 372.119 32.6193 371.727 32.0613C371.301 31.4567 371.448 29.6298 372.092 29.3507C372.983 28.9654 374.717 30.8588 374.298 31.9085Z" fill="#EC691F"/>
<path d="M53.6662 28.9456C54.0982 29.0187 55.0418 30.2676 54.7361 30.5599L53.52 31.7491C53.1147 32.1477 51.8654 31.0117 51.6993 30.4802L51.3006 29.1847C51.1743 28.7795 52.9552 28.8326 53.6729 28.9456H53.6662Z" fill="#EC691F"/>
<path d="M127.845 14.2635C127.201 14.2635 126.184 13.1009 126.144 12.616C126.098 12.0181 127.387 11.0083 128.051 11.1544C129.108 11.3869 129.035 14.2702 127.845 14.2635Z" fill="#EC691F"/>
<path d="M348.888 6.92894C348.947 7.4737 348.276 9.19434 347.811 9.16777C347.346 9.14119 346.176 8.53 346.289 8.09153L346.774 6.21145C346.907 5.6999 348.821 6.3111 348.888 6.92894Z" fill="#EC691F"/>
<path d="M318.898 11.3733C320.254 11.8849 319.171 11.473 318.792 11.3335L318.128 8.92854C317.948 8.29077 319.45 7.3009 320.101 7.13481C320.334 7.07502 321.517 7.39391 321.344 7.55335L320.44 8.39706C320.048 8.76245 319.882 9.23413 318.905 11.3733H318.898Z" fill="#EC691F"/>
<path d="M322.327 3.35496C322.414 3.82664 320.227 4.37804 320.174 3.92629L319.915 1.58781C319.862 1.13605 321.782 0.498285 321.869 0.936751L322.327 3.35496Z" fill="#EC691F"/>
<path d="M102.328 8.46376C102.268 8.74278 101.178 9.633 101.006 9.42705L99.8362 8.06515C99.597 7.78613 100.122 6.18507 100.494 6.21828L101.983 6.35779C102.474 6.4043 102.488 7.77284 102.335 8.46376H102.328Z" fill="#EC691F"/>
<path d="M373.328 36.6785L373.906 38.1466C374.046 38.4921 372.099 38.7645 372.092 38.4057L372.006 34.6123C372.006 34.3665 372.916 33.7421 373.116 33.8949C373.315 34.0477 373.966 34.5592 373.906 34.7718L373.328 36.6785Z" fill="#EC691F"/>
<path d="M45.0408 21.445C45.4395 21.1394 47.2802 21.7506 47.1074 22.2222L46.3964 24.1488C46.217 24.6272 45.0076 24.1422 44.6488 23.7901C44.1969 23.3516 44.5424 21.8303 45.0475 21.4516L45.0408 21.445Z" fill="#EC691F"/>
<path d="M382.206 30.3537C382.412 29.9086 384.725 30.0481 384.652 30.5397L384.386 32.3932C384.313 32.8848 382.804 32.752 382.406 32.453C382.007 32.154 381.934 30.9449 382.213 30.3537H382.206Z" fill="#EC691F"/>
<path d="M375.654 20.8605C375.242 20.8805 374.232 19.5451 374.338 19.1532C374.485 18.6283 375.309 17.5255 375.814 17.7448C376.226 17.9241 376.923 18.7214 377.136 19.1133C377.349 19.5053 376.159 20.8406 375.647 20.8672L375.654 20.8605Z" fill="#EC691F"/>
<path d="M97.8162 12.2638L96.2612 11.4134C96.0287 11.2872 96.6334 10.9816 96.8792 10.8886L99.4642 9.93194C99.8895 9.7725 99.9758 10.975 99.6569 11.4134C98.7266 11.9781 98.1219 12.4232 97.8228 12.2638H97.8162Z" fill="#EC691F"/>
<path d="M41.4261 33.9743C40.9875 34.2134 39.3462 32.3267 39.7382 32.0277C40.1303 31.7288 41.4194 31.5162 41.8912 31.6225C42.4826 31.7554 42.157 33.5757 41.4261 33.9809V33.9743Z" fill="#EC691F"/>
<path d="M241.536 33.8613C241.716 33.5357 243.563 33.2966 243.523 33.6819L243.311 35.8477C243.271 36.2396 241.988 35.9207 241.596 35.7214C241.124 35.4823 241.204 34.4725 241.536 33.8546V33.8613Z" fill="#EC691F"/>
<path d="M317.828 7.2015L316.38 6.39765C316.147 6.26478 316.885 5.56722 316.745 5.85289L319.038 5.05568C319.304 4.96267 320.327 4.8298 320.227 5.08225L319.822 6.0987L317.828 7.2015Z" fill="#EC691F"/>
<path d="M245.158 42.2853C244.247 40.7307 243.948 39.1496 244.327 37.0835C245.238 38.6381 245.537 40.2192 245.158 42.2853Z" fill="#EC691F"/>
<path d="M278.822 6.98867C278.988 6.66314 281.035 6.53692 280.962 6.90895L280.576 8.86876C280.503 9.24079 279.579 9.08799 279.094 8.96841C278.609 8.84883 278.563 7.50021 278.828 6.98867H278.822Z" fill="#EC691F"/>
<path d="M58.9092 12.204C59.0952 11.8054 60.9692 11.6459 60.9426 12.0844L60.8429 13.9379C60.8163 14.3764 59.6601 14.3764 59.2281 14.2834C58.7962 14.1904 58.67 12.7222 58.9092 12.204Z" fill="#EC691F"/>
<path d="M77.914 14.7086C78.0469 14.2702 80.0005 14.1506 79.974 14.5891L79.8809 16.4426C79.861 16.881 78.7313 16.8279 78.306 16.7349C77.8808 16.6419 77.7213 15.3198 77.9073 14.7086H77.914Z" fill="#EC691F"/>
<path d="M107.704 10.9087C107.864 10.5765 109.558 10.2576 109.744 10.5699C109.997 10.9884 110.263 11.8321 109.87 12.1178L108.681 12.9814C108.289 13.2671 107.492 11.3472 107.711 10.9087H107.704Z" fill="#EC691F"/>
<path d="M297.78 9.42045C297.867 9.06835 300.093 9.05506 300.013 9.42045L299.581 11.3869C299.501 11.7523 298.611 11.5995 298.285 11.4135C297.853 11.161 297.608 10.0981 297.78 9.42709V9.42045Z" fill="#EC691F"/>
<path d="M37.1463 28.507C37.2394 28.8658 36.0565 29.849 35.7442 29.6431L34.3753 28.7196C34.0763 28.5203 34.9667 27.7563 35.3189 27.6766C35.7841 27.5703 37.0334 28.0486 37.1463 28.5137V28.507Z" fill="#EC691F"/>
<path d="M32.4617 43.5209C31.9101 43.9129 30.6011 43.9726 30.5678 43.574C30.5346 43.1754 30.5678 42.0859 30.6874 41.674C30.8801 41.0429 33.0265 43.1223 32.4617 43.5209Z" fill="#EC691F"/>
<path d="M45.3599 40.7705C45.6191 41.3153 43.0541 41.6674 42.9743 41.0562C42.9145 40.6244 43.6056 39.3223 43.9844 39.4817C44.3632 39.6412 45.1274 40.2789 45.3599 40.7705Z" fill="#EC691F"/>
<path d="M304.824 14.2698L304.1 14.8212L303.196 15.366C302.884 15.552 302.093 14.323 302.359 14.0705L303.435 13.0474C303.788 12.7153 305.203 13.9775 304.824 14.2632V14.2698Z" fill="#EC691F"/>
<path d="M328.441 5.04239C328.992 5.20847 329.657 5.56722 329.996 5.85953C330.335 6.15184 329.73 7.64661 329.305 7.52703L327.663 7.05535C327.238 6.93576 328.016 4.90952 328.441 5.04239Z" fill="#EC691F"/>
<path d="M139.66 15.0539C139.953 15.2465 139.946 16.8011 139.634 16.6749L138.371 16.1567C138.199 16.0836 137.634 15.3262 137.667 15.2797L138.185 14.5755C138.365 14.3297 139.302 14.8147 139.66 15.0472V15.0539Z" fill="#EC691F"/>
<path d="M267.1 36.9441L265.372 34.6522C265.133 34.3333 267.24 33.8682 267.22 34.2403L267.1 36.9441Z" fill="#EC691F"/>
<path d="M339.445 15.4526C338.993 15.8313 337.824 16.2897 337.711 15.9575C337.598 15.6254 337.213 14.7019 337.458 14.5956L338.94 13.9778C339.306 13.825 339.764 15.1803 339.445 15.4526Z" fill="#EC691F"/>
<path d="M55.6597 31.1909C55.8989 30.9318 57.527 31.0846 57.4406 31.4234L57.1482 32.5927C57.0618 32.9315 55.8126 32.8717 55.58 32.606C55.3474 32.3402 55.4139 31.45 55.6531 31.1909H55.6597Z" fill="#EC691F"/>
<path d="M355.068 20.6542C355.44 20.3287 356.882 20.1095 356.795 20.4749L356.483 21.9098C356.377 22.4015 354.682 20.9864 355.068 20.6542Z" fill="#EC691F"/>
<path d="M84.958 14.0042C84.6789 14.3364 82.9246 14.4161 83.0442 14.0042L83.5891 12.1972C83.6954 11.8451 85.1972 13.7186 84.958 14.0042Z" fill="#EC691F"/>
<path d="M359.679 9.95832C359.919 10.1576 360.178 11.4332 359.879 11.3601L358.397 11.008C358.178 10.9548 357.513 10.4034 357.626 10.2041L358.098 9.40027C358.271 9.10796 359.301 9.63944 359.673 9.95832H359.679Z" fill="#EC691F"/>
<path d="M304.897 8.84889C304.937 9.15449 303.561 9.34714 303.482 9.08141L302.977 7.39398C302.89 7.11496 304.638 7.02195 304.678 7.30761L304.891 8.84889H304.897Z" fill="#EC691F"/>
<path d="M106.528 8.05839C106.315 8.34405 104.853 8.98182 104.833 8.68287L104.714 6.7297C104.687 6.23145 106.82 7.65978 106.521 8.06503L106.528 8.05839Z" fill="#EC691F"/>
<path d="M323.397 4.84293C323.67 4.94258 324.481 6.30449 324.208 6.39749L323.171 6.76288C322.906 6.85589 322.354 6.0919 322.075 5.75308C321.882 5.51392 323.112 4.73664 323.391 4.84293H323.397Z" fill="#EC691F"/>
<path d="M326.155 3.38825C326.148 3.70049 324.533 3.50118 324.54 3.20887L324.587 1.58124C324.593 1.33543 326.201 1.52145 326.195 1.78718L326.148 3.3816L326.155 3.38825Z" fill="#EC691F"/>
<path d="M331.544 2.35182C332.069 2.00636 333.451 1.76056 333.345 2.13259L332.946 3.54099C332.806 4.03261 331.112 2.63749 331.544 2.35182Z" fill="#EC691F"/>
<path d="M113.193 8.49026C112.748 8.58991 111.332 8.58327 111.465 8.35739L112.422 6.75633C112.648 6.37101 113.632 8.39061 113.186 8.49026H113.193Z" fill="#EC691F"/>
<path d="M104.063 11.2142C103.451 12.6625 101.863 11.3537 102.195 10.3439C102.388 9.75933 104.322 10.5964 104.063 11.2142Z" fill="#EC691F"/>
<path d="M344.256 12.4099C344.569 12.0578 346.137 11.8253 346.037 12.184L345.638 13.5791C345.499 14.0641 343.931 12.7819 344.263 12.4099H344.256Z" fill="#EC691F"/>
<path d="M350.576 15.1801C350.775 15.0405 351.632 15.293 351.712 15.5322C351.825 15.8843 351.865 16.728 351.493 16.7479L350.29 16.821C349.918 16.8409 350.277 15.3993 350.576 15.1867V15.1801Z" fill="#EC691F"/>
<path d="M124.822 17.0804C125.034 16.9342 125.878 17.1601 125.971 17.4059C126.111 17.7646 126.184 18.7744 125.792 18.7678L124.536 18.7479C124.151 18.7479 124.503 17.293 124.822 17.0804Z" fill="#EC691F"/>
<path d="M139.454 20.721C139.893 20.3955 141.282 20.1032 141.189 20.442L140.816 21.7441C140.684 22.2025 139.089 21.0001 139.454 20.721Z" fill="#EC691F"/>
<path d="M362.457 23.1655C361.806 23.9959 360.53 23.7501 361.567 22.5144L363.082 20.7008C363.241 20.5081 364.291 21.6375 364.092 21.7969L362.457 23.1655Z" fill="#EC691F"/>
<path d="M32.3952 28.5865C31.2788 29.6495 30.1491 27.7295 30.6076 27.1914C30.9665 26.7596 32.1892 27.796 32.3952 28.5865Z" fill="#EC691F"/>
<path d="M56.4372 30.367C56.0185 30.1212 54.8623 29.3705 55.0284 29.2111L55.9587 28.3208C56.1847 28.1016 56.9754 28.4072 57.2014 28.653C57.5402 29.0184 56.8292 30.5929 56.4372 30.367Z" fill="#EC691F"/>
<path d="M270.495 36.8244C270.216 36.7447 270.469 35.5223 270.761 35.4758C271.074 35.4293 272.07 35.3562 272.077 35.6286L272.104 36.8444C272.104 37.1167 270.874 36.9374 270.495 36.8244Z" fill="#EC691F"/>
<path d="M319.018 0.418536C319.157 1.89338 317.436 1.89338 317.583 0.418536C317.636 -0.139512 318.965 -0.139512 319.018 0.418536Z" fill="#EC691F"/>
<path d="M41.3992 29.8091C41.2995 30.0882 40.4689 31.1445 40.0901 31.0913C39.8177 31.0581 38.9272 29.7361 39.2063 29.7427L41.3992 29.8025V29.8091Z" fill="#EC691F"/>
<path d="M270.01 33.2436C270.236 34.0208 268.249 34.1072 268.15 33.2901C268.096 32.8715 269.884 32.7985 270.01 33.2436Z" fill="#EC691F"/>
<path d="M332.601 10.1311L330.76 9.20102C330.767 9.3206 330.042 8.35066 330.308 8.27759L331.571 7.93213L332.601 10.1311Z" fill="#EC691F"/>
<path d="M137.022 12.463C137.162 13.9378 135.441 13.9445 135.587 12.463C135.64 11.9049 136.969 11.9049 137.022 12.463Z" fill="#EC691F"/>
<path d="M113.08 14.9078L110.774 14.5889L110.867 12.855L113.08 14.9078Z" fill="#EC691F"/>
<path d="M297.913 18.0237C298.119 18.8541 296.106 18.8608 296.026 18.0968C295.98 17.6716 297.807 17.5919 297.913 18.0237Z" fill="#EC691F"/>
<path d="M278.882 21.1793C279.101 22.0231 277.127 22.0363 277.021 21.2524C276.968 20.8405 278.769 20.7608 278.882 21.1793Z" fill="#EC691F"/>
<path d="M62.2249 21.7769C62.2847 21.551 63.3745 21.3252 63.5207 21.5112C63.74 21.7902 64.0191 22.3748 63.7599 22.6073L62.9891 23.285C62.7233 23.5175 62.1385 22.1224 62.2249 21.7769Z" fill="#EC691F"/>
<path d="M261.053 24.7334C261.133 25.0855 259.691 26.195 259.664 25.8362L259.558 24.3083C259.524 23.8233 260.947 24.2219 261.053 24.7334Z" fill="#EC691F"/>
<path d="M42.8945 43.1823C43.0406 43.3683 42.1901 44.4512 42.0771 44.2519L41.293 42.8369C41.18 42.6309 41.9907 42.0264 42.1303 42.1991L42.8945 43.1757V43.1823Z" fill="#EC691F"/>
<path d="M29.5908 41.6342L28.0957 40.1926L29.4978 39.6612C29.757 39.5615 29.6972 40.3654 29.5908 41.6342Z" fill="#EC691F"/>
<path d="M355.613 19.1262L354.363 19.0863C354.277 17.4188 355.227 16.9605 355.613 19.1262Z" fill="#EC691F"/>
<path d="M360.995 15.4792C361.221 15.8047 360.676 16.1103 359.945 16.2631C358.656 14.7418 360.716 15.0806 360.995 15.4792Z" fill="#EC691F"/>
<path d="M95.5369 13.7451L94.0417 12.3035L95.4439 11.772C95.703 11.6723 95.6432 12.4762 95.5369 13.7451Z" fill="#EC691F"/>
<path d="M356.822 7.88577C356.736 8.19137 355.606 8.09172 355.599 7.83927C355.573 6.87597 357.247 6.30464 356.822 7.88577Z" fill="#EC691F"/>
<path d="M315.583 8.67624L314.087 7.23462L315.49 6.70314C315.749 6.60349 315.689 7.40735 315.583 8.67624Z" fill="#EC691F"/>
<path d="M311.961 5.52755C312.35 5.52755 312.666 5.21226 312.666 4.82334C312.666 4.43442 312.35 4.11914 311.961 4.11914C311.572 4.11914 311.257 4.43442 311.257 4.82334C311.257 5.21226 311.572 5.52755 311.961 5.52755Z" fill="#EC691F"/>
<path d="M98.2547 6.7961C98.6437 6.7961 98.9591 6.48082 98.9591 6.0919C98.9591 5.70298 98.6437 5.3877 98.2547 5.3877C97.8657 5.3877 97.5503 5.70298 97.5503 6.0919C97.5503 6.48082 97.8657 6.7961 98.2547 6.7961Z" fill="#EC691F"/>
<path d="M328.507 9.0881C328.567 8.80908 329.823 8.60313 329.737 8.87551L329.371 10.0315C329.285 10.2972 328.448 9.36048 328.507 9.0881Z" fill="#EC691F"/>
<path d="M91.9153 10.5964C92.3043 10.5964 92.6197 10.2811 92.6197 9.89219C92.6197 9.50327 92.3043 9.18799 91.9153 9.18799C91.5263 9.18799 91.2109 9.50327 91.2109 9.89219C91.2109 10.2811 91.5263 10.5964 91.9153 10.5964Z" fill="#EC691F"/>
<path d="M104.521 10.4037C104.9 10.1977 105.956 9.86557 105.877 10.138L105.538 11.2408C105.451 11.5131 104.288 10.5366 104.528 10.4103L104.521 10.4037Z" fill="#EC691F"/>
<path d="M135.089 10.842L133.819 11.9315V9.75244L135.089 10.842Z" fill="#EC691F"/>
<path d="M108.462 14.044C108.402 13.7717 109.797 13.6986 109.704 13.9776L109.272 15.2066C109.173 15.4857 108.541 14.3961 108.468 14.044H108.462Z" fill="#EC691F"/>
<path d="M305.422 14.1971C305.961 13.9712 307.004 13.6855 306.911 13.9579L306.532 15.0408C306.432 15.3198 305.17 14.31 305.429 14.2037L305.422 14.1971Z" fill="#EC691F"/>
<path d="M347.472 15.6652C347.861 15.6652 348.177 15.35 348.177 14.961C348.177 14.5721 347.861 14.2568 347.472 14.2568C347.083 14.2568 346.768 14.5721 346.768 14.961C346.768 15.35 347.083 15.6652 347.472 15.6652Z" fill="#EC691F"/>
<path d="M282.789 17.572C283.178 17.572 283.493 17.2567 283.493 16.8678C283.493 16.4789 283.178 16.1636 282.789 16.1636C282.4 16.1636 282.084 16.4789 282.084 16.8678C282.084 17.2567 282.4 17.572 282.789 17.572Z" fill="#EC691F"/>
<path d="M356.982 18.8342C357.371 18.8342 357.686 18.5189 357.686 18.13C357.686 17.7411 357.371 17.4258 356.982 17.4258C356.593 17.4258 356.277 17.7411 356.277 18.13C356.277 18.5189 356.593 18.8342 356.982 18.8342Z" fill="#EC691F"/>
<path d="M369.474 19.8041C370.185 19.5716 370.996 19.3656 370.916 19.6313L370.584 20.7474C370.504 21.0132 369.86 20.3223 369.474 19.8041Z" fill="#EC691F"/>
<path d="M136.185 23.0528C136.544 22.8735 137.687 22.5546 137.594 22.827L137.215 23.9165C137.122 24.1889 135.946 23.1724 136.178 23.0595L136.185 23.0528Z" fill="#EC691F"/>
<path d="M355.081 24.5407C355.47 24.5407 355.785 24.2254 355.785 23.8365C355.785 23.4476 355.47 23.1323 355.081 23.1323C354.692 23.1323 354.376 23.4476 354.376 23.8365C354.376 24.2254 354.692 24.5407 355.081 24.5407Z" fill="#EC691F"/>
<path d="M3.7681 47.361C4.15712 47.361 4.47248 47.0458 4.47248 46.6568C4.47248 46.2679 4.15712 45.9526 3.7681 45.9526C3.37908 45.9526 3.06372 46.2679 3.06372 46.6568C3.06372 47.0458 3.37908 47.361 3.7681 47.361Z" fill="#EC691F"/>
<path d="M22.1551 46.7297C22.5441 46.7297 22.8594 46.4144 22.8594 46.0255C22.8594 45.6366 22.5441 45.3213 22.1551 45.3213C21.766 45.3213 21.4507 45.6366 21.4507 46.0255C21.4507 46.4144 21.766 46.7297 22.1551 46.7297Z" fill="#EC691F"/>
<path d="M28.5013 28.3474C28.8903 28.3474 29.2056 28.0321 29.2056 27.6432C29.2056 27.2542 28.8903 26.939 28.5013 26.939C28.1122 26.939 27.7969 27.2542 27.7969 27.6432C27.7969 28.0321 28.1122 28.3474 28.5013 28.3474Z" fill="#EC691F"/>
<path d="M38.6416 41.654C39.0307 41.654 39.346 41.3387 39.346 40.9498C39.346 40.5609 39.0307 40.2456 38.6416 40.2456C38.2526 40.2456 37.9373 40.5609 37.9373 40.9498C37.9373 41.3387 38.2526 41.654 38.6416 41.654Z" fill="#EC691F"/>
<path d="M43.7185 38.4856C44.1076 38.4856 44.4229 38.1703 44.4229 37.7813C44.4229 37.3924 44.1076 37.0771 43.7185 37.0771C43.3295 37.0771 43.0142 37.3924 43.0142 37.7813C43.0142 38.1703 43.3295 38.4856 43.7185 38.4856Z" fill="#EC691F"/>
<path d="M275.14 31.8952C275.14 31.8952 273.944 31.7955 273.399 31.749L275.14 31.8952Z" fill="#EC691F"/>
<path d="M272.011 32.0015L270.814 30.8057C271.366 31.0116 271.805 31.4501 272.011 32.0015Z" fill="#EC691F"/>
<path d="M354.782 21.0997L353.174 20.1763C353.632 20.3424 354.33 20.7343 354.782 21.0997Z" fill="#EC691F"/>
<path d="M318.287 12.8881L316.52 12.7353C316.227 12.7088 316.991 12.7752 318.287 12.8881Z" fill="#EC691F"/>
<path d="M105.863 12.9878L104.667 11.792C105.219 11.9979 105.657 12.4364 105.863 12.9878Z" fill="#EC691F"/>
<path d="M87.3968 9.8921C86.8453 9.68616 86.4067 9.24769 86.2007 8.69629L87.3968 9.8921Z" fill="#EC691F"/>
<path d="M325.909 6.02578L324.72 4.87646C325.005 4.92961 325.364 5.22857 325.909 6.02578Z" fill="#EC691F"/>
<path d="M306.572 3.56104L306.579 3.97293V4.40475L306.572 4.81664L306.559 4.40475V3.97293L306.572 3.56104Z" fill="#EC691F"/>
<path d="M308.572 4.49756H309.004L309.416 4.5042L309.004 4.51749H308.572L308.16 4.5042L308.572 4.49756Z" fill="#EC691F"/>
<path d="M354.13 4.82959L354.137 5.24148V5.66666L354.13 6.0852L354.117 5.66666V5.24148L354.13 4.82959Z" fill="#EC691F"/>
<path d="M325.065 7.02881H325.49L325.902 7.0421L325.49 7.04874H325.065L324.646 7.0421L325.065 7.02881Z" fill="#EC691F"/>
<path d="M88.5263 9.56641H88.9582L89.3702 9.57305L88.9582 9.58634H88.5263L88.1143 9.57305L88.5263 9.56641Z" fill="#EC691F"/>
<path d="M316.818 10.8354H317.244L317.662 10.8421L317.244 10.8554H316.818L316.406 10.8421L316.818 10.8354Z" fill="#EC691F"/>
<path d="M298.97 17.5054L298.996 17.9173V18.3491L298.97 18.761L298.957 18.3491V17.9173L298.97 17.5054Z" fill="#EC691F"/>
<path d="M302.146 18.3359L302.658 18.2827L302.751 18.6481L302.777 19.0401L302.193 18.7478L301.621 18.4355L302.146 18.3359Z" fill="#EC691F"/>
<path d="M269.259 31.1177H269.685L270.097 31.1243L269.685 31.1376H269.259L268.841 31.1243L269.259 31.1177Z" fill="#EC691F"/>
<path d="M269.771 39.0566L269.791 39.4685V39.9004L269.778 40.3122L269.751 39.9004V39.4685L269.771 39.0566Z" fill="#EC691F"/>
<path d="M252.693 43.7935H253.165L253.617 43.8067L253.165 43.8134H252.693L252.241 43.8067L252.693 43.7935Z" fill="#EC691F"/>
<path d="M369.348 33.3433L369.667 33.6621L369.348 34.0807L369.029 33.6621L369.348 33.3433Z" fill="#EC691F"/>
<path d="M376.935 26.9801L376.62 27.2949L376.935 27.6096L377.25 27.2948L376.935 26.9801Z" fill="#EC691F"/>
<path d="M302.741 16.2126L302.426 16.5273L302.741 16.842L303.055 16.5272L302.741 16.2126Z" fill="#EC691F"/>
<path d="M316.081 14.3301L316.4 14.649L316.081 15.1206L315.762 14.649L316.081 14.3301Z" fill="#EC691F"/>
<path d="M313.543 12.3101L313.862 12.7419L313.543 13.0608L313.23 12.7419L313.543 12.3101Z" fill="#EC691F"/>
<path d="M307.184 12.4137L306.87 12.7285L307.185 13.0432L307.499 12.7284L307.184 12.4137Z" fill="#EC691F"/>
</g>
<defs>
<clipPath id="clip0_87_4253">
<rect width="412" height="81" fill="white"/>
</clipPath>
</defs>
</svg>
