<svg xmlns="http://www.w3.org/2000/svg" width="412" height="81" fill="none" viewBox="0 0 412 81"><g fill="#EC691F" clip-path="url(#a)"><path d="M333.79 10.563c-.206-.206-.651-.631-.571-.91l.392-1.335.478-3.495 1.143 2.259c.107.206.724.206.871.02 1.202-1.522-1.236-2.943-.259-3.734.684-.558 3.076-.69 3.82-.186 1.276.87.353 3.873-.697 4.205l1.488 4.06 1.848 1.94.418.391.944.83.352.306 1.535.326c.365.08.133 1.435-.206 1.594l-1.249.618-.446-2.1-.378-.258-.884-1.05-.286-.305c-.139.192-.857.85-1.05.737l-3.375-1.967-.924-.538c-.219-.133.605-1.528.345-1.56l-2.837-.373.246.512 2.226 4.85-2.771.783c-.213.06.691 1.369.89 1.256l1.994-1.143c.485-.279 1.781 1.096 1.595 1.628l-.758 2.219c-.073.212.18.385.346.285.186-.106.777-.664.824-.87l.89-3.694c.605.485 1.947 1.86 1.834 2.452l-.817 4.258 2.412-.69c.665-.193 1.821-1.03 2.366-1.549l-2.698.08c-.286.007-.771-.458-.798-.737-.033-.419.359-1.216.765-1.223l3.435-.08.399 4.04c.086.883 2.352 1.674 2.97 1.794l.831-1.807 2.299 1.913c3.256 2.71 3.429 6.404 4.153 4.57l1.342-3.388 2.406-.179c.286-.02.412 1.123.173 1.282l-1.05.704c-.193.133-.957.652-.944.632-.173.192 1.642 1.54 1.635 1.494.046.352.379-1.773 1.369-2.312.412-.226 1.362.592 1.588 1.024l.578 1.096c.312.598 2.964-.525 2.824-1.482l-.511-3.368c-.02-.14 1.149-.2 1.169-.047l.804 6.91c.067.584-.897 2.258-1.169 2.843-.107.226.943.432 1.189.485l2.472.525c.691.146.326 2.863-.345 2.657l-1.735-.545-.352.32c.106.165 1.17 1.208 1.615 1.308l5.509 1.256 3.163-.06 3.183 2.06-1.256-1.954c-.127-.193.179-.97.405-.91l1.482.379c.286.073 1.023.757.99 1.076l-.159 1.395c-.047.379 1.395.983 1.362.631l-.12-1.408 1.256-1.163-.399-4.291c-.039-.426 1.815-.904 1.635-.685l.485 4.684 1.768-2.764c.146-.226.531-.93.551-.837-.099-.638-2.279-1.707-1.501-3.607.511-1.262 3.349-1.681 5.894-.758.638.233 1.056 1.914 1.036 2.744-.04 1.967-1.428 3.608-2.757 4.1 1.056.524 2.272 1.42 2.339 2.145l.345 3.98c.445-.127 1.549-.605 1.635-.944l1.05-4.046c.306-1.19 1.389-3.169 2.306-3.767.325-.212 1.86-.292 1.98.073l.704 2.12.379 1.142c.08.246.957.399.99.146l.319-2.557c.067-.518 1.243-.944 1.841-.95.804-.014 2.166 1.993 1.728 2.657l-1.781 2.73c-.545.838-1.203 2.964-1.449 3.98-.219.897 1.409 2.67 1.914 3.096.179-.684.784-2.558 1.316-2.272l1.495.797c.339.18-.02 1.62-.399 1.72l-2.02.525 1.522 3.09 1.521-2.047c.326-.438 1.821-.073 2.459.113l.146-5.387 1.681 2.564 1.622 2.252.957-2.265.033 5.593c0 .671 1.568 1.967 1.807 2.306.113-.472.412-2.372.917-2.26l2.851.652c.545.126.226 2.551-.365 2.431l-3.223-.65c.239 1.228 1.03 3.042 1.934 3.527l2.624 1.428.04-6.696.751 2.285c.166.505 1.309-2.312-.684-5.594l1.362-1.142c.312-.266 1.542.73 1.409 1.116-.18.525-1.05 1.94-1.01 2.504l.531 7.66c.804-.305 1.323-.804 1.349-1.196l.665-8.124 1.502 2.47c-.326.566-.113.194.206-.358l1.634-4.159c.18-.465 1.17 1.256 1.15 1.728l-.206 4.956c.651.312.93.312 1.01.598l.651 2.298.233-.372 1.043-.83-.159 3.275c-.12 2.411 3.07 3.933 1.249 12.396-.06 1.077.199 1.25.678.114l2.332-7.6c.645-2.093 2.226 2.298 1.675 5.859l-.838 5.434c-.099.651-1.222 2.405-.757 2.87l1.714 1.707c1.848 1.84-3.003 5.72-.458 8.385l3.11 3.248c-1.396-.026-2.466-.212-2.805.053-1.169.897-1.136 4.299-.398 5.574l1.927 3.328c-.452.539.518-.425.525-.651l.133-3.361-1.748-.625c-.419-.152 1.143-1.129 1.475-.837l1.236 1.103 1.17-3.288c.724 1.215 1.814 2.557 1.781 3.355l-.213 4.863c-.027.551-.758 1.893-.997 2.046l-.87-6.265c-.04-.312-.645.877-.632 1.196l.166 4.451-1.136 7.142-.153 2.232c-.013.232-1.462-.518-1.408-.744l.551-2.286c.087-.352-1.389-.777-1.548-.458l-1.834 3.767-.412-2.585c-.04-.245-1.17-.126-1.097.113.073.24.273.884.24 1.136l-.452 3.415c-.047.339-1.19.944-1.502.791l-1.814-.89c-.632-.313-1.509 1.262-1.814 2.557l1.136-.412c.95-.584 1.176-.199.392.538l-.452.99 2.671-.644c.718.166 1.236.286.359.08l.472-1.887c.093-.365 1.562-.133 1.489.239-.552 2.91-2.977 4.916-4.187 4.371l-1.9-.863c-.406-.186-1.376.664-1.668 1.056-2.346 3.156-5.662 1.92-5.183 2.877 1.063 2.119 2.551 2.378 2.525 2.83l-.173 2.777c-.013.179-1.196.139-1.216-.02-.113-.671-.359-2.206-.352-2.133l-4.087-.963c-1.13-.266-1.907 2.996-1.821 4.152.113 1.595-.83-.777-3.482-1.388l-1.322-.306c-.239-.053.259-.644.631-1.109.778-.964.266-1.13-.512-.565l-1.375.624c-.266.12 1.143 2.744.279 3.322l-1.861 1.242-1.362-1.74c.705 3.348-2.472 4.624-.963 4.916.378.073 1.302.306 1.043.438l-3.522 1.768c-.585.292-1.601-.167-2.645-.691-.432 3.567 2.838 5.029-.046 4.976l-3.815-4.392c.811-1.222.499-.75.08-.119l-2.485 2.478c-.113.113.013 1.162.046 1.282l2.838-1.402c.266-.133 1.07 1.535.764 1.548s-1.043.093-1.243.292l-2.139 2.213-2.306-3.276c-.246-.352-1.19.731-1.289 1.15l-.306 1.262c-.12.505.884 1.621 1.356 1.873.033.02.604-.372.824-.498l1.063-.638c.219-.132.684.691.751.937.093.326.053 1.508-.259 1.402l-1.403-.472c-1.016-.345-.671.87-2.79.505-.731-.126-1.788-.365-2.24-.219-1.508.478-.598 3.036-.804 3.189l-1.09.823c-2.91 2.206-2.266 7.322-1.688 11.434l2.293 16.363c.093.677-.851 2.145-1.09 2.192-2.206-4.298-2.831-8.517-2.744-13.3l-1.103-10.105c-3.183-4.285-3.017-9.38-.638-14.011l-.691-2.119c-.147-.452-1.874-.04-1.761.418l.824 3.389c.206.85-1.834 2.59-2.499 1.993l-1.395-1.256c.033-.505.046-.605-.02.286l-3.243 2.83c-.392.339-.738.624-.585.817l1.283 1.654c.232.299-1.05.99-1.263.678-2.485-3.674-5.715-2.525-7.715-6.816-1.635.418-3.263 1.714-4.425 3.547-.565.193-2.273.425-2.672-.093-1.163-1.528-1.169-5.049-1.495-3.348l-.904 1.488-.83 1.289c-.645.996-1.422-1.495-2.711-1.561-3.23-.173-5.689 1.92-6.094.85-.16-.419-.332-1.242-.372-1.761l-.12-1.694-2.718 1.987c-.405.299-.731 1.813-.983 2.252l-.578.99c-.113.192-.97-.645-.984-.837l-.279-3.867c-.04-.571.818-1.887 1.269-2.737 1.077-.531.911-.771-.053-.571l-2.545-.193-3.508-.226c-.2 1.389-.226 1.581-.16 1.15l3.814 1.043c.512.139-.133 2.225-.631 2.092l-4.864-1.282c-1.083-.286-.312-3.295.399-4.205.365-.472-1.137-1.701-1.675-1.913-.113-.047-.419.704-.512.823l-.97 1.256c-.226.292-1.236-1.056-.91-1.229l1.395-.724.087-.711-4.213-.518c-.705-.087-.406 1.255.392 1.109 1.362.532 2.332 2.485 2.007 3.747-.12.478-.612 1.236-.898 1.535-1.867 1.999-2.033-3.541-4.266-4.99-.658-.425-2.512 1.07-2.844 1.774-1.083 2.339-.771.538-3.94.445-.372-.013-1.489-.558-1.163-.737l1.455-.784c2.326-1.256 2.08-3.029 2.645-2.75l1.375.671 1.004.491 1.136-2.278 1.057-.671c-.858-.585-1.236-.891-1.389-.725l-1.176 1.223c-.446.465-1.947.751-2.452.345-1.542-1.235.897-4.69-.246-4.763l-7.018-.439c-1.867-.119-1.275-.697-3.767-1.082l-2.439-.372-.691-.107-1.336.067c-.983.046.618-2.292.519-4.073l-.107-2.013c-.033-.571 1.934-.405 1.828.14l-.233 1.202-.186.93c-.02.113.213.791.279.997.047.126 1.017-.239 1.023-.399l.2-4.152c.013-.266-.545-.897-.778-1.016-.359-.18-1.747.272-1.907.644l-2.512 5.973-3.017 8.297-.591-1.495c-.292-.737-.877.366-2.784-.524-.346-.16-.399-1.442-.034-1.542l1.768-.485c2.18-.598.479-1.534 3.681-4.989.632-.684.991-2.704 1.044-3.521-.505.04-2.771-.299-3.157.286l-5.09 7.759c-.405.612.386 2-.332 2.472l-1.608 1.056c-.864-1.488-2.971-2.212-4.393-1.933-1.588.312-1.182-.492-1.933-2.551l-1.569 7.812-17.569-.219-2.24.013-5.688-.345-10.167-.478c-.099 0-.817.558-.903.631l-.499.79-.724-1.249c-.14-.239-1.309-.584-1.342-.312l-.266 1.907-.738 5.354c-.033.253-1.249.764-1.336.705l-7.608-8.438-10.486-2.199-1.469-.325c-.425-.093-1.209 1.089-1.209 1.515l.02 3.408-.565-.837-1.203-1.761c-.85-1.242-4.585 2.804-5.721 2.106s-2.007-3.574-2.353-4.963l-.265-1.056-.193-.81-.16-1.19c-.099-.737-1.98.392-2.332.206l-2.897-1.528c-.253-.132-1.442.831-1.509 1.502l-.219 2.212c-.02.219-.452.91-.658 1.063l-.837.631-.04-1.521-.133-4.704c-.007-.345-1.588.326-1.694.651l-1.834 5.621c.179.524.471 1.388.285.85 1.529-.399 2.06-.551 2.24-.246.179.306.418 1.07.226 1.183l-1.509.877c-1.123.651-3.582-1.176-4.126-2.306l-3.635-7.633c-.572-1.196-4.247-1.382-5.469-.844-.519.226-1.289 1.356-1.588 1.834l.432.339 1.302.664c.346.173-.12.904-.459 1.083-.338.179-1.315.219-1.295-.159l.066-1.243-.332-.252-3.848 3.913c-.206.206-1.109-1.236-1.123-1.508l-.186-3.873-.478.345-1.429 3.92-.425 1.169c-.093.259-1.389-.485-1.529-.737l-3.242-5.88c-.153-.279-.944-1.196-1.057-.917l-.671 1.601-1.396 10.696-4.718 3.588-3.495 1.461c-.531-1.428-1.615-3.767-1.781-5.135l-.757-6.258-.113-4.398c-.007-.352-2.293-.013-2.273.325l.631 9.427-4.591 2.578c-1.097.618-2.506.997-4.054 1.282l.06-6.55-2.186.804c-.499.186-1.223-1.09-1.456-1.568l-.691-1.395-.418 6.524c-.02.272-.698 1.295-.771 1.355l-.386-6.484-.059-2.405c.066-.086-.778.724-.864.91l-2.386 4.876-.697-4.165c-.153-.93-1.482.81-4.845 1.388-1.84.319-2.791 1.276-3.223 3.369l-1.614-1.967c-4.818 1.329-9.423 2.119-14.281.764-1.196-.332-3.542-.565-4.638-.492-.346.02-.272-1.242-.538-1.468l-2.067-1.714-4.193.877-1.056-.239c-.346-.08-.758-1.229-.432-1.242l1.913-.087c.532-.026 1.316-1.541.864-1.807l-4.213-2.524-1.601 3.773c-.246.578.299 2.186.511 2.923.067.24-.843.585-.917.353l-.511-1.701-.791-2.611-1.329 4.245-1.243 5.049-4.273-5.886c-.279-.385-1.056-.917-1.933-1.541l.186 3.713c.04.751-1.469.897-1.435.06-.36-.923-.572-1.495-.838-1.402l-1.74.598c-.406.14.331 1.362.604 1.708l.671.85c.133.166-.206.757-.418.777-.326.02-1.237-.252-1.45-.498l-2.91-3.302.213-1.255-2.452 2.571c-.293.305-.479 1.401-.518 2.026l2.571-1.701c.366-.239 1.422 1.057 1.196 1.449-1.455 2.524-3.867 2.358-3.993 2.159l-1.476-2.365c-.61-.984-3.322-.751-4.306-.233v2.505c.14-.014 1.084-.166 1.19-.432l.452-1.096c.1-.24.95-.333 1.023-.087l.984 3.608 1.462-1.415c.259-.253 1.076.412 1.255.717.24.412.027 1.761-.418 1.614l-1.608-.524-1.276.797-1.821-.605c-3.19-1.063-2.724-3.428-5.489-3.76l-.173 2.711c-.013.239-1.229.186-1.315.026l-1.92-3.574c-.293-.545-.473-.87-.5-.903-.026-.034-1.322.398-1.328.597-.033.95.299 2.319.81 3.986l-2.226 1.382c-.471.293-1.834-1.793-1.575-1.448l-4.113 3.933c1.03 1.05 1.077 1.588 1.27 2.458.06.266-.884.425-1.05.213l-.771-1.004c-.419-.544-1.595-1.408-2.266-1.82l-4.014-2.458-2.113-1.415-1.575 1.594 3.11 1.867c.85.512 2.067 2.093 2.166 3.043.02.206-.877.996-1.023.844l-1.01-1.083-2.206-2.199-1.343-1.262c.426-.306.373-.266-.392.285-.458.405-3.502.671-3.807-.292l-1.117-3.514-.631 1.302c.047.305-1.243 1.847-1.721 1.514-4.545-3.155-8.486 2.777-9.05-2.039l-.313-1.229c-1.748 1.249-2.658 2.126-2.93 3.116l-.406 1.474c-.086.326-1.289-.166-1.316-.491l-.319-3.654c-.04-.452.4-1.654.559-2.099.438-1.223 2.618-1.502 1.063-1.615l-4.14-.299c-.572-.04-2 .173-2.485.266-.2 1.043-.246 1.295-.153.811l3.987 1.102c.525.146-.086 2.219-.625 2.08l-4.246-1.096c-.492-.127-1.555-.997-1.402-1.475l.87-2.817c.705-.89.432-.585-.325.299-.704.119-1.183.199-.744.126l-.572-3.787-.472 2c-.086.365-.777 2.299-.877 1.94l-.897-3.421c.631-1.236.485-.97-.18.298l-.199 4.206c-.02.425-.425 1.289-.697 1.607-.273.319-1.569-.126-1.741-.511l-1.861-4.278c-.233-.532-3.429.152-3.688 1.435l-.28 1.368c-.052.272-1.448-.02-1.534-.286-.332-1.016-.206-3.355.352-4.364.272-.492 2.033.186 2.505.511 1.243.857.618-1.621 1.555-1.92l1.774-.571c.452-.146-.465-1.674-.93-1.568-2.352.551-1.86 2.564-3.754 2.352l-2.864-.319-1.004-.113c-1.309-.153 2.14-1.322 3.064-3.614.312-.784.644-1.82 1.09-1.814l1.887.014-.12-1.522-3.436.817c-.458.107-1.242 1.356-1.415 1.608l-5.143-.505-3.19-.85-4.412-.292c-.293-.02-1.196-.306-1.15-.578l.226-1.349.585-3.521.339-1.501c.1-.439 1.335.485 1.262.943l-.412 2.458c-.04.239 1.236.784 1.376.585l1.688-2.352 2.299-2.02 1.455-2.996 2.525-2.923-1.448-.691c-.173-.086-.778.199-.784.385l-.047 1.794-.97-.478c-.113-.053-.465-.093-.585-.047l-3.509 1.302-.073-1.255c-.02-.326.067-1.017-.16-1.136l-1.069-.578c-.206-.107-.18-.957.047-.997.338-.066 1.023-.073 1.375 0l3.92.89c.247.054 1.237-.956 1.05-1.142-.185-.186-.644-.645-.883-.751l-2.366-1.063c-.478-.212.12-1.601.492-2.664l-3.117.91c-.259.073-1.674-.279-1.508-.505l2.2-2.983c.192-.265 1.142-.425 1.887-.617.199.199-.559-.671-.765-.824l-2.757-1.98c-.286-.206-1.828.698.02.684l.73 3.203-1.395-.904-2.12-2.564c-.1-.12-.245-.127-.544-.206L-11.821 97c-.312-.086 0-1.142.292-1.282.293-.14 1.223-.246 1.336.067l.438 1.196.406.412 1.76-1.482c.665-.558 1.024-2.465.546-3.209l-1.143-1.78-1.934 2.823-1.05 1.528c-.246.352-1.495-.598-1.375-.996l.85-2.85h2.545l-.704-4.505 1.628-3.527c.578-1.25-4.007.086-4.153-.106l-.917-1.203-.698-.91c-.146-.193.877-.306 1.11-.24l1.541.466c.32.1.705-1.07 1.017-1.17l2.645-.87-1.156-3.78c-.074-.239-.851-.292-1.084-.372-.232-.08-.458-.99-.192-1.016l2.631-.28c.658-.066 2.173.266 2.665.4l.764-1.688c.18-.392 1.502-.339 1.94-.286l1.442.166c-.611-.385-1.68-1.003-1.834-1.368l-1.787-4.259c-.093-.226-.16-1.196.066-1.249l1.336-.292c3.043-.671 3.854-3.727 5.755-2.372 1.754 1.256 1.13 2.578 1.787 3.501.718-5.846 8.353-4.118 4.419-9.187l-1.435 2.91c-.406.823-3.117.95-3.914.405-1.695-1.17-2.439-4.192-.572-6.212l-4.1-2.717L.313 57.14c.2.87 1.17 2.71 1.601 3.514.226.412-.658 1.787-1.023 1.522-.24-.18-.751-.691-.85-.957l-.506-1.349c-.1-.259-.784.3-.71.578l.438 1.721c.093.352-.864.73-1.216.658l-3.103-.691c-.486-.106-.24 1.68-.067 2.843-1.17.997-.817-1.68-3.741-.624l.944-2.033c.04-.08-.147-.266-.366-.518l.472-.352.485.299 1.103-1.721c.206-.326.465-1.123.797-1.083l1.163.133c.592.066 1.748.193 1.41.153-2.998-1.25-2.08-3.09-3.822-6.026-.505-.857-.618-3.514.312-3.647l3.51-.492-.366-4.065c-.073-.85-.598-2.16-.333-2.877.266-.718 2.42-.864 2.944-.306.525.558.518 2.299-.046 2.817-.353.319-1.376 1.25-1.024.923.864 1.07 1.276 2.067 1.236 3.19-.086 2.351 5.443-1.137 5.549.637l.173 2.764c.08 1.328 3.555 1.548 4.379.598.186-.22.126-1.21.08-1.236-.851-.339-2.1-1.628-1.841-2.232.452-1.036 3.123-1.003 3.176-.106l.233 3.64 1.442-.71.053-3.057 1.462-7.015.492-4.983c.066-.65.538-1.893 1.09-2.086.55-.192 1.674.087 2.053.532 1.309 1.541-1.044 2.737-.784 5.361l.598 6.105 1.794.28.425 1.46.598 2.054.917-2.684c2.685 1.554-1.355 2.159.173 5.082l.824-2.664 3.063 1.408-1.84-4.969c1.103-.498 2.212-1.834 2.372-2.883l-.492-.372-1.289-.684-1.176 1.92-1.84-2.02 2.837-2.153 1.774 2.359.345.525.612-1.568c.166-.419 1.854.113 1.74.551l-.478 1.894c-.146.57.213 2.451.579 1.986.332-.425 1.222-2.126 1.72-1.94 2.034.757 1.968 2.618 5.03 3.415l-1.215-2.126c-.253-.439.95-1.23 1.242-1.355l-2.046-1.136c-.439-.246-.758-2.126-.253-2.093.917.053 3.104.578 3.562 1.362l1.402 2.398c.645 1.103 3.05-.99 6.572 1.17l1.681 1.03c.273.165 1.097-.865.924-.752-.804-1.036-1.555-1.94-1.774-2.657-.18-.598.498-1.9.937-2.744.305-.584 2.352-.677 2.512-.026.591 2.352-1.98 2.557-.074 2.803l3.702.479-2.485 1.793c-.313.226.677 1.608.704 1.655l3.376-2 1.86-1.043c.426-.24 1.376.71 1.987 1.302.16.053 1.11-1.907.558-2.206l-1.8-.963-.545.432-2.107 1.269c-.266.16-1.096.325-1.395.365-.446.067-.286-1.329-.087-1.734.107-.212.332-1.196.153-1.182-.452.046-1.9.405-2 .026l-.638-2.465-3.389-1.07c-.89-.278-1.847-2.816-1.602-3.726.28-1.003 2.473-2.345 3.49-2.717.358-.133 1.787.81 1.468 1.023l-1.475.983c-.545.365-1.456 1.654-1.535 2.432-.034.358 1.17 1.754.983 1.368l1.588-2.677c.406-.691 2.492-.512 3.482-.518l4.506-.014c.67 0 .843 1.515.937 2.425.08.758 2.086.77 3.21.538 2.704-.558.95-3.062 3.282-4.245l1.262-.644c-1.163-.253-2.372-.306-2.624.206l-1.376 2.81c-.292.591-2.472-.385-1.993-.797l2.299-1.954-2.964-.438c-.518-.08-.26-1.893-.06-2.378.246-.611 1.708-1.608 2.2-1.156l1.8 1.647 1.243-.65-1.9-5.369c-.186-.524 2.472-1.175 2.671-1.129l-.206-4.517c-.027-.632 2.266-.253 2.186.338-.18 1.329-.292 3.501-.16 4.518.054.378 1.748.153 2.08-.033l.964-.538c.2-.113.671.584.698.81l.266 2.239 2.651-.77-1.09-1.243c-.246-.28.499-1.501.804-1.289l1.861 1.302c.79-2.259 3.575-1.249 6.26-3.767.498-.465.923-2.478 1.488-2.232l1.887.804c.406.173 1.223-1.156 1.662-1.17l2.06-.072 1.395-3.594c.12-.313 1.137-.087 1.455-.027l2.938.512-.386 1.694 3.31-1.11.83-2.292 2.811-.677-1.88 1.98c-.187.199.053 1.321.252 1.129.452-.452 1.728-1.581 2.279-1.562l4.06.18 2.206 1.382 7.044.883c.472.06 2.133-.465 1.708-.598-.937-.292-2.545-.418-3.748-.458l.751-4.743c.067-.439.811 1.09 1.05 1.86-.013.186 1.455-.611 1.283-1.083-.213-.605-.924-2.312-.605-2.757.498-.691 2.89-.691 3.694-.359.565.233 1.143 2.033.765 2.518l-1.628 2.08c2.339 1.188.903 3.255 1.767 4.118 3.815 3.807 7.755 2.512 7.795 2.651.179.605.844 2.604 1.249 2.113l.877-1.077c.173-.219 1.064.047 1.376.166 1.037.399-1.715 1.283-.771 1.907l2.605 1.72 1.336-1.454c.186-.206 1.089 1.07.83 1.196l-1.541.797 1.867.664c.704.253 2.372.598 3.216.658l8.858.624.299-3.448c.047-.564 2.033.06 2.2.565l1.049 3.17c.187.564 2.373.398 2.845.331l-.074-3.693c-.006-.373 1.516-1.183 1.715-.838 1.342 2.28-.1 3.541.538 3.874.798.418 2.678 1.136 3.715 1.255l7.967.897c2.293.26 2.585-6.836 6.213-8.251.193-.073.559.511.632.717l1.688 4.65 1.455 4.007 5.017.65 1.415-3.859c.093-.253.904-.724 1.17-.79s1.03.604 1.023.883l-.1 3.169c-.006.292.22 1.11.293 1.395.073.286.751-.525.85-.804l.658-1.747.572 2.637 1.183-.677c-.047-1.176-.06-1.415 0 .173l2.066 1.116c.512.279 2.479.305 2.765-.2l3.342-5.813c.14-.239 1.07-.704 1.329-.797s.665.558.651.83l-.272 5.774c.073-.067.605-.997.671-1.263l1.189-5.009c.605-2.55 2.333-4.185 4.745-5.753v1.262c-.698 1.834 1.389 1.807 1.761 4.285l1.043 6.943c-.166.59 1.642.73 1.602.166l-.319-4.518c-.08-1.09-.638-3.229-.412-4.225l1.136-5.042.266-2.1 1.243 9.906c.206 1.66.624 3.129.398 4.624l-.717 4.723 2.99.505.518-4.166.339 4.073c.033.398 1.695.824 1.675.418l-.353-7.208c-.013-.245 1.183-1.189 1.356-1.016l3.469 3.488c.624.63 2.352 2.703 3.037 2.126l2.611-2.2c.306 2.478.339 6.398 2.093 8.198 1.967 2.02 5.456 2.558 8.367 3.316-.904-3.063-.599-5.235 2.166-6.996l.252 1.216-1.435 5.5c-.066.253.957 1.11 1.136.91l1.316-1.46c-.033-.46 0-.02.066.903l1.143 1.036c.745.678.738-1.402 1.947-1.754l.599 1.668c.106.305.857.737.923.445l.386-1.648 1.913-7.786c.499-.146.984-.285.811-.239l.086 2.99c.014.358.22 1.54.24 1.574l.89-2.558c.1-.285 1.349-.113 1.369.2.053.916-.04 2.916-.259 3.66l-1.156 3.847 5.947-.12c.877-.02 2.073-1.369 2.592-2.113l2.113-3.049c.139-.206-.107-1.229-.326-1.368l-1.674-1.083c-.492-.32.89-1.754 1.402-1.482.378.2 1.202.658 1.295.459l.658-1.362.499-1.037c.099-.206.81.625.817.844l.179 4.737c.007.226.971.797 1.09.63l1.063-1.5.745-1.057c.146-.206.511.498.604.784l1.276 3.9c.08.246 1.628-.186 1.489-.405l-.784-1.27.97-.238c.166-.04.943 2.537 1.03 1.8l.173-1.468c.026-.2.651-.578.85-.492l1.183.518 1.163.32c.166.046.219-.685.306-1.39 1.302-.04 2.591.977 2.604-.185l.067-4.206-2.253.087c-.086-.127.08.12.386.558l.677.963c.193.273-.711 1.72-2.498 1.78l-3.03.1c-.027.22.013-.126.119-.95.97-2.91 2.632-1.328 4.884-3.62.838-.85 1.635-1.608 2.233-1.8l2.16-.692c.219-.073 1.429.512 1.236.645l-2.951 2.032c-.764.525-.026 3.076.678 3.256l1.083-3.528 1.123-.717 1.655 1.793.917-1.003c-.558-.611-1.495-1.382-1.655-1.794l-1.475-3.753c-.046-.12-.106-.16-.272-.359-.087.053-1.243.339-1.509.18-.724-.419-.584-2.571-.119-3.322l.943-1.515c.22-.352 1.761.126 1.655.525l-.452 1.687c-.053.213-.831.744-.757.944l.425 1.13.272.032c.512-1.176 1.768-2.604 2.698-3.315l-1.448-3.062c-.273-.578-.844-2.319-.28-2.611.565-.292 1.655-.512 2.506-.658l-.346-4.424c-.033-.445 1.661-1.03 1.827-.605l.499 1.23-.758 1.328.685 2.95 2.804-.572c.312-.066.89.532.87.85l-.079 1.143c-.033.452.904 1.21 1.322 1.023l1.715-.737c.332-.146-.991-1.13-1.037-1.488l-.133-.957c-.04-.272 1.728-.312 1.794-.053l.671 2.511 3.881.087.625-3.588c.113-.664 1.688 1.814 1.256 2.325l-2.419 2.883c-.512.605 1.409 2.253 1.927 2.246l-.372-2.279c-.1-.624 1.488-2.06 3.94-2.81.705-.212-1.761-3.461 0-2.558l1.396.711.339-.405 1.608-1.528c.943-.897 3.09 3.023 3.827 1.946l1.104-1.607-.545-.432-1.157 1.21c-.352.364-.106-1.197-.159-1.635-.067-.505-1.475-.286-2.107-.2-.312.04-1.169-.89-.863-.983l1.448-.445c.572-.173 2.107-.418 2.406.087l.97 1.62.159.479 2 .133 3.044.664c.525.113 1.488.399 1.309.352l-1.003-2.146c-.439-.936 2.02-2.81 2.053-2l.066 1.914c-.438-.193.246.106 1.197.518l1.648-.943c-.898-.85-2.386-2.518-2.951-3.667-.312-.632 1.734-1.874 2.445-1.847l3.695.153 1.356 2.079 4.751-.571.419 2.59c.04.226 1.089-.199 1.096-.431l.013-1.661-.265-.266zm-8.373 3.05-.864-2.432c-.086-.253-.657 1.123-.558.99zm6.18-2.32-.99.154-.139 1.78zm-2.425 2.87c-.106-1.142-.379-.996-.592-.338-1.016 1.395-.113 1.355.592.339m-3.808 1.436c.299-.14 1.296 1.56 1.555 1.993.346-.824.233-1.973-.239-3.01-.1-.226-.89-.006-1.19.087l-3.967 1.222.08 1.481 3.768-1.767zM90.959 16.868l-.32.319.32.318.319-.319zm215.227 1.016.964 2.319 1.801-3.315-2.253.856-.512.133zm26.381-.385-.318.319.318.319.319-.32zm-.458 2.684-1.442-2.14-1.09 3.289zm3.628-2.173-.319.439.319.319.319-.32zm-1.9 1.389-.319.319.319.319.319-.32zm-7.609.637-.319.32.319.318.319-.319zm-35.658 9.886c1.755-4.046 5.941-2.956 3.396-5.86-.631 1.283-1.468 2.326-2.525 2.399-.758.053-2.2-1.329-2.126-2.12l.272-2.956-2.439-.903 2.14 6.43-4.412.499c-.452.053-.293 1.68.146 1.58l1.801-.418 3.395-1.169.346 2.511zm43.938-8.165c1.621-.71.272-.12-.339.146-.91.645-.492.379.339-.146m-36.429.113-1.714.618c-.246.086-.159.77-.08 1.501zm5.317.066-.319.32.319.318.319-.319zm22.832 0-.319.32.319.318.319-.319zm-38.681 3.8-.319.32.319.544.319-.545zM69.581 27.71c.133-.439-.412-1.542-.83-1.502-.28.027-1.03.233-1.024.512s.113 1.176.213 1.428l.85 2.186.798-2.631zm229.376-.067-.319.32.319.318.319-.319zm64.204 2.146a10 10 0 0 0-.431.24zm-78.518 1.043c.791-.478.924-.565.067-.046-.665.511-.911.697-.067.046m83.768 5.866-2.452-1.269.319-1.707-4.871-3.269.558 3.296 2.379-.452 1.482 4.285 2.213-.213.379-.664zm-4.525-6.657-.372.605 1.236.857-.858-1.462zm-296.391.771-.32.319.32.319.319-.319zm221.421.937-.412.013.412.013h.425l.412-.013-.412-.013zm-234.1 5.401-.32.319.32.319.319-.32zm1.017 2.558-1.343-1.25c-.1.838.479 2.36 1.123 2.32.253-.014.485-1.735.22-1.064zm331.271 2.517-.014.412v.426l.014.411.013-.411v-.426zm-332.926.625-.319.319.319.551.319-.551zm335.464.638-.319.319.319.319.319-.32zm10.121.491c-.166-.02-1.13.964-1.05 1.316l.485 2.152.558-3.468zm1.295.784-.013.412v.425l.013.412.014-.412v-.425zM31.651 47.481c.193-.246-1.316-.691-1.522-.486-.724.725-1.276 2.459-.877 3.508l2.392-3.023zm369.713 1.567.665-1.375c.152-.319-.804-.804-1.27-1.05l.1 3.395.505-.963zm-383.329-.485-.013.412v.425l.013.412.014-.412v-.425zm397.609 1.9-.013.412v.425l.013.412.014-.412v-.425zM18.813 55.984l1.309-4.232-2.186.578.166 3.893c.013.306 1.13-.093.71-.239m4.293-1.72-.32.318.32.32.318-.32zm-9.423 3.261-.332-2.405-.758.16c-.332.877-.645 1.428-.339 1.574zm405.762 2.445-.319.319.319.319.319-.319zm7.742 8.457.113-5.454c-1.741 1.05-1.788 4-.113 5.454m4.18 8.583.897 3.98c.093.412 1.276 1.103 1.183 1.521l-.366 1.575c-.08.338.299 1.56.392 1.235.146-.518.592-2.232 1.09-2.205l2.891.166.618-7.275c.026-.279-.897-1.209-.937-.936l-.173 1.342-.273 4.53-3.641-.08 2.08-3.999c-.239-.04-1.509-.172-1.681-.412-.731-1.05-.678-3.6-.652-5.175l.107-8.198c-1.063 1.708-.984 4.491-.864 6.391.06.937-.984 2.917-1.276 3.887-.159.531 1.09 1.554 1.442 1.98.199.239-.492.883-.684 1.122-.073.086-.167.452-.147.545zM.034 72.029l1.242-2.172c.2-.346 1.097-.412 1.907-.572l-.99-1.076c-.239-.26-1.734.279-1.827.618-.206.797-.332 2.451-.332 3.195zm11.662-1.92-.32.319.32.319.319-.32zm-8.247 1.9-.319.319.32.319.318-.32zm8.247 2.538-.32.319.32.319.319-.32zm-15.73 2.63c-.218-.312-.803-1.202-.73-1.175.08.026-.85.192-1.123.252s-1.27 1.136-1.023 1.243l2.033.87c.332.14 1.037-.904.837-1.19zm444.305 5.269-1.203-.033-.897 2.517c-.166.465.652 1.263 1.117 1.76l.977-4.244zm-.179 10.975-.153-2.518-1.887 1.8 2.046.724zm1.369 12.403-.273-2.691c-.232.093-1.548.512-1.555.871l-.046 2.87 1.422-.585.452-.458zm1.661-1.169c.239-.173-.625-.299-.917-.286s-.279.844-.266 1.149c.013.226.99-.73 1.183-.863m-443.268.412c-.073.086-.385.451-.365.425zm.38.611.232.478c.033.073-.153-.352-.233-.478m1.414.87-.412.013.412.014h.426l.412-.014-.412-.013zm440.012-.292-.226.352-1.442 2.279c-.658-.266.957.385 1.356.551.319.126 1.814-.957 1.628-1.236zm-2.605.93-1.07 1.481c-.166.226 1.329 1.057 1.296.771zm-4.014 7.301c2.134-1.282 1.629-3.621.007-4.491v4.491zM5.569 112.692c.764-.591.964-.744.173-.133-.625.485-.87.678-.173.133M4.2 114.546l-1.82.206 1.687.425zm.565 6.955-2.651-2.052c-.552-.426-2.213-.266-2.937-.266l-.479 1.415 2.14-.299c.963-.133 1.774 2.564 2.625 2.026zm300.531-.578c1.881-.219.498-2.192-.492-.989-.166.199.206 1.023.492.989m-308.186-.106-.32.319.32.319.319-.319zm186.893 5.342-.452-1.528c-.093-.326-1.163.737-.95.976l.924 1.023zm236.705-.605-.944-.073-1.468 1.554c.731.485 1.395.917 1.528.592l.877-2.08zm-107.165.97-.319.319.319.319.319-.319zm-31.704.638-.013.412v.425l.013.412.013-.412v-.425zm11.629.744c.764-.592.963-.744.173-.133-.625.485-.871.677-.173.133m25.783-.744-.014.412v.425l.014.412.013-.412v-.425zm-32.761 9.593.711-1.176-.917-6.604-2.113 3.741zm-264.016-5.162-.319.319.32.319.318-.319zm57.706 1.9-.319.319.32.319.318-.319zm-45.658 3.175-.014.412v.425l.014.412.013-.412v-.425zm5.389 2.186c.22.193-.824-.724-1.123-.99l-3.495 1.708zm339.584.977-.319.319.319.318.319-.318zm-28.534 3.175-.319.319.319.319.319-.319zm5.442 1.648-1.196-1.136-3.608 1.886 4.804-.757z"/><path d="m41.187 36.353-2.505 2.657c-4.36-.73-6.353 1.98-6.526.16l1.628-3.142.784-1.522c.186-.359 1.442.2 1.887.445 2.698 1.495 6.047 0 4.732 1.395zm360.901-2.339-1.023 1.223c-.226.272-1.469-.392-1.681-.671-.578-.744-.837-3.19-.087-3.787l2.944-2.332c.472-.372 2.306-.06 2.532.498s.04 1.8-.366 2.286L402.095 34zM7.994 46.517c-1.601-.684-1.7-3.441-.418-4.398.67-.498 2.552-.65 3.156-.113.605.539.984 2.312.877 3.123-.133 1.043-2.113 2.033-3.621 1.388zm41.619-18.9c-.652.026-1.735-1.588-1.708-2.226.033-.77.87-2.338 1.714-2.604.791-.253 2.186 1.322 2.293 2.132.126.937-.718 2.631-2.3 2.698M410.388 32.3c.585-.465 2.645.266 2.904.937.299.79-.159 2.558-.957 3.043-.611.379-2.093-.053-2.738-.658-.644-.604-.438-2.352.798-3.328zm-65.939-21.451c-.213.199-1.661.498-1.748.226l-.618-1.934c-.465-1.441 1.283-4.019 2.785-2.99 1.023.712.578 3.774-.412 4.698zM123.533 16.31c-.977.305-1.741-1.927-1.376-3.25.279-1.029 1.848-2.338 2.532-1.86 1.475 1.03 1.236 4.359-1.156 5.11m192.269-6.086-5.203 2.12c-.691-.366-1.236-.784-1.177-.924l1.535-2.857 4.838 1.661zm62.118 18.223c.572-.565 2.758-.372 3.077.266.385.764.246 2.57-.352 3.182-.492.511-2.16.352-2.791 0-.738-.425-.95-2.438.066-3.441zm-27.358-6.776-2.013.591c-.266.08-.871-.358-.658-.531l1.123-.897c1.17-.937-2.651-2.591-2.445-2.97l.591-1.07c.053-.092 3.369 1.084 4.034 2.519l.751 1.634c.146.312-1.017.604-1.383.71zm-225.78-11.546c-.18.232-1.528.299-1.728.073-.804-.904.339-3.893 1.741-4.02l1.675-.152c.445-.04.379 1.388.106 1.747l-1.787 2.352zm255.052 27.317c-.173.638-2.186 1.429-2.738 1.136-.665-.345-1.249-1.867-.95-2.597.232-.578 1.282-1.077 1.967-1.21.737-.146 2.026 1.542 1.721 2.671M44.03 31.909l-1.654-.771c-.332-.153.226-1.501.578-1.382l1.343.472.89.325s.332-.558.552-.923l.817-1.355c.252-.426 1.88.59 1.681 1.043-.89 2.066-2.758 3.262-4.206 2.584zM346.701 2.451l-2.571 2.844c-.359.392-1.628-.957-1.509-1.475.153-.651.844-2.04 1.429-2.339l1.874-.943c.392-.2 1.07 1.594.777 1.913M58.364 25.405c.146.133.445 1.01.465 1.222.027.326-.684.977-.977.817l-2.478-1.322c-.326-.173-.691-1.056-.738-1.415-.066-.485 1.356-1.555 1.708-1.222l2.027 1.92zm14.466-6.352c.346-.451 2.393-.445 2.546.087.192.664.126 2.04-.233 2.63-.286.472-1.78.26-2.26-.013-.604-.338-.577-2.013-.052-2.704m220.005-5.215c.333-.425 2.486-.385 2.585.147.127.67 0 1.98-.392 2.544-.305.452-1.608.319-2.12.1-.624-.273-.637-2.067-.073-2.79m-37.358 26.905c.684-.432 2.199-.346 2.412.16.279.657.345 2.138-.179 2.584-.419.358-1.848.16-2.32-.113-.598-.34-.491-2.266.093-2.631zM25.425 34.951c-.459.512-2.286.26-2.466-.285s-.232-1.88-.026-2.412c.172-.452 1.8-.013 2.16.312.445.405.737 1.927.325 2.385zm348.873-3.042c-.299.75-2.179.71-2.571.152-.426-.604-.279-2.431.365-2.71.891-.386 2.625 1.508 2.206 2.558M53.666 28.946c.432.073 1.376 1.322 1.07 1.614l-1.216 1.19c-.405.398-1.655-.738-1.82-1.27l-.4-1.295c-.126-.405 1.655-.352 2.373-.24zm74.179-14.682c-.644 0-1.661-1.163-1.701-1.648-.046-.598 1.243-1.608 1.907-1.462 1.057.233.984 3.116-.206 3.11m221.043-7.335c.059.545-.612 2.265-1.077 2.239s-1.635-.638-1.522-1.076l.485-1.88c.133-.512 2.047.1 2.114.717m-29.99 4.444c1.356.512.273.1-.106-.04l-.664-2.404c-.18-.638 1.322-1.628 1.973-1.794.233-.06 1.416.259 1.243.418l-.904.844c-.392.365-.558.837-1.535 2.976zm3.429-8.018c.087.472-2.1 1.023-2.153.571l-.259-2.338c-.053-.452 1.867-1.09 1.954-.651zM102.328 8.464c-.06.279-1.15 1.169-1.322.963l-1.17-1.362c-.239-.279.286-1.88.658-1.847l1.489.14c.491.046.505 1.415.352 2.106zm271 28.215.578 1.468c.14.345-1.807.617-1.814.259l-.086-3.794c0-.245.91-.87 1.11-.717.199.153.85.664.79.877zM45.04 21.445c.4-.306 2.24.306 2.067.777l-.71 1.927c-.18.478-1.39-.007-1.748-.359-.452-.438-.107-1.96.398-2.338zm337.166 8.909c.206-.445 2.519-.306 2.446.186l-.266 1.853c-.073.492-1.582.359-1.98.06-.399-.299-.472-1.508-.193-2.1zm-6.552-9.494c-.412.02-1.422-1.315-1.316-1.707.147-.525.971-1.627 1.476-1.408.412.18 1.109.976 1.322 1.368s-.977 1.728-1.489 1.754zM97.816 12.264l-1.555-.85c-.232-.127.372-.432.618-.525l2.585-.957c.425-.16.512 1.043.193 1.481-.93.565-1.535 1.01-1.834.85zm-56.39 21.71c-.439.24-2.08-1.647-1.688-1.946.392-.3 1.681-.512 2.153-.405.592.132.266 1.953-.465 2.358zm200.11-.113c.18-.325 2.027-.564 1.987-.18l-.212 2.167c-.04.392-1.323.073-1.715-.127-.472-.239-.392-1.248-.06-1.866zm76.292-26.659-1.448-.804c-.233-.133.505-.83.365-.545l2.293-.797c.266-.093 1.289-.226 1.189.026l-.405 1.017zm-72.67 35.083c-.911-1.554-1.21-3.135-.831-5.201.911 1.554 1.21 3.135.831 5.201m33.664-35.296c.166-.326 2.213-.452 2.14-.08l-.386 1.96c-.073.372-.997.219-1.482.1-.485-.12-.531-1.469-.266-1.98zM58.91 12.204c.185-.399 2.06-.558 2.033-.12l-.1 1.854c-.027.438-1.183.438-1.615.345s-.558-1.56-.319-2.079m19.005 2.505c.133-.439 2.087-.558 2.06-.12l-.093 1.854c-.02.438-1.15.385-1.575.292s-.585-1.415-.399-2.026zm29.79-3.8c.16-.333 1.854-.651 2.04-.34.253.42.519 1.263.126 1.549l-1.189.863c-.392.286-1.189-1.634-.97-2.072zM297.78 9.42c.087-.352 2.313-.365 2.233 0l-.432 1.967c-.08.365-.97.213-1.296.027-.432-.253-.677-1.316-.505-1.987zM37.146 28.507c.093.359-1.09 1.342-1.402 1.136l-1.369-.923c-.299-.2.592-.964.944-1.043.465-.107 1.714.372 1.827.837zM32.462 43.52c-.552.393-1.86.453-1.894.054s0-1.488.12-1.9c.192-.631 2.339 1.448 1.774 1.847M45.36 40.77c.26.545-2.306.897-2.386.286-.06-.432.632-1.734 1.01-1.574.38.16 1.143.797 1.376 1.288m259.464-26.5-.724.551-.904.545c-.312.186-1.103-1.043-.837-1.296l1.076-1.023c.353-.332 1.768.93 1.389 1.216zm23.617-9.228c.551.166 1.216.525 1.555.818s-.266 1.787-.691 1.667l-1.642-.472c-.425-.12.353-2.145.778-2.013M139.66 15.054c.293.192.286 1.747-.026 1.62l-1.263-.517c-.172-.073-.737-.83-.704-.877l.518-.704c.18-.246 1.117.239 1.475.471zm127.44 21.89-1.728-2.292c-.239-.319 1.868-.784 1.848-.412zm72.345-21.491c-.452.378-1.621.837-1.734.505-.113-.333-.498-1.256-.253-1.362l1.482-.618c.366-.153.824 1.202.505 1.475M55.66 31.19c.239-.258 1.867-.105 1.78.233l-.292 1.17c-.086.338-1.335.279-1.568.013s-.166-1.156.073-1.415zm299.408-10.536c.372-.325 1.814-.544 1.727-.18l-.312 1.436c-.106.491-1.801-.924-1.415-1.256m-270.11-6.65c-.28.332-2.033.412-1.914 0l.545-1.807c.106-.352 1.608 1.522 1.369 1.807m274.721-4.046c.24.2.499 1.475.2 1.402l-1.482-.352c-.219-.053-.884-.605-.771-.804l.472-.804c.173-.292 1.203.24 1.575.558zm-54.782-1.109c.04.305-1.336.498-1.415.232l-.505-1.687c-.087-.279 1.661-.372 1.701-.086l.213 1.54zm-198.369-.791c-.213.286-1.675.924-1.695.625l-.119-1.953c-.027-.499 2.106.93 1.807 1.335zm216.869-3.215c.273.1 1.084 1.461.811 1.554l-1.037.366c-.265.093-.817-.671-1.096-1.01-.193-.24 1.037-1.016 1.316-.91zm2.758-1.455c-.007.312-1.622.113-1.615-.18l.047-1.627c.006-.246 1.614-.06 1.608.206l-.047 1.595zm5.389-1.036c.525-.346 1.907-.591 1.801-.22l-.399 1.409c-.14.492-1.834-.904-1.402-1.19M113.193 8.49c-.445.1-1.861.093-1.728-.133l.957-1.6c.226-.386 1.21 1.634.764 1.733zm-9.13 2.724c-.612 1.448-2.2.14-1.868-.87.193-.585 2.127.252 1.868.87m240.193 1.196c.313-.352 1.881-.585 1.781-.226l-.399 1.395c-.139.485-1.707-.797-1.375-1.17zm6.32 2.77c.199-.14 1.056.113 1.136.352.113.352.153 1.196-.219 1.216l-1.203.073c-.372.02-.013-1.422.286-1.634zm-225.754 1.9c.212-.146 1.056.08 1.149.326.14.359.213 1.368-.179 1.362l-1.256-.02c-.385 0-.033-1.455.286-1.668m14.632 3.641c.439-.326 1.828-.618 1.735-.279l-.373 1.302c-.132.459-1.727-.744-1.362-1.023m223.003 2.445c-.651.83-1.927.584-.89-.652l1.515-1.813c.159-.193 1.209.936 1.01 1.096zM32.395 28.587c-1.116 1.063-2.246-.857-1.787-1.396.358-.431 1.581.605 1.787 1.396m24.042 1.78c-.418-.246-1.575-.997-1.409-1.156l.93-.89c.227-.22 1.017.086 1.243.332.34.365-.372 1.94-.764 1.714m214.058 6.457c-.279-.08-.026-1.302.266-1.348.313-.047 1.309-.12 1.316.153l.027 1.215c0 .273-1.23.093-1.609-.02M319.018.419c.139 1.474-1.582 1.474-1.435 0 .053-.559 1.382-.559 1.435 0M41.4 29.81c-.1.278-.931 1.335-1.31 1.281-.272-.033-1.163-1.355-.884-1.348l2.193.06zm228.61 3.434c.226.777-1.761.863-1.86.046-.054-.419 1.734-.492 1.86-.046m62.591-23.113-1.841-.93c.007.12-.718-.85-.452-.923l1.263-.346zm-195.579 2.332c.14 1.475-1.581 1.482-1.435 0 .053-.558 1.382-.558 1.435 0m-23.942 2.445-2.306-.32.093-1.733zm184.833 3.116c.206.83-1.807.837-1.887.073-.046-.425 1.781-.505 1.887-.073m-19.031 3.156c.219.843-1.755.856-1.861.072-.053-.412 1.748-.491 1.861-.073m-216.657.598c.06-.226 1.15-.452 1.296-.266.219.28.498.864.239 1.096l-.77.678c-.267.232-.852-1.163-.765-1.508m198.828 2.956c.08.352-1.362 1.462-1.389 1.103l-.106-1.528c-.034-.485 1.389-.086 1.495.425M42.895 43.182c.146.186-.705 1.27-.818 1.07l-.784-1.415c-.113-.206.698-.81.837-.638l.764.977zM29.59 41.634l-1.494-1.441 1.402-.532c.259-.1.2.704.093 1.973m326.022-22.508-1.25-.04c-.086-1.667.864-2.125 1.25.04m5.382-3.646c.226.325-.319.63-1.05.783-1.289-1.521.771-1.182 1.05-.784M95.537 13.745l-1.495-1.441 1.402-.532c.259-.1.2.704.093 1.973m261.285-5.859c-.086.305-1.216.206-1.223-.047-.026-.963 1.648-1.534 1.223.047m-41.239.79-1.496-1.441 1.403-.532c.259-.1.199.704.093 1.973m-3.622-3.148a.705.705 0 1 0 0-1.41.705.705 0 0 0 0 1.41M98.255 6.796a.704.704 0 1 0 0-1.409.704.704 0 0 0 0 1.41m230.252 2.291c.06-.279 1.316-.485 1.23-.212l-.366 1.156c-.086.265-.923-.672-.864-.944M91.915 10.596a.704.704 0 1 0 0-1.408.704.704 0 0 0 0 1.408m12.606-.192c.379-.206 1.435-.538 1.356-.266l-.339 1.103c-.087.272-1.25-.704-1.01-.83zm30.568.438-1.27 1.09v-2.18zm-26.627 3.202c-.06-.272 1.335-.345 1.242-.066l-.432 1.229c-.099.279-.731-.81-.804-1.163zm196.96.153c.539-.226 1.582-.511 1.489-.24l-.379 1.084c-.1.279-1.362-.731-1.103-.837zm42.05 1.468a.705.705 0 1 0 0-1.41.705.705 0 0 0 0 1.41m-64.683 1.907a.704.704 0 1 0 0-1.408.704.704 0 0 0 0 1.408m74.193 1.262a.704.704 0 1 0 0-1.408.704.704 0 0 0 0 1.408m12.492.97c.711-.232 1.522-.438 1.442-.173l-.332 1.116c-.08.266-.724-.425-1.11-.943m-233.289 3.249c.359-.18 1.502-.498 1.409-.226l-.379 1.09c-.093.272-1.269-.745-1.037-.858zm218.896 1.487a.704.704 0 1 0 0-1.407.704.704 0 0 0 0 1.408M3.768 47.361a.704.704 0 1 0 0-1.408.704.704 0 0 0 0 1.408m18.387-.631a.704.704 0 1 0 0-1.409.704.704 0 0 0 0 1.409m6.346-18.383a.704.704 0 1 0 0-1.408.704.704 0 0 0 0 1.408m10.141 13.307a.704.704 0 1 0 0-1.409.704.704 0 0 0 0 1.409m5.077-3.168a.704.704 0 1 0 0-1.409.704.704 0 0 0 0 1.409m231.421-6.591-1.741-.146zm-3.129.107-1.197-1.196c.552.206.991.644 1.197 1.195M354.782 21.1l-1.608-.924c.458.166 1.156.558 1.608.924m-36.495-8.212-1.767-.153zm-212.424.1-1.196-1.196c.552.206.99.644 1.196 1.196M87.397 9.892A2.04 2.04 0 0 1 86.2 8.696zm238.512-3.866-1.189-1.15c.285.054.644.353 1.189 1.15m-19.337-2.465.007.412v.432l-.007.412-.013-.412v-.432zm2 .937h.432l.412.006-.412.013h-.432l-.412-.013zm45.558.332.007.411v.426l-.007.418-.013-.418V5.24zm-29.065 2.199h.425l.412.013-.412.007h-.425l-.419-.007zM88.526 9.566h.432l.412.007-.412.013h-.432l-.412-.013zm228.292 1.269h.426l.418.007-.418.013h-.426l-.412-.013zm-17.848 6.67.026.412v.432l-.026.412-.013-.412v-.432zm3.176.831.512-.053.093.365.026.392-.584-.292-.572-.312zm-32.887 12.782h.426l.412.006-.412.014h-.426l-.418-.014zm.512 7.939.02.411v.432l-.013.412-.027-.412v-.431zm-17.078 4.737h.472l.452.013-.452.006h-.472l-.452-.006zm116.655-10.451.319.32-.319.418-.319-.419zm7.587-6.363-.315.315.315.315.315-.315zm-74.194-10.767-.315.314.315.315.314-.315zm13.34-1.883.319.319-.319.472-.319-.472zm-2.538-2.02.319.432-.319.319-.313-.32zm-6.359.104-.314.315.315.314.314-.315z"/></g><defs><clipPath id="a"><path fill="#fff" d="M0 0h412v81H0z"/></clipPath></defs></svg>